<?xml version="1.0" encoding="UTF-8" standalone="no"?>
<svg width="32px" height="32px" viewBox="0 0 32 32" version="1.1" xmlns="http://www.w3.org/2000/svg" xmlns:xlink="http://www.w3.org/1999/xlink" xmlns:sketch="http://www.bohemiancoding.com/sketch/ns">
    <!-- Generator: Sketch 3.0.4 (8053) - http://www.bohemiancoding.com/sketch -->
    <title>facebook</title>
    <desc>Created with Sketch.</desc>
    <defs></defs>
    <g id="Page-1" stroke="none" stroke-width="1" fill="none" fill-rule="evenodd" sketch:type="MSPage">
        <g id="facebook" sketch:type="MSArtboardGroup" fill="#FFFFFF">
            <path d="M26,7.25 L26,24.75 C26,25.0885434 25.8763033,25.3815092 25.6289062,25.6289062 C25.3815092,25.8763033 25.0885434,26 24.75,26 L19.75,26 L19.75,18.2265625 L22.25,18.2265625 L22.6699219,15.3457031 L19.75,15.3457031 L19.75,13.0800781 C19.75,12.6634094 19.8557932,12.3444021 20.0673828,12.1230469 C20.2789724,11.9016916 20.5898417,11.7910156 21,11.7910156 L22.875,11.7910156 L22.875,9.19335938 C22.3151014,9.10221309 21.6315145,9.05664062 20.8242188,9.05664062 C19.4830662,9.05664062 18.4593134,9.39680649 17.7529297,10.0771484 C17.0465459,10.7574904 16.6933594,11.6835879 16.6933594,12.8554688 L16.6933594,15.3457031 L14.1933594,15.3457031 L14.1933594,18.2265625 L16.6933594,18.2265625 L16.6933594,26 L7.25,26 C6.91145664,26 6.61849082,25.8763033 6.37109375,25.6289062 C6.12369668,25.3815092 6,25.0885434 6,24.75 L6,7.25 C6,6.91145664 6.12369668,6.61849082 6.37109375,6.37109375 C6.61849082,6.12369668 6.91145664,6 7.25,6 L24.75,6 C25.0885434,6 25.3815092,6.12369668 25.6289062,6.37109375 C25.8763033,6.61849082 26,6.91145664 26,7.25 L26,7.25 Z" sketch:type="MSShapeGroup"></path>
        </g>
    </g>
</svg>