<?xml version="1.0" encoding="UTF-8" standalone="no"?>
<svg width="32px" height="32px" viewBox="0 0 32 32" version="1.1" xmlns="http://www.w3.org/2000/svg" xmlns:xlink="http://www.w3.org/1999/xlink" xmlns:sketch="http://www.bohemiancoding.com/sketch/ns">
    <!-- Generator: Sketch 3.0.4 (8053) - http://www.bohemiancoding.com/sketch -->
    <title>googleplus</title>
    <desc>Created with Sketch.</desc>
    <defs></defs>
    <g id="Page-1" stroke="none" stroke-width="1" fill="none" fill-rule="evenodd" sketch:type="MSPage">
        <g id="googleplus" sketch:type="MSArtboardGroup" fill="#FFFFFF">
            <path d="M26,10.5800781 L26,11.4199219 L22.6699219,11.4199219 L22.6699219,14.75 L21.8300781,14.75 L21.8300781,11.4199219 L18.5,11.4199219 L18.5,10.5800781 L21.8300781,10.5800781 L21.8300781,7.25 L22.6699219,7.25 L22.6699219,10.5800781 L26,10.5800781 Z M14.6816406,17.3867188 C15.3587273,17.8815129 15.8323554,18.38281 16.1025391,18.890625 C16.3727227,19.39844 16.5078125,20.0331993 16.5078125,20.7949219 C16.5078125,21.2766951 16.3922538,21.7405577 16.1611328,22.1865234 C15.9300119,22.6324892 15.6044943,23.0328758 15.1845703,23.3876953 C14.7646463,23.7425148 14.2226596,24.0273427 13.5585938,24.2421875 C12.8945279,24.4570323 12.1588582,24.5644531 11.3515625,24.5644531 C10.3815056,24.5644531 9.49284258,24.442384 8.68554688,24.1982422 C7.87825117,23.9541003 7.2288436,23.5944034 6.73730469,23.1191406 C6.24576577,22.6438778 6,22.1002635 6,21.4882812 C6,20.5052034 6.50292466,19.6295611 7.50878906,18.8613281 C8.51465347,18.0930951 9.72395127,17.7089844 11.1367188,17.7089844 L12.0449219,17.7089844 C11.58268,17.2597634 11.3515625,16.7812525 11.3515625,16.2734375 C11.3515625,15.9153628 11.4361971,15.58659 11.6054688,15.2871094 C11.4947911,15.3001303 11.3320323,15.3066406 11.1171875,15.3066406 C9.94530664,15.3066406 8.98828496,14.9420609 8.24609375,14.2128906 C7.50390254,13.4837203 7.1328125,12.5820366 7.1328125,11.5078125 C7.1328125,10.8372362 7.3476541,10.2041045 7.77734375,9.60839844 C8.2070334,9.01269233 8.77343398,8.54069185 9.4765625,8.19238281 C10.179691,7.84407378 10.9186159,7.66992188 11.6933594,7.66992188 L16.9277344,7.66992188 L15.7460938,8.51953125 L14.0761719,8.51953125 C14.6100287,8.72135518 15.0250636,9.10058315 15.3212891,9.65722656 C15.6175145,10.21387 15.765625,10.8404913 15.765625,11.5371094 C15.765625,12.5983126 15.2740935,13.5065066 14.2910156,14.2617188 C13.8808573,14.5937517 13.6123053,14.8557933 13.4853516,15.0478516 C13.3583978,15.2399098 13.2949219,15.4791652 13.2949219,15.765625 C13.2949219,15.9869803 13.4495427,16.2620426 13.7587891,16.5908203 C14.0680354,16.919598 14.3756495,17.1848948 14.6816406,17.3867188 Z M11.8789062,14.7695312 C12.5494825,14.795573 13.0817038,14.5026072 13.4755859,13.890625 C13.8694681,13.2786428 14.0078131,12.5299523 13.890625,11.6445312 C13.7799474,10.7591102 13.4446643,10.0039094 12.8847656,9.37890625 C12.324867,8.75390313 11.7031284,8.43164072 11.0195312,8.41210938 C10.348955,8.38606758 9.81673374,8.67252305 9.42285156,9.27148438 C9.02896938,9.8704457 8.89062441,10.6093706 9.0078125,11.4882812 C9.12500059,12.3737023 9.46516646,13.1370411 10.0283203,13.7783203 C10.5914742,14.4195996 11.20833,14.7499999 11.8789062,14.7695312 Z M11.3515625,23.734375 C12.6796941,23.734375 13.6432262,23.4853541 14.2421875,22.9873047 C14.8411488,22.4892553 15.140625,21.8268271 15.140625,21 C15.140625,20.8893224 15.1276043,20.7102877 15.1015625,20.4628906 C15.0624998,20.3261712 15.0022791,20.1910814 14.9208984,20.0576172 C14.8395178,19.924153 14.767904,19.8151046 14.7060547,19.7304688 C14.6442054,19.6458329 14.5253915,19.5335293 14.3496094,19.3935547 C14.1738272,19.25358 14.0517582,19.1575523 13.9833984,19.1054688 C13.9150387,19.0533852 13.7522799,18.9378264 13.4951172,18.7587891 C13.2379544,18.5797517 13.0703129,18.464193 12.9921875,18.4121094 C12.6145814,18.3014317 12.1816431,18.2298179 11.6933594,18.1972656 C11.0292936,18.1972656 10.4059274,18.3193347 9.82324219,18.5634766 C9.24055698,18.8076184 8.77343926,19.1412739 8.421875,19.5644531 C8.07031074,19.9876323 7.89453125,20.4433569 7.89453125,20.9316406 C7.89453125,21.7063841 8.22167642,22.3671848 8.87597656,22.9140625 C9.53027671,23.4609402 10.3554638,23.734375 11.3515625,23.734375 Z" sketch:type="MSShapeGroup"></path>
        </g>
    </g>
</svg>