<?xml version="1.0" encoding="UTF-8" standalone="no"?>
<svg width="32px" height="32px" viewBox="0 0 32 32" version="1.1" xmlns="http://www.w3.org/2000/svg" xmlns:xlink="http://www.w3.org/1999/xlink" xmlns:sketch="http://www.bohemiancoding.com/sketch/ns">
    <!-- Generator: Sketch 3.0.4 (8053) - http://www.bohemiancoding.com/sketch -->
    <title>linkedin</title>
    <desc>Created with Sketch.</desc>
    <defs></defs>
    <g id="Page-1" stroke="none" stroke-width="1" fill="none" fill-rule="evenodd" sketch:type="MSPage">
        <g id="linkedin" sketch:type="MSArtboardGroup" fill="#FFFFFF">
            <path d="M6.41992188,11.0800781 L10.5800781,11.0800781 L10.5800781,24 L6.41992188,24 L6.41992188,11.0800781 Z M13.0800781,24 L13.0800781,14 L13.0117188,11.0800781 L17.1132812,11.0800781 L17.25,12.8671875 C17.6927105,12.1966112 18.2298146,11.6627624 18.8613281,11.265625 C19.4928417,10.8684876 20.2057252,10.6699219 21,10.6699219 C22.4974033,10.6699219 23.7050735,11.1826121 24.6230469,12.2080078 C25.5410202,13.2334036 26,14.6640533 26,16.5 L26,24 L21.8300781,24 L21.8300781,16.9199219 C21.8300781,15.9303336 21.6201193,15.1962915 21.2001953,14.7177734 C20.7802713,14.2392554 20.2350294,14 19.5644531,14 C18.9003873,14 18.348635,14.2164692 17.9091797,14.6494141 C17.4697244,15.0823589 17.25,15.6992147 17.25,16.5 L17.25,24 L13.0800781,24 Z M8.48046875,9 L8.45117188,9 C7.72851201,9 7.1393252,8.78027563 6.68359375,8.34082031 C6.2278623,7.90136499 6,7.35612305 6,6.70507812 C6,6.04752275 6.23274507,5.50228081 6.69824219,5.06933594 C7.16373931,4.63639106 7.77082959,4.41992188 8.51953125,4.41992188 C9.25521201,4.41992188 9.84928159,4.63639106 10.3017578,5.06933594 C10.754234,5.50228081 10.9869791,6.04752275 11,6.70507812 C11,7.3626335 10.7688825,7.90950303 10.3066406,8.34570312 C9.84439873,8.78190322 9.23568086,9 8.48046875,9 L8.48046875,9 Z" sketch:type="MSShapeGroup"></path>
        </g>
    </g>
</svg>