<?xml version="1.0" encoding="UTF-8" standalone="no"?>
<svg width="140px" height="100px" viewBox="0 0 140 100" version="1.1" xmlns="http://www.w3.org/2000/svg" xmlns:xlink="http://www.w3.org/1999/xlink" xmlns:sketch="http://www.bohemiancoding.com/sketch/ns">
    <!-- Generator: Sketch 3.0.4 (8053) - http://www.bohemiancoding.com/sketch -->
    <title>logo--part1</title>
    <desc>Created with Sketch.</desc>
    <defs></defs>
    <g id="Page-1" stroke="none" stroke-width="1" fill="none" fill-rule="evenodd" sketch:type="MSPage">
        <g id="logo--part1" sketch:type="MSArtboardGroup">
            <g id="Shape-+-Shape" sketch:type="MSLayerGroup">
                <path d="M140,90 C140,95.523 135.523,100 130,100 L10,100 C4.477,100 0,95.523 0,90 L0,10 C0,4.477 4.477,0 10,0 L130,0 C135.523,0 140,4.477 140,10 L140,90 L140,90 Z" id="Shape" fill="#007DB3" sketch:type="MSShapeGroup"></path>
                <path d="M19.273,67.075 C19.292,66.492 19.41,66.071 19.631,65.758 C20.174,64.98 21.495,64.625 23.903,64.201 C23.903,64.201 27.637,63.609 28.847,63.421 C29.271,64.615 29.668,66.109 29.902,67.438 C30.071,68.391 30.157,69.137 30.137,69.737 C30.067,71.73 28.802,72.036 25.392,72.639 C20.92,73.427 20.234,73.547 19.498,69.378 C19.327,68.408 19.25,67.661 19.273,67.075 L19.273,67.075 Z M22.948,58.742 C17.431,59.654 14.589,60.861 13.141,62.906 C12.432,63.906 12.062,65.078 12.007,66.632 C11.969,67.733 12.092,69.026 12.363,70.582 C13.155,75.059 14.138,76.594 16.941,77.705 L16.94,77.704 L17.036,77.752 C17.014,77.795 16.984,77.835 16.984,77.835 L14.567,81.426 L14.66,82.189 L14.722,82.743 C14.996,84.275 15.641,85.397 16.655,86.104 C18.58,87.45 21.339,86.95 23.561,86.553 L31.53,85.149 L33.827,84.795 C35.194,84.716 35.383,84.763 35.643,86.241 C35.82,87.261 35.723,87.573 34.4,88.082 C33.135,88.605 29.904,89.285 28.17,89.593 C25.813,90.007 22.329,90.344 18.358,90.543 C18.35,90.546 17.138,90.626 17.138,90.626 L17.309,91.581 C17.301,91.531 17.635,96.091 17.635,96.091 L17.667,96.525 L18.509,96.528 C18.723,96.529 23.757,96.536 29.275,95.56 C40.765,93.536 43.607,91.259 42.497,84.982 C41.316,78.265 38.115,77.665 31.389,78.849 L24.548,80.053 C23.181,80.298 21.691,80.532 21.327,80.279 C21.201,80.189 21.145,79.916 21.062,79.443 C21.002,79.127 20.983,78.808 20.971,78.511 C21.968,78.55 23.666,78.511 26.085,78.083 C34.624,76.582 38.446,74.522 37.098,66.87 L36.749,65.53 L36.707,65.385 L36.657,65.233 L32.954,62.59 C32.948,62.59 32.923,62.57 32.9,62.552 C33.294,62.467 39.469,61.09 39.469,61.09 L38.591,56.102 L22.948,58.742 L22.948,58.742 Z M48.96,62.482 C49.03,60.417 50.153,59.895 54.615,59.109 C58.972,58.339 59.932,58.562 60.798,62.904 C58.485,63.473 55.747,63.908 55.193,63.99 L55.126,64.004 C54.573,64.119 51.793,64.676 49.125,64.844 C49.017,63.896 48.938,63.098 48.96,62.482 L48.96,62.482 Z M53.336,53.387 C47.629,54.397 43.582,55.987 42.385,60.484 L42.381,60.493 C41.86,62.601 41.894,65.814 42.472,69.1 C44.446,80.288 49.91,81.58 58.685,80.034 C64.343,79.036 68.361,76.946 68.529,76.858 L69.235,76.488 L67.304,71.235 L66.131,71.667 C63.458,72.649 61.146,73.495 58.161,74.022 C56.14,74.376 53.38,74.865 51.773,73.663 C50.885,72.948 50.196,71.545 49.895,69.837 L49.702,68.74 C49.689,68.653 49.683,68.591 49.686,68.548 C49.686,68.496 49.695,68.484 49.696,68.477 C49.703,68.486 49.752,68.474 49.752,68.474 C49.912,68.447 49.922,68.447 50.29,68.62 L53.033,69.892 L53.23,69.892 C53.312,69.892 55.2,69.881 58.928,69.224 C61.575,68.759 63.965,68.163 65.708,67.731 L68.655,67.034 L68.588,66.234 C68.588,66.217 68.568,66.062 68.568,66.062 C68.388,64.469 68.286,63.595 68.127,62.693 C66.566,53.835 63.113,51.661 53.336,53.387 L53.336,53.387 Z M86.341,47.566 C85.357,47.74 83.299,48.313 83.212,48.337 L83.212,48.337 L82.982,48.401 L79.925,51.448 C79.644,51.697 79.413,51.907 79.148,51.954 C79.148,51.954 79.044,51.962 79.037,51.966 C79.037,51.966 79.002,51.902 78.954,51.762 C78.954,51.762 78.962,51.793 78.965,51.824 C78.927,51.672 78.798,51.25 78.334,49.72 L78.214,49.322 L69.517,50.854 L70.377,55.724 L73.513,55.81 C73.516,55.83 73.525,55.871 73.525,55.871 L76.167,70.855 C76.167,70.855 76.171,70.89 76.175,70.912 C76.127,70.931 73.259,72.066 73.259,72.066 L74.116,76.939 L87.091,74.652 L86.234,69.783 C86.234,69.783 83.157,69.683 83.151,69.683 C83.149,69.665 83.139,69.627 83.139,69.627 C83.139,69.627 80.995,57.481 80.594,55.2 C82.592,54.512 84.425,54.011 86.029,53.729 C90.47,52.948 91.066,53.338 91.808,57.543 L93.613,67.78 C93.613,67.78 93.618,67.813 93.621,67.836 C93.576,67.855 90.701,68.988 90.701,68.988 L91.559,73.861 L104.536,71.57 L103.678,66.705 L100.592,66.607 C100.588,66.588 100.579,66.548 100.579,66.548 L98.704,55.896 C97.99,51.843 96.918,49.581 95.12,48.326 C93.272,47.032 90.648,46.805 86.341,47.566 L86.341,47.566 Z M103.59,38.17 C103.59,38.17 104.589,43.848 104.731,44.647 C103.97,44.784 99.874,45.501 99.874,45.501 L100.884,51.218 C100.884,51.218 104.979,50.494 105.74,50.362 C105.889,51.22 107.789,61.995 107.789,61.995 C108.881,68.181 110.529,70.731 117.422,69.52 C120.311,69.008 122.667,67.832 122.766,67.784 L123.463,67.435 L121.847,62.363 L120.953,62.7 C119.869,63.089 118.472,63.548 117.736,63.677 C116.525,63.895 115.932,63.894 115.626,63.677 C115.282,63.439 115.113,62.774 114.897,61.551 L112.624,48.668 C112.625,48.677 112.382,47.149 112.382,47.149 L112.381,47.143 C112.367,47.053 112.362,46.992 112.364,46.951 C112.365,46.901 112.371,46.884 112.374,46.879 C112.382,46.888 112.428,46.878 112.428,46.878 C112.591,46.85 112.599,46.849 112.969,47.023 C112.965,47.021 115.614,48.254 115.614,48.254 L115.707,48.298 L115.731,48.298 C116.027,48.46 116.784,48.481 119.469,48.005 L119.933,47.925 L118.916,42.172 C118.916,42.172 112.512,43.28 111.699,43.422 C111.558,42.621 110.556,36.94 110.556,36.94 L103.59,38.17 L103.59,38.17 Z M128.084,40.382 C126.91,40.379 125.809,40.838 124.979,41.672 C124.149,42.498 123.694,43.606 123.694,44.776 C123.695,45.946 124.149,47.047 124.977,47.88 C125.806,48.704 126.91,49.163 128.081,49.16 C129.255,49.165 130.357,48.708 131.185,47.879 C132.018,47.051 132.475,45.946 132.477,44.773 C132.474,42.352 130.502,40.379 128.084,40.382 L128.084,40.382 Z M131.189,57.987 C130.015,57.984 128.912,58.443 128.084,59.273 C127.255,60.103 126.797,61.203 126.798,62.379 C126.796,63.552 127.254,64.651 128.083,65.483 C128.911,66.312 130.014,66.766 131.188,66.77 C133.609,66.771 135.577,64.8 135.576,62.378 C135.577,59.954 133.609,57.988 131.189,57.987 L131.189,57.987 Z" id="Shape" fill="#FFFFFF" sketch:type="MSShapeGroup"></path>
            </g>
        </g>
    </g>
</svg>