<?xml version="1.0" encoding="utf-8"?>
<!-- Generator: Adobe Illustrator 16.0.4, SVG Export Plug-In . SVG Version: 6.00 Build 0)  -->
<!DOCTYPE svg PUBLIC "-//W3C//DTD SVG 1.1//EN" "http://www.w3.org/Graphics/SVG/1.1/DTD/svg11.dtd">
<svg version="1.1" id="Layer_1" xmlns="http://www.w3.org/2000/svg" xmlns:xlink="http://www.w3.org/1999/xlink" x="0px" y="0px"
	 width="100px" height="65px" viewBox="0 0 100 65" enable-background="new 0 0 100 65" xml:space="preserve">
<path fill="#5C6970" d="M41.097,28.837V9.446c0-0.555,0.384-1.006,0.857-1.006c0.473,0,0.857,0.451,0.857,1.006v19.391H41.097z
	 M45.534,28.837V9.446c0-0.555-0.385-1.006-0.857-1.006c-0.474,0-0.857,0.451-0.857,1.006v19.391H45.534z M52.7,28.787V18.063
	c0-0.528-0.366-0.956-0.817-0.956c-0.449,0-0.812,0.428-0.812,0.956v10.724H52.7z M59.236,28.785v-4.379
	c0-0.499-0.346-0.904-0.771-0.904s-0.771,0.405-0.771,0.904v4.379H59.236z M37.142,7.117h2.667l-1.335-2.683L37.142,7.117z
	 M39.479,7.121h7.744L43.354,0L39.479,7.121z M49.476,15.381h4.867L51.909,4.425L49.476,15.381z M49.55,7.117l-1.311-2.683
	l-1.333,2.683h0.16v51.209h2.483L49.55,7.117L49.55,7.117z M62.277,22.208l-0.772-4.183l-0.854,4.183h0.115v15.7h1.512V22.208z
	 M60.707,22.208l-0.201-1.489h-4.709v1.489H60.707z M56.176,15.344l-0.953-4.184l-0.975,4.184h-0.021v32.211h1.949V15.344z
	 M18.597,64.872V64.87c2.288,0.002,4.017-0.618,5.04-0.997c1.006-0.374,2.619-0.947,4.769-0.947c2.153,0,3.765,0.573,4.771,0.947
	c1.021,0.379,2.751,0.999,5.04,0.997c2.288,0.002,4.018-0.618,5.039-0.997c0.987-0.368,2.891-0.949,5.04-0.947
	c2.151-0.002,4.056,0.579,5.043,0.947c1.021,0.379,2.75,0.999,5.037,0.997c2.29,0.002,4.017-0.618,5.042-0.997
	c1.006-0.374,2.618-0.947,4.771-0.947c2.148,0,3.764,0.573,4.768,0.947c1.023,0.379,2.75,0.999,5.042,0.997h0.386v-0.774h-0.386
	c-2.153-0.002-3.767-0.576-4.772-0.949c-1.021-0.379-2.752-0.998-5.037-0.996c-2.289-0.002-4.019,0.617-5.041,0.996
	c-1.006,0.373-2.619,0.947-4.771,0.949c-2.148-0.002-3.764-0.576-4.77-0.949c-1.041-0.386-3.021-0.994-5.312-0.996
	c-2.288,0.002-4.27,0.61-5.311,0.996c-1.005,0.373-2.618,0.947-4.769,0.949c-2.151-0.002-3.765-0.576-4.77-0.949
	c-1.023-0.379-2.754-0.998-5.042-0.996c-2.288-0.002-4.017,0.617-5.038,0.996c-1.006,0.373-2.62,0.947-4.771,0.949h-0.388v0.776
	H18.597z M18.597,63.449v-0.002c2.288,0.002,4.019-0.616,5.042-0.995c1.005-0.373,2.615-0.947,4.768-0.947
	c2.153,0,3.763,0.574,4.769,0.947c1.023,0.379,2.754,0.997,5.041,0.995c2.289,0.002,4.018-0.616,5.041-0.995
	c0.987-0.367,2.891-0.949,5.04-0.947c2.15-0.002,4.052,0.58,5.042,0.947c1.021,0.379,2.752,0.997,5.039,0.995
	c2.288,0.002,4.018-0.616,5.04-0.995c1.006-0.373,2.616-0.947,4.771-0.947c2.149,0,3.761,0.574,4.771,0.947
	c1.021,0.379,2.75,0.997,5.04,0.995h0.387v-0.772H78c-2.154,0-3.766-0.577-4.771-0.948c-1.021-0.381-2.75-0.996-5.037-0.996
	c-2.293,0-4.021,0.615-5.043,0.998c-1.006,0.369-2.617,0.946-4.769,0.946c-2.153,0-3.764-0.577-4.771-0.946
	c-1.041-0.389-3.021-0.998-5.312-0.998c-2.289,0-4.271,0.609-5.312,0.998c-1.003,0.369-2.618,0.946-4.769,0.946
	c-2.151,0-3.763-0.577-4.771-0.948c-1.021-0.381-2.751-0.996-5.039-0.996c-2.289,0-4.018,0.615-5.041,0.998
	c-1.006,0.369-2.617,0.946-4.769,0.946h-0.388v0.774H18.597z M73.617,51.287v-2.706h3.557v-1.075h-3.557v-2.404h4.808v-1.072h-6.772
	v0.002h-1.699v0.973h1.695l0.004,0.008v7.354h6.906v-1.077h-4.941V51.287z M35.307,43.993c4.086,0,5.436,1.159,5.436,4.143
	c0,3.854-2.79,4.191-5.436,4.191h-3.162l-0.004-7.363h-1.7v-0.978h3.667L35.307,43.993 M35.307,51.326
	c2.181,0,3.217-0.628,3.217-3.19c0-2.026-0.535-3.14-3.217-3.14h-1.208v6.33H35.307 M2.602,45.891c0-0.713,0.927-1.025,2.096-1.025
	c0.963,0,1.803,0.143,2.533,0.306v1.58h0.963v-2.658c-0.504-0.063-1.859-0.229-3.414-0.229c-2.622,0-4.78,0.662-4.78,2.15
	c0,2.366,6.636,2.475,6.636,4.286c0,0.544-0.585,1.161-2.441,1.161c-1.756,0-3.107-0.509-3.935-0.811v1.461
	c0.424,0.061,2.06,0.35,3.855,0.35c3.025,0,5.122-0.809,5.122-2.365C9.237,47.582,2.602,47.363,2.602,45.891 M88.566,44.027v6.136
	h-0.032l-4.472-6.136h-2.422v0.002h-1.861v0.974h1.861v7.358h1.797v-6.438h0.033l4.692,6.438h2.2v-8.334H88.566z M92.218,44.027
	v0.096v2.668h0.966v-1.688h1.942v7.258h1.966v-7.258H100v-1.076H92.218z M10.725,43.993v1.075h0.002v1.688h0.968v-1.688h1.938v7.26
	h1.968v-7.26h2.907v-1.075H10.725z M64.572,47.631v1.003h1.701v2.656c-0.187,0.146-0.739,0.329-1.682,0.329
	c-2.354,0-2.773-1.79-2.773-3.311c0-1.674,0.391-3.166,2.197-3.279H67.6v-1.008h-3.69v0.006c-3.063,0.105-4.257,1.701-4.257,4.281
	c0,2.45,1.477,4.312,4.94,4.312c1.831,0,3.212-0.521,3.647-0.763V47.63L64.572,47.631L64.572,47.631z M29.389,52.327h-2.052
	L26.33,50.07h-4.17l-1.008,2.257H19.1l3.505-7.359h-1.677v-0.973h2.141v-0.002h2.369L29.389,52.327z M25.857,48.993l-1.595-3.659
	h-0.034l-1.598,3.659H25.857z"/>
</svg>
