<?xml version="1.0" encoding="utf-8"?>
<!-- Generator: Adobe Illustrator 16.0.4, SVG Export Plug-In . SVG Version: 6.00 Build 0)  -->
<!DOCTYPE svg PUBLIC "-//W3C//DTD SVG 1.1//EN" "http://www.w3.org/Graphics/SVG/1.1/DTD/svg11.dtd">
<svg version="1.1" id="Layer_1" xmlns="http://www.w3.org/2000/svg" xmlns:xlink="http://www.w3.org/1999/xlink" x="0px" y="0px"
	 width="50px" height="50px" viewBox="0 0 50 50" enable-background="new 0 0 50 50" xml:space="preserve">
<path display="none" fill="#FFFFFF" d="M34.359,30.359c-0.729-4.153-2.709-4.524-6.869-3.793l-4.23,0.744
	c-0.845,0.15-1.767,0.297-1.991,0.141c-0.078-0.055-0.113-0.225-0.164-0.518c-0.037-0.194-0.049-0.394-0.057-0.576
	c0.616,0.022,1.666,0,3.162-0.266c5.281-0.928,7.646-2.203,6.812-6.934l-0.215-0.829l-0.027-0.091l-0.028-0.094l-2.291-1.635
	c-0.004,0-0.021-0.012-0.033-0.023c0.244-0.052,4.062-0.903,4.062-0.903L31.943,12.5l-9.673,1.633
	c-3.412,0.564-5.169,1.311-6.063,2.575c-0.438,0.618-0.667,1.343-0.701,2.304c-0.023,0.682,0.052,1.48,0.22,2.443
	c0.489,2.768,1.097,3.718,2.83,4.404l0,0l0.059,0.029c-0.014,0.025-0.032,0.051-0.032,0.051l-1.495,2.221l0.059,0.473l0.038,0.344
	c0.169,0.946,0.568,1.642,1.195,2.078c1.19,0.831,2.896,0.522,4.27,0.276l4.928-0.868L29,30.244c0.844-0.049,0.961-0.02,1.122,0.895
	c0.11,0.631,0.05,0.823-0.769,1.139c-0.783,0.324-2.78,0.744-3.854,0.936c-1.458,0.257-3.612,0.465-6.067,0.588
	c-0.006,0.002-0.755,0.053-0.755,0.053l0.105,0.592c-0.005-0.031,0.202,2.787,0.202,2.787l0.02,0.271l0.52,0.001
	c0.132,0.001,3.245,0.005,6.66-0.598C33.289,35.65,35.047,34.242,34.359,30.359z M20.138,20.711c-0.106-0.6-0.154-1.062-0.141-1.425
	c0.013-0.36,0.086-0.621,0.223-0.814c0.335-0.481,1.152-0.7,2.641-0.963c0,0,2.311-0.366,3.059-0.482
	c0.262,0.739,0.508,1.663,0.652,2.483c0.104,0.59,0.158,1.051,0.145,1.422c-0.043,1.233-0.824,1.422-2.934,1.795
	C21.017,23.215,20.593,23.289,20.138,20.711z"/>
<path display="none" fill="#FFFFFF" d="M15.208,19.606c0.012-0.377,0.089-0.649,0.231-0.853c0.352-0.504,1.207-0.734,2.766-1.008
	c0,0,2.417-0.383,3.201-0.505c0.274,0.773,0.532,1.739,0.683,2.6c0.109,0.617,0.166,1.101,0.152,1.488
	c-0.045,1.291-0.865,1.489-3.072,1.879c-2.895,0.511-3.34,0.589-3.816-2.11C15.243,20.469,15.193,19.985,15.208,19.606
	 M17.587,14.212c-3.571,0.591-5.411,1.372-6.348,2.695c-0.46,0.647-0.699,1.406-0.734,2.413c-0.025,0.711,0.055,1.549,0.23,2.557
	c0.512,2.898,1.149,3.891,2.963,4.611l-0.001-0.002l0.062,0.031c-0.013,0.028-0.033,0.055-0.033,0.055l-1.565,2.324l0.061,0.496
	l0.041,0.356c0.176,0.992,0.594,1.717,1.25,2.174c1.247,0.873,3.032,0.55,4.472,0.291l5.157-0.907l1.488-0.229
	c0.886-0.054,1.009-0.021,1.177,0.937c0.112,0.659,0.051,0.862-0.806,1.19c-0.82,0.34-2.91,0.78-4.033,0.979
	c-1.525,0.268-3.781,0.485-6.353,0.614c-0.005,0-0.79,0.056-0.79,0.056l0.111,0.616c-0.005-0.03,0.211,2.921,0.211,2.921l0.021,0.28
	l0.544,0.002c0.14,0,3.397,0.007,6.97-0.625c7.439-1.312,9.279-2.787,8.561-6.853c-0.767-4.346-2.837-4.733-7.191-3.969
	l-4.429,0.779c-0.884,0.158-1.849,0.311-2.085,0.146c-0.081-0.06-0.118-0.236-0.171-0.541c-0.039-0.205-0.051-0.41-0.059-0.604
	c0.646,0.025,1.745,0,3.312-0.276c5.527-0.974,8.001-2.307,7.128-7.259l-0.227-0.867l-0.026-0.095l-0.032-0.098L24.066,16.7
	c-0.004,0-0.021-0.013-0.035-0.024c0.256-0.056,4.253-0.947,4.253-0.947L27.716,12.5L17.587,14.212z M34.65,11.326
	c-0.762-0.002-1.475,0.295-2.012,0.835c-0.537,0.534-0.83,1.253-0.83,2.01s0.293,1.47,0.828,2.009
	c0.539,0.534,1.252,0.832,2.01,0.829c0.762,0.003,1.476-0.293,2.012-0.829c0.537-0.536,0.834-1.252,0.836-2.012
	C37.492,12.602,36.216,11.324,34.65,11.326 M36.661,22.723c-0.761-0.001-1.476,0.297-2.011,0.833
	c-0.537,0.538-0.834,1.249-0.834,2.01c0,0.761,0.297,1.472,0.832,2.009c0.535,0.539,1.25,0.832,2.012,0.834
	c1.566,0.002,2.841-1.275,2.84-2.843C39.501,23.996,38.227,22.724,36.661,22.723"/>
<path fill="#FFFFFF" d="M33.643,12c-0.724-0.001-1.403,0.287-1.916,0.798c-0.52,0.508-0.8,1.193-0.8,1.917
	c0.001,0.722,0.28,1.397,0.799,1.915c0.513,0.508,1.193,0.788,1.915,0.788c0.717,0.001,1.398-0.279,1.908-0.789
	c0.521-0.515,0.803-1.192,0.804-1.916C36.352,13.217,35.135,11.999,33.643,12 M35.551,22.863c-0.717,0-1.4,0.279-1.908,0.791
	c-0.512,0.516-0.794,1.191-0.793,1.914c-0.002,0.726,0.281,1.396,0.793,1.916c0.508,0.513,1.19,0.792,1.907,0.794
	c1.495,0.002,2.714-1.215,2.714-2.71C38.264,24.075,37.045,22.863,35.551,22.863 M16.228,19.831c0.012-0.356,0.081-0.62,0.217-0.812
	c0.339-0.479,1.154-0.699,2.639-0.96c0,0,2.3-0.361,3.048-0.48c0.265,0.74,0.506,1.658,0.65,2.481
	c0.104,0.584,0.16,1.044,0.147,1.414c-0.046,1.23-0.825,1.419-2.93,1.791c-2.756,0.488-3.182,0.56-3.632-2.012
	C16.258,20.655,16.214,20.196,16.228,19.831 M18.492,14.69c-3.404,0.567-5.157,1.307-6.046,2.569
	c-0.441,0.616-0.669,1.339-0.699,2.297c-0.024,0.679,0.052,1.479,0.217,2.437c0.492,2.762,1.094,3.708,2.823,4.386h0l0.059,0.037
	c-0.013,0.026-0.028,0.051-0.028,0.051l-1.495,2.216l0.061,0.463l0.039,0.35c0.167,0.945,0.563,1.631,1.192,2.073
	c1.184,0.826,2.886,0.521,4.257,0.27l4.916-0.864l1.417-0.213c0.843-0.049,0.951-0.019,1.119,0.893
	c0.11,0.628,0.05,0.817-0.768,1.135c-0.779,0.317-2.772,0.743-3.842,0.927c-1.45,0.254-3.603,0.469-6.053,0.584
	c-0.003,0.002-0.752,0.051-0.752,0.051l0.105,0.598c-0.003-0.039,0.201,2.779,0.201,2.779l0.024,0.271L15.757,38
	c0.128,0.001,3.238,0.005,6.64-0.603c7.083-1.244,8.835-2.648,8.149-6.524c-0.724-4.14-2.697-4.51-6.847-3.782l-4.22,0.746
	c-0.839,0.143-1.763,0.295-1.983,0.139c-0.082-0.055-0.113-0.225-0.164-0.516c-0.038-0.195-0.051-0.395-0.06-0.575
	c0.618,0.024,1.662,0,3.157-0.264c5.265-0.927,7.624-2.197,6.792-6.917l-0.215-0.826l-0.026-0.089l-0.038-0.091l-2.277-1.634
	c-0.004,0-0.02-0.012-0.033-0.024c0.242-0.052,4.052-0.902,4.052-0.902l-0.549-3.074L18.492,14.69z"/>
</svg>
