<?xml version="1.0" encoding="utf-8"?>
<!-- Generator: Adobe Illustrator 16.0.4, SVG Export Plug-In . SVG Version: 6.00 Build 0)  -->
<!DOCTYPE svg PUBLIC "-//W3C//DTD SVG 1.1//EN" "http://www.w3.org/Graphics/SVG/1.1/DTD/svg11.dtd">
<svg version="1.1" id="Layer_1" xmlns="http://www.w3.org/2000/svg" xmlns:xlink="http://www.w3.org/1999/xlink" x="0px" y="0px"
	 width="50px" height="50px" viewBox="0 0 50 50" enable-background="new 0 0 50 50" xml:space="preserve">
<path fill="#FFFFFF" d="M34.359,30.359c-0.729-4.153-2.709-4.524-6.869-3.793l-4.23,0.744c-0.845,0.151-1.767,0.297-1.991,0.141
	c-0.078-0.055-0.113-0.225-0.164-0.518c-0.037-0.194-0.049-0.393-0.057-0.576c0.616,0.023,1.666,0,3.162-0.265
	c5.281-0.928,7.646-2.203,6.812-6.934l-0.215-0.829l-0.027-0.091l-0.029-0.094l-2.291-1.635c-0.004,0-0.02-0.012-0.033-0.023
	c0.244-0.052,4.062-0.903,4.062-0.903L31.943,12.5l-9.673,1.633c-3.412,0.564-5.169,1.311-6.063,2.575
	c-0.438,0.618-0.667,1.343-0.701,2.304c-0.023,0.682,0.052,1.48,0.22,2.443c0.489,2.768,1.097,3.718,2.83,4.404l0,0l0.059,0.029
	c-0.014,0.026-0.032,0.051-0.032,0.051l-1.495,2.221l0.059,0.473l0.038,0.344c0.169,0.946,0.568,1.641,1.195,2.078
	c1.19,0.831,2.896,0.522,4.27,0.276l4.928-0.868L29,30.244c0.844-0.049,0.961-0.02,1.122,0.895c0.11,0.631,0.05,0.823-0.769,1.139
	c-0.783,0.324-2.78,0.744-3.854,0.935c-1.458,0.257-3.612,0.465-6.067,0.588c-0.006,0.002-0.755,0.052-0.755,0.052l0.105,0.592
	c-0.005-0.031,0.202,2.787,0.202,2.787l0.02,0.271l0.52,0.001c0.132,0.001,3.245,0.005,6.659-0.598
	C33.289,35.65,35.047,34.242,34.359,30.359z M20.138,20.711c-0.106-0.6-0.154-1.062-0.141-1.425c0.013-0.36,0.086-0.621,0.223-0.814
	c0.335-0.481,1.152-0.7,2.641-0.963c0,0,2.311-0.366,3.059-0.482c0.262,0.739,0.508,1.663,0.652,2.483
	c0.104,0.59,0.158,1.051,0.145,1.422c-0.043,1.233-0.824,1.422-2.934,1.795C21.017,23.215,20.593,23.289,20.138,20.711z"/>
<path display="none" fill="#FFFFFF" d="M15.208,19.606c0.012-0.377,0.089-0.649,0.231-0.853c0.352-0.504,1.207-0.734,2.766-1.008
	c0,0,2.417-0.383,3.201-0.505c0.274,0.773,0.532,1.739,0.683,2.6c0.109,0.617,0.166,1.101,0.152,1.488
	c-0.045,1.291-0.865,1.489-3.072,1.879c-2.895,0.511-3.34,0.589-3.816-2.11C15.243,20.469,15.193,19.985,15.208,19.606
	 M17.587,14.212c-3.571,0.591-5.411,1.372-6.348,2.695c-0.46,0.647-0.699,1.406-0.734,2.413c-0.025,0.711,0.055,1.549,0.23,2.557
	c0.512,2.898,1.149,3.891,2.963,4.611l-0.001-0.002l0.062,0.031c-0.013,0.029-0.033,0.055-0.033,0.055l-1.565,2.324l0.061,0.496
	l0.041,0.357c0.176,0.992,0.594,1.717,1.25,2.174c1.247,0.873,3.032,0.549,4.472,0.291l5.157-0.908l1.488-0.229
	c0.885-0.053,1.008-0.021,1.176,0.936c0.113,0.66,0.051,0.863-0.805,1.191c-0.82,0.34-2.91,0.781-4.033,0.979
	c-1.525,0.268-3.781,0.486-6.353,0.615c-0.005,0-0.79,0.055-0.79,0.055l0.111,0.617c-0.005-0.031,0.211,2.92,0.211,2.92l0.021,0.281
	l0.544,0.002c0.14,0,3.397,0.006,6.97-0.625c7.439-1.312,9.279-2.787,8.561-6.852c-0.766-4.346-2.837-4.734-7.191-3.969
	l-4.429,0.779c-0.884,0.158-1.849,0.311-2.085,0.146c-0.081-0.059-0.118-0.236-0.171-0.541c-0.039-0.205-0.051-0.41-0.059-0.604
	c0.646,0.025,1.745,0,3.312-0.277c5.527-0.973,8.001-2.306,7.128-7.259l-0.227-0.867l-0.026-0.095l-0.032-0.098l-2.397-1.711
	c-0.004,0-0.021-0.013-0.035-0.024c0.256-0.056,4.253-0.947,4.253-0.947l-0.568-3.229L17.587,14.212z M34.65,11.326
	c-0.761-0.002-1.474,0.295-2.012,0.835c-0.536,0.534-0.83,1.253-0.83,2.01c0.001,0.757,0.294,1.47,0.829,2.009
	c0.539,0.534,1.252,0.832,2.01,0.829c0.761,0.003,1.475-0.293,2.011-0.829c0.538-0.536,0.834-1.252,0.836-2.012
	C37.492,12.602,36.216,11.324,34.65,11.326 M36.661,22.723c-0.76-0.001-1.476,0.297-2.011,0.833
	c-0.536,0.538-0.833,1.249-0.833,2.011c0,0.76,0.297,1.471,0.832,2.008c0.535,0.539,1.25,0.832,2.011,0.834
	c1.566,0.002,2.841-1.275,2.84-2.842C39.501,23.996,38.227,22.724,36.661,22.723"/>
</svg>
