<?xml version="1.0" encoding="UTF-8" standalone="no"?>
<svg width="40px" height="40px" viewBox="0 0 40 40" version="1.1" xmlns="http://www.w3.org/2000/svg" xmlns:xlink="http://www.w3.org/1999/xlink" xmlns:sketch="http://www.bohemiancoding.com/sketch/ns">
    <!-- Generator: Sketch 3.0.4 (8053) - http://www.bohemiancoding.com/sketch -->
    <title>logo--small</title>
    <desc>Created with Sketch.</desc>
    <defs></defs>
    <g id="Page-1" stroke="none" stroke-width="1" fill="none" fill-rule="evenodd" sketch:type="MSPage">
        <g id="logo--small" sketch:type="MSArtboardGroup" fill="#FFFFFF">
            <path d="M11.8958466,15.7466748 C11.9057776,15.4394897 11.9695018,15.21786 12.087019,15.0516378 C12.3783294,14.6409711 13.0859156,14.4535637 14.3761225,14.2303045 C14.3761225,14.2303045 16.3763983,13.9182304 17.0252259,13.818823 C17.2519845,14.4486748 17.4655018,15.235786 17.5904673,15.9373415 C17.6806742,16.4400823 17.7278466,16.8344526 17.7162604,17.149786 C17.679019,18.2017119 17.0003983,18.3630452 15.1739156,18.680823 C12.7780535,19.0971934 12.4097776,19.1607489 12.0158466,16.9615637 C11.9248121,16.44986 11.8834328,16.0554897 11.8958466,15.7466748 L11.8958466,15.7466748 Z M13.8646742,11.3515637 C10.9093638,11.8331193 9.38660522,12.4694897 8.61115694,13.5474897 C8.23046728,14.0746748 8.03267418,14.6931193 8.00370866,15.5136378 C7.98301901,16.0929711 8.04922591,16.775786 8.19405349,17.5971193 C8.61777763,19.9584526 9.14495004,20.7675637 10.6461914,21.3542304 L10.6453638,21.3526008 L10.6966742,21.37786 C10.6859156,21.4014897 10.6693638,21.4226748 10.6693638,21.4226748 L9.37419142,23.3163045 L9.42467418,23.7204526 L9.45860522,24.0113415 C9.60426039,24.8196378 9.95019142,25.4103785 10.493088,25.7827489 C11.525088,26.4940823 13.0023294,26.2300823 14.1940535,26.01986 L18.4619156,25.2800082 L19.6933638,25.0934156 C20.4257776,25.0502304 20.5275707,25.0763045 20.6666052,25.8560823 C20.7601225,26.39386 20.7088121,26.5592674 20.0003983,26.8265267 C19.3217776,27.1035637 17.5921225,27.4628971 16.6627431,27.6242304 C15.4006742,27.8426008 13.5336397,28.0202304 11.405088,28.1253415 C11.40095,28.1253415 10.7512949,28.1701563 10.7512949,28.1701563 L10.8431569,28.6728971 C10.839019,28.6476378 11.0177776,31.0521563 11.0177776,31.0521563 L11.0351569,31.2811193 L11.4853638,31.2827489 C11.6012259,31.2827489 14.2966742,31.2876378 17.2536397,30.7734897 C23.4100535,29.7044526 24.9328121,28.5026008 24.3386052,25.1903785 C23.7046742,21.6491934 21.9907431,21.3330452 18.3874328,21.9563785 L14.7220535,22.5911193 C13.9904673,22.71986 13.1918466,22.8445267 12.9965363,22.7100823 C12.9295018,22.6620082 12.8988811,22.517786 12.855019,22.2692674 C12.8227431,22.1022304 12.8128121,21.9351934 12.8061914,21.7771193 C13.3408121,21.7974897 14.2503294,21.7771193 15.5471569,21.5514156 C20.1212259,20.7586008 22.1686742,19.6724526 21.4461914,15.6366748 L21.2583294,14.9302304 L21.2368121,14.852823 L21.2103294,14.7729711 L19.2266052,13.378823 C19.2232949,13.378823 19.2092259,13.3682304 19.1976397,13.3592674 C19.4095018,13.3136378 22.7173638,12.5876378 22.7173638,12.5876378 L22.2472949,9.95660077 L13.8646742,11.3515637 L13.8646742,11.3515637 Z M27.9857776,9.00000818 C27.3559845,8.99837855 26.7659156,9.24037855 26.3206742,9.68037855 C25.877088,10.1154897 25.6337776,10.7013415 25.6337776,11.3181563 C25.6346052,11.9349711 25.877088,12.5159341 26.3198466,12.9551193 C26.7659156,13.3902304 27.3559845,13.6330452 27.9832949,13.6306008 C28.613088,13.6330452 29.2039845,13.39186 29.6475707,12.9551193 C30.0928121,12.5183785 30.3377776,11.9349711 30.3394328,11.3157119 C30.3377776,10.0397119 29.2817776,8.99837855 27.9857776,9.00000818 L27.9857776,9.00000818 Z M29.6500535,18.2864526 C29.021088,18.2856378 28.4285363,18.5284526 27.9857776,18.9651934 C27.5421914,19.4035637 27.2963983,19.9828971 27.2963983,20.603786 C27.2963983,21.2230452 27.5421914,21.8023785 27.98495,22.2399341 C28.4277087,22.6791193 29.0194328,22.91786 29.6492259,22.9194897 C30.9452259,22.9211193 32.0003983,21.8806008 31.9995707,20.603786 C32.0003983,19.3237119 30.9460535,18.2872674 29.6500535,18.2864526 L29.6500535,18.2864526 Z" id="Shape" sketch:type="MSShapeGroup"></path>
        </g>
    </g>
</svg>