<?xml version="1.0" encoding="utf-8"?>
<!-- Generator: Adobe Illustrator 18.0.0, SVG Export Plug-In . SVG Version: 6.00 Build 0)  -->
<!DOCTYPE svg PUBLIC "-//W3C//DTD SVG 1.1//EN" "http://www.w3.org/Graphics/SVG/1.1/DTD/svg11.dtd" [
	<!ENTITY ns_extend "http://ns.adobe.com/Extensibility/1.0/">
	<!ENTITY ns_ai "http://ns.adobe.com/AdobeIllustrator/10.0/">
	<!ENTITY ns_graphs "http://ns.adobe.com/Graphs/1.0/">
	<!ENTITY ns_vars "http://ns.adobe.com/Variables/1.0/">
	<!ENTITY ns_imrep "http://ns.adobe.com/ImageReplacement/1.0/">
	<!ENTITY ns_sfw "http://ns.adobe.com/SaveForWeb/1.0/">
	<!ENTITY ns_custom "http://ns.adobe.com/GenericCustomNamespace/1.0/">
	<!ENTITY ns_adobe_xpath "http://ns.adobe.com/XPath/1.0/">
]>
<svg version="1.1"
	 id="Layer_1" xmlns:x="&ns_extend;" xmlns:i="&ns_ai;" xmlns:graph="&ns_graphs;" xmlns:sketch="http://www.bohemiancoding.com/sketch/ns"
	 xmlns="http://www.w3.org/2000/svg" xmlns:xlink="http://www.w3.org/1999/xlink" x="0px" y="0px" viewBox="0 0 140 100"
	 enable-background="new 0 0 140 100" xml:space="preserve">
<metadata>
	<sfw  xmlns="&ns_sfw;">
		<slices></slices>
		<sliceSourceBounds  width="140" height="100" bottomLeftOrigin="true" x="496" y="376.4"></sliceSourceBounds>
	</sfw>
</metadata>
<path fill="#FFFFFF" d="M130,100H10c-5.5,0-10-4.5-10-10V10C0,4.5,4.5,0,10,0h120c5.5,0,10,4.5,10,10v80C140,95.5,135.5,100,130,100
	z"/>
<title>logo--part2</title>
<desc>Created with Sketch.</desc>
<path id="Shape_1_" sketch:type="MSShapeGroup" fill="#007DB3" d="M13,62.8l-0.4-2.2l3.3-5.7c0.4-0.6,0.9-1.5,1.2-1.9
	c-0.4,0.1-1.3,0.3-1.9,0.4l-3.4,0.6l-0.5-2.7l9.2-1.6l0.4,2.2l-3.2,5.7c-0.4,0.7-0.9,1.5-1.1,1.9c0.4-0.1,1.3-0.3,1.9-0.4l3.6-0.6
	l0.5,2.8L13,62.8L13,62.8z M29.7,60.1c-3,0.5-5.6-1.5-6.3-5.1c-0.6-3.5,1.1-6.4,4.2-6.9c3-0.5,5.7,1.6,6.3,5.1
	C34.5,56.7,32.7,59.6,29.7,60.1L29.7,60.1z M28.1,51c-1.5,0.3-1.9,1.7-1.6,3.5c0.3,1.8,1.2,3,2.7,2.7c1.5-0.3,1.9-1.9,1.6-3.5
	C30.4,51.9,29.5,50.7,28.1,51L28.1,51z M43.1,57.5L40,58l-6.2-10.8l3.3-0.6l2.6,5c0.4,0.8,0.9,1.9,1.2,2.4c0-0.6,0.2-1.7,0.3-2.7
	l0.8-5.6l3.3-0.6L43.1,57.5L43.1,57.5z M57.5,50l-6.9,1.2c0.4,1.6,1.7,2,2.8,1.8c0.8-0.1,1.5-0.6,1.8-1.2l2.5,1.4
	c-0.7,1.4-2.3,2.3-3.8,2.6c-3.3,0.6-5.8-1.4-6.5-5c-0.6-3.5,1.2-6.4,4.1-6.9c3.1-0.5,5.3,1.9,5.9,5.2C57.4,49.5,57.5,49.8,57.5,50
	L57.5,50z M51.7,46.5c-1.1,0.2-1.6,1.2-1.5,2.4l4-0.7C53.9,47.2,53.1,46.3,51.7,46.5L51.7,46.5z M69.3,47.9l-6.9,1.2
	c0.4,1.6,1.7,2,2.8,1.8c0.8-0.1,1.5-0.6,1.8-1.2l2.5,1.4c-0.7,1.4-2.3,2.3-3.8,2.6c-3.3,0.6-5.8-1.4-6.5-5c-0.6-3.5,1.2-6.4,4.1-6.9
	c3.1-0.5,5.3,1.9,5.9,5.2C69.3,47.4,69.3,47.7,69.3,47.9L69.3,47.9z M63.6,44.4c-1.1,0.2-1.6,1.2-1.5,2.4l4-0.7
	C65.7,45.1,64.9,44.2,63.6,44.4L63.6,44.4z M72.7,52.2l-2.6-14.5l2.8-2.1l2.8,16L72.7,52.2L72.7,52.2z M89.7,49.5
	c-1.8,0.3-3.7,0.1-5.1-0.5l0.6-2.5c1.4,0.5,2.7,0.6,4.2,0.3c1.2-0.2,1.5-0.6,1.4-1.1c-0.1-0.5-0.6-0.7-1.9-0.9
	c-2.9-0.3-4.8-0.7-5.3-3.2c-0.4-2.4,1.3-3.8,4-4.2c1.5-0.3,3.1-0.1,4.5,0.4l-0.5,2.6C90.3,40,89,39.9,88,40.1
	c-1.2,0.2-1.5,0.5-1.4,1c0.1,0.5,0.5,0.6,2.6,0.9c2.2,0.3,4.1,0.8,4.5,3.1C94.2,47.7,92.3,49.1,89.7,49.5L89.7,49.5z M103.2,46.4
	c-0.4,0.5-1.3,1-2.2,1.1c-1.9,0.3-3.3-0.9-3.7-2.9l-1-5.5l-1.9,0.3l-0.5-2.9l1.9-0.3l-0.5-3l2.8-2.1l0.8,4.5l2.8-0.5l0.5,2.9
	l-2.8,0.5l0.8,4.6c0.2,1.1,0.6,1.3,1.4,1.2c0.6-0.1,0.9-0.4,1.6-1.2L103.2,46.4L103.2,46.4z M112.5,45.2l-0.1-0.8
	c-0.4,0.7-1.3,1.3-2.4,1.5c-2.2,0.4-4.5-0.6-5-3.4c-0.4-2.6,1.4-4.2,4-4.7c1.1-0.2,1.8-0.1,2.3,0.1l-0.1-0.6
	c-0.1-0.8-0.8-1.4-1.9-1.2c-1.4,0.2-2.1,0.6-3,1.3l-1.5-1.9c1.2-1,2.3-1.6,4.1-1.9c2.8-0.5,4.9,0.6,5.4,3.2l1.4,7.7L112.5,45.2
	L112.5,45.2z M111.7,40.4c-0.6-0.2-1.1-0.3-2.2-0.1c-1.1,0.2-1.7,0.8-1.5,1.8c0.1,0.8,0.7,1.5,2,1.2c1-0.2,1.7-0.8,1.9-1.4
	L111.7,40.4L111.7,40.4z M124.7,43.1l-0.1-0.7c-0.5,0.6-1.2,1.2-2.3,1.4c-2.5,0.4-4.8-1.1-5.6-5.4c-0.6-3.5,0.6-6.2,3.5-6.7
	c1-0.2,2,0.1,2.6,0.5l-0.6-3.6l2.8-2.1l2.8,16L124.7,43.1L124.7,43.1z M123.3,35.1c-0.6-0.6-1.3-0.8-2.2-0.6
	c-1.2,0.2-1.6,1.3-1.3,3.3c0.4,2.4,1.4,3.2,2.6,3c0.9-0.2,1.4-0.6,1.7-1.3L123.3,35.1L123.3,35.1z"/>
</svg>
