<?xml version="1.0" encoding="utf-8"?>
<!-- Generator: Adobe Illustrator 18.0.0, SVG Export Plug-In . SVG Version: 6.00 Build 0)  -->
<!DOCTYPE svg PUBLIC "-//W3C//DTD SVG 1.1//EN" "http://www.w3.org/Graphics/SVG/1.1/DTD/svg11.dtd" [
	<!ENTITY ns_extend "http://ns.adobe.com/Extensibility/1.0/">
	<!ENTITY ns_ai "http://ns.adobe.com/AdobeIllustrator/10.0/">
	<!ENTITY ns_graphs "http://ns.adobe.com/Graphs/1.0/">
	<!ENTITY ns_vars "http://ns.adobe.com/Variables/1.0/">
	<!ENTITY ns_imrep "http://ns.adobe.com/ImageReplacement/1.0/">
	<!ENTITY ns_sfw "http://ns.adobe.com/SaveForWeb/1.0/">
	<!ENTITY ns_custom "http://ns.adobe.com/GenericCustomNamespace/1.0/">
	<!ENTITY ns_adobe_xpath "http://ns.adobe.com/XPath/1.0/">
]>
<svg version="1.1" xmlns:x="&ns_extend;" xmlns:i="&ns_ai;" xmlns:graph="&ns_graphs;"
	 xmlns="http://www.w3.org/2000/svg" xmlns:xlink="http://www.w3.org/1999/xlink" x="0px" y="0px" viewBox="0 0 140 100"
	 enable-background="new 0 0 140 100" xml:space="preserve">
<metadata>
	<sfw  xmlns="&ns_sfw;">
		<slices></slices>
		<sliceSourceBounds  width="16383" height="16383" bottomLeftOrigin="true" x="-7625" y="-7766"></sliceSourceBounds>
	</sfw>
</metadata>
<g id="Layer_1" xmlns:sketch="http://www.bohemiancoding.com/sketch/ns">
	<title>logo--part1</title>
	<desc>Created with Sketch.</desc>
	<g>
		<path fill="#007DB3" d="M130,100H10c-5.5,0-10-4.5-10-10V10C0,4.5,4.5,0,10,0h120c5.5,0,10,4.5,10,10v80
			C140,95.5,135.5,100,130,100z"/>
		<path id="Shape_1_" sketch:type="MSShapeGroup" fill="#FFFFFF" d="M19.3,67.1c0-0.6,0.1-1,0.4-1.3c0.5-0.8,1.9-1.1,4.3-1.6
			c0,0,3.7-0.6,4.9-0.8c0.4,1.2,0.8,2.7,1.1,4c0.2,1,0.3,1.7,0.2,2.3c-0.1,2-1.3,2.3-4.7,2.9c-4.5,0.8-5.2,0.9-5.9-3.3
			C19.3,68.4,19.2,67.7,19.3,67.1L19.3,67.1z M22.9,58.7c-5.5,0.9-8.4,2.1-9.8,4.2c-0.7,1-1.1,2.2-1.1,3.7c0,1.1,0.1,2.4,0.4,3.9
			c0.8,4.5,1.8,6,4.6,7.1l0,0l0.1,0c0,0-0.1,0.1-0.1,0.1l-2.4,3.6l0.1,0.8l0.1,0.6c0.3,1.5,0.9,2.7,1.9,3.4c1.9,1.3,4.7,0.8,6.9,0.4
			l8-1.4l2.3-0.4c1.4-0.1,1.6,0,1.8,1.4c0.2,1,0.1,1.3-1.2,1.8c-1.3,0.5-4.5,1.2-6.2,1.5c-2.4,0.4-5.8,0.8-9.8,0.9
			c0,0-1.2,0.1-1.2,0.1l0.2,1c0-0.1,0.3,4.5,0.3,4.5l0,0.4l0.8,0c0.2,0,5.2,0,10.8-1c11.5-2,14.3-4.3,13.2-10.6
			c-1.2-6.7-4.4-7.3-11.1-6.1l-6.8,1.2c-1.4,0.2-2.9,0.5-3.2,0.2c-0.1-0.1-0.2-0.4-0.3-0.8C21,79.1,21,78.8,21,78.5
			c1,0,2.7,0,5.1-0.4c8.5-1.5,12.4-3.6,11-11.2l-0.3-1.3l0-0.1l0-0.2L33,62.6c0,0,0,0-0.1,0c0.4-0.1,6.6-1.5,6.6-1.5l-0.9-5
			L22.9,58.7L22.9,58.7z M49,62.5c0.1-2.1,1.2-2.6,5.7-3.4c4.4-0.8,5.3-0.5,6.2,3.8c-2.3,0.6-5.1,1-5.6,1.1l-0.1,0
			c-0.6,0.1-3.3,0.7-6,0.8C49,63.9,48.9,63.1,49,62.5L49,62.5z M53.3,53.4c-5.7,1-9.8,2.6-11,7.1l0,0c-0.5,2.1-0.5,5.3,0.1,8.6
			c2,11.2,7.4,12.5,16.2,10.9c5.7-1,9.7-3.1,9.8-3.2l0.7-0.4l-1.9-5.3l-1.2,0.4c-2.7,1-5,1.8-8,2.4c-2,0.4-4.8,0.8-6.4-0.4
			c-0.9-0.7-1.6-2.1-1.9-3.8l-0.2-1.1c0-0.1,0-0.1,0-0.2c0-0.1,0-0.1,0-0.1c0,0,0.1,0,0.1,0c0.2,0,0.2,0,0.5,0.1l2.7,1.3h0.2
			c0.1,0,2,0,5.7-0.7c2.6-0.5,5-1.1,6.8-1.5l2.9-0.7l-0.1-0.8c0,0,0-0.2,0-0.2c-0.2-1.6-0.3-2.5-0.4-3.4
			C66.6,53.8,63.1,51.7,53.3,53.4L53.3,53.4z M86.3,47.6c-1,0.2-3,0.7-3.1,0.8l0,0L83,48.4l-3.1,3c-0.3,0.2-0.5,0.5-0.8,0.5
			c0,0-0.1,0-0.1,0c0,0,0-0.1-0.1-0.2c0,0,0,0,0,0.1c0-0.2-0.2-0.6-0.6-2.1l-0.1-0.4l-8.7,1.5l0.9,4.9l3.1,0.1c0,0,0,0.1,0,0.1
			l2.6,15c0,0,0,0,0,0.1c0,0-2.9,1.2-2.9,1.2l0.9,4.9l13-2.3l-0.9-4.9c0,0-3.1-0.1-3.1-0.1c0,0,0-0.1,0-0.1S81,57.5,80.6,55.2
			c2-0.7,3.8-1.2,5.4-1.5c4.4-0.8,5-0.4,5.8,3.8l1.8,10.2c0,0,0,0,0,0.1c0,0-2.9,1.2-2.9,1.2l0.9,4.9l13-2.3l-0.9-4.9l-3.1-0.1
			c0,0,0-0.1,0-0.1l-1.9-10.7c-0.7-4.1-1.8-6.3-3.6-7.6C93.3,47,90.6,46.8,86.3,47.6L86.3,47.6z M103.6,38.2c0,0,1,5.7,1.1,6.5
			c-0.8,0.1-4.9,0.9-4.9,0.9l1,5.7c0,0,4.1-0.7,4.9-0.9c0.1,0.9,2,11.6,2,11.6c1.1,6.2,2.7,8.7,9.6,7.5c2.9-0.5,5.2-1.7,5.3-1.7
			l0.7-0.3l-1.6-5.1l-0.9,0.3c-1.1,0.4-2.5,0.8-3.2,1c-1.2,0.2-1.8,0.2-2.1,0c-0.3-0.2-0.5-0.9-0.7-2.1l-2.3-12.9
			c0,0-0.2-1.5-0.2-1.5l0,0c0-0.1,0-0.2,0-0.2c0,0,0-0.1,0-0.1c0,0,0.1,0,0.1,0c0.2,0,0.2,0,0.5,0.1c0,0,2.6,1.2,2.6,1.2l0.1,0h0
			c0.3,0.2,1.1,0.2,3.7-0.3l0.5-0.1l-1-5.8c0,0-6.4,1.1-7.2,1.2c-0.1-0.8-1.1-6.5-1.1-6.5L103.6,38.2L103.6,38.2z M128.1,40.4
			c-1.2,0-2.3,0.5-3.1,1.3c-0.8,0.8-1.3,1.9-1.3,3.1c0,1.2,0.5,2.3,1.3,3.1c0.8,0.8,1.9,1.3,3.1,1.3c1.2,0,2.3-0.5,3.1-1.3
			c0.8-0.8,1.3-1.9,1.3-3.1C132.5,42.4,130.5,40.4,128.1,40.4L128.1,40.4z M131.2,58c-1.2,0-2.3,0.5-3.1,1.3
			c-0.8,0.8-1.3,1.9-1.3,3.1c0,1.2,0.5,2.3,1.3,3.1c0.8,0.8,1.9,1.3,3.1,1.3c2.4,0,4.4-2,4.4-4.4C135.6,60,133.6,58,131.2,58
			L131.2,58z"/>
	</g>
</g>
<g id="Layer_2">
</g>
<g id="Layer_3">
</g>
<g id="Layer_4" display="none">
</g>
</svg>
