<?xml version="1.0" encoding="utf-8"?>
<!-- Generator: Adobe Illustrator 16.0.4, SVG Export Plug-In . SVG Version: 6.00 Build 0)  -->
<!DOCTYPE svg PUBLIC "-//W3C//DTD SVG 1.1//EN" "http://www.w3.org/Graphics/SVG/1.1/DTD/svg11.dtd">
<svg version="1.1" id="zoveel_stad_1" xmlns="http://www.w3.org/2000/svg" xmlns:xlink="http://www.w3.org/1999/xlink" x="0px"
	 y="0px" width="280px" height="100px" viewBox="0 0 280 100" enable-background="new 0 0 280 100" xml:space="preserve">
<g>
	<path fill="#51AE32" d="M140,90c0,5.523-4.477,10-10,10H10c-5.523,0-10-4.477-10-10V10C0,4.477,4.477,0,10,0h120
		c5.523,0,10,4.477,10,10V90z"/>
	<path fill="#FFFFFF" d="M280,90c0,5.523-4.477,10-10,10H150c-5.523,0-10-4.477-10-10V10c0-5.523,4.477-10,10-10h120
		c5.523,0,10,4.477,10,10V90z"/>
	<path fill="#FFFFFF" d="M19.273,67.075c0.019-0.583,0.137-1.005,0.358-1.317c0.543-0.777,1.864-1.133,4.272-1.557
		c0,0,3.734-0.592,4.944-0.78c0.424,1.194,0.821,2.688,1.055,4.017c0.169,0.953,0.255,1.699,0.235,2.299
		c-0.07,1.994-1.335,2.301-4.745,2.902c-4.472,0.788-5.158,0.908-5.894-3.261C19.327,68.408,19.25,67.661,19.273,67.075
		 M22.948,58.742c-5.517,0.912-8.359,2.119-9.807,4.164c-0.709,1-1.079,2.172-1.134,3.726c-0.038,1.101,0.085,2.394,0.356,3.95
		c0.792,4.477,1.775,6.012,4.578,7.123l-0.001-0.001l0.096,0.048c-0.022,0.043-0.052,0.083-0.052,0.083l-2.417,3.591l0.093,0.764
		l0.062,0.555c0.274,1.531,0.919,2.652,1.933,3.359c1.925,1.348,4.684,0.848,6.906,0.449l7.969-1.404l2.297-0.354
		c1.367-0.079,1.556-0.031,1.816,1.446c0.177,1.02,0.08,1.332-1.243,1.841c-1.265,0.523-4.496,1.203-6.23,1.511
		c-2.357,0.414-5.841,0.751-9.812,0.95c-0.008,0.003-1.22,0.083-1.22,0.083l0.171,0.955c-0.008-0.05,0.326,4.51,0.326,4.51
		l0.032,0.435l0.842,0.002c0.214,0.002,5.248,0.01,10.766-0.967c11.49-2.023,14.332-4.302,13.222-10.578
		c-1.181-6.717-4.382-7.316-11.108-6.133l-6.841,1.203c-1.367,0.245-2.857,0.479-3.221,0.228c-0.126-0.091-0.182-0.363-0.265-0.837
		c-0.06-0.315-0.079-0.635-0.091-0.933c0.997,0.039,2.695,0,5.114-0.428c8.539-1.501,12.361-3.562,11.013-11.213l-0.349-1.34
		l-0.042-0.146l-0.05-0.151l-3.703-2.644c-0.006,0-0.031-0.021-0.054-0.038c0.394-0.085,6.569-1.462,6.569-1.462l-0.878-4.987
		L22.948,58.742z M48.96,62.482c0.07-2.065,1.193-2.588,5.655-3.373c4.357-0.771,5.317-0.547,6.183,3.795
		c-2.313,0.568-5.051,1.004-5.605,1.086l-0.067,0.014c-0.553,0.115-3.333,0.672-6.001,0.84
		C49.017,63.896,48.938,63.098,48.96,62.482 M53.336,53.387c-5.707,1.01-9.754,2.6-10.951,7.098l-0.004,0.01
		c-0.521,2.107-0.487,5.32,0.091,8.605c1.974,11.188,7.438,12.48,16.213,10.936c5.658-0.998,9.676-3.09,9.844-3.178l0.706-0.368
		l-1.931-5.255l-1.173,0.434c-2.673,0.98-4.985,1.828-7.97,2.354c-2.021,0.354-4.781,0.845-6.388-0.357
		c-0.888-0.715-1.577-2.118-1.878-3.826l-0.193-1.097c-0.013-0.089-0.019-0.149-0.016-0.192c0-0.052,0.009-0.062,0.01-0.07
		c0.007,0.01,0.056-0.002,0.056-0.002c0.16-0.027,0.17-0.027,0.538,0.146l2.743,1.272h0.197c0.082,0,1.97-0.013,5.698-0.668
		c2.647-0.467,5.037-1.062,6.78-1.494l2.947-0.696l-0.067-0.8c0-0.019-0.02-0.172-0.02-0.172c-0.18-1.595-0.282-2.467-0.441-3.369
		C66.566,53.835,63.113,51.661,53.336,53.387 M86.341,47.566c-0.984,0.174-3.042,0.747-3.129,0.771l0,0l-0.23,0.064l-3.057,3.047
		c-0.281,0.249-0.512,0.459-0.777,0.506c0,0-0.104,0.008-0.111,0.012c0,0-0.035-0.063-0.083-0.204c0,0,0.008,0.031,0.011,0.062
		c-0.038-0.152-0.167-0.574-0.631-2.104l-0.12-0.398l-8.697,1.531l0.86,4.871l3.136,0.086c0.003,0.02,0.012,0.061,0.012,0.061
		l2.642,14.984c0,0,0.004,0.035,0.008,0.057c-0.048,0.02-2.916,1.154-2.916,1.154l0.857,4.873l12.975-2.287l-0.857-4.869
		c0,0-3.077-0.1-3.083-0.1c-0.002-0.02-0.012-0.058-0.012-0.058S80.995,57.48,80.594,55.2c1.998-0.688,3.831-1.189,5.435-1.472
		c4.441-0.78,5.037-0.392,5.779,3.813l1.805,10.237c0,0,0.005,0.031,0.008,0.056c-0.045,0.021-2.92,1.151-2.92,1.151l0.858,4.873
		l12.977-2.291l-0.858-4.864l-3.086-0.099c-0.004-0.02-0.013-0.06-0.013-0.06l-1.875-10.651c-0.714-4.054-1.786-6.314-3.584-7.569
		C93.272,47.032,90.648,46.805,86.341,47.566 M103.59,38.17c0,0,0.999,5.678,1.141,6.477c-0.761,0.137-4.857,0.854-4.857,0.854
		l1.01,5.717c0,0,4.095-0.724,4.856-0.856c0.149,0.858,2.049,11.633,2.049,11.633c1.092,6.187,2.74,8.735,9.633,7.524
		c2.889-0.513,5.245-1.688,5.344-1.735l0.697-0.349l-1.616-5.072l-0.894,0.337c-1.084,0.389-2.481,0.848-3.217,0.977
		c-1.211,0.218-1.804,0.218-2.11,0c-0.344-0.237-0.513-0.903-0.729-2.126l-2.273-12.883c0.001,0.009-0.242-1.519-0.242-1.519
		l-0.001-0.006c-0.014-0.09-0.019-0.151-0.017-0.192c0.001-0.05,0.007-0.067,0.01-0.072c0.008,0.009,0.054-0.001,0.054-0.001
		c0.163-0.028,0.171-0.029,0.541,0.145c-0.004-0.002,2.645,1.231,2.645,1.231l0.093,0.044h0.024
		c0.296,0.162,1.053,0.183,3.738-0.293l0.464-0.08l-1.017-5.753c0,0-6.404,1.108-7.217,1.25c-0.141-0.801-1.143-6.482-1.143-6.482
		L103.59,38.17z M128.084,40.382c-1.174-0.003-2.275,0.456-3.105,1.29c-0.83,0.826-1.285,1.934-1.285,3.104
		c0.001,1.17,0.455,2.271,1.283,3.104c0.829,0.824,1.933,1.283,3.104,1.28c1.174,0.005,2.276-0.452,3.104-1.281
		c0.833-0.828,1.29-1.933,1.292-3.106C132.474,42.352,130.502,40.379,128.084,40.382 M131.189,57.986
		c-1.174-0.002-2.277,0.457-3.105,1.287c-0.829,0.83-1.287,1.93-1.286,3.104c-0.002,1.173,0.456,2.271,1.285,3.104
		c0.828,0.83,1.931,1.283,3.105,1.287c2.421,0.002,4.389-1.971,4.388-4.393C135.577,59.954,133.609,57.988,131.189,57.986"/>
	<path fill="#51AE32" d="M153.012,62.775l-0.387-2.199l3.32-5.734c0.363-0.631,0.914-1.498,1.16-1.904
		c-0.414,0.098-1.312,0.275-1.883,0.377l-3.389,0.6l-0.484-2.749l9.172-1.618l0.388,2.2l-3.187,5.71
		c-0.361,0.652-0.895,1.496-1.142,1.9c0.414-0.096,1.312-0.275,1.884-0.377l3.607-0.637l0.484,2.75L153.012,62.775z M169.659,60.09
		c-3.013,0.532-5.647-1.544-6.272-5.085c-0.623-3.542,1.139-6.415,4.151-6.946c3.013-0.531,5.673,1.562,6.297,5.104
		C174.46,56.704,172.673,59.559,169.659,60.09z M168.055,50.984c-1.453,0.256-1.902,1.695-1.588,3.477
		c0.314,1.782,1.225,2.96,2.678,2.704c1.451-0.255,1.896-1.854,1.611-3.459C170.445,51.945,169.506,50.729,168.055,50.984z
		 M183.145,57.463l-3.123,0.551L173.828,47.2l3.343-0.589l2.638,5.047c0.44,0.828,0.942,1.875,1.172,2.398
		c0.031-0.594,0.151-1.703,0.279-2.656l0.752-5.645l3.256-0.573L183.145,57.463z M197.475,49.992l-6.908,1.219
		c0.391,1.562,1.66,1.952,2.763,1.758c0.834-0.146,1.483-0.58,1.836-1.162l2.474,1.424c-0.716,1.352-2.267,2.328-3.806,2.6
		c-3.321,0.586-5.849-1.396-6.493-5.047c-0.624-3.541,1.159-6.419,4.084-6.935c3.08-0.543,5.344,1.87,5.926,5.17
		C197.425,49.457,197.458,49.768,197.475,49.992z M191.734,46.514c-1.101,0.193-1.621,1.215-1.526,2.4l3.959-0.698
		C193.896,47.198,193.1,46.273,191.734,46.514z M209.311,47.905l-6.908,1.218c0.391,1.564,1.66,1.953,2.761,1.759
		c0.836-0.147,1.483-0.579,1.835-1.163l2.475,1.424c-0.715,1.354-2.267,2.327-3.806,2.602c-3.319,0.585-5.849-1.396-6.492-5.048
		c-0.625-3.542,1.159-6.419,4.084-6.935c3.08-0.543,5.343,1.871,5.925,5.17C209.259,47.369,209.292,47.682,209.311,47.905z
		 M203.57,44.426c-1.1,0.194-1.625,1.217-1.528,2.402l3.959-0.699C205.73,45.111,204.934,44.186,203.57,44.426z M212.729,52.247
		l-2.561-14.519l2.77-2.053l2.826,16.035L212.729,52.247z M229.665,49.51c-1.826,0.322-3.701,0.107-5.076-0.488l0.604-2.488
		c1.352,0.465,2.716,0.61,4.188,0.35c1.188-0.21,1.49-0.557,1.385-1.15c-0.094-0.527-0.557-0.719-1.897-0.867
		c-2.919-0.348-4.821-0.715-5.251-3.156c-0.424-2.398,1.309-3.77,4.014-4.246c1.452-0.257,3.113-0.097,4.467,0.369l-0.546,2.568
		c-1.253-0.414-2.561-0.502-3.528-0.331c-1.231,0.218-1.521,0.517-1.431,1.023c0.085,0.483,0.474,0.62,2.634,0.919
		c2.188,0.317,4.104,0.751,4.51,3.061C234.205,47.734,232.26,49.052,229.665,49.51z M243.156,46.405
		c-0.436,0.485-1.283,0.952-2.229,1.118c-1.87,0.33-3.336-0.908-3.692-2.932l-0.961-5.455l-1.937,0.342l-0.504-2.859l1.937-0.342
		l-0.523-2.97l2.77-2.054l0.791,4.488l2.771-0.489l0.504,2.859l-2.771,0.489l0.817,4.641c0.192,1.1,0.642,1.316,1.366,1.188
		c0.55-0.097,0.925-0.413,1.562-1.183L243.156,46.405z M252.54,45.227l-0.136-0.77c-0.45,0.669-1.34,1.279-2.418,1.47
		c-2.155,0.38-4.543-0.56-5.036-3.353c-0.45-2.553,1.393-4.192,4.011-4.654c1.055-0.186,1.775-0.086,2.303,0.07l-0.101-0.572
		c-0.144-0.814-0.81-1.377-1.91-1.183c-1.386,0.244-2.076,0.57-3.03,1.329l-1.539-1.907c1.205-1.006,2.258-1.601,4.127-1.929
		c2.793-0.493,4.941,0.625,5.399,3.221l1.365,7.742L252.54,45.227z M251.686,40.388c-0.586-0.237-1.119-0.302-2.195-0.112
		c-1.145,0.202-1.667,0.839-1.504,1.763c0.144,0.813,0.734,1.459,2.031,1.229c0.988-0.174,1.691-0.82,1.926-1.428L251.686,40.388z
		 M264.748,43.074l-0.128-0.727c-0.481,0.607-1.17,1.205-2.271,1.398c-2.464,0.436-4.812-1.056-5.574-5.367
		c-0.608-3.453,0.593-6.16,3.453-6.664c1.012-0.179,1.961,0.062,2.601,0.472l-0.64-3.63l2.768-2.053l2.828,16.035L264.748,43.074z
		 M263.348,35.134c-0.576-0.557-1.341-0.784-2.221-0.629c-1.166,0.205-1.625,1.329-1.285,3.265c0.419,2.376,1.387,3.227,2.574,3.018
		c0.945-0.168,1.359-0.648,1.699-1.298L263.348,35.134z"/>
</g>
</svg>
