<?xml version="1.0" encoding="UTF-8" standalone="no"?>
<svg width="140px" height="100px" viewBox="0 0 140 100" version="1.1" xmlns="http://www.w3.org/2000/svg" xmlns:xlink="http://www.w3.org/1999/xlink" xmlns:sketch="http://www.bohemiancoding.com/sketch/ns">
    <!-- Generator: Sketch 3.0.4 (8053) - http://www.bohemiancoding.com/sketch -->
    <title>logo--footer</title>
    <desc>Created with Sketch.</desc>
    <defs></defs>
    <g id="Page-1" stroke="none" stroke-width="1" fill="none" fill-rule="evenodd" sketch:type="MSPage">
        <g id="logo--footer" sketch:type="MSArtboardGroup" fill="#9DA8AF">
            <g id="logo-old-grey" sketch:type="MSLayerGroup" transform="translate(7.000000, 10.000000)">
                <path d="M51.78222,36.3789846 L51.78222,11.9164923 C51.78222,11.2163385 52.26606,10.6473846 52.86204,10.6473846 C53.45802,10.6473846 53.94186,11.2163385 53.94186,11.9164923 L53.94186,36.3789846 L51.78222,36.3789846 L51.78222,36.3789846 Z M57.37284,36.3789846 L57.37284,11.9164923 C57.37284,11.2163385 56.88774,10.6473846 56.29302,10.6473846 C55.69578,10.6473846 55.2132,11.2163385 55.2132,11.9164923 L55.2132,36.3789846 L57.37284,36.3789846 L57.37284,36.3789846 Z M66.402,36.3159077 L66.402,22.7871692 C66.402,22.1210769 65.94084,21.5811385 65.37258,21.5811385 C64.80684,21.5811385 64.34946,22.1210769 64.34946,22.7871692 L64.34946,36.3159077 L66.402,36.3159077 L66.402,36.3159077 Z M74.63736,36.3133846 L74.63736,30.7891077 C74.63736,30.1596 74.2014,29.6486769 73.6659,29.6486769 C73.1304,29.6486769 72.69444,30.1596 72.69444,30.7891077 L72.69444,36.3133846 L74.63736,36.3133846 L74.63736,36.3133846 Z M46.79892,8.97836923 L50.15934,8.97836923 L48.47724,5.59366154 L46.79892,8.97836923 L46.79892,8.97836923 Z M49.74354,8.98341538 L59.50098,8.98341538 L54.62604,0 L49.74354,8.98341538 L49.74354,8.98341538 Z M62.33976,19.4037231 L68.47218,19.4037231 L65.40534,5.58230769 L62.33976,19.4037231 L62.33976,19.4037231 Z M62.433,8.97836923 L60.78114,5.59366154 L59.10156,8.97836923 L59.30316,8.97836923 L59.30316,73.5804923 L62.43174,73.5804923 L62.433,8.97836923 L62.433,8.97836923 Z M78.46902,28.0162462 L77.4963,22.7392308 L76.42026,28.0162462 L76.56516,28.0162462 L76.56516,47.8224 L78.47028,47.8224 L78.47028,28.0162462 L78.46902,28.0162462 L78.46902,28.0162462 Z M76.49082,28.0162462 L76.23756,26.1378154 L70.30422,26.1378154 L70.30422,28.0162462 L76.49082,28.0162462 L76.49082,28.0162462 Z M70.78176,19.3570462 L69.58098,14.0787692 L68.35248,19.3570462 L68.32602,19.3570462 L68.32602,59.9924615 L70.78176,59.9924615 L70.78176,19.3570462 L70.78176,19.3570462 Z M23.43222,81.8385231 L23.43222,81.836 C26.3151,81.8385231 28.49364,81.0563692 29.78262,80.5782462 C31.05018,80.1064308 33.08256,79.3835692 35.79156,79.3835692 C38.50434,79.3835692 40.53546,80.1064308 41.80302,80.5782462 C43.08948,81.0563692 45.26928,81.8385231 48.15342,81.836 C51.0363,81.8385231 53.2161,81.0563692 54.50256,80.5782462 C55.74618,80.114 58.14522,79.3810462 60.85296,79.3835692 C63.56322,79.3810462 65.96352,80.114 67.20714,80.5782462 C68.4936,81.0563692 70.67214,81.8385231 73.55376,81.836 C76.43916,81.8385231 78.61518,81.0563692 79.90668,80.5782462 C81.17424,80.1064308 83.20536,79.3835692 85.91814,79.3835692 C88.6221,79.3835692 90.66078,80.1064308 91.92582,80.5782462 C93.2148,81.0563692 95.39082,81.8385231 98.27874,81.836 L98.7651,81.836 L98.7651,80.8595692 L98.27874,80.8595692 C95.56596,80.8570462 93.53232,80.1329231 92.26602,79.6623692 C90.97956,79.1842462 88.7985,78.4033538 85.9194,78.4058769 C83.03526,78.4033538 80.85546,79.1842462 79.56774,79.6623692 C78.30018,80.1329231 76.2678,80.8570462 73.55628,80.8595692 C70.85106,80.8570462 68.81238,80.1329231 67.54482,79.6623692 C66.23316,79.1754154 63.73836,78.4084 60.8517,78.4058769 C57.96882,78.4084 55.4715,79.1754154 54.15984,79.6623692 C52.89354,80.1329231 50.86116,80.8570462 48.1509,80.8595692 C45.44064,80.8570462 43.407,80.1329231 42.1407,79.6623692 C40.85172,79.1842462 38.67066,78.4033538 35.78778,78.4058769 C32.9049,78.4033538 30.72636,79.1842462 29.4399,79.6623692 C28.17234,80.1329231 26.1387,80.8570462 23.42844,80.8595692 L22.93956,80.8595692 L22.93956,81.8385231 L23.43222,81.8385231 L23.43222,81.8385231 Z M23.43222,80.0433538 L23.43222,80.0408308 C26.3151,80.0433538 28.49616,79.2637231 29.78514,78.7856 C31.05144,78.3150462 33.08004,77.5909231 35.79282,77.5909231 C38.5056,77.5909231 40.5342,78.3150462 41.80176,78.7856 C43.09074,79.2637231 45.2718,80.0433538 48.15342,80.0408308 C51.03756,80.0433538 53.2161,79.2637231 54.50508,78.7856 C55.7487,78.3226154 58.14774,77.5884 60.85548,77.5909231 C63.56448,77.5884 65.961,78.3226154 67.2084,78.7856 C68.49486,79.2637231 70.67592,80.0433538 73.55754,80.0408308 C76.44042,80.0433538 78.62022,79.2637231 79.90794,78.7856 C81.1755,78.3150462 83.2041,77.5909231 85.9194,77.5909231 C88.62714,77.5909231 90.66078,78.3150462 91.93086,78.7856 C93.21732,79.2637231 95.39586,80.0433538 98.28126,80.0408308 L98.77014,80.0408308 L98.77014,79.0669231 L98.28,79.0669231 C95.56596,79.0669231 93.53484,78.3390154 92.26854,77.8709846 C90.98208,77.3903385 88.80354,76.6144923 85.92192,76.6144923 C83.03274,76.6144923 80.85546,77.3903385 79.56774,77.8735077 C78.30018,78.3390154 76.27284,79.0669231 73.5588,79.0669231 C70.84476,79.0669231 68.81616,78.3390154 67.54734,77.8735077 C66.23568,77.3827692 63.74088,76.6144923 60.85422,76.6144923 C57.97008,76.6144923 55.47276,77.3827692 54.1611,77.8735077 C52.89732,78.3390154 50.86242,79.0669231 48.15216,79.0669231 C45.4419,79.0669231 43.41078,78.3390154 42.1407,77.8709846 C40.85424,77.3903385 38.67444,76.6144923 35.79156,76.6144923 C32.90742,76.6144923 30.72888,77.3903385 29.4399,77.8735077 C28.17234,78.3390154 26.14248,79.0669231 23.43096,79.0669231 L22.94208,79.0669231 L22.94208,80.0433538 L23.43222,80.0433538 L23.43222,80.0433538 Z M92.75742,64.7005231 L92.75742,61.2868 L97.23924,61.2868 L97.23924,59.9306462 L92.75742,59.9306462 L92.75742,56.8979077 L98.8155,56.8979077 L98.8155,55.5455385 L90.28278,55.5455385 L90.28278,55.5505846 L88.14456,55.5505846 L88.14456,56.7780615 L90.27774,56.7780615 L90.28278,56.7906769 L90.28278,66.0680308 L98.98434,66.0680308 L98.98434,64.7043077 L92.7612,64.7043077 L92.75742,64.7005231 L92.75742,64.7005231 Z M44.48682,55.4988615 C49.63518,55.4988615 51.33618,56.9609846 51.33618,60.7254154 C51.33618,65.5873846 47.82078,66.0125231 44.48682,66.0125231 L40.5027,66.0125231 L40.49766,56.7238154 L38.35566,56.7238154 L38.35566,55.4900308 L42.97608,55.4900308 L44.48682,55.4988615 L44.48682,55.4988615 Z M44.48682,64.7497231 C47.23488,64.7497231 48.54024,63.9574769 48.54024,60.7254154 C48.54024,58.1695385 47.86614,56.7641846 44.48682,56.7641846 L42.96474,56.7641846 L42.96474,64.7497231 L44.48682,64.7497231 L44.48682,64.7497231 Z M3.27852,57.8932615 C3.27852,56.9937846 4.44654,56.6027077 5.91948,56.6027077 C7.13286,56.6027077 8.19126,56.7831077 9.11106,56.9887385 L9.11106,58.9819692 L10.32444,58.9819692 L10.32444,55.6300615 C9.6894,55.5518462 7.9821,55.3411692 6.0228,55.3411692 C2.71908,55.3411692 -1.11910481e-15,56.1750462 -1.11910481e-15,58.0522154 C-1.11910481e-15,61.0357538 8.36136,61.1757846 8.36136,63.4579077 C8.36136,64.1454462 7.62426,64.9225538 5.2857,64.9225538 C3.07314,64.9225538 1.37088,64.2804308 0.3276,63.8981846 L0.3276,65.7412923 C0.86184,65.8195077 2.9232,66.1840923 5.1849,66.1840923 C8.9964,66.1840923 11.63862,65.1622462 11.63862,63.2018154 C11.63862,60.0265231 3.27852,59.7502462 3.27852,57.8932615 L3.27852,57.8932615 Z M111.59316,55.5417538 L111.59316,63.2825538 L111.55284,63.2825538 L105.91812,55.5417538 L102.8664,55.5417538 L102.8664,55.5442769 L100.52154,55.5442769 L100.52154,56.7730154 L102.8664,56.7730154 L102.8664,66.0554154 L105.13062,66.0554154 L105.13062,57.9336308 L105.1722,57.9336308 L111.0816,66.0554154 L113.85108,66.0554154 L113.85108,55.5417538 L111.59316,55.5417538 L111.59316,55.5417538 Z M116.19468,55.5417538 L116.19468,55.6628615 L116.19468,59.0286462 L117.41184,59.0286462 L117.41184,56.8991692 L119.85876,56.8991692 L119.85876,66.0554154 L122.33592,66.0554154 L122.33592,56.8991692 L126,56.8991692 L126,55.5417538 L116.19468,55.5417538 L116.19468,55.5417538 Z M13.5135,55.4988615 L13.5135,56.8550154 L13.51602,56.8550154 L13.51602,58.9844923 L14.7357,58.9844923 L14.7357,56.8550154 L17.17758,56.8550154 L17.17758,66.0137846 L19.65726,66.0137846 L19.65726,56.8550154 L23.32008,56.8550154 L23.32008,55.4988615 L13.5135,55.4988615 L13.5135,55.4988615 Z M81.36072,60.0883385 L81.36072,61.3536615 L83.50398,61.3536615 L83.50398,64.7043077 C83.2671,64.8884923 82.57284,65.1193538 81.38214,65.1193538 C78.4161,65.1193538 77.89068,62.8612 77.89068,60.9424 C77.89068,58.8280615 78.38334,56.9483692 80.6589,56.8058154 L85.176,56.8058154 L85.176,55.5341846 L80.5266,55.5341846 L80.5266,55.5417538 C76.66848,55.6729538 75.16152,57.6876308 75.16152,60.9424 C75.16152,64.0306462 77.0238,66.3821538 81.38466,66.3821538 C83.69172,66.3821538 85.43304,65.7248923 85.97988,65.4196 L85.97988,60.0870769 L81.36072,60.0883385 L81.36072,60.0883385 Z M37.03014,66.0125231 L34.44462,66.0125231 L33.1758,63.1652308 L27.9216,63.1652308 L26.65152,66.0125231 L24.066,66.0125231 L28.4823,56.7288615 L26.36928,56.7288615 L26.36928,55.5013846 L29.06694,55.5013846 L29.06694,55.4988615 L32.05188,55.4988615 L37.03014,66.0125231 L37.03014,66.0125231 Z M32.57982,61.8065538 L30.57012,57.1905846 L30.52728,57.1905846 L28.5138,61.8065538 L32.57982,61.8065538 L32.57982,61.8065538 Z" id="Shape" sketch:type="MSShapeGroup"></path>
            </g>
        </g>
    </g>
</svg>