<?xml version="1.0" encoding="UTF-8" standalone="no"?>
<svg width="140px" height="100px" viewBox="0 0 140 100" version="1.1" xmlns="http://www.w3.org/2000/svg" xmlns:xlink="http://www.w3.org/1999/xlink" xmlns:sketch="http://www.bohemiancoding.com/sketch/ns">
    <!-- Generator: Sketch 3.0.4 (8053) - http://www.bohemiancoding.com/sketch -->
    <title>logo--part2</title>
    <desc>Created with Sketch.</desc>
    <defs></defs>
    <g id="Page-1" stroke="none" stroke-width="1" fill="none" fill-rule="evenodd" sketch:type="MSPage">
        <g id="logo--part2" sketch:type="MSArtboardGroup">
            <g id="Shape-+-Shape" sketch:type="MSLayerGroup">
                <path d="M140,90 C140,95.523 135.523,100 130,100 L10,100 C4.477,100 0,95.523 0,90 L0,10 C0,4.477 4.477,0 10,0 L130,0 C135.523,0 140,4.477 140,10 L140,90 L140,90 Z" id="Shape" fill="#FFFFFF" sketch:type="MSShapeGroup"></path>
                <path d="M13.011,62.776 L12.625,60.576 L15.945,54.842 C16.309,54.211 16.86,53.344 17.106,52.937 C16.692,53.034 15.793,53.213 15.222,53.315 L11.835,53.913 L11.35,51.164 L20.522,49.546 L20.909,51.746 L17.722,57.456 C17.361,58.11 16.829,58.952 16.582,59.358 C16.996,59.262 17.894,59.081 18.466,58.98 L22.073,58.344 L22.558,61.094 L13.011,62.776 L13.011,62.776 Z M29.659,60.09 C26.646,60.622 24.012,58.546 23.387,55.005 C22.763,51.463 24.525,48.59 27.538,48.059 C30.551,47.528 33.211,49.621 33.835,53.163 C34.46,56.704 32.673,59.559 29.659,60.09 L29.659,60.09 Z M28.054,50.984 C26.602,51.24 26.153,52.679 26.467,54.461 C26.781,56.243 27.691,57.421 29.144,57.165 C30.595,56.91 31.039,55.311 30.756,53.706 C30.446,51.946 29.506,50.729 28.054,50.984 L28.054,50.984 Z M43.144,57.463 L40.021,58.014 L33.827,47.199 L37.17,46.61 L39.807,51.657 C40.248,52.486 40.75,53.532 40.979,54.057 C41.01,53.463 41.131,52.353 41.259,51.401 L42.01,45.756 L45.265,45.183 L43.144,57.463 L43.144,57.463 Z M57.475,49.992 L50.567,51.211 C50.956,52.773 52.227,53.163 53.328,52.969 C54.162,52.822 54.812,52.389 55.164,51.807 L57.637,53.231 C56.922,54.581 55.371,55.558 53.832,55.829 C50.51,56.415 47.984,54.433 47.339,50.782 C46.715,47.241 48.498,44.363 51.423,43.847 C54.503,43.304 56.766,45.717 57.348,49.017 C57.425,49.457 57.458,49.768 57.475,49.992 L57.475,49.992 Z M51.735,46.514 C50.635,46.707 50.113,47.729 50.208,48.914 L54.167,48.216 C53.897,47.198 53.099,46.273 51.735,46.514 L51.735,46.514 Z M69.31,47.905 L62.402,49.123 C62.792,50.687 64.062,51.076 65.162,50.882 C65.998,50.735 66.647,50.303 66.997,49.719 L69.471,51.143 C68.757,52.495 67.205,53.47 65.666,53.743 C62.345,54.328 59.818,52.347 59.174,48.695 C58.549,45.153 60.333,42.276 63.258,41.76 C66.338,41.217 68.6,43.631 69.182,46.93 C69.259,47.369 69.292,47.682 69.31,47.905 L69.31,47.905 Z M63.57,44.426 C62.47,44.62 61.946,45.643 62.042,46.828 L66.001,46.129 C65.731,45.111 64.934,44.186 63.57,44.426 L63.57,44.426 Z M72.729,52.247 L70.168,37.728 L72.937,35.675 L75.764,51.71 L72.729,52.247 L72.729,52.247 Z M89.665,49.51 C87.839,49.832 85.964,49.617 84.589,49.022 L85.193,46.534 C86.545,46.999 87.909,47.144 89.382,46.884 C90.57,46.674 90.872,46.327 90.766,45.734 C90.673,45.207 90.21,45.015 88.868,44.867 C85.949,44.519 84.047,44.152 83.617,41.711 C83.194,39.313 84.926,37.941 87.631,37.465 C89.083,37.208 90.744,37.368 92.097,37.834 L91.552,40.402 C90.299,39.988 88.991,39.9 88.023,40.071 C86.791,40.289 86.503,40.588 86.593,41.094 C86.678,41.577 87.066,41.714 89.227,42.013 C91.415,42.33 93.329,42.764 93.736,45.074 C94.205,47.734 92.26,49.052 89.665,49.51 L89.665,49.51 Z M103.156,46.405 C102.72,46.89 101.873,47.357 100.927,47.523 C99.057,47.853 97.591,46.615 97.234,44.591 L96.273,39.136 L94.337,39.478 L93.833,36.619 L95.769,36.277 L95.245,33.307 L98.013,31.253 L98.804,35.741 L101.576,35.252 L102.08,38.111 L99.309,38.6 L100.127,43.241 C100.321,44.341 100.768,44.557 101.493,44.429 C102.043,44.332 102.418,44.016 103.054,43.246 L103.156,46.405 L103.156,46.405 Z M112.54,45.227 L112.404,44.457 C111.954,45.126 111.065,45.736 109.987,45.927 C107.831,46.307 105.443,45.367 104.95,42.574 C104.5,40.021 106.343,38.382 108.961,37.92 C110.016,37.734 110.737,37.834 111.264,37.99 L111.163,37.418 C111.019,36.604 110.353,36.041 109.253,36.235 C107.867,36.479 107.177,36.805 106.222,37.564 L104.683,35.657 C105.889,34.651 106.941,34.056 108.811,33.728 C111.604,33.235 113.752,34.353 114.21,36.949 L115.575,44.691 L112.54,45.227 L112.54,45.227 Z M111.686,40.388 C111.1,40.151 110.567,40.086 109.489,40.276 C108.345,40.478 107.822,41.115 107.986,42.039 C108.129,42.852 108.72,43.498 110.017,43.268 C111.006,43.094 111.709,42.448 111.943,41.84 L111.686,40.388 L111.686,40.388 Z M124.748,43.074 L124.62,42.347 C124.138,42.954 123.45,43.552 122.35,43.745 C119.886,44.181 117.537,42.689 116.776,38.378 C116.167,34.925 117.368,32.218 120.228,31.714 C121.24,31.535 122.189,31.776 122.829,32.186 L122.189,28.556 L124.957,26.503 L127.785,42.538 L124.748,43.074 L124.748,43.074 Z M123.347,35.134 C122.772,34.577 122.007,34.35 121.127,34.505 C119.961,34.71 119.502,35.834 119.842,37.77 C120.261,40.146 121.228,40.997 122.416,40.788 C123.362,40.62 123.776,40.14 124.115,39.49 L123.347,35.134 L123.347,35.134 Z" id="Shape" fill="#007DB3" sketch:type="MSShapeGroup"></path>
            </g>
        </g>
    </g>
</svg>