<?xml version="1.0" encoding="UTF-8" standalone="no"?>
<svg width="32px" height="32px" viewBox="0 0 32 32" version="1.1" xmlns="http://www.w3.org/2000/svg" xmlns:xlink="http://www.w3.org/1999/xlink" xmlns:sketch="http://www.bohemiancoding.com/sketch/ns">
    <!-- Generator: Sketch 3.0.4 (8053) - http://www.bohemiancoding.com/sketch -->
    <title>twitter</title>
    <desc>Created with Sketch.</desc>
    <defs></defs>
    <g id="Page-1" stroke="none" stroke-width="1" fill="none" fill-rule="evenodd" sketch:type="MSPage">
        <g id="twitter" sketch:type="MSArtboardGroup" fill="#FFFFFF">
            <path d="M26,9.58398438 C25.4531223,10.4108114 24.7727905,11.1204397 23.9589844,11.7128906 L23.9589844,12.25 C23.9589844,13.1614629 23.8434256,14.0777949 23.6123047,14.9990234 C23.3811837,15.920252 23.0491558,16.8154253 22.6162109,17.6845703 C22.1832661,18.5537153 21.6282586,19.3658816 20.9511719,20.1210938 C20.2740852,20.8763059 19.5156292,21.535479 18.6757812,22.0986328 C17.8359333,22.6617867 16.8675185,23.1061182 15.7705078,23.4316406 C14.6734971,23.7571631 13.5162821,23.9199219 12.2988281,23.9199219 C9.83136787,23.9199219 7.73177949,23.3632868 6,22.25 C6.29948066,22.2955731 6.62499824,22.3183594 6.9765625,22.3183594 C7.88802539,22.3183594 8.77994355,22.1425799 9.65234375,21.7910156 C10.5247439,21.4394514 11.3287724,20.9674509 12.0644531,20.375 C11.1855425,20.3684896 10.3929072,20.0966824 9.68652344,19.5595703 C8.9801397,19.0224583 8.50000127,18.3437541 8.24609375,17.5234375 C8.51953262,17.5755211 8.77343633,17.6015625 9.0078125,17.6015625 C9.38541855,17.6015625 9.74999824,17.5527349 10.1015625,17.4550781 C9.15754736,17.2662751 8.37305,16.7959022 7.74804688,16.0439453 C7.12304375,15.2919884 6.81054688,14.4212289 6.81054688,13.4316406 L6.81054688,13.3828125 C7.3964873,13.7018245 8.0149707,13.8710937 8.66601562,13.890625 C8.09960654,13.5130189 7.65201987,13.0247426 7.32324219,12.4257812 C6.9944645,11.8268199 6.83007812,11.1822951 6.83007812,10.4921875 C6.83007812,9.82161123 7.01562314,9.15755537 7.38671875,8.5 C8.41536973,9.75000625 9.65884688,10.7412073 11.1171875,11.4736328 C12.5755281,12.2060583 14.147778,12.6178381 15.8339844,12.7089844 C15.7753903,12.4550769 15.7460938,12.1393248 15.7460938,11.7617188 C15.7460938,10.6289006 16.1448528,9.66374097 16.9423828,8.86621094 C17.7399128,8.06868091 18.7050725,7.66992188 19.8378906,7.66992188 C21.003261,7.66992188 22.0091104,8.09960508 22.8554688,8.95898438 C23.786463,8.77018135 24.6490846,8.43815342 25.4433594,7.96289062 C25.1308578,8.95247891 24.5286503,9.71093486 23.6367188,10.2382812 C24.4505249,10.147135 25.2382774,9.92903818 26,9.58398438 L26,9.58398438 Z" sketch:type="MSShapeGroup"></path>
        </g>
    </g>
</svg>