<?xml version="1.0" encoding="utf-8"?>
<!-- Generated by IcoMoon.io -->
<!DOCTYPE svg PUBLIC "-//W3C//DTD SVG 1.1//EN" "http://www.w3.org/Graphics/SVG/1.1/DTD/svg11.dtd">
<svg version="1.1" xmlns="http://www.w3.org/2000/svg" xmlns:xlink="http://www.w3.org/1999/xlink" width="1024" height="1024" viewBox="0 0 1024 1024"><g id="icomoon-ignore">
</g>
<path d="M239.4 121.437c20.52 0 34.199-13.681 34.199-34.201v-68.402c0-20.52-13.681-34.199-34.201-34.199s-34.201 13.679-34.201 34.199v68.402c0 20.52 13.679 34.201 34.201 34.201zM684.004 121.437c20.52 0 34.201-13.681 34.201-34.201v-68.402c0-20.52-13.681-34.199-34.201-34.199s-34.201 13.679-34.201 34.199v68.402c0 20.52 13.681 34.201 34.201 34.201zM205.201 360.839h102.6v102.6h-102.6v-102.6zM410.402 360.839h102.6v102.6h-102.6v-102.6zM581.404 360.839h102.6v102.6h-102.6v-102.6zM205.201 531.839h102.6v102.6h-102.6v-102.6zM410.402 531.839h102.6v102.6h-102.6v-102.6zM68.4 908.040h581.404v68.4h-581.404v-68.402zM957.602 155.638h68.402v444.6h-68.402v-444.602zM68.4 258.238h752.402v342.002h68.402v-513.002h-102.6c0 58.14-44.461 102.6-102.6 102.6s-102.6-44.461-102.6-102.6h-239.4c0 58.14-44.459 102.6-102.6 102.6s-102.6-44.461-102.6-102.6h-136.799v752.402h649.803v-68.402h-581.404v-513.002zM855.002 634.439c-95.759 0-171.002 75.239-171.002 171.002s75.239 171.002 171.002 171.002 171.002-75.239 171.002-171.002c0-95.759-75.239-171.002-171.002-171.002zM957.602 839.64h-68.402v68.4h-68.402v-68.402h-68.402v-68.402h68.402v-68.402h68.402v68.402h68.402v68.402zM581.404 531.839h102.6v102.6h-102.6v-102.6z" fill="rgb(68, 68, 68)"></path>
</svg>
