<?xml version="1.0" encoding="utf-8"?>
<!-- Generator: Adobe Illustrator 18.0.0, SVG Export Plug-In . SVG Version: 6.00 Build 0)  -->
<!DOCTYPE svg PUBLIC "-//W3C//DTD SVG 1.0//EN" "http://www.w3.org/TR/2001/REC-SVG-20010904/DTD/svg10.dtd">
<svg version="1.0" xmlns="http://www.w3.org/2000/svg" xmlns:xlink="http://www.w3.org/1999/xlink" x="0px" y="0px"
	 viewBox="0 0 30 30" enable-background="new 0 0 30 30" xml:space="preserve">
<g id="Layer_1">
	<path fill-rule="evenodd" clip-rule="evenodd" d="M15-285.8c-8.3,0-15,6.7-15,15c0,8.3,6.7,15,15,15s15-6.7,15-15
		C30-279.1,23.3-285.8,15-285.8z M13.1-259.6v-9.4H3.8l18.7-9.4L13.1-259.6z"/>
</g>
<g id="Layer_2">
	<path fill-rule="evenodd" clip-rule="evenodd" d="M222.2-235.9h-15c-2.1,0-3.7,1.7-3.7,3.8v22.5c0,2.1,1.7,3.7,3.7,3.7h15
		c2.1,0,3.7-1.7,3.7-3.7v-22.5C226-234.2,224.3-235.9,222.2-235.9z M224.5-209.6c0,1.2-1,2.2-2.2,2.2h-15c-1.2,0-2.2-1-2.2-2.2
		v-22.5c0-1.2,1-2.2,2.2-2.2h15c1.2,0,2.2,1,2.2,2.2V-209.6z"/>
	<path fill-rule="evenodd" clip-rule="evenodd" d="M73.4-272.7c3.6,0,6.6,3,6.6,6.7c0,3.7-2.9,6.7-6.6,6.7c-3.6,0-6.6-3-6.6-6.7
		c0-2.3,1.2-4.4,2.9-5.6l-0.4-0.7l-1.1-2.1l-0.1-0.3h-6.8c-0.8,0-1.5,0.5-1.7,1.3l-0.4,1.2c2.3,1.1,3.9,3.4,3.9,6.1
		c0,3.7-2.9,6.7-6.6,6.7c-3.6,0-6.6-3-6.6-6.7c0-3.7,2.9-6.7,6.6-6.7c0.3,0,0.6,0.1,0.9,0.1l1-3.3c0.1-0.4,0.5-0.7,0.9-0.7h9.9
		l1.7-3.8h-3.2c-0.5,0-0.9-0.4-0.9-1c0-0.5,0.4-1,0.9-1h4.1h0.6c0.3,0,0.6,0.2,0.8,0.4c0.2,0.3,0.2,0.6,0.1,0.9l-0.3,0.6l-2.7,5.9
		l1.1,2.1C72.1-272.6,72.8-272.7,73.4-272.7z M58.7-270.3l-1,3c-0.1,0.2-0.2,0.4-0.5,0.6c-0.2,0.1-0.5,0.1-0.7,0.1
		c-0.5-0.2-0.8-0.7-0.6-1.2l0.9-2.9c-0.1,0-0.2,0-0.3,0c-2.6,0-4.7,2.1-4.7,4.8c0,2.6,2.1,4.8,4.7,4.8c2.6,0,4.7-2.1,4.7-4.8
		C61.3-267.9,60.2-269.5,58.7-270.3z M68.7-266c0,2.6,2.1,4.8,4.7,4.8c2.6,0,4.7-2.1,4.7-4.8c0-2.6-2.1-4.8-4.7-4.8
		c-0.3,0-0.7,0-1,0.1l2.3,4.3c0.1,0.2,0.1,0.5,0.1,0.7c-0.1,0.2-0.2,0.5-0.5,0.6l0,0c-0.5,0.2-1,0.1-1.2-0.4l-2.4-4.5
		C69.5-269.1,68.7-267.6,68.7-266z M59.4-278.5h-2.8c-0.5,0-0.9-0.4-0.9-1c0-0.5,0.4-1,0.9-1h5.6c0.2,0,0.3,0.1,0.3,0.2
		c0.1,0.1,0,0.3-0.1,0.4C61.6-279,60.8-278.5,59.4-278.5z"/>
	<path fill-rule="evenodd" clip-rule="evenodd" d="M129.1-271.8h-0.9v-5.6h0.9c0.5,0,0.9,0.4,0.9,0.9v3.7
		C130-272.2,129.6-271.8,129.1-271.8z M124.4-260.6v1.9c0,1-0.8,1.9-1.9,1.9h-1.9c-1,0-1.9-0.8-1.9-1.9v-1.9h-7.5v1.9
		c0,1-0.8,1.9-1.9,1.9h-1.9c-1,0-1.9-0.8-1.9-1.9v-1.9c-1,0-1.9-0.8-1.9-1.9v-16.8c0-3.1,2.5-5.6,5.6-5.6h11.2
		c3.1,0,5.6,2.5,5.6,5.6v16.8C126.2-261.4,125.4-260.6,124.4-260.6z M107.5-262.4c1,0,1.9-0.8,1.9-1.9c0-1-0.8-1.9-1.9-1.9
		c-1,0-1.9,0.8-1.9,1.9C105.6-263.3,106.5-262.4,107.5-262.4z M118.7-283h-7.5v1.9h7.5V-283z M124.4-279.2h-18.7v11.2h18.7V-279.2z
		 M122.5-266.2c-1,0-1.9,0.8-1.9,1.9c0,1,0.8,1.9,1.9,1.9c1,0,1.9-0.8,1.9-1.9C124.4-265.3,123.5-266.2,122.5-266.2z M100-272.7
		v-3.7c0-0.5,0.4-0.9,0.9-0.9h0.9v5.6h-0.9C100.4-271.8,100-272.2,100-272.7z"/>
	<path fill-rule="evenodd" clip-rule="evenodd" d="M174.4-269c0,2-1.7,3.7-3.7,3.7h-11.2c-2.1,0-3.7-1.6-3.7-3.7v-12.8h18.7v1.8
		c3.1,0,5.6,2.5,5.6,5.5C180-271.5,177.5-269,174.4-269z M159.4-280h-1.9v11c0,1,0.8,1.8,1.9,1.8V-280z M174.4-278.2v7.3
		c2.1,0,3.7-1.6,3.7-3.7C178.1-276.5,176.4-278.2,174.4-278.2z M180-261.7c0,1-0.8,1.8-1.9,1.8h-26.2c-1,0-1.9-0.8-1.9-1.8
		c0-1,0.8-1.8,1.9-1.8h26.2C179.2-263.5,180-262.7,180-261.7z"/>
	<g>
		<polygon fill-rule="evenodd" clip-rule="evenodd" points="228,-280.3 228,-258.3 202,-258.3 202,-256.3 230,-256.3 230,-257.3 
			230,-258.3 230,-280.3 		"/>
		<path fill-rule="evenodd" clip-rule="evenodd" d="M226-282.3h-3c0,1.7-1.3,3-3,3c-1.7,0-3-1.3-3-3h-7c0,1.7-1.3,3-3,3
			c-1.7,0-3-1.3-3-3h-4v22h26V-282.3z M224-262.3h-22v-15h22V-262.3z"/>
		<path fill-rule="evenodd" clip-rule="evenodd" d="M207-281.3c0.6,0,1-0.4,1-1v-2c0-0.6-0.4-1-1-1s-1,0.4-1,1v2
			C206-281.8,206.4-281.3,207-281.3z"/>
		<path fill-rule="evenodd" clip-rule="evenodd" d="M220-281.3c0.6,0,1-0.4,1-1v-2c0-0.6-0.4-1-1-1s-1,0.4-1,1v2
			C219-281.8,219.4-281.3,220-281.3z"/>
		<rect x="206" y="-274.3" fill-rule="evenodd" clip-rule="evenodd" width="3" height="3"/>
		<rect x="212" y="-274.3" fill-rule="evenodd" clip-rule="evenodd" width="3" height="3"/>
		<rect x="217" y="-274.3" fill-rule="evenodd" clip-rule="evenodd" width="3" height="3"/>
		<rect x="206" y="-269.3" fill-rule="evenodd" clip-rule="evenodd" width="3" height="3"/>
		<rect x="212" y="-269.3" fill-rule="evenodd" clip-rule="evenodd" width="3" height="3"/>
		<rect x="217" y="-269.3" fill-rule="evenodd" clip-rule="evenodd" width="3" height="3"/>
	</g>
	<g>
		<path fill-rule="evenodd" clip-rule="evenodd" d="M257-281.8c0.6,0,1-0.4,1-1v-2c0-0.6-0.4-1-1-1s-1,0.4-1,1v2
			C256-282.3,256.4-281.8,257-281.8z"/>
		<path fill-rule="evenodd" clip-rule="evenodd" d="M270-281.8c0.6,0,1-0.4,1-1v-2c0-0.6-0.4-1-1-1s-1,0.4-1,1v2
			C269-282.3,269.4-281.8,270-281.8z"/>
		<rect x="256" y="-274.8" fill-rule="evenodd" clip-rule="evenodd" width="3" height="3"/>
		<rect x="262" y="-274.8" fill-rule="evenodd" clip-rule="evenodd" width="3" height="3"/>
		<rect x="267" y="-274.8" fill-rule="evenodd" clip-rule="evenodd" width="3" height="3"/>
		<rect x="256" y="-269.8" fill-rule="evenodd" clip-rule="evenodd" width="3" height="3"/>
		<rect x="262" y="-269.8" fill-rule="evenodd" clip-rule="evenodd" width="3" height="3"/>
		<rect x="252" y="-258.8" fill-rule="evenodd" clip-rule="evenodd" width="17" height="2"/>
		<rect x="278" y="-280.8" fill-rule="evenodd" clip-rule="evenodd" width="2" height="13"/>
		<path fill-rule="evenodd" clip-rule="evenodd" d="M252-277.8h22v10h2v-15h-3c0,1.7-1.3,3-3,3s-3-1.3-3-3h-7c0,1.7-1.3,3-3,3
			s-3-1.3-3-3h-4v22h19v-2h-17V-277.8z"/>
		<path fill-rule="evenodd" clip-rule="evenodd" d="M275-266.8c-2.8,0-5,2.2-5,5c0,2.8,2.2,5,5,5s5-2.2,5-5
			C280-264.6,277.8-266.8,275-266.8z M278-260.8h-2v2h-2v-2h-2v-2h2v-2h2v2h2V-260.8z"/>
		<rect x="267" y="-269.8" fill-rule="evenodd" clip-rule="evenodd" width="3" height="3"/>
	</g>
	<g>
		
			<rect x="21.1" y="-213.6" transform="matrix(-0.5 -0.866 0.866 -0.5 217.7258 -300.5767)" fill-rule="evenodd" clip-rule="evenodd" width="2" height="1"/>
		
			<rect x="19.1" y="-217.1" transform="matrix(-0.5 -0.866 0.866 -0.5 217.7312 -307.493)" fill-rule="evenodd" clip-rule="evenodd" width="2" height="1"/>
		
			<rect x="17.1" y="-220.6" transform="matrix(-0.5 -0.866 0.866 -0.5 217.7255 -314.4333)" fill-rule="evenodd" clip-rule="evenodd" width="2" height="1"/>
		
			<rect x="15.6" y="-224.5" transform="matrix(-0.866 0.5 -0.5 -0.866 -81.7245 -425.1609)" fill-rule="evenodd" clip-rule="evenodd" width="1" height="2"/>
		
			<rect x="27.8" y="-218.1" transform="matrix(0.7072 -0.707 0.707 0.7072 161.7847 -43.527)" fill-rule="evenodd" clip-rule="evenodd" width="1" height="2"/>
		
			<rect x="24.5" y="-220.4" transform="matrix(-0.7071 -0.7071 0.7071 -0.7071 199.065 -357.3778)" fill-rule="evenodd" clip-rule="evenodd" width="2" height="1"/>
		
			<rect x="21.7" y="-223.2" transform="matrix(-0.7072 -0.7071 0.7071 -0.7072 196.2213 -364.2248)" fill-rule="evenodd" clip-rule="evenodd" width="2" height="1"/>
		
			<rect x="18.9" y="-226.1" transform="matrix(0.7072 0.707 -0.707 0.7072 -153.6781 -80.0948)" fill-rule="evenodd" clip-rule="evenodd" width="2" height="1"/>
		
			<rect x="15.7" y="-211" transform="matrix(-0.2588 -0.9659 0.9659 -0.2588 224.3248 -248.9446)" fill-rule="evenodd" clip-rule="evenodd" width="2" height="1"/>
		
			<rect x="15.1" y="-215.4" transform="matrix(0.9659 -0.2589 0.2589 0.9659 56.0445 -3.2679)" fill-rule="evenodd" clip-rule="evenodd" width="1" height="2"/>
		
			<rect x="14.1" y="-219.3" transform="matrix(0.9659 -0.2589 0.2589 0.9659 57.0062 -3.667)" fill-rule="evenodd" clip-rule="evenodd" width="1" height="2"/>
		
			<rect x="13" y="-223.1" transform="matrix(0.9659 -0.2589 0.2589 0.9659 57.9747 -4.0675)" fill-rule="evenodd" clip-rule="evenodd" width="1" height="2"/>
		<rect x="9.6" y="-210.3" fill-rule="evenodd" clip-rule="evenodd" width="1" height="2"/>
		<rect x="9.6" y="-214.3" fill-rule="evenodd" clip-rule="evenodd" width="1" height="2"/>
		<rect x="9.6" y="-218.3" fill-rule="evenodd" clip-rule="evenodd" width="1" height="2"/>
		<rect x="9.6" y="-222.3" fill-rule="evenodd" clip-rule="evenodd" width="1" height="2"/>
		<path fill-rule="evenodd" clip-rule="evenodd" d="M17-232.1l-3.1,1.8c-1.1-2.4-3.5-4-6.3-4c-3.9,0-7,3.1-7,7v20h4v-20
			c0-1.7,1.3-3,3-3c1.3,0,2.4,0.8,2.8,2l-3.8,2.2l1.5,2.6l10.4-6L17-232.1z"/>
	</g>
	<path fill-rule="evenodd" clip-rule="evenodd" d="M79.7-210.5l-9.3-9.6l9.4-9.8c0.1,0.2,0.1,0.5,0.1,0.7v17.6
		C80-211.2,79.9-210.8,79.7-210.5z M51.7-231.3l0.2,0h26.2l0.3,0.1L65-217.4L51.7-231.3z M50.2-210.6c-0.1-0.3-0.2-0.6-0.2-0.9
		v-17.6c0-0.3,0.1-0.6,0.1-0.9l9.4,9.9L50.2-210.6z M65-214.5l4-4.1l9,9.3H51.9l-0.1,0l9.2-9.3L65-214.5z"/>
	<path d="M100-235.8v30h30v-30H100z M120.3-215.3c0,0-6,6.5-7.9,7.3c0,0-7.2-5.9-9.4-9.5c-2.2-3.6-2.9-6.9,1.3-9.1
		c4.3-2.3,7.8,2.1,8.1,3c0,0,3.2-5.8,8.9-2.5C127.1-222.7,120.3-215.3,120.3-215.3z M128-229.8h-3v3h-2v-3h-3v-2h3v-3h2v3h3V-229.8z
		"/>
	<path d="M109-225.8v11l3.5-2.6l-0.4,5.6l-1.3-0.4l1.6,3.2l2.3-2.7l-1.1,0l1.4-9.2l-4,2v-5L109-225.8z"/>
	<path fill-rule="evenodd" clip-rule="evenodd" d="M162-231.8h1v23h-1V-231.8z"/>
	<path fill-rule="evenodd" clip-rule="evenodd" d="M178.6-218.9l-2.8-4.3l-1.1,2.2l3.9,6.4H175l-0.6,5.7h-2.8l-0.6-5.7h-3.6l3.9-6.4
		l-1.1-2.2l-2.8,4.3H166l2.3-5.9c0.3-0.8,1.1-1.3,1.9-1.3h1.4l1.4,2.9l1.4-2.9h1.4c0.8,0,1.6,0.5,1.9,1.3l2.3,5.9H178.6z M173-227.5
		c-1.2,0-2.1-1-2.1-2.2c0-1.2,0.9-2.2,2.1-2.2c1.2,0,2.1,1,2.1,2.2C175.1-228.5,174.2-227.5,173-227.5z"/>
	<path fill-rule="evenodd" clip-rule="evenodd" d="M156.1-217.5l-0.8,8.6h-2.7l-0.8-8.6H150v-7.6c0.6-0.3,1.3-0.6,2.1-0.8l1.9,4.1
		l1.9-4.1c0.8,0.2,1.5,0.4,2.1,0.8v7.6H156.1z M154-227.5c-1.1,0-2-1-2-2.2c0-1.2,0.9-2.2,2-2.2c1.1,0,2,1,2,2.2
		C156-228.5,155.1-227.5,154-227.5z"/>
	<path fill-rule="evenodd" clip-rule="evenodd" d="M277.5-216l-10.6-5.9c0-0.6,0.4-1.2,0.9-1.5c1.7-1,2.8-2.8,2.8-4.8
		c0-3.1-2.5-5.6-5.6-5.6s-5.6,2.5-5.6,5.6c0,1,0.8,1.9,1.9,1.9c1,0,1.9-0.8,1.9-1.9c0-1,0.8-1.9,1.9-1.9s1.9,0.8,1.9,1.9
		c0,0.7-0.4,1.3-0.9,1.6c-1.7,1-2.8,2.8-2.8,4.7l-10.7,6c-1.4,0.9-2.4,2.8-2.4,4.4c0,2,1.7,3.7,3.7,3.7h22.5c2.1,0,3.7-1.7,3.7-3.7
		C280-213.2,279-215.1,277.5-216z M253.8-211.5c0-0.4,0.4-1.1,0.6-1.2l10.6-5.9l10.5,5.9c0.3,0.2,0.7,0.9,0.7,1.3H253.8z"/>
	<path fill-rule="evenodd" clip-rule="evenodd" d="M100-162.6h30v1h-30V-162.6z"/>
	<path fill-rule="evenodd" clip-rule="evenodd" d="M113-161.6h4c1.1,0,2-0.9,2-2h-8C111-162.5,111.9-161.6,113-161.6z"/>
	<path fill-rule="evenodd" clip-rule="evenodd" d="M123-161.6h4c1.1,0,2-0.9,2-2h-8C121-162.5,121.9-161.6,123-161.6z"/>
	<path fill-rule="evenodd" clip-rule="evenodd" d="M117-172.6h-4c-1.1,0-2,0.9-2,2v6h8v-6C119-171.7,118.1-172.6,117-172.6z
		 M116.5-170.8h-3.1c-0.3,0-0.5-0.2-0.5-0.5c0-0.3,0.2-0.5,0.5-0.5h3.1c0.3,0,0.5,0.2,0.5,0.5C117-171,116.8-170.8,116.5-170.8z"/>
	<path fill-rule="evenodd" clip-rule="evenodd" d="M127-172.6h-4c-1.1,0-2,0.9-2,2v6h8v-6C129-171.7,128.1-172.6,127-172.6z
		 M126.5-170.8h-3.1c-0.3,0-0.5-0.2-0.5-0.5c0-0.3,0.2-0.5,0.5-0.5h3.1c0.3,0,0.5,0.2,0.5,0.5C127-171,126.8-170.8,126.5-170.8z"/>
	<path fill-rule="evenodd" clip-rule="evenodd" d="M116-170.6h8v1h-8V-170.6z"/>
	<path fill-rule="evenodd" clip-rule="evenodd" d="M100-162.6h1v3h-1V-162.6z"/>
	<path fill-rule="evenodd" clip-rule="evenodd" d="M129-162.6h1v3h-1V-162.6z"/>
	<path fill-rule="evenodd" clip-rule="evenodd" d="M103-161.6h4c1.1,0,2-0.9,2-2h-8C101-162.5,101.9-161.6,103-161.6z"/>
	<path fill-rule="evenodd" clip-rule="evenodd" d="M107-172.6h-4c-1.1,0-2,0.9-2,2v6h8v-6C109-171.7,108.1-172.6,107-172.6z
		 M106.5-170.8h-3.1c-0.3,0-0.5-0.2-0.5-0.5c0-0.3,0.2-0.5,0.5-0.5h3.1c0.3,0,0.5,0.2,0.5,0.5C107-171,106.8-170.8,106.5-170.8z"/>
	<path fill-rule="evenodd" clip-rule="evenodd" d="M106-170.6h8v1h-8V-170.6z"/>
	<path fill="none" d="M111.5-177.7h-3.1c-0.3,0-0.5,0.2-0.5,0.5c0,0.3,0.2,0.5,0.5,0.5h3.1c0.3,0,0.5-0.2,0.5-0.5
		C112-177.5,111.8-177.7,111.5-177.7z"/>
	<path fill="none" d="M122-177.2c0-0.3-0.2-0.5-0.5-0.5h-3.1c-0.3,0-0.5,0.2-0.5,0.5c0,0.3,0.2,0.5,0.5,0.5h3.1
		C121.8-176.8,122-177,122-177.2z"/>
	<path fill="none" d="M112-177.2c0-0.3-0.2-0.5-0.5-0.5h-3.1c-0.3,0-0.5,0.2-0.5,0.5c0,0.3,0.2,0.5,0.5,0.5h3.1
		C111.8-176.8,112-177,112-177.2z"/>
	<path d="M123-173.1h1v-3.5c0-1.1-0.9-2-2-2h-4c-1.1,0-2,0.9-2,2v3.5h1c1.4,0,2.5,1.1,2.5,2.5v1h1v-1
		C120.5-172,121.6-173.1,123-173.1z M118.5-176.8c-0.3,0-0.5-0.2-0.5-0.5c0-0.3,0.2-0.5,0.5-0.5h3.1c0.3,0,0.5,0.2,0.5,0.5
		c0,0.3-0.2,0.5-0.5,0.5H118.5z"/>
	<path d="M113-173.1h1v-3.5c0-1.1-0.9-2-2-2h-4c-1.1,0-2,0.9-2,2v3.5h1c1.4,0,2.5,1.1,2.5,2.5v1h1v-1
		C110.5-172,111.6-173.1,113-173.1z M108.5-176.8c-0.3,0-0.5-0.2-0.5-0.5c0-0.3,0.2-0.5,0.5-0.5h3.1c0.3,0,0.5,0.2,0.5,0.5
		c0,0.3-0.2,0.5-0.5,0.5H108.5z"/>
	<g>
		<path d="M20.1-161.9c-0.5-0.3-1.2-0.2-1.5,0.4c-1.4,2.2-3.7,3.5-6.3,3.5c-4.1,0-7.4-3.4-7.4-7.5c0-2.4,1.2-4.7,3.1-6.1
			c0.5-0.4,0.6-1,0.2-1.5c-0.4-0.5-1-0.6-1.5-0.3c-2.5,1.8-4,4.8-4,7.9c0,5.3,4.3,9.7,9.6,9.7c3.3,0,6.4-1.7,8.1-4.6
			C20.8-160.9,20.7-161.6,20.1-161.9z"/>
		<path d="M27.7-161.3c-0.2-0.6-0.8-0.9-1.4-0.7l-1.3,0.5c0,0-2.4-6.8-2.5-6.9c0,0-0.1-0.1-0.1-0.2c-0.3-0.5-0.9-0.9-1.5-0.9h-5.7
			l-0.1-2.1h4.7c0.6,0,1.1-0.5,1.1-1.1c0-0.6-0.5-1.1-1.1-1.1H15l-0.2-3.1c0,0,0-0.1,0-0.1c-0.1-1.5-1.4-2.7-2.9-2.6
			c-1.5,0.1-2.7,1.4-2.6,2.9v0l0,0l0.4,8.1l0,0c0,0,0,0,0,0c0.1,1.5,1.3,2.6,2.7,2.6c0,0,7.4,0,7.4,0l2.2,6.1
			c0.2,0.7,0.9,1.1,1.5,1.1c0.1,0,0.2,0,0.3,0c0.1,0,0.1,0,0.2-0.1l2.9-1.1C27.6-160.1,27.9-160.7,27.7-161.3z"/>
		
			<ellipse transform="matrix(5.248704e-02 0.9986 -0.9986 5.248704e-02 -171.7793 -185.6234)" cx="11.9" cy="-183.3" rx="2.5" ry="2.5"/>
	</g>
	<g>
		<path fill-rule="evenodd" clip-rule="evenodd" d="M77-175.6c0-0.1,0-0.1,0-0.2c0-2-1.5-3.6-3.4-3.7c-0.7-0.8-1.7-1.3-2.8-1.3
			c-1.3,0-2.5,0.7-3.2,1.7c-0.5-0.3-1.2-0.5-1.8-0.5c-2.1,0-3.7,1.7-3.7,3.7c0,0.1,0,0.1,0,0.2c-1.5,0.5-2.5,1.9-2.5,3.5
			c0,0.1,0,0.2,0,0.2h-6h-1h-2v2h2v1h-2v1h2v1v1h1h7h1v-1v-1h2v-0.5c0.6,0,1.1-0.2,1.6-0.5c0.6,0.3,1.2,0.5,1.9,0.5
			c0.4,0,0.9-0.1,1.2-0.2v6.5H67v1.2h5v-1.2h-1.2v-6.2c0.2,0,0.4,0,0.6-0.1c0.2,0,0.4,0.1,0.6,0.1c0.7,0,1.3-0.2,1.9-0.5
			c0.6,0.3,1.2,0.5,1.9,0.5c2.1,0,3.7-1.7,3.7-3.7C79.5-173.7,78.4-175.1,77-175.6z M53.5-169.8h6.8c0.1,0.1,0.1,0.2,0.2,0.3v0.7h-7
			V-169.8z M60.5-166.8h-7v-1h7V-166.8z"/>
		<polygon fill-rule="evenodd" clip-rule="evenodd" points="60.5,-164.8 53.5,-164.8 51.5,-164.8 50.5,-164.8 50.5,-163.8 
			51.5,-163.8 51.5,-160.8 53.5,-160.8 53.5,-163.8 54.5,-163.8 54.5,-161.8 55.5,-161.8 55.5,-163.8 58.5,-163.8 58.5,-161.8 
			59.5,-161.8 59.5,-163.8 60.5,-163.8 60.5,-160.8 62.5,-160.8 62.5,-163.8 63.5,-163.8 63.5,-164.8 62.5,-164.8 		"/>
	</g>
	<g>
		<path fill-rule="evenodd" clip-rule="evenodd" d="M215.8-224.9c-0.1-0.2-0.2-0.4-0.4-0.5c-0.2-0.1-0.5-0.2-0.8-0.2h-1v4.4h0.9
			c0.4,0,0.7-0.1,0.9-0.2s0.4-0.3,0.5-0.4c0.1-0.2,0.2-0.4,0.2-0.7c0-0.3,0-0.6,0-0.9c0-0.3,0-0.6,0-0.9
			C216-224.5,215.9-224.7,215.8-224.9z"/>
		<path fill-rule="evenodd" clip-rule="evenodd" d="M221.4-232.9h-13.3c-1.1,0-2,0.9-2,2v20c0,1.1,0.9,2,2,2h13.3c1.1,0,2-0.9,2-2
			v-20C223.4-232,222.5-232.9,221.4-232.9z M217.6-222c-0.1,0.4-0.2,0.8-0.4,1.1c-0.3,0.4-0.6,0.7-1,1s-1,0.4-1.7,0.4h-0.9v5h-1.8
			v-12.8h2.8c0.5,0,0.9,0.1,1.3,0.2c0.4,0.1,0.7,0.4,1,0.7c0.3,0.3,0.5,0.7,0.6,1.2c0.1,0.4,0.2,1.1,0.2,1.8
			C217.7-222.8,217.7-222.4,217.6-222z"/>
	</g>
	<path fill-rule="evenodd" clip-rule="evenodd" d="M179.8-109.1L166-133.6c-0.5-1-1.4-1-2,0l-13.8,24.6c-0.5,1-0.1,1.7,1,1.7h27.6
		C179.9-107.3,180.3-108.1,179.8-109.1z M167-112.3c0,0.6-0.5,1-1,1h-2c-0.5,0-1-0.4-1-1v-2c0-0.6,0.5-1,1-1h2c0.5,0,1,0.5,1,1
		V-112.3z M167-118.3c0,0.6-0.4,1-1,1h-2c-0.5,0-1-0.4-1-1v-6c0-0.6,0.5-1,1-1h2c0.5,0,1,0.5,1,1L167-118.3z"/>
	<g>
		<path d="M219.6-127.8c-1.4-0.4-3-0.7-4.6-0.7c-7.1,0-13,5.2-14.8,6.9c-0.3,0.3-0.3,0.8,0,1.1c1,1,3.5,3.2,6.9,4.9L219.6-127.8z"/>
		<path d="M229.8-121.6c-1.1-1-3.7-3.4-7.1-5l2.8-2.7H223l-17.4,17h2.4l2.2-2.1c1.5,0.5,3.2,0.8,4.9,0.8c7.1,0,13-5.2,14.8-6.9
			C230.1-120.8,230.1-121.3,229.8-121.6z M220.1-120c-0.4,1.9-2,3.5-4,3.9c-1.4,0.3-2.6,0-3.7-0.6l2.2-2.2c0.1,0,0.2,0,0.4,0
			c1.3,0,2.3-1,2.3-2.3c0-0.1,0-0.2,0-0.4l2.2-2.2C220.1-122.6,220.4-121.3,220.1-120z"/>
	</g>
	<g>
		<polygon points="265.9,-133.3 264,-133.3 264,-127.3 265.9,-127.3 		"/>
		<polygon points="274,-118 280,-119.2 279.5,-121.5 273.6,-120.3 		"/>
		<polygon points="276.3,-128.1 274.6,-129.7 270.4,-125.5 272,-123.8 		"/>
		<polygon points="256.4,-120.3 250.5,-121.5 250,-119.2 256,-118 		"/>
		<path d="M273-112.3l-2.3-10.9c-0.2-1.2-1.3-2.1-2.7-2.1l-5,0c-1.4,0-2.7,0.9-3,2.1l-2,10.9c0,0.1,0,0,0,1h-3l0.1,3H276v-3h-3
			C273-112.3,273-112.3,273-112.3z M265.1-112.3l-0.1-11h2c1.1,0,1.8,0.1,2,1l1,5c0,0.1,1,5,1,5H265.1z"/>
		<polygon points="259.6,-125.5 255.4,-129.7 253.7,-128.1 258,-123.8 		"/>
	</g>
	<path fill-rule="evenodd" clip-rule="evenodd" d="M166.8-155.8h-4v-11h-2v-9c0-2.1,0.9-3,3-3h2c2.1,0,3,0.9,3,3v9h-2V-155.8z
		 M164.8-180.2c-1.6,0-2.8-1.3-2.8-2.8c0-1.6,1.3-2.8,2.8-2.8c1.6,0,2.8,1.3,2.8,2.8C167.6-181.5,166.4-180.2,164.8-180.2z"/>
	<path fill-rule="evenodd" clip-rule="evenodd" d="M155.8-155.8h-4v-11h-2v-9c0-2.1,0.9-3,3-3h2c2.1,0,3,0.9,3,3v9h-2V-155.8z
		 M153.8-180.2c-1.6,0-2.8-1.3-2.8-2.8c0-1.6,1.3-2.8,2.8-2.8c1.6,0,2.8,1.3,2.8,2.8C156.6-181.5,155.4-180.2,153.8-180.2z"/>
	<path fill-rule="evenodd" clip-rule="evenodd" d="M177.8-155.8h-4v-11h-2v-9c0-2.1,0.9-3,3-3h2c2.1,0,3,0.9,3,3v9h-2V-155.8z
		 M175.8-180.2c-1.6,0-2.8-1.3-2.8-2.8c0-1.6,1.3-2.8,2.8-2.8c1.6,0,2.8,1.3,2.8,2.8C178.6-181.5,177.4-180.2,175.8-180.2z"/>
	<path fill-rule="evenodd" clip-rule="evenodd" d="M214.6-182.8c-5,0-9,4-9,9c0,6,9,15,9,15s9-9,9-15
		C223.6-178.8,219.6-182.8,214.6-182.8z M214.6-169.7c-2.6,0-4.7-2.1-4.7-4.7c0-2.6,2.1-4.7,4.7-4.7c2.6,0,4.7,2.1,4.7,4.7
		C219.3-171.9,217.2-169.7,214.6-169.7z"/>
	<path fill-rule="evenodd" clip-rule="evenodd" d="M269.1-175.8c1,0,1.8,0.8,1.8,1.9c0,1-0.8,1.9-1.8,1.9h-6.7
		c-0.1,0.4-0.1,0.8-0.1,1.1c0,0.4,0,0.8,0.1,1.1h6.7c1,0,1.8,0.8,1.8,1.9c0,1-0.8,1.9-1.8,1.9h-5.6c1.7,3.2,5,5.3,8.5,5.3h0.4
		c0.8,0,1.4,0.7,1.4,1.7c0,1-0.6,1.9-1.3,2l0,0H272c-5.5,0-10.5-3.6-12.4-9.1h-2c-1,0-1.8-0.8-1.8-1.9c0-1,0.8-1.9,1.8-1.9h1.2v0
		c-0.1-0.4-0.1-0.7-0.1-1.1c0-0.4,0-0.7,0.1-1.1v0h-1.2c-1,0-1.8-0.8-1.8-1.9c0-1,0.8-1.9,1.8-1.9h2c2-5.4,6.9-9.1,12.4-9.1h0.4
		c0.8,0.1,1.4,1,1.4,2c0,1-0.5,1.7-1.2,1.7l-0.6,0c-3.5,0-6.8,2.1-8.5,5.3H269.1z"/>
	<path fill-rule="evenodd" clip-rule="evenodd" d="M23.4-134.2L23-134c-1.1,0.5-2.8,6.3-2.8,6.7l0,0.4c0.2,0.8,0.9,1.7,2.5,3.5
		c-0.9,2.1-3.4,4.9-4.9,6.2c-1.6,1.4-4.3,3.2-6.3,3.9c-1.8-2.1-2.6-2.9-3.5-3c-0.5,0-6.4,1-6.9,2l-0.2,0.3c-0.4,0.7-1.1,1.7-0.8,2.8
		c0.1,0.3,0.2,0.5,0.3,0.8c0.5,0.8,1.7,2.6,3.4,3.4c1,0.5,10.4,0.8,18.3-6.3c7.8-7,8.2-15.6,7.9-16.9l0,0l0-0.1
		c-0.6-1.8-2.3-3.2-3-3.8C25.7-135.3,24.2-134.6,23.4-134.2z"/>
	<path fill-rule="evenodd" clip-rule="evenodd" d="M52.8-132.8v18h18v-18H52.8z M68.8-116.8h-14v-14h14V-116.8z"/>
	<path fill-rule="evenodd" clip-rule="evenodd" d="M74.8-118.8v-10h-2l3-4l3,4h-2v10h2l-3,4l-3-4"/>
	<path fill-rule="evenodd" clip-rule="evenodd" d="M66.8-108.8h-10v2l-4-3l4-3v2h10v-2l4,3l-4,3"/>
	<g opacity="0.4">
		<path fill-rule="evenodd" clip-rule="evenodd" d="M108.5-115.9l4-4c-0.1-0.2-0.1-0.5-0.1-0.7c0-1,0.6-1.9,1.5-2.3v-9.9
			c0-0.5,0.5-1,1-1c-7.2,0-13,5.8-13,13c0,3.6,1.5,6.8,3.8,9.2l2.8-2.8C108.1-114.9,108.1-115.5,108.5-115.9z"/>
	</g>
	<g>
		<g>
			<path fill-rule="evenodd" clip-rule="evenodd" d="M114.8-135.8c-1,0-2,0.1-3,0.3c-1,0.2-1.9,0.5-2.8,0.9
				c-1.3,0.6-2.6,1.3-3.7,2.2s-2.1,2-2.9,3.2c-1.6,2.4-2.6,5.3-2.6,8.4c0,1.6,0.2,3.1,0.7,4.5c0.7,2.3,2,4.4,3.7,6.1
				c0.3,0.3,0.7,0.7,1.1,1c0.7,0.6,1.5,1.2,2.4,1.6c0.4,0.2,0.9,0.4,1.3,0.6c0.9,0.4,1.8,0.7,2.8,0.9c1,0.2,2,0.3,3,0.3
				c8.3,0,15-6.7,15-15C129.8-129.1,123.1-135.8,114.8-135.8z M114.8-118.1c-0.3,0-0.6-0.1-0.9-0.2l-3.9,3.9c-0.4,0.4-1.1,0.4-1.5,0
				c0,0,0,0,0,0l-2.8,2.8c-2.4-2.4-3.8-5.6-3.8-9.2c0-7.2,5.8-13,13-13c0.5,0,1,0.5,1,1v9.9c0.9,0.4,1.5,1.3,1.5,2.3
				C117.3-119.2,116.2-118.1,114.8-118.1z"/>
		</g>
	</g>
	<path fill-rule="evenodd" clip-rule="evenodd" d="M16-58.9h-2l-14-2v-19.9h2v18.2l12,1.7h2l12-1.7v-18.2h2v19.9L16-58.9z M16-80.7
		c3.6-2.1,10-2.1,10-2.1v17.9c0,0-6.4,0-10,2.1V-80.7z M4-82.8c0,0,6.4,0,10,2.1v17.9c-3.6-2.1-10-2.1-10-2.1V-82.8z"/>
	<path fill-rule="evenodd" clip-rule="evenodd" d="M79.5-76.9l-0.2,0.1l0,0L76.6-74l-8.4-8.4l2.7-2.7l0,0l0.1-0.2
		c0.7-0.7,2-0.7,2.7,0.1l5.6,5.6C80.2-78.9,80.2-77.6,79.5-76.9z M57-65.7l12.5-12.6l2.8,2.8L59.7-62.9l1.4,1.4l12.5-12.6l1.4,1.4
		l-13.9,14l-8.4-8.4l13.9-14l1.4,1.4L55.6-67.1L57-65.7z M59.8-57.2l-4.9,0.7L50-55.8l0.7-4.9l0.7-4.9l4.2,4.2L59.8-57.2z"/>
	<path fill-rule="evenodd" clip-rule="evenodd" d="M126-56.8l-26,0v-28l30,0v24L126-56.8z M109-58.8h12v-7h-12V-58.8z M124-82.8h-18
		v12h18V-82.8z M111-63.8l4,0v3h-4V-63.8z"/>
	<path fill-rule="evenodd" clip-rule="evenodd" d="M150-73.8l3-2l8,14l16-23l3,2l-19,27L150-73.8"/>
	<path fill-rule="evenodd" clip-rule="evenodd" d="M223.6-78l-1.8-1.8l-7.2,7.2l-7.2-7.2l-1.8,1.8l7.2,7.2l-7.2,7.2l1.8,1.8l7.2-7.2
		l7.2,7.2l1.8-1.8l-7.2-7.2L223.6-78z"/>
	<path fill-rule="evenodd" clip-rule="evenodd" d="M264.8-79.3c-4.7,0-8.5,3.8-8.5,8.5s3.8,8.5,8.5,8.5s8.5-3.8,8.5-8.5
		S269.5-79.3,264.8-79.3z M269.8-68.1l-2.2,2.2l-2.8-2.8l-2.8,2.8l-2.2-2.2l2.8-2.8l-2.8-2.8l2.2-2.2l2.8,2.8l2.8-2.8l2.2,2.2
		l-2.8,2.8L269.8-68.1z"/>
	<path fill-rule="evenodd" clip-rule="evenodd" d="M22.3-28.5c-0.9,0-1.6-0.7-1.6-1.6c0-0.9,0.7-1.6,1.6-1.6c0.9,0,1.6,0.7,1.6,1.6
		C23.8-29.2,23.1-28.5,22.3-28.5z M20.1-33.8c-0.4,0-0.8-0.2-1.1-0.5c-0.6-0.6-0.6-1.6,0-2.2c0.3-0.3,0.7-0.5,1.1-0.5
		s0.8,0.2,1.1,0.5c0.6,0.6,0.6,1.6,0,2.2C20.9-33.9,20.5-33.8,20.1-33.8z M14.8-35c-1.4,0-2.5-1.1-2.5-2.5c0-1.4,1.1-2.5,2.5-2.5
		c1.4,0,2.5,1.1,2.5,2.5C17.3-36.1,16.2-35,14.8-35z M9.6-23.2c-0.4,0-0.8-0.2-1.1-0.5c-0.6-0.6-0.6-1.6,0-2.2
		c0.3-0.3,0.7-0.5,1.1-0.5s0.8,0.2,1.1,0.5c0.6,0.6,0.6,1.6,0,2.2C10.4-23.4,10-23.2,9.6-23.2z M9.6-33.8c-0.4,0-0.8-0.2-1.1-0.5
		c-0.6-0.6-0.6-1.6,0-2.2c0.3-0.3,0.7-0.5,1.1-0.5s0.8,0.2,1.1,0.5c0.6,0.6,0.6,1.6,0,2.2C10.4-33.9,10-33.8,9.6-33.8z M8.9-30
		c0,0.9-0.7,1.6-1.6,1.6S5.8-29.2,5.8-30c0-0.9,0.7-1.6,1.6-1.6C8.2-31.6,8.9-30.9,8.9-30z M14.8-24.1c0.9,0,1.6,0.7,1.6,1.6
		c0,0.9-0.7,1.6-1.6,1.6c-0.9,0-1.6-0.7-1.6-1.6C13.3-23.4,14-24.1,14.8-24.1z M20.1-26.3c0.4,0,0.8,0.2,1.1,0.5
		c0.6,0.6,0.6,1.6,0,2.2c-0.3,0.3-0.7,0.5-1.1,0.5c-0.4,0-0.8-0.2-1.1-0.5c-0.6-0.6-0.6-1.6,0-2.2C19.3-26.1,19.7-26.3,20.1-26.3z"
		/>
	<g>
		<circle fill-rule="evenodd" clip-rule="evenodd" cx="215" cy="-41.4" r="2.3"/>
		<rect x="200.2" y="-33" fill-rule="evenodd" clip-rule="evenodd" width="1.8" height="7.3"/>
		<path fill-rule="evenodd" clip-rule="evenodd" d="M224.7-30.1H221l-0.1-6.3c0-1.2-1-2.2-2.2-2.2h-7.6c-1.2,0-2.2,1-2.2,2.2l0,6.3
			h-3.7v-4.1h-2.5v9.6h2.5v-4.1h3.7h2.1h0.6c-0.2,3.6-0.6,12.2-0.6,12.2h2.9l0.6-11.2c0.1,0,0.5,0,0.6,0l0.9,11.2h2.9
			c0,0-0.6-8.6-0.8-12.2h0.6h2.1h3.8v4.1h2.5v-9.6h-2.5V-30.1z M211.2-30.1L211.2-30.1v-4.7c0-0.2,0.1-0.3,0.3-0.3
			c0.2,0,0.3,0.1,0.3,0.3v3.9c0,0,0,0.3,0,0.8H211.2z M218.8-30.1h-0.6c0-0.5,0-0.8,0-0.8v-3.9c0-0.2,0.1-0.3,0.3-0.3
			c0.2,0,0.3,0.1,0.3,0.3V-30.1z"/>
		<rect x="228" y="-33" fill-rule="evenodd" clip-rule="evenodd" width="1.8" height="7.3"/>
	</g>
	<g>
		<path fill="#010101" d="M267.9-23.2c1.5-0.1,2.9-0.2,2.9-0.2l-2.2-1.3l-2.7-1.5l-4.1-2.3l-2.7-1.5l-2.2-1.3c0,0,0.7,1.2,1.4,2.5
			c0.8,1.5,1.5,3.1,1.4,3.4c-0.2,0.7-3.2,5.3-3.9,6.3c-0.5,0.8,0.9,2.2,1.9,2.8c1,0.5,2.9,1,3.3,0.1c0.5-1.3,2.8-6.1,3.3-6.6
			C264.5-22.9,266.3-23.1,267.9-23.2z"/>
		<g>
			<path fill="#010101" d="M276.7-28.6c3.3-5.8,1.8-12.8-3.3-15.7c-5.1-2.8-11.8-0.4-15.1,5.4c-1.2,2.2-1.8,4.5-1.7,6.7l15.3,8.6
				C273.7-24.8,275.4-26.4,276.7-28.6z"/>
		</g>
	</g>
	<circle fill="#010101" cx="255.6" cy="-42.4" r="2.6"/>
	<g>
		<path d="M27.5,8.6V5.1L22,0.6l-1.3,1.1c-1-0.9-2.3-1.5-3.7-1.5c-2,0-3.7,1-4.7,2.6C11.4,2.3,10.5,2,9.5,2C6.4,2,3.9,4.5,3.9,7.6
			c0,0.1,0,0.2,0,0.3C2,8.6,0.6,10.2,0.3,12.3c0,0,0,0.1,0,0.1c0,0.3-0.1,0.5-0.1,0.8c0,0,0,0,0,0c0,0,0,0,0,0c0,0,0,0,0,0
			c0,3.1,2.5,5.5,5.6,5.5c0.1,0,0.2,0,0.4,0l0,0c0.3,0,0.5-0.1,0.8-0.1V20c-1.3,0.2-2.3,1.4-2.3,2.8c0,1.6,1.3,2.8,2.8,2.8
			c1.6,0,2.8-1.3,2.8-2.8c0-1.4-1-2.5-2.3-2.8v-1.6c0.2-0.1,0.4-0.2,0.6-0.3c0.8,0.5,1.8,0.8,2.8,0.8c0.7,0,1.3-0.1,1.9-0.3v9.7
			h-1.9V30h7.5v-1.9H17v-9.3c0.3,0,0.6,0,0.9-0.1c0.3,0.1,0.6,0.1,0.9,0.1c1,0,2-0.3,2.8-0.8c0.8,0.5,1.8,0.8,2.8,0.8
			c3.1,0,5.6-2.5,5.6-5.6C30,11.3,29,9.6,27.5,8.6z M9.2,22.8c0,1-0.8,1.8-1.8,1.8c-1,0-1.8-0.8-1.8-1.8s0.8-1.8,1.8-1.8
			C8.4,20.9,9.2,21.8,9.2,22.8z M26.5,13H22V8.9h-3V13h-1.5V5.5L22,1.9l4.5,3.7V13z"/>
		<circle cx="24.3" cy="6.3" r="1.3"/>
	</g>
	<g>
		<g>
			<polygon fill="#010101" points="77,19 53.4,22.3 50,19.2 50.9,18.3 53.8,20.9 76.3,17.8 79,14.3 80,15 			"/>
		</g>
		<g>
			<g>
				<circle fill="#010101" cx="57.1" cy="24" r="1.5"/>
			</g>
			<g>
				<g>
					<circle fill="#010101" cx="74.5" cy="21.6" r="1.5"/>
				</g>
			</g>
		</g>
	</g>
	<g>
		<polygon fill="#010101" points="109.7,13.8 111.8,19.9 118.2,19.9 120.3,13.8 115,9.9 		"/>
		<path fill="#010101" d="M115,0c-8.3,0-15,6.7-15,15s6.7,15,15,15s15-6.7,15-15S123.3,0,115,0z M126.6,19.9
			c-0.4,0.9-0.9,1.8-1.5,2.6l-0.1-1.3l-4.7,1.1l-2.5,4.2l1.3,0.6c-1.3,0.4-2.7,0.7-4.1,0.7c-1.4,0-2.7-0.2-4-0.7l1.3-0.6l-2.5-4.2
			l-4.7-1.1l-0.1,1.4c-0.6-0.8-1.1-1.7-1.5-2.6c-0.7-1.6-1-3.2-1-4.9c0,0,0-0.1,0-0.1l0.9,0.9l3.2-3.7L106,7.3l-1.2,0.2
			c0.4-0.5,0.8-1,1.3-1.5c1.2-1.2,2.5-2.1,4-2.7c0.3-0.1,0.7-0.3,1-0.4l-0.6,1.1L115,6l4.5-1.9L118.8,3c0.4,0.1,0.7,0.2,1.1,0.4
			c1.5,0.6,2.9,1.5,4,2.7c0.5,0.5,0.9,1,1.3,1.5L124,7.3l-0.4,4.8l3.2,3.7l0.9-0.9c0,0,0,0,0,0.1C127.6,16.7,127.3,18.4,126.6,19.9z
			"/>
	</g>
	<g id="Layer_4">
		<polygon fill="#010101" points="163.2,28 165.8,28 165.8,22.8 164.5,21.3 163.2,22.8 		"/>
		<g>
			<path fill="#010101" d="M160.6,4.7c-0.4-0.2-0.6-0.6-0.7-1c-0.1-0.4,0-0.8,0.2-1.2c0.2-0.4,0.6-0.6,1-0.7c0.4-0.1,0.8,0,1.2,0.2
				c0.4,0.2,0.6,0.6,0.7,1c0.1,0.4,0,0.8-0.2,1.2c-0.2,0.4-0.6,0.6-1,0.7C161.3,5,160.9,5,160.6,4.7z"/>
			<path fill="#010101" d="M153.6,11l4-0.6L155.1,8c-0.1-0.1-0.2-0.3-0.3-0.5c-0.2-0.6,0.1-0.9,0.6-1.3l2.3-2
				c0.2-0.2,0.4-0.3,0.6-0.3c0.4-0.1,0.7,0,1,0.2c0.3,0.2,0.5,0.5,0.6,0.9c0.1,0.5-0.1,0.9-0.5,1.2l-1.9,1.6l2,2
				c0.1,0.1,0.2,0.3,0.2,0.6c0,0.3,0,0.5-0.2,0.7c-0.2,0.3-0.4,0.4-0.7,0.5l-5.1,0.9L153.6,11z"/>
		</g>
		<path fill="#010101" d="M177.1,18c-0.4,0.2-0.8,0.2-1.2,0.1c-0.4-0.1-0.7-0.4-0.9-0.8c-0.2-0.4-0.2-0.8-0.1-1.2
			c0.1-0.4,0.4-0.7,0.8-0.9c0.4-0.2,0.8-0.2,1.2-0.1c0.4,0.1,0.7,0.4,0.9,0.8c0.2,0.4,0.2,0.8,0.1,1.2
			C177.7,17.5,177.5,17.8,177.1,18z"/>
		<path fill="#010101" d="M150.5,14.3l21.1,8c0.1-0.2,0.2-0.3,0.4-0.4c0.2-0.1,0.5-0.2,0.7-0.1l2.7,0.7l0-2.5c0-0.5,0.2-0.9,0.7-1.2
			c0.3-0.2,0.7-0.2,1.1-0.1c0.4,0.1,0.7,0.3,0.8,0.7c0.1,0.2,0.1,0.4,0.1,0.7l0,3.1c0,0.6-0.1,1-0.7,1.3c0,0-0.1,0-0.2,0l2.8,1
			l-0.5,1.4l-4.9-1.9l-0.6-1.1l-0.2,0.1l-0.2,0.1l1.8,3.4l-0.7,0.4l-0.8,0.3l-2.3-4.4L150,15.7L150.5,14.3z"/>
	</g>
	<circle fill="none" cx="206.4" cy="6.9" r="0.7"/>
	<circle fill="none" cx="204.6" cy="8.7" r="0.7"/>
	<circle fill="none" cx="204" cy="6.3" r="0.7"/>
	<g>
		<path fill="#010101" d="M219.6,14.4c0.3,0,0.7,0.1,1,0.2l0.9,0.3l-1.1-11.7L220.1,0h-3.1l-0.3,3.1h-3.9L212.5,0h-3.1l-0.3,3.1
			h-3.9L205,0h-3.1l-0.3,3.1h0l-1.7,18.8c0,0,4.8,1.6,11,1.6c1.6,0,3.1-0.1,4.5-0.3l1.4-6.6C217.1,15.3,218.2,14.4,219.6,14.4z
			 M203.5,5.8c0.3-0.3,0.7-0.3,1,0c0.3,0.3,0.3,0.7,0,1c-0.3,0.3-0.7,0.3-1,0C203.2,6.5,203.2,6.1,203.5,5.8z M205.1,9.2
			c-0.3,0.3-0.7,0.3-1,0c-0.3-0.3-0.3-0.7,0-1c0.3-0.3,0.7-0.3,1,0C205.4,8.4,205.4,8.9,205.1,9.2z M206.9,7.4c-0.3,0.3-0.7,0.3-1,0
			c-0.3-0.3-0.3-0.7,0-1c0.3-0.3,0.7-0.3,1,0C207.2,6.7,207.2,7.1,206.9,7.4z"/>
		<circle fill="#010101" cx="223.5" cy="28.1" r="0.7"/>
		<path fill="#010101" d="M229.4,19.9l-3.3-1.2l3.4-10.5l-2.8-1l-3.4,10.5l-3.3-1.2c-0.1,0-0.2-0.1-0.3-0.1c-0.4,0-0.7,0.3-0.8,0.7
			l-1.9,9.3c-0.1,0.3,0,0.5,0.1,0.7c1-0.8,2.3-1.6,3.9-2.2c2-0.8,4.7-0.7,6.7,0.5l2.3-4.3C230.2,20.6,229.9,20.1,229.4,19.9z"/>
		<circle fill="#010101" cx="225.6" cy="26.8" r="0.7"/>
		<circle fill="#010101" cx="225.6" cy="29.3" r="0.7"/>
	</g>
	<path fill="none" d="M72.4-34.8l-0.4,0.7c0.3,0.2,0.6,0.4,0.9,0.5l0.4-0.7C72.9-34.4,72.6-34.6,72.4-34.8z"/>
	<path fill="none" d="M70.1-31.1c0.3,0.1,0.6,0.3,0.9,0.5l0.4-0.7c-0.3-0.2-0.6-0.3-0.9-0.5L70.1-31.1z"/>
	<circle cx="54.1" cy="-22.1" r="4.1"/>
	<path d="M79.9-29.5c-1.7,1.4-2.8,3.6-2.8,6c0,0.7,0.1,1.4,0.3,2.1c1.6-1.8,2.6-4.2,2.6-6.8C80-28.6,80-29,79.9-29.5z"/>
	<path d="M69.8-38.3c-0.1,0-0.3,0-0.4,0c0.5,1.1,1.2,2.1,2.1,2.9l1.5-2.4C72-38.1,70.9-38.3,69.8-38.3z"/>
	<path d="M73.3-34.3l1.7-2.7c-0.3-0.2-0.6-0.3-0.9-0.5l-1.7,2.6C72.6-34.6,72.9-34.4,73.3-34.3z"/>
	<path d="M76.7-33.5c0.6,0,1.2-0.1,1.7-0.2c-0.7-1.1-1.6-2-2.6-2.7l-1.6,2.5C75-33.6,75.8-33.5,76.7-33.5z"/>
	<path d="M68.6-38.3c-4.9,0.6-8.7,4.6-8.9,9.6c1.5-2.4,4.2-4,7.3-4c0.9,0,1.8,0.1,2.6,0.4l1.6-2.5C70-35.7,69.1-36.9,68.6-38.3z"/>
	<path d="M70.5-31.8c0.3,0.1,0.6,0.3,0.9,0.5l1.4-2.2c-0.3-0.2-0.6-0.3-0.9-0.5L70.5-31.8z"/>
	<path d="M79.8-30.4c-0.2-0.9-0.5-1.8-0.9-2.5c-0.7,0.2-1.4,0.3-2.1,0.3c-1,0-2-0.2-2.9-0.5l-1.5,2.4c2,1.6,3.3,4,3.3,6.8
		c0,1.9-0.6,3.6-1.7,5.1c1-0.5,1.9-1.1,2.8-1.8c-0.3-0.9-0.5-1.8-0.5-2.7C76.3-26.3,77.6-28.8,79.8-30.4z"/>
	<path d="M69.8-18c0.9,0,1.7-0.1,2.6-0.3c1.5-1.4,2.4-3.4,2.4-5.6c0-2.5-1.1-4.7-2.9-6.1l-6.8,10.9C66.5-18.4,68.1-18,69.8-18z"/>
	<path d="M70.1-31.1l-6.7,10.8c0.3,0.2,0.5,0.4,0.8,0.6L71-30.6C70.7-30.8,70.4-31,70.1-31.1z"/>
	<path d="M66.9-31.8c-3.2,0-6,2-7.2,4.8c0.3,2.3,1.3,4.4,2.8,5.9l6.5-10.4C68.4-31.7,67.7-31.8,66.9-31.8z"/>
	<path fill="#010101" d="M177.9-26.6c0.1-0.5,0.1-1,0.1-1.5c0-4.2-3.5-7.6-7.8-7.6c-0.2,0-0.5,0-0.7,0c-1,0.8-2.2,1.5-3.6,2.1
		c-1.2,0.6-2.4,1.1-3.5,1.4c0-0.2,0-0.4-0.1-0.5c1.1-0.3,2.2-0.8,3.4-1.4c0.9-0.5,1.8-0.9,2.5-1.4c1-0.7,1.9-1.4,2.6-2.1
		c1.1-1.2,1.6-2.2,1.3-2.8c-0.2-0.5-0.9-0.7-2-0.7c-1.8,0-4.4,0.8-7,2c-2.1,1-3.7,2.2-4.8,3.2c-1.4-0.2-3,0.1-4.5,0.9
		c-3.2,1.7-4.8,5-3.5,7.4c1,1.8,3.3,2.6,5.8,2.1l0.1,0.1c-1.3,2.1-1.3,4.8-1.3,4.8h3.2h2.7c0-2.8,4-3.2,4.2-3.2l0,0.3l0,0.3
		c0,0-0.2,0-0.5,0.1c-0.9,0.2-3.1,0.8-3.2,2.4c0,0.1,0,0.1,0,0.2h2.2h6.9l0,0c2.2-0.1,4.1-1,5.5-2.5c0.4,0.5,1,0.8,1.7,0.8
		c1.2,0,2.3-1,2.3-2.3C180-25.5,179.1-26.5,177.9-26.6z M154.4-30.7c-0.5,0-0.9-0.4-0.9-0.9c0-0.5,0.4-0.9,0.9-0.9
		c0.5,0,0.9,0.4,0.9,0.9C155.3-31.1,154.9-30.7,154.4-30.7z"/>
	<path fill="#010101" d="M282,26.8l-9.4-9.4c1.2-1.8,1.9-4,1.9-6.2c0-3-1.2-5.8-3.3-7.9c-2.1-2.1-4.9-3.3-7.9-3.3
		c-3,0-5.8,1.2-7.9,3.3c-2.1,2.1-3.3,4.9-3.3,7.9s1.2,5.8,3.3,7.9s4.9,3.3,7.9,3.3c2.3,0,4.4-0.7,6.3-1.9l9.4,9.4
		c0.3,0.3,0.9,0.2,1.3-0.2l1.6-1.6C282.3,27.7,282.3,27.1,282,26.8z M263.4,19.3c-4.5,0-8.1-3.7-8.1-8.1s3.6-8.1,8.1-8.1
		s8.1,3.7,8.1,8.1S267.9,19.3,263.4,19.3z"/>
	<g id="Your_Icon">
		<path fill="#010101" d="M282.2,46.6h-24.3l-1.1-3.5h-4.7l0.6,1.7h2.8l5.5,17.2c-1.2,0.2-2.1,1.3-2.1,2.5c0,1.4,1.2,2.6,2.6,2.6
			c1.4,0,2.6-1.1,2.6-2.6c0-0.3-0.1-0.6-0.2-0.9h7.2c-0.1,0.3-0.2,0.6-0.2,0.9c0,1.4,1.2,2.6,2.6,2.6c1.4,0,2.6-1.1,2.6-2.6
			c0-1.4-1.1-2.5-2.4-2.6c0,0-0.2,0-0.2,0l-10.7,0l-1.1-3.4h13.5L282.2,46.6z"/>
	</g>
	<path fill="#010101" d="M176,59.9c-0.2-0.1-0.4-0.2-0.6-0.3l-0.1,0c0,0-1-0.5-1.1-4.4c-0.1-3.9,0.9-4.5,0.9-4.5l0.1-0.1
		c1-0.5,1.8-1.3,2.3-2.3c1.4-2.7,0.4-6-2.3-7.4c-2.7-1.4-6-0.4-7.4,2.3c-0.6,1.1-0.7,2.3-0.6,3.4l0,0c0,0,0.3,1.3-3.1,3.4
		c-3.3,2.1-4.9,1.1-4.9,1.1l-0.2-0.1c-2.7-1.4-6-0.4-7.4,2.3c-1.4,2.7-0.4,6,2.3,7.4c2,1.1,4.3,0.8,6-0.6l0,0c0,0,1.1-0.9,4.6,1
		c2.8,1.5,3.2,2.9,3.2,3.5c-0.1,2,1,4,2.9,5c2.7,1.4,6,0.4,7.4-2.3C179.7,64.6,178.7,61.3,176,59.9z M153.3,58.7
		C153.3,58.7,153.3,58.7,153.3,58.7C153.3,58.7,153.3,58.7,153.3,58.7L153.3,58.7z M159.2,52.3c-0.7-0.6-2.4-0.5-3.9,0.4
		c0.2,0.2,0.3,0.4,0.3,0.7c0,0.6-0.5,1.2-1.1,1.2c-0.1,0-0.2,0-0.3,0c0,0,0,0-0.1,0c-0.4-0.1-0.7,0.2-0.8,0.3c-0.8,1.5-0.8,3,0,3.7
		c-1.5-1.5-1.5-4,0.1-5.8C155,51.1,157.6,50.9,159.2,52.3L159.2,52.3z M169.4,42.6c1.6-1.8,4.2-2,5.8-0.6l0,0
		c-0.7-0.6-2.4-0.5-3.9,0.4c0.2,0.2,0.3,0.4,0.3,0.7c0,0.6-0.5,1.2-1.1,1.2c-0.1,0-0.2,0-0.3,0c0,0,0,0-0.1,0
		c-0.4-0.1-0.7,0.2-0.8,0.3c-0.8,1.5-0.8,3,0,3.7C167.8,46.9,167.8,44.3,169.4,42.6z M165.4,59.5c-2.9-1.5-3.3-2.8-3.4-3.2
		c0-0.5,0-0.9-0.1-1.4l0,0c0,0-0.2-1.3,3.1-3.3c3-1.8,4.3-1.5,4.5-1.4c0.2,0.1,0.3,0.2,0.5,0.3c0.3,0.2,0.7,0.3,1,0.4
		c0.4,0.4,1.2,1.5,1.2,4.4c0.1,2.9-0.8,4-1.2,4.4c-0.5,0.2-0.9,0.5-1.3,0.9C169.4,60.7,168.1,60.9,165.4,59.5z M170.3,67.4
		C170.3,67.4,170.3,67.4,170.3,67.4C170.3,67.4,170.3,67.4,170.3,67.4L170.3,67.4z M176.1,61c-0.7-0.6-2.4-0.5-3.9,0.4
		c0.2,0.2,0.3,0.4,0.3,0.7c0,0.6-0.5,1.2-1.1,1.2c-0.1,0-0.2,0-0.3,0c0,0,0,0-0.1,0c-0.4-0.1-0.7,0.2-0.8,0.3c-0.8,1.5-0.8,3,0,3.7
		c-1.5-1.5-1.5-4,0.1-5.8C172,59.9,174.6,59.6,176.1,61L176.1,61z"/>
	<path fill="#010101" d="M200,51.9C200,52,200,52,200,51.9L200,51.9C200,51.9,200,51.9,200,51.9z"/>
	<g>
		<ellipse fill="#010101" cx="209" cy="51.4" rx="1" ry="1"/>
		<path fill="#010101" d="M220.5,56.5c0.6-0.1,0.9-0.7,0.8-1.2c-0.1-0.6-0.7-0.9-1.3-0.8c-0.6,0.1-0.9,0.7-0.8,1.2
			C219.4,56.3,220,56.7,220.5,56.5z"/>
		<path fill="#010101" d="M227.1,64.1c-1.4,0-3-1.5-4.8-3.2c-0.2-0.2-0.4-0.4-0.6-0.5l-0.6-2.5c-0.1-0.6-0.7-1-1.3-0.8
			c-0.5,0.1-0.8,0.5-0.9,1c-1.7-1.3-3.7-2.2-6-2.2v-9.9l-6.7-3.7l-6.2,3.7v9.9v3.3v9.1h1.3v-1.7h4.2v1.7h1.3v-1.7h5v1.7h1.3v-9.1
			v-0.8c2.9,0,5.4,2.2,7.7,4.4c2.1,2,4.1,3.8,6.5,3.8h0.4v1.7h1.2v-1.7h1.2v-2.5H227.1z M205.4,65.7h-4.2v-1.7h4.2L205.4,65.7
			L205.4,65.7z M205.4,63.2h-4.2v-1.7h4.2L205.4,63.2L205.4,63.2z M205.4,60.8h-4.2v-1.7h4.2L205.4,60.8L205.4,60.8z M211.7,55.8
			h-1.3l-0.5-2.1c-0.1-0.6-0.7-1-1.3-0.8c-0.6,0.1-1,0.7-0.8,1.3l0.4,1.6h-6.8v-9.1h10.4L211.7,55.8L211.7,55.8z"/>
	</g>
	<g>
		<path fill="#585D5C" d="M124.6,59.5c-3,0-5.4,2.4-5.4,5.3c0,2.9,2.4,5.3,5.4,5.3c3,0,5.4-2.4,5.4-5.3
			C130,61.9,127.6,59.5,124.6,59.5z M124.6,67.4c-1.4,0-2.6-1.1-2.6-2.5c0-1.4,1.2-2.5,2.6-2.5c1.4,0,2.6,1.1,2.6,2.5
			C127.1,66.2,126,67.4,124.6,67.4z"/>
		<path fill="#585D5C" d="M114.3,55.6c1.2,0,2.3-0.1,3.4-0.4l1.9,4.3c0.9-0.9,2.1-1.5,3.4-1.7l-1.8-4c4.3-2.4,7.3-7,7.3-12.2
			c0-0.8,0-1.4,0-1.4H100c0,0,0,0.6,0,1.4c0,5.3,2.9,9.8,7.3,12.2L100,70.2h4.1l1.6-3.5h11.8c-0.2-0.6-0.2-1.2-0.2-1.9
			c0-0.7,0.1-1.3,0.3-1.9h-10.1l3.4-7.7C111.9,55.5,113.1,55.6,114.3,55.6z M102.9,43h4.2c0.4,4.3,2.5,7.9,5.5,9.7
			C107.6,52,103.6,48,102.9,43z"/>
	</g>
	<path fill="#585D5C" d="M77.5,56.6c0-0.1,0-0.1,0-0.2c0-2-1.5-3.6-3.4-3.7c-0.3-0.3-0.6-0.5-0.9-0.8v-1.1c0.2,0,0.3,0,0.4,0
		c0.1,0,0.3,0,0.4,0c0.5,0,0.9-0.1,1.3-0.4c0.4,0.2,0.8,0.4,1.3,0.4c1.5,0,2.6-1.2,2.6-2.6c0-1.1-0.7-2.1-1.8-2.5c0-0.1,0-0.1,0-0.2
		c0-1.4-1.1-2.5-2.4-2.6c-0.5-0.5-1.2-0.9-2-0.9c-0.9,0-1.8,0.5-2.2,1.2c-0.4-0.2-0.8-0.4-1.3-0.4c-1.5,0-2.6,1.2-2.6,2.6
		c0,0,0,0.1,0,0.1c-1.1,0.3-2,1.3-2,2.6c0,1.5,1.2,2.7,2.7,2.7c0.6,0,1.1-0.2,1.5-0.5c0,0,0,0,0,0c0.4,0.2,0.8,0.4,1.3,0.4
		c0.3,0,0.6-0.1,0.9-0.2v0.7c0,0-0.1,0-0.1,0c-1.3,0-2.5,0.7-3.2,1.7c-0.4-0.2-0.8-0.4-1.2-0.4c-0.2-1-1-1.8-1.9-2.1
		c0-0.1,0-0.1,0-0.2c0-1.5-1.2-2.8-2.7-2.9c-0.5-0.6-1.3-1-2.2-1c-1.1,0-2,0.6-2.5,1.4c-0.4-0.2-0.9-0.4-1.4-0.4c-1.6,0-3,1.3-3,3
		c0,0.1,0,0.1,0,0.2C52,50.9,51,52,51,53.4c0,1.6,1.3,3,3,3c0.6,0,1.2-0.2,1.7-0.5c0,0,0,0,0,0c0.4,0.3,0.9,0.4,1.5,0.4
		c0.3,0,0.7-0.1,1-0.2v3.3c-1.1-1.3-1.6-2.4-1.6-2.4h0c0,0-1.1,2.5-3.9,4.4c0,0,1.1,0.8,1.9,0.9c0,0-1.3,2.2-4.6,3.1
		c0,0,2.5,2.1,5.5,2v2.6H57h0.6v-2.6c3.1,0.1,5.5-2,5.5-2c-3.3-0.9-4.6-3.1-4.6-3.1c0.5-0.1,1.1-0.4,1.5-0.7
		c0.6,1.3,1.9,2.2,3.5,2.2c0.8,0,1.5-0.2,2.1-0.7c0,0,0,0,0,0c0.6,0.3,1.2,0.5,1.9,0.5c0.4,0,0.9-0.1,1.2-0.2v6.5h2.5v-6.2
		c0.2,0,0.4,0,0.6-0.1c0.2,0,0.4,0.1,0.6,0.1c0.7,0,1.3-0.2,1.9-0.5c0.6,0.3,1.2,0.5,1.9,0.5c2.1,0,3.7-1.7,3.7-3.7
		C80,58.4,78.9,57.1,77.5,56.6z M60.1,58.5v-2.2c0.2,0,0.3,0,0.5,0c0.2,0,0.3,0,0.5,0c0.5,0,1-0.2,1.5-0.4c0,0.1,0,0.3,0,0.5
		c0,0.1,0,0.1,0,0.2C61.5,56.8,60.6,57.5,60.1,58.5z"/>
	<path fill="#585D5C" d="M9.6,56.1c-1.4,0-2.3,1.1-2.6,2.6l-0.4,2.4L0,67.7h6l1,2.4l1.1-2.7c2.3-0.7,4-2.9,4-5.5v-2l1.9-0.9
		l-1.9-0.9C11.9,57,10.8,56.1,9.6,56.1z M10.1,59.3c-0.3,0-0.6-0.3-0.6-0.6s0.3-0.6,0.6-0.6s0.6,0.3,0.6,0.6S10.4,59.3,10.1,59.3z"
		/>
	<path fill="#585D5C" d="M20,64.9c-0.6-0.6-1.4-0.9-2.2-0.9l0,0l-3,0l0,3l0,0c0,0.8,0.3,1.6,0.9,2.2c0,0,0,0,0,0
		c1.2,1.2,3.1,1.2,4.3,0c0.6-0.6,0.9-1.4,0.9-2.1C20.9,66.3,20.6,65.5,20,64.9C20,64.9,20,64.9,20,64.9z"/>
	<path fill="#585D5C" d="M23.9,61.5c1.7,0,3-1.3,3-3c1.7,0,3-1.3,3-3c0-0.9-0.4-1.6-1-2.2c0.6-0.5,1-1.3,1-2.2c0-1.7-1.3-3-3-3
		c0-1.7-1.3-3-3-3c-0.9,0-1.6,0.4-2.2,1c-0.5-0.6-1.3-1-2.2-1c-1.7,0-3,1.3-3,3c-1.7,0-3,1.3-3,3c0,0.9,0.4,1.6,1,2.2
		c-0.6,0.5-1,1.3-1,2.2c0,1.7,1.3,3,3,3c0,1.7,1.3,3,3,3c0.5,0,1-0.1,1.4-0.3v5.9v3h1.6v-3c0,0.8,0.3,1.5,0.9,2.1
		c1.2,1.2,3.1,1.2,4.3,0c0,0,0,0,0,0c0.6-0.6,0.9-1.4,0.9-2.2l0,0l0-3l-3,0l0,0c-0.8,0-1.6,0.3-2.2,0.9c0,0,0,0,0,0
		c-0.6,0.6-0.9,1.4-0.9,2.1v-5.9C22.9,61.4,23.4,61.5,23.9,61.5z M21.7,58.5c-2.9,0-5.2-2.3-5.2-5.2c0-2.9,2.3-5.2,5.2-5.2
		c2.9,0,5.2,2.3,5.2,5.2C26.9,56.2,24.6,58.5,21.7,58.5z"/>
	<path fill="#585D5C" d="M3,100.8c0.6,0,1.2-0.2,1.7-0.5c0,0,0,0,0,0c0.4,0.3,0.9,0.4,1.5,0.4c0.3,0,0.7-0.1,1-0.2v5.1h2v-4.9
		c0.2,0,0.3,0,0.5,0c0.2,0,0.3,0,0.5,0c0.5,0,1-0.2,1.5-0.4c0.4,0.3,0.9,0.4,1.5,0.4c1.6,0,3-1.3,3-3c0-1.3-0.8-2.4-2-2.8
		c0-0.1,0-0.1,0-0.2c0-1.5-1.2-2.8-2.7-2.9c-0.5-0.6-1.3-1-2.2-1c-1.1,0-2,0.6-2.5,1.4c-0.4-0.2-0.9-0.4-1.4-0.4c-1.6,0-3,1.3-3,3
		c0,0.1,0,0.1,0,0.2C1,95.2,0,96.4,0,97.8C0,99.4,1.3,100.8,3,100.8z"/>
	<rect x="28.3" y="117.9" fill="none" width="3.3" height="3.3"/>
	<path fill="#585D5C" d="M15,99L15,99c7.7,4.9-14.3,4.6-15,12.1h19.7C7.2,108.2,24.7,101.1,15,99z"/>
	<g>
		<path fill="#585D5C" d="M25,93.1c0,0-0.2,0-0.2-0.4c0-0.4-0.4-0.8-0.8-0.8c-0.5,0-0.8,0.4-0.8,0.8c0,0.4-0.2,0.4-0.2,0.4
			c-0.1,0-0.2,0.1-0.2,0.2c0,0.1,0.1,0.2,0.2,0.2H25c0.1,0,0.2-0.1,0.2-0.2C25.2,93.2,25.2,93.1,25,93.1z"/>
		<circle fill="#585D5C" cx="24" cy="94.2" r="0.4"/>
		<circle fill="#585D5C" cx="24" cy="88.5" r="0.6"/>
		<path fill="#585D5C" d="M27.8,98.7l-1.3-3.8v-3.3c0.2,0,0.4-0.2,0.4-0.4s-0.2-0.4-0.4-0.4h-0.8c0-0.9-0.7-1.7-1.7-1.7
			c-0.9,0-1.7,0.7-1.7,1.7h-0.8c-0.2,0-0.4,0.2-0.4,0.4s0.2,0.4,0.4,0.4v3.3l-1.3,3.8h-2.1v1.3H19v2.5v3.3v2.8h10v-2.8v-3.3v-2.5
			h0.8v-1.3H27.8z M22.3,91.6h3.3v3.3h-3.3V91.6z M23.2,105.8L23.2,105.8l0,1.2h-2.5v-1.2v-3.3v0c0-0.7,0.6-1.3,1.3-1.3
			c0.7,0,1.3,0.6,1.3,1.3v0V105.8z M27.3,105.8L27.3,105.8l0,1.2h-2.5v-1.2v-3.3v0c0-0.7,0.6-1.3,1.3-1.3c0.7,0,1.3,0.6,1.3,1.3v0
			V105.8z"/>
	</g>
	<path fill="#585D5C" d="M17.3,86.4c0.8-0.2,1.9-0.9,1.9-0.9c-2.8-1.9-3.9-4.4-3.9-4.4h0c0,0-1.1,2.5-3.9,4.4c0,0,1.1,0.8,1.9,0.9
		c0,0-1.3,2.2-4.6,3.1c0,0,2.5,2.1,5.5,2v2.6h1.5h0.6v-2.6c3.1,0.1,5.5-2,5.5-2C18.7,88.6,17.3,86.4,17.3,86.4z"/>
	<g>
		<path fill="#585D5C" d="M17.5,126c0,0-0.3,0-0.3-0.6c0-0.6-0.5-1.2-1.2-1.2c-0.7,0-1.2,0.5-1.2,1.2c0,0.6-0.3,0.6-0.3,0.6
			c-0.2,0-0.3,0.1-0.3,0.3c0,0.2,0.1,0.3,0.3,0.3h3c0.2,0,0.3-0.1,0.3-0.3C17.8,126.1,17.7,126,17.5,126z"/>
		<circle fill="#585D5C" cx="16" cy="127.5" r="0.6"/>
		<circle fill="#585D5C" cx="16" cy="119.3" r="0.9"/>
		<path fill="#585D5C" d="M21.4,133.9l-1.8-5.4v-4.8c0.3,0,0.6-0.3,0.6-0.6s-0.3-0.6-0.6-0.6h-1.2c0-1.3-1.1-2.4-2.4-2.4
			c-1.3,0-2.4,1.1-2.4,2.4h-1.2c-0.3,0-0.6,0.3-0.6,0.6s0.3,0.6,0.6,0.6v4.8l-1.8,5.4h-3v1.8h1.2v3.6v4.7v4h14.3v-4v-4.7v-3.6h1.2
			v-1.8H21.4z M13.6,123.7h4.8v4.8h-4.8V123.7z M14.8,144.1L14.8,144.1l0,1.8h-3.6v-1.8v-4.7v-0.1c0-1,0.8-1.8,1.8-1.8
			c1,0,1.8,0.8,1.8,1.8v0.1V144.1z M20.8,144.1L20.8,144.1l0,1.8h-3.6v-1.8v-4.7v-0.1c0-1,0.8-1.8,1.8-1.8c1,0,1.8,0.8,1.8,1.8v0.1
			V144.1z"/>
	</g>
	<g>
		<path fill="#585D5C" d="M75.4,99L75.4,99c7.7,4.9-14.3,4.6-15,12.1h19.7C67.7,108.2,85.1,101.1,75.4,99z"/>
		<path fill="#585D5C" d="M61.6,105v-6.2c0.2,0,0.4,0,0.6-0.1c0.2,0,0.4,0.1,0.6,0.1c0.7,0,1.3-0.2,1.9-0.5c0.6,0.3,1.2,0.5,1.9,0.5
			c2.1,0,3.7-1.7,3.7-3.7c0-1.6-1.1-3-2.5-3.5c0-0.1,0-0.1,0-0.2c0-0.5-0.1-0.9-0.2-1.3c0.9,0.6,2.8,1.6,5,1.6v2.6H74h0.6v-2.6
			c3.1,0.1,5.5-2,5.5-2c-3.3-0.9-4.6-3.1-4.6-3.1c0.8-0.2,1.9-0.9,1.9-0.9c-2.8-1.9-3.9-4.4-3.9-4.4h0c0,0-1.1,2.5-3.9,4.4
			c0,0,1.1,0.8,1.9,0.9c0,0-1.2,2-4.3,3c-0.6-1-1.7-1.8-2.9-1.9c-0.7-0.8-1.7-1.3-2.8-1.3c-1.3,0-2.5,0.7-3.2,1.7
			c-0.5-0.3-1.2-0.5-1.8-0.5c-2.1,0-3.7,1.7-3.7,3.7c0,0.1,0,0.1,0,0.2c-1.6,0.4-2.8,1.9-2.8,3.7c0,2.1,1.7,3.8,3.8,3.8
			c0.8,0,1.5-0.2,2.1-0.7c0,0,0,0,0,0c0.6,0.3,1.2,0.5,1.9,0.5c0.4,0,0.9-0.1,1.2-0.2v6.5H61.6z"/>
	</g>
	<path fill="#585D5C" d="M76.5,134.6c0-0.1,0-0.1,0-0.2c0-2-1.5-3.6-3.4-3.7c-0.7-0.8-1.7-1.3-2.8-1.3c-1.3,0-2.5,0.7-3.2,1.7
		c-0.5-0.3-1-0.4-1.5-0.5c0.1-0.3,0.2-0.7,0.2-1.1c0-1.1-0.7-2.1-1.8-2.5c0-0.1,0-0.1,0-0.2c0-1.4-1.1-2.5-2.4-2.6
		c-0.5-0.5-1.2-0.9-2-0.9c-0.9,0-1.8,0.5-2.2,1.2c-0.4-0.2-0.8-0.4-1.3-0.4c-1.5,0-2.6,1.2-2.6,2.6c0,0,0,0.1,0,0.1
		c-1.1,0.3-2,1.3-2,2.6c0,1.5,1.2,2.7,2.7,2.7c0.6,0,1.1-0.2,1.5-0.5c0,0,0,0,0,0c0.4,0.2,0.8,0.4,1.3,0.4c0.3,0,0.6-0.1,0.9-0.2
		v1.7c-0.5,0.2-1,0.6-1.3,1.1c-0.4-0.2-0.9-0.4-1.4-0.4c-1.6,0-3,1.3-3,3c0,0.1,0,0.1,0,0.2c-1.3,0.3-2.2,1.5-2.2,2.9
		c0,1.6,1.3,3,3,3c0.6,0,1.2-0.2,1.7-0.5c0,0,0,0,0,0c0.4,0.3,0.9,0.4,1.5,0.4c0.3,0,0.7-0.1,1-0.2v5.1h2v-4.9c0.2,0,0.3,0,0.5,0
		c0.2,0,0.3,0,0.5,0c0.5,0,1-0.2,1.5-0.4c0.4,0.3,0.9,0.4,1.5,0.4c1.1,0,2.1-0.6,2.6-1.5c0.3,0.1,0.6,0.1,0.9,0.1
		c0.4,0,0.9-0.1,1.2-0.2v6.5h2.5v-6.2c0.2,0,0.4,0,0.6-0.1c0.2,0,0.4,0.1,0.6,0.1c0.7,0,1.3-0.2,1.9-0.5c0.6,0.3,1.2,0.5,1.9,0.5
		c2.1,0,3.7-1.7,3.7-3.7C79,136.5,77.9,135.1,76.5,134.6z M60.1,132.2c0.1,0,0.3,0,0.4,0c0.5,0,0.9-0.1,1.3-0.4
		c0.1,0.1,0.3,0.1,0.5,0.2c-0.5,0.6-0.8,1.4-0.8,2.3c0,0,0,0.1,0,0.1c-0.1,0-0.1,0-0.2,0c-0.4-0.5-1-0.8-1.6-0.9v-1.3
		C59.8,132.3,60,132.2,60.1,132.2z"/>
	<path fill="#010101" d="M100-31v0.3C100-30.8,100-30.9,100-31L100-31z"/>
	<path fill="#010101" d="M100-30L100-30c0-0.1,0-0.2,0-0.3V-30z"/>
	<path fill="#010101" d="M124.4-42.2c-3.5,2.6-5.7,6.6-5.9,11.2H130C129.8-35.5,127.7-39.5,124.4-42.2z"/>
	<path fill="#010101" d="M130-30h-11.5c0.2,4.6,2.5,8.6,5.9,11.1C127.7-21.5,129.8-25.5,130-30z"/>
	<path fill="#010101" d="M123.5-42.8c-2.3-1.6-5-2.6-8-2.7V-31h2C117.6-35.8,120-40,123.5-42.8z"/>
	<path fill="#010101" d="M117.5-30h-2v14.5c3-0.1,5.8-1.1,8.1-2.7C120-20.9,117.7-25.2,117.5-30z"/>
	<path fill="#010101" d="M105.5-18.9c3.4-2.5,5.6-6.5,5.8-11.1H100C100.2-25.5,102.3-21.5,105.5-18.9z"/>
	<path fill="#010101" d="M105.5-42.1c-3.2,2.7-5.4,6.6-5.5,11.1h11.3C111.1-35.5,108.9-39.5,105.5-42.1z"/>
	<path fill="#010101" d="M106.3-18.3c2.3,1.7,5.2,2.7,8.2,2.8V-30h-2.2C112.1-25.2,109.8-21,106.3-18.3z"/>
	<path fill="#010101" d="M114.5-45.5c-3,0.1-5.9,1.1-8.2,2.7c3.5,2.8,5.8,7,6,11.8h2.2V-45.5z"/>
</g>
</svg>
