<?xml version="1.0" encoding="utf-8"?>
<!-- Generated by IcoMoon.io -->
<!DOCTYPE svg PUBLIC "-//W3C//DTD SVG 1.1//EN" "http://www.w3.org/Graphics/SVG/1.1/DTD/svg11.dtd">
<svg version="1.1" xmlns="http://www.w3.org/2000/svg" xmlns:xlink="http://www.w3.org/1999/xlink" width="1024" height="1024" viewBox="0 0 1024 1024"><g id="icomoon-ignore">
</g>
<path d="M0-15.364v1026.004h1026.004v-1026.004h-1026.004zM694.264 685.739c0 0-205.201 222.3-270.182 249.662 0 0-246.241-201.78-321.482-324.903s-99.18-235.981 44.459-311.222c147.061-78.66 266.761 71.82 277.021 102.6 0 0 109.44-198.361 304.38-85.499 198.359 116.279-34.201 369.361-34.201 369.361zM957.602 189.837h-102.6v102.6h-68.4v-102.6h-102.6v-68.402h102.6v-102.6h68.402v102.6h102.6v68.402zM307.801 326.638v376.201l119.7-88.92-13.681 191.522-44.459-13.681 54.719 109.44 78.662-92.34h-37.621l47.882-311.222-136.801 68.402v-171.002l-68.4-68.402z" fill="rgb(68, 68, 68)"></path>
</svg>
