<?xml version="1.0" encoding="utf-8"?>
<!-- Generated by IcoMoon.io -->
<!DOCTYPE svg PUBLIC "-//W3C//DTD SVG 1.1//EN" "http://www.w3.org/Graphics/SVG/1.1/DTD/svg11.dtd">
<svg version="1.1" xmlns="http://www.w3.org/2000/svg" xmlns:xlink="http://www.w3.org/1999/xlink" width="1024" height="1024" viewBox="0 0 1024 1024"><g id="icomoon-ignore">
</g>
<path d="M1017.173 914.773l-471.040-839.68c-17.067-34.133-47.787-34.133-68.267 0l-471.040 839.68c-17.067 34.133-3.413 58.027 34.133 58.027h942.080c37.547 0 51.2-27.307 34.133-58.027zM580.267 802.133c0 20.48-17.067 34.133-34.133 34.133h-68.267c-17.067 0-34.133-13.653-34.133-34.133v-68.267c0-20.48 17.067-34.133 34.133-34.133h68.267c17.067 0 34.133 17.067 34.133 34.133v68.267zM580.267 597.333c0 20.48-13.653 34.133-34.133 34.133h-68.267c-17.067 0-34.133-13.653-34.133-34.133v-204.8c0-20.48 17.067-34.133 34.133-34.133h68.267c17.067 0 34.133 17.067 34.133 34.133v204.8z" fill="rgb(68, 68, 68)"></path>
</svg>
