<?xml version="1.0" encoding="utf-8"?>
<!-- Generator: Adobe Illustrator 18.0.0, SVG Export Plug-In . SVG Version: 6.00 Build 0)  -->
<!DOCTYPE svg PUBLIC "-//W3C//DTD SVG 1.0//EN" "http://www.w3.org/TR/2001/REC-SVG-20010904/DTD/svg10.dtd">
<svg version="1.0" xmlns="http://www.w3.org/2000/svg" xmlns:xlink="http://www.w3.org/1999/xlink" x="0px" y="0px"
	 viewBox="0 0 30 30" enable-background="new 0 0 30 30" xml:space="preserve">
<g id="Layer_1">
	<path fill-rule="evenodd" clip-rule="evenodd" d="M-135-285.8c-8.3,0-15,6.7-15,15c0,8.3,6.7,15,15,15s15-6.7,15-15
		C-120-279.1-126.7-285.8-135-285.8z M-136.9-259.6v-9.4h-9.4l18.7-9.4L-136.9-259.6z"/>
</g>
<g id="Layer_2">
	<path fill-rule="evenodd" clip-rule="evenodd" d="M72.2-235.9h-15c-2.1,0-3.7,1.7-3.7,3.8v22.5c0,2.1,1.7,3.7,3.7,3.7h15
		c2.1,0,3.7-1.7,3.7-3.7v-22.5C76-234.2,74.3-235.9,72.2-235.9z M74.5-209.6c0,1.2-1,2.2-2.2,2.2h-15c-1.2,0-2.2-1-2.2-2.2v-22.5
		c0-1.2,1-2.2,2.2-2.2h15c1.2,0,2.2,1,2.2,2.2V-209.6z"/>
	<path fill-rule="evenodd" clip-rule="evenodd" d="M-76.6-272.7c3.6,0,6.6,3,6.6,6.7c0,3.7-2.9,6.7-6.6,6.7c-3.6,0-6.6-3-6.6-6.7
		c0-2.3,1.2-4.4,2.9-5.6l-0.4-0.7l-1.1-2.1l-0.1-0.3h-6.8c-0.8,0-1.5,0.5-1.7,1.3l-0.4,1.2c2.3,1.1,3.9,3.4,3.9,6.1
		c0,3.7-2.9,6.7-6.6,6.7c-3.6,0-6.6-3-6.6-6.7c0-3.7,2.9-6.7,6.6-6.7c0.3,0,0.6,0.1,0.9,0.1l1-3.3c0.1-0.4,0.5-0.7,0.9-0.7h9.9
		l1.7-3.8h-3.2c-0.5,0-0.9-0.4-0.9-1c0-0.5,0.4-1,0.9-1h4.1h0.6c0.3,0,0.6,0.2,0.8,0.4c0.2,0.3,0.2,0.6,0.1,0.9l-0.3,0.6l-2.7,5.9
		l1.1,2.1C-77.9-272.6-77.2-272.7-76.6-272.7z M-91.3-270.3l-1,3c-0.1,0.2-0.2,0.4-0.5,0.6c-0.2,0.1-0.5,0.1-0.7,0.1
		c-0.5-0.2-0.8-0.7-0.6-1.2l0.9-2.9c-0.1,0-0.2,0-0.3,0c-2.6,0-4.7,2.1-4.7,4.8c0,2.6,2.1,4.8,4.7,4.8c2.6,0,4.7-2.1,4.7-4.8
		C-88.7-267.9-89.8-269.5-91.3-270.3z M-81.3-266c0,2.6,2.1,4.8,4.7,4.8c2.6,0,4.7-2.1,4.7-4.8c0-2.6-2.1-4.8-4.7-4.8
		c-0.3,0-0.7,0-1,0.1l2.3,4.3c0.1,0.2,0.1,0.5,0.1,0.7c-0.1,0.2-0.2,0.5-0.5,0.6l0,0c-0.5,0.2-1,0.1-1.2-0.4l-2.4-4.5
		C-80.5-269.1-81.3-267.6-81.3-266z M-90.6-278.5h-2.8c-0.5,0-0.9-0.4-0.9-1c0-0.5,0.4-1,0.9-1h5.6c0.2,0,0.3,0.1,0.3,0.2
		c0.1,0.1,0,0.3-0.1,0.4C-88.4-279-89.2-278.5-90.6-278.5z"/>
	<path fill-rule="evenodd" clip-rule="evenodd" d="M-20.9-271.8h-0.9v-5.6h0.9c0.5,0,0.9,0.4,0.9,0.9v3.7
		C-20-272.2-20.4-271.8-20.9-271.8z M-25.6-260.6v1.9c0,1-0.8,1.9-1.9,1.9h-1.9c-1,0-1.9-0.8-1.9-1.9v-1.9h-7.5v1.9
		c0,1-0.8,1.9-1.9,1.9h-1.9c-1,0-1.9-0.8-1.9-1.9v-1.9c-1,0-1.9-0.8-1.9-1.9v-16.8c0-3.1,2.5-5.6,5.6-5.6h11.2
		c3.1,0,5.6,2.5,5.6,5.6v16.8C-23.8-261.4-24.6-260.6-25.6-260.6z M-42.5-262.4c1,0,1.9-0.8,1.9-1.9c0-1-0.8-1.9-1.9-1.9
		c-1,0-1.9,0.8-1.9,1.9C-44.4-263.3-43.5-262.4-42.5-262.4z M-31.3-283h-7.5v1.9h7.5V-283z M-25.6-279.2h-18.7v11.2h18.7V-279.2z
		 M-27.5-266.2c-1,0-1.9,0.8-1.9,1.9c0,1,0.8,1.9,1.9,1.9c1,0,1.9-0.8,1.9-1.9C-25.6-265.3-26.5-266.2-27.5-266.2z M-50-272.7v-3.7
		c0-0.5,0.4-0.9,0.9-0.9h0.9v5.6h-0.9C-49.6-271.8-50-272.2-50-272.7z"/>
	<path fill-rule="evenodd" clip-rule="evenodd" d="M24.4-269c0,2-1.7,3.7-3.7,3.7H9.4c-2.1,0-3.7-1.6-3.7-3.7v-12.8h18.7v1.8
		c3.1,0,5.6,2.5,5.6,5.5C30-271.5,27.5-269,24.4-269z M9.4-280H7.5v11c0,1,0.8,1.8,1.9,1.8V-280z M24.4-278.2v7.3
		c2.1,0,3.7-1.6,3.7-3.7C28.1-276.5,26.4-278.2,24.4-278.2z M30-261.7c0,1-0.8,1.8-1.9,1.8H1.9c-1,0-1.9-0.8-1.9-1.8
		c0-1,0.8-1.8,1.9-1.8h26.2C29.2-263.5,30-262.7,30-261.7z"/>
	<g>
		<polygon fill-rule="evenodd" clip-rule="evenodd" points="78,-280.3 78,-258.3 52,-258.3 52,-256.3 80,-256.3 80,-257.3 
			80,-258.3 80,-280.3 		"/>
		<path fill-rule="evenodd" clip-rule="evenodd" d="M76-282.3h-3c0,1.7-1.3,3-3,3c-1.7,0-3-1.3-3-3h-7c0,1.7-1.3,3-3,3
			c-1.7,0-3-1.3-3-3h-4v22h26V-282.3z M74-262.3H52v-15h22V-262.3z"/>
		<path fill-rule="evenodd" clip-rule="evenodd" d="M57-281.3c0.6,0,1-0.4,1-1v-2c0-0.6-0.4-1-1-1s-1,0.4-1,1v2
			C56-281.8,56.4-281.3,57-281.3z"/>
		<path fill-rule="evenodd" clip-rule="evenodd" d="M70-281.3c0.6,0,1-0.4,1-1v-2c0-0.6-0.4-1-1-1s-1,0.4-1,1v2
			C69-281.8,69.4-281.3,70-281.3z"/>
		<rect x="56" y="-274.3" fill-rule="evenodd" clip-rule="evenodd" width="3" height="3"/>
		<rect x="62" y="-274.3" fill-rule="evenodd" clip-rule="evenodd" width="3" height="3"/>
		<rect x="67" y="-274.3" fill-rule="evenodd" clip-rule="evenodd" width="3" height="3"/>
		<rect x="56" y="-269.3" fill-rule="evenodd" clip-rule="evenodd" width="3" height="3"/>
		<rect x="62" y="-269.3" fill-rule="evenodd" clip-rule="evenodd" width="3" height="3"/>
		<rect x="67" y="-269.3" fill-rule="evenodd" clip-rule="evenodd" width="3" height="3"/>
	</g>
	<g>
		<path fill-rule="evenodd" clip-rule="evenodd" d="M107-281.8c0.6,0,1-0.4,1-1v-2c0-0.6-0.4-1-1-1s-1,0.4-1,1v2
			C106-282.3,106.4-281.8,107-281.8z"/>
		<path fill-rule="evenodd" clip-rule="evenodd" d="M120-281.8c0.6,0,1-0.4,1-1v-2c0-0.6-0.4-1-1-1s-1,0.4-1,1v2
			C119-282.3,119.4-281.8,120-281.8z"/>
		<rect x="106" y="-274.8" fill-rule="evenodd" clip-rule="evenodd" width="3" height="3"/>
		<rect x="112" y="-274.8" fill-rule="evenodd" clip-rule="evenodd" width="3" height="3"/>
		<rect x="117" y="-274.8" fill-rule="evenodd" clip-rule="evenodd" width="3" height="3"/>
		<rect x="106" y="-269.8" fill-rule="evenodd" clip-rule="evenodd" width="3" height="3"/>
		<rect x="112" y="-269.8" fill-rule="evenodd" clip-rule="evenodd" width="3" height="3"/>
		<rect x="102" y="-258.8" fill-rule="evenodd" clip-rule="evenodd" width="17" height="2"/>
		<rect x="128" y="-280.8" fill-rule="evenodd" clip-rule="evenodd" width="2" height="13"/>
		<path fill-rule="evenodd" clip-rule="evenodd" d="M102-277.8h22v10h2v-15h-3c0,1.7-1.3,3-3,3s-3-1.3-3-3h-7c0,1.7-1.3,3-3,3
			s-3-1.3-3-3h-4v22h19v-2h-17V-277.8z"/>
		<path fill-rule="evenodd" clip-rule="evenodd" d="M125-266.8c-2.8,0-5,2.2-5,5c0,2.8,2.2,5,5,5s5-2.2,5-5
			C130-264.6,127.8-266.8,125-266.8z M128-260.8h-2v2h-2v-2h-2v-2h2v-2h2v2h2V-260.8z"/>
		<rect x="117" y="-269.8" fill-rule="evenodd" clip-rule="evenodd" width="3" height="3"/>
	</g>
	<g>
		
			<rect x="-128.9" y="-213.6" transform="matrix(-0.5 -0.866 0.866 -0.5 -7.28 -430.4772)" fill-rule="evenodd" clip-rule="evenodd" width="2" height="1"/>
		
			<rect x="-130.9" y="-217.1" transform="matrix(-0.5 -0.866 0.866 -0.5 -7.2667 -437.398)" fill-rule="evenodd" clip-rule="evenodd" width="2" height="1"/>
		
			<rect x="-132.9" y="-220.6" transform="matrix(-0.5 -0.866 0.866 -0.5 -7.2803 -444.3338)" fill-rule="evenodd" clip-rule="evenodd" width="2" height="1"/>
		
			<rect x="-134.4" y="-224.5" transform="matrix(-0.866 0.5 -0.5 -0.866 -361.6284 -350.1611)" fill-rule="evenodd" clip-rule="evenodd" width="1" height="2"/>
		
			<rect x="-122.2" y="-218.1" transform="matrix(0.7072 -0.707 0.707 0.7072 117.8644 -149.5793)" fill-rule="evenodd" clip-rule="evenodd" width="1" height="2"/>
		
			<rect x="-125.5" y="-220.4" transform="matrix(-0.7071 -0.7071 0.7071 -0.7071 -56.9965 -463.4484)" fill-rule="evenodd" clip-rule="evenodd" width="2" height="1"/>
		
			<rect x="-128.3" y="-223.2" transform="matrix(-0.7072 -0.7071 0.7071 -0.7072 -59.8516 -470.284)" fill-rule="evenodd" clip-rule="evenodd" width="2" height="1"/>
		
			<rect x="-131.1" y="-226.1" transform="matrix(0.7072 0.707 -0.707 0.7072 -197.603 25.9621)" fill-rule="evenodd" clip-rule="evenodd" width="2" height="1"/>
		
			<rect x="-134.3" y="-211" transform="matrix(-0.2588 -0.9659 0.9659 -0.2588 35.5022 -393.8335)" fill-rule="evenodd" clip-rule="evenodd" width="2" height="1"/>
		
			<rect x="-134.9" y="-215.4" transform="matrix(0.9659 -0.2589 0.2589 0.9659 50.9295 -42.1053)" fill-rule="evenodd" clip-rule="evenodd" width="1" height="2"/>
		
			<rect x="-135.9" y="-219.3" transform="matrix(0.9659 -0.2589 0.2589 0.9659 51.8918 -42.5022)" fill-rule="evenodd" clip-rule="evenodd" width="1" height="2"/>
		
			<rect x="-137" y="-223.1" transform="matrix(0.9659 -0.2589 0.2589 0.9659 52.8596 -42.9049)" fill-rule="evenodd" clip-rule="evenodd" width="1" height="2"/>
		<rect x="-140.4" y="-210.3" fill-rule="evenodd" clip-rule="evenodd" width="1" height="2"/>
		<rect x="-140.4" y="-214.3" fill-rule="evenodd" clip-rule="evenodd" width="1" height="2"/>
		<rect x="-140.4" y="-218.3" fill-rule="evenodd" clip-rule="evenodd" width="1" height="2"/>
		<rect x="-140.4" y="-222.3" fill-rule="evenodd" clip-rule="evenodd" width="1" height="2"/>
		<path fill-rule="evenodd" clip-rule="evenodd" d="M-133-232.1l-3.1,1.8c-1.1-2.4-3.5-4-6.3-4c-3.9,0-7,3.1-7,7v20h4v-20
			c0-1.7,1.3-3,3-3c1.3,0,2.4,0.8,2.8,2l-3.8,2.2l1.5,2.6l10.4-6L-133-232.1z"/>
	</g>
	<path fill-rule="evenodd" clip-rule="evenodd" d="M-70.3-210.5l-9.3-9.6l9.4-9.8c0.1,0.2,0.1,0.5,0.1,0.7v17.6
		C-70-211.2-70.1-210.8-70.3-210.5z M-98.3-231.3l0.2,0h26.2l0.3,0.1L-85-217.4L-98.3-231.3z M-99.8-210.6c-0.1-0.3-0.2-0.6-0.2-0.9
		v-17.6c0-0.3,0.1-0.6,0.1-0.9l9.4,9.9L-99.8-210.6z M-85-214.5l4-4.1l9,9.3h-26.2l-0.1,0l9.2-9.3L-85-214.5z"/>
	<path d="M-50-235.8v30h30v-30H-50z M-29.7-215.3c0,0-6,6.5-7.9,7.3c0,0-7.2-5.9-9.4-9.5c-2.2-3.6-2.9-6.9,1.3-9.1
		c4.3-2.3,7.8,2.1,8.1,3c0,0,3.2-5.8,8.9-2.5C-22.9-222.7-29.7-215.3-29.7-215.3z M-22-229.8h-3v3h-2v-3h-3v-2h3v-3h2v3h3V-229.8z"
		/>
	<path d="M-41-225.8v11l3.5-2.6l-0.4,5.6l-1.3-0.4l1.6,3.2l2.3-2.7l-1.1,0l1.4-9.2l-4,2v-5L-41-225.8z"/>
	<path fill-rule="evenodd" clip-rule="evenodd" d="M12-231.8h1v23h-1V-231.8z"/>
	<path fill-rule="evenodd" clip-rule="evenodd" d="M28.6-218.9l-2.8-4.3l-1.1,2.2l3.9,6.4H25l-0.6,5.7h-2.8l-0.6-5.7h-3.6l3.9-6.4
		l-1.1-2.2l-2.8,4.3H16l2.3-5.9c0.3-0.8,1.1-1.3,1.9-1.3h1.4l1.4,2.9l1.4-2.9h1.4c0.8,0,1.6,0.5,1.9,1.3l2.3,5.9H28.6z M23-227.5
		c-1.2,0-2.1-1-2.1-2.2c0-1.2,0.9-2.2,2.1-2.2c1.2,0,2.1,1,2.1,2.2C25.1-228.5,24.2-227.5,23-227.5z"/>
	<path fill-rule="evenodd" clip-rule="evenodd" d="M6.1-217.5l-0.8,8.6H2.7l-0.8-8.6H0v-7.6c0.6-0.3,1.3-0.6,2.1-0.8l1.9,4.1
		l1.9-4.1c0.8,0.2,1.5,0.4,2.1,0.8v7.6H6.1z M4-227.5c-1.1,0-2-1-2-2.2c0-1.2,0.9-2.2,2-2.2s2,1,2,2.2C6-228.5,5.1-227.5,4-227.5z"
		/>
	<path fill-rule="evenodd" clip-rule="evenodd" d="M127.5-216l-10.6-5.9c0-0.6,0.4-1.2,0.9-1.5c1.7-1,2.8-2.8,2.8-4.8
		c0-3.1-2.5-5.6-5.6-5.6s-5.6,2.5-5.6,5.6c0,1,0.8,1.9,1.9,1.9c1,0,1.9-0.8,1.9-1.9c0-1,0.8-1.9,1.9-1.9s1.9,0.8,1.9,1.9
		c0,0.7-0.4,1.3-0.9,1.6c-1.7,1-2.8,2.8-2.8,4.7l-10.7,6c-1.4,0.9-2.4,2.8-2.4,4.4c0,2,1.7,3.7,3.7,3.7h22.5c2.1,0,3.7-1.7,3.7-3.7
		C130-213.2,129-215.1,127.5-216z M103.8-211.5c0-0.4,0.4-1.1,0.6-1.2l10.6-5.9l10.5,5.9c0.3,0.2,0.7,0.9,0.7,1.3H103.8z"/>
	<path fill-rule="evenodd" clip-rule="evenodd" d="M-50-162.6h30v1h-30V-162.6z"/>
	<path fill-rule="evenodd" clip-rule="evenodd" d="M-37-161.6h4c1.1,0,2-0.9,2-2h-8C-39-162.5-38.1-161.6-37-161.6z"/>
	<path fill-rule="evenodd" clip-rule="evenodd" d="M-27-161.6h4c1.1,0,2-0.9,2-2h-8C-29-162.5-28.1-161.6-27-161.6z"/>
	<path fill-rule="evenodd" clip-rule="evenodd" d="M-33-172.6h-4c-1.1,0-2,0.9-2,2v6h8v-6C-31-171.7-31.9-172.6-33-172.6z
		 M-33.5-170.8h-3.1c-0.3,0-0.5-0.2-0.5-0.5c0-0.3,0.2-0.5,0.5-0.5h3.1c0.3,0,0.5,0.2,0.5,0.5C-33-171-33.2-170.8-33.5-170.8z"/>
	<path fill-rule="evenodd" clip-rule="evenodd" d="M-23-172.6h-4c-1.1,0-2,0.9-2,2v6h8v-6C-21-171.7-21.9-172.6-23-172.6z
		 M-23.5-170.8h-3.1c-0.3,0-0.5-0.2-0.5-0.5c0-0.3,0.2-0.5,0.5-0.5h3.1c0.3,0,0.5,0.2,0.5,0.5C-23-171-23.2-170.8-23.5-170.8z"/>
	<path fill-rule="evenodd" clip-rule="evenodd" d="M-34-170.6h8v1h-8V-170.6z"/>
	<path fill-rule="evenodd" clip-rule="evenodd" d="M-50-162.6h1v3h-1V-162.6z"/>
	<path fill-rule="evenodd" clip-rule="evenodd" d="M-21-162.6h1v3h-1V-162.6z"/>
	<path fill-rule="evenodd" clip-rule="evenodd" d="M-47-161.6h4c1.1,0,2-0.9,2-2h-8C-49-162.5-48.1-161.6-47-161.6z"/>
	<path fill-rule="evenodd" clip-rule="evenodd" d="M-43-172.6h-4c-1.1,0-2,0.9-2,2v6h8v-6C-41-171.7-41.9-172.6-43-172.6z
		 M-43.5-170.8h-3.1c-0.3,0-0.5-0.2-0.5-0.5c0-0.3,0.2-0.5,0.5-0.5h3.1c0.3,0,0.5,0.2,0.5,0.5C-43-171-43.2-170.8-43.5-170.8z"/>
	<path fill-rule="evenodd" clip-rule="evenodd" d="M-44-170.6h8v1h-8V-170.6z"/>
	<path fill="none" d="M-38.5-177.7h-3.1c-0.3,0-0.5,0.2-0.5,0.5c0,0.3,0.2,0.5,0.5,0.5h3.1c0.3,0,0.5-0.2,0.5-0.5
		C-38-177.5-38.2-177.7-38.5-177.7z"/>
	<path fill="none" d="M-28-177.2c0-0.3-0.2-0.5-0.5-0.5h-3.1c-0.3,0-0.5,0.2-0.5,0.5c0,0.3,0.2,0.5,0.5,0.5h3.1
		C-28.2-176.8-28-177-28-177.2z"/>
	<path fill="none" d="M-38-177.2c0-0.3-0.2-0.5-0.5-0.5h-3.1c-0.3,0-0.5,0.2-0.5,0.5c0,0.3,0.2,0.5,0.5,0.5h3.1
		C-38.2-176.8-38-177-38-177.2z"/>
	<path d="M-27-173.1h1v-3.5c0-1.1-0.9-2-2-2h-4c-1.1,0-2,0.9-2,2v3.5h1c1.4,0,2.5,1.1,2.5,2.5v1h1v-1C-29.5-172-28.4-173.1-27-173.1
		z M-31.5-176.8c-0.3,0-0.5-0.2-0.5-0.5c0-0.3,0.2-0.5,0.5-0.5h3.1c0.3,0,0.5,0.2,0.5,0.5c0,0.3-0.2,0.5-0.5,0.5H-31.5z"/>
	<path d="M-37-173.1h1v-3.5c0-1.1-0.9-2-2-2h-4c-1.1,0-2,0.9-2,2v3.5h1c1.4,0,2.5,1.1,2.5,2.5v1h1v-1C-39.5-172-38.4-173.1-37-173.1
		z M-41.5-176.8c-0.3,0-0.5-0.2-0.5-0.5c0-0.3,0.2-0.5,0.5-0.5h3.1c0.3,0,0.5,0.2,0.5,0.5c0,0.3-0.2,0.5-0.5,0.5H-41.5z"/>
	<g>
		<path d="M-129.9-161.9c-0.5-0.3-1.2-0.2-1.5,0.4c-1.4,2.2-3.7,3.5-6.3,3.5c-4.1,0-7.4-3.4-7.4-7.5c0-2.4,1.2-4.7,3.1-6.1
			c0.5-0.4,0.6-1,0.2-1.5c-0.4-0.5-1-0.6-1.5-0.3c-2.5,1.8-4,4.8-4,7.9c0,5.3,4.3,9.7,9.6,9.7c3.3,0,6.4-1.7,8.1-4.6
			C-129.2-160.9-129.3-161.6-129.9-161.9z"/>
		<path d="M-122.3-161.3c-0.2-0.6-0.8-0.9-1.4-0.7l-1.3,0.5c0,0-2.4-6.8-2.5-6.9c0,0-0.1-0.1-0.1-0.2c-0.3-0.5-0.9-0.9-1.5-0.9h-5.7
			l-0.1-2.1h4.7c0.6,0,1.1-0.5,1.1-1.1c0-0.6-0.5-1.1-1.1-1.1h-4.9l-0.2-3.1c0,0,0-0.1,0-0.1c-0.1-1.5-1.4-2.7-2.9-2.6
			c-1.5,0.1-2.7,1.4-2.6,2.9v0l0,0l0.4,8.1l0,0c0,0,0,0,0,0c0.1,1.5,1.3,2.6,2.7,2.6c0,0,7.4,0,7.4,0l2.2,6.1
			c0.2,0.7,0.9,1.1,1.5,1.1c0.1,0,0.2,0,0.3,0c0.1,0,0.1,0,0.2-0.1l2.9-1.1C-122.4-160.1-122.1-160.7-122.3-161.3z"/>
		
			<ellipse transform="matrix(5.248704e-02 0.9986 -0.9986 5.248704e-02 -313.9062 -35.8302)" cx="-138.1" cy="-183.3" rx="2.5" ry="2.5"/>
	</g>
	<g>
		<path fill-rule="evenodd" clip-rule="evenodd" d="M-73-175.6c0-0.1,0-0.1,0-0.2c0-2-1.5-3.6-3.4-3.7c-0.7-0.8-1.7-1.3-2.8-1.3
			c-1.3,0-2.5,0.7-3.2,1.7c-0.5-0.3-1.2-0.5-1.8-0.5c-2.1,0-3.7,1.7-3.7,3.7c0,0.1,0,0.1,0,0.2c-1.5,0.5-2.5,1.9-2.5,3.5
			c0,0.1,0,0.2,0,0.2h-6h-1h-2v2h2v1h-2v1h2v1v1h1h7h1v-1v-1h2v-0.5c0.6,0,1.1-0.2,1.6-0.5c0.6,0.3,1.2,0.5,1.9,0.5
			c0.4,0,0.9-0.1,1.2-0.2v6.5H-83v1.2h5v-1.2h-1.2v-6.2c0.2,0,0.4,0,0.6-0.1c0.2,0,0.4,0.1,0.6,0.1c0.7,0,1.3-0.2,1.9-0.5
			c0.6,0.3,1.2,0.5,1.9,0.5c2.1,0,3.7-1.7,3.7-3.7C-70.5-173.7-71.6-175.1-73-175.6z M-96.5-169.8h6.8c0.1,0.1,0.1,0.2,0.2,0.3v0.7
			h-7V-169.8z M-89.5-166.8h-7v-1h7V-166.8z"/>
		<polygon fill-rule="evenodd" clip-rule="evenodd" points="-89.5,-164.8 -96.5,-164.8 -98.5,-164.8 -99.5,-164.8 -99.5,-163.8 
			-98.5,-163.8 -98.5,-160.8 -96.5,-160.8 -96.5,-163.8 -95.5,-163.8 -95.5,-161.8 -94.5,-161.8 -94.5,-163.8 -91.5,-163.8 
			-91.5,-161.8 -90.5,-161.8 -90.5,-163.8 -89.5,-163.8 -89.5,-160.8 -87.5,-160.8 -87.5,-163.8 -86.5,-163.8 -86.5,-164.8 
			-87.5,-164.8 		"/>
	</g>
	<g>
		<path fill-rule="evenodd" clip-rule="evenodd" d="M65.8-224.9c-0.1-0.2-0.2-0.4-0.4-0.5c-0.2-0.1-0.5-0.2-0.8-0.2h-1v4.4h0.9
			c0.4,0,0.7-0.1,0.9-0.2s0.4-0.3,0.5-0.4c0.1-0.2,0.2-0.4,0.2-0.7c0-0.3,0-0.6,0-0.9c0-0.3,0-0.6,0-0.9
			C66-224.5,65.9-224.7,65.8-224.9z"/>
		<path fill-rule="evenodd" clip-rule="evenodd" d="M71.4-232.9H58.1c-1.1,0-2,0.9-2,2v20c0,1.1,0.9,2,2,2h13.3c1.1,0,2-0.9,2-2v-20
			C73.4-232,72.5-232.9,71.4-232.9z M67.6-222c-0.1,0.4-0.2,0.8-0.4,1.1c-0.3,0.4-0.6,0.7-1,1s-1,0.4-1.7,0.4h-0.9v5h-1.8v-12.8h2.8
			c0.5,0,0.9,0.1,1.3,0.2c0.4,0.1,0.7,0.4,1,0.7c0.3,0.3,0.5,0.7,0.6,1.2c0.1,0.4,0.2,1.1,0.2,1.8C67.7-222.8,67.7-222.4,67.6-222z"
			/>
	</g>
	<path fill-rule="evenodd" clip-rule="evenodd" d="M29.8-109.1L16-133.6c-0.5-1-1.4-1-2,0L0.2-109.1c-0.5,1-0.1,1.7,1,1.7h27.6
		C29.9-107.3,30.3-108.1,29.8-109.1z M17-112.3c0,0.6-0.5,1-1,1h-2c-0.5,0-1-0.4-1-1v-2c0-0.6,0.5-1,1-1h2c0.5,0,1,0.5,1,1V-112.3z
		 M17-118.3c0,0.6-0.4,1-1,1h-2c-0.5,0-1-0.4-1-1v-6c0-0.6,0.5-1,1-1h2c0.5,0,1,0.5,1,1L17-118.3z"/>
	<g>
		<path d="M69.6-127.8c-1.4-0.4-3-0.7-4.6-0.7c-7.1,0-13,5.2-14.8,6.9c-0.3,0.3-0.3,0.8,0,1.1c1,1,3.5,3.2,6.9,4.9L69.6-127.8z"/>
		<path d="M79.8-121.6c-1.1-1-3.7-3.4-7.1-5l2.8-2.7H73l-17.4,17h2.4l2.2-2.1c1.5,0.5,3.2,0.8,4.9,0.8c7.1,0,13-5.2,14.8-6.9
			C80.1-120.8,80.1-121.3,79.8-121.6z M70.1-120c-0.4,1.9-2,3.5-4,3.9c-1.4,0.3-2.6,0-3.7-0.6l2.2-2.2c0.1,0,0.2,0,0.4,0
			c1.3,0,2.3-1,2.3-2.3c0-0.1,0-0.2,0-0.4l2.2-2.2C70.1-122.6,70.4-121.3,70.1-120z"/>
	</g>
	<g>
		<polygon points="115.9,-133.3 114,-133.3 114,-127.3 115.9,-127.3 		"/>
		<polygon points="124,-118 130,-119.2 129.5,-121.5 123.6,-120.3 		"/>
		<polygon points="126.3,-128.1 124.6,-129.7 120.4,-125.5 122,-123.8 		"/>
		<polygon points="106.4,-120.3 100.5,-121.5 100,-119.2 106,-118 		"/>
		<path d="M123-112.3l-2.3-10.9c-0.2-1.2-1.3-2.1-2.7-2.1l-5,0c-1.4,0-2.7,0.9-3,2.1l-2,10.9c0,0.1,0,0,0,1h-3l0.1,3H126v-3h-3
			C123-112.3,123-112.3,123-112.3z M115.1-112.3l-0.1-11h2c1.1,0,1.8,0.1,2,1l1,5c0,0.1,1,5,1,5H115.1z"/>
		<polygon points="109.6,-125.5 105.4,-129.7 103.7,-128.1 108,-123.8 		"/>
	</g>
	<path fill-rule="evenodd" clip-rule="evenodd" d="M16.8-155.8h-4v-11h-2v-9c0-2.1,0.9-3,3-3h2c2.1,0,3,0.9,3,3v9h-2V-155.8z
		 M14.8-180.2c-1.6,0-2.8-1.3-2.8-2.8c0-1.6,1.3-2.8,2.8-2.8s2.8,1.3,2.8,2.8C17.6-181.5,16.4-180.2,14.8-180.2z"/>
	<path fill-rule="evenodd" clip-rule="evenodd" d="M5.8-155.8h-4v-11h-2v-9c0-2.1,0.9-3,3-3h2c2.1,0,3,0.9,3,3v9h-2V-155.8z
		 M3.8-180.2c-1.6,0-2.8-1.3-2.8-2.8c0-1.6,1.3-2.8,2.8-2.8s2.8,1.3,2.8,2.8C6.6-181.5,5.4-180.2,3.8-180.2z"/>
	<path fill-rule="evenodd" clip-rule="evenodd" d="M27.8-155.8h-4v-11h-2v-9c0-2.1,0.9-3,3-3h2c2.1,0,3,0.9,3,3v9h-2V-155.8z
		 M25.8-180.2c-1.6,0-2.8-1.3-2.8-2.8c0-1.6,1.3-2.8,2.8-2.8s2.8,1.3,2.8,2.8C28.6-181.5,27.4-180.2,25.8-180.2z"/>
	<path fill-rule="evenodd" clip-rule="evenodd" d="M64.6-182.8c-5,0-9,4-9,9c0,6,9,15,9,15s9-9,9-15
		C73.6-178.8,69.6-182.8,64.6-182.8z M64.6-169.7c-2.6,0-4.7-2.1-4.7-4.7c0-2.6,2.1-4.7,4.7-4.7s4.7,2.1,4.7,4.7
		C69.3-171.9,67.2-169.7,64.6-169.7z"/>
	<path fill-rule="evenodd" clip-rule="evenodd" d="M119.1-175.8c1,0,1.8,0.8,1.8,1.9c0,1-0.8,1.9-1.8,1.9h-6.7
		c-0.1,0.4-0.1,0.8-0.1,1.1c0,0.4,0,0.8,0.1,1.1h6.7c1,0,1.8,0.8,1.8,1.9c0,1-0.8,1.9-1.8,1.9h-5.6c1.7,3.2,5,5.3,8.5,5.3h0.4
		c0.8,0,1.4,0.7,1.4,1.7c0,1-0.6,1.9-1.3,2l0,0H122c-5.5,0-10.5-3.6-12.4-9.1h-2c-1,0-1.8-0.8-1.8-1.9c0-1,0.8-1.9,1.8-1.9h1.2v0
		c-0.1-0.4-0.1-0.7-0.1-1.1c0-0.4,0-0.7,0.1-1.1v0h-1.2c-1,0-1.8-0.8-1.8-1.9c0-1,0.8-1.9,1.8-1.9h2c2-5.4,6.9-9.1,12.4-9.1h0.4
		c0.8,0.1,1.4,1,1.4,2c0,1-0.5,1.7-1.2,1.7l-0.6,0c-3.5,0-6.8,2.1-8.5,5.3H119.1z"/>
	<path fill-rule="evenodd" clip-rule="evenodd" d="M-126.6-134.2l-0.3,0.2c-1.1,0.5-2.8,6.3-2.8,6.7l0,0.4c0.2,0.8,0.9,1.7,2.5,3.5
		c-0.9,2.1-3.4,4.9-4.9,6.2c-1.6,1.4-4.3,3.2-6.3,3.9c-1.8-2.1-2.6-2.9-3.5-3c-0.5,0-6.4,1-6.9,2l-0.2,0.3c-0.4,0.7-1.1,1.7-0.8,2.8
		c0.1,0.3,0.2,0.5,0.3,0.8c0.5,0.8,1.7,2.6,3.4,3.4c1,0.5,10.4,0.8,18.3-6.3c7.8-7,8.2-15.6,7.9-16.9l0,0l0-0.1
		c-0.6-1.8-2.3-3.2-3-3.8C-124.3-135.3-125.8-134.6-126.6-134.2z"/>
	<path fill-rule="evenodd" clip-rule="evenodd" d="M-97.2-132.8v18h18v-18H-97.2z M-81.2-116.8h-14v-14h14V-116.8z"/>
	<path fill-rule="evenodd" clip-rule="evenodd" d="M-75.2-118.8v-10h-2l3-4l3,4h-2v10h2l-3,4l-3-4"/>
	<path fill-rule="evenodd" clip-rule="evenodd" d="M-83.2-108.8h-10v2l-4-3l4-3v2h10v-2l4,3l-4,3"/>
	<g opacity="0.4">
		<path fill-rule="evenodd" clip-rule="evenodd" d="M-41.5-115.9l4-4c-0.1-0.2-0.1-0.5-0.1-0.7c0-1,0.6-1.9,1.5-2.3v-9.9
			c0-0.5,0.5-1,1-1c-7.2,0-13,5.8-13,13c0,3.6,1.5,6.8,3.8,9.2l2.8-2.8C-41.9-114.9-41.9-115.5-41.5-115.9z"/>
	</g>
	<g>
		<g>
			<path fill-rule="evenodd" clip-rule="evenodd" d="M-35.2-135.8c-1,0-2,0.1-3,0.3c-1,0.2-1.9,0.5-2.8,0.9
				c-1.3,0.6-2.6,1.3-3.7,2.2s-2.1,2-2.9,3.2c-1.6,2.4-2.6,5.3-2.6,8.4c0,1.6,0.2,3.1,0.7,4.5c0.7,2.3,2,4.4,3.7,6.1
				c0.3,0.3,0.7,0.7,1.1,1c0.7,0.6,1.5,1.2,2.4,1.6c0.4,0.2,0.9,0.4,1.3,0.6c0.9,0.4,1.8,0.7,2.8,0.9c1,0.2,2,0.3,3,0.3
				c8.3,0,15-6.7,15-15C-20.2-129.1-26.9-135.8-35.2-135.8z M-35.2-118.1c-0.3,0-0.6-0.1-0.9-0.2l-3.9,3.9c-0.4,0.4-1.1,0.4-1.5,0
				c0,0,0,0,0,0l-2.8,2.8c-2.4-2.4-3.8-5.6-3.8-9.2c0-7.2,5.8-13,13-13c0.5,0,1,0.5,1,1v9.9c0.9,0.4,1.5,1.3,1.5,2.3
				C-32.7-119.2-33.8-118.1-35.2-118.1z"/>
		</g>
	</g>
	<path fill-rule="evenodd" clip-rule="evenodd" d="M-134-58.9h-2l-14-2v-19.9h2v18.2l12,1.7h2l12-1.7v-18.2h2v19.9L-134-58.9z
		 M-134-80.7c3.6-2.1,10-2.1,10-2.1v17.9c0,0-6.4,0-10,2.1V-80.7z M-146-82.8c0,0,6.4,0,10,2.1v17.9c-3.6-2.1-10-2.1-10-2.1V-82.8z"
		/>
	<path fill-rule="evenodd" clip-rule="evenodd" d="M-70.5-76.9l-0.2,0.1l0,0l-2.7,2.7l-8.4-8.4l2.7-2.7l0,0l0.1-0.2
		c0.7-0.7,2-0.7,2.7,0.1l5.6,5.6C-69.8-78.9-69.8-77.6-70.5-76.9z M-93-65.7l12.5-12.6l2.8,2.8l-12.5,12.6l1.4,1.4l12.5-12.6
		l1.4,1.4l-13.9,14l-8.4-8.4l13.9-14l1.4,1.4l-12.5,12.6L-93-65.7z M-90.2-57.2l-4.9,0.7l-4.9,0.7l0.7-4.9l0.7-4.9l4.2,4.2
		L-90.2-57.2z"/>
	<path fill-rule="evenodd" clip-rule="evenodd" d="M-24-56.8l-26,0v-28l30,0v24L-24-56.8z M-41-58.8h12v-7h-12V-58.8z M-26-82.8h-18
		v12h18V-82.8z M-39-63.8l4,0v3h-4V-63.8z"/>
	<path fill-rule="evenodd" clip-rule="evenodd" d="M0-73.8l3-2l8,14l16-23l3,2l-19,27L0-73.8"/>
	<path fill-rule="evenodd" clip-rule="evenodd" d="M73.6-78l-1.8-1.8l-7.2,7.2l-7.2-7.2L55.6-78l7.2,7.2l-7.2,7.2l1.8,1.8l7.2-7.2
		l7.2,7.2l1.8-1.8l-7.2-7.2L73.6-78z"/>
	<path fill-rule="evenodd" clip-rule="evenodd" d="M114.8-79.3c-4.7,0-8.5,3.8-8.5,8.5s3.8,8.5,8.5,8.5s8.5-3.8,8.5-8.5
		S119.5-79.3,114.8-79.3z M119.8-68.1l-2.2,2.2l-2.8-2.8l-2.8,2.8l-2.2-2.2l2.8-2.8l-2.8-2.8l2.2-2.2l2.8,2.8l2.8-2.8l2.2,2.2
		l-2.8,2.8L119.8-68.1z"/>
	<path fill-rule="evenodd" clip-rule="evenodd" d="M-127.7-28.5c-0.9,0-1.6-0.7-1.6-1.6c0-0.9,0.7-1.6,1.6-1.6
		c0.9,0,1.6,0.7,1.6,1.6C-126.2-29.2-126.9-28.5-127.7-28.5z M-129.9-33.8c-0.4,0-0.8-0.2-1.1-0.5c-0.6-0.6-0.6-1.6,0-2.2
		c0.3-0.3,0.7-0.5,1.1-0.5c0.4,0,0.8,0.2,1.1,0.5c0.6,0.6,0.6,1.6,0,2.2C-129.1-33.9-129.5-33.8-129.9-33.8z M-135.2-35
		c-1.4,0-2.5-1.1-2.5-2.5c0-1.4,1.1-2.5,2.5-2.5c1.4,0,2.5,1.1,2.5,2.5C-132.7-36.1-133.8-35-135.2-35z M-140.4-23.2
		c-0.4,0-0.8-0.2-1.1-0.5c-0.6-0.6-0.6-1.6,0-2.2c0.3-0.3,0.7-0.5,1.1-0.5c0.4,0,0.8,0.2,1.1,0.5c0.6,0.6,0.6,1.6,0,2.2
		C-139.6-23.4-140-23.2-140.4-23.2z M-140.4-33.8c-0.4,0-0.8-0.2-1.1-0.5c-0.6-0.6-0.6-1.6,0-2.2c0.3-0.3,0.7-0.5,1.1-0.5
		c0.4,0,0.8,0.2,1.1,0.5c0.6,0.6,0.6,1.6,0,2.2C-139.6-33.9-140-33.8-140.4-33.8z M-141.1-30c0,0.9-0.7,1.6-1.6,1.6
		c-0.9,0-1.6-0.7-1.6-1.6c0-0.9,0.7-1.6,1.6-1.6C-141.8-31.6-141.1-30.9-141.1-30z M-135.2-24.1c0.9,0,1.6,0.7,1.6,1.6
		c0,0.9-0.7,1.6-1.6,1.6c-0.9,0-1.6-0.7-1.6-1.6C-136.7-23.4-136-24.1-135.2-24.1z M-129.9-26.3c0.4,0,0.8,0.2,1.1,0.5
		c0.6,0.6,0.6,1.6,0,2.2c-0.3,0.3-0.7,0.5-1.1,0.5c-0.4,0-0.8-0.2-1.1-0.5c-0.6-0.6-0.6-1.6,0-2.2
		C-130.7-26.1-130.3-26.3-129.9-26.3z"/>
	<g>
		<circle fill-rule="evenodd" clip-rule="evenodd" cx="65" cy="-41.4" r="2.3"/>
		<rect x="50.2" y="-33" fill-rule="evenodd" clip-rule="evenodd" width="1.8" height="7.3"/>
		<path fill-rule="evenodd" clip-rule="evenodd" d="M74.7-30.1H71l-0.1-6.3c0-1.2-1-2.2-2.2-2.2h-7.6c-1.2,0-2.2,1-2.2,2.2l0,6.3
			h-3.7v-4.1h-2.5v9.6h2.5v-4.1h3.7h2.1h0.6c-0.2,3.6-0.6,12.2-0.6,12.2h2.9l0.6-11.2c0.1,0,0.5,0,0.6,0l0.9,11.2h2.9
			c0,0-0.6-8.6-0.8-12.2h0.6h2.1h3.8v4.1h2.5v-9.6h-2.5V-30.1z M61.2-30.1L61.2-30.1v-4.7c0-0.2,0.1-0.3,0.3-0.3
			c0.2,0,0.3,0.1,0.3,0.3v3.9c0,0,0,0.3,0,0.8H61.2z M68.8-30.1h-0.6c0-0.5,0-0.8,0-0.8v-3.9c0-0.2,0.1-0.3,0.3-0.3
			c0.2,0,0.3,0.1,0.3,0.3V-30.1z"/>
		<rect x="78" y="-33" fill-rule="evenodd" clip-rule="evenodd" width="1.8" height="7.3"/>
	</g>
	<g>
		<path fill="#010101" d="M117.9-23.2c1.5-0.1,2.9-0.2,2.9-0.2l-2.2-1.3l-2.7-1.5l-4.1-2.3l-2.7-1.5l-2.2-1.3c0,0,0.7,1.2,1.4,2.5
			c0.8,1.5,1.5,3.1,1.4,3.4c-0.2,0.7-3.2,5.3-3.9,6.3c-0.5,0.8,0.9,2.2,1.9,2.8c1,0.5,2.9,1,3.3,0.1c0.5-1.3,2.8-6.1,3.3-6.6
			C114.5-22.9,116.3-23.1,117.9-23.2z"/>
		<g>
			<path fill="#010101" d="M126.7-28.6c3.3-5.8,1.8-12.8-3.3-15.7c-5.1-2.8-11.8-0.4-15.1,5.4c-1.2,2.2-1.8,4.5-1.7,6.7l15.3,8.6
				C123.7-24.8,125.4-26.4,126.7-28.6z"/>
		</g>
	</g>
	<circle fill="#010101" cx="105.6" cy="-42.4" r="2.6"/>
	<g>
		<path d="M-122.5,8.6V5.1l-5.5-4.5l-1.3,1.1c-1-0.9-2.3-1.5-3.7-1.5c-2,0-3.7,1-4.7,2.6c-0.8-0.5-1.7-0.7-2.7-0.7
			c-3.1,0-5.6,2.5-5.6,5.6c0,0.1,0,0.2,0,0.3c-1.9,0.7-3.3,2.3-3.7,4.3c0,0,0,0.1,0,0.1c0,0.3-0.1,0.5-0.1,0.8c0,0,0,0,0,0
			c0,0,0,0,0,0c0,0,0,0,0,0c0,3.1,2.5,5.5,5.6,5.5c0.1,0,0.2,0,0.4,0l0,0c0.3,0,0.5-0.1,0.8-0.1V20c-1.3,0.2-2.3,1.4-2.3,2.8
			c0,1.6,1.3,2.8,2.8,2.8c1.6,0,2.8-1.3,2.8-2.8c0-1.4-1-2.5-2.3-2.8v-1.6c0.2-0.1,0.4-0.2,0.6-0.3c0.8,0.5,1.8,0.8,2.8,0.8
			c0.7,0,1.3-0.1,1.9-0.3v9.7h-1.9V30h7.5v-1.9h-1.9v-9.3c0.3,0,0.6,0,0.9-0.1c0.3,0.1,0.6,0.1,0.9,0.1c1,0,2-0.3,2.8-0.8
			c0.8,0.5,1.8,0.8,2.8,0.8c3.1,0,5.6-2.5,5.6-5.6C-120,11.3-121,9.6-122.5,8.6z M-140.8,22.8c0,1-0.8,1.8-1.8,1.8
			c-1,0-1.8-0.8-1.8-1.8s0.8-1.8,1.8-1.8C-141.6,20.9-140.8,21.8-140.8,22.8z M-123.5,13h-4.5V8.9h-3V13h-1.5V5.5l4.5-3.7l4.5,3.7
			V13z"/>
		<circle cx="-125.7" cy="6.3" r="1.3"/>
	</g>
	<g>
		<g>
			<polygon fill="#010101" points="-73,19 -96.6,22.3 -100,19.2 -99.1,18.3 -96.2,20.9 -73.7,17.8 -71,14.3 -70,15 			"/>
		</g>
		<g>
			<g>
				<circle fill="#010101" cx="-92.9" cy="24" r="1.5"/>
			</g>
			<g>
				<g>
					<circle fill="#010101" cx="-75.5" cy="21.6" r="1.5"/>
				</g>
			</g>
		</g>
	</g>
	<g>
		<polygon fill="#010101" points="-40.3,13.8 -38.2,19.9 -31.8,19.9 -29.7,13.8 -35,9.9 		"/>
		<path fill="#010101" d="M-35,0c-8.3,0-15,6.7-15,15s6.7,15,15,15s15-6.7,15-15S-26.7,0-35,0z M-23.4,19.9
			c-0.4,0.9-0.9,1.8-1.5,2.6l-0.1-1.3l-4.7,1.1l-2.5,4.2l1.3,0.6c-1.3,0.4-2.7,0.7-4.1,0.7c-1.4,0-2.7-0.2-4-0.7l1.3-0.6l-2.5-4.2
			l-4.7-1.1l-0.1,1.4c-0.6-0.8-1.1-1.7-1.5-2.6c-0.7-1.6-1-3.2-1-4.9c0,0,0-0.1,0-0.1l0.9,0.9l3.2-3.7L-44,7.3l-1.2,0.2
			c0.4-0.5,0.8-1,1.3-1.5c1.2-1.2,2.5-2.1,4-2.7c0.3-0.1,0.7-0.3,1-0.4l-0.6,1.1L-35,6l4.5-1.9L-31.2,3c0.4,0.1,0.7,0.2,1.1,0.4
			c1.5,0.6,2.9,1.5,4,2.7c0.5,0.5,0.9,1,1.3,1.5L-26,7.3l-0.4,4.8l3.2,3.7l0.9-0.9c0,0,0,0,0,0.1C-22.4,16.7-22.7,18.4-23.4,19.9z"
			/>
	</g>
	<g id="Layer_4">
		<polygon fill="#010101" points="13.2,28 15.8,28 15.8,22.8 14.5,21.3 13.2,22.8 		"/>
		<g>
			<path fill="#010101" d="M10.6,4.7c-0.4-0.2-0.6-0.6-0.7-1c-0.1-0.4,0-0.8,0.2-1.2c0.2-0.4,0.6-0.6,1-0.7c0.4-0.1,0.8,0,1.2,0.2
				c0.4,0.2,0.6,0.6,0.7,1c0.1,0.4,0,0.8-0.2,1.2c-0.2,0.4-0.6,0.6-1,0.7C11.3,5,10.9,5,10.6,4.7z"/>
			<path fill="#010101" d="M3.6,11l4-0.6L5.1,8C5.1,7.9,4.9,7.7,4.9,7.5C4.7,7,5,6.6,5.4,6.2l2.3-2C8,4.1,8.2,4,8.4,3.9
				c0.4-0.1,0.7,0,1,0.2C9.7,4.4,9.9,4.7,10,5.1C10.1,5.6,10,6,9.6,6.3L7.7,7.9l2,2c0.1,0.1,0.2,0.3,0.2,0.6c0,0.3,0,0.5-0.2,0.7
				c-0.2,0.3-0.4,0.4-0.7,0.5l-5.1,0.9L3.6,11z"/>
		</g>
		<path fill="#010101" d="M27.1,18c-0.4,0.2-0.8,0.2-1.2,0.1c-0.4-0.1-0.7-0.4-0.9-0.8c-0.2-0.4-0.2-0.8-0.1-1.2
			c0.1-0.4,0.4-0.7,0.8-0.9c0.4-0.2,0.8-0.2,1.2-0.1c0.4,0.1,0.7,0.4,0.9,0.8c0.2,0.4,0.2,0.8,0.1,1.2C27.7,17.5,27.5,17.8,27.1,18z
			"/>
		<path fill="#010101" d="M0.5,14.3l21.1,8c0.1-0.2,0.2-0.3,0.4-0.4c0.2-0.1,0.5-0.2,0.7-0.1l2.7,0.7l0-2.5c0-0.5,0.2-0.9,0.7-1.2
			c0.3-0.2,0.7-0.2,1.1-0.1c0.4,0.1,0.7,0.3,0.8,0.7c0.1,0.2,0.1,0.4,0.1,0.7l0,3.1c0,0.6-0.1,1-0.7,1.3c0,0-0.1,0-0.2,0l2.8,1
			l-0.5,1.4L24.6,25L24,23.9L23.8,24l-0.2,0.1l1.8,3.4l-0.7,0.4l-0.8,0.3l-2.3-4.4L0,15.7L0.5,14.3z"/>
	</g>
	<circle fill="none" cx="56.4" cy="6.9" r="0.7"/>
	<circle fill="none" cx="54.6" cy="8.7" r="0.7"/>
	<circle fill="none" cx="54" cy="6.3" r="0.7"/>
	<g>
		<path fill="#010101" d="M69.6,14.4c0.3,0,0.7,0.1,1,0.2l0.9,0.3L70.3,3.1L70.1,0h-3.1l-0.3,3.1h-3.9L62.5,0h-3.1l-0.3,3.1h-3.9
			L55,0h-3.1l-0.3,3.1h0l-1.7,18.8c0,0,4.8,1.6,11,1.6c1.6,0,3.1-0.1,4.5-0.3l1.4-6.6C67.1,15.3,68.2,14.4,69.6,14.4z M53.5,5.8
			c0.3-0.3,0.7-0.3,1,0c0.3,0.3,0.3,0.7,0,1c-0.3,0.3-0.7,0.3-1,0C53.2,6.5,53.2,6.1,53.5,5.8z M55.1,9.2c-0.3,0.3-0.7,0.3-1,0
			c-0.3-0.3-0.3-0.7,0-1c0.3-0.3,0.7-0.3,1,0C55.4,8.4,55.4,8.9,55.1,9.2z M56.9,7.4c-0.3,0.3-0.7,0.3-1,0c-0.3-0.3-0.3-0.7,0-1
			c0.3-0.3,0.7-0.3,1,0C57.2,6.7,57.2,7.1,56.9,7.4z"/>
		<circle fill="#010101" cx="73.5" cy="28.1" r="0.7"/>
		<path fill="#010101" d="M79.4,19.9l-3.3-1.2l3.4-10.5l-2.8-1l-3.4,10.5l-3.3-1.2c-0.1,0-0.2-0.1-0.3-0.1c-0.4,0-0.7,0.3-0.8,0.7
			l-1.9,9.3c-0.1,0.3,0,0.5,0.1,0.7c1-0.8,2.3-1.6,3.9-2.2c2-0.8,4.7-0.7,6.7,0.5l2.3-4.3C80.2,20.6,79.9,20.1,79.4,19.9z"/>
		<circle fill="#010101" cx="75.6" cy="26.8" r="0.7"/>
		<circle fill="#010101" cx="75.6" cy="29.3" r="0.7"/>
	</g>
	<path fill="none" d="M-77.6-34.8l-0.4,0.7c0.3,0.2,0.6,0.4,0.9,0.5l0.4-0.7C-77.1-34.4-77.4-34.6-77.6-34.8z"/>
	<path fill="none" d="M-79.9-31.1c0.3,0.1,0.6,0.3,0.9,0.5l0.4-0.7c-0.3-0.2-0.6-0.3-0.9-0.5L-79.9-31.1z"/>
	<circle cx="-95.9" cy="-22.1" r="4.1"/>
	<path d="M-70.1-29.5c-1.7,1.4-2.8,3.6-2.8,6c0,0.7,0.1,1.4,0.3,2.1c1.6-1.8,2.6-4.2,2.6-6.8C-70-28.6-70-29-70.1-29.5z"/>
	<path d="M-80.2-38.3c-0.1,0-0.3,0-0.4,0c0.5,1.1,1.2,2.1,2.1,2.9l1.5-2.4C-78-38.1-79.1-38.3-80.2-38.3z"/>
	<path d="M-76.7-34.3l1.7-2.7c-0.3-0.2-0.6-0.3-0.9-0.5l-1.7,2.6C-77.4-34.6-77.1-34.4-76.7-34.3z"/>
	<path d="M-73.3-33.5c0.6,0,1.2-0.1,1.7-0.2c-0.7-1.1-1.6-2-2.6-2.7l-1.6,2.5C-75-33.6-74.2-33.5-73.3-33.5z"/>
	<path d="M-81.4-38.3c-4.9,0.6-8.7,4.6-8.9,9.6c1.5-2.4,4.2-4,7.3-4c0.9,0,1.8,0.1,2.6,0.4l1.6-2.5C-80-35.7-80.9-36.9-81.4-38.3z"
		/>
	<path d="M-79.5-31.8c0.3,0.1,0.6,0.3,0.9,0.5l1.4-2.2c-0.3-0.2-0.6-0.3-0.9-0.5L-79.5-31.8z"/>
	<path d="M-70.2-30.4c-0.2-0.9-0.5-1.8-0.9-2.5c-0.7,0.2-1.4,0.3-2.1,0.3c-1,0-2-0.2-2.9-0.5l-1.5,2.4c2,1.6,3.3,4,3.3,6.8
		c0,1.9-0.6,3.6-1.7,5.1c1-0.5,1.9-1.1,2.8-1.8c-0.3-0.9-0.5-1.8-0.5-2.7C-73.7-26.3-72.4-28.8-70.2-30.4z"/>
	<path d="M-80.2-18c0.9,0,1.7-0.1,2.6-0.3c1.5-1.4,2.4-3.4,2.4-5.6c0-2.5-1.1-4.7-2.9-6.1l-6.8,10.9C-83.5-18.4-81.9-18-80.2-18z"/>
	<path d="M-79.9-31.1l-6.7,10.8c0.3,0.2,0.5,0.4,0.8,0.6l6.8-10.9C-79.3-30.8-79.6-31-79.9-31.1z"/>
	<path d="M-83.1-31.8c-3.2,0-6,2-7.2,4.8c0.3,2.3,1.3,4.4,2.8,5.9l6.5-10.4C-81.6-31.7-82.3-31.8-83.1-31.8z"/>
	<path fill="#010101" d="M27.9-26.6c0.1-0.5,0.1-1,0.1-1.5c0-4.2-3.5-7.6-7.8-7.6c-0.2,0-0.5,0-0.7,0c-1,0.8-2.2,1.5-3.6,2.1
		c-1.2,0.6-2.4,1.1-3.5,1.4c0-0.2,0-0.4-0.1-0.5c1.1-0.3,2.2-0.8,3.4-1.4c0.9-0.5,1.8-0.9,2.5-1.4c1-0.7,1.9-1.4,2.6-2.1
		c1.1-1.2,1.6-2.2,1.3-2.8c-0.2-0.5-0.9-0.7-2-0.7c-1.8,0-4.4,0.8-7,2c-2.1,1-3.7,2.2-4.8,3.2c-1.4-0.2-3,0.1-4.5,0.9
		c-3.2,1.7-4.8,5-3.5,7.4c1,1.8,3.3,2.6,5.8,2.1l0.1,0.1C5-23.1,5-20.4,5-20.4h3.2H11c0-2.8,4-3.2,4.2-3.2l0,0.3l0,0.3
		c0,0-0.2,0-0.5,0.1c-0.9,0.2-3.1,0.8-3.2,2.4c0,0.1,0,0.1,0,0.2h2.2h6.9l0,0c2.2-0.1,4.1-1,5.5-2.5c0.4,0.5,1,0.8,1.7,0.8
		c1.2,0,2.3-1,2.3-2.3C30-25.5,29.1-26.5,27.9-26.6z M4.4-30.7c-0.5,0-0.9-0.4-0.9-0.9c0-0.5,0.4-0.9,0.9-0.9c0.5,0,0.9,0.4,0.9,0.9
		C5.3-31.1,4.9-30.7,4.4-30.7z"/>
	<path fill="#010101" d="M132,26.8l-9.4-9.4c1.2-1.8,1.9-4,1.9-6.2c0-3-1.2-5.8-3.3-7.9c-2.1-2.1-4.9-3.3-7.9-3.3
		c-3,0-5.8,1.2-7.9,3.3c-2.1,2.1-3.3,4.9-3.3,7.9s1.2,5.8,3.3,7.9s4.9,3.3,7.9,3.3c2.3,0,4.4-0.7,6.3-1.9l9.4,9.4
		c0.3,0.3,0.9,0.2,1.3-0.2l1.6-1.6C132.3,27.7,132.3,27.1,132,26.8z M113.4,19.3c-4.5,0-8.1-3.7-8.1-8.1s3.6-8.1,8.1-8.1
		s8.1,3.7,8.1,8.1S117.9,19.3,113.4,19.3z"/>
	<g id="Your_Icon">
		<path fill="#010101" d="M132.2,46.6h-24.3l-1.1-3.5h-4.7l0.6,1.7h2.8l5.5,17.2c-1.2,0.2-2.1,1.3-2.1,2.5c0,1.4,1.2,2.6,2.6,2.6
			c1.4,0,2.6-1.1,2.6-2.6c0-0.3-0.1-0.6-0.2-0.9h7.2c-0.1,0.3-0.2,0.6-0.2,0.9c0,1.4,1.2,2.6,2.6,2.6c1.4,0,2.6-1.1,2.6-2.6
			c0-1.4-1.1-2.5-2.4-2.6c0,0-0.2,0-0.2,0l-10.7,0l-1.1-3.4h13.5L132.2,46.6z"/>
	</g>
	<path fill="#010101" d="M26,59.9c-0.2-0.1-0.4-0.2-0.6-0.3l-0.1,0c0,0-1-0.5-1.1-4.4c-0.1-3.9,0.9-4.5,0.9-4.5l0.1-0.1
		c1-0.5,1.8-1.3,2.3-2.3c1.4-2.7,0.4-6-2.3-7.4c-2.7-1.4-6-0.4-7.4,2.3c-0.6,1.1-0.7,2.3-0.6,3.4l0,0c0,0,0.3,1.3-3.1,3.4
		c-3.3,2.1-4.9,1.1-4.9,1.1L9.2,51c-2.7-1.4-6-0.4-7.4,2.3c-1.4,2.7-0.4,6,2.3,7.4c2,1.1,4.3,0.8,6-0.6l0,0c0,0,1.1-0.9,4.6,1
		c2.8,1.5,3.2,2.9,3.2,3.5c-0.1,2,1,4,2.9,5c2.7,1.4,6,0.4,7.4-2.3C29.7,64.6,28.7,61.3,26,59.9z M3.3,58.7
		C3.3,58.7,3.3,58.7,3.3,58.7C3.3,58.7,3.3,58.7,3.3,58.7L3.3,58.7z M9.2,52.3c-0.7-0.6-2.4-0.5-3.9,0.4c0.2,0.2,0.3,0.4,0.3,0.7
		c0,0.6-0.5,1.2-1.1,1.2c-0.1,0-0.2,0-0.3,0c0,0,0,0-0.1,0c-0.4-0.1-0.7,0.2-0.8,0.3c-0.8,1.5-0.8,3,0,3.7c-1.5-1.5-1.5-4,0.1-5.8
		C5,51.1,7.6,50.9,9.2,52.3L9.2,52.3z M19.4,42.6c1.6-1.8,4.2-2,5.8-0.6l0,0c-0.7-0.6-2.4-0.5-3.9,0.4c0.2,0.2,0.3,0.4,0.3,0.7
		c0,0.6-0.5,1.2-1.1,1.2c-0.1,0-0.2,0-0.3,0c0,0,0,0-0.1,0c-0.4-0.1-0.7,0.2-0.8,0.3c-0.8,1.5-0.8,3,0,3.7
		C17.8,46.9,17.8,44.3,19.4,42.6z M15.4,59.5c-2.9-1.5-3.3-2.8-3.4-3.2c0-0.5,0-0.9-0.1-1.4l0,0c0,0-0.2-1.3,3.1-3.3
		c3-1.8,4.3-1.5,4.5-1.4c0.2,0.1,0.3,0.2,0.5,0.3c0.3,0.2,0.7,0.3,1,0.4c0.4,0.4,1.2,1.5,1.2,4.4c0.1,2.9-0.8,4-1.2,4.4
		c-0.5,0.2-0.9,0.5-1.3,0.9C19.4,60.7,18.1,60.9,15.4,59.5z M20.3,67.4C20.3,67.4,20.3,67.4,20.3,67.4
		C20.3,67.4,20.3,67.4,20.3,67.4L20.3,67.4z M26.1,61c-0.7-0.6-2.4-0.5-3.9,0.4c0.2,0.2,0.3,0.4,0.3,0.7c0,0.6-0.5,1.2-1.1,1.2
		c-0.1,0-0.2,0-0.3,0c0,0,0,0-0.1,0c-0.4-0.1-0.7,0.2-0.8,0.3c-0.8,1.5-0.8,3,0,3.7c-1.5-1.5-1.5-4,0.1-5.8
		C22,59.9,24.6,59.6,26.1,61L26.1,61z"/>
	<path fill="#010101" d="M50,51.9C50,52,50,52,50,51.9L50,51.9C50,51.9,50,51.9,50,51.9z"/>
	<g>
		<ellipse fill="#010101" cx="59" cy="51.4" rx="1" ry="1"/>
		<path fill="#010101" d="M70.5,56.5c0.6-0.1,0.9-0.7,0.8-1.2c-0.1-0.6-0.7-0.9-1.3-0.8c-0.6,0.1-0.9,0.7-0.8,1.2
			C69.4,56.3,70,56.7,70.5,56.5z"/>
		<path fill="#010101" d="M77.1,64.1c-1.4,0-3-1.5-4.8-3.2c-0.2-0.2-0.4-0.4-0.6-0.5l-0.6-2.5c-0.1-0.6-0.7-1-1.3-0.8
			c-0.5,0.1-0.8,0.5-0.9,1c-1.7-1.3-3.7-2.2-6-2.2v-9.9l-6.7-3.7L50,45.9v9.9v3.3v9.1h1.3v-1.7h4.2v1.7h1.3v-1.7h5v1.7h1.3v-9.1
			v-0.8c2.9,0,5.4,2.2,7.7,4.4c2.1,2,4.1,3.8,6.5,3.8h0.4v1.7h1.2v-1.7H80v-2.5H77.1z M55.4,65.7h-4.2v-1.7h4.2L55.4,65.7L55.4,65.7
			z M55.4,63.2h-4.2v-1.7h4.2L55.4,63.2L55.4,63.2z M55.4,60.8h-4.2v-1.7h4.2L55.4,60.8L55.4,60.8z M61.7,55.8h-1.3l-0.5-2.1
			c-0.1-0.6-0.7-1-1.3-0.8c-0.6,0.1-1,0.7-0.8,1.3l0.4,1.6h-6.8v-9.1h10.4L61.7,55.8L61.7,55.8z"/>
	</g>
	<g>
		<path fill="#585D5C" d="M-25.4,59.5c-3,0-5.4,2.4-5.4,5.3c0,2.9,2.4,5.3,5.4,5.3c3,0,5.4-2.4,5.4-5.3
			C-20,61.9-22.4,59.5-25.4,59.5z M-25.4,67.4c-1.4,0-2.6-1.1-2.6-2.5c0-1.4,1.2-2.5,2.6-2.5c1.4,0,2.6,1.1,2.6,2.5
			C-22.9,66.2-24,67.4-25.4,67.4z"/>
		<path fill="#585D5C" d="M-35.7,55.6c1.2,0,2.3-0.1,3.4-0.4l1.9,4.3c0.9-0.9,2.1-1.5,3.4-1.7l-1.8-4c4.3-2.4,7.3-7,7.3-12.2
			c0-0.8,0-1.4,0-1.4H-50c0,0,0,0.6,0,1.4c0,5.3,2.9,9.8,7.3,12.2L-50,70.2h4.1l1.6-3.5h11.8c-0.2-0.6-0.2-1.2-0.2-1.9
			c0-0.7,0.1-1.3,0.3-1.9h-10.1l3.4-7.7C-38.1,55.5-36.9,55.6-35.7,55.6z M-47.1,43h4.2c0.4,4.3,2.5,7.9,5.5,9.7
			C-42.4,52-46.4,48-47.1,43z"/>
	</g>
	<path fill="#585D5C" d="M-72.5,56.6c0-0.1,0-0.1,0-0.2c0-2-1.5-3.6-3.4-3.7c-0.3-0.3-0.6-0.5-0.9-0.8v-1.1c0.2,0,0.3,0,0.4,0
		c0.1,0,0.3,0,0.4,0c0.5,0,0.9-0.1,1.3-0.4c0.4,0.2,0.8,0.4,1.3,0.4c1.5,0,2.6-1.2,2.6-2.6c0-1.1-0.7-2.1-1.8-2.5c0-0.1,0-0.1,0-0.2
		c0-1.4-1.1-2.5-2.4-2.6c-0.5-0.5-1.2-0.9-2-0.9c-0.9,0-1.8,0.5-2.2,1.2c-0.4-0.2-0.8-0.4-1.3-0.4c-1.5,0-2.6,1.2-2.6,2.6
		c0,0,0,0.1,0,0.1c-1.1,0.3-2,1.3-2,2.6c0,1.5,1.2,2.7,2.7,2.7c0.6,0,1.1-0.2,1.5-0.5c0,0,0,0,0,0c0.4,0.2,0.8,0.4,1.3,0.4
		c0.3,0,0.6-0.1,0.9-0.2v0.7c0,0-0.1,0-0.1,0c-1.3,0-2.5,0.7-3.2,1.7c-0.4-0.2-0.8-0.4-1.2-0.4c-0.2-1-1-1.8-1.9-2.1
		c0-0.1,0-0.1,0-0.2c0-1.5-1.2-2.8-2.7-2.9c-0.5-0.6-1.3-1-2.2-1c-1.1,0-2,0.6-2.5,1.4c-0.4-0.2-0.9-0.4-1.4-0.4c-1.6,0-3,1.3-3,3
		c0,0.1,0,0.1,0,0.2C-98,50.9-99,52-99,53.4c0,1.6,1.3,3,3,3c0.6,0,1.2-0.2,1.7-0.5c0,0,0,0,0,0c0.4,0.3,0.9,0.4,1.5,0.4
		c0.3,0,0.7-0.1,1-0.2v3.3c-1.1-1.3-1.6-2.4-1.6-2.4h0c0,0-1.1,2.5-3.9,4.4c0,0,1.1,0.8,1.9,0.9c0,0-1.3,2.2-4.6,3.1
		c0,0,2.5,2.1,5.5,2v2.6h1.5h0.6v-2.6c3.1,0.1,5.5-2,5.5-2c-3.3-0.9-4.6-3.1-4.6-3.1c0.5-0.1,1.1-0.4,1.5-0.7
		c0.6,1.3,1.9,2.2,3.5,2.2c0.8,0,1.5-0.2,2.1-0.7c0,0,0,0,0,0c0.6,0.3,1.2,0.5,1.9,0.5c0.4,0,0.9-0.1,1.2-0.2v6.5h2.5v-6.2
		c0.2,0,0.4,0,0.6-0.1c0.2,0,0.4,0.1,0.6,0.1c0.7,0,1.3-0.2,1.9-0.5c0.6,0.3,1.2,0.5,1.9,0.5c2.1,0,3.7-1.7,3.7-3.7
		C-70,58.4-71.1,57.1-72.5,56.6z M-89.9,58.5v-2.2c0.2,0,0.3,0,0.5,0c0.2,0,0.3,0,0.5,0c0.5,0,1-0.2,1.5-0.4c0,0.1,0,0.3,0,0.5
		c0,0.1,0,0.1,0,0.2C-88.5,56.8-89.4,57.5-89.9,58.5z"/>
	<path fill="#585D5C" d="M-140.4,56.1c-1.4,0-2.3,1.1-2.6,2.6l-0.4,2.4l-6.6,6.6h6l1,2.4l1.1-2.7c2.3-0.7,4-2.9,4-5.5v-2l1.9-0.9
		l-1.9-0.9C-138.1,57-139.2,56.1-140.4,56.1z M-139.9,59.3c-0.3,0-0.6-0.3-0.6-0.6s0.3-0.6,0.6-0.6s0.6,0.3,0.6,0.6
		S-139.6,59.3-139.9,59.3z"/>
	<path fill="#585D5C" d="M-130,64.9c-0.6-0.6-1.4-0.9-2.2-0.9l0,0l-3,0l0,3l0,0c0,0.8,0.3,1.6,0.9,2.2c0,0,0,0,0,0
		c1.2,1.2,3.1,1.2,4.3,0c0.6-0.6,0.9-1.4,0.9-2.1C-129.1,66.3-129.4,65.5-130,64.9C-130,64.9-130,64.9-130,64.9z"/>
	<path fill="#585D5C" d="M-126.1,61.5c1.7,0,3-1.3,3-3c1.7,0,3-1.3,3-3c0-0.9-0.4-1.6-1-2.2c0.6-0.5,1-1.3,1-2.2c0-1.7-1.3-3-3-3
		c0-1.7-1.3-3-3-3c-0.9,0-1.6,0.4-2.2,1c-0.5-0.6-1.3-1-2.2-1c-1.7,0-3,1.3-3,3c-1.7,0-3,1.3-3,3c0,0.9,0.4,1.6,1,2.2
		c-0.6,0.5-1,1.3-1,2.2c0,1.7,1.3,3,3,3c0,1.7,1.3,3,3,3c0.5,0,1-0.1,1.4-0.3v5.9v3h1.6v-3c0,0.8,0.3,1.5,0.9,2.1
		c1.2,1.2,3.1,1.2,4.3,0c0,0,0,0,0,0c0.6-0.6,0.9-1.4,0.9-2.2l0,0l0-3l-3,0l0,0c-0.8,0-1.6,0.3-2.2,0.9c0,0,0,0,0,0
		c-0.6,0.6-0.9,1.4-0.9,2.1v-5.9C-127.1,61.4-126.6,61.5-126.1,61.5z M-128.3,58.5c-2.9,0-5.2-2.3-5.2-5.2c0-2.9,2.3-5.2,5.2-5.2
		c2.9,0,5.2,2.3,5.2,5.2C-123.1,56.2-125.4,58.5-128.3,58.5z"/>
	<path fill="#585D5C" d="M-147,100.8c0.6,0,1.2-0.2,1.7-0.5c0,0,0,0,0,0c0.4,0.3,0.9,0.4,1.5,0.4c0.3,0,0.7-0.1,1-0.2v5.1h2v-4.9
		c0.2,0,0.3,0,0.5,0c0.2,0,0.3,0,0.5,0c0.5,0,1-0.2,1.5-0.4c0.4,0.3,0.9,0.4,1.5,0.4c1.6,0,3-1.3,3-3c0-1.3-0.8-2.4-2-2.8
		c0-0.1,0-0.1,0-0.2c0-1.5-1.2-2.8-2.7-2.9c-0.5-0.6-1.3-1-2.2-1c-1.1,0-2,0.6-2.5,1.4c-0.4-0.2-0.9-0.4-1.4-0.4c-1.6,0-3,1.3-3,3
		c0,0.1,0,0.1,0,0.2c-1.3,0.3-2.2,1.5-2.2,2.9C-150,99.4-148.7,100.8-147,100.8z"/>
	<rect x="-121.7" y="117.9" fill="none" width="3.3" height="3.3"/>
	<path fill="#585D5C" d="M-135,99L-135,99c7.7,4.9-14.3,4.6-15,12.1h19.7C-142.8,108.2-125.3,101.1-135,99z"/>
	<g>
		<path fill="#585D5C" d="M-125,93.1c0,0-0.2,0-0.2-0.4c0-0.4-0.4-0.8-0.8-0.8c-0.5,0-0.8,0.4-0.8,0.8c0,0.4-0.2,0.4-0.2,0.4
			c-0.1,0-0.2,0.1-0.2,0.2c0,0.1,0.1,0.2,0.2,0.2h2.1c0.1,0,0.2-0.1,0.2-0.2C-124.8,93.2-124.8,93.1-125,93.1z"/>
		<circle fill="#585D5C" cx="-126" cy="94.2" r="0.4"/>
		<circle fill="#585D5C" cx="-126" cy="88.5" r="0.6"/>
		<path fill="#585D5C" d="M-122.2,98.7l-1.3-3.8v-3.3c0.2,0,0.4-0.2,0.4-0.4s-0.2-0.4-0.4-0.4h-0.8c0-0.9-0.7-1.7-1.7-1.7
			c-0.9,0-1.7,0.7-1.7,1.7h-0.8c-0.2,0-0.4,0.2-0.4,0.4s0.2,0.4,0.4,0.4v3.3l-1.3,3.8h-2.1v1.3h0.8v2.5v3.3v2.8h10v-2.8v-3.3v-2.5
			h0.8v-1.3H-122.2z M-127.7,91.6h3.3v3.3h-3.3V91.6z M-126.8,105.8L-126.8,105.8l0,1.2h-2.5v-1.2v-3.3v0c0-0.7,0.6-1.3,1.3-1.3
			c0.7,0,1.3,0.6,1.3,1.3v0V105.8z M-122.7,105.8L-122.7,105.8l0,1.2h-2.5v-1.2v-3.3v0c0-0.7,0.6-1.3,1.3-1.3c0.7,0,1.3,0.6,1.3,1.3
			v0V105.8z"/>
	</g>
	<path fill="#585D5C" d="M-132.7,86.4c0.8-0.2,1.9-0.9,1.9-0.9c-2.8-1.9-3.9-4.4-3.9-4.4h0c0,0-1.1,2.5-3.9,4.4c0,0,1.1,0.8,1.9,0.9
		c0,0-1.3,2.2-4.6,3.1c0,0,2.5,2.1,5.5,2v2.6h1.5h0.6v-2.6c3.1,0.1,5.5-2,5.5-2C-131.3,88.6-132.7,86.4-132.7,86.4z"/>
	<g>
		<path fill="#585D5C" d="M-132.5,126c0,0-0.3,0-0.3-0.6c0-0.6-0.5-1.2-1.2-1.2c-0.7,0-1.2,0.5-1.2,1.2c0,0.6-0.3,0.6-0.3,0.6
			c-0.2,0-0.3,0.1-0.3,0.3c0,0.2,0.1,0.3,0.3,0.3h3c0.2,0,0.3-0.1,0.3-0.3C-132.2,126.1-132.3,126-132.5,126z"/>
		<circle fill="#585D5C" cx="-134" cy="127.5" r="0.6"/>
		<circle fill="#585D5C" cx="-134" cy="119.3" r="0.9"/>
		<path fill="#585D5C" d="M-128.6,133.9l-1.8-5.4v-4.8c0.3,0,0.6-0.3,0.6-0.6s-0.3-0.6-0.6-0.6h-1.2c0-1.3-1.1-2.4-2.4-2.4
			c-1.3,0-2.4,1.1-2.4,2.4h-1.2c-0.3,0-0.6,0.3-0.6,0.6s0.3,0.6,0.6,0.6v4.8l-1.8,5.4h-3v1.8h1.2v3.6v4.7v4h14.3v-4v-4.7v-3.6h1.2
			v-1.8H-128.6z M-136.4,123.7h4.8v4.8h-4.8V123.7z M-135.2,144.1L-135.2,144.1l0,1.8h-3.6v-1.8v-4.7v-0.1c0-1,0.8-1.8,1.8-1.8
			c1,0,1.8,0.8,1.8,1.8v0.1V144.1z M-129.2,144.1L-129.2,144.1l0,1.8h-3.6v-1.8v-4.7v-0.1c0-1,0.8-1.8,1.8-1.8c1,0,1.8,0.8,1.8,1.8
			v0.1V144.1z"/>
	</g>
	<g>
		<path fill="#585D5C" d="M-74.6,99L-74.6,99c7.7,4.9-14.3,4.6-15,12.1h19.7C-82.3,108.2-64.9,101.1-74.6,99z"/>
		<path fill="#585D5C" d="M-88.4,105v-6.2c0.2,0,0.4,0,0.6-0.1c0.2,0,0.4,0.1,0.6,0.1c0.7,0,1.3-0.2,1.9-0.5
			c0.6,0.3,1.2,0.5,1.9,0.5c2.1,0,3.7-1.7,3.7-3.7c0-1.6-1.1-3-2.5-3.5c0-0.1,0-0.1,0-0.2c0-0.5-0.1-0.9-0.2-1.3
			c0.9,0.6,2.8,1.6,5,1.6v2.6h1.5h0.6v-2.6c3.1,0.1,5.5-2,5.5-2c-3.3-0.9-4.6-3.1-4.6-3.1c0.8-0.2,1.9-0.9,1.9-0.9
			c-2.8-1.9-3.9-4.4-3.9-4.4h0c0,0-1.1,2.5-3.9,4.4c0,0,1.1,0.8,1.9,0.9c0,0-1.2,2-4.3,3c-0.6-1-1.7-1.8-2.9-1.9
			c-0.7-0.8-1.7-1.3-2.8-1.3c-1.3,0-2.5,0.7-3.2,1.7c-0.5-0.3-1.2-0.5-1.8-0.5c-2.1,0-3.7,1.7-3.7,3.7c0,0.1,0,0.1,0,0.2
			c-1.6,0.4-2.8,1.9-2.8,3.7c0,2.1,1.7,3.8,3.8,3.8c0.8,0,1.5-0.2,2.1-0.7c0,0,0,0,0,0c0.6,0.3,1.2,0.5,1.9,0.5
			c0.4,0,0.9-0.1,1.2-0.2v6.5H-88.4z"/>
	</g>
	<path fill="#585D5C" d="M-73.5,134.6c0-0.1,0-0.1,0-0.2c0-2-1.5-3.6-3.4-3.7c-0.7-0.8-1.7-1.3-2.8-1.3c-1.3,0-2.5,0.7-3.2,1.7
		c-0.5-0.3-1-0.4-1.5-0.5c0.1-0.3,0.2-0.7,0.2-1.1c0-1.1-0.7-2.1-1.8-2.5c0-0.1,0-0.1,0-0.2c0-1.4-1.1-2.5-2.4-2.6
		c-0.5-0.5-1.2-0.9-2-0.9c-0.9,0-1.8,0.5-2.2,1.2c-0.4-0.2-0.8-0.4-1.3-0.4c-1.5,0-2.6,1.2-2.6,2.6c0,0,0,0.1,0,0.1
		c-1.1,0.3-2,1.3-2,2.6c0,1.5,1.2,2.7,2.7,2.7c0.6,0,1.1-0.2,1.5-0.5c0,0,0,0,0,0c0.4,0.2,0.8,0.4,1.3,0.4c0.3,0,0.6-0.1,0.9-0.2
		v1.7c-0.5,0.2-1,0.6-1.3,1.1c-0.4-0.2-0.9-0.4-1.4-0.4c-1.6,0-3,1.3-3,3c0,0.1,0,0.1,0,0.2c-1.3,0.3-2.2,1.5-2.2,2.9
		c0,1.6,1.3,3,3,3c0.6,0,1.2-0.2,1.7-0.5c0,0,0,0,0,0c0.4,0.3,0.9,0.4,1.5,0.4c0.3,0,0.7-0.1,1-0.2v5.1h2v-4.9c0.2,0,0.3,0,0.5,0
		c0.2,0,0.3,0,0.5,0c0.5,0,1-0.2,1.5-0.4c0.4,0.3,0.9,0.4,1.5,0.4c1.1,0,2.1-0.6,2.6-1.5c0.3,0.1,0.6,0.1,0.9,0.1
		c0.4,0,0.9-0.1,1.2-0.2v6.5h2.5v-6.2c0.2,0,0.4,0,0.6-0.1c0.2,0,0.4,0.1,0.6,0.1c0.7,0,1.3-0.2,1.9-0.5c0.6,0.3,1.2,0.5,1.9,0.5
		c2.1,0,3.7-1.7,3.7-3.7C-71,136.5-72.1,135.1-73.5,134.6z M-89.9,132.2c0.1,0,0.3,0,0.4,0c0.5,0,0.9-0.1,1.3-0.4
		c0.1,0.1,0.3,0.1,0.5,0.2c-0.5,0.6-0.8,1.4-0.8,2.3c0,0,0,0.1,0,0.1c-0.1,0-0.1,0-0.2,0c-0.4-0.5-1-0.8-1.6-0.9v-1.3
		C-90.2,132.3-90,132.2-89.9,132.2z"/>
	<path fill="#010101" d="M-50-31v0.3C-50-30.8-50-30.9-50-31L-50-31z"/>
	<path fill="#010101" d="M-50-30L-50-30c0-0.1,0-0.2,0-0.3V-30z"/>
	<path fill="#010101" d="M-25.6-42.2c-3.5,2.6-5.7,6.6-5.9,11.2H-20C-20.2-35.5-22.3-39.5-25.6-42.2z"/>
	<path fill="#010101" d="M-20-30h-11.5c0.2,4.6,2.5,8.6,5.9,11.1C-22.3-21.5-20.2-25.5-20-30z"/>
	<path fill="#010101" d="M-26.5-42.8c-2.3-1.6-5-2.6-8-2.7V-31h2C-32.4-35.8-30-40-26.5-42.8z"/>
	<path fill="#010101" d="M-32.5-30h-2v14.5c3-0.1,5.8-1.1,8.1-2.7C-30-20.9-32.3-25.2-32.5-30z"/>
	<path fill="#010101" d="M-44.5-18.9c3.4-2.5,5.6-6.5,5.8-11.1H-50C-49.8-25.5-47.7-21.5-44.5-18.9z"/>
	<path fill="#010101" d="M-44.5-42.1c-3.2,2.7-5.4,6.6-5.5,11.1h11.3C-38.9-35.5-41.1-39.5-44.5-42.1z"/>
	<path fill="#010101" d="M-43.7-18.3c2.3,1.7,5.2,2.7,8.2,2.8V-30h-2.2C-37.9-25.2-40.2-21-43.7-18.3z"/>
	<path fill="#010101" d="M-35.5-45.5c-3,0.1-5.9,1.1-8.2,2.7c3.5,2.8,5.8,7,6,11.8h2.2V-45.5z"/>
</g>
</svg>
