<?xml version="1.0" encoding="utf-8"?>
<!-- Generated by IcoMoon.io -->
<!DOCTYPE svg PUBLIC "-//W3C//DTD SVG 1.1//EN" "http://www.w3.org/Graphics/SVG/1.1/DTD/svg11.dtd">
<svg version="1.1" xmlns="http://www.w3.org/2000/svg" xmlns:xlink="http://www.w3.org/1999/xlink" width="1024" height="1024" viewBox="0 0 1024 1024"><g id="icomoon-ignore">
</g>
<path d="M834.482 559.198c0 68.402-58.142 126.541-126.541 126.541h-386.461c-71.82 0-126.541-54.719-126.541-126.541v-437.763h639.543v61.56c106.019 0 191.522 85.499 191.522 188.099 0 106.019-85.499 188.101-191.52 188.101zM321.482 182.997h-64.981v376.203c0 34.201 27.361 61.56 64.981 61.56v-437.763zM834.482 247.978v249.662c71.82 0 126.541-54.721 126.541-126.541 0-68.402-58.142-123.12-126.541-123.12zM1026.004 812.28c0 34.201-27.361 61.56-64.979 61.56h-896.044c-34.201 0-64.979-27.361-64.979-61.56s27.359-61.56 64.979-61.56h896.044c37.621-3.421 64.979 27.361 64.979 61.56z" fill="rgb(68, 68, 68)"></path>
</svg>
