<?xml version="1.0" encoding="utf-8"?>
<!-- Generator: Adobe Illustrator 18.0.0, SVG Export Plug-In . SVG Version: 6.00 Build 0)  -->
<!DOCTYPE svg PUBLIC "-//W3C//DTD SVG 1.0//EN" "http://www.w3.org/TR/2001/REC-SVG-20010904/DTD/svg10.dtd">
<svg version="1.0" xmlns="http://www.w3.org/2000/svg" xmlns:xlink="http://www.w3.org/1999/xlink" x="0px" y="0px"
	 viewBox="0 0 30 30" enable-background="new 0 0 30 30" xml:space="preserve">
<g id="Layer_1">
	<path fill-rule="evenodd" clip-rule="evenodd" d="M-85-240.3c-8.3,0-15,6.7-15,15c0,8.3,6.7,15,15,15s15-6.7,15-15
		C-70-233.6-76.7-240.3-85-240.3z M-86.9-214.1v-9.4h-9.4l18.7-9.4L-86.9-214.1z"/>
</g>
<g id="Layer_2">
	<path fill-rule="evenodd" clip-rule="evenodd" d="M122.2-190.4h-15c-2.1,0-3.7,1.7-3.7,3.8v22.5c0,2.1,1.7,3.7,3.7,3.7h15
		c2.1,0,3.7-1.7,3.7-3.7v-22.5C126-188.7,124.3-190.4,122.2-190.4z M124.5-164.1c0,1.2-1,2.2-2.2,2.2h-15c-1.2,0-2.2-1-2.2-2.2
		v-22.5c0-1.2,1-2.2,2.2-2.2h15c1.2,0,2.2,1,2.2,2.2V-164.1z"/>
	<path fill-rule="evenodd" clip-rule="evenodd" d="M-26.6-227.2c3.6,0,6.6,3,6.6,6.7c0,3.7-2.9,6.7-6.6,6.7c-3.6,0-6.6-3-6.6-6.7
		c0-2.3,1.2-4.4,2.9-5.6l-0.4-0.7l-1.1-2.1l-0.1-0.3h-6.8c-0.8,0-1.5,0.5-1.7,1.3l-0.4,1.2c2.3,1.1,3.9,3.4,3.9,6.1
		c0,3.7-2.9,6.7-6.6,6.7c-3.6,0-6.6-3-6.6-6.7c0-3.7,2.9-6.7,6.6-6.7c0.3,0,0.6,0.1,0.9,0.1l1-3.3c0.1-0.4,0.5-0.7,0.9-0.7h9.9
		l1.7-3.8h-3.2c-0.5,0-0.9-0.4-0.9-1c0-0.5,0.4-1,0.9-1h4.1h0.6c0.3,0,0.6,0.2,0.8,0.4c0.2,0.3,0.2,0.6,0.1,0.9l-0.3,0.6l-2.7,5.9
		l1.1,2.1C-27.9-227.1-27.2-227.2-26.6-227.2z M-41.3-224.8l-1,3c-0.1,0.2-0.2,0.4-0.5,0.6c-0.2,0.1-0.5,0.1-0.7,0.1
		c-0.5-0.2-0.8-0.7-0.6-1.2l0.9-2.9c-0.1,0-0.2,0-0.3,0c-2.6,0-4.7,2.1-4.7,4.8c0,2.6,2.1,4.8,4.7,4.8c2.6,0,4.7-2.1,4.7-4.8
		C-38.7-222.4-39.8-224-41.3-224.8z M-31.3-220.5c0,2.6,2.1,4.8,4.7,4.8s4.7-2.1,4.7-4.8c0-2.6-2.1-4.8-4.7-4.8c-0.3,0-0.7,0-1,0.1
		l2.3,4.3c0.1,0.2,0.1,0.5,0.1,0.7c-0.1,0.2-0.2,0.5-0.5,0.6l0,0c-0.5,0.2-1,0.1-1.2-0.4l-2.4-4.5
		C-30.5-223.6-31.3-222.1-31.3-220.5z M-40.6-233h-2.8c-0.5,0-0.9-0.4-0.9-1c0-0.5,0.4-1,0.9-1h5.6c0.2,0,0.3,0.1,0.3,0.2
		c0.1,0.1,0,0.3-0.1,0.4C-38.4-233.5-39.2-233-40.6-233z"/>
	<path fill-rule="evenodd" clip-rule="evenodd" d="M29.1-226.3h-0.9v-5.6h0.9c0.5,0,0.9,0.4,0.9,0.9v3.7
		C30-226.7,29.6-226.3,29.1-226.3z M24.4-215.1v1.9c0,1-0.8,1.9-1.9,1.9h-1.9c-1,0-1.9-0.8-1.9-1.9v-1.9h-7.5v1.9
		c0,1-0.8,1.9-1.9,1.9H7.5c-1,0-1.9-0.8-1.9-1.9v-1.9c-1,0-1.9-0.8-1.9-1.9v-16.8c0-3.1,2.5-5.6,5.6-5.6h11.2c3.1,0,5.6,2.5,5.6,5.6
		v16.8C26.2-215.9,25.4-215.1,24.4-215.1z M7.5-216.9c1,0,1.9-0.8,1.9-1.9c0-1-0.8-1.9-1.9-1.9c-1,0-1.9,0.8-1.9,1.9
		C5.6-217.8,6.5-216.9,7.5-216.9z M18.7-237.5h-7.5v1.9h7.5V-237.5z M24.4-233.7H5.6v11.2h18.7V-233.7z M22.5-220.7
		c-1,0-1.9,0.8-1.9,1.9c0,1,0.8,1.9,1.9,1.9c1,0,1.9-0.8,1.9-1.9C24.4-219.8,23.5-220.7,22.5-220.7z M0-227.2v-3.7
		c0-0.5,0.4-0.9,0.9-0.9h0.9v5.6H0.9C0.4-226.3,0-226.7,0-227.2z"/>
	<path fill-rule="evenodd" clip-rule="evenodd" d="M74.4-223.5c0,2-1.7,3.7-3.7,3.7H59.4c-2.1,0-3.7-1.6-3.7-3.7v-12.8h18.7v1.8
		c3.1,0,5.6,2.5,5.6,5.5C80-226,77.5-223.5,74.4-223.5z M59.4-234.5h-1.9v11c0,1,0.8,1.8,1.9,1.8V-234.5z M74.4-232.7v7.3
		c2.1,0,3.7-1.6,3.7-3.7C78.1-231,76.4-232.7,74.4-232.7z M80-216.2c0,1-0.8,1.8-1.9,1.8H51.9c-1,0-1.9-0.8-1.9-1.8
		c0-1,0.8-1.8,1.9-1.8h26.2C79.2-218,80-217.2,80-216.2z"/>
	<g>
		<polygon fill-rule="evenodd" clip-rule="evenodd" points="128,-234.8 128,-212.8 102,-212.8 102,-210.8 130,-210.8 130,-211.8 
			130,-212.8 130,-234.8 		"/>
		<path fill-rule="evenodd" clip-rule="evenodd" d="M126-236.8h-3c0,1.7-1.3,3-3,3c-1.7,0-3-1.3-3-3h-7c0,1.7-1.3,3-3,3
			c-1.7,0-3-1.3-3-3h-4v22h26V-236.8z M124-216.8h-22v-15h22V-216.8z"/>
		<path fill-rule="evenodd" clip-rule="evenodd" d="M107-235.8c0.6,0,1-0.4,1-1v-2c0-0.6-0.4-1-1-1s-1,0.4-1,1v2
			C106-236.3,106.4-235.8,107-235.8z"/>
		<path fill-rule="evenodd" clip-rule="evenodd" d="M120-235.8c0.6,0,1-0.4,1-1v-2c0-0.6-0.4-1-1-1s-1,0.4-1,1v2
			C119-236.3,119.4-235.8,120-235.8z"/>
		<rect x="106" y="-228.8" fill-rule="evenodd" clip-rule="evenodd" width="3" height="3"/>
		<rect x="112" y="-228.8" fill-rule="evenodd" clip-rule="evenodd" width="3" height="3"/>
		<rect x="117" y="-228.8" fill-rule="evenodd" clip-rule="evenodd" width="3" height="3"/>
		<rect x="106" y="-223.8" fill-rule="evenodd" clip-rule="evenodd" width="3" height="3"/>
		<rect x="112" y="-223.8" fill-rule="evenodd" clip-rule="evenodd" width="3" height="3"/>
		<rect x="117" y="-223.8" fill-rule="evenodd" clip-rule="evenodd" width="3" height="3"/>
	</g>
	<g>
		<path fill-rule="evenodd" clip-rule="evenodd" d="M157-236.3c0.6,0,1-0.4,1-1v-2c0-0.6-0.4-1-1-1s-1,0.4-1,1v2
			C156-236.8,156.4-236.3,157-236.3z"/>
		<path fill-rule="evenodd" clip-rule="evenodd" d="M170-236.3c0.6,0,1-0.4,1-1v-2c0-0.6-0.4-1-1-1s-1,0.4-1,1v2
			C169-236.8,169.4-236.3,170-236.3z"/>
		<rect x="156" y="-229.3" fill-rule="evenodd" clip-rule="evenodd" width="3" height="3"/>
		<rect x="162" y="-229.3" fill-rule="evenodd" clip-rule="evenodd" width="3" height="3"/>
		<rect x="167" y="-229.3" fill-rule="evenodd" clip-rule="evenodd" width="3" height="3"/>
		<rect x="156" y="-224.3" fill-rule="evenodd" clip-rule="evenodd" width="3" height="3"/>
		<rect x="162" y="-224.3" fill-rule="evenodd" clip-rule="evenodd" width="3" height="3"/>
		<rect x="152" y="-213.3" fill-rule="evenodd" clip-rule="evenodd" width="17" height="2"/>
		<rect x="178" y="-235.3" fill-rule="evenodd" clip-rule="evenodd" width="2" height="13"/>
		<path fill-rule="evenodd" clip-rule="evenodd" d="M152-232.3h22v10h2v-15h-3c0,1.7-1.3,3-3,3s-3-1.3-3-3h-7c0,1.7-1.3,3-3,3
			s-3-1.3-3-3h-4v22h19v-2h-17V-232.3z"/>
		<path fill-rule="evenodd" clip-rule="evenodd" d="M175-221.3c-2.8,0-5,2.2-5,5c0,2.8,2.2,5,5,5s5-2.2,5-5
			C180-219.1,177.8-221.3,175-221.3z M178-215.3h-2v2h-2v-2h-2v-2h2v-2h2v2h2V-215.3z"/>
		<rect x="167" y="-224.3" fill-rule="evenodd" clip-rule="evenodd" width="3" height="3"/>
	</g>
	<g>
		
			<rect x="-78.9" y="-168.1" transform="matrix(-0.5 -0.866 0.866 -0.5 28.3188 -318.9253)" fill-rule="evenodd" clip-rule="evenodd" width="2" height="1"/>
		
			<rect x="-80.9" y="-171.6" transform="matrix(-0.5 -0.866 0.866 -0.5 28.3281 -325.847)" fill-rule="evenodd" clip-rule="evenodd" width="2" height="1"/>
		
			<rect x="-82.9" y="-175.1" transform="matrix(-0.5 -0.866 0.866 -0.5 28.3185 -332.7819)" fill-rule="evenodd" clip-rule="evenodd" width="2" height="1"/>
		
			<rect x="-84.4" y="-179" transform="matrix(-0.866 0.5 -0.5 -0.866 -245.5772 -290.2568)" fill-rule="evenodd" clip-rule="evenodd" width="1" height="2"/>
		
			<rect x="-72.2" y="-172.6" transform="matrix(0.7072 -0.707 0.707 0.7072 100.3353 -100.906)" fill-rule="evenodd" clip-rule="evenodd" width="1" height="2"/>
		
			<rect x="-75.5" y="-174.9" transform="matrix(-0.7071 -0.7071 0.7071 -0.7071 -3.8174 -350.4196)" fill-rule="evenodd" clip-rule="evenodd" width="2" height="1"/>
		
			<rect x="-78.3" y="-177.7" transform="matrix(-0.7072 -0.7071 0.7071 -0.7072 -6.6653 -357.2555)" fill-rule="evenodd" clip-rule="evenodd" width="2" height="1"/>
		
			<rect x="-81.1" y="-180.6" transform="matrix(0.7072 0.707 -0.707 0.7072 -150.7908 3.9336)" fill-rule="evenodd" clip-rule="evenodd" width="2" height="1"/>
		
			<rect x="-84.3" y="-165.5" transform="matrix(-0.2588 -0.9659 0.9659 -0.2588 54.4935 -288.261)" fill-rule="evenodd" clip-rule="evenodd" width="2" height="1"/>
		
			<rect x="-84.9" y="-169.9" transform="matrix(0.9659 -0.2589 0.2589 0.9659 40.8538 -27.6079)" fill-rule="evenodd" clip-rule="evenodd" width="1" height="2"/>
		
			<rect x="-85.9" y="-173.8" transform="matrix(0.9659 -0.2589 0.2589 0.9659 41.8166 -28.0057)" fill-rule="evenodd" clip-rule="evenodd" width="1" height="2"/>
		
			<rect x="-87" y="-177.6" transform="matrix(0.9659 -0.2589 0.2589 0.9659 42.784 -28.4076)" fill-rule="evenodd" clip-rule="evenodd" width="1" height="2"/>
		<rect x="-90.4" y="-164.8" fill-rule="evenodd" clip-rule="evenodd" width="1" height="2"/>
		<rect x="-90.4" y="-168.8" fill-rule="evenodd" clip-rule="evenodd" width="1" height="2"/>
		<rect x="-90.4" y="-172.8" fill-rule="evenodd" clip-rule="evenodd" width="1" height="2"/>
		<rect x="-90.4" y="-176.8" fill-rule="evenodd" clip-rule="evenodd" width="1" height="2"/>
		<path fill-rule="evenodd" clip-rule="evenodd" d="M-83-186.6l-3.1,1.8c-1.1-2.4-3.5-4-6.3-4c-3.9,0-7,3.1-7,7v20h4v-20
			c0-1.7,1.3-3,3-3c1.3,0,2.4,0.8,2.8,2l-3.8,2.2l1.5,2.6l10.4-6L-83-186.6z"/>
	</g>
	<path fill-rule="evenodd" clip-rule="evenodd" d="M-20.3-165l-9.3-9.6l9.4-9.8c0.1,0.2,0.1,0.5,0.1,0.7v17.6
		C-20-165.7-20.1-165.3-20.3-165z M-48.3-185.8l0.2,0h26.2l0.3,0.1L-35-171.9L-48.3-185.8z M-49.8-165.1c-0.1-0.3-0.2-0.6-0.2-0.9
		v-17.6c0-0.3,0.1-0.6,0.1-0.9l9.4,9.9L-49.8-165.1z M-35-169l4-4.1l9,9.3h-26.2l-0.1,0l9.2-9.3L-35-169z"/>
	<path d="M0-190.3v30h30v-30H0z M20.3-169.8c0,0-6,6.5-7.9,7.3c0,0-7.2-5.9-9.4-9.5c-2.2-3.6-2.9-6.9,1.3-9.1c4.3-2.3,7.8,2.1,8.1,3
		c0,0,3.2-5.8,8.9-2.5C27.1-177.2,20.3-169.8,20.3-169.8z M28-184.3h-3v3h-2v-3h-3v-2h3v-3h2v3h3V-184.3z"/>
	<path d="M9-180.3v11l3.5-2.6l-0.4,5.6l-1.3-0.4l1.6,3.2l2.3-2.7l-1.1,0l1.4-9.2l-4,2v-5L9-180.3z"/>
	<path fill-rule="evenodd" clip-rule="evenodd" d="M62-186.3h1v23h-1V-186.3z"/>
	<path fill-rule="evenodd" clip-rule="evenodd" d="M78.6-173.4l-2.8-4.3l-1.1,2.2l3.9,6.4H75l-0.6,5.7h-2.8l-0.6-5.7h-3.6l3.9-6.4
		l-1.1-2.2l-2.8,4.3H66l2.3-5.9c0.3-0.8,1.1-1.3,1.9-1.3h1.4l1.4,2.9l1.4-2.9h1.4c0.8,0,1.6,0.5,1.9,1.3l2.3,5.9H78.6z M73-182
		c-1.2,0-2.1-1-2.1-2.2c0-1.2,0.9-2.2,2.1-2.2c1.2,0,2.1,1,2.1,2.2C75.1-183,74.2-182,73-182z"/>
	<path fill-rule="evenodd" clip-rule="evenodd" d="M56.1-172l-0.8,8.6h-2.7l-0.8-8.6H50v-7.6c0.6-0.3,1.3-0.6,2.1-0.8l1.9,4.1
		l1.9-4.1c0.8,0.2,1.5,0.4,2.1,0.8v7.6H56.1z M54-182c-1.1,0-2-1-2-2.2c0-1.2,0.9-2.2,2-2.2s2,1,2,2.2C56-183,55.1-182,54-182z"/>
	<path fill-rule="evenodd" clip-rule="evenodd" d="M177.5-170.5l-10.6-5.9c0-0.6,0.4-1.2,0.9-1.5c1.7-1,2.8-2.8,2.8-4.8
		c0-3.1-2.5-5.6-5.6-5.6s-5.6,2.5-5.6,5.6c0,1,0.8,1.9,1.9,1.9c1,0,1.9-0.8,1.9-1.9c0-1,0.8-1.9,1.9-1.9s1.9,0.8,1.9,1.9
		c0,0.7-0.4,1.3-0.9,1.6c-1.7,1-2.8,2.8-2.8,4.7l-10.7,6c-1.4,0.9-2.4,2.8-2.4,4.4c0,2,1.7,3.7,3.7,3.7h22.5c2.1,0,3.7-1.7,3.7-3.7
		C180-167.7,179-169.6,177.5-170.5z M153.8-166c0-0.4,0.4-1.1,0.6-1.2l10.6-5.9l10.5,5.9c0.3,0.2,0.7,0.9,0.7,1.3H153.8z"/>
	<path fill-rule="evenodd" clip-rule="evenodd" d="M0-117.1h30v1H0V-117.1z"/>
	<path fill-rule="evenodd" clip-rule="evenodd" d="M13-116.1h4c1.1,0,2-0.9,2-2h-8C11-117,11.9-116.1,13-116.1z"/>
	<path fill-rule="evenodd" clip-rule="evenodd" d="M23-116.1h4c1.1,0,2-0.9,2-2h-8C21-117,21.9-116.1,23-116.1z"/>
	<path fill-rule="evenodd" clip-rule="evenodd" d="M17-127.1h-4c-1.1,0-2,0.9-2,2v6h8v-6C19-126.2,18.1-127.1,17-127.1z M16.5-125.3
		h-3.1c-0.3,0-0.5-0.2-0.5-0.5c0-0.3,0.2-0.5,0.5-0.5h3.1c0.3,0,0.5,0.2,0.5,0.5C17-125.5,16.8-125.3,16.5-125.3z"/>
	<path fill-rule="evenodd" clip-rule="evenodd" d="M27-127.1h-4c-1.1,0-2,0.9-2,2v6h8v-6C29-126.2,28.1-127.1,27-127.1z M26.5-125.3
		h-3.1c-0.3,0-0.5-0.2-0.5-0.5c0-0.3,0.2-0.5,0.5-0.5h3.1c0.3,0,0.5,0.2,0.5,0.5C27-125.5,26.8-125.3,26.5-125.3z"/>
	<path fill-rule="evenodd" clip-rule="evenodd" d="M16-125.1h8v1h-8V-125.1z"/>
	<path fill-rule="evenodd" clip-rule="evenodd" d="M0-117.1h1v3H0V-117.1z"/>
	<path fill-rule="evenodd" clip-rule="evenodd" d="M29-117.1h1v3h-1V-117.1z"/>
	<path fill-rule="evenodd" clip-rule="evenodd" d="M3-116.1h4c1.1,0,2-0.9,2-2H1C1-117,1.9-116.1,3-116.1z"/>
	<path fill-rule="evenodd" clip-rule="evenodd" d="M7-127.1H3c-1.1,0-2,0.9-2,2v6h8v-6C9-126.2,8.1-127.1,7-127.1z M6.5-125.3H3.5
		c-0.3,0-0.5-0.2-0.5-0.5c0-0.3,0.2-0.5,0.5-0.5h3.1c0.3,0,0.5,0.2,0.5,0.5C7-125.5,6.8-125.3,6.5-125.3z"/>
	<path fill-rule="evenodd" clip-rule="evenodd" d="M6-125.1h8v1H6V-125.1z"/>
	<path fill="none" d="M11.5-132.2H8.5c-0.3,0-0.5,0.2-0.5,0.5c0,0.3,0.2,0.5,0.5,0.5h3.1c0.3,0,0.5-0.2,0.5-0.5
		C12-132,11.8-132.2,11.5-132.2z"/>
	<path fill="none" d="M22-131.7c0-0.3-0.2-0.5-0.5-0.5h-3.1c-0.3,0-0.5,0.2-0.5,0.5c0,0.3,0.2,0.5,0.5,0.5h3.1
		C21.8-131.3,22-131.5,22-131.7z"/>
	<path fill="none" d="M12-131.7c0-0.3-0.2-0.5-0.5-0.5H8.5c-0.3,0-0.5,0.2-0.5,0.5c0,0.3,0.2,0.5,0.5,0.5h3.1
		C11.8-131.3,12-131.5,12-131.7z"/>
	<path d="M23-127.6h1v-3.5c0-1.1-0.9-2-2-2h-4c-1.1,0-2,0.9-2,2v3.5h1c1.4,0,2.5,1.1,2.5,2.5v1h1v-1C20.5-126.5,21.6-127.6,23-127.6
		z M18.5-131.3c-0.3,0-0.5-0.2-0.5-0.5c0-0.3,0.2-0.5,0.5-0.5h3.1c0.3,0,0.5,0.2,0.5,0.5c0,0.3-0.2,0.5-0.5,0.5H18.5z"/>
	<path d="M13-127.6h1v-3.5c0-1.1-0.9-2-2-2H8c-1.1,0-2,0.9-2,2v3.5h1c1.4,0,2.5,1.1,2.5,2.5v1h1v-1C10.5-126.5,11.6-127.6,13-127.6z
		 M8.5-131.3c-0.3,0-0.5-0.2-0.5-0.5c0-0.3,0.2-0.5,0.5-0.5h3.1c0.3,0,0.5,0.2,0.5,0.5c0,0.3-0.2,0.5-0.5,0.5H8.5z"/>
	<g>
		<path d="M-79.9-116.4c-0.5-0.3-1.2-0.2-1.5,0.4c-1.4,2.2-3.7,3.5-6.3,3.5c-4.1,0-7.4-3.4-7.4-7.5c0-2.4,1.2-4.7,3.1-6.1
			c0.5-0.4,0.6-1,0.2-1.5c-0.4-0.5-1-0.6-1.5-0.3c-2.5,1.8-4,4.8-4,7.9c0,5.3,4.3,9.7,9.6,9.7c3.3,0,6.4-1.7,8.1-4.6
			C-79.2-115.4-79.3-116.1-79.9-116.4z"/>
		<path d="M-72.3-115.8c-0.2-0.6-0.8-0.9-1.4-0.7l-1.3,0.5c0,0-2.4-6.8-2.5-6.9c0,0-0.1-0.1-0.1-0.2c-0.3-0.5-0.9-0.9-1.5-0.9h-5.7
			l-0.1-2.1h4.7c0.6,0,1.1-0.5,1.1-1.1c0-0.6-0.5-1.1-1.1-1.1H-85l-0.2-3.1c0,0,0-0.1,0-0.1c-0.1-1.5-1.4-2.7-2.9-2.6
			c-1.5,0.1-2.7,1.4-2.6,2.9v0l0,0l0.4,8.1l0,0c0,0,0,0,0,0c0.1,1.5,1.3,2.6,2.7,2.6c0,0,7.4,0,7.4,0l2.2,6.1
			c0.2,0.7,0.9,1.1,1.5,1.1c0.1,0,0.2,0,0.3,0c0.1,0,0.1,0,0.2-0.1l2.9-1.1C-72.4-114.6-72.1-115.2-72.3-115.8z"/>
		
			<ellipse transform="matrix(5.248704e-02 0.9986 -0.9986 5.248704e-02 -221.0933 -42.6494)" cx="-88.1" cy="-137.8" rx="2.5" ry="2.5"/>
	</g>
	<g>
		<path fill-rule="evenodd" clip-rule="evenodd" d="M-23-130.1c0-0.1,0-0.1,0-0.2c0-2-1.5-3.6-3.4-3.7c-0.7-0.8-1.7-1.3-2.8-1.3
			c-1.3,0-2.5,0.7-3.2,1.7c-0.5-0.3-1.2-0.5-1.8-0.5c-2.1,0-3.7,1.7-3.7,3.7c0,0.1,0,0.1,0,0.2c-1.5,0.5-2.5,1.9-2.5,3.5
			c0,0.1,0,0.2,0,0.2h-6h-1h-2v2h2v1h-2v1h2v1v1h1h7h1v-1v-1h2v-0.5c0.6,0,1.1-0.2,1.6-0.5c0.6,0.3,1.2,0.5,1.9,0.5
			c0.4,0,0.9-0.1,1.2-0.2v6.5H-33v1.2h5v-1.2h-1.2v-6.2c0.2,0,0.4,0,0.6-0.1c0.2,0,0.4,0.1,0.6,0.1c0.7,0,1.3-0.2,1.9-0.5
			c0.6,0.3,1.2,0.5,1.9,0.5c2.1,0,3.7-1.7,3.7-3.7C-20.5-128.2-21.6-129.6-23-130.1z M-46.5-124.3h6.8c0.1,0.1,0.1,0.2,0.2,0.3v0.7
			h-7V-124.3z M-39.5-121.3h-7v-1h7V-121.3z"/>
		<polygon fill-rule="evenodd" clip-rule="evenodd" points="-39.5,-119.3 -46.5,-119.3 -48.5,-119.3 -49.5,-119.3 -49.5,-118.3 
			-48.5,-118.3 -48.5,-115.3 -46.5,-115.3 -46.5,-118.3 -45.5,-118.3 -45.5,-116.3 -44.5,-116.3 -44.5,-118.3 -41.5,-118.3 
			-41.5,-116.3 -40.5,-116.3 -40.5,-118.3 -39.5,-118.3 -39.5,-115.3 -37.5,-115.3 -37.5,-118.3 -36.5,-118.3 -36.5,-119.3 
			-37.5,-119.3 		"/>
	</g>
	<g>
		<path fill-rule="evenodd" clip-rule="evenodd" d="M115.8-179.4c-0.1-0.2-0.2-0.4-0.4-0.5c-0.2-0.1-0.5-0.2-0.8-0.2h-1v4.4h0.9
			c0.4,0,0.7-0.1,0.9-0.2s0.4-0.3,0.5-0.4c0.1-0.2,0.2-0.4,0.2-0.7c0-0.3,0-0.6,0-0.9c0-0.3,0-0.6,0-0.9
			C116-179,115.9-179.2,115.8-179.4z"/>
		<path fill-rule="evenodd" clip-rule="evenodd" d="M121.4-187.4h-13.3c-1.1,0-2,0.9-2,2v20c0,1.1,0.9,2,2,2h13.3c1.1,0,2-0.9,2-2
			v-20C123.4-186.5,122.5-187.4,121.4-187.4z M117.6-176.5c-0.1,0.4-0.2,0.8-0.4,1.1c-0.3,0.4-0.6,0.7-1,1s-1,0.4-1.7,0.4h-0.9v5
			h-1.8v-12.8h2.8c0.5,0,0.9,0.1,1.3,0.2c0.4,0.1,0.7,0.4,1,0.7c0.3,0.3,0.5,0.7,0.6,1.2c0.1,0.4,0.2,1.1,0.2,1.8
			C117.7-177.3,117.7-176.9,117.6-176.5z"/>
	</g>
	<path fill-rule="evenodd" clip-rule="evenodd" d="M79.8-63.6L66-88.1c-0.5-1-1.4-1-2,0L50.2-63.6c-0.5,1-0.1,1.7,1,1.7h27.6
		C79.9-61.8,80.3-62.6,79.8-63.6z M67-66.8c0,0.6-0.5,1-1,1h-2c-0.5,0-1-0.4-1-1v-2c0-0.6,0.5-1,1-1h2c0.5,0,1,0.5,1,1V-66.8z
		 M67-72.8c0,0.6-0.4,1-1,1h-2c-0.5,0-1-0.4-1-1v-6c0-0.6,0.5-1,1-1h2c0.5,0,1,0.5,1,1L67-72.8z"/>
	<g>
		<path d="M119.6-82.3c-1.4-0.4-3-0.7-4.6-0.7c-7.1,0-13,5.2-14.8,6.9c-0.3,0.3-0.3,0.8,0,1.1c1,1,3.5,3.2,6.9,4.9L119.6-82.3z"/>
		<path d="M129.8-76.1c-1.1-1-3.7-3.4-7.1-5l2.8-2.7H123l-17.4,17h2.4l2.2-2.1c1.5,0.5,3.2,0.8,4.9,0.8c7.1,0,13-5.2,14.8-6.9
			C130.1-75.3,130.1-75.8,129.8-76.1z M120.1-74.5c-0.4,1.9-2,3.5-4,3.9c-1.4,0.3-2.6,0-3.7-0.6l2.2-2.2c0.1,0,0.2,0,0.4,0
			c1.3,0,2.3-1,2.3-2.3c0-0.1,0-0.2,0-0.4l2.2-2.2C120.1-77.1,120.4-75.8,120.1-74.5z"/>
	</g>
	<g>
		<polygon points="165.9,-87.8 164,-87.8 164,-81.8 165.9,-81.8 		"/>
		<polygon points="174,-72.5 180,-73.7 179.5,-76 173.6,-74.8 		"/>
		<polygon points="176.3,-82.6 174.6,-84.2 170.4,-80 172,-78.3 		"/>
		<polygon points="156.4,-74.8 150.5,-76 150,-73.7 156,-72.5 		"/>
		<path d="M173-66.8l-2.3-10.9c-0.2-1.2-1.3-2.1-2.7-2.1l-5,0c-1.4,0-2.7,0.9-3,2.1l-2,10.9c0,0.1,0,0,0,1h-3l0.1,3H176v-3h-3
			C173-66.8,173-66.8,173-66.8z M165.1-66.8l-0.1-11h2c1.1,0,1.8,0.1,2,1l1,5c0,0.1,1,5,1,5H165.1z"/>
		<polygon points="159.6,-80 155.4,-84.2 153.7,-82.6 158,-78.3 		"/>
	</g>
	<path fill-rule="evenodd" clip-rule="evenodd" d="M66.8-110.3h-4v-11h-2v-9c0-2.1,0.9-3,3-3h2c2.1,0,3,0.9,3,3v9h-2V-110.3z
		 M64.8-134.7c-1.6,0-2.8-1.3-2.8-2.8c0-1.6,1.3-2.8,2.8-2.8s2.8,1.3,2.8,2.8C67.6-136,66.4-134.7,64.8-134.7z"/>
	<path fill-rule="evenodd" clip-rule="evenodd" d="M55.8-110.3h-4v-11h-2v-9c0-2.1,0.9-3,3-3h2c2.1,0,3,0.9,3,3v9h-2V-110.3z
		 M53.8-134.7c-1.6,0-2.8-1.3-2.8-2.8c0-1.6,1.3-2.8,2.8-2.8s2.8,1.3,2.8,2.8C56.6-136,55.4-134.7,53.8-134.7z"/>
	<path fill-rule="evenodd" clip-rule="evenodd" d="M77.8-110.3h-4v-11h-2v-9c0-2.1,0.9-3,3-3h2c2.1,0,3,0.9,3,3v9h-2V-110.3z
		 M75.8-134.7c-1.6,0-2.8-1.3-2.8-2.8c0-1.6,1.3-2.8,2.8-2.8s2.8,1.3,2.8,2.8C78.6-136,77.4-134.7,75.8-134.7z"/>
	<path fill-rule="evenodd" clip-rule="evenodd" d="M114.6-137.3c-5,0-9,4-9,9c0,6,9,15,9,15s9-9,9-15
		C123.6-133.3,119.6-137.3,114.6-137.3z M114.6-124.2c-2.6,0-4.7-2.1-4.7-4.7c0-2.6,2.1-4.7,4.7-4.7s4.7,2.1,4.7,4.7
		C119.3-126.4,117.2-124.2,114.6-124.2z"/>
	<path fill-rule="evenodd" clip-rule="evenodd" d="M169.1-130.3c1,0,1.8,0.8,1.8,1.9c0,1-0.8,1.9-1.8,1.9h-6.7
		c-0.1,0.4-0.1,0.8-0.1,1.1c0,0.4,0,0.8,0.1,1.1h6.7c1,0,1.8,0.8,1.8,1.9c0,1-0.8,1.9-1.8,1.9h-5.6c1.7,3.2,5,5.3,8.5,5.3h0.4
		c0.8,0,1.4,0.7,1.4,1.7c0,1-0.6,1.9-1.3,2l0,0H172c-5.5,0-10.5-3.6-12.4-9.1h-2c-1,0-1.8-0.8-1.8-1.9c0-1,0.8-1.9,1.8-1.9h1.2v0
		c-0.1-0.4-0.1-0.7-0.1-1.1c0-0.4,0-0.7,0.1-1.1v0h-1.2c-1,0-1.8-0.8-1.8-1.9c0-1,0.8-1.9,1.8-1.9h2c2-5.4,6.9-9.1,12.4-9.1h0.4
		c0.8,0.1,1.4,1,1.4,2c0,1-0.5,1.7-1.2,1.7l-0.6,0c-3.5,0-6.8,2.1-8.5,5.3H169.1z"/>
	<path fill-rule="evenodd" clip-rule="evenodd" d="M-76.6-88.7l-0.3,0.2c-1.1,0.5-2.8,6.3-2.8,6.7l0,0.4c0.2,0.8,0.9,1.7,2.5,3.5
		c-0.9,2.1-3.4,4.9-4.9,6.2c-1.6,1.4-4.3,3.2-6.3,3.9c-1.8-2.1-2.6-2.9-3.5-3c-0.5,0-6.4,1-6.9,2l-0.2,0.3c-0.4,0.7-1.1,1.7-0.8,2.8
		c0.1,0.3,0.2,0.5,0.3,0.8c0.5,0.8,1.7,2.6,3.4,3.4c1,0.5,10.4,0.8,18.3-6.3c7.8-7,8.2-15.6,7.9-16.9l0,0l0-0.1
		c-0.6-1.8-2.3-3.2-3-3.8C-74.3-89.8-75.8-89.1-76.6-88.7z"/>
	<path fill-rule="evenodd" clip-rule="evenodd" d="M-47.2-87.3v18h18v-18H-47.2z M-31.2-71.3h-14v-14h14V-71.3z"/>
	<path fill-rule="evenodd" clip-rule="evenodd" d="M-25.2-73.3v-10h-2l3-4l3,4h-2v10h2l-3,4l-3-4"/>
	<path fill-rule="evenodd" clip-rule="evenodd" d="M-33.2-63.3h-10v2l-4-3l4-3v2h10v-2l4,3l-4,3"/>
	<g opacity="0.4">
		<path fill-rule="evenodd" clip-rule="evenodd" d="M8.5-70.4l4-4c-0.1-0.2-0.1-0.5-0.1-0.7c0-1,0.6-1.9,1.5-2.3v-9.9
			c0-0.5,0.5-1,1-1c-7.2,0-13,5.8-13,13c0,3.6,1.5,6.8,3.8,9.2L8.5-69C8.1-69.4,8.1-70,8.5-70.4z"/>
	</g>
	<g>
		<g>
			<path fill-rule="evenodd" clip-rule="evenodd" d="M14.8-90.3c-1,0-2,0.1-3,0.3c-1,0.2-1.9,0.5-2.8,0.9c-1.3,0.6-2.6,1.3-3.7,2.2
				s-2.1,2-2.9,3.2c-1.6,2.4-2.6,5.3-2.6,8.4c0,1.6,0.2,3.1,0.7,4.5c0.7,2.3,2,4.4,3.7,6.1c0.3,0.3,0.7,0.7,1.1,1
				c0.7,0.6,1.5,1.2,2.4,1.6c0.4,0.2,0.9,0.4,1.3,0.6c0.9,0.4,1.8,0.7,2.8,0.9c1,0.2,2,0.3,3,0.3c8.3,0,15-6.7,15-15
				C29.8-83.6,23.1-90.3,14.8-90.3z M14.8-72.6c-0.3,0-0.6-0.1-0.9-0.2L10-68.9c-0.4,0.4-1.1,0.4-1.5,0c0,0,0,0,0,0l-2.8,2.8
				c-2.4-2.4-3.8-5.6-3.8-9.2c0-7.2,5.8-13,13-13c0.5,0,1,0.5,1,1v9.9c0.9,0.4,1.5,1.3,1.5,2.3C17.3-73.7,16.2-72.6,14.8-72.6z"/>
		</g>
	</g>
	<path fill-rule="evenodd" clip-rule="evenodd" d="M-84-13.4h-2l-14-2v-19.9h2v18.2l12,1.7h2l12-1.7v-18.2h2v19.9L-84-13.4z
		 M-84-35.2c3.6-2.1,10-2.1,10-2.1v17.9c0,0-6.4,0-10,2.1V-35.2z M-96-37.3c0,0,6.4,0,10,2.1v17.9c-3.6-2.1-10-2.1-10-2.1V-37.3z"/>
	<path fill-rule="evenodd" clip-rule="evenodd" d="M-20.5-31.4l-0.2,0.1l0,0l-2.7,2.7l-8.4-8.4l2.7-2.7l0,0l0.1-0.2
		c0.7-0.7,2-0.7,2.7,0.1l5.6,5.6C-19.8-33.4-19.8-32.1-20.5-31.4z M-43-20.2l12.5-12.6l2.8,2.8l-12.5,12.6l1.4,1.4l12.5-12.6
		l1.4,1.4l-13.9,14l-8.4-8.4l13.9-14l1.4,1.4l-12.5,12.6L-43-20.2z M-40.2-11.7l-4.9,0.7l-4.9,0.7l0.7-4.9l0.7-4.9l4.2,4.2
		L-40.2-11.7z"/>
	<path fill-rule="evenodd" clip-rule="evenodd" d="M26-11.3l-26,0v-28l30,0v24L26-11.3z M9-13.3h12v-7H9V-13.3z M24-37.3H6v12h18
		V-37.3z M11-18.3l4,0v3h-4V-18.3z"/>
	<path fill-rule="evenodd" clip-rule="evenodd" d="M50-28.3l3-2l8,14l16-23l3,2l-19,27L50-28.3"/>
	<path fill-rule="evenodd" clip-rule="evenodd" d="M123.6-32.5l-1.8-1.8l-7.2,7.2l-7.2-7.2l-1.8,1.8l7.2,7.2l-7.2,7.2l1.8,1.8
		l7.2-7.2l7.2,7.2l1.8-1.8l-7.2-7.2L123.6-32.5z"/>
	<path fill-rule="evenodd" clip-rule="evenodd" d="M164.8-33.8c-4.7,0-8.5,3.8-8.5,8.5s3.8,8.5,8.5,8.5c4.7,0,8.5-3.8,8.5-8.5
		S169.5-33.8,164.8-33.8z M169.8-22.6l-2.2,2.2l-2.8-2.8l-2.8,2.8l-2.2-2.2l2.8-2.8l-2.8-2.8l2.2-2.2l2.8,2.8l2.8-2.8l2.2,2.2
		l-2.8,2.8L169.8-22.6z"/>
	<path fill-rule="evenodd" clip-rule="evenodd" d="M-77.7,17c-0.9,0-1.6-0.7-1.6-1.6c0-0.9,0.7-1.6,1.6-1.6c0.9,0,1.6,0.7,1.6,1.6
		C-76.2,16.3-76.9,17-77.7,17z M-79.9,11.7c-0.4,0-0.8-0.2-1.1-0.5c-0.6-0.6-0.6-1.6,0-2.2c0.3-0.3,0.7-0.5,1.1-0.5s0.8,0.2,1.1,0.5
		c0.6,0.6,0.6,1.6,0,2.2C-79.1,11.6-79.5,11.7-79.9,11.7z M-85.2,10.5c-1.4,0-2.5-1.1-2.5-2.5c0-1.4,1.1-2.5,2.5-2.5
		c1.4,0,2.5,1.1,2.5,2.5C-82.7,9.4-83.8,10.5-85.2,10.5z M-90.4,22.3c-0.4,0-0.8-0.2-1.1-0.5c-0.6-0.6-0.6-1.6,0-2.2
		c0.3-0.3,0.7-0.5,1.1-0.5c0.4,0,0.8,0.2,1.1,0.5c0.6,0.6,0.6,1.6,0,2.2C-89.6,22.1-90,22.3-90.4,22.3z M-90.4,11.7
		c-0.4,0-0.8-0.2-1.1-0.5c-0.6-0.6-0.6-1.6,0-2.2c0.3-0.3,0.7-0.5,1.1-0.5c0.4,0,0.8,0.2,1.1,0.5c0.6,0.6,0.6,1.6,0,2.2
		C-89.6,11.6-90,11.7-90.4,11.7z M-91.1,15.5c0,0.9-0.7,1.6-1.6,1.6s-1.6-0.7-1.6-1.6s0.7-1.6,1.6-1.6
		C-91.8,13.9-91.1,14.6-91.1,15.5z M-85.2,21.4c0.9,0,1.6,0.7,1.6,1.6c0,0.9-0.7,1.6-1.6,1.6c-0.9,0-1.6-0.7-1.6-1.6
		C-86.7,22.1-86,21.4-85.2,21.4z M-79.9,19.2c0.4,0,0.8,0.2,1.1,0.5c0.6,0.6,0.6,1.6,0,2.2c-0.3,0.3-0.7,0.5-1.1,0.5
		c-0.4,0-0.8-0.2-1.1-0.5c-0.6-0.6-0.6-1.6,0-2.2C-80.7,19.4-80.3,19.2-79.9,19.2z"/>
	<g>
		<circle fill-rule="evenodd" clip-rule="evenodd" cx="115" cy="4.1" r="2.3"/>
		<rect x="100.2" y="12.5" fill-rule="evenodd" clip-rule="evenodd" width="1.8" height="7.3"/>
		<path fill-rule="evenodd" clip-rule="evenodd" d="M124.7,15.4H121l-0.1-6.3c0-1.2-1-2.2-2.2-2.2h-7.6c-1.2,0-2.2,1-2.2,2.2l0,6.3
			h-3.7v-4.1h-2.5v9.6h2.5v-4.1h3.7h2.1h0.6c-0.2,3.6-0.6,12.2-0.6,12.2h2.9l0.6-11.2c0.1,0,0.5,0,0.6,0l0.9,11.2h2.9
			c0,0-0.6-8.6-0.8-12.2h0.6h2.1h3.8v4.1h2.5v-9.6h-2.5V15.4z M111.2,15.4L111.2,15.4v-4.7c0-0.2,0.1-0.3,0.3-0.3
			c0.2,0,0.3,0.1,0.3,0.3v3.9c0,0,0,0.3,0,0.8H111.2z M118.8,15.4h-0.6c0-0.5,0-0.8,0-0.8v-3.9c0-0.2,0.1-0.3,0.3-0.3
			c0.2,0,0.3,0.1,0.3,0.3V15.4z"/>
		<rect x="128" y="12.5" fill-rule="evenodd" clip-rule="evenodd" width="1.8" height="7.3"/>
	</g>
	<g>
		<path fill="#010101" d="M167.9,22.3c1.5-0.1,2.9-0.2,2.9-0.2l-2.2-1.3l-2.7-1.5l-4.1-2.3l-2.7-1.5l-2.2-1.3c0,0,0.7,1.2,1.4,2.5
			c0.8,1.5,1.5,3.1,1.4,3.4c-0.2,0.7-3.2,5.3-3.9,6.3c-0.5,0.8,0.9,2.2,1.9,2.8c1,0.5,2.9,1,3.3,0.1c0.5-1.3,2.8-6.1,3.3-6.6
			C164.5,22.6,166.3,22.4,167.9,22.3z"/>
		<g>
			<path fill="#010101" d="M176.7,16.9c3.3-5.8,1.8-12.8-3.3-15.7s-11.8-0.4-15.1,5.4c-1.2,2.2-1.8,4.5-1.7,6.7l15.3,8.6
				C173.7,20.7,175.4,19.1,176.7,16.9z"/>
		</g>
	</g>
	<circle fill="#010101" cx="155.6" cy="3.1" r="2.6"/>
	<g>
		<path d="M-72.5,54.1v-3.5l-5.5-4.5l-1.3,1.1c-1-0.9-2.3-1.5-3.7-1.5c-2,0-3.7,1-4.7,2.6c-0.8-0.5-1.7-0.7-2.7-0.7
			c-3.1,0-5.6,2.5-5.6,5.6c0,0.1,0,0.2,0,0.3c-1.9,0.7-3.3,2.3-3.7,4.3c0,0,0,0.1,0,0.1c0,0.3-0.1,0.5-0.1,0.8c0,0,0,0,0,0
			c0,0,0,0,0,0c0,0,0,0,0,0c0,3.1,2.5,5.5,5.6,5.5c0.1,0,0.2,0,0.4,0l0,0c0.3,0,0.5-0.1,0.8-0.1v1.3c-1.3,0.2-2.3,1.4-2.3,2.8
			c0,1.6,1.3,2.8,2.8,2.8c1.6,0,2.8-1.3,2.8-2.8c0-1.4-1-2.5-2.3-2.8v-1.6c0.2-0.1,0.4-0.2,0.6-0.3c0.8,0.5,1.8,0.8,2.8,0.8
			c0.7,0,1.3-0.1,1.9-0.3v9.7h-1.9v1.9h7.5v-1.9H-83v-9.3c0.3,0,0.6,0,0.9-0.1c0.3,0.1,0.6,0.1,0.9,0.1c1,0,2-0.3,2.8-0.8
			c0.8,0.5,1.8,0.8,2.8,0.8c3.1,0,5.6-2.5,5.6-5.6C-70,56.8-71,55.1-72.5,54.1z M-90.8,68.3c0,1-0.8,1.8-1.8,1.8
			c-1,0-1.8-0.8-1.8-1.8s0.8-1.8,1.8-1.8C-91.6,66.4-90.8,67.3-90.8,68.3z M-73.5,58.5H-78v-4.1h-3v4.1h-1.5V51l4.5-3.7l4.5,3.7
			V58.5z"/>
		<circle cx="-75.7" cy="51.8" r="1.3"/>
	</g>
	<g>
		<g>
			<polygon fill="#010101" points="-23,64.5 -46.6,67.8 -50,64.7 -49.1,63.8 -46.2,66.4 -23.7,63.3 -21,59.8 -20,60.5 			"/>
		</g>
		<g>
			<g>
				<circle fill="#010101" cx="-42.9" cy="69.5" r="1.5"/>
			</g>
			<g>
				<g>
					<circle fill="#010101" cx="-25.5" cy="67.1" r="1.5"/>
				</g>
			</g>
		</g>
	</g>
	<g>
		<polygon fill="#010101" points="9.7,59.3 11.8,65.4 18.2,65.4 20.3,59.3 15,55.4 		"/>
		<path fill="#010101" d="M15,45.5c-8.3,0-15,6.7-15,15s6.7,15,15,15s15-6.7,15-15S23.3,45.5,15,45.5z M26.6,65.4
			c-0.4,0.9-0.9,1.8-1.5,2.6L25,66.6l-4.7,1.1l-2.5,4.2l1.3,0.6c-1.3,0.4-2.7,0.7-4.1,0.7c-1.4,0-2.7-0.2-4-0.7l1.3-0.6l-2.5-4.2
			L5,66.6L4.8,68c-0.6-0.8-1.1-1.7-1.5-2.6c-0.7-1.6-1-3.2-1-4.9c0,0,0-0.1,0-0.1l0.9,0.9l3.2-3.7L6,52.8l-1.2,0.2
			c0.4-0.5,0.8-1,1.3-1.5c1.2-1.2,2.5-2.1,4-2.7c0.3-0.1,0.7-0.3,1-0.4l-0.6,1.1l4.5,1.9l4.5-1.9l-0.6-1.1c0.4,0.1,0.7,0.2,1.1,0.4
			c1.5,0.6,2.9,1.5,4,2.7c0.5,0.5,0.9,1,1.3,1.5L24,52.8l-0.4,4.8l3.2,3.7l0.9-0.9c0,0,0,0,0,0.1C27.6,62.2,27.3,63.9,26.6,65.4z"/>
	</g>
	<g id="Layer_4">
		<polygon fill="#010101" points="63.2,73.5 65.8,73.5 65.8,68.3 64.5,66.8 63.2,68.3 		"/>
		<g>
			<path fill="#010101" d="M60.6,50.2c-0.4-0.2-0.6-0.6-0.7-1c-0.1-0.4,0-0.8,0.2-1.2c0.2-0.4,0.6-0.6,1-0.7c0.4-0.1,0.8,0,1.2,0.2
				c0.4,0.2,0.6,0.6,0.7,1c0.1,0.4,0,0.8-0.2,1.2c-0.2,0.4-0.6,0.6-1,0.7C61.3,50.5,60.9,50.5,60.6,50.2z"/>
			<path fill="#010101" d="M53.6,56.5l4-0.6l-2.4-2.4c-0.1-0.1-0.2-0.3-0.3-0.5c-0.2-0.6,0.1-0.9,0.6-1.3l2.3-2
				c0.2-0.2,0.4-0.3,0.6-0.3c0.4-0.1,0.7,0,1,0.2c0.3,0.2,0.5,0.5,0.6,0.9c0.1,0.5-0.1,0.9-0.5,1.2l-1.9,1.6l2,2
				c0.1,0.1,0.2,0.3,0.2,0.6c0,0.3,0,0.5-0.2,0.7c-0.2,0.3-0.4,0.4-0.7,0.5l-5.1,0.9L53.6,56.5z"/>
		</g>
		<path fill="#010101" d="M77.1,63.5c-0.4,0.2-0.8,0.2-1.2,0.1c-0.4-0.1-0.7-0.4-0.9-0.8c-0.2-0.4-0.2-0.8-0.1-1.2
			c0.1-0.4,0.4-0.7,0.8-0.9c0.4-0.2,0.8-0.2,1.2-0.1c0.4,0.1,0.7,0.4,0.9,0.8c0.2,0.4,0.2,0.8,0.1,1.2C77.7,63,77.5,63.3,77.1,63.5z
			"/>
		<path fill="#010101" d="M50.5,59.8l21.1,8c0.1-0.2,0.2-0.3,0.4-0.4c0.2-0.1,0.5-0.2,0.7-0.1l2.7,0.7l0-2.5c0-0.5,0.2-0.9,0.7-1.2
			c0.3-0.2,0.7-0.2,1.1-0.1c0.4,0.1,0.7,0.3,0.8,0.7c0.1,0.2,0.1,0.4,0.1,0.7l0,3.1c0,0.6-0.1,1-0.7,1.3c0,0-0.1,0-0.2,0l2.8,1
			l-0.5,1.4l-4.9-1.9L74,69.4l-0.2,0.1l-0.2,0.1l1.8,3.4l-0.7,0.4l-0.8,0.3l-2.3-4.4L50,61.2L50.5,59.8z"/>
	</g>
	<circle fill="none" cx="106.4" cy="52.4" r="0.7"/>
	<circle fill="none" cx="104.6" cy="54.2" r="0.7"/>
	<circle fill="none" cx="104" cy="51.8" r="0.7"/>
	<g>
		<path fill="#010101" d="M119.6,59.9c0.3,0,0.7,0.1,1,0.2l0.9,0.3l-1.1-11.7l-0.3-3.1h-3.1l-0.3,3.1h-3.9l-0.3-3.1h-3.1l-0.3,3.1
			h-3.9l-0.3-3.1h-3.1l-0.3,3.1h0l-1.7,18.8c0,0,4.8,1.6,11,1.6c1.6,0,3.1-0.1,4.5-0.3l1.4-6.6C117.1,60.8,118.2,59.9,119.6,59.9z
			 M103.5,51.3c0.3-0.3,0.7-0.3,1,0c0.3,0.3,0.3,0.7,0,1c-0.3,0.3-0.7,0.3-1,0C103.2,52,103.2,51.6,103.5,51.3z M105.1,54.7
			c-0.3,0.3-0.7,0.3-1,0c-0.3-0.3-0.3-0.7,0-1c0.3-0.3,0.7-0.3,1,0C105.4,53.9,105.4,54.4,105.1,54.7z M106.9,52.9
			c-0.3,0.3-0.7,0.3-1,0c-0.3-0.3-0.3-0.7,0-1c0.3-0.3,0.7-0.3,1,0C107.2,52.2,107.2,52.6,106.9,52.9z"/>
		<circle fill="#010101" cx="123.5" cy="73.6" r="0.7"/>
		<path fill="#010101" d="M129.4,65.4l-3.3-1.2l3.4-10.5l-2.8-1l-3.4,10.5l-3.3-1.2c-0.1,0-0.2-0.1-0.3-0.1c-0.4,0-0.7,0.3-0.8,0.7
			l-1.9,9.3c-0.1,0.3,0,0.5,0.1,0.7c1-0.8,2.3-1.6,3.9-2.2c2-0.8,4.7-0.7,6.7,0.5l2.3-4.3C130.2,66.1,129.9,65.6,129.4,65.4z"/>
		<circle fill="#010101" cx="125.6" cy="72.3" r="0.7"/>
		<circle fill="#010101" cx="125.6" cy="74.8" r="0.7"/>
	</g>
	<path fill="none" d="M-27.6,10.7l-0.4,0.7c0.3,0.2,0.6,0.4,0.9,0.5l0.4-0.7C-27.1,11.1-27.4,10.9-27.6,10.7z"/>
	<path fill="none" d="M-29.9,14.4c0.3,0.1,0.6,0.3,0.9,0.5l0.4-0.7c-0.3-0.2-0.6-0.3-0.9-0.5L-29.9,14.4z"/>
	<circle cx="-45.9" cy="23.4" r="4.1"/>
	<path d="M-20.1,16c-1.7,1.4-2.8,3.6-2.8,6c0,0.7,0.1,1.4,0.3,2.1c1.6-1.8,2.6-4.2,2.6-6.8C-20,16.9-20,16.5-20.1,16z"/>
	<path d="M-30.2,7.2c-0.1,0-0.3,0-0.4,0c0.5,1.1,1.2,2.1,2.1,2.9l1.5-2.4C-28,7.4-29.1,7.2-30.2,7.2z"/>
	<path d="M-26.7,11.2l1.7-2.7c-0.3-0.2-0.6-0.3-0.9-0.5l-1.7,2.6C-27.4,10.9-27.1,11.1-26.7,11.2z"/>
	<path d="M-23.3,12c0.6,0,1.2-0.1,1.7-0.2c-0.7-1.1-1.6-2-2.6-2.7l-1.6,2.5C-25,11.9-24.2,12-23.3,12z"/>
	<path d="M-31.4,7.2c-4.9,0.6-8.7,4.6-8.9,9.6c1.5-2.4,4.2-4,7.3-4c0.9,0,1.8,0.1,2.6,0.4l1.6-2.5C-30,9.8-30.9,8.6-31.4,7.2z"/>
	<path d="M-29.5,13.7c0.3,0.1,0.6,0.3,0.9,0.5l1.4-2.2c-0.3-0.2-0.6-0.3-0.9-0.5L-29.5,13.7z"/>
	<path d="M-20.2,15.1c-0.2-0.9-0.5-1.8-0.9-2.5c-0.7,0.2-1.4,0.3-2.1,0.3c-1,0-2-0.2-2.9-0.5l-1.5,2.4c2,1.6,3.3,4,3.3,6.8
		c0,1.9-0.6,3.6-1.7,5.1c1-0.5,1.9-1.1,2.8-1.8c-0.3-0.9-0.5-1.8-0.5-2.7C-23.7,19.2-22.4,16.7-20.2,15.1z"/>
	<path d="M-30.2,27.5c0.9,0,1.7-0.1,2.6-0.3c1.5-1.4,2.4-3.4,2.4-5.6c0-2.5-1.1-4.7-2.9-6.1l-6.8,10.9
		C-33.5,27.1-31.9,27.5-30.2,27.5z"/>
	<path d="M-29.9,14.4l-6.7,10.8c0.3,0.2,0.5,0.4,0.8,0.6l6.8-10.9C-29.3,14.7-29.6,14.5-29.9,14.4z"/>
	<path d="M-33.1,13.7c-3.2,0-6,2-7.2,4.8c0.3,2.3,1.3,4.4,2.8,5.9l6.5-10.4C-31.6,13.8-32.3,13.7-33.1,13.7z"/>
	<path fill="#010101" d="M77.9,18.9c0.1-0.5,0.1-1,0.1-1.5c0-4.2-3.5-7.6-7.8-7.6c-0.2,0-0.5,0-0.7,0c-1,0.8-2.2,1.5-3.6,2.1
		c-1.2,0.6-2.4,1.1-3.5,1.4c0-0.2,0-0.4-0.1-0.5c1.1-0.3,2.2-0.8,3.4-1.4c0.9-0.5,1.8-0.9,2.5-1.4c1-0.7,1.9-1.4,2.6-2.1
		c1.1-1.2,1.6-2.2,1.3-2.8c-0.2-0.5-0.9-0.7-2-0.7c-1.8,0-4.4,0.8-7,2c-2.1,1-3.7,2.2-4.8,3.2c-1.4-0.2-3,0.1-4.5,0.9
		c-3.2,1.7-4.8,5-3.5,7.4c1,1.8,3.3,2.6,5.8,2.1l0.1,0.1C55,22.4,55,25.1,55,25.1h3.2H61c0-2.8,4-3.2,4.2-3.2l0,0.3l0,0.3
		c0,0-0.2,0-0.5,0.1c-0.9,0.2-3.1,0.8-3.2,2.4c0,0.1,0,0.1,0,0.2h2.2h6.9l0,0c2.2-0.1,4.1-1,5.5-2.5c0.4,0.5,1,0.8,1.7,0.8
		c1.2,0,2.3-1,2.3-2.3C80,20,79.1,19,77.9,18.9z M54.4,14.8c-0.5,0-0.9-0.4-0.9-0.9c0-0.5,0.4-0.9,0.9-0.9c0.5,0,0.9,0.4,0.9,0.9
		C55.3,14.4,54.9,14.8,54.4,14.8z"/>
	<path fill="#010101" d="M182,72.3l-9.4-9.4c1.2-1.8,1.9-4,1.9-6.2c0-3-1.2-5.8-3.3-7.9c-2.1-2.1-4.9-3.3-7.9-3.3
		c-3,0-5.8,1.2-7.9,3.3c-2.1,2.1-3.3,4.9-3.3,7.9s1.2,5.8,3.3,7.9c2.1,2.1,4.9,3.3,7.9,3.3c2.3,0,4.4-0.7,6.3-1.9l9.4,9.4
		c0.3,0.3,0.9,0.2,1.3-0.2l1.6-1.6C182.3,73.2,182.3,72.6,182,72.3z M163.4,64.8c-4.5,0-8.1-3.7-8.1-8.1s3.6-8.1,8.1-8.1
		s8.1,3.7,8.1,8.1S167.9,64.8,163.4,64.8z"/>
	<g id="Your_Icon">
		<path fill="#010101" d="M182.2,92.1h-24.3l-1.1-3.5h-4.7l0.6,1.7h2.8l5.5,17.2c-1.2,0.2-2.1,1.3-2.1,2.5c0,1.4,1.2,2.6,2.6,2.6
			c1.4,0,2.6-1.1,2.6-2.6c0-0.3-0.1-0.6-0.2-0.9h7.2c-0.1,0.3-0.2,0.6-0.2,0.9c0,1.4,1.2,2.6,2.6,2.6c1.4,0,2.6-1.1,2.6-2.6
			c0-1.4-1.1-2.5-2.4-2.6c0,0-0.2,0-0.2,0l-10.7,0l-1.1-3.4h13.5L182.2,92.1z"/>
	</g>
	<path fill="#010101" d="M76,105.4c-0.2-0.1-0.4-0.2-0.6-0.3l-0.1,0c0,0-1-0.5-1.1-4.4c-0.1-3.9,0.9-4.5,0.9-4.5l0.1-0.1
		c1-0.5,1.8-1.3,2.3-2.3c1.4-2.7,0.4-6-2.3-7.4c-2.7-1.4-6-0.4-7.4,2.3c-0.6,1.1-0.7,2.3-0.6,3.4l0,0c0,0,0.3,1.3-3.1,3.4
		c-3.3,2.1-4.9,1.1-4.9,1.1l-0.2-0.1c-2.7-1.4-6-0.4-7.4,2.3c-1.4,2.7-0.4,6,2.3,7.4c2,1.1,4.3,0.8,6-0.6l0,0c0,0,1.1-0.9,4.6,1
		c2.8,1.5,3.2,2.9,3.2,3.5c-0.1,2,1,4,2.9,5c2.7,1.4,6,0.4,7.4-2.3C79.7,110.1,78.7,106.8,76,105.4z M53.3,104.2
		C53.3,104.2,53.3,104.2,53.3,104.2C53.3,104.2,53.3,104.2,53.3,104.2L53.3,104.2z M59.2,97.8c-0.7-0.6-2.4-0.5-3.9,0.4
		c0.2,0.2,0.3,0.4,0.3,0.7c0,0.6-0.5,1.2-1.1,1.2c-0.1,0-0.2,0-0.3,0c0,0,0,0-0.1,0c-0.4-0.1-0.7,0.2-0.8,0.3c-0.8,1.5-0.8,3,0,3.7
		c-1.5-1.5-1.5-4,0.1-5.8C55,96.6,57.6,96.4,59.2,97.8L59.2,97.8z M69.4,88.1c1.6-1.8,4.2-2,5.8-0.6l0,0c-0.7-0.6-2.4-0.5-3.9,0.4
		c0.2,0.2,0.3,0.4,0.3,0.7c0,0.6-0.5,1.2-1.1,1.2c-0.1,0-0.2,0-0.3,0c0,0,0,0-0.1,0c-0.4-0.1-0.7,0.2-0.8,0.3c-0.8,1.5-0.8,3,0,3.7
		C67.8,92.4,67.8,89.8,69.4,88.1z M65.4,105c-2.9-1.5-3.3-2.8-3.4-3.2c0-0.5,0-0.9-0.1-1.4l0,0c0,0-0.2-1.3,3.1-3.3
		c3-1.8,4.3-1.5,4.5-1.4c0.2,0.1,0.3,0.2,0.5,0.3c0.3,0.2,0.7,0.3,1,0.4c0.4,0.4,1.2,1.5,1.2,4.4c0.1,2.9-0.8,4-1.2,4.4
		c-0.5,0.2-0.9,0.5-1.3,0.9C69.4,106.2,68.1,106.4,65.4,105z M70.3,112.9C70.3,112.9,70.3,112.9,70.3,112.9
		C70.3,112.9,70.3,112.9,70.3,112.9L70.3,112.9z M76.1,106.5c-0.7-0.6-2.4-0.5-3.9,0.4c0.2,0.2,0.3,0.4,0.3,0.7
		c0,0.6-0.5,1.2-1.1,1.2c-0.1,0-0.2,0-0.3,0c0,0,0,0-0.1,0c-0.4-0.1-0.7,0.2-0.8,0.3c-0.8,1.5-0.8,3,0,3.7c-1.5-1.5-1.5-4,0.1-5.8
		C72,105.4,74.6,105.1,76.1,106.5L76.1,106.5z"/>
	<path fill="#010101" d="M100,97.4C100,97.5,100,97.5,100,97.4L100,97.4C100,97.4,100,97.4,100,97.4z"/>
	<g>
		<ellipse fill="#010101" cx="109" cy="96.9" rx="1" ry="1"/>
		<path fill="#010101" d="M120.5,102c0.6-0.1,0.9-0.7,0.8-1.2c-0.1-0.6-0.7-0.9-1.3-0.8c-0.6,0.1-0.9,0.7-0.8,1.2
			C119.4,101.8,120,102.2,120.5,102z"/>
		<path fill="#010101" d="M127.1,109.6c-1.4,0-3-1.5-4.8-3.2c-0.2-0.2-0.4-0.4-0.6-0.5l-0.6-2.5c-0.1-0.6-0.7-1-1.3-0.8
			c-0.5,0.1-0.8,0.5-0.9,1c-1.7-1.3-3.7-2.2-6-2.2v-9.9l-6.7-3.7l-6.2,3.7v9.9v3.3v9.1h1.3V112h4.2v1.7h1.3V112h5v1.7h1.3v-9.1v-0.8
			c2.9,0,5.4,2.2,7.7,4.4c2.1,2,4.1,3.8,6.5,3.8h0.4v1.7h1.2V112h1.2v-2.5H127.1z M105.4,111.2h-4.2v-1.7h4.2L105.4,111.2
			L105.4,111.2z M105.4,108.7h-4.2v-1.7h4.2L105.4,108.7L105.4,108.7z M105.4,106.3h-4.2v-1.7h4.2L105.4,106.3L105.4,106.3z
			 M111.7,101.3h-1.3l-0.5-2.1c-0.1-0.6-0.7-1-1.3-0.8c-0.6,0.1-1,0.7-0.8,1.3l0.4,1.6h-6.8v-9.1h10.4L111.7,101.3L111.7,101.3z"/>
	</g>
	<g>
		<path fill="#585D5C" d="M24.6,105c-3,0-5.4,2.4-5.4,5.3c0,2.9,2.4,5.3,5.4,5.3c3,0,5.4-2.4,5.4-5.3C30,107.4,27.6,105,24.6,105z
			 M24.6,112.9c-1.4,0-2.6-1.1-2.6-2.5c0-1.4,1.2-2.5,2.6-2.5c1.4,0,2.6,1.1,2.6,2.5C27.1,111.7,26,112.9,24.6,112.9z"/>
		<path fill="#585D5C" d="M14.3,101.1c1.2,0,2.3-0.1,3.4-0.4l1.9,4.3c0.9-0.9,2.1-1.5,3.4-1.7l-1.8-4c4.3-2.4,7.3-7,7.3-12.2
			c0-0.8,0-1.4,0-1.4H0c0,0,0,0.6,0,1.4c0,5.3,2.9,9.8,7.3,12.2L0,115.7h4.1l1.6-3.5h11.8c-0.2-0.6-0.2-1.2-0.2-1.9
			c0-0.7,0.1-1.3,0.3-1.9H7.4l3.4-7.7C11.9,101,13.1,101.1,14.3,101.1z M2.9,88.5h4.2c0.4,4.3,2.5,7.9,5.5,9.7
			C7.6,97.5,3.6,93.5,2.9,88.5z"/>
	</g>
	<path fill="#585D5C" d="M-22.5,102.1c0-0.1,0-0.1,0-0.2c0-2-1.5-3.6-3.4-3.7c-0.3-0.3-0.6-0.5-0.9-0.8v-1.1c0.2,0,0.3,0,0.4,0
		c0.1,0,0.3,0,0.4,0c0.5,0,0.9-0.1,1.3-0.4c0.4,0.2,0.8,0.4,1.3,0.4c1.5,0,2.6-1.2,2.6-2.6c0-1.1-0.7-2.1-1.8-2.5c0-0.1,0-0.1,0-0.2
		c0-1.4-1.1-2.5-2.4-2.6c-0.5-0.5-1.2-0.9-2-0.9c-0.9,0-1.8,0.5-2.2,1.2c-0.4-0.2-0.8-0.4-1.3-0.4c-1.5,0-2.6,1.2-2.6,2.6
		c0,0,0,0.1,0,0.1c-1.1,0.3-2,1.3-2,2.6c0,1.5,1.2,2.7,2.7,2.7c0.6,0,1.1-0.2,1.5-0.5c0,0,0,0,0,0c0.4,0.2,0.8,0.4,1.3,0.4
		c0.3,0,0.6-0.1,0.9-0.2v0.7c0,0-0.1,0-0.1,0c-1.3,0-2.5,0.7-3.2,1.7c-0.4-0.2-0.8-0.4-1.2-0.4c-0.2-1-1-1.8-1.9-2.1
		c0-0.1,0-0.1,0-0.2c0-1.5-1.2-2.8-2.7-2.9c-0.5-0.6-1.3-1-2.2-1c-1.1,0-2,0.6-2.5,1.4c-0.4-0.2-0.9-0.4-1.4-0.4c-1.6,0-3,1.3-3,3
		c0,0.1,0,0.1,0,0.2c-1.3,0.3-2.2,1.5-2.2,2.9c0,1.6,1.3,3,3,3c0.6,0,1.2-0.2,1.7-0.5c0,0,0,0,0,0c0.4,0.3,0.9,0.4,1.5,0.4
		c0.3,0,0.7-0.1,1-0.2v3.3c-1.1-1.3-1.6-2.4-1.6-2.4h0c0,0-1.1,2.5-3.9,4.4c0,0,1.1,0.8,1.9,0.9c0,0-1.3,2.2-4.6,3.1
		c0,0,2.5,2.1,5.5,2v2.6h1.5h0.6v-2.6c3.1,0.1,5.5-2,5.5-2c-3.3-0.9-4.6-3.1-4.6-3.1c0.5-0.1,1.1-0.4,1.5-0.7
		c0.6,1.3,1.9,2.2,3.5,2.2c0.8,0,1.5-0.2,2.1-0.7c0,0,0,0,0,0c0.6,0.3,1.2,0.5,1.9,0.5c0.4,0,0.9-0.1,1.2-0.2v6.5h2.5v-6.2
		c0.2,0,0.4,0,0.6-0.1c0.2,0,0.4,0.1,0.6,0.1c0.7,0,1.3-0.2,1.9-0.5c0.6,0.3,1.2,0.5,1.9,0.5c2.1,0,3.7-1.7,3.7-3.7
		C-20,103.9-21.1,102.6-22.5,102.1z M-39.9,104v-2.2c0.2,0,0.3,0,0.5,0c0.2,0,0.3,0,0.5,0c0.5,0,1-0.2,1.5-0.4c0,0.1,0,0.3,0,0.5
		c0,0.1,0,0.1,0,0.2C-38.5,102.3-39.4,103-39.9,104z"/>
	<path fill="#585D5C" d="M-90.4,101.6c-1.4,0-2.3,1.1-2.6,2.6l-0.4,2.4l-6.6,6.6h6l1,2.4l1.1-2.7c2.3-0.7,4-2.9,4-5.5v-2l1.9-0.9
		l-1.9-0.9C-88.1,102.5-89.2,101.6-90.4,101.6z M-89.9,104.8c-0.3,0-0.6-0.3-0.6-0.6s0.3-0.6,0.6-0.6s0.6,0.3,0.6,0.6
		S-89.6,104.8-89.9,104.8z"/>
	<path fill="#585D5C" d="M-80,110.4c-0.6-0.6-1.4-0.9-2.2-0.9l0,0l-3,0l0,3l0,0c0,0.8,0.3,1.6,0.9,2.2c0,0,0,0,0,0
		c1.2,1.2,3.1,1.2,4.3,0c0.6-0.6,0.9-1.4,0.9-2.1C-79.1,111.8-79.4,111-80,110.4C-80,110.4-80,110.4-80,110.4z"/>
	<path fill="#585D5C" d="M-76.1,107c1.7,0,3-1.3,3-3c1.7,0,3-1.3,3-3c0-0.9-0.4-1.6-1-2.2c0.6-0.5,1-1.3,1-2.2c0-1.7-1.3-3-3-3
		c0-1.7-1.3-3-3-3c-0.9,0-1.6,0.4-2.2,1c-0.5-0.6-1.3-1-2.2-1c-1.7,0-3,1.3-3,3c-1.7,0-3,1.3-3,3c0,0.9,0.4,1.6,1,2.2
		c-0.6,0.5-1,1.3-1,2.2c0,1.7,1.3,3,3,3c0,1.7,1.3,3,3,3c0.5,0,1-0.1,1.4-0.3v5.9v3h1.6v-3c0,0.8,0.3,1.5,0.9,2.1
		c1.2,1.2,3.1,1.2,4.3,0c0,0,0,0,0,0c0.6-0.6,0.9-1.4,0.9-2.2l0,0l0-3l-3,0l0,0c-0.8,0-1.6,0.3-2.2,0.9c0,0,0,0,0,0
		c-0.6,0.6-0.9,1.4-0.9,2.1v-5.9C-77.1,106.9-76.6,107-76.1,107z M-78.3,104c-2.9,0-5.2-2.3-5.2-5.2c0-2.9,2.3-5.2,5.2-5.2
		c2.9,0,5.2,2.3,5.2,5.2C-73.1,101.7-75.4,104-78.3,104z"/>
	<path fill="#585D5C" d="M-97,146.3c0.6,0,1.2-0.2,1.7-0.5c0,0,0,0,0,0c0.4,0.3,0.9,0.4,1.5,0.4c0.3,0,0.7-0.1,1-0.2v5.1h2v-4.9
		c0.2,0,0.3,0,0.5,0c0.2,0,0.3,0,0.5,0c0.5,0,1-0.2,1.5-0.4c0.4,0.3,0.9,0.4,1.5,0.4c1.6,0,3-1.3,3-3c0-1.3-0.8-2.4-2-2.8
		c0-0.1,0-0.1,0-0.2c0-1.5-1.2-2.8-2.7-2.9c-0.5-0.6-1.3-1-2.2-1c-1.1,0-2,0.6-2.5,1.4c-0.4-0.2-0.9-0.4-1.4-0.4c-1.6,0-3,1.3-3,3
		c0,0.1,0,0.1,0,0.2c-1.3,0.3-2.2,1.5-2.2,2.9C-100,144.9-98.7,146.3-97,146.3z"/>
	<rect x="-71.7" y="163.4" fill="none" width="3.3" height="3.3"/>
	<path fill="#585D5C" d="M-85,144.5L-85,144.5c7.7,4.9-14.3,4.6-15,12.1h19.7C-92.8,153.7-75.3,146.6-85,144.5z"/>
	<g>
		<path fill="#585D5C" d="M-75,138.6c0,0-0.2,0-0.2-0.4c0-0.4-0.4-0.8-0.8-0.8c-0.5,0-0.8,0.4-0.8,0.8c0,0.4-0.2,0.4-0.2,0.4
			c-0.1,0-0.2,0.1-0.2,0.2c0,0.1,0.1,0.2,0.2,0.2h2.1c0.1,0,0.2-0.1,0.2-0.2C-74.8,138.7-74.8,138.6-75,138.6z"/>
		<circle fill="#585D5C" cx="-76" cy="139.7" r="0.4"/>
		<circle fill="#585D5C" cx="-76" cy="134" r="0.6"/>
		<path fill="#585D5C" d="M-72.2,144.2l-1.3-3.8v-3.3c0.2,0,0.4-0.2,0.4-0.4s-0.2-0.4-0.4-0.4h-0.8c0-0.9-0.7-1.7-1.7-1.7
			c-0.9,0-1.7,0.7-1.7,1.7h-0.8c-0.2,0-0.4,0.2-0.4,0.4s0.2,0.4,0.4,0.4v3.3l-1.3,3.8h-2.1v1.3h0.8v2.5v3.3v2.8h10v-2.8V148v-2.5
			h0.8v-1.3H-72.2z M-77.7,137.1h3.3v3.3h-3.3V137.1z M-76.8,151.3L-76.8,151.3l0,1.2h-2.5v-1.2V148v0c0-0.7,0.6-1.3,1.3-1.3
			c0.7,0,1.3,0.6,1.3,1.3v0V151.3z M-72.7,151.3L-72.7,151.3l0,1.2h-2.5v-1.2V148v0c0-0.7,0.6-1.3,1.3-1.3c0.7,0,1.3,0.6,1.3,1.3v0
			V151.3z"/>
	</g>
	<path fill="#585D5C" d="M-82.7,131.9c0.8-0.2,1.9-0.9,1.9-0.9c-2.8-1.9-3.9-4.4-3.9-4.4h0c0,0-1.1,2.5-3.9,4.4c0,0,1.1,0.8,1.9,0.9
		c0,0-1.3,2.2-4.6,3.1c0,0,2.5,2.1,5.5,2v2.6h1.5h0.6v-2.6c3.1,0.1,5.5-2,5.5-2C-81.3,134.1-82.7,131.9-82.7,131.9z"/>
	<g>
		<path fill="#585D5C" d="M-82.5,171.5c0,0-0.3,0-0.3-0.6c0-0.6-0.5-1.2-1.2-1.2c-0.7,0-1.2,0.5-1.2,1.2c0,0.6-0.3,0.6-0.3,0.6
			c-0.2,0-0.3,0.1-0.3,0.3c0,0.2,0.1,0.3,0.3,0.3h3c0.2,0,0.3-0.1,0.3-0.3C-82.2,171.6-82.3,171.5-82.5,171.5z"/>
		<circle fill="#585D5C" cx="-84" cy="173" r="0.6"/>
		<circle fill="#585D5C" cx="-84" cy="164.8" r="0.9"/>
		<path fill="#585D5C" d="M-78.6,179.4l-1.8-5.4v-4.8c0.3,0,0.6-0.3,0.6-0.6s-0.3-0.6-0.6-0.6h-1.2c0-1.3-1.1-2.4-2.4-2.4
			c-1.3,0-2.4,1.1-2.4,2.4h-1.2c-0.3,0-0.6,0.3-0.6,0.6s0.3,0.6,0.6,0.6v4.8l-1.8,5.4h-3v1.8h1.2v3.6v4.7v4h14.3v-4v-4.7v-3.6h1.2
			v-1.8H-78.6z M-86.4,169.2h4.8v4.8h-4.8V169.2z M-85.2,189.6L-85.2,189.6l0,1.8h-3.6v-1.8v-4.7v-0.1c0-1,0.8-1.8,1.8-1.8
			c1,0,1.8,0.8,1.8,1.8v0.1V189.6z M-79.2,189.6L-79.2,189.6l0,1.8h-3.6v-1.8v-4.7v-0.1c0-1,0.8-1.8,1.8-1.8c1,0,1.8,0.8,1.8,1.8
			v0.1V189.6z"/>
	</g>
	<g>
		<path fill="#585D5C" d="M-24.6,144.5L-24.6,144.5c7.7,4.9-14.3,4.6-15,12.1h19.7C-32.3,153.7-14.9,146.6-24.6,144.5z"/>
		<path fill="#585D5C" d="M-38.4,150.5v-6.2c0.2,0,0.4,0,0.6-0.1c0.2,0,0.4,0.1,0.6,0.1c0.7,0,1.3-0.2,1.9-0.5
			c0.6,0.3,1.2,0.5,1.9,0.5c2.1,0,3.7-1.7,3.7-3.7c0-1.6-1.1-3-2.5-3.5c0-0.1,0-0.1,0-0.2c0-0.5-0.1-0.9-0.2-1.3
			c0.9,0.6,2.8,1.6,5,1.6v2.6h1.5h0.6v-2.6c3.1,0.1,5.5-2,5.5-2c-3.3-0.9-4.6-3.1-4.6-3.1c0.8-0.2,1.9-0.9,1.9-0.9
			c-2.8-1.9-3.9-4.4-3.9-4.4h0c0,0-1.1,2.5-3.9,4.4c0,0,1.1,0.8,1.9,0.9c0,0-1.2,2-4.3,3c-0.6-1-1.7-1.8-2.9-1.9
			c-0.7-0.8-1.7-1.3-2.8-1.3c-1.3,0-2.5,0.7-3.2,1.7c-0.5-0.3-1.2-0.5-1.8-0.5c-2.1,0-3.7,1.7-3.7,3.7c0,0.1,0,0.1,0,0.2
			c-1.6,0.4-2.8,1.9-2.8,3.7c0,2.1,1.7,3.8,3.8,3.8c0.8,0,1.5-0.2,2.1-0.7c0,0,0,0,0,0c0.6,0.3,1.2,0.5,1.9,0.5
			c0.4,0,0.9-0.1,1.2-0.2v6.5H-38.4z"/>
	</g>
	<path fill="#585D5C" d="M-23.5,180.1c0-0.1,0-0.1,0-0.2c0-2-1.5-3.6-3.4-3.7c-0.7-0.8-1.7-1.3-2.8-1.3c-1.3,0-2.5,0.7-3.2,1.7
		c-0.5-0.3-1-0.4-1.5-0.5c0.1-0.3,0.2-0.7,0.2-1.1c0-1.1-0.7-2.1-1.8-2.5c0-0.1,0-0.1,0-0.2c0-1.4-1.1-2.5-2.4-2.6
		c-0.5-0.5-1.2-0.9-2-0.9c-0.9,0-1.8,0.5-2.2,1.2c-0.4-0.2-0.8-0.4-1.3-0.4c-1.5,0-2.6,1.2-2.6,2.6c0,0,0,0.1,0,0.1
		c-1.1,0.3-2,1.3-2,2.6c0,1.5,1.2,2.7,2.7,2.7c0.6,0,1.1-0.2,1.5-0.5c0,0,0,0,0,0c0.4,0.2,0.8,0.4,1.3,0.4c0.3,0,0.6-0.1,0.9-0.2
		v1.7c-0.5,0.2-1,0.6-1.3,1.1c-0.4-0.2-0.9-0.4-1.4-0.4c-1.6,0-3,1.3-3,3c0,0.1,0,0.1,0,0.2c-1.3,0.3-2.2,1.5-2.2,2.9
		c0,1.6,1.3,3,3,3c0.6,0,1.2-0.2,1.7-0.5c0,0,0,0,0,0c0.4,0.3,0.9,0.4,1.5,0.4c0.3,0,0.7-0.1,1-0.2v5.1h2v-4.9c0.2,0,0.3,0,0.5,0
		c0.2,0,0.3,0,0.5,0c0.5,0,1-0.2,1.5-0.4c0.4,0.3,0.9,0.4,1.5,0.4c1.1,0,2.1-0.6,2.6-1.5c0.3,0.1,0.6,0.1,0.9,0.1
		c0.4,0,0.9-0.1,1.2-0.2v6.5h2.5v-6.2c0.2,0,0.4,0,0.6-0.1c0.2,0,0.4,0.1,0.6,0.1c0.7,0,1.3-0.2,1.9-0.5c0.6,0.3,1.2,0.5,1.9,0.5
		c2.1,0,3.7-1.7,3.7-3.7C-21,182-22.1,180.6-23.5,180.1z M-39.9,177.7c0.1,0,0.3,0,0.4,0c0.5,0,0.9-0.1,1.3-0.4
		c0.1,0.1,0.3,0.1,0.5,0.2c-0.5,0.6-0.8,1.4-0.8,2.3c0,0,0,0.1,0,0.1c-0.1,0-0.1,0-0.2,0c-0.4-0.5-1-0.8-1.6-0.9v-1.3
		C-40.2,177.8-40,177.7-39.9,177.7z"/>
	<g>
		<path fill="#010101" d="M0,14.5v0.3C0,14.7,0,14.6,0,14.5L0,14.5z"/>
		<path fill="#010101" d="M0,15.5L0,15.5c0-0.1,0-0.2,0-0.3V15.5z"/>
		<path fill="#010101" d="M18.5,14.5H30C29.8,10,27.7,6,24.4,3.3C20.9,5.9,18.6,9.9,18.5,14.5z"/>
		<path fill="#010101" d="M24.4,26.7C27.7,24,29.8,20,30,15.5H18.5C18.7,20.1,21,24.1,24.4,26.7z"/>
		<path fill="#010101" d="M23.5,2.7c-2.3-1.6-5-2.6-8-2.7v14.5h2C17.6,9.7,20,5.5,23.5,2.7z"/>
		<path fill="#010101" d="M17.5,15.5h-2V30c3-0.1,5.8-1.1,8.1-2.7C20,24.6,17.7,20.3,17.5,15.5z"/>
		<path fill="#010101" d="M11.3,15.5H0C0.2,20,2.3,24,5.5,26.6C8.9,24.1,11.1,20.1,11.3,15.5z"/>
		<path fill="#010101" d="M5.5,3.4C2.3,6.1,0.1,10.1,0,14.5h11.3C11.1,10,8.9,6,5.5,3.4z"/>
		<path fill="#010101" d="M6.3,27.2c2.3,1.7,5.2,2.7,8.2,2.8V15.5h-2.2C12.1,20.3,9.8,24.5,6.3,27.2z"/>
		<path fill="#010101" d="M12.3,14.5h2.2V0c-3,0.1-5.9,1.1-8.2,2.7C9.8,5.5,12.1,9.8,12.3,14.5z"/>
	</g>
</g>
</svg>
