<?xml version="1.0" encoding="utf-8"?>
<!-- Generator: Adobe Illustrator 18.0.0, SVG Export Plug-In . SVG Version: 6.00 Build 0)  -->
<!DOCTYPE svg PUBLIC "-//W3C//DTD SVG 1.0//EN" "http://www.w3.org/TR/2001/REC-SVG-20010904/DTD/svg10.dtd">
<svg version="1.0" xmlns="http://www.w3.org/2000/svg" xmlns:xlink="http://www.w3.org/1999/xlink" x="0px" y="0px"
	 viewBox="0 0 30 30" enable-background="new 0 0 30 30" xml:space="preserve">
<g id="Layer_1">
	<path fill-rule="evenodd" clip-rule="evenodd" d="M-85-326c-8.3,0-15,6.7-15,15c0,8.3,6.7,15,15,15s15-6.7,15-15
		C-70-319.3-76.7-326-85-326z M-86.9-299.8v-9.4h-9.4l18.7-9.4L-86.9-299.8z"/>
</g>
<g id="Layer_2">
	<path fill-rule="evenodd" clip-rule="evenodd" d="M122.2-276.1h-15c-2.1,0-3.7,1.7-3.7,3.8v22.5c0,2.1,1.7,3.7,3.7,3.7h15
		c2.1,0,3.7-1.7,3.7-3.7v-22.5C126-274.4,124.3-276.1,122.2-276.1z M124.5-249.8c0,1.2-1,2.2-2.2,2.2h-15c-1.2,0-2.2-1-2.2-2.2
		v-22.5c0-1.2,1-2.2,2.2-2.2h15c1.2,0,2.2,1,2.2,2.2V-249.8z"/>
	<path fill-rule="evenodd" clip-rule="evenodd" d="M-26.6-312.9c3.6,0,6.6,3,6.6,6.7c0,3.7-2.9,6.7-6.6,6.7c-3.6,0-6.6-3-6.6-6.7
		c0-2.3,1.2-4.4,2.9-5.6l-0.4-0.7l-1.1-2.1l-0.1-0.3h-6.8c-0.8,0-1.5,0.5-1.7,1.3l-0.4,1.2c2.3,1.1,3.9,3.4,3.9,6.1
		c0,3.7-2.9,6.7-6.6,6.7c-3.6,0-6.6-3-6.6-6.7c0-3.7,2.9-6.7,6.6-6.7c0.3,0,0.6,0.1,0.9,0.1l1-3.3c0.1-0.4,0.5-0.7,0.9-0.7h9.9
		l1.7-3.8h-3.2c-0.5,0-0.9-0.4-0.9-1c0-0.5,0.4-1,0.9-1h4.1h0.6c0.3,0,0.6,0.2,0.8,0.4c0.2,0.3,0.2,0.6,0.1,0.9l-0.3,0.6l-2.7,5.9
		l1.1,2.1C-27.9-312.8-27.2-312.9-26.6-312.9z M-41.3-310.5l-1,3c-0.1,0.2-0.2,0.4-0.5,0.6c-0.2,0.1-0.5,0.1-0.7,0.1
		c-0.5-0.2-0.8-0.7-0.6-1.2l0.9-2.9c-0.1,0-0.2,0-0.3,0c-2.6,0-4.7,2.1-4.7,4.8c0,2.6,2.1,4.8,4.7,4.8c2.6,0,4.7-2.1,4.7-4.8
		C-38.7-308.1-39.8-309.7-41.3-310.5z M-31.3-306.2c0,2.6,2.1,4.8,4.7,4.8s4.7-2.1,4.7-4.8c0-2.6-2.1-4.8-4.7-4.8
		c-0.3,0-0.7,0-1,0.1l2.3,4.3c0.1,0.2,0.1,0.5,0.1,0.7c-0.1,0.2-0.2,0.5-0.5,0.6l0,0c-0.5,0.2-1,0.1-1.2-0.4l-2.4-4.5
		C-30.5-309.2-31.3-307.8-31.3-306.2z M-40.6-318.7h-2.8c-0.5,0-0.9-0.4-0.9-1c0-0.5,0.4-1,0.9-1h5.6c0.2,0,0.3,0.1,0.3,0.2
		c0.1,0.1,0,0.3-0.1,0.4C-38.4-319.2-39.2-318.7-40.6-318.7z"/>
	<path fill-rule="evenodd" clip-rule="evenodd" d="M29.1-312h-0.9v-5.6h0.9c0.5,0,0.9,0.4,0.9,0.9v3.7C30-312.4,29.6-312,29.1-312z
		 M24.4-300.8v1.9c0,1-0.8,1.9-1.9,1.9h-1.9c-1,0-1.9-0.8-1.9-1.9v-1.9h-7.5v1.9c0,1-0.8,1.9-1.9,1.9H7.5c-1,0-1.9-0.8-1.9-1.9v-1.9
		c-1,0-1.9-0.8-1.9-1.9v-16.8c0-3.1,2.5-5.6,5.6-5.6h11.2c3.1,0,5.6,2.5,5.6,5.6v16.8C26.2-301.6,25.4-300.8,24.4-300.8z M7.5-302.6
		c1,0,1.9-0.8,1.9-1.9c0-1-0.8-1.9-1.9-1.9c-1,0-1.9,0.8-1.9,1.9C5.6-303.5,6.5-302.6,7.5-302.6z M18.7-323.2h-7.5v1.9h7.5V-323.2z
		 M24.4-319.4H5.6v11.2h18.7V-319.4z M22.5-306.4c-1,0-1.9,0.8-1.9,1.9c0,1,0.8,1.9,1.9,1.9c1,0,1.9-0.8,1.9-1.9
		C24.4-305.5,23.5-306.4,22.5-306.4z M0-312.9v-3.7c0-0.5,0.4-0.9,0.9-0.9h0.9v5.6H0.9C0.4-312,0-312.4,0-312.9z"/>
	<path fill-rule="evenodd" clip-rule="evenodd" d="M74.4-309.2c0,2-1.7,3.7-3.7,3.7H59.4c-2.1,0-3.7-1.6-3.7-3.7V-322h18.7v1.8
		c3.1,0,5.6,2.5,5.6,5.5C80-311.7,77.5-309.2,74.4-309.2z M59.4-320.2h-1.9v11c0,1,0.8,1.8,1.9,1.8V-320.2z M74.4-318.4v7.3
		c2.1,0,3.7-1.6,3.7-3.7C78.1-316.7,76.4-318.4,74.4-318.4z M80-301.9c0,1-0.8,1.8-1.9,1.8H51.9c-1,0-1.9-0.8-1.9-1.8
		c0-1,0.8-1.8,1.9-1.8h26.2C79.2-303.7,80-302.9,80-301.9z"/>
	<g>
		<polygon fill-rule="evenodd" clip-rule="evenodd" points="128,-320.5 128,-298.5 102,-298.5 102,-296.5 130,-296.5 130,-297.5 
			130,-298.5 130,-320.5 		"/>
		<path fill-rule="evenodd" clip-rule="evenodd" d="M126-322.5h-3c0,1.7-1.3,3-3,3c-1.7,0-3-1.3-3-3h-7c0,1.7-1.3,3-3,3
			c-1.7,0-3-1.3-3-3h-4v22h26V-322.5z M124-302.5h-22v-15h22V-302.5z"/>
		<path fill-rule="evenodd" clip-rule="evenodd" d="M107-321.5c0.6,0,1-0.4,1-1v-2c0-0.6-0.4-1-1-1s-1,0.4-1,1v2
			C106-322,106.4-321.5,107-321.5z"/>
		<path fill-rule="evenodd" clip-rule="evenodd" d="M120-321.5c0.6,0,1-0.4,1-1v-2c0-0.6-0.4-1-1-1s-1,0.4-1,1v2
			C119-322,119.4-321.5,120-321.5z"/>
		<rect x="106" y="-314.5" fill-rule="evenodd" clip-rule="evenodd" width="3" height="3"/>
		<rect x="112" y="-314.5" fill-rule="evenodd" clip-rule="evenodd" width="3" height="3"/>
		<rect x="117" y="-314.5" fill-rule="evenodd" clip-rule="evenodd" width="3" height="3"/>
		<rect x="106" y="-309.5" fill-rule="evenodd" clip-rule="evenodd" width="3" height="3"/>
		<rect x="112" y="-309.5" fill-rule="evenodd" clip-rule="evenodd" width="3" height="3"/>
		<rect x="117" y="-309.5" fill-rule="evenodd" clip-rule="evenodd" width="3" height="3"/>
	</g>
	<g>
		<path fill-rule="evenodd" clip-rule="evenodd" d="M157-322c0.6,0,1-0.4,1-1v-2c0-0.6-0.4-1-1-1s-1,0.4-1,1v2
			C156-322.5,156.4-322,157-322z"/>
		<path fill-rule="evenodd" clip-rule="evenodd" d="M170-322c0.6,0,1-0.4,1-1v-2c0-0.6-0.4-1-1-1s-1,0.4-1,1v2
			C169-322.5,169.4-322,170-322z"/>
		<rect x="156" y="-315" fill-rule="evenodd" clip-rule="evenodd" width="3" height="3"/>
		<rect x="162" y="-315" fill-rule="evenodd" clip-rule="evenodd" width="3" height="3"/>
		<rect x="167" y="-315" fill-rule="evenodd" clip-rule="evenodd" width="3" height="3"/>
		<rect x="156" y="-310" fill-rule="evenodd" clip-rule="evenodd" width="3" height="3"/>
		<rect x="162" y="-310" fill-rule="evenodd" clip-rule="evenodd" width="3" height="3"/>
		<rect x="152" y="-299" fill-rule="evenodd" clip-rule="evenodd" width="17" height="2"/>
		<rect x="178" y="-321" fill-rule="evenodd" clip-rule="evenodd" width="2" height="13"/>
		<path fill-rule="evenodd" clip-rule="evenodd" d="M152-318h22v10h2v-15h-3c0,1.7-1.3,3-3,3s-3-1.3-3-3h-7c0,1.7-1.3,3-3,3
			s-3-1.3-3-3h-4v22h19v-2h-17V-318z"/>
		<path fill-rule="evenodd" clip-rule="evenodd" d="M175-307c-2.8,0-5,2.2-5,5c0,2.8,2.2,5,5,5s5-2.2,5-5
			C180-304.8,177.8-307,175-307z M178-301h-2v2h-2v-2h-2v-2h2v-2h2v2h2V-301z"/>
		<rect x="167" y="-310" fill-rule="evenodd" clip-rule="evenodd" width="3" height="3"/>
	</g>
	<g>
		
			<rect x="-78.9" y="-253.8" transform="matrix(-0.5 -0.866 0.866 -0.5 102.5274 -447.4649)" fill-rule="evenodd" clip-rule="evenodd" width="2" height="1"/>
		
			<rect x="-80.9" y="-257.3" transform="matrix(-0.5 -0.866 0.866 -0.5 102.5393 -454.3821)" fill-rule="evenodd" clip-rule="evenodd" width="2" height="1"/>
		
			<rect x="-82.9" y="-260.8" transform="matrix(-0.5 -0.866 0.866 -0.5 102.5271 -461.3216)" fill-rule="evenodd" clip-rule="evenodd" width="2" height="1"/>
		
			<rect x="-84.4" y="-264.7" transform="matrix(-0.866 0.5 -0.5 -0.866 -288.4226 -450.1583)" fill-rule="evenodd" clip-rule="evenodd" width="1" height="2"/>
		
			<rect x="-72.2" y="-258.3" transform="matrix(0.7072 -0.707 0.707 0.7072 160.9201 -125.9965)" fill-rule="evenodd" clip-rule="evenodd" width="1" height="2"/>
		
			<rect x="-75.5" y="-260.6" transform="matrix(-0.7071 -0.7071 0.7071 -0.7071 56.7778 -496.7005)" fill-rule="evenodd" clip-rule="evenodd" width="2" height="1"/>
		
			<rect x="-78.3" y="-263.4" transform="matrix(-0.7072 -0.7071 0.7071 -0.7072 53.9234 -503.5429)" fill-rule="evenodd" clip-rule="evenodd" width="2" height="1"/>
		
			<rect x="-81.1" y="-266.3" transform="matrix(0.7072 0.707 -0.707 0.7072 -211.3782 -21.1594)" fill-rule="evenodd" clip-rule="evenodd" width="2" height="1"/>
		
			<rect x="-84.3" y="-251.2" transform="matrix(-0.2588 -0.9659 0.9659 -0.2588 137.2646 -396.1302)" fill-rule="evenodd" clip-rule="evenodd" width="2" height="1"/>
		
			<rect x="-84.9" y="-255.6" transform="matrix(0.9659 -0.2589 0.2589 0.9659 63.0406 -30.53)" fill-rule="evenodd" clip-rule="evenodd" width="1" height="2"/>
		
			<rect x="-85.9" y="-259.5" transform="matrix(0.9659 -0.2589 0.2589 0.9659 64.002 -30.9275)" fill-rule="evenodd" clip-rule="evenodd" width="1" height="2"/>
		
			<rect x="-87" y="-263.3" transform="matrix(0.9659 -0.2589 0.2589 0.9659 64.9707 -31.3296)" fill-rule="evenodd" clip-rule="evenodd" width="1" height="2"/>
		<rect x="-90.4" y="-250.5" fill-rule="evenodd" clip-rule="evenodd" width="1" height="2"/>
		<rect x="-90.4" y="-254.5" fill-rule="evenodd" clip-rule="evenodd" width="1" height="2"/>
		<rect x="-90.4" y="-258.5" fill-rule="evenodd" clip-rule="evenodd" width="1" height="2"/>
		<rect x="-90.4" y="-262.5" fill-rule="evenodd" clip-rule="evenodd" width="1" height="2"/>
		<path fill-rule="evenodd" clip-rule="evenodd" d="M-83-272.3l-3.1,1.8c-1.1-2.4-3.5-4-6.3-4c-3.9,0-7,3.1-7,7v20h4v-20
			c0-1.7,1.3-3,3-3c1.3,0,2.4,0.8,2.8,2l-3.8,2.2l1.5,2.6l10.4-6L-83-272.3z"/>
	</g>
	<path fill-rule="evenodd" clip-rule="evenodd" d="M-20.3-250.7l-9.3-9.6l9.4-9.8c0.1,0.2,0.1,0.5,0.1,0.7v17.6
		C-20-251.3-20.1-251-20.3-250.7z M-48.3-271.5l0.2,0h26.2l0.3,0.1L-35-257.6L-48.3-271.5z M-49.8-250.8c-0.1-0.3-0.2-0.6-0.2-0.9
		v-17.6c0-0.3,0.1-0.6,0.1-0.9l9.4,9.9L-49.8-250.8z M-35-254.7l4-4.1l9,9.3h-26.2l-0.1,0l9.2-9.3L-35-254.7z"/>
	<path d="M0-276v30h30v-30H0z M20.3-255.5c0,0-6,6.5-7.9,7.3c0,0-7.2-5.9-9.4-9.5c-2.2-3.6-2.9-6.9,1.3-9.1c4.3-2.3,7.8,2.1,8.1,3
		c0,0,3.2-5.8,8.9-2.5C27.1-262.9,20.3-255.5,20.3-255.5z M28-270h-3v3h-2v-3h-3v-2h3v-3h2v3h3V-270z"/>
	<path d="M9-266v11l3.5-2.6l-0.4,5.6l-1.3-0.4l1.6,3.2l2.3-2.7l-1.1,0L15-261l-4,2v-5L9-266z"/>
	<path fill-rule="evenodd" clip-rule="evenodd" d="M62-272h1v23h-1V-272z"/>
	<path fill-rule="evenodd" clip-rule="evenodd" d="M78.6-259.1l-2.8-4.3l-1.1,2.2l3.9,6.4H75l-0.6,5.7h-2.8l-0.6-5.7h-3.6l3.9-6.4
		l-1.1-2.2l-2.8,4.3H66l2.3-5.9c0.3-0.8,1.1-1.3,1.9-1.3h1.4l1.4,2.9l1.4-2.9h1.4c0.8,0,1.6,0.5,1.9,1.3l2.3,5.9H78.6z M73-267.7
		c-1.2,0-2.1-1-2.1-2.2c0-1.2,0.9-2.2,2.1-2.2c1.2,0,2.1,1,2.1,2.2C75.1-268.7,74.2-267.7,73-267.7z"/>
	<path fill-rule="evenodd" clip-rule="evenodd" d="M56.1-257.7l-0.8,8.6h-2.7l-0.8-8.6H50v-7.6c0.6-0.3,1.3-0.6,2.1-0.8L54-262
		l1.9-4.1c0.8,0.2,1.5,0.4,2.1,0.8v7.6H56.1z M54-267.7c-1.1,0-2-1-2-2.2c0-1.2,0.9-2.2,2-2.2s2,1,2,2.2
		C56-268.7,55.1-267.7,54-267.7z"/>
	<path fill-rule="evenodd" clip-rule="evenodd" d="M177.5-256.2l-10.6-5.9c0-0.6,0.4-1.2,0.9-1.5c1.7-1,2.8-2.8,2.8-4.8
		c0-3.1-2.5-5.6-5.6-5.6s-5.6,2.5-5.6,5.6c0,1,0.8,1.9,1.9,1.9c1,0,1.9-0.8,1.9-1.9c0-1,0.8-1.9,1.9-1.9s1.9,0.8,1.9,1.9
		c0,0.7-0.4,1.3-0.9,1.6c-1.7,1-2.8,2.8-2.8,4.7l-10.7,6c-1.4,0.9-2.4,2.8-2.4,4.4c0,2,1.7,3.7,3.7,3.7h22.5c2.1,0,3.7-1.7,3.7-3.7
		C180-253.4,179-255.3,177.5-256.2z M153.8-251.7c0-0.4,0.4-1.1,0.6-1.2l10.6-5.9l10.5,5.9c0.3,0.2,0.7,0.9,0.7,1.3H153.8z"/>
	<path fill-rule="evenodd" clip-rule="evenodd" d="M0-202.8h30v1H0V-202.8z"/>
	<path fill-rule="evenodd" clip-rule="evenodd" d="M13-201.8h4c1.1,0,2-0.9,2-2h-8C11-202.7,11.9-201.8,13-201.8z"/>
	<path fill-rule="evenodd" clip-rule="evenodd" d="M23-201.8h4c1.1,0,2-0.9,2-2h-8C21-202.7,21.9-201.8,23-201.8z"/>
	<path fill-rule="evenodd" clip-rule="evenodd" d="M17-212.8h-4c-1.1,0-2,0.9-2,2v6h8v-6C19-211.9,18.1-212.8,17-212.8z M16.5-211
		h-3.1c-0.3,0-0.5-0.2-0.5-0.5c0-0.3,0.2-0.5,0.5-0.5h3.1c0.3,0,0.5,0.2,0.5,0.5C17-211.2,16.8-211,16.5-211z"/>
	<path fill-rule="evenodd" clip-rule="evenodd" d="M27-212.8h-4c-1.1,0-2,0.9-2,2v6h8v-6C29-211.9,28.1-212.8,27-212.8z M26.5-211
		h-3.1c-0.3,0-0.5-0.2-0.5-0.5c0-0.3,0.2-0.5,0.5-0.5h3.1c0.3,0,0.5,0.2,0.5,0.5C27-211.2,26.8-211,26.5-211z"/>
	<path fill-rule="evenodd" clip-rule="evenodd" d="M16-210.8h8v1h-8V-210.8z"/>
	<path fill-rule="evenodd" clip-rule="evenodd" d="M0-202.8h1v3H0V-202.8z"/>
	<path fill-rule="evenodd" clip-rule="evenodd" d="M29-202.8h1v3h-1V-202.8z"/>
	<path fill-rule="evenodd" clip-rule="evenodd" d="M3-201.8h4c1.1,0,2-0.9,2-2H1C1-202.7,1.9-201.8,3-201.8z"/>
	<path fill-rule="evenodd" clip-rule="evenodd" d="M7-212.8H3c-1.1,0-2,0.9-2,2v6h8v-6C9-211.9,8.1-212.8,7-212.8z M6.5-211H3.5
		c-0.3,0-0.5-0.2-0.5-0.5c0-0.3,0.2-0.5,0.5-0.5h3.1c0.3,0,0.5,0.2,0.5,0.5C7-211.2,6.8-211,6.5-211z"/>
	<path fill-rule="evenodd" clip-rule="evenodd" d="M6-210.8h8v1H6V-210.8z"/>
	<path fill="none" d="M11.5-217.9H8.5c-0.3,0-0.5,0.2-0.5,0.5c0,0.3,0.2,0.5,0.5,0.5h3.1c0.3,0,0.5-0.2,0.5-0.5
		C12-217.7,11.8-217.9,11.5-217.9z"/>
	<path fill="none" d="M22-217.4c0-0.3-0.2-0.5-0.5-0.5h-3.1c-0.3,0-0.5,0.2-0.5,0.5c0,0.3,0.2,0.5,0.5,0.5h3.1
		C21.8-217,22-217.2,22-217.4z"/>
	<path fill="none" d="M12-217.4c0-0.3-0.2-0.5-0.5-0.5H8.5c-0.3,0-0.5,0.2-0.5,0.5c0,0.3,0.2,0.5,0.5,0.5h3.1
		C11.8-217,12-217.2,12-217.4z"/>
	<path d="M23-213.3h1v-3.5c0-1.1-0.9-2-2-2h-4c-1.1,0-2,0.9-2,2v3.5h1c1.4,0,2.5,1.1,2.5,2.5v1h1v-1C20.5-212.2,21.6-213.3,23-213.3
		z M18.5-217c-0.3,0-0.5-0.2-0.5-0.5c0-0.3,0.2-0.5,0.5-0.5h3.1c0.3,0,0.5,0.2,0.5,0.5c0,0.3-0.2,0.5-0.5,0.5H18.5z"/>
	<path d="M13-213.3h1v-3.5c0-1.1-0.9-2-2-2H8c-1.1,0-2,0.9-2,2v3.5h1c1.4,0,2.5,1.1,2.5,2.5v1h1v-1C10.5-212.2,11.6-213.3,13-213.3z
		 M8.5-217c-0.3,0-0.5-0.2-0.5-0.5c0-0.3,0.2-0.5,0.5-0.5h3.1c0.3,0,0.5,0.2,0.5,0.5c0,0.3-0.2,0.5-0.5,0.5H8.5z"/>
	<g>
		<path d="M-79.9-202.1c-0.5-0.3-1.2-0.2-1.5,0.4c-1.4,2.2-3.7,3.5-6.3,3.5c-4.1,0-7.4-3.4-7.4-7.5c0-2.4,1.2-4.7,3.1-6.1
			c0.5-0.4,0.6-1,0.2-1.5c-0.4-0.5-1-0.6-1.5-0.3c-2.5,1.8-4,4.8-4,7.9c0,5.3,4.3,9.7,9.6,9.7c3.3,0,6.4-1.7,8.1-4.6
			C-79.2-201.1-79.3-201.8-79.9-202.1z"/>
		<path d="M-72.3-201.5c-0.2-0.6-0.8-0.9-1.4-0.7l-1.3,0.5c0,0-2.4-6.8-2.5-6.9c0,0-0.1-0.1-0.1-0.2c-0.3-0.5-0.9-0.9-1.5-0.9h-5.7
			l-0.1-2.1h4.7c0.6,0,1.1-0.5,1.1-1.1c0-0.6-0.5-1.1-1.1-1.1H-85l-0.2-3.1c0,0,0-0.1,0-0.1c-0.1-1.5-1.4-2.7-2.9-2.6
			c-1.5,0.1-2.7,1.4-2.6,2.9v0l0,0l0.4,8.1l0,0c0,0,0,0,0,0c0.1,1.5,1.3,2.6,2.7,2.6c0,0,7.4,0,7.4,0l2.2,6.1
			c0.2,0.7,0.9,1.1,1.5,1.1c0.1,0,0.2,0,0.3,0c0.1,0,0.1,0,0.2-0.1l2.9-1.1C-72.4-200.2-72.1-200.9-72.3-201.5z"/>
		
			<ellipse transform="matrix(5.248704e-02 0.9986 -0.9986 5.248704e-02 -306.6661 -123.8426)" cx="-88.1" cy="-223.5" rx="2.5" ry="2.5"/>
	</g>
	<g>
		<path fill-rule="evenodd" clip-rule="evenodd" d="M-23-215.8c0-0.1,0-0.1,0-0.2c0-2-1.5-3.6-3.4-3.7c-0.7-0.8-1.7-1.3-2.8-1.3
			c-1.3,0-2.5,0.7-3.2,1.7c-0.5-0.3-1.2-0.5-1.8-0.5c-2.1,0-3.7,1.7-3.7,3.7c0,0.1,0,0.1,0,0.2c-1.5,0.5-2.5,1.9-2.5,3.5
			c0,0.1,0,0.2,0,0.2h-6h-1h-2v2h2v1h-2v1h2v1v1h1h7h1v-1v-1h2v-0.5c0.6,0,1.1-0.2,1.6-0.5c0.6,0.3,1.2,0.5,1.9,0.5
			c0.4,0,0.9-0.1,1.2-0.2v6.5H-33v1.2h5v-1.2h-1.2v-6.2c0.2,0,0.4,0,0.6-0.1c0.2,0,0.4,0.1,0.6,0.1c0.7,0,1.3-0.2,1.9-0.5
			c0.6,0.3,1.2,0.5,1.9,0.5c2.1,0,3.7-1.7,3.7-3.7C-20.5-213.9-21.6-215.3-23-215.8z M-46.5-210h6.8c0.1,0.1,0.1,0.2,0.2,0.3v0.7h-7
			V-210z M-39.5-207h-7v-1h7V-207z"/>
		<polygon fill-rule="evenodd" clip-rule="evenodd" points="-39.5,-205 -46.5,-205 -48.5,-205 -49.5,-205 -49.5,-204 -48.5,-204 
			-48.5,-201 -46.5,-201 -46.5,-204 -45.5,-204 -45.5,-202 -44.5,-202 -44.5,-204 -41.5,-204 -41.5,-202 -40.5,-202 -40.5,-204 
			-39.5,-204 -39.5,-201 -37.5,-201 -37.5,-204 -36.5,-204 -36.5,-205 -37.5,-205 		"/>
	</g>
	<g>
		<path fill-rule="evenodd" clip-rule="evenodd" d="M115.8-265.1c-0.1-0.2-0.2-0.4-0.4-0.5c-0.2-0.1-0.5-0.2-0.8-0.2h-1v4.4h0.9
			c0.4,0,0.7-0.1,0.9-0.2s0.4-0.3,0.5-0.4c0.1-0.2,0.2-0.4,0.2-0.7c0-0.3,0-0.6,0-0.9c0-0.3,0-0.6,0-0.9
			C116-264.7,115.9-264.9,115.8-265.1z"/>
		<path fill-rule="evenodd" clip-rule="evenodd" d="M121.4-273.1h-13.3c-1.1,0-2,0.9-2,2v20c0,1.1,0.9,2,2,2h13.3c1.1,0,2-0.9,2-2
			v-20C123.4-272.2,122.5-273.1,121.4-273.1z M117.6-262.1c-0.1,0.4-0.2,0.8-0.4,1.1c-0.3,0.4-0.6,0.7-1,1s-1,0.4-1.7,0.4h-0.9v5
			h-1.8v-12.8h2.8c0.5,0,0.9,0.1,1.3,0.2c0.4,0.1,0.7,0.4,1,0.7c0.3,0.3,0.5,0.7,0.6,1.2c0.1,0.4,0.2,1.1,0.2,1.8
			C117.7-263,117.7-262.5,117.6-262.1z"/>
	</g>
	<path fill-rule="evenodd" clip-rule="evenodd" d="M79.8-149.3L66-173.8c-0.5-1-1.4-1-2,0l-13.8,24.6c-0.5,1-0.1,1.7,1,1.7h27.6
		C79.9-147.5,80.3-148.3,79.8-149.3z M67-152.5c0,0.6-0.5,1-1,1h-2c-0.5,0-1-0.4-1-1v-2c0-0.6,0.5-1,1-1h2c0.5,0,1,0.5,1,1V-152.5z
		 M67-158.5c0,0.6-0.4,1-1,1h-2c-0.5,0-1-0.4-1-1v-6c0-0.6,0.5-1,1-1h2c0.5,0,1,0.5,1,1L67-158.5z"/>
	<g>
		<path d="M119.6-168c-1.4-0.4-3-0.7-4.6-0.7c-7.1,0-13,5.2-14.8,6.9c-0.3,0.3-0.3,0.8,0,1.1c1,1,3.5,3.2,6.9,4.9L119.6-168z"/>
		<path d="M129.8-161.8c-1.1-1-3.7-3.4-7.1-5l2.8-2.7H123l-17.4,17h2.4l2.2-2.1c1.5,0.5,3.2,0.8,4.9,0.8c7.1,0,13-5.2,14.8-6.9
			C130.1-161,130.1-161.5,129.8-161.8z M120.1-160.2c-0.4,1.9-2,3.5-4,3.9c-1.4,0.3-2.6,0-3.7-0.6l2.2-2.2c0.1,0,0.2,0,0.4,0
			c1.3,0,2.3-1,2.3-2.3c0-0.1,0-0.2,0-0.4l2.2-2.2C120.1-162.8,120.4-161.5,120.1-160.2z"/>
	</g>
	<g>
		<polygon points="165.9,-173.5 164,-173.5 164,-167.5 165.9,-167.5 		"/>
		<polygon points="174,-158.2 180,-159.4 179.5,-161.7 173.6,-160.5 		"/>
		<polygon points="176.3,-168.3 174.6,-169.9 170.4,-165.7 172,-164 		"/>
		<polygon points="156.4,-160.5 150.5,-161.7 150,-159.4 156,-158.2 		"/>
		<path d="M173-152.5l-2.3-10.9c-0.2-1.2-1.3-2.1-2.7-2.1l-5,0c-1.4,0-2.7,0.9-3,2.1l-2,10.9c0,0.1,0,0,0,1h-3l0.1,3H176v-3h-3
			C173-152.5,173-152.4,173-152.5z M165.1-152.5l-0.1-11h2c1.1,0,1.8,0.1,2,1l1,5c0,0.1,1,5,1,5H165.1z"/>
		<polygon points="159.6,-165.7 155.4,-169.9 153.7,-168.3 158,-164 		"/>
	</g>
	<path fill-rule="evenodd" clip-rule="evenodd" d="M66.8-196h-4v-11h-2v-9c0-2.1,0.9-3,3-3h2c2.1,0,3,0.9,3,3v9h-2V-196z
		 M64.8-220.4c-1.6,0-2.8-1.3-2.8-2.8c0-1.6,1.3-2.8,2.8-2.8s2.8,1.3,2.8,2.8C67.6-221.7,66.4-220.4,64.8-220.4z"/>
	<path fill-rule="evenodd" clip-rule="evenodd" d="M55.8-196h-4v-11h-2v-9c0-2.1,0.9-3,3-3h2c2.1,0,3,0.9,3,3v9h-2V-196z
		 M53.8-220.4c-1.6,0-2.8-1.3-2.8-2.8c0-1.6,1.3-2.8,2.8-2.8s2.8,1.3,2.8,2.8C56.6-221.7,55.4-220.4,53.8-220.4z"/>
	<path fill-rule="evenodd" clip-rule="evenodd" d="M77.8-196h-4v-11h-2v-9c0-2.1,0.9-3,3-3h2c2.1,0,3,0.9,3,3v9h-2V-196z
		 M75.8-220.4c-1.6,0-2.8-1.3-2.8-2.8c0-1.6,1.3-2.8,2.8-2.8s2.8,1.3,2.8,2.8C78.6-221.7,77.4-220.4,75.8-220.4z"/>
	<path fill-rule="evenodd" clip-rule="evenodd" d="M114.6-223c-5,0-9,4-9,9c0,6,9,15,9,15s9-9,9-15C123.6-219,119.6-223,114.6-223z
		 M114.6-209.9c-2.6,0-4.7-2.1-4.7-4.7c0-2.6,2.1-4.7,4.7-4.7s4.7,2.1,4.7,4.7C119.3-212.1,117.2-209.9,114.6-209.9z"/>
	<path fill-rule="evenodd" clip-rule="evenodd" d="M169.1-215.9c1,0,1.8,0.8,1.8,1.9c0,1-0.8,1.9-1.8,1.9h-6.7
		c-0.1,0.4-0.1,0.8-0.1,1.1c0,0.4,0,0.8,0.1,1.1h6.7c1,0,1.8,0.8,1.8,1.9c0,1-0.8,1.9-1.8,1.9h-5.6c1.7,3.2,5,5.3,8.5,5.3h0.4
		c0.8,0,1.4,0.7,1.4,1.7c0,1-0.6,1.9-1.3,2l0,0H172c-5.5,0-10.5-3.6-12.4-9.1h-2c-1,0-1.8-0.8-1.8-1.9c0-1,0.8-1.9,1.8-1.9h1.2v0
		c-0.1-0.4-0.1-0.7-0.1-1.1c0-0.4,0-0.7,0.1-1.1v0h-1.2c-1,0-1.8-0.8-1.8-1.9c0-1,0.8-1.9,1.8-1.9h2c2-5.4,6.9-9.1,12.4-9.1h0.4
		c0.8,0.1,1.4,1,1.4,2c0,1-0.5,1.7-1.2,1.7l-0.6,0c-3.5,0-6.8,2.1-8.5,5.3H169.1z"/>
	<path fill-rule="evenodd" clip-rule="evenodd" d="M-76.6-174.4l-0.3,0.2c-1.1,0.5-2.8,6.3-2.8,6.7l0,0.4c0.2,0.8,0.9,1.7,2.5,3.5
		c-0.9,2.1-3.4,4.9-4.9,6.2c-1.6,1.4-4.3,3.2-6.3,3.9c-1.8-2.1-2.6-2.9-3.5-3c-0.5,0-6.4,1-6.9,2l-0.2,0.3c-0.4,0.7-1.1,1.7-0.8,2.8
		c0.1,0.3,0.2,0.5,0.3,0.8c0.5,0.8,1.7,2.6,3.4,3.4c1,0.5,10.4,0.8,18.3-6.3c7.8-7,8.2-15.6,7.9-16.9l0,0l0-0.1
		c-0.6-1.8-2.3-3.2-3-3.8C-74.3-175.5-75.8-174.8-76.6-174.4z"/>
	<path fill-rule="evenodd" clip-rule="evenodd" d="M-47.2-173v18h18v-18H-47.2z M-31.2-157h-14v-14h14V-157z"/>
	<path fill-rule="evenodd" clip-rule="evenodd" d="M-25.2-159v-10h-2l3-4l3,4h-2v10h2l-3,4l-3-4"/>
	<path fill-rule="evenodd" clip-rule="evenodd" d="M-33.2-149h-10v2l-4-3l4-3v2h10v-2l4,3l-4,3"/>
	<g opacity="0.4">
		<path fill-rule="evenodd" clip-rule="evenodd" d="M8.5-156.1l4-4c-0.1-0.2-0.1-0.5-0.1-0.7c0-1,0.6-1.9,1.5-2.3v-9.9
			c0-0.5,0.5-1,1-1c-7.2,0-13,5.8-13,13c0,3.6,1.5,6.8,3.8,9.2l2.8-2.8C8.1-155.1,8.1-155.7,8.5-156.1z"/>
	</g>
	<g>
		<g>
			<path fill-rule="evenodd" clip-rule="evenodd" d="M14.8-176c-1,0-2,0.1-3,0.3c-1,0.2-1.9,0.5-2.8,0.9c-1.3,0.6-2.6,1.3-3.7,2.2
				s-2.1,2-2.9,3.2c-1.6,2.4-2.6,5.3-2.6,8.4c0,1.6,0.2,3.1,0.7,4.5c0.7,2.3,2,4.4,3.7,6.1c0.3,0.3,0.7,0.7,1.1,1
				c0.7,0.6,1.5,1.2,2.4,1.6c0.4,0.2,0.9,0.4,1.3,0.6c0.9,0.4,1.8,0.7,2.8,0.9c1,0.2,2,0.3,3,0.3c8.3,0,15-6.7,15-15
				C29.8-169.3,23.1-176,14.8-176z M14.8-158.3c-0.3,0-0.6-0.1-0.9-0.2l-3.9,3.9c-0.4,0.4-1.1,0.4-1.5,0c0,0,0,0,0,0l-2.8,2.8
				c-2.4-2.4-3.8-5.6-3.8-9.2c0-7.2,5.8-13,13-13c0.5,0,1,0.5,1,1v9.9c0.9,0.4,1.5,1.3,1.5,2.3C17.3-159.4,16.2-158.3,14.8-158.3z"
				/>
		</g>
	</g>
	<path fill-rule="evenodd" clip-rule="evenodd" d="M-84-99.1h-2l-14-2V-121h2v18.2l12,1.7h2l12-1.7V-121h2v19.9L-84-99.1z
		 M-84-120.9c3.6-2.1,10-2.1,10-2.1v17.9c0,0-6.4,0-10,2.1V-120.9z M-96-123c0,0,6.4,0,10,2.1v17.9c-3.6-2.1-10-2.1-10-2.1V-123z"/>
	<path fill-rule="evenodd" clip-rule="evenodd" d="M-20.5-117.1l-0.2,0.1l0,0l-2.7,2.7l-8.4-8.4l2.7-2.7l0,0l0.1-0.2
		c0.7-0.7,2-0.7,2.7,0.1l5.6,5.6C-19.8-119-19.8-117.8-20.5-117.1z M-43-105.9l12.5-12.6l2.8,2.8l-12.5,12.6l1.4,1.4l12.5-12.6
		l1.4,1.4l-13.9,14l-8.4-8.4l13.9-14l1.4,1.4l-12.5,12.6L-43-105.9z M-40.2-97.4l-4.9,0.7L-50-96l0.7-4.9l0.7-4.9l4.2,4.2
		L-40.2-97.4z"/>
	<path fill-rule="evenodd" clip-rule="evenodd" d="M26-97L0-97v-28l30,0v24L26-97z M9-99h12v-7H9V-99z M24-123H6v12h18V-123z
		 M11-104l4,0v3h-4V-104z"/>
	<path fill-rule="evenodd" clip-rule="evenodd" d="M50-114l3-2l8,14l16-23l3,2L61-96L50-114"/>
	<path fill-rule="evenodd" clip-rule="evenodd" d="M123.6-118.2l-1.8-1.8l-7.2,7.2l-7.2-7.2l-1.8,1.8l7.2,7.2l-7.2,7.2l1.8,1.8
		l7.2-7.2l7.2,7.2l1.8-1.8l-7.2-7.2L123.6-118.2z"/>
	<path fill-rule="evenodd" clip-rule="evenodd" d="M164.8-119.5c-4.7,0-8.5,3.8-8.5,8.5s3.8,8.5,8.5,8.5c4.7,0,8.5-3.8,8.5-8.5
		S169.5-119.5,164.8-119.5z M169.8-108.3l-2.2,2.2l-2.8-2.8l-2.8,2.8l-2.2-2.2l2.8-2.8l-2.8-2.8l2.2-2.2l2.8,2.8l2.8-2.8l2.2,2.2
		L167-111L169.8-108.3z"/>
	<path fill-rule="evenodd" clip-rule="evenodd" d="M-77.7-68.7c-0.9,0-1.6-0.7-1.6-1.6c0-0.9,0.7-1.6,1.6-1.6c0.9,0,1.6,0.7,1.6,1.6
		C-76.2-69.4-76.9-68.7-77.7-68.7z M-79.9-74c-0.4,0-0.8-0.2-1.1-0.5c-0.6-0.6-0.6-1.6,0-2.2c0.3-0.3,0.7-0.5,1.1-0.5
		s0.8,0.2,1.1,0.5c0.6,0.6,0.6,1.6,0,2.2C-79.1-74.1-79.5-74-79.9-74z M-85.2-75.2c-1.4,0-2.5-1.1-2.5-2.5c0-1.4,1.1-2.5,2.5-2.5
		c1.4,0,2.5,1.1,2.5,2.5C-82.7-76.3-83.8-75.2-85.2-75.2z M-90.4-63.4c-0.4,0-0.8-0.2-1.1-0.5c-0.6-0.6-0.6-1.6,0-2.2
		c0.3-0.3,0.7-0.5,1.1-0.5c0.4,0,0.8,0.2,1.1,0.5c0.6,0.6,0.6,1.6,0,2.2C-89.6-63.5-90-63.4-90.4-63.4z M-90.4-74
		c-0.4,0-0.8-0.2-1.1-0.5c-0.6-0.6-0.6-1.6,0-2.2c0.3-0.3,0.7-0.5,1.1-0.5c0.4,0,0.8,0.2,1.1,0.5c0.6,0.6,0.6,1.6,0,2.2
		C-89.6-74.1-90-74-90.4-74z M-91.1-70.2c0,0.9-0.7,1.6-1.6,1.6s-1.6-0.7-1.6-1.6s0.7-1.6,1.6-1.6C-91.8-71.8-91.1-71.1-91.1-70.2z
		 M-85.2-64.3c0.9,0,1.6,0.7,1.6,1.6c0,0.9-0.7,1.6-1.6,1.6c-0.9,0-1.6-0.7-1.6-1.6C-86.7-63.6-86-64.3-85.2-64.3z M-79.9-66.5
		c0.4,0,0.8,0.2,1.1,0.5c0.6,0.6,0.6,1.6,0,2.2c-0.3,0.3-0.7,0.5-1.1,0.5c-0.4,0-0.8-0.2-1.1-0.5c-0.6-0.6-0.6-1.6,0-2.2
		C-80.7-66.3-80.3-66.5-79.9-66.5z"/>
	<g>
		<circle fill-rule="evenodd" clip-rule="evenodd" cx="115" cy="-81.6" r="2.3"/>
		<rect x="100.2" y="-73.2" fill-rule="evenodd" clip-rule="evenodd" width="1.8" height="7.3"/>
		<path fill-rule="evenodd" clip-rule="evenodd" d="M124.7-70.3H121l-0.1-6.3c0-1.2-1-2.2-2.2-2.2h-7.6c-1.2,0-2.2,1-2.2,2.2l0,6.3
			h-3.7v-4.1h-2.5v9.6h2.5v-4.1h3.7h2.1h0.6c-0.2,3.6-0.6,12.2-0.6,12.2h2.9l0.6-11.2c0.1,0,0.5,0,0.6,0l0.9,11.2h2.9
			c0,0-0.6-8.6-0.8-12.2h0.6h2.1h3.8v4.1h2.5v-9.6h-2.5V-70.3z M111.2-70.3L111.2-70.3v-4.7c0-0.2,0.1-0.3,0.3-0.3
			c0.2,0,0.3,0.1,0.3,0.3v3.9c0,0,0,0.3,0,0.8H111.2z M118.8-70.3h-0.6c0-0.5,0-0.8,0-0.8v-3.9c0-0.2,0.1-0.3,0.3-0.3
			c0.2,0,0.3,0.1,0.3,0.3V-70.3z"/>
		<rect x="128" y="-73.2" fill-rule="evenodd" clip-rule="evenodd" width="1.8" height="7.3"/>
	</g>
	<g>
		<path fill="#010101" d="M167.9-63.4c1.5-0.1,2.9-0.2,2.9-0.2l-2.2-1.3l-2.7-1.5l-4.1-2.3l-2.7-1.5l-2.2-1.3c0,0,0.7,1.2,1.4,2.5
			c0.8,1.5,1.5,3.1,1.4,3.4c-0.2,0.7-3.2,5.3-3.9,6.3c-0.5,0.8,0.9,2.2,1.9,2.8c1,0.5,2.9,1,3.3,0.1c0.5-1.3,2.8-6.1,3.3-6.6
			C164.5-63.1,166.3-63.3,167.9-63.4z"/>
		<g>
			<path fill="#010101" d="M176.7-68.8c3.3-5.8,1.8-12.8-3.3-15.7s-11.8-0.4-15.1,5.4c-1.2,2.2-1.8,4.5-1.7,6.7l15.3,8.6
				C173.7-64.9,175.4-66.6,176.7-68.8z"/>
		</g>
	</g>
	<circle fill="#010101" cx="155.6" cy="-82.6" r="2.6"/>
	<g>
		<path d="M-72.5-31.6v-3.5l-5.5-4.5l-1.3,1.1c-1-0.9-2.3-1.5-3.7-1.5c-2,0-3.7,1-4.7,2.6c-0.8-0.5-1.7-0.7-2.7-0.7
			c-3.1,0-5.6,2.5-5.6,5.6c0,0.1,0,0.2,0,0.3c-1.9,0.7-3.3,2.3-3.7,4.3c0,0,0,0.1,0,0.1c0,0.3-0.1,0.5-0.1,0.8c0,0,0,0,0,0
			c0,0,0,0,0,0c0,0,0,0,0,0c0,3.1,2.5,5.5,5.6,5.5c0.1,0,0.2,0,0.4,0l0,0c0.3,0,0.5-0.1,0.8-0.1v1.3c-1.3,0.2-2.3,1.4-2.3,2.8
			c0,1.6,1.3,2.8,2.8,2.8c1.6,0,2.8-1.3,2.8-2.8c0-1.4-1-2.5-2.3-2.8v-1.6c0.2-0.1,0.4-0.2,0.6-0.3c0.8,0.5,1.8,0.8,2.8,0.8
			c0.7,0,1.3-0.1,1.9-0.3v9.7h-1.9v1.9h7.5v-1.9H-83v-9.3c0.3,0,0.6,0,0.9-0.1c0.3,0.1,0.6,0.1,0.9,0.1c1,0,2-0.3,2.8-0.8
			c0.8,0.5,1.8,0.8,2.8,0.8c3.1,0,5.6-2.5,5.6-5.6C-70-28.9-71-30.6-72.5-31.6z M-90.8-17.4c0,1-0.8,1.8-1.8,1.8
			c-1,0-1.8-0.8-1.8-1.8s0.8-1.8,1.8-1.8C-91.6-19.2-90.8-18.4-90.8-17.4z M-73.5-27.2H-78v-4.1h-3v4.1h-1.5v-7.5l4.5-3.7l4.5,3.7
			V-27.2z"/>
		<circle cx="-75.7" cy="-33.9" r="1.3"/>
	</g>
	<g>
		<g>
			<polygon fill="#010101" points="-23,-21.2 -46.6,-17.9 -50,-21 -49.1,-21.9 -46.2,-19.3 -23.7,-22.4 -21,-25.9 -20,-25.2 			"/>
		</g>
		<g>
			<g>
				<circle fill="#010101" cx="-42.9" cy="-16.2" r="1.5"/>
			</g>
			<g>
				<g>
					<circle fill="#010101" cx="-25.5" cy="-18.6" r="1.5"/>
				</g>
			</g>
		</g>
	</g>
	<g>
		<polygon fill="#010101" points="9.7,-26.4 11.8,-20.2 18.2,-20.2 20.3,-26.4 15,-30.2 		"/>
		<path fill="#010101" d="M15-40.2c-8.3,0-15,6.7-15,15s6.7,15,15,15s15-6.7,15-15S23.3-40.2,15-40.2z M26.6-20.3
			c-0.4,0.9-0.9,1.8-1.5,2.6L25-19.1L20.3-18l-2.5,4.2l1.3,0.6c-1.3,0.4-2.7,0.7-4.1,0.7c-1.4,0-2.7-0.2-4-0.7l1.3-0.6L9.7-18
			L5-19.1l-0.1,1.4c-0.6-0.8-1.1-1.7-1.5-2.6c-0.7-1.6-1-3.2-1-4.9c0,0,0-0.1,0-0.1l0.9,0.9L6.5-28L6-32.9l-1.2,0.2
			c0.4-0.5,0.8-1,1.3-1.5c1.2-1.2,2.5-2.1,4-2.7c0.3-0.1,0.7-0.3,1-0.4l-0.6,1.1l4.5,1.9l4.5-1.9l-0.6-1.1c0.4,0.1,0.7,0.2,1.1,0.4
			c1.5,0.6,2.9,1.5,4,2.7c0.5,0.5,0.9,1,1.3,1.5L24-32.9L23.6-28l3.2,3.7l0.9-0.9c0,0,0,0,0,0.1C27.6-23.5,27.3-21.8,26.6-20.3z"/>
	</g>
	<g id="Layer_4">
		<polygon fill="#010101" points="63.2,-12.2 65.8,-12.2 65.8,-17.4 64.5,-18.9 63.2,-17.4 		"/>
		<g>
			<path fill="#010101" d="M60.6-35.5c-0.4-0.2-0.6-0.6-0.7-1c-0.1-0.4,0-0.8,0.2-1.2c0.2-0.4,0.6-0.6,1-0.7c0.4-0.1,0.8,0,1.2,0.2
				c0.4,0.2,0.6,0.6,0.7,1c0.1,0.4,0,0.8-0.2,1.2c-0.2,0.4-0.6,0.6-1,0.7C61.3-35.2,60.9-35.2,60.6-35.5z"/>
			<path fill="#010101" d="M53.6-29.2l4-0.6l-2.4-2.4c-0.1-0.1-0.2-0.3-0.3-0.5c-0.2-0.6,0.1-0.9,0.6-1.3l2.3-2
				c0.2-0.2,0.4-0.3,0.6-0.3c0.4-0.1,0.7,0,1,0.2c0.3,0.2,0.5,0.5,0.6,0.9c0.1,0.5-0.1,0.9-0.5,1.2l-1.9,1.6l2,2
				c0.1,0.1,0.2,0.3,0.2,0.6c0,0.3,0,0.5-0.2,0.7c-0.2,0.3-0.4,0.4-0.7,0.5l-5.1,0.9L53.6-29.2z"/>
		</g>
		<path fill="#010101" d="M77.1-22.1c-0.4,0.2-0.8,0.2-1.2,0.1c-0.4-0.1-0.7-0.4-0.9-0.8c-0.2-0.4-0.2-0.8-0.1-1.2
			c0.1-0.4,0.4-0.7,0.8-0.9c0.4-0.2,0.8-0.2,1.2-0.1c0.4,0.1,0.7,0.4,0.9,0.8c0.2,0.4,0.2,0.8,0.1,1.2
			C77.7-22.6,77.5-22.3,77.1-22.1z"/>
		<path fill="#010101" d="M50.5-25.9l21.1,8c0.1-0.2,0.2-0.3,0.4-0.4c0.2-0.1,0.5-0.2,0.7-0.1l2.7,0.7l0-2.5c0-0.5,0.2-0.9,0.7-1.2
			c0.3-0.2,0.7-0.2,1.1-0.1c0.4,0.1,0.7,0.3,0.8,0.7c0.1,0.2,0.1,0.4,0.1,0.7l0,3.1c0,0.6-0.1,1-0.7,1.3c0,0-0.1,0-0.2,0l2.8,1
			l-0.5,1.4l-4.9-1.9L74-16.3l-0.2,0.1l-0.2,0.1l1.8,3.4l-0.7,0.4l-0.8,0.3l-2.3-4.4L50-24.5L50.5-25.9z"/>
	</g>
	<circle fill="none" cx="106.4" cy="-33.3" r="0.7"/>
	<circle fill="none" cx="104.6" cy="-31.5" r="0.7"/>
	<circle fill="none" cx="104" cy="-33.9" r="0.7"/>
	<g>
		<path fill="#010101" d="M119.6-25.8c0.3,0,0.7,0.1,1,0.2l0.9,0.3l-1.1-11.7l-0.3-3.1h-3.1l-0.3,3.1h-3.9l-0.3-3.1h-3.1l-0.3,3.1
			h-3.9l-0.3-3.1h-3.1l-0.3,3.1h0l-1.7,18.8c0,0,4.8,1.6,11,1.6c1.6,0,3.1-0.1,4.5-0.3l1.4-6.6C117.1-24.9,118.2-25.8,119.6-25.8z
			 M103.5-34.4c0.3-0.3,0.7-0.3,1,0c0.3,0.3,0.3,0.7,0,1c-0.3,0.3-0.7,0.3-1,0C103.2-33.7,103.2-34.1,103.5-34.4z M105.1-31
			c-0.3,0.3-0.7,0.3-1,0c-0.3-0.3-0.3-0.7,0-1c0.3-0.3,0.7-0.3,1,0C105.4-31.8,105.4-31.3,105.1-31z M106.9-32.8
			c-0.3,0.3-0.7,0.3-1,0c-0.3-0.3-0.3-0.7,0-1c0.3-0.3,0.7-0.3,1,0C107.2-33.5,107.2-33,106.9-32.8z"/>
		<circle fill="#010101" cx="123.5" cy="-12.1" r="0.7"/>
		<path fill="#010101" d="M129.4-20.3l-3.3-1.2l3.4-10.5l-2.8-1l-3.4,10.5l-3.3-1.2c-0.1,0-0.2-0.1-0.3-0.1c-0.4,0-0.7,0.3-0.8,0.7
			l-1.9,9.3c-0.1,0.3,0,0.5,0.1,0.7c1-0.8,2.3-1.6,3.9-2.2c2-0.8,4.7-0.7,6.7,0.5l2.3-4.3C130.2-19.6,129.9-20.1,129.4-20.3z"/>
		<circle fill="#010101" cx="125.6" cy="-13.4" r="0.7"/>
		<circle fill="#010101" cx="125.6" cy="-10.9" r="0.7"/>
	</g>
	<path fill="none" d="M-27.6-75l-0.4,0.7c0.3,0.2,0.6,0.4,0.9,0.5l0.4-0.7C-27.1-74.6-27.4-74.8-27.6-75z"/>
	<path fill="none" d="M-29.9-71.3c0.3,0.1,0.6,0.3,0.9,0.5l0.4-0.7c-0.3-0.2-0.6-0.3-0.9-0.5L-29.9-71.3z"/>
	<circle cx="-45.9" cy="-62.3" r="4.1"/>
	<path d="M-20.1-69.6c-1.7,1.4-2.8,3.6-2.8,6c0,0.7,0.1,1.4,0.3,2.1c1.6-1.8,2.6-4.2,2.6-6.8C-20-68.8-20-69.2-20.1-69.6z"/>
	<path d="M-30.2-78.5c-0.1,0-0.3,0-0.4,0c0.5,1.1,1.2,2.1,2.1,2.9L-27-78C-28-78.3-29.1-78.5-30.2-78.5z"/>
	<path d="M-26.7-74.5l1.7-2.7c-0.3-0.2-0.6-0.3-0.9-0.5l-1.7,2.6C-27.4-74.8-27.1-74.6-26.7-74.5z"/>
	<path d="M-23.3-73.7c0.6,0,1.2-0.1,1.7-0.2c-0.7-1.1-1.6-2-2.6-2.7l-1.6,2.5C-25-73.8-24.2-73.7-23.3-73.7z"/>
	<path d="M-31.4-78.5c-4.9,0.6-8.7,4.6-8.9,9.6c1.5-2.4,4.2-4,7.3-4c0.9,0,1.8,0.1,2.6,0.4l1.6-2.5C-30-75.9-30.9-77.1-31.4-78.5z"
		/>
	<path d="M-29.5-72c0.3,0.1,0.6,0.3,0.9,0.5l1.4-2.2c-0.3-0.2-0.6-0.3-0.9-0.5L-29.5-72z"/>
	<path d="M-20.2-70.6c-0.2-0.9-0.5-1.8-0.9-2.5c-0.7,0.2-1.4,0.3-2.1,0.3c-1,0-2-0.2-2.9-0.5l-1.5,2.4c2,1.6,3.3,4,3.3,6.8
		c0,1.9-0.6,3.6-1.7,5.1c1-0.5,1.9-1.1,2.8-1.8c-0.3-0.9-0.5-1.8-0.5-2.7C-23.7-66.5-22.4-69-20.2-70.6z"/>
	<path d="M-30.2-58.2c0.9,0,1.7-0.1,2.6-0.3c1.5-1.4,2.4-3.4,2.4-5.6c0-2.5-1.1-4.7-2.9-6.1l-6.8,10.9
		C-33.5-58.6-31.9-58.2-30.2-58.2z"/>
	<path d="M-29.9-71.3l-6.7,10.8c0.3,0.2,0.5,0.4,0.8,0.6l6.8-10.9C-29.3-71-29.6-71.2-29.9-71.3z"/>
	<path d="M-33.1-72c-3.2,0-6,2-7.2,4.8c0.3,2.3,1.3,4.4,2.8,5.9l6.5-10.4C-31.6-71.9-32.3-72-33.1-72z"/>
	<path fill="#010101" d="M77.9-66.8c0.1-0.5,0.1-1,0.1-1.5c0-4.2-3.5-7.6-7.8-7.6c-0.2,0-0.5,0-0.7,0c-1,0.8-2.2,1.5-3.6,2.1
		c-1.2,0.6-2.4,1.1-3.5,1.4c0-0.2,0-0.4-0.1-0.5c1.1-0.3,2.2-0.8,3.4-1.4c0.9-0.5,1.8-0.9,2.5-1.4c1-0.7,1.9-1.4,2.6-2.1
		c1.1-1.2,1.6-2.2,1.3-2.8c-0.2-0.5-0.9-0.7-2-0.7c-1.8,0-4.4,0.8-7,2c-2.1,1-3.7,2.2-4.8,3.2c-1.4-0.2-3,0.1-4.5,0.9
		c-3.2,1.7-4.8,5-3.5,7.4c1,1.8,3.3,2.6,5.8,2.1l0.1,0.1C55-63.3,55-60.6,55-60.6h3.2H61c0-2.8,4-3.2,4.2-3.2l0,0.3l0,0.3
		c0,0-0.2,0-0.5,0.1c-0.9,0.2-3.1,0.8-3.2,2.4c0,0.1,0,0.1,0,0.2h2.2h6.9l0,0c2.2-0.1,4.1-1,5.5-2.5c0.4,0.5,1,0.8,1.7,0.8
		c1.2,0,2.3-1,2.3-2.3C80-65.7,79.1-66.7,77.9-66.8z M54.4-70.9c-0.5,0-0.9-0.4-0.9-0.9c0-0.5,0.4-0.9,0.9-0.9
		c0.5,0,0.9,0.4,0.9,0.9C55.3-71.3,54.9-70.9,54.4-70.9z"/>
	<path fill="#010101" d="M182-13.4l-9.4-9.4c1.2-1.8,1.9-4,1.9-6.2c0-3-1.2-5.8-3.3-7.9c-2.1-2.1-4.9-3.3-7.9-3.3
		c-3,0-5.8,1.2-7.9,3.3c-2.1,2.1-3.3,4.9-3.3,7.9s1.2,5.8,3.3,7.9s4.9,3.3,7.9,3.3c2.3,0,4.4-0.7,6.3-1.9l9.4,9.4
		c0.3,0.3,0.9,0.2,1.3-0.2l1.6-1.6C182.3-12.5,182.3-13.1,182-13.4z M163.4-20.9c-4.5,0-8.1-3.7-8.1-8.1s3.6-8.1,8.1-8.1
		s8.1,3.7,8.1,8.1S167.9-20.9,163.4-20.9z"/>
	<g id="Your_Icon">
		<path fill="#010101" d="M182.2,6.5h-24.3L156.8,3h-4.7l0.6,1.7h2.8l5.5,17.2c-1.2,0.2-2.1,1.3-2.1,2.5c0,1.4,1.2,2.6,2.6,2.6
			c1.4,0,2.6-1.1,2.6-2.6c0-0.3-0.1-0.6-0.2-0.9h7.2c-0.1,0.3-0.2,0.6-0.2,0.9c0,1.4,1.2,2.6,2.6,2.6c1.4,0,2.6-1.1,2.6-2.6
			c0-1.4-1.1-2.5-2.4-2.6c0,0-0.2,0-0.2,0l-10.7,0l-1.1-3.4h13.5L182.2,6.5z"/>
	</g>
	<path fill="#010101" d="M76,19.7c-0.2-0.1-0.4-0.2-0.6-0.3l-0.1,0c0,0-1-0.5-1.1-4.4c-0.1-3.9,0.9-4.5,0.9-4.5l0.1-0.1
		c1-0.5,1.8-1.3,2.3-2.3c1.4-2.7,0.4-6-2.3-7.4c-2.7-1.4-6-0.4-7.4,2.3c-0.6,1.1-0.7,2.3-0.6,3.4l0,0c0,0,0.3,1.3-3.1,3.4
		c-3.3,2.1-4.9,1.1-4.9,1.1l-0.2-0.1c-2.7-1.4-6-0.4-7.4,2.3c-1.4,2.7-0.4,6,2.3,7.4c2,1.1,4.3,0.8,6-0.6l0,0c0,0,1.1-0.9,4.6,1
		c2.8,1.5,3.2,2.9,3.2,3.5c-0.1,2,1,4,2.9,5c2.7,1.4,6,0.4,7.4-2.3C79.7,24.4,78.7,21.1,76,19.7z M53.3,18.5
		C53.3,18.5,53.3,18.5,53.3,18.5C53.3,18.5,53.3,18.5,53.3,18.5L53.3,18.5z M59.2,12.1c-0.7-0.6-2.4-0.5-3.9,0.4
		c0.2,0.2,0.3,0.4,0.3,0.7c0,0.6-0.5,1.2-1.1,1.2c-0.1,0-0.2,0-0.3,0c0,0,0,0-0.1,0c-0.4-0.1-0.7,0.2-0.8,0.3c-0.8,1.5-0.8,3,0,3.7
		c-1.5-1.5-1.5-4,0.1-5.8C55,10.9,57.6,10.7,59.2,12.1L59.2,12.1z M69.4,2.4c1.6-1.8,4.2-2,5.8-0.6l0,0c-0.7-0.6-2.4-0.5-3.9,0.4
		c0.2,0.2,0.3,0.4,0.3,0.7c0,0.6-0.5,1.2-1.1,1.2c-0.1,0-0.2,0-0.3,0c0,0,0,0-0.1,0c-0.4-0.1-0.7,0.2-0.8,0.3c-0.8,1.5-0.8,3,0,3.7
		C67.8,6.7,67.8,4.1,69.4,2.4z M65.4,19.3c-2.9-1.5-3.3-2.8-3.4-3.2c0-0.5,0-0.9-0.1-1.4l0,0c0,0-0.2-1.3,3.1-3.3
		c3-1.8,4.3-1.5,4.5-1.4c0.2,0.1,0.3,0.2,0.5,0.3c0.3,0.2,0.7,0.3,1,0.4c0.4,0.4,1.2,1.5,1.2,4.4c0.1,2.9-0.8,4-1.2,4.4
		c-0.5,0.2-0.9,0.5-1.3,0.9C69.4,20.6,68.1,20.7,65.4,19.3z M70.3,27.2C70.3,27.2,70.3,27.2,70.3,27.2
		C70.3,27.2,70.3,27.2,70.3,27.2L70.3,27.2z M76.1,20.9c-0.7-0.6-2.4-0.5-3.9,0.4c0.2,0.2,0.3,0.4,0.3,0.7c0,0.6-0.5,1.2-1.1,1.2
		c-0.1,0-0.2,0-0.3,0c0,0,0,0-0.1,0c-0.4-0.1-0.7,0.2-0.8,0.3c-0.8,1.5-0.8,3,0,3.7c-1.5-1.5-1.5-4,0.1-5.8
		C72,19.7,74.6,19.4,76.1,20.9L76.1,20.9z"/>
	<path fill="#010101" d="M100,11.7C100,11.8,100,11.8,100,11.7L100,11.7C100,11.7,100,11.7,100,11.7z"/>
	<g>
		<ellipse fill="#010101" cx="109" cy="11.2" rx="1" ry="1"/>
		<path fill="#010101" d="M120.5,16.3c0.6-0.1,0.9-0.7,0.8-1.2c-0.1-0.6-0.7-0.9-1.3-0.8c-0.6,0.1-0.9,0.7-0.8,1.2
			C119.4,16.1,120,16.5,120.5,16.3z"/>
		<path fill="#010101" d="M127.1,23.9c-1.4,0-3-1.5-4.8-3.2c-0.2-0.2-0.4-0.4-0.6-0.5l-0.6-2.5c-0.1-0.6-0.7-1-1.3-0.8
			c-0.5,0.1-0.8,0.5-0.9,1c-1.7-1.3-3.7-2.2-6-2.2V5.7L106.2,2L100,5.7v9.9v3.3V28h1.3v-1.7h4.2V28h1.3v-1.7h5V28h1.3v-9.1v-0.8
			c2.9,0,5.4,2.2,7.7,4.4c2.1,2,4.1,3.8,6.5,3.8h0.4V28h1.2v-1.7h1.2v-2.5H127.1z M105.4,25.5h-4.2v-1.7h4.2L105.4,25.5L105.4,25.5z
			 M105.4,23h-4.2v-1.7h4.2L105.4,23L105.4,23z M105.4,20.6h-4.2v-1.7h4.2L105.4,20.6L105.4,20.6z M111.7,15.6h-1.3l-0.5-2.1
			c-0.1-0.6-0.7-1-1.3-0.8c-0.6,0.1-1,0.7-0.8,1.3l0.4,1.6h-6.8V6.5h10.4L111.7,15.6L111.7,15.6z"/>
	</g>
	<g>
		<path fill="#585D5C" d="M24.6,19.3c-3,0-5.4,2.4-5.4,5.3c0,2.9,2.4,5.3,5.4,5.3c3,0,5.4-2.4,5.4-5.3C30,21.7,27.6,19.3,24.6,19.3z
			 M24.6,27.2c-1.4,0-2.6-1.1-2.6-2.5c0-1.4,1.2-2.5,2.6-2.5c1.4,0,2.6,1.1,2.6,2.5C27.1,26,26,27.2,24.6,27.2z"/>
		<path fill="#585D5C" d="M14.3,15.4c1.2,0,2.3-0.1,3.4-0.4l1.9,4.3c0.9-0.9,2.1-1.5,3.4-1.7l-1.8-4c4.3-2.4,7.3-7,7.3-12.2
			c0-0.8,0-1.4,0-1.4H0c0,0,0,0.6,0,1.4c0,5.3,2.9,9.8,7.3,12.2L0,30h4.1l1.6-3.5h11.8c-0.2-0.6-0.2-1.2-0.2-1.9
			c0-0.7,0.1-1.3,0.3-1.9H7.4l3.4-7.7C11.9,15.3,13.1,15.4,14.3,15.4z M2.9,2.8h4.2c0.4,4.3,2.5,7.9,5.5,9.7
			C7.6,11.8,3.6,7.8,2.9,2.8z"/>
	</g>
	<path fill="#585D5C" d="M-22.5,16.4c0-0.1,0-0.1,0-0.2c0-2-1.5-3.6-3.4-3.7c-0.3-0.3-0.6-0.5-0.9-0.8v-1.1c0.2,0,0.3,0,0.4,0
		c0.1,0,0.3,0,0.4,0c0.5,0,0.9-0.1,1.3-0.4c0.4,0.2,0.8,0.4,1.3,0.4c1.5,0,2.6-1.2,2.6-2.6c0-1.1-0.7-2.1-1.8-2.5c0-0.1,0-0.1,0-0.2
		c0-1.4-1.1-2.5-2.4-2.6c-0.5-0.5-1.2-0.9-2-0.9c-0.9,0-1.8,0.5-2.2,1.2c-0.4-0.2-0.8-0.4-1.3-0.4c-1.5,0-2.6,1.2-2.6,2.6
		c0,0,0,0.1,0,0.1c-1.1,0.3-2,1.3-2,2.6c0,1.5,1.2,2.7,2.7,2.7c0.6,0,1.1-0.2,1.5-0.5c0,0,0,0,0,0c0.4,0.2,0.8,0.4,1.3,0.4
		c0.3,0,0.6-0.1,0.9-0.2v0.7c0,0-0.1,0-0.1,0c-1.3,0-2.5,0.7-3.2,1.7c-0.4-0.2-0.8-0.4-1.2-0.4c-0.2-1-1-1.8-1.9-2.1
		c0-0.1,0-0.1,0-0.2c0-1.5-1.2-2.8-2.7-2.9c-0.5-0.6-1.3-1-2.2-1c-1.1,0-2,0.6-2.5,1.4c-0.4-0.2-0.9-0.4-1.4-0.4c-1.6,0-3,1.3-3,3
		c0,0.1,0,0.1,0,0.2c-1.3,0.3-2.2,1.5-2.2,2.9c0,1.6,1.3,3,3,3c0.6,0,1.2-0.2,1.7-0.5c0,0,0,0,0,0c0.4,0.3,0.9,0.4,1.5,0.4
		c0.3,0,0.7-0.1,1-0.2v3.3c-1.1-1.3-1.6-2.4-1.6-2.4h0c0,0-1.1,2.5-3.9,4.4c0,0,1.1,0.8,1.9,0.9c0,0-1.3,2.2-4.6,3.1
		c0,0,2.5,2.1,5.5,2V30h1.5h0.6v-2.6c3.1,0.1,5.5-2,5.5-2c-3.3-0.9-4.6-3.1-4.6-3.1c0.5-0.1,1.1-0.4,1.5-0.7
		c0.6,1.3,1.9,2.2,3.5,2.2c0.8,0,1.5-0.2,2.1-0.7c0,0,0,0,0,0c0.6,0.3,1.2,0.5,1.9,0.5c0.4,0,0.9-0.1,1.2-0.2v6.5h2.5v-6.2
		c0.2,0,0.4,0,0.6-0.1c0.2,0,0.4,0.1,0.6,0.1c0.7,0,1.3-0.2,1.9-0.5c0.6,0.3,1.2,0.5,1.9,0.5c2.1,0,3.7-1.7,3.7-3.7
		C-20,18.3-21.1,16.9-22.5,16.4z M-39.9,18.3v-2.2c0.2,0,0.3,0,0.5,0c0.2,0,0.3,0,0.5,0c0.5,0,1-0.2,1.5-0.4c0,0.1,0,0.3,0,0.5
		c0,0.1,0,0.1,0,0.2C-38.5,16.6-39.4,17.3-39.9,18.3z"/>
	<path fill="#585D5C" d="M-90.4,15.9c-1.4,0-2.3,1.1-2.6,2.6l-0.4,2.4l-6.6,6.6h6l1,2.4l1.1-2.7c2.3-0.7,4-2.9,4-5.5v-2l1.9-0.9
		l-1.9-0.9C-88.1,16.8-89.2,15.9-90.4,15.9z M-89.9,19.1c-0.3,0-0.6-0.3-0.6-0.6s0.3-0.6,0.6-0.6s0.6,0.3,0.6,0.6
		S-89.6,19.1-89.9,19.1z"/>
	<path fill="#585D5C" d="M-80,24.7c-0.6-0.6-1.4-0.9-2.2-0.9l0,0l-3,0l0,3l0,0c0,0.8,0.3,1.6,0.9,2.2c0,0,0,0,0,0
		c1.2,1.2,3.1,1.2,4.3,0c0.6-0.6,0.9-1.4,0.9-2.1C-79.1,26.1-79.4,25.3-80,24.7C-80,24.7-80,24.7-80,24.7z"/>
	<path fill="#585D5C" d="M-76.1,21.3c1.7,0,3-1.3,3-3c1.7,0,3-1.3,3-3c0-0.9-0.4-1.6-1-2.2c0.6-0.5,1-1.3,1-2.2c0-1.7-1.3-3-3-3
		c0-1.7-1.3-3-3-3c-0.9,0-1.6,0.4-2.2,1c-0.5-0.6-1.3-1-2.2-1c-1.7,0-3,1.3-3,3c-1.7,0-3,1.3-3,3c0,0.9,0.4,1.6,1,2.2
		c-0.6,0.5-1,1.3-1,2.2c0,1.7,1.3,3,3,3c0,1.7,1.3,3,3,3c0.5,0,1-0.1,1.4-0.3v5.9v3h1.6v-3c0,0.8,0.3,1.5,0.9,2.1
		c1.2,1.2,3.1,1.2,4.3,0c0,0,0,0,0,0c0.6-0.6,0.9-1.4,0.9-2.2l0,0l0-3l-3,0l0,0c-0.8,0-1.6,0.3-2.2,0.9c0,0,0,0,0,0
		c-0.6,0.6-0.9,1.4-0.9,2.1V21C-77.1,21.2-76.6,21.3-76.1,21.3z M-78.3,18.3c-2.9,0-5.2-2.3-5.2-5.2c0-2.9,2.3-5.2,5.2-5.2
		c2.9,0,5.2,2.3,5.2,5.2C-73.1,16-75.4,18.3-78.3,18.3z"/>
	<path fill="#585D5C" d="M-97,60.6c0.6,0,1.2-0.2,1.7-0.5c0,0,0,0,0,0c0.4,0.3,0.9,0.4,1.5,0.4c0.3,0,0.7-0.1,1-0.2v5.1h2v-4.9
		c0.2,0,0.3,0,0.5,0c0.2,0,0.3,0,0.5,0c0.5,0,1-0.2,1.5-0.4c0.4,0.3,0.9,0.4,1.5,0.4c1.6,0,3-1.3,3-3c0-1.3-0.8-2.4-2-2.8
		c0-0.1,0-0.1,0-0.2c0-1.5-1.2-2.8-2.7-2.9c-0.5-0.6-1.3-1-2.2-1c-1.1,0-2,0.6-2.5,1.4c-0.4-0.2-0.9-0.4-1.4-0.4c-1.6,0-3,1.3-3,3
		c0,0.1,0,0.1,0,0.2c-1.3,0.3-2.2,1.5-2.2,2.9C-100,59.3-98.7,60.6-97,60.6z"/>
	<rect x="-71.7" y="77.7" fill="none" width="3.3" height="3.3"/>
	<path fill="#585D5C" d="M-85,58.8L-85,58.8c7.7,4.9-14.3,4.6-15,12.1h19.7C-92.8,68-75.3,60.9-85,58.8z"/>
	<g>
		<path fill="#585D5C" d="M-75,53c0,0-0.2,0-0.2-0.4c0-0.4-0.4-0.8-0.8-0.8c-0.5,0-0.8,0.4-0.8,0.8C-76.8,53-77,53-77,53
			c-0.1,0-0.2,0.1-0.2,0.2c0,0.1,0.1,0.2,0.2,0.2h2.1c0.1,0,0.2-0.1,0.2-0.2C-74.8,53-74.8,53-75,53z"/>
		<circle fill="#585D5C" cx="-76" cy="54" r="0.4"/>
		<circle fill="#585D5C" cx="-76" cy="48.3" r="0.6"/>
		<path fill="#585D5C" d="M-72.2,58.5l-1.3-3.8v-3.3c0.2,0,0.4-0.2,0.4-0.4s-0.2-0.4-0.4-0.4h-0.8c0-0.9-0.7-1.7-1.7-1.7
			c-0.9,0-1.7,0.7-1.7,1.7h-0.8c-0.2,0-0.4,0.2-0.4,0.4s0.2,0.4,0.4,0.4v3.3l-1.3,3.8h-2.1v1.3h0.8v2.5v3.3v2.8h10v-2.8v-3.3v-2.5
			h0.8v-1.3H-72.2z M-77.7,51.4h3.3v3.3h-3.3V51.4z M-76.8,65.6L-76.8,65.6l0,1.2h-2.5v-1.2v-3.3v0c0-0.7,0.6-1.3,1.3-1.3
			c0.7,0,1.3,0.6,1.3,1.3v0V65.6z M-72.7,65.6L-72.7,65.6l0,1.2h-2.5v-1.2v-3.3v0c0-0.7,0.6-1.3,1.3-1.3c0.7,0,1.3,0.6,1.3,1.3v0
			V65.6z"/>
	</g>
	<path fill="#585D5C" d="M-82.7,46.2c0.8-0.2,1.9-0.9,1.9-0.9c-2.8-1.9-3.9-4.4-3.9-4.4h0c0,0-1.1,2.5-3.9,4.4c0,0,1.1,0.8,1.9,0.9
		c0,0-1.3,2.2-4.6,3.1c0,0,2.5,2.1,5.5,2V54h1.5h0.6v-2.6c3.1,0.1,5.5-2,5.5-2C-81.3,48.4-82.7,46.2-82.7,46.2z"/>
	<g>
		<path fill="#585D5C" d="M-82.5,85.8c0,0-0.3,0-0.3-0.6c0-0.6-0.5-1.2-1.2-1.2c-0.7,0-1.2,0.5-1.2,1.2c0,0.6-0.3,0.6-0.3,0.6
			c-0.2,0-0.3,0.1-0.3,0.3c0,0.2,0.1,0.3,0.3,0.3h3c0.2,0,0.3-0.1,0.3-0.3C-82.2,85.9-82.3,85.8-82.5,85.8z"/>
		<circle fill="#585D5C" cx="-84" cy="87.3" r="0.6"/>
		<circle fill="#585D5C" cx="-84" cy="79.1" r="0.9"/>
		<path fill="#585D5C" d="M-78.6,93.7l-1.8-5.4v-4.8c0.3,0,0.6-0.3,0.6-0.6s-0.3-0.6-0.6-0.6h-1.2c0-1.3-1.1-2.4-2.4-2.4
			c-1.3,0-2.4,1.1-2.4,2.4h-1.2c-0.3,0-0.6,0.3-0.6,0.6s0.3,0.6,0.6,0.6v4.8l-1.8,5.4h-3v1.8h1.2v3.6v4.7v4h14.3v-4v-4.7v-3.6h1.2
			v-1.8H-78.6z M-86.4,83.6h4.8v4.8h-4.8V83.6z M-85.2,103.9L-85.2,103.9l0,1.8h-3.6v-1.8v-4.7v-0.1c0-1,0.8-1.8,1.8-1.8
			c1,0,1.8,0.8,1.8,1.8v0.1V103.9z M-79.2,103.9L-79.2,103.9l0,1.8h-3.6v-1.8v-4.7v-0.1c0-1,0.8-1.8,1.8-1.8c1,0,1.8,0.8,1.8,1.8
			v0.1V103.9z"/>
	</g>
	<g>
		<path fill="#585D5C" d="M-24.6,58.8L-24.6,58.8c7.7,4.9-14.3,4.6-15,12.1h19.7C-32.3,68-14.9,60.9-24.6,58.8z"/>
		<path fill="#585D5C" d="M-38.4,64.8v-6.2c0.2,0,0.4,0,0.6-0.1c0.2,0,0.4,0.1,0.6,0.1c0.7,0,1.3-0.2,1.9-0.5
			c0.6,0.3,1.2,0.5,1.9,0.5c2.1,0,3.7-1.7,3.7-3.7c0-1.6-1.1-3-2.5-3.5c0-0.1,0-0.1,0-0.2c0-0.5-0.1-0.9-0.2-1.3
			c0.9,0.6,2.8,1.6,5,1.6V54h1.5h0.6v-2.6c3.1,0.1,5.5-2,5.5-2c-3.3-0.9-4.6-3.1-4.6-3.1c0.8-0.2,1.9-0.9,1.9-0.9
			c-2.8-1.9-3.9-4.4-3.9-4.4h0c0,0-1.1,2.5-3.9,4.4c0,0,1.1,0.8,1.9,0.9c0,0-1.2,2-4.3,3c-0.6-1-1.7-1.8-2.9-1.9
			c-0.7-0.8-1.7-1.3-2.8-1.3c-1.3,0-2.5,0.7-3.2,1.7c-0.5-0.3-1.2-0.5-1.8-0.5c-2.1,0-3.7,1.7-3.7,3.7c0,0.1,0,0.1,0,0.2
			c-1.6,0.4-2.8,1.9-2.8,3.7c0,2.1,1.7,3.8,3.8,3.8c0.8,0,1.5-0.2,2.1-0.7c0,0,0,0,0,0c0.6,0.3,1.2,0.5,1.9,0.5
			c0.4,0,0.9-0.1,1.2-0.2v6.5H-38.4z"/>
	</g>
	<path fill="#585D5C" d="M-23.5,94.4c0-0.1,0-0.1,0-0.2c0-2-1.5-3.6-3.4-3.7c-0.7-0.8-1.7-1.3-2.8-1.3c-1.3,0-2.5,0.7-3.2,1.7
		c-0.5-0.3-1-0.4-1.5-0.5c0.1-0.3,0.2-0.7,0.2-1.1c0-1.1-0.7-2.1-1.8-2.5c0-0.1,0-0.1,0-0.2c0-1.4-1.1-2.5-2.4-2.6
		c-0.5-0.5-1.2-0.9-2-0.9c-0.9,0-1.8,0.5-2.2,1.2c-0.4-0.2-0.8-0.4-1.3-0.4c-1.5,0-2.6,1.2-2.6,2.6c0,0,0,0.1,0,0.1
		c-1.1,0.3-2,1.3-2,2.6c0,1.5,1.2,2.7,2.7,2.7c0.6,0,1.1-0.2,1.5-0.5c0,0,0,0,0,0c0.4,0.2,0.8,0.4,1.3,0.4c0.3,0,0.6-0.1,0.9-0.2
		v1.7c-0.5,0.2-1,0.6-1.3,1.1c-0.4-0.2-0.9-0.4-1.4-0.4c-1.6,0-3,1.3-3,3c0,0.1,0,0.1,0,0.2c-1.3,0.3-2.2,1.5-2.2,2.9
		c0,1.6,1.3,3,3,3c0.6,0,1.2-0.2,1.7-0.5c0,0,0,0,0,0c0.4,0.3,0.9,0.4,1.5,0.4c0.3,0,0.7-0.1,1-0.2v5.1h2v-4.9c0.2,0,0.3,0,0.5,0
		c0.2,0,0.3,0,0.5,0c0.5,0,1-0.2,1.5-0.4c0.4,0.3,0.9,0.4,1.5,0.4c1.1,0,2.1-0.6,2.6-1.5c0.3,0.1,0.6,0.1,0.9,0.1
		c0.4,0,0.9-0.1,1.2-0.2v6.5h2.5v-6.2c0.2,0,0.4,0,0.6-0.1c0.2,0,0.4,0.1,0.6,0.1c0.7,0,1.3-0.2,1.9-0.5c0.6,0.3,1.2,0.5,1.9,0.5
		c2.1,0,3.7-1.7,3.7-3.7C-21,96.3-22.1,95-23.5,94.4z M-39.9,92c0.1,0,0.3,0,0.4,0c0.5,0,0.9-0.1,1.3-0.4c0.1,0.1,0.3,0.1,0.5,0.2
		c-0.5,0.6-0.8,1.4-0.8,2.3c0,0,0,0.1,0,0.1c-0.1,0-0.1,0-0.2,0c-0.4-0.5-1-0.8-1.6-0.9v-1.3C-40.2,92.1-40,92-39.9,92z"/>
	<path fill="#010101" d="M0-71.1v0.3C0-71,0-71.1,0-71.1L0-71.1z"/>
	<path fill="#010101" d="M0-70.1L0-70.1c0-0.1,0-0.2,0-0.3V-70.1z"/>
	<path fill="#010101" d="M24.4-82.4c-3.5,2.6-5.7,6.6-5.9,11.2H30C29.8-75.7,27.7-79.7,24.4-82.4z"/>
	<path fill="#010101" d="M30-70.1H18.5c0.2,4.6,2.5,8.6,5.9,11.1C27.7-61.7,29.8-65.7,30-70.1z"/>
	<path fill="#010101" d="M23.5-83c-2.3-1.6-5-2.6-8-2.7v14.5h2C17.6-76,20-80.2,23.5-83z"/>
	<path fill="#010101" d="M17.5-70.1h-2v14.5c3-0.1,5.8-1.1,8.1-2.7C20-61.1,17.7-65.4,17.5-70.1z"/>
	<path fill="#010101" d="M5.5-59.1c3.4-2.5,5.6-6.5,5.8-11.1H0C0.2-65.7,2.3-61.7,5.5-59.1z"/>
	<path fill="#010101" d="M5.5-82.3C2.3-79.6,0.1-75.6,0-71.1h11.3C11.1-75.7,8.9-79.7,5.5-82.3z"/>
	<path fill="#010101" d="M6.3-58.5c2.3,1.7,5.2,2.7,8.2,2.8v-14.5h-2.2C12.1-65.4,9.8-61.2,6.3-58.5z"/>
	<path fill="#010101" d="M14.5-85.7c-3,0.1-5.9,1.1-8.2,2.7c3.5,2.8,5.8,7,6,11.8h2.2V-85.7z"/>
</g>
</svg>
