<?xml version="1.0" encoding="utf-8"?>
<!-- Generated by IcoMoon.io -->
<!DOCTYPE svg PUBLIC "-//W3C//DTD SVG 1.1//EN" "http://www.w3.org/Graphics/SVG/1.1/DTD/svg11.dtd">
<svg version="1.1" xmlns="http://www.w3.org/2000/svg" xmlns:xlink="http://www.w3.org/1999/xlink" width="1024" height="1024" viewBox="0 0 1024 1024"><g id="icomoon-ignore">
</g>
<path d="M800.283 432.659c123.12 0 225.721 102.6 225.721 229.142s-99.18 229.14-225.721 229.14c-123.12 0-225.721-102.6-225.721-229.14 0-78.66 41.040-150.482 99.18-191.522l-13.681-23.939-37.621-71.82-3.421-10.26h-232.56c-27.361 0-51.3 17.101-58.14 44.461l-13.681 41.040c78.662 37.621 133.381 116.281 133.381 208.621 0 126.541-99.182 229.14-225.721 229.14s-222.3-99.18-222.3-225.721c0-126.541 99.18-229.14 225.721-229.14 10.26 0 20.52 3.421 30.78 3.421l34.199-112.86c3.421-13.681 17.101-23.941 30.78-23.941h338.581l58.142-129.96h-109.44c-17.101 0-30.78-13.681-30.78-34.201 0-17.101 13.681-34.201 30.78-34.201h160.742c10.26 0 20.52 6.839 27.361 13.681 6.839 10.26 6.839 20.52 3.421 30.78l-10.26 20.52-92.34 201.78 37.621 71.82c20.52-3.421 44.461-6.839 64.979-6.839zM297.541 514.739l-34.199 102.6c-3.421 6.839-6.839 13.681-17.101 20.52-6.839 3.421-17.101 3.421-23.941 3.421-17.101-6.839-23.941-27.361-20.52-44.461l30.78-99.18c-3.421 0-6.839 0-10.26 0-88.92 0-160.74 71.82-160.74 164.161 0 88.92 71.82 164.161 160.74 164.161s160.74-71.82 160.74-164.161c3.421-64.979-34.199-119.7-85.499-147.061zM639.543 661.799c0 88.92 71.82 164.161 160.742 164.161s160.742-71.82 160.742-164.161c0-88.92-71.82-164.161-160.742-164.161-10.26 0-23.941 0-34.201 3.421l78.662 147.061c3.421 6.839 3.421 17.101 3.421 23.941-3.421 6.839-6.839 17.101-17.101 20.52v0c-17.101 6.839-34.201 3.421-41.040-13.681l-82.080-153.901c-41.040 34.201-68.4 82.080-68.4 136.801zM321.482 234.298h-95.759c-17.101 0-30.78-13.681-30.78-34.201 0-17.101 13.679-34.201 30.78-34.201h191.52c6.839 0 10.26 3.421 10.26 6.839 3.421 3.421 0 10.26-3.421 13.681-27.361 30.78-54.719 47.882-102.6 47.882z" fill="rgb(68, 68, 68)"></path>
</svg>
