<?xml version="1.0" encoding="utf-8"?>
<!-- Generator: Adobe Illustrator 18.0.0, SVG Export Plug-In . SVG Version: 6.00 Build 0)  -->
<!DOCTYPE svg PUBLIC "-//W3C//DTD SVG 1.0//EN" "http://www.w3.org/TR/2001/REC-SVG-20010904/DTD/svg10.dtd">
<svg version="1.0" id="Layer_1" xmlns="http://www.w3.org/2000/svg" xmlns:xlink="http://www.w3.org/1999/xlink" x="0px" y="0px"
	 viewBox="0 0 30 30" style="enable-background:new 0 0 30 30;" xml:space="preserve">
<style type="text/css">
	.st0{fill:#010101;}
</style>
<g>
	<path class="st0" d="M17.8,25.4h-5.1c-0.5,0-0.8,0.4-0.8,0.8v0.9c0,0.7,0.5,1.3,1.2,1.4l0.2,0.8c0.1,0.4,0.5,0.7,0.9,0.7h2.1
		c0.4,0,0.8-0.3,0.9-0.7l0.2-0.8c0.7-0.1,1.2-0.7,1.2-1.4v-0.9C18.6,25.8,18.2,25.4,17.8,25.4z"/>
	<path class="st0" d="M15.2,4.6c0.5,0,0.8-0.4,0.8-0.8V0.8C16,0.4,15.7,0,15.2,0c-0.5,0-0.8,0.4-0.8,0.8v2.9
		C14.3,4.2,14.7,4.6,15.2,4.6z"/>
	<path class="st0" d="M5.4,14.4c0-0.5-0.4-0.8-0.8-0.8H1.6c-0.5,0-0.8,0.4-0.8,0.8c0,0.5,0.4,0.8,0.8,0.8h2.9
		C5,15.2,5.4,14.9,5.4,14.4z"/>
	<path class="st0" d="M28.8,13.6h-2.9c-0.5,0-0.8,0.4-0.8,0.8c0,0.5,0.4,0.8,0.8,0.8h2.9c0.5,0,0.8-0.4,0.8-0.8
		C29.6,13.9,29.2,13.6,28.8,13.6z"/>
	<path class="st0" d="M7.1,21.3L5,23.4c-0.3,0.3-0.3,0.8,0,1.2c0.2,0.2,0.4,0.3,0.6,0.3c0.2,0,0.4-0.1,0.6-0.3l2.1-2.1
		c0.3-0.3,0.3-0.8,0-1.2C7.9,21,7.4,21,7.1,21.3z"/>
	<path class="st0" d="M22.7,7.7c0.2,0,0.4-0.1,0.6-0.3l2.1-2.1c0.3-0.3,0.3-0.8,0-1.2c-0.3-0.3-0.8-0.3-1.2,0l-2.1,2.1
		c-0.3,0.3-0.3,0.8,0,1.2C22.3,7.6,22.5,7.7,22.7,7.7z"/>
	<path class="st0" d="M7.1,7.5c0.2,0.2,0.4,0.3,0.6,0.3c0.2,0,0.4-0.1,0.6-0.3c0.3-0.3,0.3-0.8,0-1.2L6.2,4.2C5.9,3.9,5.3,3.9,5,4.2
		C4.7,4.5,4.7,5.1,5,5.4L7.1,7.5z"/>
	<path class="st0" d="M23.3,21.3c-0.3-0.3-0.8-0.3-1.2,0c-0.3,0.3-0.3,0.8,0,1.2l2.1,2.1c0.2,0.2,0.4,0.3,0.6,0.3
		c0.2,0,0.4-0.1,0.6-0.3c0.3-0.3,0.3-0.8,0-1.2L23.3,21.3z"/>
	<path class="st0" d="M15.1,7c-4.1,0-7.4,3.4-7.3,7.5c0,1.9,0.8,3.7,2.1,5c1,1,1.6,2.3,1.8,3.7c0.1,0.6,0.6,1,1.2,1h4.6
		c0.6,0,1.1-0.4,1.2-1c0.2-1.4,0.8-2.7,1.8-3.7c1.3-1.3,2.1-3.1,2.1-5.1C22.6,10.3,19.2,7,15.1,7z M16.9,9.9c-3.4,0-6.2,2.8-6.2,6.2
		c0,0.4,0,0.7,0.1,1.1c-0.5-0.8-0.8-1.7-0.8-2.7c0-2.8,2.3-5.1,5.1-5.1c0.9,0,1.8,0.3,2.5,0.7C17.4,9.9,17.2,9.9,16.9,9.9z"/>
</g>
</svg>
