<?xml version="1.0" encoding="utf-8"?>
<!-- Generated by IcoMoon.io -->
<!DOCTYPE svg PUBLIC "-//W3C//DTD SVG 1.1//EN" "http://www.w3.org/Graphics/SVG/1.1/DTD/svg11.dtd">
<svg version="1.1" xmlns="http://www.w3.org/2000/svg" xmlns:xlink="http://www.w3.org/1999/xlink" width="1024" height="1024" viewBox="0 0 1024 1024"><g id="icomoon-ignore">
</g>
<path d="M957.602 172.737v752.402h-889.203v68.402h957.602v-820.803zM889.203 104.338h-102.6c0 58.142-44.461 102.6-102.6 102.6s-102.6-44.459-102.6-102.6h-239.4c0 58.142-44.459 102.6-102.6 102.6s-102.6-44.459-102.6-102.6h-136.799v752.402h889.203v-752.402zM820.803 788.34h-752.402v-513.002h752.402v513.002zM239.4 138.537c20.52 0 34.199-13.681 34.199-34.201v-68.402c0-20.52-13.681-34.199-34.201-34.199s-34.201 13.679-34.201 34.199v68.402c0 20.52 13.679 34.201 34.201 34.201zM684.004 138.537c20.52 0 34.201-13.681 34.201-34.201v-68.402c0-20.52-13.681-34.199-34.201-34.199s-34.201 13.679-34.201 34.199v68.402c0 20.52 13.681 34.201 34.201 34.201zM205.201 377.938h102.6v102.6h-102.6v-102.6zM410.402 377.938h102.6v102.6h-102.6v-102.6zM581.404 377.938h102.6v102.6h-102.6v-102.6zM205.201 548.938h102.6v102.6h-102.6v-102.6zM410.402 548.938h102.6v102.6h-102.6v-102.6zM581.404 548.938h102.6v102.6h-102.6v-102.6z" fill="rgb(68, 68, 68)"></path>
</svg>
