<?xml version="1.0" encoding="utf-8"?>
<!-- Generated by IcoMoon.io -->
<!DOCTYPE svg PUBLIC "-//W3C//DTD SVG 1.1//EN" "http://www.w3.org/Graphics/SVG/1.1/DTD/svg11.dtd">
<svg version="1.1" xmlns="http://www.w3.org/2000/svg" xmlns:xlink="http://www.w3.org/1999/xlink" width="1024" height="1024" viewBox="0 0 1024 1024"><g id="icomoon-ignore">
</g>
<path d="M581.404 1010.64h-136.801v-376.201h-68.4v-307.801c0-71.82 30.78-102.6 102.6-102.6h68.4c71.82 0 102.6 30.78 102.6 102.6v307.801h-68.4v376.201zM513.002 176.158c-54.719 0-95.759-44.459-95.759-95.759s41.040-95.759 95.759-95.759 95.759 44.461 95.759 95.759c0 54.721-41.040 95.759-95.759 95.759zM205.201 1010.64h-136.799v-376.201h-68.4v-307.801c0-71.82 30.78-102.6 102.6-102.6h68.4c71.82 0 102.6 30.78 102.6 102.6v307.801h-68.4v376.201zM136.799 176.158c-54.719 0-95.759-44.459-95.759-95.759s41.040-95.759 95.759-95.759 95.761 44.461 95.761 95.759c0 54.721-41.040 95.759-95.759 95.759zM957.602 1010.64h-136.801v-376.201h-68.4v-307.801c0-71.82 30.78-102.6 102.6-102.6h68.4c71.82 0 102.6 30.78 102.6 102.6v307.801h-68.4v376.201zM889.203 176.158c-54.719 0-95.759-44.459-95.759-95.759s41.040-95.759 95.759-95.759 95.759 44.461 95.759 95.759c0 54.721-41.040 95.759-95.759 95.759z" fill="rgb(68, 68, 68)"></path>
</svg>
