<?xml version="1.0" encoding="utf-8"?>
<!-- Generated by IcoMoon.io -->
<!DOCTYPE svg PUBLIC "-//W3C//DTD SVG 1.1//EN" "http://www.w3.org/Graphics/SVG/1.1/DTD/svg11.dtd">
<svg version="1.1" xmlns="http://www.w3.org/2000/svg" xmlns:xlink="http://www.w3.org/1999/xlink" width="1024" height="1024" viewBox="0 0 1024 1024"><g id="icomoon-ignore">
</g>
<path d="M940.505 661.799l-362.52-201.782c0-20.52 13.681-41.040 30.78-51.3 58.142-34.201 95.759-95.759 95.759-164.161 0-106.019-85.499-191.522-191.522-191.522s-191.52 85.501-191.52 191.522c0 34.199 27.361 64.979 64.981 64.979s64.981-27.361 64.981-64.979c0-34.201 27.361-64.981 64.981-64.981s64.979 27.361 64.979 64.981c0 23.941-13.681 44.459-30.78 54.719-58.14 34.201-95.759 95.759-95.759 160.742l-365.941 205.201c-54.719 30.78-88.92 92.34-88.92 150.482 0 68.4 58.142 126.541 126.541 126.541h769.503c71.82 0 126.541-58.142 126.541-126.541 3.421-58.142-30.78-119.7-82.080-153.901zM129.96 815.699c0-13.681 13.679-37.621 20.52-41.040l362.52-205.201 359.101 201.78c10.26 6.839 23.941 30.78 23.941 44.461h-766.082z" fill="rgb(68, 68, 68)"></path>
</svg>
