<?xml version="1.0" encoding="utf-8"?>
<!-- Generated by IcoMoon.io -->
<!DOCTYPE svg PUBLIC "-//W3C//DTD SVG 1.1//EN" "http://www.w3.org/Graphics/SVG/1.1/DTD/svg11.dtd">
<svg version="1.1" xmlns="http://www.w3.org/2000/svg" xmlns:xlink="http://www.w3.org/1999/xlink" width="1024" height="1024" viewBox="0 0 1024 1024"><g id="icomoon-ignore">
</g>
<path d="M538.107 825.927q8.016-7.022 160.634-157.62t178.685-177.691q19.077-18.083 45.689-18.083t45.689 18.564 19.077 45.689-19.077 45.176q-22.091 22.091-173.683 174.677t-159.608 159.608q-68.261 67.267-160.121 91.346t-183.719-0.994-161.115-93.366-94.36-159.608-0.994-182.212 92.372-159.127l349.354-345.347q76.309-76.309 184.713-76.309t185.226 75.796 76.79 183.206-76.309 182.725l-287.121 284.107q-47.196 45.176-115.458 45.176t-115.938-45.689-47.677-108.436 47.196-108.917q17.057-17.057 115.458-117.958t112.444-114.945q19.077-19.077 45.689-19.077t45.176 19.077 18.564 45.689-18.083 45.689q-11.030 10.036-112.957 113.438t-111.931 113.438q-9.042 9.042-9.042 22.091t9.523 22.091 22.572 9.042 23.085-9.042l286.127-287.121q92.372-91.346-0.513-183.206t-185.226 0.513l-352.368 346.34q-69.255 69.255-68.774 162.141t68.261 159.608 160.121 67.267 161.628-67.78z" fill="rgb(68, 68, 68)"></path>
</svg>
