<?xml version="1.0" encoding="utf-8"?>
<!-- Generated by IcoMoon.io -->
<!DOCTYPE svg PUBLIC "-//W3C//DTD SVG 1.1//EN" "http://www.w3.org/Graphics/SVG/1.1/DTD/svg11.dtd">
<svg version="1.1" xmlns="http://www.w3.org/2000/svg" xmlns:xlink="http://www.w3.org/1999/xlink" width="1024" height="1024" viewBox="0 0 1024 1024"><g id="icomoon-ignore">
</g>
<path d="M297.541 665.219l136.799-136.801c-3.421-6.839-3.421-17.101-3.421-23.941 0-34.201 20.52-64.981 51.3-78.662v-338.581c0-17.101 17.101-34.201 34.199-34.201-249.662 0-448.021 198.361-448.021 444.602 0 123.12 51.3 232.56 129.96 314.643l95.759-95.759c-13.681-17.101-10.26-37.621 3.421-51.3zM513.002-15.364c-34.199 0-68.4 3.421-102.6 10.26s-64.981 17.101-95.759 30.78c-47.88 17.101-88.922 44.461-126.541 75.241s-71.82 68.4-99.18 109.44c-58.142 82.080-88.92 181.262-88.92 287.281 0 54.721 6.839 106.019 23.941 153.901 23.941 78.66 68.4 150.482 126.539 208.619 10.26 10.26 23.941 23.941 37.619 34.201 23.941 20.52 51.3 41.040 82.080 54.719 13.681 6.839 30.78 13.681 44.459 20.52 30.78 13.681 61.56 23.941 95.759 30.78s68.4 10.26 102.6 10.26c283.862 0 513.002-229.14 513.002-513.002s-229.14-513.002-513.002-513.002zM513.002 589.978c-10.26 0-20.52-3.421-30.78-6.839l-133.381 133.381c-13.681 13.681-37.621 13.681-51.3 0 0 0 0 0 0 0l-95.759 95.759c-82.080-82.080-133.381-191.522-133.381-314.643 0-246.241 198.361-444.6 444.602-444.6 17.101 0 34.201 17.101 34.201 34.201v338.581c30.78 13.681 51.3 44.459 51.3 78.662 0 47.882-37.621 85.499-85.499 85.499z" fill="rgb(68, 68, 68)"></path>
</svg>
