<?xml version="1.0" encoding="utf-8"?>
<!-- Generated by IcoMoon.io -->
<!DOCTYPE svg PUBLIC "-//W3C//DTD SVG 1.1//EN" "http://www.w3.org/Graphics/SVG/1.1/DTD/svg11.dtd">
<svg version="1.1" xmlns="http://www.w3.org/2000/svg" xmlns:xlink="http://www.w3.org/1999/xlink" width="1024" height="1024" viewBox="0 0 1024 1024"><g id="icomoon-ignore">
</g>
<path d="M542.72 85.333h-64.853v204.8h64.853z" fill="rgb(68, 68, 68)"></path>
<path d="M819.2 607.573l204.8-40.96-17.067-78.507-201.387 40.96z" fill="rgb(68, 68, 68)"></path>
<path d="M897.707 262.827l-58.027-54.613-143.36 146.773 54.613 54.613z" fill="rgb(68, 68, 68)"></path>
<path d="M218.453 529.067l-201.387-40.96-17.067 78.507 204.8 40.96z" fill="rgb(68, 68, 68)"></path>
<path d="M785.067 802.133l-78.507-372.053c-6.827-40.96-44.373-71.68-92.16-71.68h-170.667c-47.787 0-92.16 30.72-102.4 71.68l-68.267 372.053c0 3.413 0 0 0 34.133h-102.4l3.413 102.4h713.387v-102.4h-102.4c0-34.133 0-30.72 0-34.133zM515.413 802.133l-3.413-375.467h68.267c37.547 0 61.44 3.413 68.267 34.133l34.133 170.667c0 3.413 34.133 170.667 34.133 170.667h-201.387z" fill="rgb(68, 68, 68)"></path>
<path d="M327.68 354.987l-143.36-146.773-58.027 54.613 146.773 146.773z" fill="rgb(68, 68, 68)"></path>
</svg>
