<?xml version="1.0" encoding="utf-8"?>
<!-- Generated by IcoMoon.io -->
<!DOCTYPE svg PUBLIC "-//W3C//DTD SVG 1.1//EN" "http://www.w3.org/Graphics/SVG/1.1/DTD/svg11.dtd">
<svg version="1.1" xmlns="http://www.w3.org/2000/svg" xmlns:xlink="http://www.w3.org/1999/xlink" width="1024" height="1024" viewBox="0 0 1024 1024"><g id="icomoon-ignore">
</g>
<path d="M856.681-9.336h-685.339c-94.232 0-171.343 77.111-171.343 171.343v685.306c0 94.296 77.111 171.343 171.343 171.343h685.339c94.232 0 171.311-77.046 171.311-171.343v-685.306c0-94.232-77.079-171.343-171.311-171.343zM873.995 504.66h-167.239v449.742h-192.76v-449.742h-92.885v-147.135h92.885v-95.547c0-129.854 56.013-207.060 208.696-207.060h175.928v159.191h-143.705c-42.643-0.064-47.934 22.251-47.934 63.773l-0.224 79.676h192.76l-25.522 147.135z" fill="rgb(68, 68, 68)"></path>
</svg>
