<?xml version="1.0" encoding="utf-8"?>
<!-- Generator: Adobe Illustrator 18.0.0, SVG Export Plug-In . SVG Version: 6.00 Build 0)  -->
<!DOCTYPE svg PUBLIC "-//W3C//DTD SVG 1.0//EN" "http://www.w3.org/TR/2001/REC-SVG-20010904/DTD/svg10.dtd">
<svg version="1.0" xmlns="http://www.w3.org/2000/svg" xmlns:xlink="http://www.w3.org/1999/xlink" x="0px" y="0px"
	 viewBox="0 0 30 30" enable-background="new 0 0 30 30" xml:space="preserve">
<g id="Layer_1">
	<path fill-rule="evenodd" clip-rule="evenodd" d="M-185-240.3c-8.3,0-15,6.7-15,15c0,8.3,6.7,15,15,15s15-6.7,15-15
		C-170-233.6-176.7-240.3-185-240.3z M-186.9-214.1v-9.4h-9.4l18.7-9.4L-186.9-214.1z"/>
</g>
<g id="Layer_2">
	<path fill-rule="evenodd" clip-rule="evenodd" d="M22.2-190.4h-15c-2.1,0-3.7,1.7-3.7,3.8v22.5c0,2.1,1.7,3.7,3.7,3.7h15
		c2.1,0,3.7-1.7,3.7-3.7v-22.5C26-188.7,24.3-190.4,22.2-190.4z M24.5-164.1c0,1.2-1,2.2-2.2,2.2h-15c-1.2,0-2.2-1-2.2-2.2v-22.5
		c0-1.2,1-2.2,2.2-2.2h15c1.2,0,2.2,1,2.2,2.2V-164.1z"/>
	<path fill-rule="evenodd" clip-rule="evenodd" d="M-126.6-227.2c3.6,0,6.6,3,6.6,6.7c0,3.7-2.9,6.7-6.6,6.7c-3.6,0-6.6-3-6.6-6.7
		c0-2.3,1.2-4.4,2.9-5.6l-0.4-0.7l-1.1-2.1l-0.1-0.3h-6.8c-0.8,0-1.5,0.5-1.7,1.3l-0.4,1.2c2.3,1.1,3.9,3.4,3.9,6.1
		c0,3.7-2.9,6.7-6.6,6.7s-6.6-3-6.6-6.7c0-3.7,2.9-6.7,6.6-6.7c0.3,0,0.6,0.1,0.9,0.1l1-3.3c0.1-0.4,0.5-0.7,0.9-0.7h9.9l1.7-3.8
		h-3.2c-0.5,0-0.9-0.4-0.9-1c0-0.5,0.4-1,0.9-1h4.1h0.6c0.3,0,0.6,0.2,0.8,0.4c0.2,0.3,0.2,0.6,0.1,0.9l-0.3,0.6l-2.7,5.9l1.1,2.1
		C-127.9-227.1-127.2-227.2-126.6-227.2z M-141.3-224.8l-1,3c-0.1,0.2-0.2,0.4-0.5,0.6c-0.2,0.1-0.5,0.1-0.7,0.1
		c-0.5-0.2-0.8-0.7-0.6-1.2l0.9-2.9c-0.1,0-0.2,0-0.3,0c-2.6,0-4.7,2.1-4.7,4.8c0,2.6,2.1,4.8,4.7,4.8c2.6,0,4.7-2.1,4.7-4.8
		C-138.7-222.4-139.8-224-141.3-224.8z M-131.3-220.5c0,2.6,2.1,4.8,4.7,4.8c2.6,0,4.7-2.1,4.7-4.8c0-2.6-2.1-4.8-4.7-4.8
		c-0.3,0-0.7,0-1,0.1l2.3,4.3c0.1,0.2,0.1,0.5,0.1,0.7c-0.1,0.2-0.2,0.5-0.5,0.6l0,0c-0.5,0.2-1,0.1-1.2-0.4l-2.4-4.5
		C-130.5-223.6-131.3-222.1-131.3-220.5z M-140.6-233h-2.8c-0.5,0-0.9-0.4-0.9-1c0-0.5,0.4-1,0.9-1h5.6c0.2,0,0.3,0.1,0.3,0.2
		c0.1,0.1,0,0.3-0.1,0.4C-138.4-233.5-139.2-233-140.6-233z"/>
	<path fill-rule="evenodd" clip-rule="evenodd" d="M-70.9-226.3h-0.9v-5.6h0.9c0.5,0,0.9,0.4,0.9,0.9v3.7
		C-70-226.7-70.4-226.3-70.9-226.3z M-75.6-215.1v1.9c0,1-0.8,1.9-1.9,1.9h-1.9c-1,0-1.9-0.8-1.9-1.9v-1.9h-7.5v1.9
		c0,1-0.8,1.9-1.9,1.9h-1.9c-1,0-1.9-0.8-1.9-1.9v-1.9c-1,0-1.9-0.8-1.9-1.9v-16.8c0-3.1,2.5-5.6,5.6-5.6h11.2
		c3.1,0,5.6,2.5,5.6,5.6v16.8C-73.8-215.9-74.6-215.1-75.6-215.1z M-92.5-216.9c1,0,1.9-0.8,1.9-1.9c0-1-0.8-1.9-1.9-1.9
		c-1,0-1.9,0.8-1.9,1.9C-94.4-217.8-93.5-216.9-92.5-216.9z M-81.3-237.5h-7.5v1.9h7.5V-237.5z M-75.6-233.7h-18.7v11.2h18.7V-233.7
		z M-77.5-220.7c-1,0-1.9,0.8-1.9,1.9c0,1,0.8,1.9,1.9,1.9c1,0,1.9-0.8,1.9-1.9C-75.6-219.8-76.5-220.7-77.5-220.7z M-100-227.2
		v-3.7c0-0.5,0.4-0.9,0.9-0.9h0.9v5.6h-0.9C-99.6-226.3-100-226.7-100-227.2z"/>
	<path fill-rule="evenodd" clip-rule="evenodd" d="M-25.6-223.5c0,2-1.7,3.7-3.7,3.7h-11.2c-2.1,0-3.7-1.6-3.7-3.7v-12.8h18.7v1.8
		c3.1,0,5.6,2.5,5.6,5.5C-20-226-22.5-223.5-25.6-223.5z M-40.6-234.5h-1.9v11c0,1,0.8,1.8,1.9,1.8V-234.5z M-25.6-232.7v7.3
		c2.1,0,3.7-1.6,3.7-3.7C-21.9-231-23.6-232.7-25.6-232.7z M-20-216.2c0,1-0.8,1.8-1.9,1.8h-26.2c-1,0-1.9-0.8-1.9-1.8
		c0-1,0.8-1.8,1.9-1.8h26.2C-20.8-218-20-217.2-20-216.2z"/>
	<g>
		<polygon fill-rule="evenodd" clip-rule="evenodd" points="28,-234.8 28,-212.8 2,-212.8 2,-210.8 30,-210.8 30,-211.8 30,-212.8 
			30,-234.8 		"/>
		<path fill-rule="evenodd" clip-rule="evenodd" d="M26-236.8h-3c0,1.7-1.3,3-3,3c-1.7,0-3-1.3-3-3h-7c0,1.7-1.3,3-3,3
			c-1.7,0-3-1.3-3-3H0v22h26V-236.8z M24-216.8H2v-15h22V-216.8z"/>
		<path fill-rule="evenodd" clip-rule="evenodd" d="M7-235.8c0.6,0,1-0.4,1-1v-2c0-0.6-0.4-1-1-1s-1,0.4-1,1v2
			C6-236.3,6.4-235.8,7-235.8z"/>
		<path fill-rule="evenodd" clip-rule="evenodd" d="M20-235.8c0.6,0,1-0.4,1-1v-2c0-0.6-0.4-1-1-1s-1,0.4-1,1v2
			C19-236.3,19.4-235.8,20-235.8z"/>
		<rect x="6" y="-228.8" fill-rule="evenodd" clip-rule="evenodd" width="3" height="3"/>
		<rect x="12" y="-228.8" fill-rule="evenodd" clip-rule="evenodd" width="3" height="3"/>
		<rect x="17" y="-228.8" fill-rule="evenodd" clip-rule="evenodd" width="3" height="3"/>
		<rect x="6" y="-223.8" fill-rule="evenodd" clip-rule="evenodd" width="3" height="3"/>
		<rect x="12" y="-223.8" fill-rule="evenodd" clip-rule="evenodd" width="3" height="3"/>
		<rect x="17" y="-223.8" fill-rule="evenodd" clip-rule="evenodd" width="3" height="3"/>
	</g>
	<g>
		<path fill-rule="evenodd" clip-rule="evenodd" d="M57-236.3c0.6,0,1-0.4,1-1v-2c0-0.6-0.4-1-1-1s-1,0.4-1,1v2
			C56-236.8,56.4-236.3,57-236.3z"/>
		<path fill-rule="evenodd" clip-rule="evenodd" d="M70-236.3c0.6,0,1-0.4,1-1v-2c0-0.6-0.4-1-1-1s-1,0.4-1,1v2
			C69-236.8,69.4-236.3,70-236.3z"/>
		<rect x="56" y="-229.3" fill-rule="evenodd" clip-rule="evenodd" width="3" height="3"/>
		<rect x="62" y="-229.3" fill-rule="evenodd" clip-rule="evenodd" width="3" height="3"/>
		<rect x="67" y="-229.3" fill-rule="evenodd" clip-rule="evenodd" width="3" height="3"/>
		<rect x="56" y="-224.3" fill-rule="evenodd" clip-rule="evenodd" width="3" height="3"/>
		<rect x="62" y="-224.3" fill-rule="evenodd" clip-rule="evenodd" width="3" height="3"/>
		<rect x="52" y="-213.3" fill-rule="evenodd" clip-rule="evenodd" width="17" height="2"/>
		<rect x="78" y="-235.3" fill-rule="evenodd" clip-rule="evenodd" width="2" height="13"/>
		<path fill-rule="evenodd" clip-rule="evenodd" d="M52-232.3h22v10h2v-15h-3c0,1.7-1.3,3-3,3s-3-1.3-3-3h-7c0,1.7-1.3,3-3,3
			s-3-1.3-3-3h-4v22h19v-2H52V-232.3z"/>
		<path fill-rule="evenodd" clip-rule="evenodd" d="M75-221.3c-2.8,0-5,2.2-5,5c0,2.8,2.2,5,5,5s5-2.2,5-5
			C80-219.1,77.8-221.3,75-221.3z M78-215.3h-2v2h-2v-2h-2v-2h2v-2h2v2h2V-215.3z"/>
		<rect x="67" y="-224.3" fill-rule="evenodd" clip-rule="evenodd" width="3" height="3"/>
	</g>
	<g>
		
			<rect x="-178.9" y="-168.1" transform="matrix(-0.5 -0.866 0.866 -0.5 -121.6851 -405.5256)" fill-rule="evenodd" clip-rule="evenodd" width="2" height="1"/>
		
			<rect x="-180.9" y="-171.6" transform="matrix(-0.5 -0.866 0.866 -0.5 -121.6705 -412.4503)" fill-rule="evenodd" clip-rule="evenodd" width="2" height="1"/>
		
			<rect x="-182.9" y="-175.1" transform="matrix(-0.5 -0.866 0.866 -0.5 -121.6853 -419.3822)" fill-rule="evenodd" clip-rule="evenodd" width="2" height="1"/>
		
			<rect x="-184.4" y="-179" transform="matrix(-0.866 0.5 -0.5 -0.866 -432.1798 -240.2569)" fill-rule="evenodd" clip-rule="evenodd" width="1" height="2"/>
		
			<rect x="-172.2" y="-172.6" transform="matrix(0.7072 -0.707 0.707 0.7072 71.0551 -171.6075)" fill-rule="evenodd" clip-rule="evenodd" width="1" height="2"/>
		
			<rect x="-175.5" y="-174.9" transform="matrix(-0.7071 -0.7071 0.7071 -0.7071 -174.525 -421.1333)" fill-rule="evenodd" clip-rule="evenodd" width="2" height="1"/>
		
			<rect x="-178.3" y="-177.7" transform="matrix(-0.7072 -0.7071 0.7071 -0.7072 -177.3806 -427.9616)" fill-rule="evenodd" clip-rule="evenodd" width="2" height="1"/>
		
			<rect x="-181.1" y="-180.6" transform="matrix(0.7072 0.707 -0.707 0.7072 -180.074 74.6382)" fill-rule="evenodd" clip-rule="evenodd" width="2" height="1"/>
		
			<rect x="-184.3" y="-165.5" transform="matrix(-0.2588 -0.9659 0.9659 -0.2588 -71.3883 -384.8536)" fill-rule="evenodd" clip-rule="evenodd" width="2" height="1"/>
		
			<rect x="-184.9" y="-169.9" transform="matrix(0.9659 -0.2589 0.2589 0.9659 37.4438 -53.4996)" fill-rule="evenodd" clip-rule="evenodd" width="1" height="2"/>
		
			<rect x="-185.9" y="-173.8" transform="matrix(0.9659 -0.2589 0.2589 0.9659 38.407 -53.8958)" fill-rule="evenodd" clip-rule="evenodd" width="1" height="2"/>
		
			<rect x="-187" y="-177.6" transform="matrix(0.9659 -0.2589 0.2589 0.9659 39.3739 -54.2992)" fill-rule="evenodd" clip-rule="evenodd" width="1" height="2"/>
		<rect x="-190.4" y="-164.8" fill-rule="evenodd" clip-rule="evenodd" width="1" height="2"/>
		<rect x="-190.4" y="-168.8" fill-rule="evenodd" clip-rule="evenodd" width="1" height="2"/>
		<rect x="-190.4" y="-172.8" fill-rule="evenodd" clip-rule="evenodd" width="1" height="2"/>
		<rect x="-190.4" y="-176.8" fill-rule="evenodd" clip-rule="evenodd" width="1" height="2"/>
		<path fill-rule="evenodd" clip-rule="evenodd" d="M-183-186.6l-3.1,1.8c-1.1-2.4-3.5-4-6.3-4c-3.9,0-7,3.1-7,7v20h4v-20
			c0-1.7,1.3-3,3-3c1.3,0,2.4,0.8,2.8,2l-3.8,2.2l1.5,2.6l10.4-6L-183-186.6z"/>
	</g>
	<path fill-rule="evenodd" clip-rule="evenodd" d="M-120.3-165l-9.3-9.6l9.4-9.8c0.1,0.2,0.1,0.5,0.1,0.7v17.6
		C-120-165.7-120.1-165.3-120.3-165z M-148.3-185.8l0.2,0h26.2l0.3,0.1l-13.4,13.9L-148.3-185.8z M-149.8-165.1
		c-0.1-0.3-0.2-0.6-0.2-0.9v-17.6c0-0.3,0.1-0.6,0.1-0.9l9.4,9.9L-149.8-165.1z M-135-169l4-4.1l9,9.3h-26.2l-0.1,0l9.2-9.3
		L-135-169z"/>
	<path d="M-100-190.3v30h30v-30H-100z M-79.7-169.8c0,0-6,6.5-7.9,7.3c0,0-7.2-5.9-9.4-9.5c-2.2-3.6-2.9-6.9,1.3-9.1
		c4.3-2.3,7.8,2.1,8.1,3c0,0,3.2-5.8,8.9-2.5C-72.9-177.2-79.7-169.8-79.7-169.8z M-72-184.3h-3v3h-2v-3h-3v-2h3v-3h2v3h3V-184.3z"
		/>
	<path d="M-91-180.3v11l3.5-2.6l-0.4,5.6l-1.3-0.4l1.6,3.2l2.3-2.7l-1.1,0l1.4-9.2l-4,2v-5L-91-180.3z"/>
	<path fill-rule="evenodd" clip-rule="evenodd" d="M-38-186.3h1v23h-1V-186.3z"/>
	<path fill-rule="evenodd" clip-rule="evenodd" d="M-21.4-173.4l-2.8-4.3l-1.1,2.2l3.9,6.4H-25l-0.6,5.7h-2.8l-0.6-5.7h-3.6l3.9-6.4
		l-1.1-2.2l-2.8,4.3H-34l2.3-5.9c0.3-0.8,1.1-1.3,1.9-1.3h1.4l1.4,2.9l1.4-2.9h1.4c0.8,0,1.6,0.5,1.9,1.3l2.3,5.9H-21.4z M-27-182
		c-1.2,0-2.1-1-2.1-2.2c0-1.2,0.9-2.2,2.1-2.2c1.2,0,2.1,1,2.1,2.2C-24.9-183-25.8-182-27-182z"/>
	<path fill-rule="evenodd" clip-rule="evenodd" d="M-43.9-172l-0.8,8.6h-2.7l-0.8-8.6H-50v-7.6c0.6-0.3,1.3-0.6,2.1-0.8l1.9,4.1
		l1.9-4.1c0.8,0.2,1.5,0.4,2.1,0.8v7.6H-43.9z M-46-182c-1.1,0-2-1-2-2.2c0-1.2,0.9-2.2,2-2.2s2,1,2,2.2C-44-183-44.9-182-46-182z"
		/>
	<path fill-rule="evenodd" clip-rule="evenodd" d="M77.5-170.5l-10.6-5.9c0-0.6,0.4-1.2,0.9-1.5c1.7-1,2.8-2.8,2.8-4.8
		c0-3.1-2.5-5.6-5.6-5.6s-5.6,2.5-5.6,5.6c0,1,0.8,1.9,1.9,1.9s1.9-0.8,1.9-1.9c0-1,0.8-1.9,1.9-1.9c1,0,1.9,0.8,1.9,1.9
		c0,0.7-0.4,1.3-0.9,1.6c-1.7,1-2.8,2.8-2.8,4.7l-10.7,6c-1.4,0.9-2.4,2.8-2.4,4.4c0,2,1.7,3.7,3.7,3.7h22.5c2.1,0,3.7-1.7,3.7-3.7
		C80-167.7,79-169.6,77.5-170.5z M53.8-166c0-0.4,0.4-1.1,0.6-1.2l10.6-5.9l10.5,5.9c0.3,0.2,0.7,0.9,0.7,1.3H53.8z"/>
	<path fill-rule="evenodd" clip-rule="evenodd" d="M-100-117.1h30v1h-30V-117.1z"/>
	<path fill-rule="evenodd" clip-rule="evenodd" d="M-87-116.1h4c1.1,0,2-0.9,2-2h-8C-89-117-88.1-116.1-87-116.1z"/>
	<path fill-rule="evenodd" clip-rule="evenodd" d="M-77-116.1h4c1.1,0,2-0.9,2-2h-8C-79-117-78.1-116.1-77-116.1z"/>
	<path fill-rule="evenodd" clip-rule="evenodd" d="M-83-127.1h-4c-1.1,0-2,0.9-2,2v6h8v-6C-81-126.2-81.9-127.1-83-127.1z
		 M-83.5-125.3h-3.1c-0.3,0-0.5-0.2-0.5-0.5c0-0.3,0.2-0.5,0.5-0.5h3.1c0.3,0,0.5,0.2,0.5,0.5C-83-125.5-83.2-125.3-83.5-125.3z"/>
	<path fill-rule="evenodd" clip-rule="evenodd" d="M-73-127.1h-4c-1.1,0-2,0.9-2,2v6h8v-6C-71-126.2-71.9-127.1-73-127.1z
		 M-73.5-125.3h-3.1c-0.3,0-0.5-0.2-0.5-0.5c0-0.3,0.2-0.5,0.5-0.5h3.1c0.3,0,0.5,0.2,0.5,0.5C-73-125.5-73.2-125.3-73.5-125.3z"/>
	<path fill-rule="evenodd" clip-rule="evenodd" d="M-84-125.1h8v1h-8V-125.1z"/>
	<path fill-rule="evenodd" clip-rule="evenodd" d="M-100-117.1h1v3h-1V-117.1z"/>
	<path fill-rule="evenodd" clip-rule="evenodd" d="M-71-117.1h1v3h-1V-117.1z"/>
	<path fill-rule="evenodd" clip-rule="evenodd" d="M-97-116.1h4c1.1,0,2-0.9,2-2h-8C-99-117-98.1-116.1-97-116.1z"/>
	<path fill-rule="evenodd" clip-rule="evenodd" d="M-93-127.1h-4c-1.1,0-2,0.9-2,2v6h8v-6C-91-126.2-91.9-127.1-93-127.1z
		 M-93.5-125.3h-3.1c-0.3,0-0.5-0.2-0.5-0.5c0-0.3,0.2-0.5,0.5-0.5h3.1c0.3,0,0.5,0.2,0.5,0.5C-93-125.5-93.2-125.3-93.5-125.3z"/>
	<path fill-rule="evenodd" clip-rule="evenodd" d="M-94-125.1h8v1h-8V-125.1z"/>
	<path fill="none" d="M-88.5-132.2h-3.1c-0.3,0-0.5,0.2-0.5,0.5c0,0.3,0.2,0.5,0.5,0.5h3.1c0.3,0,0.5-0.2,0.5-0.5
		C-88-132-88.2-132.2-88.5-132.2z"/>
	<path fill="none" d="M-78-131.7c0-0.3-0.2-0.5-0.5-0.5h-3.1c-0.3,0-0.5,0.2-0.5,0.5c0,0.3,0.2,0.5,0.5,0.5h3.1
		C-78.2-131.3-78-131.5-78-131.7z"/>
	<path fill="none" d="M-88-131.7c0-0.3-0.2-0.5-0.5-0.5h-3.1c-0.3,0-0.5,0.2-0.5,0.5c0,0.3,0.2,0.5,0.5,0.5h3.1
		C-88.2-131.3-88-131.5-88-131.7z"/>
	<path d="M-77-127.6h1v-3.5c0-1.1-0.9-2-2-2h-4c-1.1,0-2,0.9-2,2v3.5h1c1.4,0,2.5,1.1,2.5,2.5v1h1v-1
		C-79.5-126.5-78.4-127.6-77-127.6z M-81.5-131.3c-0.3,0-0.5-0.2-0.5-0.5c0-0.3,0.2-0.5,0.5-0.5h3.1c0.3,0,0.5,0.2,0.5,0.5
		c0,0.3-0.2,0.5-0.5,0.5H-81.5z"/>
	<path d="M-87-127.6h1v-3.5c0-1.1-0.9-2-2-2h-4c-1.1,0-2,0.9-2,2v3.5h1c1.4,0,2.5,1.1,2.5,2.5v1h1v-1
		C-89.5-126.5-88.4-127.6-87-127.6z M-91.5-131.3c-0.3,0-0.5-0.2-0.5-0.5c0-0.3,0.2-0.5,0.5-0.5h3.1c0.3,0,0.5,0.2,0.5,0.5
		c0,0.3-0.2,0.5-0.5,0.5H-91.5z"/>
	<g>
		<path d="M-179.9-116.4c-0.5-0.3-1.2-0.2-1.5,0.4c-1.4,2.2-3.7,3.5-6.3,3.5c-4.1,0-7.4-3.4-7.4-7.5c0-2.4,1.2-4.7,3.1-6.1
			c0.5-0.4,0.6-1,0.2-1.5c-0.4-0.5-1-0.6-1.5-0.3c-2.5,1.8-4,4.8-4,7.9c0,5.3,4.3,9.7,9.6,9.7c3.3,0,6.4-1.7,8.1-4.6
			C-179.2-115.4-179.3-116.1-179.9-116.4z"/>
		<path d="M-172.3-115.8c-0.2-0.6-0.8-0.9-1.4-0.7l-1.3,0.5c0,0-2.4-6.8-2.5-6.9c0,0-0.1-0.1-0.1-0.2c-0.3-0.5-0.9-0.9-1.5-0.9h-5.7
			l-0.1-2.1h4.7c0.6,0,1.1-0.5,1.1-1.1c0-0.6-0.5-1.1-1.1-1.1h-4.9l-0.2-3.1c0,0,0-0.1,0-0.1c-0.1-1.5-1.4-2.7-2.9-2.6
			c-1.5,0.1-2.7,1.4-2.6,2.9v0l0,0l0.4,8.1l0,0c0,0,0,0,0,0c0.1,1.5,1.3,2.6,2.7,2.6c0,0,7.4,0,7.4,0l2.2,6.1
			c0.2,0.7,0.9,1.1,1.5,1.1c0.1,0,0.2,0,0.3,0c0.1,0,0.1,0,0.2-0.1l2.9-1.1C-172.4-114.6-172.1-115.2-172.3-115.8z"/>
		
			<ellipse transform="matrix(5.248704e-02 0.9986 -0.9986 5.248704e-02 -315.8446 57.2128)" cx="-188.1" cy="-137.8" rx="2.5" ry="2.5"/>
	</g>
	<g>
		<path fill-rule="evenodd" clip-rule="evenodd" d="M-123-130.1c0-0.1,0-0.1,0-0.2c0-2-1.5-3.6-3.4-3.7c-0.7-0.8-1.7-1.3-2.8-1.3
			c-1.3,0-2.5,0.7-3.2,1.7c-0.5-0.3-1.2-0.5-1.8-0.5c-2.1,0-3.7,1.7-3.7,3.7c0,0.1,0,0.1,0,0.2c-1.5,0.5-2.5,1.9-2.5,3.5
			c0,0.1,0,0.2,0,0.2h-6h-1h-2v2h2v1h-2v1h2v1v1h1h7h1v-1v-1h2v-0.5c0.6,0,1.1-0.2,1.6-0.5c0.6,0.3,1.2,0.5,1.9,0.5
			c0.4,0,0.9-0.1,1.2-0.2v6.5h-1.2v1.2h5v-1.2h-1.2v-6.2c0.2,0,0.4,0,0.6-0.1c0.2,0,0.4,0.1,0.6,0.1c0.7,0,1.3-0.2,1.9-0.5
			c0.6,0.3,1.2,0.5,1.9,0.5c2.1,0,3.7-1.7,3.7-3.7C-120.5-128.2-121.6-129.6-123-130.1z M-146.5-124.3h6.8c0.1,0.1,0.1,0.2,0.2,0.3
			v0.7h-7V-124.3z M-139.5-121.3h-7v-1h7V-121.3z"/>
		<polygon fill-rule="evenodd" clip-rule="evenodd" points="-139.5,-119.3 -146.5,-119.3 -148.5,-119.3 -149.5,-119.3 
			-149.5,-118.3 -148.5,-118.3 -148.5,-115.3 -146.5,-115.3 -146.5,-118.3 -145.5,-118.3 -145.5,-116.3 -144.5,-116.3 
			-144.5,-118.3 -141.5,-118.3 -141.5,-116.3 -140.5,-116.3 -140.5,-118.3 -139.5,-118.3 -139.5,-115.3 -137.5,-115.3 
			-137.5,-118.3 -136.5,-118.3 -136.5,-119.3 -137.5,-119.3 		"/>
	</g>
	<g>
		<path fill-rule="evenodd" clip-rule="evenodd" d="M15.8-179.4c-0.1-0.2-0.2-0.4-0.4-0.5c-0.2-0.1-0.5-0.2-0.8-0.2h-1v4.4h0.9
			c0.4,0,0.7-0.1,0.9-0.2s0.4-0.3,0.5-0.4c0.1-0.2,0.2-0.4,0.2-0.7c0-0.3,0-0.6,0-0.9c0-0.3,0-0.6,0-0.9
			C16-179,15.9-179.2,15.8-179.4z"/>
		<path fill-rule="evenodd" clip-rule="evenodd" d="M21.4-187.4H8.1c-1.1,0-2,0.9-2,2v20c0,1.1,0.9,2,2,2h13.3c1.1,0,2-0.9,2-2v-20
			C23.4-186.5,22.5-187.4,21.4-187.4z M17.6-176.5c-0.1,0.4-0.2,0.8-0.4,1.1c-0.3,0.4-0.6,0.7-1,1s-1,0.4-1.7,0.4h-0.9v5h-1.8v-12.8
			h2.8c0.5,0,0.9,0.1,1.3,0.2c0.4,0.1,0.7,0.4,1,0.7c0.3,0.3,0.5,0.7,0.6,1.2c0.1,0.4,0.2,1.1,0.2,1.8
			C17.7-177.3,17.7-176.9,17.6-176.5z"/>
	</g>
	<path fill-rule="evenodd" clip-rule="evenodd" d="M-20.2-63.6L-34-88.1c-0.5-1-1.4-1-2,0l-13.8,24.6c-0.5,1-0.1,1.7,1,1.7h27.6
		C-20.1-61.8-19.7-62.6-20.2-63.6z M-33-66.8c0,0.6-0.5,1-1,1h-2c-0.5,0-1-0.4-1-1v-2c0-0.6,0.5-1,1-1h2c0.5,0,1,0.5,1,1V-66.8z
		 M-33-72.8c0,0.6-0.4,1-1,1h-2c-0.5,0-1-0.4-1-1v-6c0-0.6,0.5-1,1-1h2c0.5,0,1,0.5,1,1L-33-72.8z"/>
	<g>
		<path d="M19.6-82.3c-1.4-0.4-3-0.7-4.6-0.7c-7.1,0-13,5.2-14.8,6.9c-0.3,0.3-0.3,0.8,0,1.1c1,1,3.5,3.2,6.9,4.9L19.6-82.3z"/>
		<path d="M29.8-76.1c-1.1-1-3.7-3.4-7.1-5l2.8-2.7H23l-17.4,17h2.4l2.2-2.1c1.5,0.5,3.2,0.8,4.9,0.8c7.1,0,13-5.2,14.8-6.9
			C30.1-75.3,30.1-75.8,29.8-76.1z M20.1-74.5c-0.4,1.9-2,3.5-4,3.9c-1.4,0.3-2.6,0-3.7-0.6l2.2-2.2c0.1,0,0.2,0,0.4,0
			c1.3,0,2.3-1,2.3-2.3c0-0.1,0-0.2,0-0.4l2.2-2.2C20.1-77.1,20.4-75.8,20.1-74.5z"/>
	</g>
	<g>
		<polygon points="65.9,-87.8 64,-87.8 64,-81.8 65.9,-81.8 		"/>
		<polygon points="74,-72.5 80,-73.7 79.5,-76 73.6,-74.8 		"/>
		<polygon points="76.3,-82.6 74.6,-84.2 70.4,-80 72,-78.3 		"/>
		<polygon points="56.4,-74.8 50.5,-76 50,-73.7 56,-72.5 		"/>
		<path d="M73-66.8l-2.3-10.9c-0.2-1.2-1.3-2.1-2.7-2.1l-5,0c-1.4,0-2.7,0.9-3,2.1l-2,10.9c0,0.1,0,0,0,1h-3l0.1,3H76v-3h-3
			C73-66.8,73-66.8,73-66.8z M65.1-66.8l-0.1-11h2c1.1,0,1.8,0.1,2,1l1,5c0,0.1,1,5,1,5H65.1z"/>
		<polygon points="59.6,-80 55.4,-84.2 53.7,-82.6 58,-78.3 		"/>
	</g>
	<path fill-rule="evenodd" clip-rule="evenodd" d="M-33.2-110.3h-4v-11h-2v-9c0-2.1,0.9-3,3-3h2c2.1,0,3,0.9,3,3v9h-2V-110.3z
		 M-35.2-134.7c-1.6,0-2.8-1.3-2.8-2.8c0-1.6,1.3-2.8,2.8-2.8s2.8,1.3,2.8,2.8C-32.4-136-33.6-134.7-35.2-134.7z"/>
	<path fill-rule="evenodd" clip-rule="evenodd" d="M-44.2-110.3h-4v-11h-2v-9c0-2.1,0.9-3,3-3h2c2.1,0,3,0.9,3,3v9h-2V-110.3z
		 M-46.2-134.7c-1.6,0-2.8-1.3-2.8-2.8c0-1.6,1.3-2.8,2.8-2.8s2.8,1.3,2.8,2.8C-43.4-136-44.6-134.7-46.2-134.7z"/>
	<path fill-rule="evenodd" clip-rule="evenodd" d="M-22.2-110.3h-4v-11h-2v-9c0-2.1,0.9-3,3-3h2c2.1,0,3,0.9,3,3v9h-2V-110.3z
		 M-24.2-134.7c-1.6,0-2.8-1.3-2.8-2.8c0-1.6,1.3-2.8,2.8-2.8s2.8,1.3,2.8,2.8C-21.4-136-22.6-134.7-24.2-134.7z"/>
	<path fill-rule="evenodd" clip-rule="evenodd" d="M14.6-137.3c-5,0-9,4-9,9c0,6,9,15,9,15s9-9,9-15
		C23.6-133.3,19.6-137.3,14.6-137.3z M14.6-124.2c-2.6,0-4.7-2.1-4.7-4.7c0-2.6,2.1-4.7,4.7-4.7s4.7,2.1,4.7,4.7
		C19.3-126.4,17.2-124.2,14.6-124.2z"/>
	<path fill-rule="evenodd" clip-rule="evenodd" d="M69.1-130.3c1,0,1.8,0.8,1.8,1.9c0,1-0.8,1.9-1.8,1.9h-6.7
		c-0.1,0.4-0.1,0.8-0.1,1.1c0,0.4,0,0.8,0.1,1.1h6.7c1,0,1.8,0.8,1.8,1.9c0,1-0.8,1.9-1.8,1.9h-5.6c1.7,3.2,5,5.3,8.5,5.3h0.4
		c0.8,0,1.4,0.7,1.4,1.7c0,1-0.6,1.9-1.3,2l0,0H72c-5.5,0-10.5-3.6-12.4-9.1h-2c-1,0-1.8-0.8-1.8-1.9c0-1,0.8-1.9,1.8-1.9h1.2v0
		c-0.1-0.4-0.1-0.7-0.1-1.1c0-0.4,0-0.7,0.1-1.1v0h-1.2c-1,0-1.8-0.8-1.8-1.9c0-1,0.8-1.9,1.8-1.9h2c2-5.4,6.9-9.1,12.4-9.1h0.4
		c0.8,0.1,1.4,1,1.4,2c0,1-0.5,1.7-1.2,1.7l-0.6,0c-3.5,0-6.8,2.1-8.5,5.3H69.1z"/>
	<path fill-rule="evenodd" clip-rule="evenodd" d="M-176.6-88.7l-0.3,0.2c-1.1,0.5-2.8,6.3-2.8,6.7l0,0.4c0.2,0.8,0.9,1.7,2.5,3.5
		c-0.9,2.1-3.4,4.9-4.9,6.2c-1.6,1.4-4.3,3.2-6.3,3.9c-1.8-2.1-2.6-2.9-3.5-3c-0.5,0-6.4,1-6.9,2l-0.2,0.3c-0.4,0.7-1.1,1.7-0.8,2.8
		c0.1,0.3,0.2,0.5,0.3,0.8c0.5,0.8,1.7,2.6,3.4,3.4c1,0.5,10.4,0.8,18.3-6.3c7.8-7,8.2-15.6,7.9-16.9l0,0l0-0.1
		c-0.6-1.8-2.3-3.2-3-3.8C-174.3-89.8-175.8-89.1-176.6-88.7z"/>
	<path fill-rule="evenodd" clip-rule="evenodd" d="M-147.2-87.3v18h18v-18H-147.2z M-131.2-71.3h-14v-14h14V-71.3z"/>
	<path fill-rule="evenodd" clip-rule="evenodd" d="M-125.2-73.3v-10h-2l3-4l3,4h-2v10h2l-3,4l-3-4"/>
	<path fill-rule="evenodd" clip-rule="evenodd" d="M-133.2-63.3h-10v2l-4-3l4-3v2h10v-2l4,3l-4,3"/>
	<g opacity="0.4">
		<path fill-rule="evenodd" clip-rule="evenodd" d="M-91.5-70.4l4-4c-0.1-0.2-0.1-0.5-0.1-0.7c0-1,0.6-1.9,1.5-2.3v-9.9
			c0-0.5,0.5-1,1-1c-7.2,0-13,5.8-13,13c0,3.6,1.5,6.8,3.8,9.2l2.8-2.8C-91.9-69.4-91.9-70-91.5-70.4z"/>
	</g>
	<g>
		<g>
			<path fill-rule="evenodd" clip-rule="evenodd" d="M-85.2-90.3c-1,0-2,0.1-3,0.3c-1,0.2-1.9,0.5-2.8,0.9c-1.3,0.6-2.6,1.3-3.7,2.2
				s-2.1,2-2.9,3.2c-1.6,2.4-2.6,5.3-2.6,8.4c0,1.6,0.2,3.1,0.7,4.5c0.7,2.3,2,4.4,3.7,6.1c0.3,0.3,0.7,0.7,1.1,1
				c0.7,0.6,1.5,1.2,2.4,1.6c0.4,0.2,0.9,0.4,1.3,0.6c0.9,0.4,1.8,0.7,2.8,0.9c1,0.2,2,0.3,3,0.3c8.3,0,15-6.7,15-15
				C-70.2-83.6-76.9-90.3-85.2-90.3z M-85.2-72.6c-0.3,0-0.6-0.1-0.9-0.2l-3.9,3.9c-0.4,0.4-1.1,0.4-1.5,0c0,0,0,0,0,0l-2.8,2.8
				c-2.4-2.4-3.8-5.6-3.8-9.2c0-7.2,5.8-13,13-13c0.5,0,1,0.5,1,1v9.9c0.9,0.4,1.5,1.3,1.5,2.3C-82.7-73.7-83.8-72.6-85.2-72.6z"/>
		</g>
	</g>
	<path fill-rule="evenodd" clip-rule="evenodd" d="M-184-13.4h-2l-14-2v-19.9h2v18.2l12,1.7h2l12-1.7v-18.2h2v19.9L-184-13.4z
		 M-184-35.2c3.6-2.1,10-2.1,10-2.1v17.9c0,0-6.4,0-10,2.1V-35.2z M-196-37.3c0,0,6.4,0,10,2.1v17.9c-3.6-2.1-10-2.1-10-2.1V-37.3z"
		/>
	<path fill-rule="evenodd" clip-rule="evenodd" d="M-120.5-31.4l-0.2,0.1l0,0l-2.7,2.7l-8.4-8.4l2.7-2.7l0,0l0.1-0.2
		c0.7-0.7,2-0.7,2.7,0.1l5.6,5.6C-119.8-33.4-119.8-32.1-120.5-31.4z M-143-20.2l12.5-12.6l2.8,2.8l-12.5,12.6l1.4,1.4l12.5-12.6
		l1.4,1.4l-13.9,14l-8.4-8.4l13.9-14l1.4,1.4l-12.5,12.6L-143-20.2z M-140.2-11.7l-4.9,0.7l-4.9,0.7l0.7-4.9l0.7-4.9l4.2,4.2
		L-140.2-11.7z"/>
	<path fill-rule="evenodd" clip-rule="evenodd" d="M-74-11.3l-26,0v-28l30,0v24L-74-11.3z M-91-13.3h12v-7h-12V-13.3z M-76-37.3h-18
		v12h18V-37.3z M-89-18.3l4,0v3h-4V-18.3z"/>
	<path fill-rule="evenodd" clip-rule="evenodd" d="M-50-28.3l3-2l8,14l16-23l3,2l-19,27L-50-28.3"/>
	<path fill-rule="evenodd" clip-rule="evenodd" d="M23.6-32.5l-1.8-1.8l-7.2,7.2l-7.2-7.2l-1.8,1.8l7.2,7.2l-7.2,7.2l1.8,1.8
		l7.2-7.2l7.2,7.2l1.8-1.8l-7.2-7.2L23.6-32.5z"/>
	<path fill-rule="evenodd" clip-rule="evenodd" d="M64.8-33.8c-4.7,0-8.5,3.8-8.5,8.5s3.8,8.5,8.5,8.5s8.5-3.8,8.5-8.5
		S69.5-33.8,64.8-33.8z M69.8-22.6l-2.2,2.2l-2.8-2.8l-2.8,2.8l-2.2-2.2l2.8-2.8l-2.8-2.8l2.2-2.2l2.8,2.8l2.8-2.8l2.2,2.2L67-25.3
		L69.8-22.6z"/>
	<path fill-rule="evenodd" clip-rule="evenodd" d="M-177.7,17c-0.9,0-1.6-0.7-1.6-1.6c0-0.9,0.7-1.6,1.6-1.6c0.9,0,1.6,0.7,1.6,1.6
		C-176.2,16.3-176.9,17-177.7,17z M-179.9,11.7c-0.4,0-0.8-0.2-1.1-0.5c-0.6-0.6-0.6-1.6,0-2.2c0.3-0.3,0.7-0.5,1.1-0.5
		c0.4,0,0.8,0.2,1.1,0.5c0.6,0.6,0.6,1.6,0,2.2C-179.1,11.6-179.5,11.7-179.9,11.7z M-185.2,10.5c-1.4,0-2.5-1.1-2.5-2.5
		c0-1.4,1.1-2.5,2.5-2.5c1.4,0,2.5,1.1,2.5,2.5C-182.7,9.4-183.8,10.5-185.2,10.5z M-190.4,22.3c-0.4,0-0.8-0.2-1.1-0.5
		c-0.6-0.6-0.6-1.6,0-2.2c0.3-0.3,0.7-0.5,1.1-0.5c0.4,0,0.8,0.2,1.1,0.5c0.6,0.6,0.6,1.6,0,2.2C-189.6,22.1-190,22.3-190.4,22.3z
		 M-190.4,11.7c-0.4,0-0.8-0.2-1.1-0.5c-0.6-0.6-0.6-1.6,0-2.2c0.3-0.3,0.7-0.5,1.1-0.5c0.4,0,0.8,0.2,1.1,0.5
		c0.6,0.6,0.6,1.6,0,2.2C-189.6,11.6-190,11.7-190.4,11.7z M-191.1,15.5c0,0.9-0.7,1.6-1.6,1.6c-0.9,0-1.6-0.7-1.6-1.6
		s0.7-1.6,1.6-1.6C-191.8,13.9-191.1,14.6-191.1,15.5z M-185.2,21.4c0.9,0,1.6,0.7,1.6,1.6c0,0.9-0.7,1.6-1.6,1.6
		c-0.9,0-1.6-0.7-1.6-1.6C-186.7,22.1-186,21.4-185.2,21.4z M-179.9,19.2c0.4,0,0.8,0.2,1.1,0.5c0.6,0.6,0.6,1.6,0,2.2
		c-0.3,0.3-0.7,0.5-1.1,0.5c-0.4,0-0.8-0.2-1.1-0.5c-0.6-0.6-0.6-1.6,0-2.2C-180.7,19.4-180.3,19.2-179.9,19.2z"/>
	<g>
		<circle fill-rule="evenodd" clip-rule="evenodd" cx="15" cy="4.1" r="2.3"/>
		<rect x="0.2" y="12.5" fill-rule="evenodd" clip-rule="evenodd" width="1.8" height="7.3"/>
		<path fill-rule="evenodd" clip-rule="evenodd" d="M24.7,15.4H21l-0.1-6.3c0-1.2-1-2.2-2.2-2.2h-7.6C9.9,7,9,7.9,9,9.2l0,6.3H5.3
			v-4.1H2.8v9.6h2.5v-4.1h3.7h2.1h0.6C11.6,20.4,11.2,29,11.2,29h2.9l0.6-11.2c0.1,0,0.5,0,0.6,0L16.2,29h2.9c0,0-0.6-8.6-0.8-12.2
			h0.6h2.1h3.8v4.1h2.5v-9.6h-2.5V15.4z M11.2,15.4L11.2,15.4v-4.7c0-0.2,0.1-0.3,0.3-0.3c0.2,0,0.3,0.1,0.3,0.3v3.9
			c0,0,0,0.3,0,0.8H11.2z M18.8,15.4h-0.6c0-0.5,0-0.8,0-0.8v-3.9c0-0.2,0.1-0.3,0.3-0.3c0.2,0,0.3,0.1,0.3,0.3V15.4z"/>
		<rect x="28" y="12.5" fill-rule="evenodd" clip-rule="evenodd" width="1.8" height="7.3"/>
	</g>
	<g>
		<path fill="#010101" d="M67.9,22.3c1.5-0.1,2.9-0.2,2.9-0.2l-2.2-1.3l-2.7-1.5l-4.1-2.3l-2.7-1.5l-2.2-1.3c0,0,0.7,1.2,1.4,2.5
			c0.8,1.5,1.5,3.1,1.4,3.4c-0.2,0.7-3.2,5.3-3.9,6.3c-0.5,0.8,0.9,2.2,1.9,2.8c1,0.5,2.9,1,3.3,0.1c0.5-1.3,2.8-6.1,3.3-6.6
			C64.5,22.6,66.3,22.4,67.9,22.3z"/>
		<g>
			<path fill="#010101" d="M76.7,16.9c3.3-5.8,1.8-12.8-3.3-15.7c-5.1-2.8-11.8-0.4-15.1,5.4c-1.2,2.2-1.8,4.5-1.7,6.7l15.3,8.6
				C73.7,20.7,75.4,19.1,76.7,16.9z"/>
		</g>
	</g>
	<circle fill="#010101" cx="55.6" cy="3.1" r="2.6"/>
	<g>
		<path d="M-172.5,54.1v-3.5l-5.5-4.5l-1.3,1.1c-1-0.9-2.3-1.5-3.7-1.5c-2,0-3.7,1-4.7,2.6c-0.8-0.5-1.7-0.7-2.7-0.7
			c-3.1,0-5.6,2.5-5.6,5.6c0,0.1,0,0.2,0,0.3c-1.9,0.7-3.3,2.3-3.7,4.3c0,0,0,0.1,0,0.1c0,0.3-0.1,0.5-0.1,0.8c0,0,0,0,0,0
			c0,0,0,0,0,0c0,0,0,0,0,0c0,3.1,2.5,5.5,5.6,5.5c0.1,0,0.2,0,0.4,0l0,0c0.3,0,0.5-0.1,0.8-0.1v1.3c-1.3,0.2-2.3,1.4-2.3,2.8
			c0,1.6,1.3,2.8,2.8,2.8c1.6,0,2.8-1.3,2.8-2.8c0-1.4-1-2.5-2.3-2.8v-1.6c0.2-0.1,0.4-0.2,0.6-0.3c0.8,0.5,1.8,0.8,2.8,0.8
			c0.7,0,1.3-0.1,1.9-0.3v9.7h-1.9v1.9h7.5v-1.9h-1.9v-9.3c0.3,0,0.6,0,0.9-0.1c0.3,0.1,0.6,0.1,0.9,0.1c1,0,2-0.3,2.8-0.8
			c0.8,0.5,1.8,0.8,2.8,0.8c3.1,0,5.6-2.5,5.6-5.6C-170,56.8-171,55.1-172.5,54.1z M-190.8,68.3c0,1-0.8,1.8-1.8,1.8
			c-1,0-1.8-0.8-1.8-1.8s0.8-1.8,1.8-1.8C-191.6,66.4-190.8,67.3-190.8,68.3z M-173.5,58.5h-4.5v-4.1h-3v4.1h-1.5V51l4.5-3.7
			l4.5,3.7V58.5z"/>
		<circle cx="-175.7" cy="51.8" r="1.3"/>
	</g>
	<g>
		<g>
			<polygon fill="#010101" points="-123,64.5 -146.6,67.8 -150,64.7 -149.1,63.8 -146.2,66.4 -123.7,63.3 -121,59.8 -120,60.5 			
				"/>
		</g>
		<g>
			<g>
				<circle fill="#010101" cx="-142.9" cy="69.5" r="1.5"/>
			</g>
			<g>
				<g>
					<circle fill="#010101" cx="-125.5" cy="67.1" r="1.5"/>
				</g>
			</g>
		</g>
	</g>
	<g>
		<polygon fill="#010101" points="-90.3,59.3 -88.2,65.4 -81.8,65.4 -79.7,59.3 -85,55.4 		"/>
		<path fill="#010101" d="M-85,45.5c-8.3,0-15,6.7-15,15s6.7,15,15,15s15-6.7,15-15S-76.7,45.5-85,45.5z M-73.4,65.4
			c-0.4,0.9-0.9,1.8-1.5,2.6l-0.1-1.3l-4.7,1.1l-2.5,4.2l1.3,0.6c-1.3,0.4-2.7,0.7-4.1,0.7c-1.4,0-2.7-0.2-4-0.7l1.3-0.6l-2.5-4.2
			l-4.7-1.1l-0.1,1.4c-0.6-0.8-1.1-1.7-1.5-2.6c-0.7-1.6-1-3.2-1-4.9c0,0,0-0.1,0-0.1l0.9,0.9l3.2-3.7l-0.4-4.8l-1.2,0.2
			c0.4-0.5,0.8-1,1.3-1.5c1.2-1.2,2.5-2.1,4-2.7c0.3-0.1,0.7-0.3,1-0.4l-0.6,1.1l4.5,1.9l4.5-1.9l-0.6-1.1c0.4,0.1,0.7,0.2,1.1,0.4
			c1.5,0.6,2.9,1.5,4,2.7c0.5,0.5,0.9,1,1.3,1.5l-1.2-0.2l-0.4,4.8l3.2,3.7l0.9-0.9c0,0,0,0,0,0.1C-72.4,62.2-72.7,63.9-73.4,65.4z"
			/>
	</g>
	<g id="Layer_4">
		<polygon fill="#010101" points="-36.8,73.5 -34.2,73.5 -34.2,68.3 -35.5,66.8 -36.8,68.3 		"/>
		<g>
			<path fill="#010101" d="M-39.4,50.2c-0.4-0.2-0.6-0.6-0.7-1c-0.1-0.4,0-0.8,0.2-1.2c0.2-0.4,0.6-0.6,1-0.7c0.4-0.1,0.8,0,1.2,0.2
				c0.4,0.2,0.6,0.6,0.7,1c0.1,0.4,0,0.8-0.2,1.2c-0.2,0.4-0.6,0.6-1,0.7C-38.7,50.5-39.1,50.5-39.4,50.2z"/>
			<path fill="#010101" d="M-46.4,56.5l4-0.6l-2.4-2.4c-0.1-0.1-0.2-0.3-0.3-0.5c-0.2-0.6,0.1-0.9,0.6-1.3l2.3-2
				c0.2-0.2,0.4-0.3,0.6-0.3c0.4-0.1,0.7,0,1,0.2c0.3,0.2,0.5,0.5,0.6,0.9c0.1,0.5-0.1,0.9-0.5,1.2l-1.9,1.6l2,2
				c0.1,0.1,0.2,0.3,0.2,0.6c0,0.3,0,0.5-0.2,0.7c-0.2,0.3-0.4,0.4-0.7,0.5l-5.1,0.9L-46.4,56.5z"/>
		</g>
		<path fill="#010101" d="M-22.9,63.5c-0.4,0.2-0.8,0.2-1.2,0.1c-0.4-0.1-0.7-0.4-0.9-0.8c-0.2-0.4-0.2-0.8-0.1-1.2
			c0.1-0.4,0.4-0.7,0.8-0.9c0.4-0.2,0.8-0.2,1.2-0.1c0.4,0.1,0.7,0.4,0.9,0.8c0.2,0.4,0.2,0.8,0.1,1.2C-22.3,63-22.5,63.3-22.9,63.5
			z"/>
		<path fill="#010101" d="M-49.5,59.8l21.1,8c0.1-0.2,0.2-0.3,0.4-0.4c0.2-0.1,0.5-0.2,0.7-0.1l2.7,0.7l0-2.5c0-0.5,0.2-0.9,0.7-1.2
			c0.3-0.2,0.7-0.2,1.1-0.1c0.4,0.1,0.7,0.3,0.8,0.7c0.1,0.2,0.1,0.4,0.1,0.7l0,3.1c0,0.6-0.1,1-0.7,1.3c0,0-0.1,0-0.2,0l2.8,1
			l-0.5,1.4l-4.9-1.9l-0.6-1.1l-0.2,0.1l-0.2,0.1l1.8,3.4l-0.7,0.4l-0.8,0.3l-2.3-4.4L-50,61.2L-49.5,59.8z"/>
	</g>
	<circle fill="none" cx="6.4" cy="52.4" r="0.7"/>
	<circle fill="none" cx="4.6" cy="54.2" r="0.7"/>
	<circle fill="none" cx="4" cy="51.8" r="0.7"/>
	<g>
		<path fill="#010101" d="M19.6,59.9c0.3,0,0.7,0.1,1,0.2l0.9,0.3l-1.1-11.7l-0.3-3.1h-3.1l-0.3,3.1h-3.9l-0.3-3.1H9.4l-0.3,3.1H5.3
			L5,45.5H1.9l-0.3,3.1h0l-1.7,18.8c0,0,4.8,1.6,11,1.6c1.6,0,3.1-0.1,4.5-0.3l1.4-6.6C17.1,60.8,18.2,59.9,19.6,59.9z M3.5,51.3
			c0.3-0.3,0.7-0.3,1,0c0.3,0.3,0.3,0.7,0,1c-0.3,0.3-0.7,0.3-1,0C3.2,52,3.2,51.6,3.5,51.3z M5.1,54.7c-0.3,0.3-0.7,0.3-1,0
			c-0.3-0.3-0.3-0.7,0-1c0.3-0.3,0.7-0.3,1,0C5.4,53.9,5.4,54.4,5.1,54.7z M6.9,52.9c-0.3,0.3-0.7,0.3-1,0c-0.3-0.3-0.3-0.7,0-1
			c0.3-0.3,0.7-0.3,1,0C7.2,52.2,7.2,52.6,6.9,52.9z"/>
		<circle fill="#010101" cx="23.5" cy="73.6" r="0.7"/>
		<path fill="#010101" d="M29.4,65.4l-3.3-1.2l3.4-10.5l-2.8-1l-3.4,10.5l-3.3-1.2c-0.1,0-0.2-0.1-0.3-0.1c-0.4,0-0.7,0.3-0.8,0.7
			l-1.9,9.3c-0.1,0.3,0,0.5,0.1,0.7c1-0.8,2.3-1.6,3.9-2.2c2-0.8,4.7-0.7,6.7,0.5l2.3-4.3C30.2,66.1,29.9,65.6,29.4,65.4z"/>
		<circle fill="#010101" cx="25.6" cy="72.3" r="0.7"/>
		<circle fill="#010101" cx="25.6" cy="74.8" r="0.7"/>
	</g>
	<path fill="none" d="M-127.6,10.7l-0.4,0.7c0.3,0.2,0.6,0.4,0.9,0.5l0.4-0.7C-127.1,11.1-127.4,10.9-127.6,10.7z"/>
	<path fill="none" d="M-129.9,14.4c0.3,0.1,0.6,0.3,0.9,0.5l0.4-0.7c-0.3-0.2-0.6-0.3-0.9-0.5L-129.9,14.4z"/>
	<circle cx="-145.9" cy="23.4" r="4.1"/>
	<path d="M-120.1,16c-1.7,1.4-2.8,3.6-2.8,6c0,0.7,0.1,1.4,0.3,2.1c1.6-1.8,2.6-4.2,2.6-6.8C-120,16.9-120,16.5-120.1,16z"/>
	<path d="M-130.2,7.2c-0.1,0-0.3,0-0.4,0c0.5,1.1,1.2,2.1,2.1,2.9l1.5-2.4C-128,7.4-129.1,7.2-130.2,7.2z"/>
	<path d="M-126.7,11.2l1.7-2.7c-0.3-0.2-0.6-0.3-0.9-0.5l-1.7,2.6C-127.4,10.9-127.1,11.1-126.7,11.2z"/>
	<path d="M-123.3,12c0.6,0,1.2-0.1,1.7-0.2c-0.7-1.1-1.6-2-2.6-2.7l-1.6,2.5C-125,11.9-124.2,12-123.3,12z"/>
	<path d="M-131.4,7.2c-4.9,0.6-8.7,4.6-8.9,9.6c1.5-2.4,4.2-4,7.3-4c0.9,0,1.8,0.1,2.6,0.4l1.6-2.5C-130,9.8-130.9,8.6-131.4,7.2z"
		/>
	<path d="M-129.5,13.7c0.3,0.1,0.6,0.3,0.9,0.5l1.4-2.2c-0.3-0.2-0.6-0.3-0.9-0.5L-129.5,13.7z"/>
	<path d="M-120.2,15.1c-0.2-0.9-0.5-1.8-0.9-2.5c-0.7,0.2-1.4,0.3-2.1,0.3c-1,0-2-0.2-2.9-0.5l-1.5,2.4c2,1.6,3.3,4,3.3,6.8
		c0,1.9-0.6,3.6-1.7,5.1c1-0.5,1.9-1.1,2.8-1.8c-0.3-0.9-0.5-1.8-0.5-2.7C-123.7,19.2-122.4,16.7-120.2,15.1z"/>
	<path d="M-130.2,27.5c0.9,0,1.7-0.1,2.6-0.3c1.5-1.4,2.4-3.4,2.4-5.6c0-2.5-1.1-4.7-2.9-6.1l-6.8,10.9
		C-133.5,27.1-131.9,27.5-130.2,27.5z"/>
	<path d="M-129.9,14.4l-6.7,10.8c0.3,0.2,0.5,0.4,0.8,0.6l6.8-10.9C-129.3,14.7-129.6,14.5-129.9,14.4z"/>
	<path d="M-133.1,13.7c-3.2,0-6,2-7.2,4.8c0.3,2.3,1.3,4.4,2.8,5.9l6.5-10.4C-131.6,13.8-132.3,13.7-133.1,13.7z"/>
	<path fill="#010101" d="M-22.1,18.9c0.1-0.5,0.1-1,0.1-1.5c0-4.2-3.5-7.6-7.8-7.6c-0.2,0-0.5,0-0.7,0c-1,0.8-2.2,1.5-3.6,2.1
		c-1.2,0.6-2.4,1.1-3.5,1.4c0-0.2,0-0.4-0.1-0.5c1.1-0.3,2.2-0.8,3.4-1.4c0.9-0.5,1.8-0.9,2.5-1.4c1-0.7,1.9-1.4,2.6-2.1
		c1.1-1.2,1.6-2.2,1.3-2.8c-0.2-0.5-0.9-0.7-2-0.7c-1.8,0-4.4,0.8-7,2c-2.1,1-3.7,2.2-4.8,3.2c-1.4-0.2-3,0.1-4.5,0.9
		c-3.2,1.7-4.8,5-3.5,7.4c1,1.8,3.3,2.6,5.8,2.1l0.1,0.1c-1.3,2.1-1.3,4.8-1.3,4.8h3.2h2.7c0-2.8,4-3.2,4.2-3.2l0,0.3l0,0.3
		c0,0-0.2,0-0.5,0.1c-0.9,0.2-3.1,0.8-3.2,2.4c0,0.1,0,0.1,0,0.2h2.2h6.9l0,0c2.2-0.1,4.1-1,5.5-2.5c0.4,0.5,1,0.8,1.7,0.8
		c1.2,0,2.3-1,2.3-2.3C-20,20-20.9,19-22.1,18.9z M-45.6,14.8c-0.5,0-0.9-0.4-0.9-0.9c0-0.5,0.4-0.9,0.9-0.9c0.5,0,0.9,0.4,0.9,0.9
		C-44.7,14.4-45.1,14.8-45.6,14.8z"/>
	<path fill="#010101" d="M82,72.3l-9.4-9.4c1.2-1.8,1.9-4,1.9-6.2c0-3-1.2-5.8-3.3-7.9c-2.1-2.1-4.9-3.3-7.9-3.3
		c-3,0-5.8,1.2-7.9,3.3c-2.1,2.1-3.3,4.9-3.3,7.9s1.2,5.8,3.3,7.9c2.1,2.1,4.9,3.3,7.9,3.3c2.3,0,4.4-0.7,6.3-1.9l9.4,9.4
		c0.3,0.3,0.9,0.2,1.3-0.2l1.6-1.6C82.3,73.2,82.3,72.6,82,72.3z M63.4,64.8c-4.5,0-8.1-3.7-8.1-8.1s3.6-8.1,8.1-8.1
		s8.1,3.7,8.1,8.1S67.9,64.8,63.4,64.8z"/>
	<g id="Your_Icon">
		<path fill="#010101" d="M82.2,92.1H57.9l-1.1-3.5h-4.7l0.6,1.7h2.8l5.5,17.2c-1.2,0.2-2.1,1.3-2.1,2.5c0,1.4,1.2,2.6,2.6,2.6
			c1.4,0,2.6-1.1,2.6-2.6c0-0.3-0.1-0.6-0.2-0.9h7.2c-0.1,0.3-0.2,0.6-0.2,0.9c0,1.4,1.2,2.6,2.6,2.6c1.4,0,2.6-1.1,2.6-2.6
			c0-1.4-1.1-2.5-2.4-2.6c0,0-0.2,0-0.2,0l-10.7,0l-1.1-3.4h13.5L82.2,92.1z"/>
	</g>
	<path fill="#010101" d="M-24,105.4c-0.2-0.1-0.4-0.2-0.6-0.3l-0.1,0c0,0-1-0.5-1.1-4.4c-0.1-3.9,0.9-4.5,0.9-4.5l0.1-0.1
		c1-0.5,1.8-1.3,2.3-2.3c1.4-2.7,0.4-6-2.3-7.4c-2.7-1.4-6-0.4-7.4,2.3c-0.6,1.1-0.7,2.3-0.6,3.4l0,0c0,0,0.3,1.3-3.1,3.4
		c-3.3,2.1-4.9,1.1-4.9,1.1l-0.2-0.1c-2.7-1.4-6-0.4-7.4,2.3c-1.4,2.7-0.4,6,2.3,7.4c2,1.1,4.3,0.8,6-0.6l0,0c0,0,1.1-0.9,4.6,1
		c2.8,1.5,3.2,2.9,3.2,3.5c-0.1,2,1,4,2.9,5c2.7,1.4,6,0.4,7.4-2.3C-20.3,110.1-21.3,106.8-24,105.4z M-46.7,104.2
		C-46.7,104.2-46.7,104.2-46.7,104.2C-46.7,104.2-46.7,104.2-46.7,104.2L-46.7,104.2z M-40.8,97.8c-0.7-0.6-2.4-0.5-3.9,0.4
		c0.2,0.2,0.3,0.4,0.3,0.7c0,0.6-0.5,1.2-1.1,1.2c-0.1,0-0.2,0-0.3,0c0,0,0,0-0.1,0c-0.4-0.1-0.7,0.2-0.8,0.3c-0.8,1.5-0.8,3,0,3.7
		c-1.5-1.5-1.5-4,0.1-5.8C-45,96.6-42.4,96.4-40.8,97.8L-40.8,97.8z M-30.6,88.1c1.6-1.8,4.2-2,5.8-0.6l0,0
		c-0.7-0.6-2.4-0.5-3.9,0.4c0.2,0.2,0.3,0.4,0.3,0.7c0,0.6-0.5,1.2-1.1,1.2c-0.1,0-0.2,0-0.3,0c0,0,0,0-0.1,0
		c-0.4-0.1-0.7,0.2-0.8,0.3c-0.8,1.5-0.8,3,0,3.7C-32.2,92.4-32.2,89.8-30.6,88.1z M-34.6,105c-2.9-1.5-3.3-2.8-3.4-3.2
		c0-0.5,0-0.9-0.1-1.4l0,0c0,0-0.2-1.3,3.1-3.3c3-1.8,4.3-1.5,4.5-1.4c0.2,0.1,0.3,0.2,0.5,0.3c0.3,0.2,0.7,0.3,1,0.4
		c0.4,0.4,1.2,1.5,1.2,4.4c0.1,2.9-0.8,4-1.2,4.4c-0.5,0.2-0.9,0.5-1.3,0.9C-30.6,106.2-31.9,106.4-34.6,105z M-29.7,112.9
		C-29.7,112.9-29.7,112.9-29.7,112.9C-29.7,112.9-29.7,112.9-29.7,112.9L-29.7,112.9z M-23.9,106.5c-0.7-0.6-2.4-0.5-3.9,0.4
		c0.2,0.2,0.3,0.4,0.3,0.7c0,0.6-0.5,1.2-1.1,1.2c-0.1,0-0.2,0-0.3,0c0,0,0,0-0.1,0c-0.4-0.1-0.7,0.2-0.8,0.3c-0.8,1.5-0.8,3,0,3.7
		c-1.5-1.5-1.5-4,0.1-5.8C-28,105.4-25.4,105.1-23.9,106.5L-23.9,106.5z"/>
	<path fill="#010101" d="M0,97.4C0,97.5,0,97.5,0,97.4L0,97.4C0,97.4,0,97.4,0,97.4z"/>
	<g>
		<ellipse fill="#010101" cx="9" cy="96.9" rx="1" ry="1"/>
		<path fill="#010101" d="M20.5,102c0.6-0.1,0.9-0.7,0.8-1.2c-0.1-0.6-0.7-0.9-1.3-0.8c-0.6,0.1-0.9,0.7-0.8,1.2
			C19.4,101.8,20,102.2,20.5,102z"/>
		<path fill="#010101" d="M27.1,109.6c-1.4,0-3-1.5-4.8-3.2c-0.2-0.2-0.4-0.4-0.6-0.5l-0.6-2.5c-0.1-0.6-0.7-1-1.3-0.8
			c-0.5,0.1-0.8,0.5-0.9,1c-1.7-1.3-3.7-2.2-6-2.2v-9.9l-6.7-3.7L0,91.4v9.9v3.3v9.1h1.3V112h4.2v1.7h1.3V112h5v1.7h1.3v-9.1v-0.8
			c2.9,0,5.4,2.2,7.7,4.4c2.1,2,4.1,3.8,6.5,3.8h0.4v1.7h1.2V112H30v-2.5H27.1z M5.4,111.2H1.3v-1.7h4.2L5.4,111.2L5.4,111.2z
			 M5.4,108.7H1.3v-1.7h4.2L5.4,108.7L5.4,108.7z M5.4,106.3H1.3v-1.7h4.2L5.4,106.3L5.4,106.3z M11.7,101.3h-1.3l-0.5-2.1
			c-0.1-0.6-0.7-1-1.3-0.8c-0.6,0.1-1,0.7-0.8,1.3l0.4,1.6H1.3v-9.1h10.4L11.7,101.3L11.7,101.3z"/>
	</g>
	<g>
		<path fill="#585D5C" d="M-75.4,105c-3,0-5.4,2.4-5.4,5.3c0,2.9,2.4,5.3,5.4,5.3c3,0,5.4-2.4,5.4-5.3C-70,107.4-72.4,105-75.4,105z
			 M-75.4,112.9c-1.4,0-2.6-1.1-2.6-2.5c0-1.4,1.2-2.5,2.6-2.5c1.4,0,2.6,1.1,2.6,2.5C-72.9,111.7-74,112.9-75.4,112.9z"/>
		<path fill="#585D5C" d="M-85.7,101.1c1.2,0,2.3-0.1,3.4-0.4l1.9,4.3c0.9-0.9,2.1-1.5,3.4-1.7l-1.8-4c4.3-2.4,7.3-7,7.3-12.2
			c0-0.8,0-1.4,0-1.4H-100c0,0,0,0.6,0,1.4c0,5.3,2.9,9.8,7.3,12.2l-7.3,16.3h4.1l1.6-3.5h11.8c-0.2-0.6-0.2-1.2-0.2-1.9
			c0-0.7,0.1-1.3,0.3-1.9h-10.1l3.4-7.7C-88.1,101-86.9,101.1-85.7,101.1z M-97.1,88.5h4.2c0.4,4.3,2.5,7.9,5.5,9.7
			C-92.4,97.5-96.4,93.5-97.1,88.5z"/>
	</g>
	<path fill="#585D5C" d="M-122.5,102.1c0-0.1,0-0.1,0-0.2c0-2-1.5-3.6-3.4-3.7c-0.3-0.3-0.6-0.5-0.9-0.8v-1.1c0.2,0,0.3,0,0.4,0
		c0.1,0,0.3,0,0.4,0c0.5,0,0.9-0.1,1.3-0.4c0.4,0.2,0.8,0.4,1.3,0.4c1.5,0,2.6-1.2,2.6-2.6c0-1.1-0.7-2.1-1.8-2.5c0-0.1,0-0.1,0-0.2
		c0-1.4-1.1-2.5-2.4-2.6c-0.5-0.5-1.2-0.9-2-0.9c-0.9,0-1.8,0.5-2.2,1.2c-0.4-0.2-0.8-0.4-1.3-0.4c-1.5,0-2.6,1.2-2.6,2.6
		c0,0,0,0.1,0,0.1c-1.1,0.3-2,1.3-2,2.6c0,1.5,1.2,2.7,2.7,2.7c0.6,0,1.1-0.2,1.5-0.5c0,0,0,0,0,0c0.4,0.2,0.8,0.4,1.3,0.4
		c0.3,0,0.6-0.1,0.9-0.2v0.7c0,0-0.1,0-0.1,0c-1.3,0-2.5,0.7-3.2,1.7c-0.4-0.2-0.8-0.4-1.2-0.4c-0.2-1-1-1.8-1.9-2.1
		c0-0.1,0-0.1,0-0.2c0-1.5-1.2-2.8-2.7-2.9c-0.5-0.6-1.3-1-2.2-1c-1.1,0-2,0.6-2.5,1.4c-0.4-0.2-0.9-0.4-1.4-0.4c-1.6,0-3,1.3-3,3
		c0,0.1,0,0.1,0,0.2c-1.3,0.3-2.2,1.5-2.2,2.9c0,1.6,1.3,3,3,3c0.6,0,1.2-0.2,1.7-0.5c0,0,0,0,0,0c0.4,0.3,0.9,0.4,1.5,0.4
		c0.3,0,0.7-0.1,1-0.2v3.3c-1.1-1.3-1.6-2.4-1.6-2.4h0c0,0-1.1,2.5-3.9,4.4c0,0,1.1,0.8,1.9,0.9c0,0-1.3,2.2-4.6,3.1
		c0,0,2.5,2.1,5.5,2v2.6h1.5h0.6v-2.6c3.1,0.1,5.5-2,5.5-2c-3.3-0.9-4.6-3.1-4.6-3.1c0.5-0.1,1.1-0.4,1.5-0.7
		c0.6,1.3,1.9,2.2,3.5,2.2c0.8,0,1.5-0.2,2.1-0.7c0,0,0,0,0,0c0.6,0.3,1.2,0.5,1.9,0.5c0.4,0,0.9-0.1,1.2-0.2v6.5h2.5v-6.2
		c0.2,0,0.4,0,0.6-0.1c0.2,0,0.4,0.1,0.6,0.1c0.7,0,1.3-0.2,1.9-0.5c0.6,0.3,1.2,0.5,1.9,0.5c2.1,0,3.7-1.7,3.7-3.7
		C-120,103.9-121.1,102.6-122.5,102.1z M-139.9,104v-2.2c0.2,0,0.3,0,0.5,0c0.2,0,0.3,0,0.5,0c0.5,0,1-0.2,1.5-0.4
		c0,0.1,0,0.3,0,0.5c0,0.1,0,0.1,0,0.2C-138.5,102.3-139.4,103-139.9,104z"/>
	<path fill="#585D5C" d="M-190.4,101.6c-1.4,0-2.3,1.1-2.6,2.6l-0.4,2.4l-6.6,6.6h6l1,2.4l1.1-2.7c2.3-0.7,4-2.9,4-5.5v-2l1.9-0.9
		l-1.9-0.9C-188.1,102.5-189.2,101.6-190.4,101.6z M-189.9,104.8c-0.3,0-0.6-0.3-0.6-0.6s0.3-0.6,0.6-0.6s0.6,0.3,0.6,0.6
		S-189.6,104.8-189.9,104.8z"/>
	<path fill="#585D5C" d="M-180,110.4c-0.6-0.6-1.4-0.9-2.2-0.9l0,0l-3,0l0,3l0,0c0,0.8,0.3,1.6,0.9,2.2c0,0,0,0,0,0
		c1.2,1.2,3.1,1.2,4.3,0c0.6-0.6,0.9-1.4,0.9-2.1C-179.1,111.8-179.4,111-180,110.4C-180,110.4-180,110.4-180,110.4z"/>
	<path fill="#585D5C" d="M-176.1,107c1.7,0,3-1.3,3-3c1.7,0,3-1.3,3-3c0-0.9-0.4-1.6-1-2.2c0.6-0.5,1-1.3,1-2.2c0-1.7-1.3-3-3-3
		c0-1.7-1.3-3-3-3c-0.9,0-1.6,0.4-2.2,1c-0.5-0.6-1.3-1-2.2-1c-1.7,0-3,1.3-3,3c-1.7,0-3,1.3-3,3c0,0.9,0.4,1.6,1,2.2
		c-0.6,0.5-1,1.3-1,2.2c0,1.7,1.3,3,3,3c0,1.7,1.3,3,3,3c0.5,0,1-0.1,1.4-0.3v5.9v3h1.6v-3c0,0.8,0.3,1.5,0.9,2.1
		c1.2,1.2,3.1,1.2,4.3,0c0,0,0,0,0,0c0.6-0.6,0.9-1.4,0.9-2.2l0,0l0-3l-3,0l0,0c-0.8,0-1.6,0.3-2.2,0.9c0,0,0,0,0,0
		c-0.6,0.6-0.9,1.4-0.9,2.1v-5.9C-177.1,106.9-176.6,107-176.1,107z M-178.3,104c-2.9,0-5.2-2.3-5.2-5.2c0-2.9,2.3-5.2,5.2-5.2
		c2.9,0,5.2,2.3,5.2,5.2C-173.1,101.7-175.4,104-178.3,104z"/>
	<path fill="#585D5C" d="M-197,146.3c0.6,0,1.2-0.2,1.7-0.5c0,0,0,0,0,0c0.4,0.3,0.9,0.4,1.5,0.4c0.3,0,0.7-0.1,1-0.2v5.1h2v-4.9
		c0.2,0,0.3,0,0.5,0c0.2,0,0.3,0,0.5,0c0.5,0,1-0.2,1.5-0.4c0.4,0.3,0.9,0.4,1.5,0.4c1.6,0,3-1.3,3-3c0-1.3-0.8-2.4-2-2.8
		c0-0.1,0-0.1,0-0.2c0-1.5-1.2-2.8-2.7-2.9c-0.5-0.6-1.3-1-2.2-1c-1.1,0-2,0.6-2.5,1.4c-0.4-0.2-0.9-0.4-1.4-0.4c-1.6,0-3,1.3-3,3
		c0,0.1,0,0.1,0,0.2c-1.3,0.3-2.2,1.5-2.2,2.9C-200,144.9-198.7,146.3-197,146.3z"/>
	<rect x="-171.7" y="163.4" fill="none" width="3.3" height="3.3"/>
	<path fill="#585D5C" d="M-185,144.5L-185,144.5c7.7,4.9-14.3,4.6-15,12.1h19.7C-192.8,153.7-175.3,146.6-185,144.5z"/>
	<g>
		<path fill="#585D5C" d="M-175,138.6c0,0-0.2,0-0.2-0.4c0-0.4-0.4-0.8-0.8-0.8c-0.5,0-0.8,0.4-0.8,0.8c0,0.4-0.2,0.4-0.2,0.4
			c-0.1,0-0.2,0.1-0.2,0.2c0,0.1,0.1,0.2,0.2,0.2h2.1c0.1,0,0.2-0.1,0.2-0.2C-174.8,138.7-174.8,138.6-175,138.6z"/>
		<circle fill="#585D5C" cx="-176" cy="139.7" r="0.4"/>
		<circle fill="#585D5C" cx="-176" cy="134" r="0.6"/>
		<path fill="#585D5C" d="M-172.2,144.2l-1.3-3.8v-3.3c0.2,0,0.4-0.2,0.4-0.4s-0.2-0.4-0.4-0.4h-0.8c0-0.9-0.7-1.7-1.7-1.7
			c-0.9,0-1.7,0.7-1.7,1.7h-0.8c-0.2,0-0.4,0.2-0.4,0.4s0.2,0.4,0.4,0.4v3.3l-1.3,3.8h-2.1v1.3h0.8v2.5v3.3v2.8h10v-2.8V148v-2.5
			h0.8v-1.3H-172.2z M-177.7,137.1h3.3v3.3h-3.3V137.1z M-176.8,151.3L-176.8,151.3l0,1.2h-2.5v-1.2V148v0c0-0.7,0.6-1.3,1.3-1.3
			c0.7,0,1.3,0.6,1.3,1.3v0V151.3z M-172.7,151.3L-172.7,151.3l0,1.2h-2.5v-1.2V148v0c0-0.7,0.6-1.3,1.3-1.3c0.7,0,1.3,0.6,1.3,1.3
			v0V151.3z"/>
	</g>
	<path fill="#585D5C" d="M-182.7,131.9c0.8-0.2,1.9-0.9,1.9-0.9c-2.8-1.9-3.9-4.4-3.9-4.4h0c0,0-1.1,2.5-3.9,4.4
		c0,0,1.1,0.8,1.9,0.9c0,0-1.3,2.2-4.6,3.1c0,0,2.5,2.1,5.5,2v2.6h1.5h0.6v-2.6c3.1,0.1,5.5-2,5.5-2
		C-181.3,134.1-182.7,131.9-182.7,131.9z"/>
	<g>
		<path fill="#585D5C" d="M-182.5,171.5c0,0-0.3,0-0.3-0.6c0-0.6-0.5-1.2-1.2-1.2c-0.7,0-1.2,0.5-1.2,1.2c0,0.6-0.3,0.6-0.3,0.6
			c-0.2,0-0.3,0.1-0.3,0.3c0,0.2,0.1,0.3,0.3,0.3h3c0.2,0,0.3-0.1,0.3-0.3C-182.2,171.6-182.3,171.5-182.5,171.5z"/>
		<circle fill="#585D5C" cx="-184" cy="173" r="0.6"/>
		<circle fill="#585D5C" cx="-184" cy="164.8" r="0.9"/>
		<path fill="#585D5C" d="M-178.6,179.4l-1.8-5.4v-4.8c0.3,0,0.6-0.3,0.6-0.6s-0.3-0.6-0.6-0.6h-1.2c0-1.3-1.1-2.4-2.4-2.4
			c-1.3,0-2.4,1.1-2.4,2.4h-1.2c-0.3,0-0.6,0.3-0.6,0.6s0.3,0.6,0.6,0.6v4.8l-1.8,5.4h-3v1.8h1.2v3.6v4.7v4h14.3v-4v-4.7v-3.6h1.2
			v-1.8H-178.6z M-186.4,169.2h4.8v4.8h-4.8V169.2z M-185.2,189.6L-185.2,189.6l0,1.8h-3.6v-1.8v-4.7v-0.1c0-1,0.8-1.8,1.8-1.8
			c1,0,1.8,0.8,1.8,1.8v0.1V189.6z M-179.2,189.6L-179.2,189.6l0,1.8h-3.6v-1.8v-4.7v-0.1c0-1,0.8-1.8,1.8-1.8c1,0,1.8,0.8,1.8,1.8
			v0.1V189.6z"/>
	</g>
	<g>
		<path fill="#585D5C" d="M-124.6,144.5L-124.6,144.5c7.7,4.9-14.3,4.6-15,12.1h19.7C-132.3,153.7-114.9,146.6-124.6,144.5z"/>
		<path fill="#585D5C" d="M-138.4,150.5v-6.2c0.2,0,0.4,0,0.6-0.1c0.2,0,0.4,0.1,0.6,0.1c0.7,0,1.3-0.2,1.9-0.5
			c0.6,0.3,1.2,0.5,1.9,0.5c2.1,0,3.7-1.7,3.7-3.7c0-1.6-1.1-3-2.5-3.5c0-0.1,0-0.1,0-0.2c0-0.5-0.1-0.9-0.2-1.3
			c0.9,0.6,2.8,1.6,5,1.6v2.6h1.5h0.6v-2.6c3.1,0.1,5.5-2,5.5-2c-3.3-0.9-4.6-3.1-4.6-3.1c0.8-0.2,1.9-0.9,1.9-0.9
			c-2.8-1.9-3.9-4.4-3.9-4.4h0c0,0-1.1,2.5-3.9,4.4c0,0,1.1,0.8,1.9,0.9c0,0-1.2,2-4.3,3c-0.6-1-1.7-1.8-2.9-1.9
			c-0.7-0.8-1.7-1.3-2.8-1.3c-1.3,0-2.5,0.7-3.2,1.7c-0.5-0.3-1.2-0.5-1.8-0.5c-2.1,0-3.7,1.7-3.7,3.7c0,0.1,0,0.1,0,0.2
			c-1.6,0.4-2.8,1.9-2.8,3.7c0,2.1,1.7,3.8,3.8,3.8c0.8,0,1.5-0.2,2.1-0.7c0,0,0,0,0,0c0.6,0.3,1.2,0.5,1.9,0.5
			c0.4,0,0.9-0.1,1.2-0.2v6.5H-138.4z"/>
	</g>
	<path fill="#585D5C" d="M-123.5,180.1c0-0.1,0-0.1,0-0.2c0-2-1.5-3.6-3.4-3.7c-0.7-0.8-1.7-1.3-2.8-1.3c-1.3,0-2.5,0.7-3.2,1.7
		c-0.5-0.3-1-0.4-1.5-0.5c0.1-0.3,0.2-0.7,0.2-1.1c0-1.1-0.7-2.1-1.8-2.5c0-0.1,0-0.1,0-0.2c0-1.4-1.1-2.5-2.4-2.6
		c-0.5-0.5-1.2-0.9-2-0.9c-0.9,0-1.8,0.5-2.2,1.2c-0.4-0.2-0.8-0.4-1.3-0.4c-1.5,0-2.6,1.2-2.6,2.6c0,0,0,0.1,0,0.1
		c-1.1,0.3-2,1.3-2,2.6c0,1.5,1.2,2.7,2.7,2.7c0.6,0,1.1-0.2,1.5-0.5c0,0,0,0,0,0c0.4,0.2,0.8,0.4,1.3,0.4c0.3,0,0.6-0.1,0.9-0.2
		v1.7c-0.5,0.2-1,0.6-1.3,1.1c-0.4-0.2-0.9-0.4-1.4-0.4c-1.6,0-3,1.3-3,3c0,0.1,0,0.1,0,0.2c-1.3,0.3-2.2,1.5-2.2,2.9
		c0,1.6,1.3,3,3,3c0.6,0,1.2-0.2,1.7-0.5c0,0,0,0,0,0c0.4,0.3,0.9,0.4,1.5,0.4c0.3,0,0.7-0.1,1-0.2v5.1h2v-4.9c0.2,0,0.3,0,0.5,0
		c0.2,0,0.3,0,0.5,0c0.5,0,1-0.2,1.5-0.4c0.4,0.3,0.9,0.4,1.5,0.4c1.1,0,2.1-0.6,2.6-1.5c0.3,0.1,0.6,0.1,0.9,0.1
		c0.4,0,0.9-0.1,1.2-0.2v6.5h2.5v-6.2c0.2,0,0.4,0,0.6-0.1c0.2,0,0.4,0.1,0.6,0.1c0.7,0,1.3-0.2,1.9-0.5c0.6,0.3,1.2,0.5,1.9,0.5
		c2.1,0,3.7-1.7,3.7-3.7C-121,182-122.1,180.6-123.5,180.1z M-139.9,177.7c0.1,0,0.3,0,0.4,0c0.5,0,0.9-0.1,1.3-0.4
		c0.1,0.1,0.3,0.1,0.5,0.2c-0.5,0.6-0.8,1.4-0.8,2.3c0,0,0,0.1,0,0.1c-0.1,0-0.1,0-0.2,0c-0.4-0.5-1-0.8-1.6-0.9v-1.3
		C-140.2,177.8-140,177.7-139.9,177.7z"/>
	<path fill="#010101" d="M-100,14.5v0.3C-100,14.7-100,14.6-100,14.5L-100,14.5z"/>
	<path fill="#010101" d="M-100,15.5L-100,15.5c0-0.1,0-0.2,0-0.3V15.5z"/>
	<path fill="#010101" d="M-75.6,3.3c-3.5,2.6-5.7,6.6-5.9,11.2H-70C-70.2,10-72.3,6-75.6,3.3z"/>
	<path fill="#010101" d="M-70,15.5h-11.5c0.2,4.6,2.5,8.6,5.9,11.1C-72.3,24-70.2,20-70,15.5z"/>
	<path fill="#010101" d="M-76.5,2.7c-2.3-1.6-5-2.6-8-2.7v14.5h2C-82.4,9.7-80,5.5-76.5,2.7z"/>
	<path fill="#010101" d="M-82.5,15.5h-2V30c3-0.1,5.8-1.1,8.1-2.7C-80,24.6-82.3,20.3-82.5,15.5z"/>
	<path fill="#010101" d="M-94.5,26.6c3.4-2.5,5.6-6.5,5.8-11.1H-100C-99.8,20-97.7,24-94.5,26.6z"/>
	<path fill="#010101" d="M-94.5,3.4c-3.2,2.7-5.4,6.6-5.5,11.1h11.3C-88.9,10-91.1,6-94.5,3.4z"/>
	<path fill="#010101" d="M-93.7,27.2c2.3,1.7,5.2,2.7,8.2,2.8V15.5h-2.2C-87.9,20.3-90.2,24.5-93.7,27.2z"/>
	<path fill="#010101" d="M-85.5,0c-3,0.1-5.9,1.1-8.2,2.7c3.5,2.8,5.8,7,6,11.8h2.2V0z"/>
</g>
</svg>
