<?xml version="1.0" encoding="utf-8"?>
<!-- Generator: Adobe Illustrator 18.0.0, SVG Export Plug-In . SVG Version: 6.00 Build 0)  -->
<!DOCTYPE svg PUBLIC "-//W3C//DTD SVG 1.0//EN" "http://www.w3.org/TR/2001/REC-SVG-20010904/DTD/svg10.dtd">
<svg version="1.0" id="Layer_1" xmlns="http://www.w3.org/2000/svg" xmlns:xlink="http://www.w3.org/1999/xlink" x="0px" y="0px"
	 viewBox="0 0 30 30" style="enable-background:new 0 0 30 30;" xml:space="preserve">
<g>
	<path d="M30,15c0,0.4-0.1,0.8-0.3,1.2c-1.6,2.6-3.7,4.6-6.3,6.2c-2.6,1.5-5.4,2.3-8.4,2.3s-5.7-0.8-8.4-2.3
		c-2.6-1.6-4.7-3.6-6.3-6.2C0.1,15.7,0,15.3,0,15c0-0.4,0.1-0.8,0.3-1.2C1.9,11.3,4,9.2,6.6,7.7c2.6-1.6,5.4-2.3,8.4-2.3
		s5.7,0.8,8.4,2.3c2.6,1.6,4.7,3.6,6.3,6.2C29.9,14.2,30,14.6,30,15z M27.9,15c-1.7-2.6-3.8-4.6-6.4-5.9c0.7,1.2,1,2.4,1,3.8
		c0,2.1-0.7,3.8-2.2,5.3s-3.2,2.2-5.3,2.2s-3.8-0.7-5.3-2.2s-2.2-3.2-2.2-5.3c0-1.4,0.3-2.6,1-3.8C6,10.4,3.8,12.3,2.1,15
		c1.5,2.3,3.3,4.1,5.6,5.5c2.2,1.4,4.7,2,7.3,2s5-0.7,7.3-2C24.5,19.1,26.4,17.3,27.9,15z M15.6,9.1c0.2-0.2,0.2-0.3,0.2-0.6
		c0-0.2-0.1-0.4-0.2-0.6S15.2,7.7,15,7.7c-1.4,0-2.6,0.5-3.6,1.5s-1.5,2.2-1.5,3.6c0,0.2,0.1,0.4,0.2,0.6s0.3,0.2,0.6,0.2
		c0.2,0,0.4-0.1,0.6-0.2s0.2-0.3,0.2-0.6c0-1,0.3-1.8,1-2.5c0.7-0.7,1.5-1,2.5-1C15.2,9.3,15.4,9.3,15.6,9.1z"/>
</g>
</svg>
