<?xml version="1.0" encoding="utf-8"?>
<!-- Generator: Adobe Illustrator 18.0.0, SVG Export Plug-In . SVG Version: 6.00 Build 0)  -->
<!DOCTYPE svg PUBLIC "-//W3C//DTD SVG 1.0//EN" "http://www.w3.org/TR/2001/REC-SVG-20010904/DTD/svg10.dtd">
<svg version="1.0" xmlns="http://www.w3.org/2000/svg" xmlns:xlink="http://www.w3.org/1999/xlink" x="0px" y="0px"
	 viewBox="0 0 30 30" enable-background="new 0 0 30 30" xml:space="preserve">
<g id="Layer_1">
	<path fill-rule="evenodd" clip-rule="evenodd" d="M-85-285.8c-8.3,0-15,6.7-15,15c0,8.3,6.7,15,15,15s15-6.7,15-15
		C-70-279.1-76.7-285.8-85-285.8z M-86.9-259.6v-9.4h-9.4l18.7-9.4L-86.9-259.6z"/>
</g>
<g id="Layer_2">
	<path fill-rule="evenodd" clip-rule="evenodd" d="M122.2-235.9h-15c-2.1,0-3.7,1.7-3.7,3.8v22.5c0,2.1,1.7,3.7,3.7,3.7h15
		c2.1,0,3.7-1.7,3.7-3.7v-22.5C126-234.2,124.3-235.9,122.2-235.9z M124.5-209.6c0,1.2-1,2.2-2.2,2.2h-15c-1.2,0-2.2-1-2.2-2.2
		v-22.5c0-1.2,1-2.2,2.2-2.2h15c1.2,0,2.2,1,2.2,2.2V-209.6z"/>
	<path fill-rule="evenodd" clip-rule="evenodd" d="M-26.6-272.7c3.6,0,6.6,3,6.6,6.7c0,3.7-2.9,6.7-6.6,6.7c-3.6,0-6.6-3-6.6-6.7
		c0-2.3,1.2-4.4,2.9-5.6l-0.4-0.7l-1.1-2.1l-0.1-0.3h-6.8c-0.8,0-1.5,0.5-1.7,1.3l-0.4,1.2c2.3,1.1,3.9,3.4,3.9,6.1
		c0,3.7-2.9,6.7-6.6,6.7c-3.6,0-6.6-3-6.6-6.7c0-3.7,2.9-6.7,6.6-6.7c0.3,0,0.6,0.1,0.9,0.1l1-3.3c0.1-0.4,0.5-0.7,0.9-0.7h9.9
		l1.7-3.8h-3.2c-0.5,0-0.9-0.4-0.9-1c0-0.5,0.4-1,0.9-1h4.1h0.6c0.3,0,0.6,0.2,0.8,0.4c0.2,0.3,0.2,0.6,0.1,0.9l-0.3,0.6l-2.7,5.9
		l1.1,2.1C-27.9-272.6-27.2-272.7-26.6-272.7z M-41.3-270.3l-1,3c-0.1,0.2-0.2,0.4-0.5,0.6c-0.2,0.1-0.5,0.1-0.7,0.1
		c-0.5-0.2-0.8-0.7-0.6-1.2l0.9-2.9c-0.1,0-0.2,0-0.3,0c-2.6,0-4.7,2.1-4.7,4.8c0,2.6,2.1,4.8,4.7,4.8c2.6,0,4.7-2.1,4.7-4.8
		C-38.7-267.9-39.8-269.5-41.3-270.3z M-31.3-266c0,2.6,2.1,4.8,4.7,4.8s4.7-2.1,4.7-4.8c0-2.6-2.1-4.8-4.7-4.8c-0.3,0-0.7,0-1,0.1
		l2.3,4.3c0.1,0.2,0.1,0.5,0.1,0.7c-0.1,0.2-0.2,0.5-0.5,0.6l0,0c-0.5,0.2-1,0.1-1.2-0.4l-2.4-4.5C-30.5-269.1-31.3-267.6-31.3-266z
		 M-40.6-278.5h-2.8c-0.5,0-0.9-0.4-0.9-1c0-0.5,0.4-1,0.9-1h5.6c0.2,0,0.3,0.1,0.3,0.2c0.1,0.1,0,0.3-0.1,0.4
		C-38.4-279-39.2-278.5-40.6-278.5z"/>
	<path fill-rule="evenodd" clip-rule="evenodd" d="M29.1-271.8h-0.9v-5.6h0.9c0.5,0,0.9,0.4,0.9,0.9v3.7
		C30-272.2,29.6-271.8,29.1-271.8z M24.4-260.6v1.9c0,1-0.8,1.9-1.9,1.9h-1.9c-1,0-1.9-0.8-1.9-1.9v-1.9h-7.5v1.9
		c0,1-0.8,1.9-1.9,1.9H7.5c-1,0-1.9-0.8-1.9-1.9v-1.9c-1,0-1.9-0.8-1.9-1.9v-16.8c0-3.1,2.5-5.6,5.6-5.6h11.2c3.1,0,5.6,2.5,5.6,5.6
		v16.8C26.2-261.4,25.4-260.6,24.4-260.6z M7.5-262.4c1,0,1.9-0.8,1.9-1.9c0-1-0.8-1.9-1.9-1.9c-1,0-1.9,0.8-1.9,1.9
		C5.6-263.3,6.5-262.4,7.5-262.4z M18.7-283h-7.5v1.9h7.5V-283z M24.4-279.2H5.6v11.2h18.7V-279.2z M22.5-266.2
		c-1,0-1.9,0.8-1.9,1.9c0,1,0.8,1.9,1.9,1.9c1,0,1.9-0.8,1.9-1.9C24.4-265.3,23.5-266.2,22.5-266.2z M0-272.7v-3.7
		c0-0.5,0.4-0.9,0.9-0.9h0.9v5.6H0.9C0.4-271.8,0-272.2,0-272.7z"/>
	<path fill-rule="evenodd" clip-rule="evenodd" d="M74.4-269c0,2-1.7,3.7-3.7,3.7H59.4c-2.1,0-3.7-1.6-3.7-3.7v-12.8h18.7v1.8
		c3.1,0,5.6,2.5,5.6,5.5C80-271.5,77.5-269,74.4-269z M59.4-280h-1.9v11c0,1,0.8,1.8,1.9,1.8V-280z M74.4-278.2v7.3
		c2.1,0,3.7-1.6,3.7-3.7C78.1-276.5,76.4-278.2,74.4-278.2z M80-261.7c0,1-0.8,1.8-1.9,1.8H51.9c-1,0-1.9-0.8-1.9-1.8
		c0-1,0.8-1.8,1.9-1.8h26.2C79.2-263.5,80-262.7,80-261.7z"/>
	<g>
		<polygon fill-rule="evenodd" clip-rule="evenodd" points="128,-280.3 128,-258.3 102,-258.3 102,-256.3 130,-256.3 130,-257.3 
			130,-258.3 130,-280.3 		"/>
		<path fill-rule="evenodd" clip-rule="evenodd" d="M126-282.3h-3c0,1.7-1.3,3-3,3c-1.7,0-3-1.3-3-3h-7c0,1.7-1.3,3-3,3
			c-1.7,0-3-1.3-3-3h-4v22h26V-282.3z M124-262.3h-22v-15h22V-262.3z"/>
		<path fill-rule="evenodd" clip-rule="evenodd" d="M107-281.3c0.6,0,1-0.4,1-1v-2c0-0.6-0.4-1-1-1s-1,0.4-1,1v2
			C106-281.8,106.4-281.3,107-281.3z"/>
		<path fill-rule="evenodd" clip-rule="evenodd" d="M120-281.3c0.6,0,1-0.4,1-1v-2c0-0.6-0.4-1-1-1s-1,0.4-1,1v2
			C119-281.8,119.4-281.3,120-281.3z"/>
		<rect x="106" y="-274.3" fill-rule="evenodd" clip-rule="evenodd" width="3" height="3"/>
		<rect x="112" y="-274.3" fill-rule="evenodd" clip-rule="evenodd" width="3" height="3"/>
		<rect x="117" y="-274.3" fill-rule="evenodd" clip-rule="evenodd" width="3" height="3"/>
		<rect x="106" y="-269.3" fill-rule="evenodd" clip-rule="evenodd" width="3" height="3"/>
		<rect x="112" y="-269.3" fill-rule="evenodd" clip-rule="evenodd" width="3" height="3"/>
		<rect x="117" y="-269.3" fill-rule="evenodd" clip-rule="evenodd" width="3" height="3"/>
	</g>
	<g>
		<path fill-rule="evenodd" clip-rule="evenodd" d="M157-281.8c0.6,0,1-0.4,1-1v-2c0-0.6-0.4-1-1-1s-1,0.4-1,1v2
			C156-282.3,156.4-281.8,157-281.8z"/>
		<path fill-rule="evenodd" clip-rule="evenodd" d="M170-281.8c0.6,0,1-0.4,1-1v-2c0-0.6-0.4-1-1-1s-1,0.4-1,1v2
			C169-282.3,169.4-281.8,170-281.8z"/>
		<rect x="156" y="-274.8" fill-rule="evenodd" clip-rule="evenodd" width="3" height="3"/>
		<rect x="162" y="-274.8" fill-rule="evenodd" clip-rule="evenodd" width="3" height="3"/>
		<rect x="167" y="-274.8" fill-rule="evenodd" clip-rule="evenodd" width="3" height="3"/>
		<rect x="156" y="-269.8" fill-rule="evenodd" clip-rule="evenodd" width="3" height="3"/>
		<rect x="162" y="-269.8" fill-rule="evenodd" clip-rule="evenodd" width="3" height="3"/>
		<rect x="152" y="-258.8" fill-rule="evenodd" clip-rule="evenodd" width="17" height="2"/>
		<rect x="178" y="-280.8" fill-rule="evenodd" clip-rule="evenodd" width="2" height="13"/>
		<path fill-rule="evenodd" clip-rule="evenodd" d="M152-277.8h22v10h2v-15h-3c0,1.7-1.3,3-3,3s-3-1.3-3-3h-7c0,1.7-1.3,3-3,3
			s-3-1.3-3-3h-4v22h19v-2h-17V-277.8z"/>
		<path fill-rule="evenodd" clip-rule="evenodd" d="M175-266.8c-2.8,0-5,2.2-5,5c0,2.8,2.2,5,5,5s5-2.2,5-5
			C180-264.6,177.8-266.8,175-266.8z M178-260.8h-2v2h-2v-2h-2v-2h2v-2h2v2h2V-260.8z"/>
		<rect x="167" y="-269.8" fill-rule="evenodd" clip-rule="evenodd" width="3" height="3"/>
	</g>
	<g>
		
			<rect x="-78.9" y="-213.6" transform="matrix(-0.5 -0.866 0.866 -0.5 67.722 -387.177)" fill-rule="evenodd" clip-rule="evenodd" width="2" height="1"/>
		
			<rect x="-80.9" y="-217.1" transform="matrix(-0.5 -0.866 0.866 -0.5 67.7326 -394.0963)" fill-rule="evenodd" clip-rule="evenodd" width="2" height="1"/>
		
			<rect x="-82.9" y="-220.6" transform="matrix(-0.5 -0.866 0.866 -0.5 67.7217 -401.0336)" fill-rule="evenodd" clip-rule="evenodd" width="2" height="1"/>
		
			<rect x="-84.4" y="-224.5" transform="matrix(-0.866 0.5 -0.5 -0.866 -268.3271 -375.161)" fill-rule="evenodd" clip-rule="evenodd" width="1" height="2"/>
		
			<rect x="-72.2" y="-218.1" transform="matrix(0.7072 -0.707 0.707 0.7072 132.5045 -114.2285)" fill-rule="evenodd" clip-rule="evenodd" width="1" height="2"/>
		
			<rect x="-75.5" y="-220.4" transform="matrix(-0.7071 -0.7071 0.7071 -0.7071 28.3574 -428.0916)" fill-rule="evenodd" clip-rule="evenodd" width="2" height="1"/>
		
			<rect x="-78.3" y="-223.2" transform="matrix(-0.7072 -0.7071 0.7071 -0.7072 25.506 -434.9309)" fill-rule="evenodd" clip-rule="evenodd" width="2" height="1"/>
		
			<rect x="-81.1" y="-226.1" transform="matrix(0.7072 0.707 -0.707 0.7072 -182.9613 -9.3902)" fill-rule="evenodd" clip-rule="evenodd" width="2" height="1"/>
		
			<rect x="-84.3" y="-211" transform="matrix(-0.2588 -0.9659 0.9659 -0.2588 98.4431 -345.5372)" fill-rule="evenodd" clip-rule="evenodd" width="2" height="1"/>
		
			<rect x="-84.9" y="-215.4" transform="matrix(0.9659 -0.2589 0.2589 0.9659 52.6345 -29.1595)" fill-rule="evenodd" clip-rule="evenodd" width="1" height="2"/>
		
			<rect x="-85.9" y="-219.3" transform="matrix(0.9659 -0.2589 0.2589 0.9659 53.5966 -29.5571)" fill-rule="evenodd" clip-rule="evenodd" width="1" height="2"/>
		
			<rect x="-87" y="-223.1" transform="matrix(0.9659 -0.2589 0.2589 0.9659 54.5646 -29.9591)" fill-rule="evenodd" clip-rule="evenodd" width="1" height="2"/>
		<rect x="-90.4" y="-210.3" fill-rule="evenodd" clip-rule="evenodd" width="1" height="2"/>
		<rect x="-90.4" y="-214.3" fill-rule="evenodd" clip-rule="evenodd" width="1" height="2"/>
		<rect x="-90.4" y="-218.3" fill-rule="evenodd" clip-rule="evenodd" width="1" height="2"/>
		<rect x="-90.4" y="-222.3" fill-rule="evenodd" clip-rule="evenodd" width="1" height="2"/>
		<path fill-rule="evenodd" clip-rule="evenodd" d="M-83-232.1l-3.1,1.8c-1.1-2.4-3.5-4-6.3-4c-3.9,0-7,3.1-7,7v20h4v-20
			c0-1.7,1.3-3,3-3c1.3,0,2.4,0.8,2.8,2l-3.8,2.2l1.5,2.6l10.4-6L-83-232.1z"/>
	</g>
	<path fill-rule="evenodd" clip-rule="evenodd" d="M-20.3-210.5l-9.3-9.6l9.4-9.8c0.1,0.2,0.1,0.5,0.1,0.7v17.6
		C-20-211.2-20.1-210.8-20.3-210.5z M-48.3-231.3l0.2,0h26.2l0.3,0.1L-35-217.4L-48.3-231.3z M-49.8-210.6c-0.1-0.3-0.2-0.6-0.2-0.9
		v-17.6c0-0.3,0.1-0.6,0.1-0.9l9.4,9.9L-49.8-210.6z M-35-214.5l4-4.1l9,9.3h-26.2l-0.1,0l9.2-9.3L-35-214.5z"/>
	<path d="M0-235.8v30h30v-30H0z M20.3-215.3c0,0-6,6.5-7.9,7.3c0,0-7.2-5.9-9.4-9.5c-2.2-3.6-2.9-6.9,1.3-9.1c4.3-2.3,7.8,2.1,8.1,3
		c0,0,3.2-5.8,8.9-2.5C27.1-222.7,20.3-215.3,20.3-215.3z M28-229.8h-3v3h-2v-3h-3v-2h3v-3h2v3h3V-229.8z"/>
	<path d="M9-225.8v11l3.5-2.6l-0.4,5.6l-1.3-0.4l1.6,3.2l2.3-2.7l-1.1,0l1.4-9.2l-4,2v-5L9-225.8z"/>
	<path fill-rule="evenodd" clip-rule="evenodd" d="M62-231.8h1v23h-1V-231.8z"/>
	<path fill-rule="evenodd" clip-rule="evenodd" d="M78.6-218.9l-2.8-4.3l-1.1,2.2l3.9,6.4H75l-0.6,5.7h-2.8l-0.6-5.7h-3.6l3.9-6.4
		l-1.1-2.2l-2.8,4.3H66l2.3-5.9c0.3-0.8,1.1-1.3,1.9-1.3h1.4l1.4,2.9l1.4-2.9h1.4c0.8,0,1.6,0.5,1.9,1.3l2.3,5.9H78.6z M73-227.5
		c-1.2,0-2.1-1-2.1-2.2c0-1.2,0.9-2.2,2.1-2.2c1.2,0,2.1,1,2.1,2.2C75.1-228.5,74.2-227.5,73-227.5z"/>
	<path fill-rule="evenodd" clip-rule="evenodd" d="M56.1-217.5l-0.8,8.6h-2.7l-0.8-8.6H50v-7.6c0.6-0.3,1.3-0.6,2.1-0.8l1.9,4.1
		l1.9-4.1c0.8,0.2,1.5,0.4,2.1,0.8v7.6H56.1z M54-227.5c-1.1,0-2-1-2-2.2c0-1.2,0.9-2.2,2-2.2s2,1,2,2.2
		C56-228.5,55.1-227.5,54-227.5z"/>
	<path fill-rule="evenodd" clip-rule="evenodd" d="M177.5-216l-10.6-5.9c0-0.6,0.4-1.2,0.9-1.5c1.7-1,2.8-2.8,2.8-4.8
		c0-3.1-2.5-5.6-5.6-5.6s-5.6,2.5-5.6,5.6c0,1,0.8,1.9,1.9,1.9c1,0,1.9-0.8,1.9-1.9c0-1,0.8-1.9,1.9-1.9s1.9,0.8,1.9,1.9
		c0,0.7-0.4,1.3-0.9,1.6c-1.7,1-2.8,2.8-2.8,4.7l-10.7,6c-1.4,0.9-2.4,2.8-2.4,4.4c0,2,1.7,3.7,3.7,3.7h22.5c2.1,0,3.7-1.7,3.7-3.7
		C180-213.2,179-215.1,177.5-216z M153.8-211.5c0-0.4,0.4-1.1,0.6-1.2l10.6-5.9l10.5,5.9c0.3,0.2,0.7,0.9,0.7,1.3H153.8z"/>
	<path fill-rule="evenodd" clip-rule="evenodd" d="M0-162.6h30v1H0V-162.6z"/>
	<path fill-rule="evenodd" clip-rule="evenodd" d="M13-161.6h4c1.1,0,2-0.9,2-2h-8C11-162.5,11.9-161.6,13-161.6z"/>
	<path fill-rule="evenodd" clip-rule="evenodd" d="M23-161.6h4c1.1,0,2-0.9,2-2h-8C21-162.5,21.9-161.6,23-161.6z"/>
	<path fill-rule="evenodd" clip-rule="evenodd" d="M17-172.6h-4c-1.1,0-2,0.9-2,2v6h8v-6C19-171.7,18.1-172.6,17-172.6z M16.5-170.8
		h-3.1c-0.3,0-0.5-0.2-0.5-0.5c0-0.3,0.2-0.5,0.5-0.5h3.1c0.3,0,0.5,0.2,0.5,0.5C17-171,16.8-170.8,16.5-170.8z"/>
	<path fill-rule="evenodd" clip-rule="evenodd" d="M27-172.6h-4c-1.1,0-2,0.9-2,2v6h8v-6C29-171.7,28.1-172.6,27-172.6z M26.5-170.8
		h-3.1c-0.3,0-0.5-0.2-0.5-0.5c0-0.3,0.2-0.5,0.5-0.5h3.1c0.3,0,0.5,0.2,0.5,0.5C27-171,26.8-170.8,26.5-170.8z"/>
	<path fill-rule="evenodd" clip-rule="evenodd" d="M16-170.6h8v1h-8V-170.6z"/>
	<path fill-rule="evenodd" clip-rule="evenodd" d="M0-162.6h1v3H0V-162.6z"/>
	<path fill-rule="evenodd" clip-rule="evenodd" d="M29-162.6h1v3h-1V-162.6z"/>
	<path fill-rule="evenodd" clip-rule="evenodd" d="M3-161.6h4c1.1,0,2-0.9,2-2H1C1-162.5,1.9-161.6,3-161.6z"/>
	<path fill-rule="evenodd" clip-rule="evenodd" d="M7-172.6H3c-1.1,0-2,0.9-2,2v6h8v-6C9-171.7,8.1-172.6,7-172.6z M6.5-170.8H3.5
		c-0.3,0-0.5-0.2-0.5-0.5c0-0.3,0.2-0.5,0.5-0.5h3.1c0.3,0,0.5,0.2,0.5,0.5C7-171,6.8-170.8,6.5-170.8z"/>
	<path fill-rule="evenodd" clip-rule="evenodd" d="M6-170.6h8v1H6V-170.6z"/>
	<path fill="none" d="M11.5-177.7H8.5c-0.3,0-0.5,0.2-0.5,0.5c0,0.3,0.2,0.5,0.5,0.5h3.1c0.3,0,0.5-0.2,0.5-0.5
		C12-177.5,11.8-177.7,11.5-177.7z"/>
	<path fill="none" d="M22-177.2c0-0.3-0.2-0.5-0.5-0.5h-3.1c-0.3,0-0.5,0.2-0.5,0.5c0,0.3,0.2,0.5,0.5,0.5h3.1
		C21.8-176.8,22-177,22-177.2z"/>
	<path fill="none" d="M12-177.2c0-0.3-0.2-0.5-0.5-0.5H8.5c-0.3,0-0.5,0.2-0.5,0.5c0,0.3,0.2,0.5,0.5,0.5h3.1
		C11.8-176.8,12-177,12-177.2z"/>
	<path d="M23-173.1h1v-3.5c0-1.1-0.9-2-2-2h-4c-1.1,0-2,0.9-2,2v3.5h1c1.4,0,2.5,1.1,2.5,2.5v1h1v-1C20.5-172,21.6-173.1,23-173.1z
		 M18.5-176.8c-0.3,0-0.5-0.2-0.5-0.5c0-0.3,0.2-0.5,0.5-0.5h3.1c0.3,0,0.5,0.2,0.5,0.5c0,0.3-0.2,0.5-0.5,0.5H18.5z"/>
	<path d="M13-173.1h1v-3.5c0-1.1-0.9-2-2-2H8c-1.1,0-2,0.9-2,2v3.5h1c1.4,0,2.5,1.1,2.5,2.5v1h1v-1C10.5-172,11.6-173.1,13-173.1z
		 M8.5-176.8c-0.3,0-0.5-0.2-0.5-0.5c0-0.3,0.2-0.5,0.5-0.5h3.1c0.3,0,0.5,0.2,0.5,0.5c0,0.3-0.2,0.5-0.5,0.5H8.5z"/>
	<g>
		<path d="M-79.9-161.9c-0.5-0.3-1.2-0.2-1.5,0.4c-1.4,2.2-3.7,3.5-6.3,3.5c-4.1,0-7.4-3.4-7.4-7.5c0-2.4,1.2-4.7,3.1-6.1
			c0.5-0.4,0.6-1,0.2-1.5c-0.4-0.5-1-0.6-1.5-0.3c-2.5,1.8-4,4.8-4,7.9c0,5.3,4.3,9.7,9.6,9.7c3.3,0,6.4-1.7,8.1-4.6
			C-79.2-160.9-79.3-161.6-79.9-161.9z"/>
		<path d="M-72.3-161.3c-0.2-0.6-0.8-0.9-1.4-0.7l-1.3,0.5c0,0-2.4-6.8-2.5-6.9c0,0-0.1-0.1-0.1-0.2c-0.3-0.5-0.9-0.9-1.5-0.9h-5.7
			l-0.1-2.1h4.7c0.6,0,1.1-0.5,1.1-1.1c0-0.6-0.5-1.1-1.1-1.1H-85l-0.2-3.1c0,0,0-0.1,0-0.1c-0.1-1.5-1.4-2.7-2.9-2.6
			c-1.5,0.1-2.7,1.4-2.6,2.9v0l0,0l0.4,8.1l0,0c0,0,0,0,0,0c0.1,1.5,1.3,2.6,2.7,2.6c0,0,7.4,0,7.4,0l2.2,6.1
			c0.2,0.7,0.9,1.1,1.5,1.1c0.1,0,0.2,0,0.3,0c0.1,0,0.1,0,0.2-0.1l2.9-1.1C-72.4-160.1-72.1-160.7-72.3-161.3z"/>
		
			<ellipse transform="matrix(5.248704e-02 0.9986 -0.9986 5.248704e-02 -266.5306 -85.7612)" cx="-88.1" cy="-183.3" rx="2.5" ry="2.5"/>
	</g>
	<g>
		<path fill-rule="evenodd" clip-rule="evenodd" d="M-23-175.6c0-0.1,0-0.1,0-0.2c0-2-1.5-3.6-3.4-3.7c-0.7-0.8-1.7-1.3-2.8-1.3
			c-1.3,0-2.5,0.7-3.2,1.7c-0.5-0.3-1.2-0.5-1.8-0.5c-2.1,0-3.7,1.7-3.7,3.7c0,0.1,0,0.1,0,0.2c-1.5,0.5-2.5,1.9-2.5,3.5
			c0,0.1,0,0.2,0,0.2h-6h-1h-2v2h2v1h-2v1h2v1v1h1h7h1v-1v-1h2v-0.5c0.6,0,1.1-0.2,1.6-0.5c0.6,0.3,1.2,0.5,1.9,0.5
			c0.4,0,0.9-0.1,1.2-0.2v6.5H-33v1.2h5v-1.2h-1.2v-6.2c0.2,0,0.4,0,0.6-0.1c0.2,0,0.4,0.1,0.6,0.1c0.7,0,1.3-0.2,1.9-0.5
			c0.6,0.3,1.2,0.5,1.9,0.5c2.1,0,3.7-1.7,3.7-3.7C-20.5-173.7-21.6-175.1-23-175.6z M-46.5-169.8h6.8c0.1,0.1,0.1,0.2,0.2,0.3v0.7
			h-7V-169.8z M-39.5-166.8h-7v-1h7V-166.8z"/>
		<polygon fill-rule="evenodd" clip-rule="evenodd" points="-39.5,-164.8 -46.5,-164.8 -48.5,-164.8 -49.5,-164.8 -49.5,-163.8 
			-48.5,-163.8 -48.5,-160.8 -46.5,-160.8 -46.5,-163.8 -45.5,-163.8 -45.5,-161.8 -44.5,-161.8 -44.5,-163.8 -41.5,-163.8 
			-41.5,-161.8 -40.5,-161.8 -40.5,-163.8 -39.5,-163.8 -39.5,-160.8 -37.5,-160.8 -37.5,-163.8 -36.5,-163.8 -36.5,-164.8 
			-37.5,-164.8 		"/>
	</g>
	<g>
		<path fill-rule="evenodd" clip-rule="evenodd" d="M115.8-224.9c-0.1-0.2-0.2-0.4-0.4-0.5c-0.2-0.1-0.5-0.2-0.8-0.2h-1v4.4h0.9
			c0.4,0,0.7-0.1,0.9-0.2s0.4-0.3,0.5-0.4c0.1-0.2,0.2-0.4,0.2-0.7c0-0.3,0-0.6,0-0.9c0-0.3,0-0.6,0-0.9
			C116-224.5,115.9-224.7,115.8-224.9z"/>
		<path fill-rule="evenodd" clip-rule="evenodd" d="M121.4-232.9h-13.3c-1.1,0-2,0.9-2,2v20c0,1.1,0.9,2,2,2h13.3c1.1,0,2-0.9,2-2
			v-20C123.4-232,122.5-232.9,121.4-232.9z M117.6-222c-0.1,0.4-0.2,0.8-0.4,1.1c-0.3,0.4-0.6,0.7-1,1s-1,0.4-1.7,0.4h-0.9v5h-1.8
			v-12.8h2.8c0.5,0,0.9,0.1,1.3,0.2c0.4,0.1,0.7,0.4,1,0.7c0.3,0.3,0.5,0.7,0.6,1.2c0.1,0.4,0.2,1.1,0.2,1.8
			C117.7-222.8,117.7-222.4,117.6-222z"/>
	</g>
	<path fill-rule="evenodd" clip-rule="evenodd" d="M79.8-109.1L66-133.6c-0.5-1-1.4-1-2,0l-13.8,24.6c-0.5,1-0.1,1.7,1,1.7h27.6
		C79.9-107.3,80.3-108.1,79.8-109.1z M67-112.3c0,0.6-0.5,1-1,1h-2c-0.5,0-1-0.4-1-1v-2c0-0.6,0.5-1,1-1h2c0.5,0,1,0.5,1,1V-112.3z
		 M67-118.3c0,0.6-0.4,1-1,1h-2c-0.5,0-1-0.4-1-1v-6c0-0.6,0.5-1,1-1h2c0.5,0,1,0.5,1,1L67-118.3z"/>
	<g>
		<path d="M119.6-127.8c-1.4-0.4-3-0.7-4.6-0.7c-7.1,0-13,5.2-14.8,6.9c-0.3,0.3-0.3,0.8,0,1.1c1,1,3.5,3.2,6.9,4.9L119.6-127.8z"/>
		<path d="M129.8-121.6c-1.1-1-3.7-3.4-7.1-5l2.8-2.7H123l-17.4,17h2.4l2.2-2.1c1.5,0.5,3.2,0.8,4.9,0.8c7.1,0,13-5.2,14.8-6.9
			C130.1-120.8,130.1-121.3,129.8-121.6z M120.1-120c-0.4,1.9-2,3.5-4,3.9c-1.4,0.3-2.6,0-3.7-0.6l2.2-2.2c0.1,0,0.2,0,0.4,0
			c1.3,0,2.3-1,2.3-2.3c0-0.1,0-0.2,0-0.4l2.2-2.2C120.1-122.6,120.4-121.3,120.1-120z"/>
	</g>
	<g>
		<polygon points="165.9,-133.3 164,-133.3 164,-127.3 165.9,-127.3 		"/>
		<polygon points="174,-118 180,-119.2 179.5,-121.5 173.6,-120.3 		"/>
		<polygon points="176.3,-128.1 174.6,-129.7 170.4,-125.5 172,-123.8 		"/>
		<polygon points="156.4,-120.3 150.5,-121.5 150,-119.2 156,-118 		"/>
		<path d="M173-112.3l-2.3-10.9c-0.2-1.2-1.3-2.1-2.7-2.1l-5,0c-1.4,0-2.7,0.9-3,2.1l-2,10.9c0,0.1,0,0,0,1h-3l0.1,3H176v-3h-3
			C173-112.3,173-112.3,173-112.3z M165.1-112.3l-0.1-11h2c1.1,0,1.8,0.1,2,1l1,5c0,0.1,1,5,1,5H165.1z"/>
		<polygon points="159.6,-125.5 155.4,-129.7 153.7,-128.1 158,-123.8 		"/>
	</g>
	<path fill-rule="evenodd" clip-rule="evenodd" d="M66.8-155.8h-4v-11h-2v-9c0-2.1,0.9-3,3-3h2c2.1,0,3,0.9,3,3v9h-2V-155.8z
		 M64.8-180.2c-1.6,0-2.8-1.3-2.8-2.8c0-1.6,1.3-2.8,2.8-2.8s2.8,1.3,2.8,2.8C67.6-181.5,66.4-180.2,64.8-180.2z"/>
	<path fill-rule="evenodd" clip-rule="evenodd" d="M55.8-155.8h-4v-11h-2v-9c0-2.1,0.9-3,3-3h2c2.1,0,3,0.9,3,3v9h-2V-155.8z
		 M53.8-180.2c-1.6,0-2.8-1.3-2.8-2.8c0-1.6,1.3-2.8,2.8-2.8s2.8,1.3,2.8,2.8C56.6-181.5,55.4-180.2,53.8-180.2z"/>
	<path fill-rule="evenodd" clip-rule="evenodd" d="M77.8-155.8h-4v-11h-2v-9c0-2.1,0.9-3,3-3h2c2.1,0,3,0.9,3,3v9h-2V-155.8z
		 M75.8-180.2c-1.6,0-2.8-1.3-2.8-2.8c0-1.6,1.3-2.8,2.8-2.8s2.8,1.3,2.8,2.8C78.6-181.5,77.4-180.2,75.8-180.2z"/>
	<path fill-rule="evenodd" clip-rule="evenodd" d="M114.6-182.8c-5,0-9,4-9,9c0,6,9,15,9,15s9-9,9-15
		C123.6-178.8,119.6-182.8,114.6-182.8z M114.6-169.7c-2.6,0-4.7-2.1-4.7-4.7c0-2.6,2.1-4.7,4.7-4.7s4.7,2.1,4.7,4.7
		C119.3-171.9,117.2-169.7,114.6-169.7z"/>
	<path fill-rule="evenodd" clip-rule="evenodd" d="M169.1-175.8c1,0,1.8,0.8,1.8,1.9c0,1-0.8,1.9-1.8,1.9h-6.7
		c-0.1,0.4-0.1,0.8-0.1,1.1c0,0.4,0,0.8,0.1,1.1h6.7c1,0,1.8,0.8,1.8,1.9c0,1-0.8,1.9-1.8,1.9h-5.6c1.7,3.2,5,5.3,8.5,5.3h0.4
		c0.8,0,1.4,0.7,1.4,1.7c0,1-0.6,1.9-1.3,2l0,0H172c-5.5,0-10.5-3.6-12.4-9.1h-2c-1,0-1.8-0.8-1.8-1.9c0-1,0.8-1.9,1.8-1.9h1.2v0
		c-0.1-0.4-0.1-0.7-0.1-1.1c0-0.4,0-0.7,0.1-1.1v0h-1.2c-1,0-1.8-0.8-1.8-1.9c0-1,0.8-1.9,1.8-1.9h2c2-5.4,6.9-9.1,12.4-9.1h0.4
		c0.8,0.1,1.4,1,1.4,2c0,1-0.5,1.7-1.2,1.7l-0.6,0c-3.5,0-6.8,2.1-8.5,5.3H169.1z"/>
	<path fill-rule="evenodd" clip-rule="evenodd" d="M-76.6-134.2L-77-134c-1.1,0.5-2.8,6.3-2.8,6.7l0,0.4c0.2,0.8,0.9,1.7,2.5,3.5
		c-0.9,2.1-3.4,4.9-4.9,6.2c-1.6,1.4-4.3,3.2-6.3,3.9c-1.8-2.1-2.6-2.9-3.5-3c-0.5,0-6.4,1-6.9,2l-0.2,0.3c-0.4,0.7-1.1,1.7-0.8,2.8
		c0.1,0.3,0.2,0.5,0.3,0.8c0.5,0.8,1.7,2.6,3.4,3.4c1,0.5,10.4,0.8,18.3-6.3c7.8-7,8.2-15.6,7.9-16.9l0,0l0-0.1
		c-0.6-1.8-2.3-3.2-3-3.8C-74.3-135.3-75.8-134.6-76.6-134.2z"/>
	<path fill-rule="evenodd" clip-rule="evenodd" d="M-47.2-132.8v18h18v-18H-47.2z M-31.2-116.8h-14v-14h14V-116.8z"/>
	<path fill-rule="evenodd" clip-rule="evenodd" d="M-25.2-118.8v-10h-2l3-4l3,4h-2v10h2l-3,4l-3-4"/>
	<path fill-rule="evenodd" clip-rule="evenodd" d="M-33.2-108.8h-10v2l-4-3l4-3v2h10v-2l4,3l-4,3"/>
	<g opacity="0.4">
		<path fill-rule="evenodd" clip-rule="evenodd" d="M8.5-115.9l4-4c-0.1-0.2-0.1-0.5-0.1-0.7c0-1,0.6-1.9,1.5-2.3v-9.9
			c0-0.5,0.5-1,1-1c-7.2,0-13,5.8-13,13c0,3.6,1.5,6.8,3.8,9.2l2.8-2.8C8.1-114.9,8.1-115.5,8.5-115.9z"/>
	</g>
	<g>
		<g>
			<path fill-rule="evenodd" clip-rule="evenodd" d="M14.8-135.8c-1,0-2,0.1-3,0.3c-1,0.2-1.9,0.5-2.8,0.9c-1.3,0.6-2.6,1.3-3.7,2.2
				s-2.1,2-2.9,3.2c-1.6,2.4-2.6,5.3-2.6,8.4c0,1.6,0.2,3.1,0.7,4.5c0.7,2.3,2,4.4,3.7,6.1c0.3,0.3,0.7,0.7,1.1,1
				c0.7,0.6,1.5,1.2,2.4,1.6c0.4,0.2,0.9,0.4,1.3,0.6c0.9,0.4,1.8,0.7,2.8,0.9c1,0.2,2,0.3,3,0.3c8.3,0,15-6.7,15-15
				C29.8-129.1,23.1-135.8,14.8-135.8z M14.8-118.1c-0.3,0-0.6-0.1-0.9-0.2l-3.9,3.9c-0.4,0.4-1.1,0.4-1.5,0c0,0,0,0,0,0l-2.8,2.8
				c-2.4-2.4-3.8-5.6-3.8-9.2c0-7.2,5.8-13,13-13c0.5,0,1,0.5,1,1v9.9c0.9,0.4,1.5,1.3,1.5,2.3C17.3-119.2,16.2-118.1,14.8-118.1z"
				/>
		</g>
	</g>
	<path fill-rule="evenodd" clip-rule="evenodd" d="M-84-58.9h-2l-14-2v-19.9h2v18.2l12,1.7h2l12-1.7v-18.2h2v19.9L-84-58.9z
		 M-84-80.7c3.6-2.1,10-2.1,10-2.1v17.9c0,0-6.4,0-10,2.1V-80.7z M-96-82.8c0,0,6.4,0,10,2.1v17.9c-3.6-2.1-10-2.1-10-2.1V-82.8z"/>
	<path fill-rule="evenodd" clip-rule="evenodd" d="M-20.5-76.9l-0.2,0.1l0,0l-2.7,2.7l-8.4-8.4l2.7-2.7l0,0l0.1-0.2
		c0.7-0.7,2-0.7,2.7,0.1l5.6,5.6C-19.8-78.9-19.8-77.6-20.5-76.9z M-43-65.7l12.5-12.6l2.8,2.8l-12.5,12.6l1.4,1.4l12.5-12.6
		l1.4,1.4l-13.9,14l-8.4-8.4l13.9-14l1.4,1.4l-12.5,12.6L-43-65.7z M-40.2-57.2l-4.9,0.7l-4.9,0.7l0.7-4.9l0.7-4.9l4.2,4.2
		L-40.2-57.2z"/>
	<path fill-rule="evenodd" clip-rule="evenodd" d="M26-56.8l-26,0v-28l30,0v24L26-56.8z M9-58.8h12v-7H9V-58.8z M24-82.8H6v12h18
		V-82.8z M11-63.8l4,0v3h-4V-63.8z"/>
	<path fill-rule="evenodd" clip-rule="evenodd" d="M50-73.8l3-2l8,14l16-23l3,2l-19,27L50-73.8"/>
	<path fill-rule="evenodd" clip-rule="evenodd" d="M123.6-78l-1.8-1.8l-7.2,7.2l-7.2-7.2l-1.8,1.8l7.2,7.2l-7.2,7.2l1.8,1.8l7.2-7.2
		l7.2,7.2l1.8-1.8l-7.2-7.2L123.6-78z"/>
	<path fill-rule="evenodd" clip-rule="evenodd" d="M164.8-79.3c-4.7,0-8.5,3.8-8.5,8.5s3.8,8.5,8.5,8.5c4.7,0,8.5-3.8,8.5-8.5
		S169.5-79.3,164.8-79.3z M169.8-68.1l-2.2,2.2l-2.8-2.8l-2.8,2.8l-2.2-2.2l2.8-2.8l-2.8-2.8l2.2-2.2l2.8,2.8l2.8-2.8l2.2,2.2
		l-2.8,2.8L169.8-68.1z"/>
	<path fill-rule="evenodd" clip-rule="evenodd" d="M-77.7-28.5c-0.9,0-1.6-0.7-1.6-1.6c0-0.9,0.7-1.6,1.6-1.6c0.9,0,1.6,0.7,1.6,1.6
		C-76.2-29.2-76.9-28.5-77.7-28.5z M-79.9-33.8c-0.4,0-0.8-0.2-1.1-0.5c-0.6-0.6-0.6-1.6,0-2.2c0.3-0.3,0.7-0.5,1.1-0.5
		s0.8,0.2,1.1,0.5c0.6,0.6,0.6,1.6,0,2.2C-79.1-33.9-79.5-33.8-79.9-33.8z M-85.2-35c-1.4,0-2.5-1.1-2.5-2.5c0-1.4,1.1-2.5,2.5-2.5
		c1.4,0,2.5,1.1,2.5,2.5C-82.7-36.1-83.8-35-85.2-35z M-90.4-23.2c-0.4,0-0.8-0.2-1.1-0.5c-0.6-0.6-0.6-1.6,0-2.2
		c0.3-0.3,0.7-0.5,1.1-0.5c0.4,0,0.8,0.2,1.1,0.5c0.6,0.6,0.6,1.6,0,2.2C-89.6-23.4-90-23.2-90.4-23.2z M-90.4-33.8
		c-0.4,0-0.8-0.2-1.1-0.5c-0.6-0.6-0.6-1.6,0-2.2c0.3-0.3,0.7-0.5,1.1-0.5c0.4,0,0.8,0.2,1.1,0.5c0.6,0.6,0.6,1.6,0,2.2
		C-89.6-33.9-90-33.8-90.4-33.8z M-91.1-30c0,0.9-0.7,1.6-1.6,1.6s-1.6-0.7-1.6-1.6c0-0.9,0.7-1.6,1.6-1.6
		C-91.8-31.6-91.1-30.9-91.1-30z M-85.2-24.1c0.9,0,1.6,0.7,1.6,1.6c0,0.9-0.7,1.6-1.6,1.6c-0.9,0-1.6-0.7-1.6-1.6
		C-86.7-23.4-86-24.1-85.2-24.1z M-79.9-26.3c0.4,0,0.8,0.2,1.1,0.5c0.6,0.6,0.6,1.6,0,2.2c-0.3,0.3-0.7,0.5-1.1,0.5
		c-0.4,0-0.8-0.2-1.1-0.5c-0.6-0.6-0.6-1.6,0-2.2C-80.7-26.1-80.3-26.3-79.9-26.3z"/>
	<g>
		<circle fill-rule="evenodd" clip-rule="evenodd" cx="115" cy="-41.4" r="2.3"/>
		<rect x="100.2" y="-33" fill-rule="evenodd" clip-rule="evenodd" width="1.8" height="7.3"/>
		<path fill-rule="evenodd" clip-rule="evenodd" d="M124.7-30.1H121l-0.1-6.3c0-1.2-1-2.2-2.2-2.2h-7.6c-1.2,0-2.2,1-2.2,2.2l0,6.3
			h-3.7v-4.1h-2.5v9.6h2.5v-4.1h3.7h2.1h0.6c-0.2,3.6-0.6,12.2-0.6,12.2h2.9l0.6-11.2c0.1,0,0.5,0,0.6,0l0.9,11.2h2.9
			c0,0-0.6-8.6-0.8-12.2h0.6h2.1h3.8v4.1h2.5v-9.6h-2.5V-30.1z M111.2-30.1L111.2-30.1v-4.7c0-0.2,0.1-0.3,0.3-0.3
			c0.2,0,0.3,0.1,0.3,0.3v3.9c0,0,0,0.3,0,0.8H111.2z M118.8-30.1h-0.6c0-0.5,0-0.8,0-0.8v-3.9c0-0.2,0.1-0.3,0.3-0.3
			c0.2,0,0.3,0.1,0.3,0.3V-30.1z"/>
		<rect x="128" y="-33" fill-rule="evenodd" clip-rule="evenodd" width="1.8" height="7.3"/>
	</g>
	<g>
		<path fill="#010101" d="M167.9-23.2c1.5-0.1,2.9-0.2,2.9-0.2l-2.2-1.3l-2.7-1.5l-4.1-2.3l-2.7-1.5l-2.2-1.3c0,0,0.7,1.2,1.4,2.5
			c0.8,1.5,1.5,3.1,1.4,3.4c-0.2,0.7-3.2,5.3-3.9,6.3c-0.5,0.8,0.9,2.2,1.9,2.8c1,0.5,2.9,1,3.3,0.1c0.5-1.3,2.8-6.1,3.3-6.6
			C164.5-22.9,166.3-23.1,167.9-23.2z"/>
		<g>
			<path fill="#010101" d="M176.7-28.6c3.3-5.8,1.8-12.8-3.3-15.7s-11.8-0.4-15.1,5.4c-1.2,2.2-1.8,4.5-1.7,6.7l15.3,8.6
				C173.7-24.8,175.4-26.4,176.7-28.6z"/>
		</g>
	</g>
	<circle fill="#010101" cx="155.6" cy="-42.4" r="2.6"/>
	<g>
		<path d="M-72.5,8.6V5.1L-78,0.6l-1.3,1.1c-1-0.9-2.3-1.5-3.7-1.5c-2,0-3.7,1-4.7,2.6C-88.6,2.3-89.5,2-90.5,2
			c-3.1,0-5.6,2.5-5.6,5.6c0,0.1,0,0.2,0,0.3c-1.9,0.7-3.3,2.3-3.7,4.3c0,0,0,0.1,0,0.1c0,0.3-0.1,0.5-0.1,0.8c0,0,0,0,0,0
			c0,0,0,0,0,0c0,0,0,0,0,0c0,3.1,2.5,5.5,5.6,5.5c0.1,0,0.2,0,0.4,0l0,0c0.3,0,0.5-0.1,0.8-0.1V20c-1.3,0.2-2.3,1.4-2.3,2.8
			c0,1.6,1.3,2.8,2.8,2.8c1.6,0,2.8-1.3,2.8-2.8c0-1.4-1-2.5-2.3-2.8v-1.6c0.2-0.1,0.4-0.2,0.6-0.3c0.8,0.5,1.8,0.8,2.8,0.8
			c0.7,0,1.3-0.1,1.9-0.3v9.7h-1.9V30h7.5v-1.9H-83v-9.3c0.3,0,0.6,0,0.9-0.1c0.3,0.1,0.6,0.1,0.9,0.1c1,0,2-0.3,2.8-0.8
			c0.8,0.5,1.8,0.8,2.8,0.8c3.1,0,5.6-2.5,5.6-5.6C-70,11.3-71,9.6-72.5,8.6z M-90.8,22.8c0,1-0.8,1.8-1.8,1.8c-1,0-1.8-0.8-1.8-1.8
			s0.8-1.8,1.8-1.8C-91.6,20.9-90.8,21.8-90.8,22.8z M-73.5,13H-78V8.9h-3V13h-1.5V5.5l4.5-3.7l4.5,3.7V13z"/>
		<circle cx="-75.7" cy="6.3" r="1.3"/>
	</g>
	<g>
		<g>
			<polygon fill="#010101" points="-23,19 -46.6,22.3 -50,19.2 -49.1,18.3 -46.2,20.9 -23.7,17.8 -21,14.3 -20,15 			"/>
		</g>
		<g>
			<g>
				<circle fill="#010101" cx="-42.9" cy="24" r="1.5"/>
			</g>
			<g>
				<g>
					<circle fill="#010101" cx="-25.5" cy="21.6" r="1.5"/>
				</g>
			</g>
		</g>
	</g>
	<g>
		<polygon fill="#010101" points="9.7,13.8 11.8,19.9 18.2,19.9 20.3,13.8 15,9.9 		"/>
		<path fill="#010101" d="M15,0C6.7,0,0,6.7,0,15s6.7,15,15,15s15-6.7,15-15S23.3,0,15,0z M26.6,19.9c-0.4,0.9-0.9,1.8-1.5,2.6
			L25,21.1l-4.7,1.1l-2.5,4.2l1.3,0.6c-1.3,0.4-2.7,0.7-4.1,0.7c-1.4,0-2.7-0.2-4-0.7l1.3-0.6l-2.5-4.2L5,21.1l-0.1,1.4
			c-0.6-0.8-1.1-1.7-1.5-2.6c-0.7-1.6-1-3.2-1-4.9c0,0,0-0.1,0-0.1l0.9,0.9l3.2-3.7L6,7.3L4.8,7.6c0.4-0.5,0.8-1,1.3-1.5
			c1.2-1.2,2.5-2.1,4-2.7c0.3-0.1,0.7-0.3,1-0.4l-0.6,1.1L15,6l4.5-1.9L18.8,3c0.4,0.1,0.7,0.2,1.1,0.4c1.5,0.6,2.9,1.5,4,2.7
			c0.5,0.5,0.9,1,1.3,1.5L24,7.3l-0.4,4.8l3.2,3.7l0.9-0.9c0,0,0,0,0,0.1C27.6,16.7,27.3,18.4,26.6,19.9z"/>
	</g>
	<g id="Layer_4">
		<polygon fill="#010101" points="63.2,28 65.8,28 65.8,22.8 64.5,21.3 63.2,22.8 		"/>
		<g>
			<path fill="#010101" d="M60.6,4.7c-0.4-0.2-0.6-0.6-0.7-1c-0.1-0.4,0-0.8,0.2-1.2c0.2-0.4,0.6-0.6,1-0.7c0.4-0.1,0.8,0,1.2,0.2
				c0.4,0.2,0.6,0.6,0.7,1c0.1,0.4,0,0.8-0.2,1.2c-0.2,0.4-0.6,0.6-1,0.7C61.3,5,60.9,5,60.6,4.7z"/>
			<path fill="#010101" d="M53.6,11l4-0.6L55.1,8c-0.1-0.1-0.2-0.3-0.3-0.5C54.7,7,55,6.6,55.4,6.2l2.3-2C58,4.1,58.2,4,58.4,3.9
				c0.4-0.1,0.7,0,1,0.2c0.3,0.2,0.5,0.5,0.6,0.9C60.1,5.6,60,6,59.6,6.3l-1.9,1.6l2,2c0.1,0.1,0.2,0.3,0.2,0.6c0,0.3,0,0.5-0.2,0.7
				c-0.2,0.3-0.4,0.4-0.7,0.5l-5.1,0.9L53.6,11z"/>
		</g>
		<path fill="#010101" d="M77.1,18c-0.4,0.2-0.8,0.2-1.2,0.1c-0.4-0.1-0.7-0.4-0.9-0.8c-0.2-0.4-0.2-0.8-0.1-1.2
			c0.1-0.4,0.4-0.7,0.8-0.9c0.4-0.2,0.8-0.2,1.2-0.1c0.4,0.1,0.7,0.4,0.9,0.8c0.2,0.4,0.2,0.8,0.1,1.2C77.7,17.5,77.5,17.8,77.1,18z
			"/>
		<path fill="#010101" d="M50.5,14.3l21.1,8c0.1-0.2,0.2-0.3,0.4-0.4c0.2-0.1,0.5-0.2,0.7-0.1l2.7,0.7l0-2.5c0-0.5,0.2-0.9,0.7-1.2
			c0.3-0.2,0.7-0.2,1.1-0.1c0.4,0.1,0.7,0.3,0.8,0.7c0.1,0.2,0.1,0.4,0.1,0.7l0,3.1c0,0.6-0.1,1-0.7,1.3c0,0-0.1,0-0.2,0l2.8,1
			l-0.5,1.4L74.6,25L74,23.9L73.8,24l-0.2,0.1l1.8,3.4l-0.7,0.4l-0.8,0.3l-2.3-4.4L50,15.7L50.5,14.3z"/>
	</g>
	<circle fill="none" cx="106.4" cy="6.9" r="0.7"/>
	<circle fill="none" cx="104.6" cy="8.7" r="0.7"/>
	<circle fill="none" cx="104" cy="6.3" r="0.7"/>
	<g>
		<path fill="#010101" d="M119.6,14.4c0.3,0,0.7,0.1,1,0.2l0.9,0.3l-1.1-11.7L120.1,0h-3.1l-0.3,3.1h-3.9L112.5,0h-3.1l-0.3,3.1
			h-3.9L105,0h-3.1l-0.3,3.1h0l-1.7,18.8c0,0,4.8,1.6,11,1.6c1.6,0,3.1-0.1,4.5-0.3l1.4-6.6C117.1,15.3,118.2,14.4,119.6,14.4z
			 M103.5,5.8c0.3-0.3,0.7-0.3,1,0c0.3,0.3,0.3,0.7,0,1c-0.3,0.3-0.7,0.3-1,0C103.2,6.5,103.2,6.1,103.5,5.8z M105.1,9.2
			c-0.3,0.3-0.7,0.3-1,0c-0.3-0.3-0.3-0.7,0-1c0.3-0.3,0.7-0.3,1,0C105.4,8.4,105.4,8.9,105.1,9.2z M106.9,7.4c-0.3,0.3-0.7,0.3-1,0
			c-0.3-0.3-0.3-0.7,0-1c0.3-0.3,0.7-0.3,1,0C107.2,6.7,107.2,7.1,106.9,7.4z"/>
		<circle fill="#010101" cx="123.5" cy="28.1" r="0.7"/>
		<path fill="#010101" d="M129.4,19.9l-3.3-1.2l3.4-10.5l-2.8-1l-3.4,10.5l-3.3-1.2c-0.1,0-0.2-0.1-0.3-0.1c-0.4,0-0.7,0.3-0.8,0.7
			l-1.9,9.3c-0.1,0.3,0,0.5,0.1,0.7c1-0.8,2.3-1.6,3.9-2.2c2-0.8,4.7-0.7,6.7,0.5l2.3-4.3C130.2,20.6,129.9,20.1,129.4,19.9z"/>
		<circle fill="#010101" cx="125.6" cy="26.8" r="0.7"/>
		<circle fill="#010101" cx="125.6" cy="29.3" r="0.7"/>
	</g>
	<path fill="none" d="M-27.6-34.8l-0.4,0.7c0.3,0.2,0.6,0.4,0.9,0.5l0.4-0.7C-27.1-34.4-27.4-34.6-27.6-34.8z"/>
	<path fill="none" d="M-29.9-31.1c0.3,0.1,0.6,0.3,0.9,0.5l0.4-0.7c-0.3-0.2-0.6-0.3-0.9-0.5L-29.9-31.1z"/>
	<circle cx="-45.9" cy="-22.1" r="4.1"/>
	<path d="M-20.1-29.5c-1.7,1.4-2.8,3.6-2.8,6c0,0.7,0.1,1.4,0.3,2.1c1.6-1.8,2.6-4.2,2.6-6.8C-20-28.6-20-29-20.1-29.5z"/>
	<path d="M-30.2-38.3c-0.1,0-0.3,0-0.4,0c0.5,1.1,1.2,2.1,2.1,2.9l1.5-2.4C-28-38.1-29.1-38.3-30.2-38.3z"/>
	<path d="M-26.7-34.3l1.7-2.7c-0.3-0.2-0.6-0.3-0.9-0.5l-1.7,2.6C-27.4-34.6-27.1-34.4-26.7-34.3z"/>
	<path d="M-23.3-33.5c0.6,0,1.2-0.1,1.7-0.2c-0.7-1.1-1.6-2-2.6-2.7l-1.6,2.5C-25-33.6-24.2-33.5-23.3-33.5z"/>
	<path d="M-31.4-38.3c-4.9,0.6-8.7,4.6-8.9,9.6c1.5-2.4,4.2-4,7.3-4c0.9,0,1.8,0.1,2.6,0.4l1.6-2.5C-30-35.7-30.9-36.9-31.4-38.3z"
		/>
	<path d="M-29.5-31.8c0.3,0.1,0.6,0.3,0.9,0.5l1.4-2.2c-0.3-0.2-0.6-0.3-0.9-0.5L-29.5-31.8z"/>
	<path d="M-20.2-30.4c-0.2-0.9-0.5-1.8-0.9-2.5c-0.7,0.2-1.4,0.3-2.1,0.3c-1,0-2-0.2-2.9-0.5l-1.5,2.4c2,1.6,3.3,4,3.3,6.8
		c0,1.9-0.6,3.6-1.7,5.1c1-0.5,1.9-1.1,2.8-1.8c-0.3-0.9-0.5-1.8-0.5-2.7C-23.7-26.3-22.4-28.8-20.2-30.4z"/>
	<path d="M-30.2-18c0.9,0,1.7-0.1,2.6-0.3c1.5-1.4,2.4-3.4,2.4-5.6c0-2.5-1.1-4.7-2.9-6.1l-6.8,10.9C-33.5-18.4-31.9-18-30.2-18z"/>
	<path d="M-29.9-31.1l-6.7,10.8c0.3,0.2,0.5,0.4,0.8,0.6l6.8-10.9C-29.3-30.8-29.6-31-29.9-31.1z"/>
	<path d="M-33.1-31.8c-3.2,0-6,2-7.2,4.8c0.3,2.3,1.3,4.4,2.8,5.9l6.5-10.4C-31.6-31.7-32.3-31.8-33.1-31.8z"/>
	<path fill="#010101" d="M77.9-26.6c0.1-0.5,0.1-1,0.1-1.5c0-4.2-3.5-7.6-7.8-7.6c-0.2,0-0.5,0-0.7,0c-1,0.8-2.2,1.5-3.6,2.1
		c-1.2,0.6-2.4,1.1-3.5,1.4c0-0.2,0-0.4-0.1-0.5c1.1-0.3,2.2-0.8,3.4-1.4c0.9-0.5,1.8-0.9,2.5-1.4c1-0.7,1.9-1.4,2.6-2.1
		c1.1-1.2,1.6-2.2,1.3-2.8c-0.2-0.5-0.9-0.7-2-0.7c-1.8,0-4.4,0.8-7,2c-2.1,1-3.7,2.2-4.8,3.2c-1.4-0.2-3,0.1-4.5,0.9
		c-3.2,1.7-4.8,5-3.5,7.4c1,1.8,3.3,2.6,5.8,2.1l0.1,0.1C55-23.1,55-20.4,55-20.4h3.2H61c0-2.8,4-3.2,4.2-3.2l0,0.3l0,0.3
		c0,0-0.2,0-0.5,0.1c-0.9,0.2-3.1,0.8-3.2,2.4c0,0.1,0,0.1,0,0.2h2.2h6.9l0,0c2.2-0.1,4.1-1,5.5-2.5c0.4,0.5,1,0.8,1.7,0.8
		c1.2,0,2.3-1,2.3-2.3C80-25.5,79.1-26.5,77.9-26.6z M54.4-30.7c-0.5,0-0.9-0.4-0.9-0.9c0-0.5,0.4-0.9,0.9-0.9
		c0.5,0,0.9,0.4,0.9,0.9C55.3-31.1,54.9-30.7,54.4-30.7z"/>
	<path fill="#010101" d="M182,26.8l-9.4-9.4c1.2-1.8,1.9-4,1.9-6.2c0-3-1.2-5.8-3.3-7.9c-2.1-2.1-4.9-3.3-7.9-3.3
		c-3,0-5.8,1.2-7.9,3.3c-2.1,2.1-3.3,4.9-3.3,7.9s1.2,5.8,3.3,7.9s4.9,3.3,7.9,3.3c2.3,0,4.4-0.7,6.3-1.9l9.4,9.4
		c0.3,0.3,0.9,0.2,1.3-0.2l1.6-1.6C182.3,27.7,182.3,27.1,182,26.8z M163.4,19.3c-4.5,0-8.1-3.7-8.1-8.1s3.6-8.1,8.1-8.1
		s8.1,3.7,8.1,8.1S167.9,19.3,163.4,19.3z"/>
	<g id="Your_Icon">
		<path fill="#010101" d="M182.2,46.6h-24.3l-1.1-3.5h-4.7l0.6,1.7h2.8l5.5,17.2c-1.2,0.2-2.1,1.3-2.1,2.5c0,1.4,1.2,2.6,2.6,2.6
			c1.4,0,2.6-1.1,2.6-2.6c0-0.3-0.1-0.6-0.2-0.9h7.2c-0.1,0.3-0.2,0.6-0.2,0.9c0,1.4,1.2,2.6,2.6,2.6c1.4,0,2.6-1.1,2.6-2.6
			c0-1.4-1.1-2.5-2.4-2.6c0,0-0.2,0-0.2,0l-10.7,0l-1.1-3.4h13.5L182.2,46.6z"/>
	</g>
	<path fill="#010101" d="M76,59.9c-0.2-0.1-0.4-0.2-0.6-0.3l-0.1,0c0,0-1-0.5-1.1-4.4c-0.1-3.9,0.9-4.5,0.9-4.5l0.1-0.1
		c1-0.5,1.8-1.3,2.3-2.3c1.4-2.7,0.4-6-2.3-7.4c-2.7-1.4-6-0.4-7.4,2.3c-0.6,1.1-0.7,2.3-0.6,3.4l0,0c0,0,0.3,1.3-3.1,3.4
		c-3.3,2.1-4.9,1.1-4.9,1.1L59.2,51c-2.7-1.4-6-0.4-7.4,2.3c-1.4,2.7-0.4,6,2.3,7.4c2,1.1,4.3,0.8,6-0.6l0,0c0,0,1.1-0.9,4.6,1
		c2.8,1.5,3.2,2.9,3.2,3.5c-0.1,2,1,4,2.9,5c2.7,1.4,6,0.4,7.4-2.3C79.7,64.6,78.7,61.3,76,59.9z M53.3,58.7
		C53.3,58.7,53.3,58.7,53.3,58.7C53.3,58.7,53.3,58.7,53.3,58.7L53.3,58.7z M59.2,52.3c-0.7-0.6-2.4-0.5-3.9,0.4
		c0.2,0.2,0.3,0.4,0.3,0.7c0,0.6-0.5,1.2-1.1,1.2c-0.1,0-0.2,0-0.3,0c0,0,0,0-0.1,0c-0.4-0.1-0.7,0.2-0.8,0.3c-0.8,1.5-0.8,3,0,3.7
		c-1.5-1.5-1.5-4,0.1-5.8C55,51.1,57.6,50.9,59.2,52.3L59.2,52.3z M69.4,42.6c1.6-1.8,4.2-2,5.8-0.6l0,0c-0.7-0.6-2.4-0.5-3.9,0.4
		c0.2,0.2,0.3,0.4,0.3,0.7c0,0.6-0.5,1.2-1.1,1.2c-0.1,0-0.2,0-0.3,0c0,0,0,0-0.1,0c-0.4-0.1-0.7,0.2-0.8,0.3c-0.8,1.5-0.8,3,0,3.7
		C67.8,46.9,67.8,44.3,69.4,42.6z M65.4,59.5c-2.9-1.5-3.3-2.8-3.4-3.2c0-0.5,0-0.9-0.1-1.4l0,0c0,0-0.2-1.3,3.1-3.3
		c3-1.8,4.3-1.5,4.5-1.4c0.2,0.1,0.3,0.2,0.5,0.3c0.3,0.2,0.7,0.3,1,0.4c0.4,0.4,1.2,1.5,1.2,4.4c0.1,2.9-0.8,4-1.2,4.4
		c-0.5,0.2-0.9,0.5-1.3,0.9C69.4,60.7,68.1,60.9,65.4,59.5z M70.3,67.4C70.3,67.4,70.3,67.4,70.3,67.4
		C70.3,67.4,70.3,67.4,70.3,67.4L70.3,67.4z M76.1,61c-0.7-0.6-2.4-0.5-3.9,0.4c0.2,0.2,0.3,0.4,0.3,0.7c0,0.6-0.5,1.2-1.1,1.2
		c-0.1,0-0.2,0-0.3,0c0,0,0,0-0.1,0c-0.4-0.1-0.7,0.2-0.8,0.3c-0.8,1.5-0.8,3,0,3.7c-1.5-1.5-1.5-4,0.1-5.8
		C72,59.9,74.6,59.6,76.1,61L76.1,61z"/>
	<path fill="#010101" d="M100,51.9C100,52,100,52,100,51.9L100,51.9C100,51.9,100,51.9,100,51.9z"/>
	<g>
		<ellipse fill="#010101" cx="109" cy="51.4" rx="1" ry="1"/>
		<path fill="#010101" d="M120.5,56.5c0.6-0.1,0.9-0.7,0.8-1.2c-0.1-0.6-0.7-0.9-1.3-0.8c-0.6,0.1-0.9,0.7-0.8,1.2
			C119.4,56.3,120,56.7,120.5,56.5z"/>
		<path fill="#010101" d="M127.1,64.1c-1.4,0-3-1.5-4.8-3.2c-0.2-0.2-0.4-0.4-0.6-0.5l-0.6-2.5c-0.1-0.6-0.7-1-1.3-0.8
			c-0.5,0.1-0.8,0.5-0.9,1c-1.7-1.3-3.7-2.2-6-2.2v-9.9l-6.7-3.7l-6.2,3.7v9.9v3.3v9.1h1.3v-1.7h4.2v1.7h1.3v-1.7h5v1.7h1.3v-9.1
			v-0.8c2.9,0,5.4,2.2,7.7,4.4c2.1,2,4.1,3.8,6.5,3.8h0.4v1.7h1.2v-1.7h1.2v-2.5H127.1z M105.4,65.7h-4.2v-1.7h4.2L105.4,65.7
			L105.4,65.7z M105.4,63.2h-4.2v-1.7h4.2L105.4,63.2L105.4,63.2z M105.4,60.8h-4.2v-1.7h4.2L105.4,60.8L105.4,60.8z M111.7,55.8
			h-1.3l-0.5-2.1c-0.1-0.6-0.7-1-1.3-0.8c-0.6,0.1-1,0.7-0.8,1.3l0.4,1.6h-6.8v-9.1h10.4L111.7,55.8L111.7,55.8z"/>
	</g>
	<g>
		<path fill="#585D5C" d="M24.6,59.5c-3,0-5.4,2.4-5.4,5.3c0,2.9,2.4,5.3,5.4,5.3c3,0,5.4-2.4,5.4-5.3C30,61.9,27.6,59.5,24.6,59.5z
			 M24.6,67.4c-1.4,0-2.6-1.1-2.6-2.5c0-1.4,1.2-2.5,2.6-2.5c1.4,0,2.6,1.1,2.6,2.5C27.1,66.2,26,67.4,24.6,67.4z"/>
		<path fill="#585D5C" d="M14.3,55.6c1.2,0,2.3-0.1,3.4-0.4l1.9,4.3c0.9-0.9,2.1-1.5,3.4-1.7l-1.8-4c4.3-2.4,7.3-7,7.3-12.2
			c0-0.8,0-1.4,0-1.4H0c0,0,0,0.6,0,1.4c0,5.3,2.9,9.8,7.3,12.2L0,70.2h4.1l1.6-3.5h11.8c-0.2-0.6-0.2-1.2-0.2-1.9
			c0-0.7,0.1-1.3,0.3-1.9H7.4l3.4-7.7C11.9,55.5,13.1,55.6,14.3,55.6z M2.9,43h4.2c0.4,4.3,2.5,7.9,5.5,9.7C7.6,52,3.6,48,2.9,43z"
			/>
	</g>
	<path fill="#585D5C" d="M-22.5,56.6c0-0.1,0-0.1,0-0.2c0-2-1.5-3.6-3.4-3.7c-0.3-0.3-0.6-0.5-0.9-0.8v-1.1c0.2,0,0.3,0,0.4,0
		c0.1,0,0.3,0,0.4,0c0.5,0,0.9-0.1,1.3-0.4c0.4,0.2,0.8,0.4,1.3,0.4c1.5,0,2.6-1.2,2.6-2.6c0-1.1-0.7-2.1-1.8-2.5c0-0.1,0-0.1,0-0.2
		c0-1.4-1.1-2.5-2.4-2.6c-0.5-0.5-1.2-0.9-2-0.9c-0.9,0-1.8,0.5-2.2,1.2c-0.4-0.2-0.8-0.4-1.3-0.4c-1.5,0-2.6,1.2-2.6,2.6
		c0,0,0,0.1,0,0.1c-1.1,0.3-2,1.3-2,2.6c0,1.5,1.2,2.7,2.7,2.7c0.6,0,1.1-0.2,1.5-0.5c0,0,0,0,0,0c0.4,0.2,0.8,0.4,1.3,0.4
		c0.3,0,0.6-0.1,0.9-0.2v0.7c0,0-0.1,0-0.1,0c-1.3,0-2.5,0.7-3.2,1.7c-0.4-0.2-0.8-0.4-1.2-0.4c-0.2-1-1-1.8-1.9-2.1
		c0-0.1,0-0.1,0-0.2c0-1.5-1.2-2.8-2.7-2.9c-0.5-0.6-1.3-1-2.2-1c-1.1,0-2,0.6-2.5,1.4c-0.4-0.2-0.9-0.4-1.4-0.4c-1.6,0-3,1.3-3,3
		c0,0.1,0,0.1,0,0.2C-48,50.9-49,52-49,53.4c0,1.6,1.3,3,3,3c0.6,0,1.2-0.2,1.7-0.5c0,0,0,0,0,0c0.4,0.3,0.9,0.4,1.5,0.4
		c0.3,0,0.7-0.1,1-0.2v3.3c-1.1-1.3-1.6-2.4-1.6-2.4h0c0,0-1.1,2.5-3.9,4.4c0,0,1.1,0.8,1.9,0.9c0,0-1.3,2.2-4.6,3.1
		c0,0,2.5,2.1,5.5,2v2.6h1.5h0.6v-2.6c3.1,0.1,5.5-2,5.5-2c-3.3-0.9-4.6-3.1-4.6-3.1c0.5-0.1,1.1-0.4,1.5-0.7
		c0.6,1.3,1.9,2.2,3.5,2.2c0.8,0,1.5-0.2,2.1-0.7c0,0,0,0,0,0c0.6,0.3,1.2,0.5,1.9,0.5c0.4,0,0.9-0.1,1.2-0.2v6.5h2.5v-6.2
		c0.2,0,0.4,0,0.6-0.1c0.2,0,0.4,0.1,0.6,0.1c0.7,0,1.3-0.2,1.9-0.5c0.6,0.3,1.2,0.5,1.9,0.5c2.1,0,3.7-1.7,3.7-3.7
		C-20,58.4-21.1,57.1-22.5,56.6z M-39.9,58.5v-2.2c0.2,0,0.3,0,0.5,0c0.2,0,0.3,0,0.5,0c0.5,0,1-0.2,1.5-0.4c0,0.1,0,0.3,0,0.5
		c0,0.1,0,0.1,0,0.2C-38.5,56.8-39.4,57.5-39.9,58.5z"/>
	<path fill="#585D5C" d="M-90.4,56.1c-1.4,0-2.3,1.1-2.6,2.6l-0.4,2.4l-6.6,6.6h6l1,2.4l1.1-2.7c2.3-0.7,4-2.9,4-5.5v-2l1.9-0.9
		l-1.9-0.9C-88.1,57-89.2,56.1-90.4,56.1z M-89.9,59.3c-0.3,0-0.6-0.3-0.6-0.6s0.3-0.6,0.6-0.6s0.6,0.3,0.6,0.6
		S-89.6,59.3-89.9,59.3z"/>
	<path fill="#585D5C" d="M-80,64.9c-0.6-0.6-1.4-0.9-2.2-0.9l0,0l-3,0l0,3l0,0c0,0.8,0.3,1.6,0.9,2.2c0,0,0,0,0,0
		c1.2,1.2,3.1,1.2,4.3,0c0.6-0.6,0.9-1.4,0.9-2.1C-79.1,66.3-79.4,65.5-80,64.9C-80,64.9-80,64.9-80,64.9z"/>
	<path fill="#585D5C" d="M-76.1,61.5c1.7,0,3-1.3,3-3c1.7,0,3-1.3,3-3c0-0.9-0.4-1.6-1-2.2c0.6-0.5,1-1.3,1-2.2c0-1.7-1.3-3-3-3
		c0-1.7-1.3-3-3-3c-0.9,0-1.6,0.4-2.2,1c-0.5-0.6-1.3-1-2.2-1c-1.7,0-3,1.3-3,3c-1.7,0-3,1.3-3,3c0,0.9,0.4,1.6,1,2.2
		c-0.6,0.5-1,1.3-1,2.2c0,1.7,1.3,3,3,3c0,1.7,1.3,3,3,3c0.5,0,1-0.1,1.4-0.3v5.9v3h1.6v-3c0,0.8,0.3,1.5,0.9,2.1
		c1.2,1.2,3.1,1.2,4.3,0c0,0,0,0,0,0c0.6-0.6,0.9-1.4,0.9-2.2l0,0l0-3l-3,0l0,0c-0.8,0-1.6,0.3-2.2,0.9c0,0,0,0,0,0
		c-0.6,0.6-0.9,1.4-0.9,2.1v-5.9C-77.1,61.4-76.6,61.5-76.1,61.5z M-78.3,58.5c-2.9,0-5.2-2.3-5.2-5.2c0-2.9,2.3-5.2,5.2-5.2
		c2.9,0,5.2,2.3,5.2,5.2C-73.1,56.2-75.4,58.5-78.3,58.5z"/>
	<path fill="#585D5C" d="M-97,100.8c0.6,0,1.2-0.2,1.7-0.5c0,0,0,0,0,0c0.4,0.3,0.9,0.4,1.5,0.4c0.3,0,0.7-0.1,1-0.2v5.1h2v-4.9
		c0.2,0,0.3,0,0.5,0c0.2,0,0.3,0,0.5,0c0.5,0,1-0.2,1.5-0.4c0.4,0.3,0.9,0.4,1.5,0.4c1.6,0,3-1.3,3-3c0-1.3-0.8-2.4-2-2.8
		c0-0.1,0-0.1,0-0.2c0-1.5-1.2-2.8-2.7-2.9c-0.5-0.6-1.3-1-2.2-1c-1.1,0-2,0.6-2.5,1.4c-0.4-0.2-0.9-0.4-1.4-0.4c-1.6,0-3,1.3-3,3
		c0,0.1,0,0.1,0,0.2c-1.3,0.3-2.2,1.5-2.2,2.9C-100,99.4-98.7,100.8-97,100.8z"/>
	<rect x="-71.7" y="117.9" fill="none" width="3.3" height="3.3"/>
	<path fill="#585D5C" d="M-85,99L-85,99c7.7,4.9-14.3,4.6-15,12.1h19.7C-92.8,108.2-75.3,101.1-85,99z"/>
	<g>
		<path fill="#585D5C" d="M-75,93.1c0,0-0.2,0-0.2-0.4c0-0.4-0.4-0.8-0.8-0.8c-0.5,0-0.8,0.4-0.8,0.8c0,0.4-0.2,0.4-0.2,0.4
			c-0.1,0-0.2,0.1-0.2,0.2c0,0.1,0.1,0.2,0.2,0.2h2.1c0.1,0,0.2-0.1,0.2-0.2C-74.8,93.2-74.8,93.1-75,93.1z"/>
		<circle fill="#585D5C" cx="-76" cy="94.2" r="0.4"/>
		<circle fill="#585D5C" cx="-76" cy="88.5" r="0.6"/>
		<path fill="#585D5C" d="M-72.2,98.7l-1.3-3.8v-3.3c0.2,0,0.4-0.2,0.4-0.4s-0.2-0.4-0.4-0.4h-0.8c0-0.9-0.7-1.7-1.7-1.7
			c-0.9,0-1.7,0.7-1.7,1.7h-0.8c-0.2,0-0.4,0.2-0.4,0.4s0.2,0.4,0.4,0.4v3.3l-1.3,3.8h-2.1v1.3h0.8v2.5v3.3v2.8h10v-2.8v-3.3v-2.5
			h0.8v-1.3H-72.2z M-77.7,91.6h3.3v3.3h-3.3V91.6z M-76.8,105.8L-76.8,105.8l0,1.2h-2.5v-1.2v-3.3v0c0-0.7,0.6-1.3,1.3-1.3
			c0.7,0,1.3,0.6,1.3,1.3v0V105.8z M-72.7,105.8L-72.7,105.8l0,1.2h-2.5v-1.2v-3.3v0c0-0.7,0.6-1.3,1.3-1.3c0.7,0,1.3,0.6,1.3,1.3v0
			V105.8z"/>
	</g>
	<path fill="#585D5C" d="M-82.7,86.4c0.8-0.2,1.9-0.9,1.9-0.9c-2.8-1.9-3.9-4.4-3.9-4.4h0c0,0-1.1,2.5-3.9,4.4c0,0,1.1,0.8,1.9,0.9
		c0,0-1.3,2.2-4.6,3.1c0,0,2.5,2.1,5.5,2v2.6h1.5h0.6v-2.6c3.1,0.1,5.5-2,5.5-2C-81.3,88.6-82.7,86.4-82.7,86.4z"/>
	<g>
		<path fill="#585D5C" d="M-82.5,126c0,0-0.3,0-0.3-0.6c0-0.6-0.5-1.2-1.2-1.2c-0.7,0-1.2,0.5-1.2,1.2c0,0.6-0.3,0.6-0.3,0.6
			c-0.2,0-0.3,0.1-0.3,0.3c0,0.2,0.1,0.3,0.3,0.3h3c0.2,0,0.3-0.1,0.3-0.3C-82.2,126.1-82.3,126-82.5,126z"/>
		<circle fill="#585D5C" cx="-84" cy="127.5" r="0.6"/>
		<circle fill="#585D5C" cx="-84" cy="119.3" r="0.9"/>
		<path fill="#585D5C" d="M-78.6,133.9l-1.8-5.4v-4.8c0.3,0,0.6-0.3,0.6-0.6s-0.3-0.6-0.6-0.6h-1.2c0-1.3-1.1-2.4-2.4-2.4
			c-1.3,0-2.4,1.1-2.4,2.4h-1.2c-0.3,0-0.6,0.3-0.6,0.6s0.3,0.6,0.6,0.6v4.8l-1.8,5.4h-3v1.8h1.2v3.6v4.7v4h14.3v-4v-4.7v-3.6h1.2
			v-1.8H-78.6z M-86.4,123.7h4.8v4.8h-4.8V123.7z M-85.2,144.1L-85.2,144.1l0,1.8h-3.6v-1.8v-4.7v-0.1c0-1,0.8-1.8,1.8-1.8
			c1,0,1.8,0.8,1.8,1.8v0.1V144.1z M-79.2,144.1L-79.2,144.1l0,1.8h-3.6v-1.8v-4.7v-0.1c0-1,0.8-1.8,1.8-1.8c1,0,1.8,0.8,1.8,1.8
			v0.1V144.1z"/>
	</g>
	<g>
		<path fill="#585D5C" d="M-24.6,99L-24.6,99c7.7,4.9-14.3,4.6-15,12.1h19.7C-32.3,108.2-14.9,101.1-24.6,99z"/>
		<path fill="#585D5C" d="M-38.4,105v-6.2c0.2,0,0.4,0,0.6-0.1c0.2,0,0.4,0.1,0.6,0.1c0.7,0,1.3-0.2,1.9-0.5
			c0.6,0.3,1.2,0.5,1.9,0.5c2.1,0,3.7-1.7,3.7-3.7c0-1.6-1.1-3-2.5-3.5c0-0.1,0-0.1,0-0.2c0-0.5-0.1-0.9-0.2-1.3
			c0.9,0.6,2.8,1.6,5,1.6v2.6h1.5h0.6v-2.6c3.1,0.1,5.5-2,5.5-2c-3.3-0.9-4.6-3.1-4.6-3.1c0.8-0.2,1.9-0.9,1.9-0.9
			c-2.8-1.9-3.9-4.4-3.9-4.4h0c0,0-1.1,2.5-3.9,4.4c0,0,1.1,0.8,1.9,0.9c0,0-1.2,2-4.3,3c-0.6-1-1.7-1.8-2.9-1.9
			c-0.7-0.8-1.7-1.3-2.8-1.3c-1.3,0-2.5,0.7-3.2,1.7c-0.5-0.3-1.2-0.5-1.8-0.5c-2.1,0-3.7,1.7-3.7,3.7c0,0.1,0,0.1,0,0.2
			c-1.6,0.4-2.8,1.9-2.8,3.7c0,2.1,1.7,3.8,3.8,3.8c0.8,0,1.5-0.2,2.1-0.7c0,0,0,0,0,0c0.6,0.3,1.2,0.5,1.9,0.5
			c0.4,0,0.9-0.1,1.2-0.2v6.5H-38.4z"/>
	</g>
	<path fill="#585D5C" d="M-23.5,134.6c0-0.1,0-0.1,0-0.2c0-2-1.5-3.6-3.4-3.7c-0.7-0.8-1.7-1.3-2.8-1.3c-1.3,0-2.5,0.7-3.2,1.7
		c-0.5-0.3-1-0.4-1.5-0.5c0.1-0.3,0.2-0.7,0.2-1.1c0-1.1-0.7-2.1-1.8-2.5c0-0.1,0-0.1,0-0.2c0-1.4-1.1-2.5-2.4-2.6
		c-0.5-0.5-1.2-0.9-2-0.9c-0.9,0-1.8,0.5-2.2,1.2c-0.4-0.2-0.8-0.4-1.3-0.4c-1.5,0-2.6,1.2-2.6,2.6c0,0,0,0.1,0,0.1
		c-1.1,0.3-2,1.3-2,2.6c0,1.5,1.2,2.7,2.7,2.7c0.6,0,1.1-0.2,1.5-0.5c0,0,0,0,0,0c0.4,0.2,0.8,0.4,1.3,0.4c0.3,0,0.6-0.1,0.9-0.2
		v1.7c-0.5,0.2-1,0.6-1.3,1.1c-0.4-0.2-0.9-0.4-1.4-0.4c-1.6,0-3,1.3-3,3c0,0.1,0,0.1,0,0.2c-1.3,0.3-2.2,1.5-2.2,2.9
		c0,1.6,1.3,3,3,3c0.6,0,1.2-0.2,1.7-0.5c0,0,0,0,0,0c0.4,0.3,0.9,0.4,1.5,0.4c0.3,0,0.7-0.1,1-0.2v5.1h2v-4.9c0.2,0,0.3,0,0.5,0
		c0.2,0,0.3,0,0.5,0c0.5,0,1-0.2,1.5-0.4c0.4,0.3,0.9,0.4,1.5,0.4c1.1,0,2.1-0.6,2.6-1.5c0.3,0.1,0.6,0.1,0.9,0.1
		c0.4,0,0.9-0.1,1.2-0.2v6.5h2.5v-6.2c0.2,0,0.4,0,0.6-0.1c0.2,0,0.4,0.1,0.6,0.1c0.7,0,1.3-0.2,1.9-0.5c0.6,0.3,1.2,0.5,1.9,0.5
		c2.1,0,3.7-1.7,3.7-3.7C-21,136.5-22.1,135.1-23.5,134.6z M-39.9,132.2c0.1,0,0.3,0,0.4,0c0.5,0,0.9-0.1,1.3-0.4
		c0.1,0.1,0.3,0.1,0.5,0.2c-0.5,0.6-0.8,1.4-0.8,2.3c0,0,0,0.1,0,0.1c-0.1,0-0.1,0-0.2,0c-0.4-0.5-1-0.8-1.6-0.9v-1.3
		C-40.2,132.3-40,132.2-39.9,132.2z"/>
	<path fill="#010101" d="M0-31v0.3C0-30.8,0-30.9,0-31L0-31z"/>
	<path fill="#010101" d="M0-30L0-30c0-0.1,0-0.2,0-0.3V-30z"/>
	<path fill="#010101" d="M24.4-42.2c-3.5,2.6-5.7,6.6-5.9,11.2H30C29.8-35.5,27.7-39.5,24.4-42.2z"/>
	<path fill="#010101" d="M30-30H18.5c0.2,4.6,2.5,8.6,5.9,11.1C27.7-21.5,29.8-25.5,30-30z"/>
	<path fill="#010101" d="M23.5-42.8c-2.3-1.6-5-2.6-8-2.7V-31h2C17.6-35.8,20-40,23.5-42.8z"/>
	<path fill="#010101" d="M17.5-30h-2v14.5c3-0.1,5.8-1.1,8.1-2.7C20-20.9,17.7-25.2,17.5-30z"/>
	<path fill="#010101" d="M5.5-18.9c3.4-2.5,5.6-6.5,5.8-11.1H0C0.2-25.5,2.3-21.5,5.5-18.9z"/>
	<path fill="#010101" d="M5.5-42.1C2.3-39.4,0.1-35.4,0-31h11.3C11.1-35.5,8.9-39.5,5.5-42.1z"/>
	<path fill="#010101" d="M6.3-18.3c2.3,1.7,5.2,2.7,8.2,2.8V-30h-2.2C12.1-25.2,9.8-21,6.3-18.3z"/>
	<path fill="#010101" d="M14.5-45.5c-3,0.1-5.9,1.1-8.2,2.7c3.5,2.8,5.8,7,6,11.8h2.2V-45.5z"/>
</g>
</svg>
