<?xml version="1.0" encoding="utf-8"?>
<!-- Generator: Adobe Illustrator 18.0.0, SVG Export Plug-In . SVG Version: 6.00 Build 0)  -->
<!DOCTYPE svg PUBLIC "-//W3C//DTD SVG 1.0//EN" "http://www.w3.org/TR/2001/REC-SVG-20010904/DTD/svg10.dtd">
<svg version="1.0" xmlns="http://www.w3.org/2000/svg" xmlns:xlink="http://www.w3.org/1999/xlink" x="0px" y="0px"
	 viewBox="0 0 30 30" enable-background="new 0 0 30 30" xml:space="preserve">
<g id="Layer_1">
	<path fill-rule="evenodd" clip-rule="evenodd" d="M-35-326c-8.3,0-15,6.7-15,15c0,8.3,6.7,15,15,15s15-6.7,15-15
		C-20-319.3-26.7-326-35-326z M-36.9-299.8v-9.4h-9.4l18.7-9.4L-36.9-299.8z"/>
</g>
<g id="Layer_2">
	<path fill-rule="evenodd" clip-rule="evenodd" d="M172.2-276.1h-15c-2.1,0-3.7,1.7-3.7,3.8v22.5c0,2.1,1.7,3.7,3.7,3.7h15
		c2.1,0,3.7-1.7,3.7-3.7v-22.5C176-274.4,174.3-276.1,172.2-276.1z M174.5-249.8c0,1.2-1,2.2-2.2,2.2h-15c-1.2,0-2.2-1-2.2-2.2
		v-22.5c0-1.2,1-2.2,2.2-2.2h15c1.2,0,2.2,1,2.2,2.2V-249.8z"/>
	<path fill-rule="evenodd" clip-rule="evenodd" d="M23.4-312.9c3.6,0,6.6,3,6.6,6.7c0,3.7-2.9,6.7-6.6,6.7c-3.6,0-6.6-3-6.6-6.7
		c0-2.3,1.2-4.4,2.9-5.6l-0.4-0.7l-1.1-2.1l-0.1-0.3h-6.8c-0.8,0-1.5,0.5-1.7,1.3l-0.4,1.2c2.3,1.1,3.9,3.4,3.9,6.1
		c0,3.7-2.9,6.7-6.6,6.7s-6.6-3-6.6-6.7c0-3.7,2.9-6.7,6.6-6.7c0.3,0,0.6,0.1,0.9,0.1l1-3.3c0.1-0.4,0.5-0.7,0.9-0.7h9.9l1.7-3.8
		h-3.2c-0.5,0-0.9-0.4-0.9-1c0-0.5,0.4-1,0.9-1h4.1h0.6c0.3,0,0.6,0.2,0.8,0.4c0.2,0.3,0.2,0.6,0.1,0.9l-0.3,0.6l-2.7,5.9l1.1,2.1
		C22.1-312.8,22.8-312.9,23.4-312.9z M8.7-310.5l-1,3c-0.1,0.2-0.2,0.4-0.5,0.6c-0.2,0.1-0.5,0.1-0.7,0.1c-0.5-0.2-0.8-0.7-0.6-1.2
		l0.9-2.9c-0.1,0-0.2,0-0.3,0c-2.6,0-4.7,2.1-4.7,4.8c0,2.6,2.1,4.8,4.7,4.8c2.6,0,4.7-2.1,4.7-4.8C11.3-308.1,10.2-309.7,8.7-310.5
		z M18.7-306.2c0,2.6,2.1,4.8,4.7,4.8s4.7-2.1,4.7-4.8c0-2.6-2.1-4.8-4.7-4.8c-0.3,0-0.7,0-1,0.1l2.3,4.3c0.1,0.2,0.1,0.5,0.1,0.7
		c-0.1,0.2-0.2,0.5-0.5,0.6l0,0c-0.5,0.2-1,0.1-1.2-0.4l-2.4-4.5C19.5-309.2,18.7-307.8,18.7-306.2z M9.4-318.7H6.6
		c-0.5,0-0.9-0.4-0.9-1c0-0.5,0.4-1,0.9-1h5.6c0.2,0,0.3,0.1,0.3,0.2c0.1,0.1,0,0.3-0.1,0.4C11.6-319.2,10.8-318.7,9.4-318.7z"/>
	<path fill-rule="evenodd" clip-rule="evenodd" d="M79.1-312h-0.9v-5.6h0.9c0.5,0,0.9,0.4,0.9,0.9v3.7C80-312.4,79.6-312,79.1-312z
		 M74.4-300.8v1.9c0,1-0.8,1.9-1.9,1.9h-1.9c-1,0-1.9-0.8-1.9-1.9v-1.9h-7.5v1.9c0,1-0.8,1.9-1.9,1.9h-1.9c-1,0-1.9-0.8-1.9-1.9
		v-1.9c-1,0-1.9-0.8-1.9-1.9v-16.8c0-3.1,2.5-5.6,5.6-5.6h11.2c3.1,0,5.6,2.5,5.6,5.6v16.8C76.2-301.6,75.4-300.8,74.4-300.8z
		 M57.5-302.6c1,0,1.9-0.8,1.9-1.9c0-1-0.8-1.9-1.9-1.9c-1,0-1.9,0.8-1.9,1.9C55.6-303.5,56.5-302.6,57.5-302.6z M68.7-323.2h-7.5
		v1.9h7.5V-323.2z M74.4-319.4H55.6v11.2h18.7V-319.4z M72.5-306.4c-1,0-1.9,0.8-1.9,1.9c0,1,0.8,1.9,1.9,1.9c1,0,1.9-0.8,1.9-1.9
		C74.4-305.5,73.5-306.4,72.5-306.4z M50-312.9v-3.7c0-0.5,0.4-0.9,0.9-0.9h0.9v5.6h-0.9C50.4-312,50-312.4,50-312.9z"/>
	<path fill-rule="evenodd" clip-rule="evenodd" d="M124.4-309.2c0,2-1.7,3.7-3.7,3.7h-11.2c-2.1,0-3.7-1.6-3.7-3.7V-322h18.7v1.8
		c3.1,0,5.6,2.5,5.6,5.5C130-311.7,127.5-309.2,124.4-309.2z M109.4-320.2h-1.9v11c0,1,0.8,1.8,1.9,1.8V-320.2z M124.4-318.4v7.3
		c2.1,0,3.7-1.6,3.7-3.7C128.1-316.7,126.4-318.4,124.4-318.4z M130-301.9c0,1-0.8,1.8-1.9,1.8h-26.2c-1,0-1.9-0.8-1.9-1.8
		c0-1,0.8-1.8,1.9-1.8h26.2C129.2-303.7,130-302.9,130-301.9z"/>
	<g>
		<polygon fill-rule="evenodd" clip-rule="evenodd" points="178,-320.5 178,-298.5 152,-298.5 152,-296.5 180,-296.5 180,-297.5 
			180,-298.5 180,-320.5 		"/>
		<path fill-rule="evenodd" clip-rule="evenodd" d="M176-322.5h-3c0,1.7-1.3,3-3,3c-1.7,0-3-1.3-3-3h-7c0,1.7-1.3,3-3,3
			c-1.7,0-3-1.3-3-3h-4v22h26V-322.5z M174-302.5h-22v-15h22V-302.5z"/>
		<path fill-rule="evenodd" clip-rule="evenodd" d="M157-321.5c0.6,0,1-0.4,1-1v-2c0-0.6-0.4-1-1-1s-1,0.4-1,1v2
			C156-322,156.4-321.5,157-321.5z"/>
		<path fill-rule="evenodd" clip-rule="evenodd" d="M170-321.5c0.6,0,1-0.4,1-1v-2c0-0.6-0.4-1-1-1s-1,0.4-1,1v2
			C169-322,169.4-321.5,170-321.5z"/>
		<rect x="156" y="-314.5" fill-rule="evenodd" clip-rule="evenodd" width="3" height="3"/>
		<rect x="162" y="-314.5" fill-rule="evenodd" clip-rule="evenodd" width="3" height="3"/>
		<rect x="167" y="-314.5" fill-rule="evenodd" clip-rule="evenodd" width="3" height="3"/>
		<rect x="156" y="-309.5" fill-rule="evenodd" clip-rule="evenodd" width="3" height="3"/>
		<rect x="162" y="-309.5" fill-rule="evenodd" clip-rule="evenodd" width="3" height="3"/>
		<rect x="167" y="-309.5" fill-rule="evenodd" clip-rule="evenodd" width="3" height="3"/>
	</g>
	<g>
		<path fill-rule="evenodd" clip-rule="evenodd" d="M207-322c0.6,0,1-0.4,1-1v-2c0-0.6-0.4-1-1-1s-1,0.4-1,1v2
			C206-322.5,206.4-322,207-322z"/>
		<path fill-rule="evenodd" clip-rule="evenodd" d="M220-322c0.6,0,1-0.4,1-1v-2c0-0.6-0.4-1-1-1s-1,0.4-1,1v2
			C219-322.5,219.4-322,220-322z"/>
		<rect x="206" y="-315" fill-rule="evenodd" clip-rule="evenodd" width="3" height="3"/>
		<rect x="212" y="-315" fill-rule="evenodd" clip-rule="evenodd" width="3" height="3"/>
		<rect x="217" y="-315" fill-rule="evenodd" clip-rule="evenodd" width="3" height="3"/>
		<rect x="206" y="-310" fill-rule="evenodd" clip-rule="evenodd" width="3" height="3"/>
		<rect x="212" y="-310" fill-rule="evenodd" clip-rule="evenodd" width="3" height="3"/>
		<rect x="202" y="-299" fill-rule="evenodd" clip-rule="evenodd" width="17" height="2"/>
		<rect x="228" y="-321" fill-rule="evenodd" clip-rule="evenodd" width="2" height="13"/>
		<path fill-rule="evenodd" clip-rule="evenodd" d="M202-318h22v10h2v-15h-3c0,1.7-1.3,3-3,3s-3-1.3-3-3h-7c0,1.7-1.3,3-3,3
			s-3-1.3-3-3h-4v22h19v-2h-17V-318z"/>
		<path fill-rule="evenodd" clip-rule="evenodd" d="M225-307c-2.8,0-5,2.2-5,5c0,2.8,2.2,5,5,5s5-2.2,5-5
			C230-304.8,227.8-307,225-307z M228-301h-2v2h-2v-2h-2v-2h2v-2h2v2h2V-301z"/>
		<rect x="217" y="-310" fill-rule="evenodd" clip-rule="evenodd" width="3" height="3"/>
	</g>
	<g>
		
			<rect x="-28.9" y="-253.8" transform="matrix(-0.5 -0.866 0.866 -0.5 177.5293 -404.1648)" fill-rule="evenodd" clip-rule="evenodd" width="2" height="1"/>
		
			<rect x="-30.9" y="-257.3" transform="matrix(-0.5 -0.866 0.866 -0.5 177.5386 -411.0804)" fill-rule="evenodd" clip-rule="evenodd" width="2" height="1"/>
		
			<rect x="-32.9" y="-260.8" transform="matrix(-0.5 -0.866 0.866 -0.5 177.5291 -418.0214)" fill-rule="evenodd" clip-rule="evenodd" width="2" height="1"/>
		
			<rect x="-34.4" y="-264.7" transform="matrix(-0.866 0.5 -0.5 -0.866 -195.1213 -475.1583)" fill-rule="evenodd" clip-rule="evenodd" width="1" height="2"/>
		
			<rect x="-22.2" y="-258.3" transform="matrix(0.7072 -0.707 0.707 0.7072 175.5602 -90.6457)" fill-rule="evenodd" clip-rule="evenodd" width="1" height="2"/>
		
			<rect x="-25.5" y="-260.6" transform="matrix(-0.7071 -0.7071 0.7071 -0.7071 142.1317 -461.3436)" fill-rule="evenodd" clip-rule="evenodd" width="2" height="1"/>
		
			<rect x="-28.3" y="-263.4" transform="matrix(-0.7072 -0.7071 0.7071 -0.7072 139.281 -468.1899)" fill-rule="evenodd" clip-rule="evenodd" width="2" height="1"/>
		
			<rect x="-31.1" y="-266.3" transform="matrix(0.7072 0.707 -0.707 0.7072 -196.7365 -56.5117)" fill-rule="evenodd" clip-rule="evenodd" width="2" height="1"/>
		
			<rect x="-34.3" y="-251.2" transform="matrix(-0.2588 -0.9659 0.9659 -0.2588 200.2054 -347.8339)" fill-rule="evenodd" clip-rule="evenodd" width="2" height="1"/>
		
			<rect x="-34.9" y="-255.6" transform="matrix(0.9659 -0.2589 0.2589 0.9659 64.7456 -17.5842)" fill-rule="evenodd" clip-rule="evenodd" width="1" height="2"/>
		
			<rect x="-35.9" y="-259.5" transform="matrix(0.9659 -0.2589 0.2589 0.9659 65.7068 -17.9824)" fill-rule="evenodd" clip-rule="evenodd" width="1" height="2"/>
		
			<rect x="-37" y="-263.3" transform="matrix(0.9659 -0.2589 0.2589 0.9659 66.6757 -18.3838)" fill-rule="evenodd" clip-rule="evenodd" width="1" height="2"/>
		<rect x="-40.4" y="-250.5" fill-rule="evenodd" clip-rule="evenodd" width="1" height="2"/>
		<rect x="-40.4" y="-254.5" fill-rule="evenodd" clip-rule="evenodd" width="1" height="2"/>
		<rect x="-40.4" y="-258.5" fill-rule="evenodd" clip-rule="evenodd" width="1" height="2"/>
		<rect x="-40.4" y="-262.5" fill-rule="evenodd" clip-rule="evenodd" width="1" height="2"/>
		<path fill-rule="evenodd" clip-rule="evenodd" d="M-33-272.3l-3.1,1.8c-1.1-2.4-3.5-4-6.3-4c-3.9,0-7,3.1-7,7v20h4v-20
			c0-1.7,1.3-3,3-3c1.3,0,2.4,0.8,2.8,2l-3.8,2.2l1.5,2.6l10.4-6L-33-272.3z"/>
	</g>
	<path fill-rule="evenodd" clip-rule="evenodd" d="M29.7-250.7l-9.3-9.6l9.4-9.8c0.1,0.2,0.1,0.5,0.1,0.7v17.6
		C30-251.3,29.9-251,29.7-250.7z M1.7-271.5l0.2,0h26.2l0.3,0.1L15-257.6L1.7-271.5z M0.2-250.8c-0.1-0.3-0.2-0.6-0.2-0.9v-17.6
		c0-0.3,0.1-0.6,0.1-0.9l9.4,9.9L0.2-250.8z M15-254.7l4-4.1l9,9.3H1.9l-0.1,0l9.2-9.3L15-254.7z"/>
	<path d="M50-276v30h30v-30H50z M70.3-255.5c0,0-6,6.5-7.9,7.3c0,0-7.2-5.9-9.4-9.5c-2.2-3.6-2.9-6.9,1.3-9.1c4.3-2.3,7.8,2.1,8.1,3
		c0,0,3.2-5.8,8.9-2.5C77.1-262.9,70.3-255.5,70.3-255.5z M78-270h-3v3h-2v-3h-3v-2h3v-3h2v3h3V-270z"/>
	<path d="M59-266v11l3.5-2.6l-0.4,5.6l-1.3-0.4l1.6,3.2l2.3-2.7l-1.1,0L65-261l-4,2v-5L59-266z"/>
	<path fill-rule="evenodd" clip-rule="evenodd" d="M112-272h1v23h-1V-272z"/>
	<path fill-rule="evenodd" clip-rule="evenodd" d="M128.6-259.1l-2.8-4.3l-1.1,2.2l3.9,6.4H125l-0.6,5.7h-2.8l-0.6-5.7h-3.6l3.9-6.4
		l-1.1-2.2l-2.8,4.3H116l2.3-5.9c0.3-0.8,1.1-1.3,1.9-1.3h1.4l1.4,2.9l1.4-2.9h1.4c0.8,0,1.6,0.5,1.9,1.3l2.3,5.9H128.6z M123-267.7
		c-1.2,0-2.1-1-2.1-2.2c0-1.2,0.9-2.2,2.1-2.2c1.2,0,2.1,1,2.1,2.2C125.1-268.7,124.2-267.7,123-267.7z"/>
	<path fill-rule="evenodd" clip-rule="evenodd" d="M106.1-257.7l-0.8,8.6h-2.7l-0.8-8.6H100v-7.6c0.6-0.3,1.3-0.6,2.1-0.8l1.9,4.1
		l1.9-4.1c0.8,0.2,1.5,0.4,2.1,0.8v7.6H106.1z M104-267.7c-1.1,0-2-1-2-2.2c0-1.2,0.9-2.2,2-2.2c1.1,0,2,1,2,2.2
		C106-268.7,105.1-267.7,104-267.7z"/>
	<path fill-rule="evenodd" clip-rule="evenodd" d="M227.5-256.2l-10.6-5.9c0-0.6,0.4-1.2,0.9-1.5c1.7-1,2.8-2.8,2.8-4.8
		c0-3.1-2.5-5.6-5.6-5.6s-5.6,2.5-5.6,5.6c0,1,0.8,1.9,1.9,1.9c1,0,1.9-0.8,1.9-1.9c0-1,0.8-1.9,1.9-1.9s1.9,0.8,1.9,1.9
		c0,0.7-0.4,1.3-0.9,1.6c-1.7,1-2.8,2.8-2.8,4.7l-10.7,6c-1.4,0.9-2.4,2.8-2.4,4.4c0,2,1.7,3.7,3.7,3.7h22.5c2.1,0,3.7-1.7,3.7-3.7
		C230-253.4,229-255.3,227.5-256.2z M203.8-251.7c0-0.4,0.4-1.1,0.6-1.2l10.6-5.9l10.5,5.9c0.3,0.2,0.7,0.9,0.7,1.3H203.8z"/>
	<path fill-rule="evenodd" clip-rule="evenodd" d="M50-202.8h30v1H50V-202.8z"/>
	<path fill-rule="evenodd" clip-rule="evenodd" d="M63-201.8h4c1.1,0,2-0.9,2-2h-8C61-202.7,61.9-201.8,63-201.8z"/>
	<path fill-rule="evenodd" clip-rule="evenodd" d="M73-201.8h4c1.1,0,2-0.9,2-2h-8C71-202.7,71.9-201.8,73-201.8z"/>
	<path fill-rule="evenodd" clip-rule="evenodd" d="M67-212.8h-4c-1.1,0-2,0.9-2,2v6h8v-6C69-211.9,68.1-212.8,67-212.8z M66.5-211
		h-3.1c-0.3,0-0.5-0.2-0.5-0.5c0-0.3,0.2-0.5,0.5-0.5h3.1c0.3,0,0.5,0.2,0.5,0.5C67-211.2,66.8-211,66.5-211z"/>
	<path fill-rule="evenodd" clip-rule="evenodd" d="M77-212.8h-4c-1.1,0-2,0.9-2,2v6h8v-6C79-211.9,78.1-212.8,77-212.8z M76.5-211
		h-3.1c-0.3,0-0.5-0.2-0.5-0.5c0-0.3,0.2-0.5,0.5-0.5h3.1c0.3,0,0.5,0.2,0.5,0.5C77-211.2,76.8-211,76.5-211z"/>
	<path fill-rule="evenodd" clip-rule="evenodd" d="M66-210.8h8v1h-8V-210.8z"/>
	<path fill-rule="evenodd" clip-rule="evenodd" d="M50-202.8h1v3h-1V-202.8z"/>
	<path fill-rule="evenodd" clip-rule="evenodd" d="M79-202.8h1v3h-1V-202.8z"/>
	<path fill-rule="evenodd" clip-rule="evenodd" d="M53-201.8h4c1.1,0,2-0.9,2-2h-8C51-202.7,51.9-201.8,53-201.8z"/>
	<path fill-rule="evenodd" clip-rule="evenodd" d="M57-212.8h-4c-1.1,0-2,0.9-2,2v6h8v-6C59-211.9,58.1-212.8,57-212.8z M56.5-211
		h-3.1c-0.3,0-0.5-0.2-0.5-0.5c0-0.3,0.2-0.5,0.5-0.5h3.1c0.3,0,0.5,0.2,0.5,0.5C57-211.2,56.8-211,56.5-211z"/>
	<path fill-rule="evenodd" clip-rule="evenodd" d="M56-210.8h8v1h-8V-210.8z"/>
	<path fill="none" d="M61.5-217.9h-3.1c-0.3,0-0.5,0.2-0.5,0.5c0,0.3,0.2,0.5,0.5,0.5h3.1c0.3,0,0.5-0.2,0.5-0.5
		C62-217.7,61.8-217.9,61.5-217.9z"/>
	<path fill="none" d="M72-217.4c0-0.3-0.2-0.5-0.5-0.5h-3.1c-0.3,0-0.5,0.2-0.5,0.5c0,0.3,0.2,0.5,0.5,0.5h3.1
		C71.8-217,72-217.2,72-217.4z"/>
	<path fill="none" d="M62-217.4c0-0.3-0.2-0.5-0.5-0.5h-3.1c-0.3,0-0.5,0.2-0.5,0.5c0,0.3,0.2,0.5,0.5,0.5h3.1
		C61.8-217,62-217.2,62-217.4z"/>
	<path d="M73-213.3h1v-3.5c0-1.1-0.9-2-2-2h-4c-1.1,0-2,0.9-2,2v3.5h1c1.4,0,2.5,1.1,2.5,2.5v1h1v-1C70.5-212.2,71.6-213.3,73-213.3
		z M68.5-217c-0.3,0-0.5-0.2-0.5-0.5c0-0.3,0.2-0.5,0.5-0.5h3.1c0.3,0,0.5,0.2,0.5,0.5c0,0.3-0.2,0.5-0.5,0.5H68.5z"/>
	<path d="M63-213.3h1v-3.5c0-1.1-0.9-2-2-2h-4c-1.1,0-2,0.9-2,2v3.5h1c1.4,0,2.5,1.1,2.5,2.5v1h1v-1C60.5-212.2,61.6-213.3,63-213.3
		z M58.5-217c-0.3,0-0.5-0.2-0.5-0.5c0-0.3,0.2-0.5,0.5-0.5h3.1c0.3,0,0.5,0.2,0.5,0.5c0,0.3-0.2,0.5-0.5,0.5H58.5z"/>
	<g>
		<path d="M-29.9-202.1c-0.5-0.3-1.2-0.2-1.5,0.4c-1.4,2.2-3.7,3.5-6.3,3.5c-4.1,0-7.4-3.4-7.4-7.5c0-2.4,1.2-4.7,3.1-6.1
			c0.5-0.4,0.6-1,0.2-1.5c-0.4-0.5-1-0.6-1.5-0.3c-2.5,1.8-4,4.8-4,7.9c0,5.3,4.3,9.7,9.6,9.7c3.3,0,6.4-1.7,8.1-4.6
			C-29.2-201.1-29.3-201.8-29.9-202.1z"/>
		<path d="M-22.3-201.5c-0.2-0.6-0.8-0.9-1.4-0.7l-1.3,0.5c0,0-2.4-6.8-2.5-6.9c0,0-0.1-0.1-0.1-0.2c-0.3-0.5-0.9-0.9-1.5-0.9h-5.7
			l-0.1-2.1h4.7c0.6,0,1.1-0.5,1.1-1.1c0-0.6-0.5-1.1-1.1-1.1H-35l-0.2-3.1c0,0,0-0.1,0-0.1c-0.1-1.5-1.4-2.7-2.9-2.6
			c-1.5,0.1-2.7,1.4-2.6,2.9v0l0,0l0.4,8.1l0,0c0,0,0,0,0,0c0.1,1.5,1.3,2.6,2.7,2.6c0,0,7.4,0,7.4,0l2.2,6.1
			c0.2,0.7,0.9,1.1,1.5,1.1c0.1,0,0.2,0,0.3,0c0.1,0,0.1,0,0.2-0.1l2.9-1.1C-22.4-200.2-22.1-200.9-22.3-201.5z"/>
		
			<ellipse transform="matrix(5.248704e-02 0.9986 -0.9986 5.248704e-02 -259.2905 -173.7737)" cx="-38.1" cy="-223.5" rx="2.5" ry="2.5"/>
	</g>
	<g>
		<path fill-rule="evenodd" clip-rule="evenodd" d="M27-215.8c0-0.1,0-0.1,0-0.2c0-2-1.5-3.6-3.4-3.7c-0.7-0.8-1.7-1.3-2.8-1.3
			c-1.3,0-2.5,0.7-3.2,1.7c-0.5-0.3-1.2-0.5-1.8-0.5c-2.1,0-3.7,1.7-3.7,3.7c0,0.1,0,0.1,0,0.2c-1.5,0.5-2.5,1.9-2.5,3.5
			c0,0.1,0,0.2,0,0.2h-6h-1h-2v2h2v1h-2v1h2v1v1h1h7h1v-1v-1h2v-0.5c0.6,0,1.1-0.2,1.6-0.5c0.6,0.3,1.2,0.5,1.9,0.5
			c0.4,0,0.9-0.1,1.2-0.2v6.5H17v1.2h5v-1.2h-1.2v-6.2c0.2,0,0.4,0,0.6-0.1c0.2,0,0.4,0.1,0.6,0.1c0.7,0,1.3-0.2,1.9-0.5
			c0.6,0.3,1.2,0.5,1.9,0.5c2.1,0,3.7-1.7,3.7-3.7C29.5-213.9,28.4-215.3,27-215.8z M3.5-210h6.8c0.1,0.1,0.1,0.2,0.2,0.3v0.7h-7
			V-210z M10.5-207h-7v-1h7V-207z"/>
		<polygon fill-rule="evenodd" clip-rule="evenodd" points="10.5,-205 3.5,-205 1.5,-205 0.5,-205 0.5,-204 1.5,-204 1.5,-201 
			3.5,-201 3.5,-204 4.5,-204 4.5,-202 5.5,-202 5.5,-204 8.5,-204 8.5,-202 9.5,-202 9.5,-204 10.5,-204 10.5,-201 12.5,-201 
			12.5,-204 13.5,-204 13.5,-205 12.5,-205 		"/>
	</g>
	<g>
		<path fill-rule="evenodd" clip-rule="evenodd" d="M165.8-265.1c-0.1-0.2-0.2-0.4-0.4-0.5c-0.2-0.1-0.5-0.2-0.8-0.2h-1v4.4h0.9
			c0.4,0,0.7-0.1,0.9-0.2s0.4-0.3,0.5-0.4c0.1-0.2,0.2-0.4,0.2-0.7c0-0.3,0-0.6,0-0.9c0-0.3,0-0.6,0-0.9
			C166-264.7,165.9-264.9,165.8-265.1z"/>
		<path fill-rule="evenodd" clip-rule="evenodd" d="M171.4-273.1h-13.3c-1.1,0-2,0.9-2,2v20c0,1.1,0.9,2,2,2h13.3c1.1,0,2-0.9,2-2
			v-20C173.4-272.2,172.5-273.1,171.4-273.1z M167.6-262.1c-0.1,0.4-0.2,0.8-0.4,1.1c-0.3,0.4-0.6,0.7-1,1s-1,0.4-1.7,0.4h-0.9v5
			h-1.8v-12.8h2.8c0.5,0,0.9,0.1,1.3,0.2c0.4,0.1,0.7,0.4,1,0.7c0.3,0.3,0.5,0.7,0.6,1.2c0.1,0.4,0.2,1.1,0.2,1.8
			C167.7-263,167.7-262.5,167.6-262.1z"/>
	</g>
	<path fill-rule="evenodd" clip-rule="evenodd" d="M129.8-149.3L116-173.8c-0.5-1-1.4-1-2,0l-13.8,24.6c-0.5,1-0.1,1.7,1,1.7h27.6
		C129.9-147.5,130.3-148.3,129.8-149.3z M117-152.5c0,0.6-0.5,1-1,1h-2c-0.5,0-1-0.4-1-1v-2c0-0.6,0.5-1,1-1h2c0.5,0,1,0.5,1,1
		V-152.5z M117-158.5c0,0.6-0.4,1-1,1h-2c-0.5,0-1-0.4-1-1v-6c0-0.6,0.5-1,1-1h2c0.5,0,1,0.5,1,1L117-158.5z"/>
	<g>
		<path d="M169.6-168c-1.4-0.4-3-0.7-4.6-0.7c-7.1,0-13,5.2-14.8,6.9c-0.3,0.3-0.3,0.8,0,1.1c1,1,3.5,3.2,6.9,4.9L169.6-168z"/>
		<path d="M179.8-161.8c-1.1-1-3.7-3.4-7.1-5l2.8-2.7H173l-17.4,17h2.4l2.2-2.1c1.5,0.5,3.2,0.8,4.9,0.8c7.1,0,13-5.2,14.8-6.9
			C180.1-161,180.1-161.5,179.8-161.8z M170.1-160.2c-0.4,1.9-2,3.5-4,3.9c-1.4,0.3-2.6,0-3.7-0.6l2.2-2.2c0.1,0,0.2,0,0.4,0
			c1.3,0,2.3-1,2.3-2.3c0-0.1,0-0.2,0-0.4l2.2-2.2C170.1-162.8,170.4-161.5,170.1-160.2z"/>
	</g>
	<g>
		<polygon points="215.9,-173.5 214,-173.5 214,-167.5 215.9,-167.5 		"/>
		<polygon points="224,-158.2 230,-159.4 229.5,-161.7 223.6,-160.5 		"/>
		<polygon points="226.3,-168.3 224.6,-169.9 220.4,-165.7 222,-164 		"/>
		<polygon points="206.4,-160.5 200.5,-161.7 200,-159.4 206,-158.2 		"/>
		<path d="M223-152.5l-2.3-10.9c-0.2-1.2-1.3-2.1-2.7-2.1l-5,0c-1.4,0-2.7,0.9-3,2.1l-2,10.9c0,0.1,0,0,0,1h-3l0.1,3H226v-3h-3
			C223-152.5,223-152.4,223-152.5z M215.1-152.5l-0.1-11h2c1.1,0,1.8,0.1,2,1l1,5c0,0.1,1,5,1,5H215.1z"/>
		<polygon points="209.6,-165.7 205.4,-169.9 203.7,-168.3 208,-164 		"/>
	</g>
	<path fill-rule="evenodd" clip-rule="evenodd" d="M116.8-196h-4v-11h-2v-9c0-2.1,0.9-3,3-3h2c2.1,0,3,0.9,3,3v9h-2V-196z
		 M114.8-220.4c-1.6,0-2.8-1.3-2.8-2.8c0-1.6,1.3-2.8,2.8-2.8s2.8,1.3,2.8,2.8C117.6-221.7,116.4-220.4,114.8-220.4z"/>
	<path fill-rule="evenodd" clip-rule="evenodd" d="M105.8-196h-4v-11h-2v-9c0-2.1,0.9-3,3-3h2c2.1,0,3,0.9,3,3v9h-2V-196z
		 M103.8-220.4c-1.6,0-2.8-1.3-2.8-2.8c0-1.6,1.3-2.8,2.8-2.8s2.8,1.3,2.8,2.8C106.6-221.7,105.4-220.4,103.8-220.4z"/>
	<path fill-rule="evenodd" clip-rule="evenodd" d="M127.8-196h-4v-11h-2v-9c0-2.1,0.9-3,3-3h2c2.1,0,3,0.9,3,3v9h-2V-196z
		 M125.8-220.4c-1.6,0-2.8-1.3-2.8-2.8c0-1.6,1.3-2.8,2.8-2.8s2.8,1.3,2.8,2.8C128.6-221.7,127.4-220.4,125.8-220.4z"/>
	<path fill-rule="evenodd" clip-rule="evenodd" d="M164.6-223c-5,0-9,4-9,9c0,6,9,15,9,15s9-9,9-15C173.6-219,169.6-223,164.6-223z
		 M164.6-209.9c-2.6,0-4.7-2.1-4.7-4.7c0-2.6,2.1-4.7,4.7-4.7c2.6,0,4.7,2.1,4.7,4.7C169.3-212.1,167.2-209.9,164.6-209.9z"/>
	<path fill-rule="evenodd" clip-rule="evenodd" d="M219.1-215.9c1,0,1.8,0.8,1.8,1.9c0,1-0.8,1.9-1.8,1.9h-6.7
		c-0.1,0.4-0.1,0.8-0.1,1.1c0,0.4,0,0.8,0.1,1.1h6.7c1,0,1.8,0.8,1.8,1.9c0,1-0.8,1.9-1.8,1.9h-5.6c1.7,3.2,5,5.3,8.5,5.3h0.4
		c0.8,0,1.4,0.7,1.4,1.7c0,1-0.6,1.9-1.3,2l0,0H222c-5.5,0-10.5-3.6-12.4-9.1h-2c-1,0-1.8-0.8-1.8-1.9c0-1,0.8-1.9,1.8-1.9h1.2v0
		c-0.1-0.4-0.1-0.7-0.1-1.1c0-0.4,0-0.7,0.1-1.1v0h-1.2c-1,0-1.8-0.8-1.8-1.9c0-1,0.8-1.9,1.8-1.9h2c2-5.4,6.9-9.1,12.4-9.1h0.4
		c0.8,0.1,1.4,1,1.4,2c0,1-0.5,1.7-1.2,1.7l-0.6,0c-3.5,0-6.8,2.1-8.5,5.3H219.1z"/>
	<path fill-rule="evenodd" clip-rule="evenodd" d="M-26.6-174.4l-0.3,0.2c-1.1,0.5-2.8,6.3-2.8,6.7l0,0.4c0.2,0.8,0.9,1.7,2.5,3.5
		c-0.9,2.1-3.4,4.9-4.9,6.2c-1.6,1.4-4.3,3.2-6.3,3.9c-1.8-2.1-2.6-2.9-3.5-3c-0.5,0-6.4,1-6.9,2l-0.2,0.3c-0.4,0.7-1.1,1.7-0.8,2.8
		c0.1,0.3,0.2,0.5,0.3,0.8c0.5,0.8,1.7,2.6,3.4,3.4c1,0.5,10.4,0.8,18.3-6.3c7.8-7,8.2-15.6,7.9-16.9l0,0l0-0.1
		c-0.6-1.8-2.3-3.2-3-3.8C-24.3-175.5-25.8-174.8-26.6-174.4z"/>
	<path fill-rule="evenodd" clip-rule="evenodd" d="M2.8-173v18h18v-18H2.8z M18.8-157h-14v-14h14V-157z"/>
	<path fill-rule="evenodd" clip-rule="evenodd" d="M24.8-159v-10h-2l3-4l3,4h-2v10h2l-3,4l-3-4"/>
	<path fill-rule="evenodd" clip-rule="evenodd" d="M16.8-149h-10v2l-4-3l4-3v2h10v-2l4,3l-4,3"/>
	<g opacity="0.4">
		<path fill-rule="evenodd" clip-rule="evenodd" d="M58.5-156.1l4-4c-0.1-0.2-0.1-0.5-0.1-0.7c0-1,0.6-1.9,1.5-2.3v-9.9
			c0-0.5,0.5-1,1-1c-7.2,0-13,5.8-13,13c0,3.6,1.5,6.8,3.8,9.2l2.8-2.8C58.1-155.1,58.1-155.7,58.5-156.1z"/>
	</g>
	<g>
		<g>
			<path fill-rule="evenodd" clip-rule="evenodd" d="M64.8-176c-1,0-2,0.1-3,0.3c-1,0.2-1.9,0.5-2.8,0.9c-1.3,0.6-2.6,1.3-3.7,2.2
				s-2.1,2-2.9,3.2c-1.6,2.4-2.6,5.3-2.6,8.4c0,1.6,0.2,3.1,0.7,4.5c0.7,2.3,2,4.4,3.7,6.1c0.3,0.3,0.7,0.7,1.1,1
				c0.7,0.6,1.5,1.2,2.4,1.6c0.4,0.2,0.9,0.4,1.3,0.6c0.9,0.4,1.8,0.7,2.8,0.9c1,0.2,2,0.3,3,0.3c8.3,0,15-6.7,15-15
				C79.8-169.3,73.1-176,64.8-176z M64.8-158.3c-0.3,0-0.6-0.1-0.9-0.2l-3.9,3.9c-0.4,0.4-1.1,0.4-1.5,0c0,0,0,0,0,0l-2.8,2.8
				c-2.4-2.4-3.8-5.6-3.8-9.2c0-7.2,5.8-13,13-13c0.5,0,1,0.5,1,1v9.9c0.9,0.4,1.5,1.3,1.5,2.3C67.3-159.4,66.2-158.3,64.8-158.3z"
				/>
		</g>
	</g>
	<path fill-rule="evenodd" clip-rule="evenodd" d="M-34-99.1h-2l-14-2V-121h2v18.2l12,1.7h2l12-1.7V-121h2v19.9L-34-99.1z
		 M-34-120.9c3.6-2.1,10-2.1,10-2.1v17.9c0,0-6.4,0-10,2.1V-120.9z M-46-123c0,0,6.4,0,10,2.1v17.9c-3.6-2.1-10-2.1-10-2.1V-123z"/>
	<path fill-rule="evenodd" clip-rule="evenodd" d="M29.5-117.1l-0.2,0.1l0,0l-2.7,2.7l-8.4-8.4l2.7-2.7l0,0l0.1-0.2
		c0.7-0.7,2-0.7,2.7,0.1l5.6,5.6C30.2-119,30.2-117.8,29.5-117.1z M7-105.9l12.5-12.6l2.8,2.8L9.7-103.1l1.4,1.4l12.5-12.6l1.4,1.4
		l-13.9,14l-8.4-8.4l13.9-14l1.4,1.4L5.6-107.3L7-105.9z M9.8-97.4l-4.9,0.7L0-96l0.7-4.9l0.7-4.9l4.2,4.2L9.8-97.4z"/>
	<path fill-rule="evenodd" clip-rule="evenodd" d="M76-97l-26,0v-28l30,0v24L76-97z M59-99h12v-7H59V-99z M74-123H56v12h18V-123z
		 M61-104l4,0v3h-4V-104z"/>
	<path fill-rule="evenodd" clip-rule="evenodd" d="M100-114l3-2l8,14l16-23l3,2l-19,27L100-114"/>
	<path fill-rule="evenodd" clip-rule="evenodd" d="M173.6-118.2l-1.8-1.8l-7.2,7.2l-7.2-7.2l-1.8,1.8l7.2,7.2l-7.2,7.2l1.8,1.8
		l7.2-7.2l7.2,7.2l1.8-1.8l-7.2-7.2L173.6-118.2z"/>
	<path fill-rule="evenodd" clip-rule="evenodd" d="M214.8-119.5c-4.7,0-8.5,3.8-8.5,8.5s3.8,8.5,8.5,8.5c4.7,0,8.5-3.8,8.5-8.5
		S219.5-119.5,214.8-119.5z M219.8-108.3l-2.2,2.2l-2.8-2.8l-2.8,2.8l-2.2-2.2l2.8-2.8l-2.8-2.8l2.2-2.2l2.8,2.8l2.8-2.8l2.2,2.2
		L217-111L219.8-108.3z"/>
	<path fill-rule="evenodd" clip-rule="evenodd" d="M-27.7-68.7c-0.9,0-1.6-0.7-1.6-1.6c0-0.9,0.7-1.6,1.6-1.6c0.9,0,1.6,0.7,1.6,1.6
		C-26.2-69.4-26.9-68.7-27.7-68.7z M-29.9-74c-0.4,0-0.8-0.2-1.1-0.5c-0.6-0.6-0.6-1.6,0-2.2c0.3-0.3,0.7-0.5,1.1-0.5
		s0.8,0.2,1.1,0.5c0.6,0.6,0.6,1.6,0,2.2C-29.1-74.1-29.5-74-29.9-74z M-35.2-75.2c-1.4,0-2.5-1.1-2.5-2.5c0-1.4,1.1-2.5,2.5-2.5
		c1.4,0,2.5,1.1,2.5,2.5C-32.7-76.3-33.8-75.2-35.2-75.2z M-40.4-63.4c-0.4,0-0.8-0.2-1.1-0.5c-0.6-0.6-0.6-1.6,0-2.2
		c0.3-0.3,0.7-0.5,1.1-0.5s0.8,0.2,1.1,0.5c0.6,0.6,0.6,1.6,0,2.2C-39.6-63.5-40-63.4-40.4-63.4z M-40.4-74c-0.4,0-0.8-0.2-1.1-0.5
		c-0.6-0.6-0.6-1.6,0-2.2c0.3-0.3,0.7-0.5,1.1-0.5s0.8,0.2,1.1,0.5c0.6,0.6,0.6,1.6,0,2.2C-39.6-74.1-40-74-40.4-74z M-41.1-70.2
		c0,0.9-0.7,1.6-1.6,1.6c-0.9,0-1.6-0.7-1.6-1.6s0.7-1.6,1.6-1.6C-41.8-71.8-41.1-71.1-41.1-70.2z M-35.2-64.3
		c0.9,0,1.6,0.7,1.6,1.6c0,0.9-0.7,1.6-1.6,1.6c-0.9,0-1.6-0.7-1.6-1.6C-36.7-63.6-36-64.3-35.2-64.3z M-29.9-66.5
		c0.4,0,0.8,0.2,1.1,0.5c0.6,0.6,0.6,1.6,0,2.2c-0.3,0.3-0.7,0.5-1.1,0.5c-0.4,0-0.8-0.2-1.1-0.5c-0.6-0.6-0.6-1.6,0-2.2
		C-30.7-66.3-30.3-66.5-29.9-66.5z"/>
	<g>
		<path fill="#010101" d="M73.9-82.7c-2.4-1.8-5.4-2.9-8.7-2.9v14.8H68c0-2.3,0.6-4.6,1.6-6.6C70.6-79.5,72.1-81.3,73.9-82.7z"/>
		<path fill="#010101" d="M74.2-82.4c-1.8,1.4-3.2,3.1-4.2,5.1c-1,2-1.5,4.2-1.6,6.4H80c-0.1-4.8-2.4-9-5.9-11.7L74.2-82.4z"/>
		<path fill="#010101" d="M56.1-58.6c2.4,1.8,5.4,2.9,8.7,2.9v-14.8H62c0,2.3-0.6,4.6-1.6,6.6C59.3-61.8,57.9-60,56.1-58.6z"/>
		<path fill="#010101" d="M56.1-82.7c1.8,1.4,3.3,3.2,4.3,5.2c1,2.1,1.6,4.3,1.6,6.6h2.8v-14.8C61.5-85.6,58.5-84.5,56.1-82.7z"/>
		<path fill="#010101" d="M68.4-70.5c0,2.3,0.6,4.4,1.6,6.4c1,2,2.5,3.7,4.2,5.1l-0.1,0.2c3.5-2.7,5.8-6.9,5.9-11.7H68.4z"/>
		<path fill="#010101" d="M55.7-58.9C57.5-60.3,59-62,60-64c1-2,1.5-4.2,1.6-6.4H50c0.1,4.8,2.4,9,5.9,11.7L55.7-58.9z"/>
		<path fill="#010101" d="M61.5-70.9c0-2.3-0.6-4.4-1.6-6.4c-1-2-2.5-3.7-4.2-5.1l0.1-0.2c-3.5,2.7-5.8,6.9-5.9,11.7H61.5z"/>
		<path fill="#010101" d="M73.9-58.6c-1.8-1.4-3.3-3.2-4.3-5.2c-1-2.1-1.6-4.3-1.6-6.6h-2.8v14.8C68.5-55.7,71.5-56.8,73.9-58.6z"/>
	</g>
	<g>
		<circle fill-rule="evenodd" clip-rule="evenodd" cx="165" cy="-81.6" r="2.3"/>
		<rect x="150.2" y="-73.2" fill-rule="evenodd" clip-rule="evenodd" width="1.8" height="7.3"/>
		<path fill-rule="evenodd" clip-rule="evenodd" d="M174.7-70.3H171l-0.1-6.3c0-1.2-1-2.2-2.2-2.2h-7.6c-1.2,0-2.2,1-2.2,2.2l0,6.3
			h-3.7v-4.1h-2.5v9.6h2.5v-4.1h3.7h2.1h0.6c-0.2,3.6-0.6,12.2-0.6,12.2h2.9l0.6-11.2c0.1,0,0.5,0,0.6,0l0.9,11.2h2.9
			c0,0-0.6-8.6-0.8-12.2h0.6h2.1h3.8v4.1h2.5v-9.6h-2.5V-70.3z M161.2-70.3L161.2-70.3v-4.7c0-0.2,0.1-0.3,0.3-0.3
			c0.2,0,0.3,0.1,0.3,0.3v3.9c0,0,0,0.3,0,0.8H161.2z M168.8-70.3h-0.6c0-0.5,0-0.8,0-0.8v-3.9c0-0.2,0.1-0.3,0.3-0.3
			c0.2,0,0.3,0.1,0.3,0.3V-70.3z"/>
		<rect x="178" y="-73.2" fill-rule="evenodd" clip-rule="evenodd" width="1.8" height="7.3"/>
	</g>
	<g>
		<path fill="#010101" d="M217.9-63.4c1.5-0.1,2.9-0.2,2.9-0.2l-2.2-1.3l-2.7-1.5l-4.1-2.3l-2.7-1.5l-2.2-1.3c0,0,0.7,1.2,1.4,2.5
			c0.8,1.5,1.5,3.1,1.4,3.4c-0.2,0.7-3.2,5.3-3.9,6.3c-0.5,0.8,0.9,2.2,1.9,2.8c1,0.5,2.9,1,3.3,0.1c0.5-1.3,2.8-6.1,3.3-6.6
			C214.5-63.1,216.3-63.3,217.9-63.4z"/>
		<g>
			<path fill="#010101" d="M226.7-68.8c3.3-5.8,1.8-12.8-3.3-15.7s-11.8-0.4-15.1,5.4c-1.2,2.2-1.8,4.5-1.7,6.7l15.3,8.6
				C223.7-64.9,225.4-66.6,226.7-68.8z"/>
		</g>
	</g>
	<circle fill="#010101" cx="205.6" cy="-82.6" r="2.6"/>
	<g>
		<path d="M-22.5-31.6v-3.5l-5.5-4.5l-1.3,1.1c-1-0.9-2.3-1.5-3.7-1.5c-2,0-3.7,1-4.7,2.6c-0.8-0.5-1.7-0.7-2.7-0.7
			c-3.1,0-5.6,2.5-5.6,5.6c0,0.1,0,0.2,0,0.3c-1.9,0.7-3.3,2.3-3.7,4.3c0,0,0,0.1,0,0.1c0,0.3-0.1,0.5-0.1,0.8c0,0,0,0,0,0
			c0,0,0,0,0,0c0,0,0,0,0,0c0,3.1,2.5,5.5,5.6,5.5c0.1,0,0.2,0,0.4,0l0,0c0.3,0,0.5-0.1,0.8-0.1v1.3c-1.3,0.2-2.3,1.4-2.3,2.8
			c0,1.6,1.3,2.8,2.8,2.8c1.6,0,2.8-1.3,2.8-2.8c0-1.4-1-2.5-2.3-2.8v-1.6c0.2-0.1,0.4-0.2,0.6-0.3c0.8,0.5,1.8,0.8,2.8,0.8
			c0.7,0,1.3-0.1,1.9-0.3v9.7h-1.9v1.9h7.5v-1.9H-33v-9.3c0.3,0,0.6,0,0.9-0.1c0.3,0.1,0.6,0.1,0.9,0.1c1,0,2-0.3,2.8-0.8
			c0.8,0.5,1.8,0.8,2.8,0.8c3.1,0,5.6-2.5,5.6-5.6C-20-28.9-21-30.6-22.5-31.6z M-40.8-17.4c0,1-0.8,1.8-1.8,1.8
			c-1,0-1.8-0.8-1.8-1.8s0.8-1.8,1.8-1.8C-41.6-19.2-40.8-18.4-40.8-17.4z M-23.5-27.2H-28v-4.1h-3v4.1h-1.5v-7.5l4.5-3.7l4.5,3.7
			V-27.2z"/>
		<circle cx="-25.7" cy="-33.9" r="1.3"/>
	</g>
	<g>
		<g>
			<polygon fill="#010101" points="27,-25.2 3.4,-21.9 0,-25 0.9,-25.9 3.8,-23.3 26.3,-26.4 29,-29.9 30,-29.2 			"/>
		</g>
		<g>
			<g>
				<circle fill="#010101" cx="7.1" cy="-20.2" r="1.5"/>
			</g>
			<g>
				<g>
					<circle fill="#010101" cx="24.5" cy="-22.6" r="1.5"/>
				</g>
			</g>
		</g>
	</g>
	<g>
		<polygon fill="#010101" points="59.7,-26.4 61.8,-20.2 68.2,-20.2 70.3,-26.4 65,-30.2 		"/>
		<path fill="#010101" d="M65-40.2c-8.3,0-15,6.7-15,15s6.7,15,15,15s15-6.7,15-15S73.3-40.2,65-40.2z M76.6-20.3
			c-0.4,0.9-0.9,1.8-1.5,2.6L75-19.1L70.3-18l-2.5,4.2l1.3,0.6c-1.3,0.4-2.7,0.7-4.1,0.7c-1.4,0-2.7-0.2-4-0.7l1.3-0.6L59.7-18
			L55-19.1l-0.1,1.4c-0.6-0.8-1.1-1.7-1.5-2.6c-0.7-1.6-1-3.2-1-4.9c0,0,0-0.1,0-0.1l0.9,0.9l3.2-3.7L56-32.9l-1.2,0.2
			c0.4-0.5,0.8-1,1.3-1.5c1.2-1.2,2.5-2.1,4-2.7c0.3-0.1,0.7-0.3,1-0.4l-0.6,1.1l4.5,1.9l4.5-1.9l-0.6-1.1c0.4,0.1,0.7,0.2,1.1,0.4
			c1.5,0.6,2.9,1.5,4,2.7c0.5,0.5,0.9,1,1.3,1.5L74-32.9L73.6-28l3.2,3.7l0.9-0.9c0,0,0,0,0,0.1C77.6-23.5,77.3-21.8,76.6-20.3z"/>
	</g>
	<g id="Layer_4">
		<polygon fill="#010101" points="113.2,-12.2 115.8,-12.2 115.8,-17.4 114.5,-18.9 113.2,-17.4 		"/>
		<g>
			<path fill="#010101" d="M110.6-35.5c-0.4-0.2-0.6-0.6-0.7-1c-0.1-0.4,0-0.8,0.2-1.2c0.2-0.4,0.6-0.6,1-0.7c0.4-0.1,0.8,0,1.2,0.2
				c0.4,0.2,0.6,0.6,0.7,1c0.1,0.4,0,0.8-0.2,1.2c-0.2,0.4-0.6,0.6-1,0.7C111.3-35.2,110.9-35.2,110.6-35.5z"/>
			<path fill="#010101" d="M103.6-29.2l4-0.6l-2.4-2.4c-0.1-0.1-0.2-0.3-0.3-0.5c-0.2-0.6,0.1-0.9,0.6-1.3l2.3-2
				c0.2-0.2,0.4-0.3,0.6-0.3c0.4-0.1,0.7,0,1,0.2c0.3,0.2,0.5,0.5,0.6,0.9c0.1,0.5-0.1,0.9-0.5,1.2l-1.9,1.6l2,2
				c0.1,0.1,0.2,0.3,0.2,0.6c0,0.3,0,0.5-0.2,0.7c-0.2,0.3-0.4,0.4-0.7,0.5l-5.1,0.9L103.6-29.2z"/>
		</g>
		<path fill="#010101" d="M127.1-22.1c-0.4,0.2-0.8,0.2-1.2,0.1c-0.4-0.1-0.7-0.4-0.9-0.8c-0.2-0.4-0.2-0.8-0.1-1.2
			c0.1-0.4,0.4-0.7,0.8-0.9c0.4-0.2,0.8-0.2,1.2-0.1c0.4,0.1,0.7,0.4,0.9,0.8c0.2,0.4,0.2,0.8,0.1,1.2
			C127.7-22.6,127.5-22.3,127.1-22.1z"/>
		<path fill="#010101" d="M100.5-25.9l21.1,8c0.1-0.2,0.2-0.3,0.4-0.4c0.2-0.1,0.5-0.2,0.7-0.1l2.7,0.7l0-2.5c0-0.5,0.2-0.9,0.7-1.2
			c0.3-0.2,0.7-0.2,1.1-0.1c0.4,0.1,0.7,0.3,0.8,0.7c0.1,0.2,0.1,0.4,0.1,0.7l0,3.1c0,0.6-0.1,1-0.7,1.3c0,0-0.1,0-0.2,0l2.8,1
			l-0.5,1.4l-4.9-1.9l-0.6-1.1l-0.2,0.1l-0.2,0.1l1.8,3.4l-0.7,0.4l-0.8,0.3l-2.3-4.4L100-24.5L100.5-25.9z"/>
	</g>
	<circle fill="none" cx="156.4" cy="-33.3" r="0.7"/>
	<circle fill="none" cx="154.6" cy="-31.5" r="0.7"/>
	<circle fill="none" cx="154" cy="-33.9" r="0.7"/>
	<g>
		<path fill="#010101" d="M169.6-25.8c0.3,0,0.7,0.1,1,0.2l0.9,0.3l-1.1-11.7l-0.3-3.1h-3.1l-0.3,3.1h-3.9l-0.3-3.1h-3.1l-0.3,3.1
			h-3.9l-0.3-3.1h-3.1l-0.3,3.1h0l-1.7,18.8c0,0,4.8,1.6,11,1.6c1.6,0,3.1-0.1,4.5-0.3l1.4-6.6C167.1-24.9,168.2-25.8,169.6-25.8z
			 M153.5-34.4c0.3-0.3,0.7-0.3,1,0c0.3,0.3,0.3,0.7,0,1c-0.3,0.3-0.7,0.3-1,0C153.2-33.7,153.2-34.1,153.5-34.4z M155.1-31
			c-0.3,0.3-0.7,0.3-1,0c-0.3-0.3-0.3-0.7,0-1c0.3-0.3,0.7-0.3,1,0C155.4-31.8,155.4-31.3,155.1-31z M156.9-32.8
			c-0.3,0.3-0.7,0.3-1,0c-0.3-0.3-0.3-0.7,0-1c0.3-0.3,0.7-0.3,1,0C157.2-33.5,157.2-33,156.9-32.8z"/>
		<circle fill="#010101" cx="173.5" cy="-12.1" r="0.7"/>
		<path fill="#010101" d="M179.4-20.3l-3.3-1.2l3.4-10.5l-2.8-1l-3.4,10.5l-3.3-1.2c-0.1,0-0.2-0.1-0.3-0.1c-0.4,0-0.7,0.3-0.8,0.7
			l-1.9,9.3c-0.1,0.3,0,0.5,0.1,0.7c1-0.8,2.3-1.6,3.9-2.2c2-0.8,4.7-0.7,6.7,0.5l2.3-4.3C180.2-19.6,179.9-20.1,179.4-20.3z"/>
		<circle fill="#010101" cx="175.6" cy="-13.4" r="0.7"/>
		<circle fill="#010101" cx="175.6" cy="-10.9" r="0.7"/>
	</g>
	<path fill="none" d="M22.4-75l-0.4,0.7c0.3,0.2,0.6,0.4,0.9,0.5l0.4-0.7C22.9-74.6,22.6-74.8,22.4-75z"/>
	<path fill="none" d="M20.1-71.3c0.3,0.1,0.6,0.3,0.9,0.5l0.4-0.7c-0.3-0.2-0.6-0.3-0.9-0.5L20.1-71.3z"/>
	<circle cx="4.1" cy="-62.3" r="4.1"/>
	<path d="M29.9-69.6c-1.7,1.4-2.8,3.6-2.8,6c0,0.7,0.1,1.4,0.3,2.1c1.6-1.8,2.6-4.2,2.6-6.8C30-68.8,30-69.2,29.9-69.6z"/>
	<path d="M19.8-78.5c-0.1,0-0.3,0-0.4,0c0.5,1.1,1.2,2.1,2.1,2.9L23-78C22-78.3,20.9-78.5,19.8-78.5z"/>
	<path d="M23.3-74.5l1.7-2.7c-0.3-0.2-0.6-0.3-0.9-0.5L22.4-75C22.6-74.8,22.9-74.6,23.3-74.5z"/>
	<path d="M26.7-73.7c0.6,0,1.2-0.1,1.7-0.2c-0.7-1.1-1.6-2-2.6-2.7l-1.6,2.5C25-73.8,25.8-73.7,26.7-73.7z"/>
	<path d="M18.6-78.5c-4.9,0.6-8.7,4.6-8.9,9.6c1.5-2.4,4.2-4,7.3-4c0.9,0,1.8,0.1,2.6,0.4l1.6-2.5C20-75.9,19.1-77.1,18.6-78.5z"/>
	<path d="M20.5-72c0.3,0.1,0.6,0.3,0.9,0.5l1.4-2.2c-0.3-0.2-0.6-0.3-0.9-0.5L20.5-72z"/>
	<path d="M29.8-70.6c-0.2-0.9-0.5-1.8-0.9-2.5c-0.7,0.2-1.4,0.3-2.1,0.3c-1,0-2-0.2-2.9-0.5l-1.5,2.4c2,1.6,3.3,4,3.3,6.8
		c0,1.9-0.6,3.6-1.7,5.1c1-0.5,1.9-1.1,2.8-1.8c-0.3-0.9-0.5-1.8-0.5-2.7C26.3-66.5,27.6-69,29.8-70.6z"/>
	<path d="M19.8-58.2c0.9,0,1.7-0.1,2.6-0.3c1.5-1.4,2.4-3.4,2.4-5.6c0-2.5-1.1-4.7-2.9-6.1l-6.8,10.9C16.5-58.6,18.1-58.2,19.8-58.2
		z"/>
	<path d="M20.1-71.3l-6.7,10.8c0.3,0.2,0.5,0.4,0.8,0.6L21-70.8C20.7-71,20.4-71.2,20.1-71.3z"/>
	<path d="M16.9-72c-3.2,0-6,2-7.2,4.8c0.3,2.3,1.3,4.4,2.8,5.9l6.5-10.4C18.4-71.9,17.7-72,16.9-72z"/>
	<path fill="#010101" d="M127.9-66.8c0.1-0.5,0.1-1,0.1-1.5c0-4.2-3.5-7.6-7.8-7.6c-0.2,0-0.5,0-0.7,0c-1,0.8-2.2,1.5-3.6,2.1
		c-1.2,0.6-2.4,1.1-3.5,1.4c0-0.2,0-0.4-0.1-0.5c1.1-0.3,2.2-0.8,3.4-1.4c0.9-0.5,1.8-0.9,2.5-1.4c1-0.7,1.9-1.4,2.6-2.1
		c1.1-1.2,1.6-2.2,1.3-2.8c-0.2-0.5-0.9-0.7-2-0.7c-1.8,0-4.4,0.8-7,2c-2.1,1-3.7,2.2-4.8,3.2c-1.4-0.2-3,0.1-4.5,0.9
		c-3.2,1.7-4.8,5-3.5,7.4c1,1.8,3.3,2.6,5.8,2.1l0.1,0.1c-1.3,2.1-1.3,4.8-1.3,4.8h3.2h2.7c0-2.8,4-3.2,4.2-3.2l0,0.3l0,0.3
		c0,0-0.2,0-0.5,0.1c-0.9,0.2-3.1,0.8-3.2,2.4c0,0.1,0,0.1,0,0.2h2.2h6.9l0,0c2.2-0.1,4.1-1,5.5-2.5c0.4,0.5,1,0.8,1.7,0.8
		c1.2,0,2.3-1,2.3-2.3C130-65.7,129.1-66.7,127.9-66.8z M104.4-70.9c-0.5,0-0.9-0.4-0.9-0.9c0-0.5,0.4-0.9,0.9-0.9
		c0.5,0,0.9,0.4,0.9,0.9C105.3-71.3,104.9-70.9,104.4-70.9z"/>
	<path fill="#010101" d="M232-13.4l-9.4-9.4c1.2-1.8,1.9-4,1.9-6.2c0-3-1.2-5.8-3.3-7.9c-2.1-2.1-4.9-3.3-7.9-3.3
		c-3,0-5.8,1.2-7.9,3.3c-2.1,2.1-3.3,4.9-3.3,7.9s1.2,5.8,3.3,7.9s4.9,3.3,7.9,3.3c2.3,0,4.4-0.7,6.3-1.9l9.4,9.4
		c0.3,0.3,0.9,0.2,1.3-0.2l1.6-1.6C232.3-12.5,232.3-13.1,232-13.4z M213.4-20.9c-4.5,0-8.1-3.7-8.1-8.1s3.6-8.1,8.1-8.1
		s8.1,3.7,8.1,8.1S217.9-20.9,213.4-20.9z"/>
	<g id="Your_Icon">
		<path fill="#010101" d="M232.2,6.5h-24.3L206.8,3h-4.7l0.6,1.7h2.8l5.5,17.2c-1.2,0.2-2.1,1.3-2.1,2.5c0,1.4,1.2,2.6,2.6,2.6
			c1.4,0,2.6-1.1,2.6-2.6c0-0.3-0.1-0.6-0.2-0.9h7.2c-0.1,0.3-0.2,0.6-0.2,0.9c0,1.4,1.2,2.6,2.6,2.6c1.4,0,2.6-1.1,2.6-2.6
			c0-1.4-1.1-2.5-2.4-2.6c0,0-0.2,0-0.2,0l-10.7,0l-1.1-3.4h13.5L232.2,6.5z"/>
	</g>
	<path fill="#010101" d="M126,19.7c-0.2-0.1-0.4-0.2-0.6-0.3l-0.1,0c0,0-1-0.5-1.1-4.4c-0.1-3.9,0.9-4.5,0.9-4.5l0.1-0.1
		c1-0.5,1.8-1.3,2.3-2.3c1.4-2.7,0.4-6-2.3-7.4c-2.7-1.4-6-0.4-7.4,2.3c-0.6,1.1-0.7,2.3-0.6,3.4l0,0c0,0,0.3,1.3-3.1,3.4
		c-3.3,2.1-4.9,1.1-4.9,1.1l-0.2-0.1c-2.7-1.4-6-0.4-7.4,2.3c-1.4,2.7-0.4,6,2.3,7.4c2,1.1,4.3,0.8,6-0.6l0,0c0,0,1.1-0.9,4.6,1
		c2.8,1.5,3.2,2.9,3.2,3.5c-0.1,2,1,4,2.9,5c2.7,1.4,6,0.4,7.4-2.3C129.7,24.4,128.7,21.1,126,19.7z M103.3,18.5
		C103.3,18.5,103.3,18.5,103.3,18.5C103.3,18.5,103.3,18.5,103.3,18.5L103.3,18.5z M109.2,12.1c-0.7-0.6-2.4-0.5-3.9,0.4
		c0.2,0.2,0.3,0.4,0.3,0.7c0,0.6-0.5,1.2-1.1,1.2c-0.1,0-0.2,0-0.3,0c0,0,0,0-0.1,0c-0.4-0.1-0.7,0.2-0.8,0.3c-0.8,1.5-0.8,3,0,3.7
		c-1.5-1.5-1.5-4,0.1-5.8C105,10.9,107.6,10.7,109.2,12.1L109.2,12.1z M119.4,2.4c1.6-1.8,4.2-2,5.8-0.6l0,0
		c-0.7-0.6-2.4-0.5-3.9,0.4c0.2,0.2,0.3,0.4,0.3,0.7c0,0.6-0.5,1.2-1.1,1.2c-0.1,0-0.2,0-0.3,0c0,0,0,0-0.1,0
		c-0.4-0.1-0.7,0.2-0.8,0.3c-0.8,1.5-0.8,3,0,3.7C117.8,6.7,117.8,4.1,119.4,2.4z M115.4,19.3c-2.9-1.5-3.3-2.8-3.4-3.2
		c0-0.5,0-0.9-0.1-1.4l0,0c0,0-0.2-1.3,3.1-3.3c3-1.8,4.3-1.5,4.5-1.4c0.2,0.1,0.3,0.2,0.5,0.3c0.3,0.2,0.7,0.3,1,0.4
		c0.4,0.4,1.2,1.5,1.2,4.4c0.1,2.9-0.8,4-1.2,4.4c-0.5,0.2-0.9,0.5-1.3,0.9C119.4,20.6,118.1,20.7,115.4,19.3z M120.3,27.2
		C120.3,27.2,120.3,27.2,120.3,27.2C120.3,27.2,120.3,27.2,120.3,27.2L120.3,27.2z M126.1,20.9c-0.7-0.6-2.4-0.5-3.9,0.4
		c0.2,0.2,0.3,0.4,0.3,0.7c0,0.6-0.5,1.2-1.1,1.2c-0.1,0-0.2,0-0.3,0c0,0,0,0-0.1,0c-0.4-0.1-0.7,0.2-0.8,0.3c-0.8,1.5-0.8,3,0,3.7
		c-1.5-1.5-1.5-4,0.1-5.8C122,19.7,124.6,19.4,126.1,20.9L126.1,20.9z"/>
	<path fill="#010101" d="M150,11.7C150,11.8,150,11.8,150,11.7L150,11.7C150,11.7,150,11.7,150,11.7z"/>
	<g>
		<ellipse fill="#010101" cx="159" cy="11.2" rx="1" ry="1"/>
		<path fill="#010101" d="M170.5,16.3c0.6-0.1,0.9-0.7,0.8-1.2c-0.1-0.6-0.7-0.9-1.3-0.8c-0.6,0.1-0.9,0.7-0.8,1.2
			C169.4,16.1,170,16.5,170.5,16.3z"/>
		<path fill="#010101" d="M177.1,23.9c-1.4,0-3-1.5-4.8-3.2c-0.2-0.2-0.4-0.4-0.6-0.5l-0.6-2.5c-0.1-0.6-0.7-1-1.3-0.8
			c-0.5,0.1-0.8,0.5-0.9,1c-1.7-1.3-3.7-2.2-6-2.2V5.7L156.2,2L150,5.7v9.9v3.3V28h1.3v-1.7h4.2V28h1.3v-1.7h5V28h1.3v-9.1v-0.8
			c2.9,0,5.4,2.2,7.7,4.4c2.1,2,4.1,3.8,6.5,3.8h0.4V28h1.2v-1.7h1.2v-2.5H177.1z M155.4,25.5h-4.2v-1.7h4.2L155.4,25.5L155.4,25.5z
			 M155.4,23h-4.2v-1.7h4.2L155.4,23L155.4,23z M155.4,20.6h-4.2v-1.7h4.2L155.4,20.6L155.4,20.6z M161.7,15.6h-1.3l-0.5-2.1
			c-0.1-0.6-0.7-1-1.3-0.8c-0.6,0.1-1,0.7-0.8,1.3l0.4,1.6h-6.8V6.5h10.4L161.7,15.6L161.7,15.6z"/>
	</g>
	<g>
		<path fill="#585D5C" d="M74.6,19.3c-3,0-5.4,2.4-5.4,5.3c0,2.9,2.4,5.3,5.4,5.3c3,0,5.4-2.4,5.4-5.3C80,21.7,77.6,19.3,74.6,19.3z
			 M74.6,27.2c-1.4,0-2.6-1.1-2.6-2.5c0-1.4,1.2-2.5,2.6-2.5c1.4,0,2.6,1.1,2.6,2.5C77.1,26,76,27.2,74.6,27.2z"/>
		<path fill="#585D5C" d="M64.3,15.4c1.2,0,2.3-0.1,3.4-0.4l1.9,4.3c0.9-0.9,2.1-1.5,3.4-1.7l-1.8-4c4.3-2.4,7.3-7,7.3-12.2
			c0-0.8,0-1.4,0-1.4H50c0,0,0,0.6,0,1.4c0,5.3,2.9,9.8,7.3,12.2L50,30h4.1l1.6-3.5h11.8c-0.2-0.6-0.2-1.2-0.2-1.9
			c0-0.7,0.1-1.3,0.3-1.9H57.4l3.4-7.7C61.9,15.3,63.1,15.4,64.3,15.4z M52.9,2.8h4.2c0.4,4.3,2.5,7.9,5.5,9.7
			C57.6,11.8,53.6,7.8,52.9,2.8z"/>
	</g>
	<path fill="#585D5C" d="M-37.9,16c-0.2-1.2-1.3-2.1-2.5-2.1c-1.4,0-2.3,1.1-2.6,2.6l-0.4,2.4l-6.6,6.6h6l1,2.4l1.1-2.7
		c2.3-0.7,4-2.9,4-5.5v-2l1.9-0.9L-37.9,16z M-39.9,17.1c-0.3,0-0.6-0.3-0.6-0.6c0-0.3,0.3-0.6,0.6-0.6c0.3,0,0.6,0.3,0.6,0.6
		C-39.4,16.9-39.6,17.1-39.9,17.1z"/>
	<g>
		<path fill="#585D5C" d="M-30,22.7c-0.6-0.6-1.4-0.9-2.2-0.9l0,0l-3,0l0,3l0,0c0,0.8,0.3,1.6,0.9,2.2c0,0,0,0,0,0
			c1.2,1.2,3.1,1.2,4.3,0c0.6-0.6,0.9-1.4,0.9-2.1C-29.1,24.1-29.4,23.3-30,22.7C-30,22.7-30,22.7-30,22.7z"/>
		<path fill="#585D5C" d="M-26.1,19.3c1.7,0,3-1.3,3-3c1.7,0,3-1.3,3-3c0-0.9-0.4-1.6-1-2.2c0.6-0.5,1-1.3,1-2.2c0-1.7-1.3-3-3-3
			c0-1.7-1.3-3-3-3c-0.9,0-1.6,0.4-2.2,1c-0.5-0.6-1.3-1-2.2-1c-1.7,0-3,1.3-3,3c-1.7,0-3,1.3-3,3c0,0.9,0.4,1.6,1,2.2
			c-0.6,0.5-1,1.3-1,2.2c0,1.7,1.3,3,3,3c0,1.7,1.3,3,3,3c0.5,0,1-0.1,1.4-0.3v5.9v3h1.6v-3c0,0.8,0.3,1.5,0.9,2.1
			c1.2,1.2,3.1,1.2,4.3,0c0,0,0,0,0,0c0.6-0.6,0.9-1.4,0.9-2.2l0,0l0-3l-3,0l0,0c-0.8,0-1.6,0.3-2.2,0.9c0,0,0,0,0,0
			c-0.6,0.6-0.9,1.4-0.9,2.1V19C-27.1,19.2-26.6,19.3-26.1,19.3z M-33.5,11.1c0-2.9,2.3-5.2,5.2-5.2c2.9,0,5.2,2.3,5.2,5.2
			c0,2.9-2.3,5.2-5.2,5.2C-31.2,16.3-33.5,14-33.5,11.1z"/>
	</g>
	<rect x="-21.7" y="77.7" fill="none" width="3.3" height="3.3"/>
	<g>
		<path fill="#585D5C" d="M-32.5,48.6c0,0-0.3,0-0.3-0.6c0-0.6-0.5-1.2-1.2-1.2c-0.7,0-1.2,0.5-1.2,1.2c0,0.6-0.3,0.6-0.3,0.6
			c-0.2,0-0.3,0.1-0.3,0.3c0,0.2,0.1,0.3,0.3,0.3h3c0.2,0,0.3-0.1,0.3-0.3C-32.2,48.7-32.3,48.6-32.5,48.6z"/>
		<circle fill="#585D5C" cx="-34" cy="50.1" r="0.6"/>
		<circle fill="#585D5C" cx="-34" cy="41.9" r="0.9"/>
		<path fill="#585D5C" d="M-28.6,56.5l-1.8-5.4v-4.8c0.3,0,0.6-0.3,0.6-0.6c0-0.3-0.3-0.6-0.6-0.6h-1.2c0-1.3-1.1-2.4-2.4-2.4
			c-1.3,0-2.4,1.1-2.4,2.4h-1.2c-0.3,0-0.6,0.3-0.6,0.6c0,0.3,0.3,0.6,0.6,0.6v4.8l-1.8,5.4h-3v1.8h1.2V62v4.7v4h14.3v-4V62v-3.6
			h1.2v-1.8H-28.6z M-36.4,46.4h4.8v4.8h-4.8V46.4z M-35.2,66.7L-35.2,66.7l0,1.8h-3.6v-1.8V62v-0.1c0-1,0.8-1.8,1.8-1.8
			c1,0,1.8,0.8,1.8,1.8V62V66.7z M-29.2,66.7L-29.2,66.7l0,1.8h-3.6v-1.8V62v-0.1c0-1,0.8-1.8,1.8-1.8c1,0,1.8,0.8,1.8,1.8V62V66.7z
			"/>
	</g>
	<path fill="#585D5C" d="M25.4,58.8L25.4,58.8c7.7,4.9-14.3,4.6-15,12.1h19.7C17.7,68,35.1,60.9,25.4,58.8z"/>
	<path fill="#585D5C" d="M25.5,46.2c0.8-0.2,1.9-0.9,1.9-0.9c-2.8-1.9-3.9-4.4-3.9-4.4h0c0,0-1.1,2.5-3.9,4.4c0,0,1.1,0.8,1.9,0.9
		c0,0-1.3,2.2-4.6,3.1c0,0,2.5,2.1,5.5,2V54H24h0.6v-2.6c3.1,0.1,5.5-2,5.5-2C26.8,48.4,25.5,46.2,25.5,46.2z"/>
	<path fill="#585D5C" d="M17.8,51.3c0-0.1,0-0.1,0-0.2c0-2-1.5-3.6-3.4-3.7c-0.7-0.8-1.7-1.3-2.8-1.3c-1.3,0-2.5,0.7-3.2,1.7
		c-0.5-0.3-1.2-0.5-1.8-0.5c-2.1,0-3.7,1.7-3.7,3.7c0,0.1,0,0.1,0,0.2C1.2,51.7,0,53.2,0,54.9c0,2.1,1.7,3.8,3.8,3.8
		c0.8,0,1.5-0.2,2.1-0.7c0,0,0,0,0,0c0.6,0.3,1.2,0.5,1.9,0.5c0.4,0,0.9-0.1,1.2-0.2v6.5h2.5v-6.2c0.2,0,0.4,0,0.6-0.1
		c0.2,0,0.4,0.1,0.6,0.1c0.7,0,1.3-0.2,1.9-0.5c0.6,0.3,1.2,0.5,1.9,0.5c2.1,0,3.7-1.7,3.7-3.7C20.3,53.2,19.3,51.8,17.8,51.3z"/>
	<path fill="#585D5C" d="M26.5,13.7c0-0.1,0-0.1,0-0.2c0-2-1.5-3.6-3.4-3.7c-0.7-0.8-1.7-1.3-2.8-1.3c-1.3,0-2.5,0.7-3.2,1.7
		c-0.5-0.3-1-0.4-1.5-0.5c0.1-0.3,0.2-0.7,0.2-1.1c0-1.1-0.7-2.1-1.8-2.5c0-0.1,0-0.1,0-0.2c0-1.4-1.1-2.5-2.4-2.6
		c-0.5-0.5-1.2-0.9-2-0.9C8.7,2.5,7.9,3,7.5,3.7C7.1,3.5,6.6,3.4,6.2,3.4C4.7,3.4,3.5,4.6,3.5,6c0,0,0,0.1,0,0.1
		c-1.1,0.3-2,1.3-2,2.6c0,1.5,1.2,2.7,2.7,2.7c0.6,0,1.1-0.2,1.5-0.5c0,0,0,0,0,0c0.4,0.2,0.8,0.4,1.3,0.4c0.3,0,0.6-0.1,0.9-0.2
		v1.7c-0.5,0.2-1,0.6-1.3,1.1c-0.4-0.2-0.9-0.4-1.4-0.4c-1.6,0-3,1.3-3,3c0,0.1,0,0.1,0,0.2C1,16.9,0,18.1,0,19.5c0,1.6,1.3,3,3,3
		c0.6,0,1.2-0.2,1.7-0.5c0,0,0,0,0,0c0.4,0.3,0.9,0.4,1.5,0.4c0.3,0,0.7-0.1,1-0.2v5.1h2v-4.9c0.2,0,0.3,0,0.5,0c0.2,0,0.3,0,0.5,0
		c0.5,0,1-0.2,1.5-0.4c0.4,0.3,0.9,0.4,1.5,0.4c1.1,0,2.1-0.6,2.6-1.5c0.3,0.1,0.6,0.1,0.9,0.1c0.4,0,0.9-0.1,1.2-0.2v6.5h2.5v-6.2
		c0.2,0,0.4,0,0.6-0.1c0.2,0,0.4,0.1,0.6,0.1c0.7,0,1.3-0.2,1.9-0.5c0.6,0.3,1.2,0.5,1.9,0.5c2.1,0,3.7-1.7,3.7-3.7
		C29,15.5,27.9,14.2,26.5,13.7z M10.1,11.2c0.1,0,0.3,0,0.4,0c0.5,0,0.9-0.1,1.3-0.4c0.1,0.1,0.3,0.1,0.5,0.2
		c-0.5,0.6-0.8,1.4-0.8,2.3c0,0,0,0.1,0,0.1c-0.1,0-0.1,0-0.2,0c-0.4-0.5-1-0.8-1.6-0.9v-1.3C9.8,11.3,10,11.3,10.1,11.2z"/>
</g>
</svg>
