<?xml version="1.0" encoding="utf-8"?>
<!-- Generator: Adobe Illustrator 18.0.0, SVG Export Plug-In . SVG Version: 6.00 Build 0)  -->
<!DOCTYPE svg PUBLIC "-//W3C//DTD SVG 1.0//EN" "http://www.w3.org/TR/2001/REC-SVG-20010904/DTD/svg10.dtd">
<svg version="1.0" id="Layer_1" xmlns="http://www.w3.org/2000/svg" xmlns:xlink="http://www.w3.org/1999/xlink" x="0px" y="0px"
	 viewBox="0 0 30 30" style="enable-background:new 0 0 30 30;" xml:space="preserve">
<g>
	<polygon points="17.8,15.9 8.6,6.8 7.7,7.7 16,15.9 15.1,16.8 6.8,8.6 4.9,10.4 13.2,18.7 12.3,19.6 4,11.3 3.1,12.3 12.3,21.4 	
		"/>
	<path d="M6,4L6,4L5.9,3.9c-0.5-0.5-1.3-0.5-1.8,0L0.4,7.6c-0.5,0.5-0.5,1.3,0,1.8l0.1,0.1l0,0l1.8,1.8l5.5-5.5L6,4z"/>
	<polygon points="16.5,22.8 19.7,23.2 19.2,20 18.8,16.8 16,19.6 13.2,22.3 	"/>
	<path d="M22,0h-0.8H8v4.4l2,2V2h11.2v6.8H28l0,0V28H10v-7.4l-2-2V30h22V8L22,0z M23.2,6.9V4l2.7,2.7L26,6.9H23.2z"/>
</g>
</svg>
