<?xml version="1.0" encoding="utf-8"?>
<!-- Generated by IcoMoon.io -->
<!DOCTYPE svg PUBLIC "-//W3C//DTD SVG 1.1//EN" "http://www.w3.org/Graphics/SVG/1.1/DTD/svg11.dtd">
<svg version="1.1" xmlns="http://www.w3.org/2000/svg" xmlns:xlink="http://www.w3.org/1999/xlink" width="1024" height="1024" viewBox="0 0 1024 1024"><g id="icomoon-ignore">
</g>
<path d="M769.791 831.955c6.733-0.994 12.953-4.649 17.057-10.292 5.579-7.631 6.573-17.763 2.565-26.388l-92.34-197.666c-6.028-13.017-21.482-18.628-34.499-12.569s-18.628 21.514-12.569 34.531l72.141 154.542-169.034-22.764c-14.3-1.924-27.349 8.016-29.273 22.251-1.86 14.236 8.112 27.349 22.284 29.209l216.23 29.209c2.501 0.353 4.97 0.289 7.374-0.096zM729.553 710.566l34.403 73.808c2.918 6.22 2.18 13.562-1.796 19.173-3.078 4.072-7.567 6.701-12.408 7.406-1.763 0.289-3.591 0.289-5.387 0.032l-80.734-10.901 65.921-89.551zM633.718 662.44l-40.655 15.871-0.192 39.629-333.964-245.375 40.72-55.5zM231.813 508.635l336.561 247.203-31.742 43.285-337.619-245.92zM323.8 383.527l29.305-39.79 337.555 245.92-30.235 41.104zM168.329 528.354l154.029-209.497-47.549-32.608-153.997 209.465zM94.456 467.307l147.584-200.776-30.844-22.957c-27.414-20.103-66.145-13.979-86.505 13.723l-73.872 100.388c-20.36 27.734-14.653 66.53 12.793 86.665l30.844 22.957zM916.286 157.005c-9.683-9.491-19.526-19.109-29.273-28.953-9.843-9.779-19.43-19.654-28.953-29.305-67.652-69.031-107.955-108.115-149.957-108.115h-316.33c-87.178 0-158.165 70.955-158.165 158.165v34.596l79.066 55.757v-90.385c0-43.637 35.461-79.066 79.066-79.066l288.243-0.16c28.504 7.278 28.119 42.323 28.119 77.399v120.459c0 21.771 17.763 39.533 39.501 39.533h118.6c39.469 0 79.066 0.192 79.066 39.533v513.996c0 43.637-35.429 79.066-79.066 79.066h-474.495c-43.637 0-79.066-35.429-79.066-79.066v-149.957l-79.066-61.272v211.229c0 87.178 70.955 158.165 158.165 158.165h474.495c87.178 0 158.165-70.955 158.165-158.165v-553.593c0.032-42.002-39.020-82.305-108.115-149.957z" fill="rgb(68, 68, 68)"></path>
</svg>
