<?xml version="1.0" encoding="utf-8"?>
<!-- Generated by IcoMoon.io -->
<!DOCTYPE svg PUBLIC "-//W3C//DTD SVG 1.1//EN" "http://www.w3.org/Graphics/SVG/1.1/DTD/svg11.dtd">
<svg version="1.1" xmlns="http://www.w3.org/2000/svg" xmlns:xlink="http://www.w3.org/1999/xlink" width="1024" height="1024" viewBox="0 0 1024 1024"><g id="icomoon-ignore">
</g>
<path d="M669.013 273.067c-47.787-13.653-102.4-23.893-157.013-23.893-242.347 0-443.733 177.493-505.173 235.52-10.24 10.24-10.24 27.307 0 37.547 34.133 34.133 119.467 109.227 235.52 167.253l426.667-416.427z" fill="rgb(68, 68, 68)"></path>
<path d="M1017.173 484.693c-37.547-34.133-126.293-116.053-242.347-170.667l95.573-92.16h-85.333l-593.92 580.267h81.92l75.093-71.68c51.2 17.067 109.227 27.307 167.253 27.307 242.347 0 443.733-177.493 505.173-235.52 6.827-10.24 6.827-27.307-3.413-37.547zM686.080 539.307c-13.653 64.853-68.267 119.467-136.533 133.12-47.787 10.24-88.747 0-126.293-20.48l75.093-75.093c3.413 0 6.827 0 13.653 0 44.373 0 78.507-34.133 78.507-78.507 0-3.413 0-6.827 0-13.653l75.093-75.093c20.48 40.96 30.72 85.333 20.48 129.707z" fill="rgb(68, 68, 68)"></path>
</svg>
