<?xml version="1.0" encoding="utf-8"?>
<!-- Generator: Adobe Illustrator 18.0.0, SVG Export Plug-In . SVG Version: 6.00 Build 0)  -->
<!DOCTYPE svg PUBLIC "-//W3C//DTD SVG 1.0//EN" "http://www.w3.org/TR/2001/REC-SVG-20010904/DTD/svg10.dtd">
<svg version="1.0" xmlns="http://www.w3.org/2000/svg" xmlns:xlink="http://www.w3.org/1999/xlink" x="0px" y="0px"
	 viewBox="0 0 30 30" enable-background="new 0 0 30 30" xml:space="preserve">
<g id="Layer_1">
	<path fill-rule="evenodd" clip-rule="evenodd" d="M15-366.9c-8.3,0-15,6.7-15,15s6.7,15,15,15s15-6.7,15-15S23.3-366.9,15-366.9z
		 M13.1-340.6v-9.4H3.8l18.7-9.4L13.1-340.6z"/>
</g>
<g id="Layer_2">
	<path fill-rule="evenodd" clip-rule="evenodd" d="M222.2-317h-15c-2.1,0-3.7,1.7-3.7,3.8v22.5c0,2.1,1.7,3.7,3.7,3.7h15
		c2.1,0,3.7-1.7,3.7-3.7v-22.5C226-315.3,224.3-317,222.2-317z M224.5-290.7c0,1.2-1,2.2-2.2,2.2h-15c-1.2,0-2.2-1-2.2-2.2v-22.5
		c0-1.2,1-2.2,2.2-2.2h15c1.2,0,2.2,1,2.2,2.2V-290.7z"/>
	<path fill-rule="evenodd" clip-rule="evenodd" d="M73.4-353.8c3.6,0,6.6,3,6.6,6.7c0,3.7-2.9,6.7-6.6,6.7c-3.6,0-6.6-3-6.6-6.7
		c0-2.3,1.2-4.4,2.9-5.6l-0.4-0.7l-1.1-2.1l-0.1-0.3h-6.8c-0.8,0-1.5,0.5-1.7,1.3l-0.4,1.2c2.3,1.1,3.9,3.4,3.9,6.1
		c0,3.7-2.9,6.7-6.6,6.7c-3.6,0-6.6-3-6.6-6.7c0-3.7,2.9-6.7,6.6-6.7c0.3,0,0.6,0.1,0.9,0.1l1-3.3c0.1-0.4,0.5-0.7,0.9-0.7h9.9
		l1.7-3.8h-3.2c-0.5,0-0.9-0.4-0.9-1c0-0.5,0.4-1,0.9-1h4.1h0.6c0.3,0,0.6,0.2,0.8,0.4c0.2,0.3,0.2,0.6,0.1,0.9l-0.3,0.6l-2.7,5.9
		l1.1,2.1C72.1-353.7,72.8-353.8,73.4-353.8z M58.7-351.4l-1,3c-0.1,0.2-0.2,0.4-0.5,0.6c-0.2,0.1-0.5,0.1-0.7,0.1
		c-0.5-0.2-0.8-0.7-0.6-1.2l0.9-2.9c-0.1,0-0.2,0-0.3,0c-2.6,0-4.7,2.1-4.7,4.8c0,2.6,2.1,4.8,4.7,4.8c2.6,0,4.7-2.1,4.7-4.8
		C61.3-349,60.2-350.6,58.7-351.4z M68.7-347.1c0,2.6,2.1,4.8,4.7,4.8c2.6,0,4.7-2.1,4.7-4.8c0-2.6-2.1-4.8-4.7-4.8
		c-0.3,0-0.7,0-1,0.1l2.3,4.3c0.1,0.2,0.1,0.5,0.1,0.7c-0.1,0.2-0.2,0.5-0.5,0.6l0,0c-0.5,0.2-1,0.1-1.2-0.4l-2.4-4.5
		C69.5-350.1,68.7-348.7,68.7-347.1z M59.4-359.6h-2.8c-0.5,0-0.9-0.4-0.9-1c0-0.5,0.4-1,0.9-1h5.6c0.2,0,0.3,0.1,0.3,0.2
		c0.1,0.1,0,0.3-0.1,0.4C61.6-360,60.8-359.6,59.4-359.6z"/>
	<path fill-rule="evenodd" clip-rule="evenodd" d="M129.1-352.8h-0.9v-5.6h0.9c0.5,0,0.9,0.4,0.9,0.9v3.7
		C130-353.2,129.6-352.8,129.1-352.8z M124.4-341.6v1.9c0,1-0.8,1.9-1.9,1.9h-1.9c-1,0-1.9-0.8-1.9-1.9v-1.9h-7.5v1.9
		c0,1-0.8,1.9-1.9,1.9h-1.9c-1,0-1.9-0.8-1.9-1.9v-1.9c-1,0-1.9-0.8-1.9-1.9v-16.8c0-3.1,2.5-5.6,5.6-5.6h11.2
		c3.1,0,5.6,2.5,5.6,5.6v16.8C126.2-342.5,125.4-341.6,124.4-341.6z M107.5-343.5c1,0,1.9-0.8,1.9-1.9c0-1-0.8-1.9-1.9-1.9
		c-1,0-1.9,0.8-1.9,1.9C105.6-344.3,106.5-343.5,107.5-343.5z M118.7-364h-7.5v1.9h7.5V-364z M124.4-360.3h-18.7v11.2h18.7V-360.3z
		 M122.5-347.2c-1,0-1.9,0.8-1.9,1.9c0,1,0.8,1.9,1.9,1.9c1,0,1.9-0.8,1.9-1.9C124.4-346.4,123.5-347.2,122.5-347.2z M100-353.8
		v-3.7c0-0.5,0.4-0.9,0.9-0.9h0.9v5.6h-0.9C100.4-352.8,100-353.2,100-353.8z"/>
	<path fill-rule="evenodd" clip-rule="evenodd" d="M174.4-350.1c0,2-1.7,3.7-3.7,3.7h-11.2c-2.1,0-3.7-1.6-3.7-3.7v-12.8h18.7v1.8
		c3.1,0,5.6,2.5,5.6,5.5C180-352.5,177.5-350.1,174.4-350.1z M159.4-361.1h-1.9v11c0,1,0.8,1.8,1.9,1.8V-361.1z M174.4-359.2v7.3
		c2.1,0,3.7-1.6,3.7-3.7C178.1-357.6,176.4-359.2,174.4-359.2z M180-342.7c0,1-0.8,1.8-1.9,1.8h-26.2c-1,0-1.9-0.8-1.9-1.8
		c0-1,0.8-1.8,1.9-1.8h26.2C179.2-344.6,180-343.7,180-342.7z"/>
	<g>
		<polygon fill-rule="evenodd" clip-rule="evenodd" points="228,-361.4 228,-339.4 202,-339.4 202,-337.4 230,-337.4 230,-338.4 
			230,-339.4 230,-361.4 		"/>
		<path fill-rule="evenodd" clip-rule="evenodd" d="M226-363.4h-3c0,1.7-1.3,3-3,3c-1.7,0-3-1.3-3-3h-7c0,1.7-1.3,3-3,3
			c-1.7,0-3-1.3-3-3h-4v22h26V-363.4z M224-343.4h-22v-15h22V-343.4z"/>
		<path fill-rule="evenodd" clip-rule="evenodd" d="M207-362.4c0.6,0,1-0.4,1-1v-2c0-0.6-0.4-1-1-1s-1,0.4-1,1v2
			C206-362.8,206.4-362.4,207-362.4z"/>
		<path fill-rule="evenodd" clip-rule="evenodd" d="M220-362.4c0.6,0,1-0.4,1-1v-2c0-0.6-0.4-1-1-1s-1,0.4-1,1v2
			C219-362.8,219.4-362.4,220-362.4z"/>
		<rect x="206" y="-355.4" fill-rule="evenodd" clip-rule="evenodd" width="3" height="3"/>
		<rect x="212" y="-355.4" fill-rule="evenodd" clip-rule="evenodd" width="3" height="3"/>
		<rect x="217" y="-355.4" fill-rule="evenodd" clip-rule="evenodd" width="3" height="3"/>
		<rect x="206" y="-350.4" fill-rule="evenodd" clip-rule="evenodd" width="3" height="3"/>
		<rect x="212" y="-350.4" fill-rule="evenodd" clip-rule="evenodd" width="3" height="3"/>
		<rect x="217" y="-350.4" fill-rule="evenodd" clip-rule="evenodd" width="3" height="3"/>
	</g>
	<g>
		<path fill-rule="evenodd" clip-rule="evenodd" d="M257-362.9c0.6,0,1-0.4,1-1v-2c0-0.6-0.4-1-1-1s-1,0.4-1,1v2
			C256-363.3,256.4-362.9,257-362.9z"/>
		<path fill-rule="evenodd" clip-rule="evenodd" d="M270-362.9c0.6,0,1-0.4,1-1v-2c0-0.6-0.4-1-1-1s-1,0.4-1,1v2
			C269-363.3,269.4-362.9,270-362.9z"/>
		<rect x="256" y="-355.9" fill-rule="evenodd" clip-rule="evenodd" width="3" height="3"/>
		<rect x="262" y="-355.9" fill-rule="evenodd" clip-rule="evenodd" width="3" height="3"/>
		<rect x="267" y="-355.9" fill-rule="evenodd" clip-rule="evenodd" width="3" height="3"/>
		<rect x="256" y="-350.9" fill-rule="evenodd" clip-rule="evenodd" width="3" height="3"/>
		<rect x="262" y="-350.9" fill-rule="evenodd" clip-rule="evenodd" width="3" height="3"/>
		<rect x="252" y="-339.9" fill-rule="evenodd" clip-rule="evenodd" width="17" height="2"/>
		<rect x="278" y="-361.9" fill-rule="evenodd" clip-rule="evenodd" width="2" height="13"/>
		<path fill-rule="evenodd" clip-rule="evenodd" d="M252-358.9h22v10h2v-15h-3c0,1.7-1.3,3-3,3s-3-1.3-3-3h-7c0,1.7-1.3,3-3,3
			s-3-1.3-3-3h-4v22h19v-2h-17V-358.9z"/>
		<path fill-rule="evenodd" clip-rule="evenodd" d="M275-347.9c-2.8,0-5,2.2-5,5c0,2.8,2.2,5,5,5s5-2.2,5-5
			C280-345.6,277.8-347.9,275-347.9z M278-341.9h-2v2h-2v-2h-2v-2h2v-2h2v2h2V-341.9z"/>
		<rect x="267" y="-350.9" fill-rule="evenodd" clip-rule="evenodd" width="3" height="3"/>
	</g>
	<g>
		
			<rect x="21.1" y="-294.7" transform="matrix(-0.5 -0.866 0.866 -0.5 287.9184 -422.1601)" fill-rule="evenodd" clip-rule="evenodd" width="2" height="1"/>
		
			<rect x="19.1" y="-298.2" transform="matrix(-0.5 -0.866 0.866 -0.5 287.9263 -429.072)" fill-rule="evenodd" clip-rule="evenodd" width="2" height="1"/>
		
			<rect x="17.1" y="-301.6" transform="matrix(-0.5 -0.866 0.866 -0.5 287.9181 -436.0167)" fill-rule="evenodd" clip-rule="evenodd" width="2" height="1"/>
		
			<rect x="15.6" y="-305.6" transform="matrix(-0.866 0.5 -0.5 -0.866 -122.2512 -576.4088)" fill-rule="evenodd" clip-rule="evenodd" width="1" height="2"/>
		
			<rect x="27.8" y="-299.1" transform="matrix(0.7072 -0.707 0.707 0.7072 219.0907 -67.2596)" fill-rule="evenodd" clip-rule="evenodd" width="1" height="2"/>
		
			<rect x="24.5" y="-301.5" transform="matrix(-0.7071 -0.7071 0.7071 -0.7071 256.3809 -495.7423)" fill-rule="evenodd" clip-rule="evenodd" width="2" height="1"/>
		
			<rect x="21.7" y="-304.3" transform="matrix(-0.7072 -0.7071 0.7071 -0.7072 253.531 -502.5955)" fill-rule="evenodd" clip-rule="evenodd" width="2" height="1"/>
		
			<rect x="18.9" y="-307.1" transform="matrix(0.7072 0.707 -0.707 0.7072 -210.9866 -103.8299)" fill-rule="evenodd" clip-rule="evenodd" width="2" height="1"/>
		
			<rect x="15.7" y="-292.1" transform="matrix(-0.2588 -0.9659 0.9659 -0.2588 302.6165 -350.9761)" fill-rule="evenodd" clip-rule="evenodd" width="2" height="1"/>
		
			<rect x="15.1" y="-296.5" transform="matrix(0.9659 -0.2589 0.2589 0.9659 77.0306 -6.0318)" fill-rule="evenodd" clip-rule="evenodd" width="1" height="2"/>
		
			<rect x="14.1" y="-300.3" transform="matrix(0.9659 -0.2589 0.2589 0.9659 77.991 -6.4306)" fill-rule="evenodd" clip-rule="evenodd" width="1" height="2"/>
		
			<rect x="13" y="-304.2" transform="matrix(0.9659 -0.2589 0.2589 0.9659 78.9607 -6.8314)" fill-rule="evenodd" clip-rule="evenodd" width="1" height="2"/>
		<rect x="9.6" y="-291.4" fill-rule="evenodd" clip-rule="evenodd" width="1" height="2"/>
		<rect x="9.6" y="-295.4" fill-rule="evenodd" clip-rule="evenodd" width="1" height="2"/>
		<rect x="9.6" y="-299.4" fill-rule="evenodd" clip-rule="evenodd" width="1" height="2"/>
		<rect x="9.6" y="-303.4" fill-rule="evenodd" clip-rule="evenodd" width="1" height="2"/>
		<path fill-rule="evenodd" clip-rule="evenodd" d="M17-313.2l-3.1,1.8c-1.1-2.4-3.5-4-6.3-4c-3.9,0-7,3.1-7,7v20h4v-20
			c0-1.7,1.3-3,3-3c1.3,0,2.4,0.8,2.8,2l-3.8,2.2l1.5,2.6l10.4-6L17-313.2z"/>
	</g>
	<path fill-rule="evenodd" clip-rule="evenodd" d="M79.7-291.6l-9.3-9.6l9.4-9.8c0.1,0.2,0.1,0.5,0.1,0.7v17.6
		C80-292.2,79.9-291.9,79.7-291.6z M51.7-312.3l0.2,0h26.2l0.3,0.1L65-298.5L51.7-312.3z M50.2-291.7c-0.1-0.3-0.2-0.6-0.2-0.9
		v-17.6c0-0.3,0.1-0.6,0.1-0.9l9.4,9.9L50.2-291.7z M65-295.5l4-4.1l9,9.3H51.9l-0.1,0l9.2-9.3L65-295.5z"/>
	<path d="M100-316.9v30h30v-30H100z M120.3-296.4c0,0-6,6.5-7.9,7.3c0,0-7.2-5.9-9.4-9.5c-2.2-3.6-2.9-6.9,1.3-9.1
		c4.3-2.3,7.8,2.1,8.1,3c0,0,3.2-5.8,8.9-2.5C127.1-303.8,120.3-296.4,120.3-296.4z M128-310.9h-3v3h-2v-3h-3v-2h3v-3h2v3h3V-310.9z
		"/>
	<path d="M109-306.9v11l3.5-2.6l-0.4,5.6l-1.3-0.4l1.6,3.2l2.3-2.7l-1.1,0l1.4-9.2l-4,2v-5L109-306.9z"/>
	<path fill-rule="evenodd" clip-rule="evenodd" d="M162-312.9h1v23h-1V-312.9z"/>
	<path fill-rule="evenodd" clip-rule="evenodd" d="M178.6-299.9l-2.8-4.3l-1.1,2.2l3.9,6.4H175l-0.6,5.7h-2.8l-0.6-5.7h-3.6l3.9-6.4
		l-1.1-2.2l-2.8,4.3H166l2.3-5.9c0.3-0.8,1.1-1.3,1.9-1.3h1.4l1.4,2.9l1.4-2.9h1.4c0.8,0,1.6,0.5,1.9,1.3l2.3,5.9H178.6z M173-308.6
		c-1.2,0-2.1-1-2.1-2.2c0-1.2,0.9-2.2,2.1-2.2c1.2,0,2.1,1,2.1,2.2C175.1-309.5,174.2-308.6,173-308.6z"/>
	<path fill-rule="evenodd" clip-rule="evenodd" d="M156.1-298.5l-0.8,8.6h-2.7l-0.8-8.6H150v-7.6c0.6-0.3,1.3-0.6,2.1-0.8l1.9,4.1
		l1.9-4.1c0.8,0.2,1.5,0.4,2.1,0.8v7.6H156.1z M154-308.6c-1.1,0-2-1-2-2.2c0-1.2,0.9-2.2,2-2.2c1.1,0,2,1,2,2.2
		C156-309.5,155.1-308.6,154-308.6z"/>
	<path fill-rule="evenodd" clip-rule="evenodd" d="M277.5-297.1l-10.6-5.9c0-0.6,0.4-1.2,0.9-1.5c1.7-1,2.8-2.8,2.8-4.8
		c0-3.1-2.5-5.6-5.6-5.6s-5.6,2.5-5.6,5.6c0,1,0.8,1.9,1.9,1.9c1,0,1.9-0.8,1.9-1.9c0-1,0.8-1.9,1.9-1.9s1.9,0.8,1.9,1.9
		c0,0.7-0.4,1.3-0.9,1.6c-1.7,1-2.8,2.8-2.8,4.7l-10.7,6c-1.4,0.9-2.4,2.8-2.4,4.4c0,2,1.7,3.7,3.7,3.7h22.5c2.1,0,3.7-1.7,3.7-3.7
		C280-294.3,279-296.1,277.5-297.1z M253.8-292.6c0-0.4,0.4-1.1,0.6-1.2l10.6-5.9l10.5,5.9c0.3,0.2,0.7,0.9,0.7,1.3H253.8z"/>
	<path fill-rule="evenodd" clip-rule="evenodd" d="M100-243.7h30v1h-30V-243.7z"/>
	<path fill-rule="evenodd" clip-rule="evenodd" d="M113-242.7h4c1.1,0,2-0.9,2-2h-8C111-243.6,111.9-242.7,113-242.7z"/>
	<path fill-rule="evenodd" clip-rule="evenodd" d="M123-242.7h4c1.1,0,2-0.9,2-2h-8C121-243.6,121.9-242.7,123-242.7z"/>
	<path fill-rule="evenodd" clip-rule="evenodd" d="M117-253.7h-4c-1.1,0-2,0.9-2,2v6h8v-6C119-252.8,118.1-253.7,117-253.7z
		 M116.5-251.8h-3.1c-0.3,0-0.5-0.2-0.5-0.5c0-0.3,0.2-0.5,0.5-0.5h3.1c0.3,0,0.5,0.2,0.5,0.5C117-252,116.8-251.8,116.5-251.8z"/>
	<path fill-rule="evenodd" clip-rule="evenodd" d="M127-253.7h-4c-1.1,0-2,0.9-2,2v6h8v-6C129-252.8,128.1-253.7,127-253.7z
		 M126.5-251.8h-3.1c-0.3,0-0.5-0.2-0.5-0.5c0-0.3,0.2-0.5,0.5-0.5h3.1c0.3,0,0.5,0.2,0.5,0.5C127-252,126.8-251.8,126.5-251.8z"/>
	<path fill-rule="evenodd" clip-rule="evenodd" d="M116-251.7h8v1h-8V-251.7z"/>
	<path fill-rule="evenodd" clip-rule="evenodd" d="M100-243.7h1v3h-1V-243.7z"/>
	<path fill-rule="evenodd" clip-rule="evenodd" d="M129-243.7h1v3h-1V-243.7z"/>
	<path fill-rule="evenodd" clip-rule="evenodd" d="M103-242.7h4c1.1,0,2-0.9,2-2h-8C101-243.6,101.9-242.7,103-242.7z"/>
	<path fill-rule="evenodd" clip-rule="evenodd" d="M107-253.7h-4c-1.1,0-2,0.9-2,2v6h8v-6C109-252.8,108.1-253.7,107-253.7z
		 M106.5-251.8h-3.1c-0.3,0-0.5-0.2-0.5-0.5c0-0.3,0.2-0.5,0.5-0.5h3.1c0.3,0,0.5,0.2,0.5,0.5C107-252,106.8-251.8,106.5-251.8z"/>
	<path fill-rule="evenodd" clip-rule="evenodd" d="M106-251.7h8v1h-8V-251.7z"/>
	<path fill="none" d="M111.5-258.8h-3.1c-0.3,0-0.5,0.2-0.5,0.5c0,0.3,0.2,0.5,0.5,0.5h3.1c0.3,0,0.5-0.2,0.5-0.5
		C112-258.6,111.8-258.8,111.5-258.8z"/>
	<path fill="none" d="M122-258.3c0-0.3-0.2-0.5-0.5-0.5h-3.1c-0.3,0-0.5,0.2-0.5,0.5c0,0.3,0.2,0.5,0.5,0.5h3.1
		C121.8-257.8,122-258,122-258.3z"/>
	<path fill="none" d="M112-258.3c0-0.3-0.2-0.5-0.5-0.5h-3.1c-0.3,0-0.5,0.2-0.5,0.5c0,0.3,0.2,0.5,0.5,0.5h3.1
		C111.8-257.8,112-258,112-258.3z"/>
	<path d="M123-254.2h1v-3.5c0-1.1-0.9-2-2-2h-4c-1.1,0-2,0.9-2,2v3.5h1c1.4,0,2.5,1.1,2.5,2.5v1h1v-1
		C120.5-253.1,121.6-254.2,123-254.2z M118.5-257.8c-0.3,0-0.5-0.2-0.5-0.5c0-0.3,0.2-0.5,0.5-0.5h3.1c0.3,0,0.5,0.2,0.5,0.5
		c0,0.3-0.2,0.5-0.5,0.5H118.5z"/>
	<path d="M113-254.2h1v-3.5c0-1.1-0.9-2-2-2h-4c-1.1,0-2,0.9-2,2v3.5h1c1.4,0,2.5,1.1,2.5,2.5v1h1v-1
		C110.5-253.1,111.6-254.2,113-254.2z M108.5-257.8c-0.3,0-0.5-0.2-0.5-0.5c0-0.3,0.2-0.5,0.5-0.5h3.1c0.3,0,0.5,0.2,0.5,0.5
		c0,0.3-0.2,0.5-0.5,0.5H108.5z"/>
	<g>
		<path d="M20.1-243c-0.5-0.3-1.2-0.2-1.5,0.4c-1.4,2.2-3.7,3.5-6.3,3.5c-4.1,0-7.4-3.4-7.4-7.5c0-2.4,1.2-4.7,3.1-6.1
			c0.5-0.4,0.6-1,0.2-1.5c-0.4-0.5-1-0.6-1.5-0.3c-2.5,1.8-4,4.8-4,7.9c0,5.3,4.3,9.7,9.6,9.7c3.3,0,6.4-1.7,8.1-4.6
			C20.8-242,20.7-242.7,20.1-243z"/>
		<path d="M27.7-242.3c-0.2-0.6-0.8-0.9-1.4-0.7l-1.3,0.5c0,0-2.4-6.8-2.5-6.9c0,0-0.1-0.1-0.1-0.2c-0.3-0.5-0.9-0.9-1.5-0.9h-5.7
			l-0.1-2.1h4.7c0.6,0,1.1-0.5,1.1-1.1c0-0.6-0.5-1.1-1.1-1.1H15l-0.2-3.1c0,0,0-0.1,0-0.1c-0.1-1.5-1.4-2.7-2.9-2.6
			c-1.5,0.1-2.7,1.4-2.6,2.9v0l0,0l0.4,8.1l0,0c0,0,0,0,0,0c0.1,1.5,1.3,2.6,2.7,2.6c0,0,7.4,0,7.4,0l2.2,6.1
			c0.2,0.7,0.9,1.1,1.5,1.1c0.1,0,0.2,0,0.3,0c0.1,0,0.1,0,0.2-0.1l2.9-1.1C27.6-241.1,27.9-241.7,27.7-242.3z"/>
		
			<ellipse transform="matrix(5.248704e-02 0.9986 -0.9986 5.248704e-02 -252.7211 -262.4226)" cx="11.9" cy="-264.4" rx="2.5" ry="2.5"/>
	</g>
	<g>
		<path fill-rule="evenodd" clip-rule="evenodd" d="M77-256.7c0-0.1,0-0.1,0-0.2c0-2-1.5-3.6-3.4-3.7c-0.7-0.8-1.7-1.3-2.8-1.3
			c-1.3,0-2.5,0.7-3.2,1.7c-0.5-0.3-1.2-0.5-1.8-0.5c-2.1,0-3.7,1.7-3.7,3.7c0,0.1,0,0.1,0,0.2c-1.5,0.5-2.5,1.9-2.5,3.5
			c0,0.1,0,0.2,0,0.2h-6h-1h-2v2h2v1h-2v1h2v1v1h1h7h1v-1v-1h2v-0.5c0.6,0,1.1-0.2,1.6-0.5c0.6,0.3,1.2,0.5,1.9,0.5
			c0.4,0,0.9-0.1,1.2-0.2v6.5H67v1.2h5v-1.2h-1.2v-6.2c0.2,0,0.4,0,0.6-0.1c0.2,0,0.4,0.1,0.6,0.1c0.7,0,1.3-0.2,1.9-0.5
			c0.6,0.3,1.2,0.5,1.9,0.5c2.1,0,3.7-1.7,3.7-3.7C79.5-254.8,78.4-256.2,77-256.7z M53.5-250.9h6.8c0.1,0.1,0.1,0.2,0.2,0.3v0.7h-7
			V-250.9z M60.5-247.9h-7v-1h7V-247.9z"/>
		<polygon fill-rule="evenodd" clip-rule="evenodd" points="60.5,-245.9 53.5,-245.9 51.5,-245.9 50.5,-245.9 50.5,-244.9 
			51.5,-244.9 51.5,-241.9 53.5,-241.9 53.5,-244.9 54.5,-244.9 54.5,-242.9 55.5,-242.9 55.5,-244.9 58.5,-244.9 58.5,-242.9 
			59.5,-242.9 59.5,-244.9 60.5,-244.9 60.5,-241.9 62.5,-241.9 62.5,-244.9 63.5,-244.9 63.5,-245.9 62.5,-245.9 		"/>
	</g>
	<g>
		<path fill-rule="evenodd" clip-rule="evenodd" d="M215.8-306c-0.1-0.2-0.2-0.4-0.4-0.5c-0.2-0.1-0.5-0.2-0.8-0.2h-1v4.4h0.9
			c0.4,0,0.7-0.1,0.9-0.2s0.4-0.3,0.5-0.4c0.1-0.2,0.2-0.4,0.2-0.7c0-0.3,0-0.6,0-0.9c0-0.3,0-0.6,0-0.9
			C216-305.6,215.9-305.8,215.8-306z"/>
		<path fill-rule="evenodd" clip-rule="evenodd" d="M221.4-314h-13.3c-1.1,0-2,0.9-2,2v20c0,1.1,0.9,2,2,2h13.3c1.1,0,2-0.9,2-2v-20
			C223.4-313.1,222.5-314,221.4-314z M217.6-303c-0.1,0.4-0.2,0.8-0.4,1.1c-0.3,0.4-0.6,0.7-1,1s-1,0.4-1.7,0.4h-0.9v5h-1.8v-12.8
			h2.8c0.5,0,0.9,0.1,1.3,0.2c0.4,0.1,0.7,0.4,1,0.7c0.3,0.3,0.5,0.7,0.6,1.2c0.1,0.4,0.2,1.1,0.2,1.8
			C217.7-303.9,217.7-303.4,217.6-303z"/>
	</g>
	<path fill-rule="evenodd" clip-rule="evenodd" d="M179.8-190.1L166-214.7c-0.5-1-1.4-1-2,0l-13.8,24.6c-0.5,1-0.1,1.7,1,1.7h27.6
		C179.9-188.4,180.3-189.2,179.8-190.1z M167-193.4c0,0.6-0.5,1-1,1h-2c-0.5,0-1-0.4-1-1v-2c0-0.6,0.5-1,1-1h2c0.5,0,1,0.5,1,1
		V-193.4z M167-199.4c0,0.6-0.4,1-1,1h-2c-0.5,0-1-0.4-1-1v-6c0-0.6,0.5-1,1-1h2c0.5,0,1,0.5,1,1L167-199.4z"/>
	<g>
		<path d="M219.6-208.9c-1.4-0.4-3-0.7-4.6-0.7c-7.1,0-13,5.2-14.8,6.9c-0.3,0.3-0.3,0.8,0,1.1c1,1,3.5,3.2,6.9,4.9L219.6-208.9z"/>
		<path d="M229.8-202.7c-1.1-1-3.7-3.4-7.1-5l2.8-2.7H223l-17.4,17h2.4l2.2-2.1c1.5,0.5,3.2,0.8,4.9,0.8c7.1,0,13-5.2,14.8-6.9
			C230.1-201.9,230.1-202.4,229.8-202.7z M220.1-201.1c-0.4,1.9-2,3.5-4,3.9c-1.4,0.3-2.6,0-3.7-0.6l2.2-2.2c0.1,0,0.2,0,0.4,0
			c1.3,0,2.3-1,2.3-2.3c0-0.1,0-0.2,0-0.4l2.2-2.2C220.1-203.6,220.4-202.4,220.1-201.1z"/>
	</g>
	<g>
		<polygon points="265.9,-214.4 264,-214.4 264,-208.4 265.9,-208.3 		"/>
		<polygon points="274,-199.1 280,-200.3 279.5,-202.6 273.6,-201.4 		"/>
		<polygon points="276.3,-209.2 274.6,-210.8 270.4,-206.5 272,-204.9 		"/>
		<polygon points="256.4,-201.4 250.5,-202.6 250,-200.3 256,-199.1 		"/>
		<path d="M273-193.4l-2.3-10.9c-0.2-1.2-1.3-2.1-2.7-2.1l-5,0c-1.4,0-2.7,0.9-3,2.1l-2,10.9c0,0.1,0,0,0,1h-3l0.1,3H276v-3h-3
			C273-193.4,273-193.3,273-193.4z M265.1-193.4l-0.1-11h2c1.1,0,1.8,0.1,2,1l1,5c0,0.1,1,5,1,5H265.1z"/>
		<polygon points="259.6,-206.5 255.4,-210.8 253.7,-209.2 258,-204.9 		"/>
	</g>
	<path fill-rule="evenodd" clip-rule="evenodd" d="M166.8-236.9h-4v-11h-2v-9c0-2.1,0.9-3,3-3h2c2.1,0,3,0.9,3,3v9h-2V-236.9z
		 M164.8-261.3c-1.6,0-2.8-1.3-2.8-2.8c0-1.6,1.3-2.8,2.8-2.8c1.6,0,2.8,1.3,2.8,2.8C167.6-262.5,166.4-261.3,164.8-261.3z"/>
	<path fill-rule="evenodd" clip-rule="evenodd" d="M155.8-236.9h-4v-11h-2v-9c0-2.1,0.9-3,3-3h2c2.1,0,3,0.9,3,3v9h-2V-236.9z
		 M153.8-261.3c-1.6,0-2.8-1.3-2.8-2.8c0-1.6,1.3-2.8,2.8-2.8c1.6,0,2.8,1.3,2.8,2.8C156.6-262.5,155.4-261.3,153.8-261.3z"/>
	<path fill-rule="evenodd" clip-rule="evenodd" d="M177.8-236.9h-4v-11h-2v-9c0-2.1,0.9-3,3-3h2c2.1,0,3,0.9,3,3v9h-2V-236.9z
		 M175.8-261.3c-1.6,0-2.8-1.3-2.8-2.8c0-1.6,1.3-2.8,2.8-2.8c1.6,0,2.8,1.3,2.8,2.8C178.6-262.5,177.4-261.3,175.8-261.3z"/>
	<path fill-rule="evenodd" clip-rule="evenodd" d="M214.6-263.9c-5,0-9,4-9,9c0,6,9,15,9,15s9-9,9-15
		C223.6-259.9,219.6-263.9,214.6-263.9z M214.6-250.8c-2.6,0-4.7-2.1-4.7-4.7c0-2.6,2.1-4.7,4.7-4.7c2.6,0,4.7,2.1,4.7,4.7
		C219.3-252.9,217.2-250.8,214.6-250.8z"/>
	<path fill-rule="evenodd" clip-rule="evenodd" d="M269.1-256.8c1,0,1.8,0.8,1.8,1.9c0,1-0.8,1.9-1.8,1.9h-6.7
		c-0.1,0.4-0.1,0.8-0.1,1.1c0,0.4,0,0.8,0.1,1.1h6.7c1,0,1.8,0.8,1.8,1.9c0,1-0.8,1.9-1.8,1.9h-5.6c1.7,3.2,5,5.3,8.5,5.3h0.4
		c0.8,0,1.4,0.7,1.4,1.7c0,1-0.6,1.9-1.3,2l0,0H272c-5.5,0-10.5-3.6-12.4-9.1h-2c-1,0-1.8-0.8-1.8-1.9c0-1,0.8-1.9,1.8-1.9h1.2v0
		c-0.1-0.4-0.1-0.7-0.1-1.1c0-0.4,0-0.7,0.1-1.1v0h-1.2c-1,0-1.8-0.8-1.8-1.9c0-1,0.8-1.9,1.8-1.9h2c2-5.4,6.9-9.1,12.4-9.1h0.4
		c0.8,0.1,1.4,1,1.4,2c0,1-0.5,1.7-1.2,1.7l-0.6,0c-3.5,0-6.8,2.1-8.5,5.3H269.1z"/>
	<path fill-rule="evenodd" clip-rule="evenodd" d="M23.4-215.3l-0.3,0.2c-1.1,0.5-2.8,6.3-2.8,6.7l0,0.4c0.2,0.8,0.9,1.7,2.5,3.5
		c-0.9,2.1-3.4,4.9-4.9,6.2c-1.6,1.4-4.3,3.2-6.3,3.9c-1.8-2.1-2.6-2.9-3.5-3c-0.5,0-6.4,1-6.9,2l-0.2,0.3c-0.4,0.7-1.1,1.7-0.8,2.8
		c0.1,0.3,0.2,0.5,0.3,0.8c0.5,0.8,1.7,2.6,3.4,3.4c1,0.5,10.4,0.8,18.3-6.3c7.8-7,8.2-15.6,7.9-16.9l0,0l0-0.1
		c-0.6-1.8-2.3-3.2-3-3.8C25.7-216.4,24.2-215.6,23.4-215.3z"/>
	<path fill-rule="evenodd" clip-rule="evenodd" d="M52.8-213.9v18h18v-18H52.8z M68.8-197.9h-14v-14h14V-197.9z"/>
	<path fill-rule="evenodd" clip-rule="evenodd" d="M74.8-199.9v-10h-2l3-4l3,4h-2v10h2l-3,4l-3-4"/>
	<path fill-rule="evenodd" clip-rule="evenodd" d="M66.8-189.9h-10v2l-4-3l4-3v2h10v-2l4,3l-4,3"/>
	<g opacity="0.4">
		<path fill-rule="evenodd" clip-rule="evenodd" d="M108.5-197l4-4c-0.1-0.2-0.1-0.5-0.1-0.7c0-1,0.6-1.9,1.5-2.3v-9.9
			c0-0.5,0.5-1,1-1c-7.2,0-13,5.8-13,13c0,3.6,1.5,6.8,3.8,9.2l2.8-2.8C108.1-195.9,108.1-196.6,108.5-197z"/>
	</g>
	<g>
		<g>
			<path fill-rule="evenodd" clip-rule="evenodd" d="M114.8-216.9c-1,0-2,0.1-3,0.3c-1,0.2-1.9,0.5-2.8,0.9
				c-1.3,0.6-2.6,1.3-3.7,2.2s-2.1,2-2.9,3.2c-1.6,2.4-2.6,5.3-2.6,8.4c0,1.6,0.2,3.1,0.7,4.5c0.7,2.3,2,4.4,3.7,6.1
				c0.3,0.3,0.7,0.7,1.1,1c0.7,0.6,1.5,1.2,2.4,1.6c0.4,0.2,0.9,0.4,1.3,0.6c0.9,0.4,1.8,0.7,2.8,0.9c1,0.2,2,0.3,3,0.3
				c8.3,0,15-6.7,15-15C129.8-210.2,123.1-216.9,114.8-216.9z M114.8-199.2c-0.3,0-0.6-0.1-0.9-0.2l-3.9,3.9c-0.4,0.4-1.1,0.4-1.5,0
				c0,0,0,0,0,0l-2.8,2.8c-2.4-2.4-3.8-5.6-3.8-9.2c0-7.2,5.8-13,13-13c0.5,0,1,0.5,1,1v9.9c0.9,0.4,1.5,1.3,1.5,2.3
				C117.3-200.3,116.2-199.2,114.8-199.2z"/>
		</g>
	</g>
	<path fill-rule="evenodd" clip-rule="evenodd" d="M16-139.9h-2l-14-2v-19.9h2v18.2l12,1.7h2l12-1.7v-18.2h2v19.9L16-139.9z
		 M16-161.8c3.6-2.1,10-2.1,10-2.1v17.9c0,0-6.4,0-10,2.1V-161.8z M4-163.8c0,0,6.4,0,10,2.1v17.9c-3.6-2.1-10-2.1-10-2.1V-163.8z"
		/>
	<path fill-rule="evenodd" clip-rule="evenodd" d="M79.5-157.9l-0.2,0.1l0,0l-2.7,2.7l-8.4-8.4l2.7-2.7l0,0l0.1-0.2
		c0.7-0.7,2-0.7,2.7,0.1l5.6,5.6C80.2-159.9,80.2-158.7,79.5-157.9z M57-146.7l12.5-12.6l2.8,2.8l-12.5,12.6l1.4,1.4l12.5-12.6
		l1.4,1.4l-13.9,14l-8.4-8.4l13.9-14l1.4,1.4l-12.5,12.6L57-146.7z M59.8-138.3l-4.9,0.7l-4.9,0.7l0.7-4.9l0.7-4.9l4.2,4.2
		L59.8-138.3z"/>
	<path fill-rule="evenodd" clip-rule="evenodd" d="M126-137.9l-26,0v-28l30,0v24L126-137.9z M109-139.9h12v-7h-12V-139.9z
		 M124-163.9h-18v12h18V-163.9z M111-144.9l4,0v3h-4V-144.9z"/>
	<path fill-rule="evenodd" clip-rule="evenodd" d="M150-154.9l3-2l8,14l16-23l3,2l-19,27L150-154.9"/>
	<path fill-rule="evenodd" clip-rule="evenodd" d="M223.6-159.1l-1.8-1.8l-7.2,7.2l-7.2-7.2l-1.8,1.8l7.2,7.2l-7.2,7.2l1.8,1.8
		l7.2-7.2l7.2,7.2l1.8-1.8l-7.2-7.2L223.6-159.1z"/>
	<path fill-rule="evenodd" clip-rule="evenodd" d="M264.8-160.4c-4.7,0-8.5,3.8-8.5,8.5c0,4.7,3.8,8.5,8.5,8.5s8.5-3.8,8.5-8.5
		C273.3-156.6,269.5-160.4,264.8-160.4z M269.8-149.1l-2.2,2.2l-2.8-2.8l-2.8,2.8l-2.2-2.2l2.8-2.8l-2.8-2.8l2.2-2.2l2.8,2.8
		l2.8-2.8l2.2,2.2l-2.8,2.8L269.8-149.1z"/>
	<path fill-rule="evenodd" clip-rule="evenodd" d="M22.3-109.5c-0.9,0-1.6-0.7-1.6-1.6c0-0.9,0.7-1.6,1.6-1.6c0.9,0,1.6,0.7,1.6,1.6
		C23.8-110.2,23.1-109.5,22.3-109.5z M20.1-114.8c-0.4,0-0.8-0.2-1.1-0.5c-0.6-0.6-0.6-1.6,0-2.2c0.3-0.3,0.7-0.5,1.1-0.5
		s0.8,0.2,1.1,0.5c0.6,0.6,0.6,1.6,0,2.2C20.9-115,20.5-114.8,20.1-114.8z M14.8-116.1c-1.4,0-2.5-1.1-2.5-2.5
		c0-1.4,1.1-2.5,2.5-2.5c1.4,0,2.5,1.1,2.5,2.5C17.3-117.2,16.2-116.1,14.8-116.1z M9.6-104.2c-0.4,0-0.8-0.2-1.1-0.5
		c-0.6-0.6-0.6-1.6,0-2.2c0.3-0.3,0.7-0.5,1.1-0.5s0.8,0.2,1.1,0.5c0.6,0.6,0.6,1.6,0,2.2C10.4-104.4,10-104.2,9.6-104.2z
		 M9.6-114.8c-0.4,0-0.8-0.2-1.1-0.5c-0.6-0.6-0.6-1.6,0-2.2c0.3-0.3,0.7-0.5,1.1-0.5s0.8,0.2,1.1,0.5c0.6,0.6,0.6,1.6,0,2.2
		C10.4-115,10-114.8,9.6-114.8z M8.9-111.1c0,0.9-0.7,1.6-1.6,1.6s-1.6-0.7-1.6-1.6s0.7-1.6,1.6-1.6C8.2-112.6,8.9-111.9,8.9-111.1z
		 M14.8-105.2c0.9,0,1.6,0.7,1.6,1.6c0,0.9-0.7,1.6-1.6,1.6c-0.9,0-1.6-0.7-1.6-1.6C13.3-104.5,14-105.2,14.8-105.2z M20.1-107.4
		c0.4,0,0.8,0.2,1.1,0.5c0.6,0.6,0.6,1.6,0,2.2c-0.3,0.3-0.7,0.5-1.1,0.5c-0.4,0-0.8-0.2-1.1-0.5c-0.6-0.6-0.6-1.6,0-2.2
		C19.3-107.2,19.7-107.4,20.1-107.4z"/>
	<g>
		<path fill="#010101" d="M123.9-123.6c-2.4-1.8-5.4-2.9-8.7-2.9v14.8h2.8c0-2.3,0.6-4.6,1.6-6.6
			C120.6-120.4,122.1-122.2,123.9-123.6z"/>
		<path fill="#010101" d="M124.2-123.3c-1.8,1.4-3.2,3.1-4.2,5.1c-1,2-1.5,4.2-1.6,6.4H130c-0.1-4.8-2.4-9-5.9-11.7L124.2-123.3z"/>
		<path fill="#010101" d="M106.1-99.5c2.4,1.8,5.4,2.9,8.7,2.9v-14.8H112c0,2.3-0.6,4.6-1.6,6.6C109.3-102.7,107.9-100.9,106.1-99.5
			z"/>
		<path fill="#010101" d="M106.1-123.6c1.8,1.4,3.3,3.2,4.3,5.2c1,2.1,1.6,4.3,1.6,6.6h2.8v-14.8
			C111.5-126.5,108.5-125.4,106.1-123.6z"/>
		<path fill="#010101" d="M118.4-111.3c0,2.3,0.6,4.4,1.6,6.4c1,2,2.5,3.7,4.2,5.1l-0.1,0.2c3.5-2.7,5.8-6.9,5.9-11.7H118.4z"/>
		<path fill="#010101" d="M105.7-99.8c1.8-1.4,3.2-3.1,4.2-5.1c1-2,1.5-4.2,1.6-6.4H100c0.1,4.8,2.4,9,5.9,11.7L105.7-99.8z"/>
		<path fill="#010101" d="M111.5-111.8c0-2.3-0.6-4.4-1.6-6.4c-1-2-2.5-3.7-4.2-5.1l0.1-0.2c-3.5,2.7-5.8,6.9-5.9,11.7H111.5z"/>
		<path fill="#010101" d="M123.9-99.5c-1.8-1.4-3.3-3.2-4.3-5.2c-1-2.1-1.6-4.3-1.6-6.6h-2.8v14.8C118.5-96.6,121.5-97.7,123.9-99.5
			z"/>
	</g>
	<g>
		<circle fill-rule="evenodd" clip-rule="evenodd" cx="215" cy="-122.5" r="2.3"/>
		<rect x="200.2" y="-114.1" fill-rule="evenodd" clip-rule="evenodd" width="1.8" height="7.3"/>
		<path fill-rule="evenodd" clip-rule="evenodd" d="M224.7-111.1H221l-0.1-6.3c0-1.2-1-2.2-2.2-2.2h-7.6c-1.2,0-2.2,1-2.2,2.2l0,6.3
			h-3.7v-4.1h-2.5v9.6h2.5v-4.1h3.7h2.1h0.6c-0.2,3.6-0.6,12.2-0.6,12.2h2.9l0.6-11.2c0.1,0,0.5,0,0.6,0l0.9,11.2h2.9
			c0,0-0.6-8.6-0.8-12.2h0.6h2.1h3.8v4.1h2.5v-9.6h-2.5V-111.1z M211.2-111.1L211.2-111.1v-4.7c0-0.2,0.1-0.3,0.3-0.3
			c0.2,0,0.3,0.1,0.3,0.3v3.9c0,0,0,0.3,0,0.8H211.2z M218.8-111.1h-0.6c0-0.5,0-0.8,0-0.8v-3.9c0-0.2,0.1-0.3,0.3-0.3
			c0.2,0,0.3,0.1,0.3,0.3V-111.1z"/>
		<rect x="228" y="-114.1" fill-rule="evenodd" clip-rule="evenodd" width="1.8" height="7.3"/>
	</g>
	<g>
		<path fill="#010101" d="M267.9-104.2c1.5-0.1,2.9-0.2,2.9-0.2l-2.2-1.3l-2.7-1.5l-4.1-2.3l-2.7-1.5l-2.2-1.3c0,0,0.7,1.2,1.4,2.5
			c0.8,1.5,1.5,3.1,1.4,3.4c-0.2,0.7-3.2,5.3-3.9,6.3c-0.5,0.8,0.9,2.2,1.9,2.8c1,0.5,2.9,1,3.3,0.1c0.5-1.3,2.8-6.1,3.3-6.6
			C264.5-103.9,266.3-104.1,267.9-104.2z"/>
		<g>
			<path fill="#010101" d="M276.7-109.7c3.3-5.8,1.8-12.8-3.3-15.7c-5.1-2.8-11.8-0.4-15.1,5.4c-1.2,2.2-1.8,4.5-1.7,6.7l15.3,8.6
				C273.7-105.8,275.4-107.5,276.7-109.7z"/>
		</g>
	</g>
	<circle fill="#010101" cx="255.6" cy="-123.4" r="2.6"/>
	<g>
		<path d="M27.5-72.4V-76L22-80.5l-1.3,1.1c-1-0.9-2.3-1.5-3.7-1.5c-2,0-3.7,1-4.7,2.6c-0.8-0.5-1.7-0.7-2.7-0.7
			c-3.1,0-5.6,2.5-5.6,5.6c0,0.1,0,0.2,0,0.3c-1.9,0.7-3.3,2.3-3.7,4.3c0,0,0,0.1,0,0.1c0,0.3-0.1,0.5-0.1,0.8c0,0,0,0,0,0
			c0,0,0,0,0,0c0,0,0,0,0,0c0,3.1,2.5,5.5,5.6,5.5c0.1,0,0.2,0,0.4,0l0,0c0.3,0,0.5-0.1,0.8-0.1v1.3c-1.3,0.2-2.3,1.4-2.3,2.8
			c0,1.6,1.3,2.8,2.8,2.8c1.6,0,2.8-1.3,2.8-2.8c0-1.4-1-2.5-2.3-2.8v-1.6c0.2-0.1,0.4-0.2,0.6-0.3c0.8,0.5,1.8,0.8,2.8,0.8
			c0.7,0,1.3-0.1,1.9-0.3v9.7h-1.9v1.9h7.5v-1.9H17v-9.3c0.3,0,0.6,0,0.9-0.1c0.3,0.1,0.6,0.1,0.9,0.1c1,0,2-0.3,2.8-0.8
			c0.8,0.5,1.8,0.8,2.8,0.8c3.1,0,5.6-2.5,5.6-5.6C30-69.8,29-71.5,27.5-72.4z M9.2-58.3c0,1-0.8,1.8-1.8,1.8c-1,0-1.8-0.8-1.8-1.8
			s0.8-1.8,1.8-1.8C8.4-60.1,9.2-59.3,9.2-58.3z M26.5-68.1H22v-4.1h-3v4.1h-1.5v-7.5l4.5-3.7l4.5,3.7V-68.1z"/>
		<circle cx="24.3" cy="-74.8" r="1.3"/>
	</g>
	<g>
		<g>
			<polygon fill="#010101" points="77,-66.1 53.4,-62.8 50,-65.8 50.9,-66.8 53.8,-64.1 76.3,-67.3 79,-70.8 80,-70 			"/>
		</g>
		<g>
			<g>
				<circle fill="#010101" cx="57.1" cy="-61" r="1.5"/>
			</g>
			<g>
				<g>
					<circle fill="#010101" cx="74.5" cy="-63.5" r="1.5"/>
				</g>
			</g>
		</g>
	</g>
	<g>
		<polygon fill="#010101" points="109.7,-67.3 111.8,-61.1 118.2,-61.1 120.3,-67.3 115,-71.1 		"/>
		<path fill="#010101" d="M115-81.1c-8.3,0-15,6.7-15,15s6.7,15,15,15s15-6.7,15-15S123.3-81.1,115-81.1z M126.6-61.1
			c-0.4,0.9-0.9,1.8-1.5,2.6l-0.1-1.3l-4.7,1.1l-2.5,4.2l1.3,0.6c-1.3,0.4-2.7,0.7-4.1,0.7c-1.4,0-2.7-0.2-4-0.7l1.3-0.6l-2.5-4.2
			l-4.7-1.1l-0.1,1.4c-0.6-0.8-1.1-1.7-1.5-2.6c-0.7-1.6-1-3.2-1-4.9c0,0,0-0.1,0-0.1l0.9,0.9l3.2-3.7l-0.4-4.8l-1.2,0.2
			c0.4-0.5,0.8-1,1.3-1.5c1.2-1.2,2.5-2.1,4-2.7c0.3-0.1,0.7-0.3,1-0.4l-0.6,1.1l4.5,1.9l4.5-1.9l-0.6-1.1c0.4,0.1,0.7,0.2,1.1,0.4
			c1.5,0.6,2.9,1.5,4,2.7c0.5,0.5,0.9,1,1.3,1.5l-1.2-0.2l-0.4,4.8l3.2,3.7l0.9-0.9c0,0,0,0,0,0.1C127.6-64.3,127.3-62.7,126.6-61.1
			z"/>
	</g>
	<g id="Layer_4">
		<polygon fill="#010101" points="163.2,-53 165.8,-53 165.8,-58.3 164.5,-59.8 163.2,-58.3 		"/>
		<g>
			<path fill="#010101" d="M160.6-76.3c-0.4-0.2-0.6-0.6-0.7-1c-0.1-0.4,0-0.8,0.2-1.2c0.2-0.4,0.6-0.6,1-0.7c0.4-0.1,0.8,0,1.2,0.2
				c0.4,0.2,0.6,0.6,0.7,1c0.1,0.4,0,0.8-0.2,1.2c-0.2,0.4-0.6,0.6-1,0.7C161.3-76,160.9-76.1,160.6-76.3z"/>
			<path fill="#010101" d="M153.6-70.1l4-0.6l-2.4-2.4c-0.1-0.1-0.2-0.3-0.3-0.5c-0.2-0.6,0.1-0.9,0.6-1.3l2.3-2
				c0.2-0.2,0.4-0.3,0.6-0.3c0.4-0.1,0.7,0,1,0.2c0.3,0.2,0.5,0.5,0.6,0.9c0.1,0.5-0.1,0.9-0.5,1.2l-1.9,1.6l2,2
				c0.1,0.1,0.2,0.3,0.2,0.6c0,0.3,0,0.5-0.2,0.7c-0.2,0.3-0.4,0.4-0.7,0.5l-5.1,0.9L153.6-70.1z"/>
		</g>
		<path fill="#010101" d="M177.1-63c-0.4,0.2-0.8,0.2-1.2,0.1c-0.4-0.1-0.7-0.4-0.9-0.8c-0.2-0.4-0.2-0.8-0.1-1.2
			c0.1-0.4,0.4-0.7,0.8-0.9c0.4-0.2,0.8-0.2,1.2-0.1c0.4,0.1,0.7,0.4,0.9,0.8c0.2,0.4,0.2,0.8,0.1,1.2
			C177.7-63.5,177.5-63.2,177.1-63z"/>
		<path fill="#010101" d="M150.5-66.7l21.1,8c0.1-0.2,0.2-0.3,0.4-0.4c0.2-0.1,0.5-0.2,0.7-0.1l2.7,0.7l0-2.5c0-0.5,0.2-0.9,0.7-1.2
			c0.3-0.2,0.7-0.2,1.1-0.1c0.4,0.1,0.7,0.3,0.8,0.7c0.1,0.2,0.1,0.4,0.1,0.7l0,3.1c0,0.6-0.1,1-0.7,1.3c0,0-0.1,0-0.2,0l2.8,1
			l-0.5,1.4l-4.9-1.9l-0.6-1.1l-0.2,0.1l-0.2,0.1l1.8,3.4l-0.7,0.4l-0.8,0.3l-2.3-4.4L150-65.3L150.5-66.7z"/>
	</g>
	<circle fill="none" cx="206.4" cy="-74.1" r="0.7"/>
	<circle fill="none" cx="204.6" cy="-72.4" r="0.7"/>
	<circle fill="none" cx="204" cy="-74.8" r="0.7"/>
	<g>
		<path fill="#010101" d="M219.6-66.7c0.3,0,0.7,0.1,1,0.2l0.9,0.3l-1.1-11.7l-0.3-3.1h-3.1l-0.3,3.1h-3.9l-0.3-3.1h-3.1l-0.3,3.1
			h-3.9l-0.3-3.1h-3.1l-0.3,3.1h0l-1.7,18.8c0,0,4.8,1.6,11,1.6c1.6,0,3.1-0.1,4.5-0.3l1.4-6.6C217.1-65.8,218.2-66.7,219.6-66.7z
			 M203.5-75.3c0.3-0.3,0.7-0.3,1,0c0.3,0.3,0.3,0.7,0,1c-0.3,0.3-0.7,0.3-1,0C203.2-74.5,203.2-75,203.5-75.3z M205.1-71.9
			c-0.3,0.3-0.7,0.3-1,0c-0.3-0.3-0.3-0.7,0-1c0.3-0.3,0.7-0.3,1,0C205.4-72.6,205.4-72.2,205.1-71.9z M206.9-73.6
			c-0.3,0.3-0.7,0.3-1,0c-0.3-0.3-0.3-0.7,0-1c0.3-0.3,0.7-0.3,1,0C207.2-74.4,207.2-73.9,206.9-73.6z"/>
		<circle fill="#010101" cx="223.5" cy="-53" r="0.7"/>
		<path fill="#010101" d="M229.4-61.2l-3.3-1.2l3.4-10.5l-2.8-1l-3.4,10.5l-3.3-1.2c-0.1,0-0.2-0.1-0.3-0.1c-0.4,0-0.7,0.3-0.8,0.7
			l-1.9,9.3c-0.1,0.3,0,0.5,0.1,0.7c1-0.8,2.3-1.6,3.9-2.2c2-0.8,4.7-0.7,6.7,0.5l2.3-4.3C230.2-60.4,229.9-61,229.4-61.2z"/>
		<circle fill="#010101" cx="225.6" cy="-54.2" r="0.7"/>
		<circle fill="#010101" cx="225.6" cy="-51.8" r="0.7"/>
	</g>
	<path fill="none" d="M72.4-115.8l-0.4,0.7c0.3,0.2,0.6,0.4,0.9,0.5l0.4-0.7C72.9-115.5,72.6-115.6,72.4-115.8z"/>
	<path fill="none" d="M70.1-112.2c0.3,0.1,0.6,0.3,0.9,0.5l0.4-0.7c-0.3-0.2-0.6-0.3-0.9-0.5L70.1-112.2z"/>
	<circle cx="54.1" cy="-103.2" r="4.1"/>
	<path d="M79.9-110.5c-1.7,1.4-2.8,3.6-2.8,6c0,0.7,0.1,1.4,0.3,2.1c1.6-1.8,2.6-4.2,2.6-6.8C80-109.7,80-110.1,79.9-110.5z"/>
	<path d="M69.8-119.4c-0.1,0-0.3,0-0.4,0c0.5,1.1,1.2,2.1,2.1,2.9l1.5-2.4C72-119.2,70.9-119.4,69.8-119.4z"/>
	<path d="M73.3-115.3l1.7-2.7c-0.3-0.2-0.6-0.3-0.9-0.5l-1.7,2.6C72.6-115.6,72.9-115.5,73.3-115.3z"/>
	<path d="M76.7-114.5c0.6,0,1.2-0.1,1.7-0.2c-0.7-1.1-1.6-2-2.6-2.7l-1.6,2.5C75-114.7,75.8-114.5,76.7-114.5z"/>
	<path d="M68.6-119.3c-4.9,0.6-8.7,4.6-8.9,9.6c1.5-2.4,4.2-4,7.3-4c0.9,0,1.8,0.1,2.6,0.4l1.6-2.5C70-116.7,69.1-117.9,68.6-119.3z
		"/>
	<path d="M70.5-112.9c0.3,0.1,0.6,0.3,0.9,0.5l1.4-2.2c-0.3-0.2-0.6-0.3-0.9-0.5L70.5-112.9z"/>
	<path d="M79.8-111.4c-0.2-0.9-0.5-1.8-0.9-2.5c-0.7,0.2-1.4,0.3-2.1,0.3c-1,0-2-0.2-2.9-0.5l-1.5,2.4c2,1.6,3.3,4,3.3,6.8
		c0,1.9-0.6,3.6-1.7,5.1c1-0.5,1.9-1.1,2.8-1.8c-0.3-0.9-0.5-1.8-0.5-2.7C76.3-107.3,77.6-109.8,79.8-111.4z"/>
	<path d="M69.8-99.1c0.9,0,1.7-0.1,2.6-0.3c1.5-1.4,2.4-3.4,2.4-5.6c0-2.5-1.1-4.7-2.9-6.1l-6.8,10.9C66.5-99.5,68.1-99.1,69.8-99.1
		z"/>
	<path d="M70.1-112.2l-6.7,10.8c0.3,0.2,0.5,0.4,0.8,0.6l6.8-10.9C70.7-111.9,70.4-112,70.1-112.2z"/>
	<path d="M66.9-112.8c-3.2,0-6,2-7.2,4.8c0.3,2.3,1.3,4.4,2.8,5.9l6.5-10.4C68.4-112.7,67.7-112.8,66.9-112.8z"/>
	<path fill="#010101" d="M177.9-107.6c0.1-0.5,0.1-1,0.1-1.5c0-4.2-3.5-7.6-7.8-7.6c-0.2,0-0.5,0-0.7,0c-1,0.8-2.2,1.5-3.6,2.1
		c-1.2,0.6-2.4,1.1-3.5,1.4c0-0.2,0-0.4-0.1-0.5c1.1-0.3,2.2-0.8,3.4-1.4c0.9-0.5,1.8-0.9,2.5-1.4c1-0.7,1.9-1.4,2.6-2.1
		c1.1-1.2,1.6-2.2,1.3-2.8c-0.2-0.5-0.9-0.7-2-0.7c-1.8,0-4.4,0.8-7,2c-2.1,1-3.7,2.2-4.8,3.2c-1.4-0.2-3,0.1-4.5,0.9
		c-3.2,1.7-4.8,5-3.5,7.4c1,1.8,3.3,2.6,5.8,2.1l0.1,0.1c-1.3,2.1-1.3,4.8-1.3,4.8h3.2h2.7c0-2.8,4-3.2,4.2-3.2l0,0.3l0,0.3
		c0,0-0.2,0-0.5,0.1c-0.9,0.2-3.1,0.8-3.2,2.4c0,0.1,0,0.1,0,0.2h2.2h6.9l0,0c2.2-0.1,4.1-1,5.5-2.5c0.4,0.5,1,0.8,1.7,0.8
		c1.2,0,2.3-1,2.3-2.3C180-106.6,179.1-107.5,177.9-107.6z M154.4-111.7c-0.5,0-0.9-0.4-0.9-0.9c0-0.5,0.4-0.9,0.9-0.9
		c0.5,0,0.9,0.4,0.9,0.9C155.3-112.1,154.9-111.7,154.4-111.7z"/>
	<path fill="#010101" d="M282-54.3l-9.4-9.4c1.2-1.8,1.9-4,1.9-6.2c0-3-1.2-5.8-3.3-7.9c-2.1-2.1-4.9-3.3-7.9-3.3
		c-3,0-5.8,1.2-7.9,3.3c-2.1,2.1-3.3,4.9-3.3,7.9c0,3,1.2,5.8,3.3,7.9c2.1,2.1,4.9,3.3,7.9,3.3c2.3,0,4.4-0.7,6.3-1.9l9.4,9.4
		c0.3,0.3,0.9,0.2,1.3-0.2l1.6-1.6C282.3-53.4,282.3-54,282-54.3z M263.4-61.8c-4.5,0-8.1-3.7-8.1-8.1c0-4.5,3.6-8.1,8.1-8.1
		s8.1,3.7,8.1,8.1C271.5-65.4,267.9-61.8,263.4-61.8z"/>
	<g id="Your_Icon">
		<path fill="#010101" d="M282.2-34.4h-24.3l-1.1-3.5h-4.7l0.6,1.7h2.8l5.5,17.2c-1.2,0.2-2.1,1.3-2.1,2.5c0,1.4,1.2,2.6,2.6,2.6
			c1.4,0,2.6-1.1,2.6-2.6c0-0.3-0.1-0.6-0.2-0.9h7.2c-0.1,0.3-0.2,0.6-0.2,0.9c0,1.4,1.2,2.6,2.6,2.6c1.4,0,2.6-1.1,2.6-2.6
			c0-1.4-1.1-2.5-2.4-2.6c0,0-0.2,0-0.2,0l-10.7,0l-1.1-3.4h13.5L282.2-34.4z"/>
	</g>
	<path fill="#010101" d="M176-21.2c-0.2-0.1-0.4-0.2-0.6-0.3l-0.1,0c0,0-1-0.5-1.1-4.4c-0.1-3.9,0.9-4.5,0.9-4.5l0.1-0.1
		c1-0.5,1.8-1.3,2.3-2.3c1.4-2.7,0.4-6-2.3-7.4c-2.7-1.4-6-0.4-7.4,2.3c-0.6,1.1-0.7,2.3-0.6,3.4l0,0c0,0,0.3,1.3-3.1,3.4
		c-3.3,2.1-4.9,1.1-4.9,1.1l-0.2-0.1c-2.7-1.4-6-0.4-7.4,2.3c-1.4,2.7-0.4,6,2.3,7.4c2,1.1,4.3,0.8,6-0.6l0,0c0,0,1.1-0.9,4.6,1
		c2.8,1.5,3.2,2.9,3.2,3.5c-0.1,2,1,4,2.9,5c2.7,1.4,6,0.4,7.4-2.3C179.7-16.4,178.7-19.8,176-21.2z M153.3-22.4
		C153.3-22.4,153.3-22.4,153.3-22.4C153.3-22.4,153.3-22.4,153.3-22.4L153.3-22.4z M159.2-28.7c-0.7-0.6-2.4-0.5-3.9,0.4
		c0.2,0.2,0.3,0.4,0.3,0.7c0,0.6-0.5,1.2-1.1,1.2c-0.1,0-0.2,0-0.3,0c0,0,0,0-0.1,0c-0.4-0.1-0.7,0.2-0.8,0.3c-0.8,1.5-0.8,3,0,3.7
		c-1.5-1.5-1.5-4,0.1-5.8C155-29.9,157.6-30.2,159.2-28.7L159.2-28.7z M169.4-38.5c1.6-1.8,4.2-2,5.8-0.6l0,0
		c-0.7-0.6-2.4-0.5-3.9,0.4c0.2,0.2,0.3,0.4,0.3,0.7c0,0.6-0.5,1.2-1.1,1.2c-0.1,0-0.2,0-0.3,0c0,0,0,0-0.1,0
		c-0.4-0.1-0.7,0.2-0.8,0.3c-0.8,1.5-0.8,3,0,3.7C167.8-34.2,167.8-36.7,169.4-38.5z M165.4-21.6c-2.9-1.5-3.3-2.8-3.4-3.2
		c0-0.5,0-0.9-0.1-1.4l0,0c0,0-0.2-1.3,3.1-3.3c3-1.8,4.3-1.5,4.5-1.4c0.2,0.1,0.3,0.2,0.5,0.3c0.3,0.2,0.7,0.3,1,0.4
		c0.4,0.4,1.2,1.5,1.2,4.4c0.1,2.9-0.8,4-1.2,4.4c-0.5,0.2-0.9,0.5-1.3,0.9C169.4-20.3,168.1-20.1,165.4-21.6z M170.3-13.6
		C170.3-13.6,170.3-13.7,170.3-13.6C170.3-13.7,170.3-13.6,170.3-13.6L170.3-13.6z M176.1-20c-0.7-0.6-2.4-0.5-3.9,0.4
		c0.2,0.2,0.3,0.4,0.3,0.7c0,0.6-0.5,1.2-1.1,1.2c-0.1,0-0.2,0-0.3,0c0,0,0,0-0.1,0c-0.4-0.1-0.7,0.2-0.8,0.3c-0.8,1.5-0.8,3,0,3.7
		c-1.5-1.5-1.5-4,0.1-5.8C172-21.2,174.6-21.4,176.1-20L176.1-20z"/>
	<path fill="#010101" d="M200-29.1C200-29.1,200-29.1,200-29.1L200-29.1C200-29.2,200-29.1,200-29.1z"/>
	<g>
		<ellipse fill="#010101" cx="209" cy="-29.7" rx="1" ry="1"/>
		<path fill="#010101" d="M220.5-24.5c0.6-0.1,0.9-0.7,0.8-1.2c-0.1-0.6-0.7-0.9-1.3-0.8c-0.6,0.1-0.9,0.7-0.8,1.2
			C219.4-24.7,220-24.4,220.5-24.5z"/>
		<path fill="#010101" d="M227.1-17c-1.4,0-3-1.5-4.8-3.2c-0.2-0.2-0.4-0.4-0.6-0.5l-0.6-2.5c-0.1-0.6-0.7-1-1.3-0.8
			c-0.5,0.1-0.8,0.5-0.9,1c-1.7-1.3-3.7-2.2-6-2.2v-9.9l-6.7-3.7l-6.2,3.7v9.9v3.3v9.1h1.3v-1.7h4.2v1.7h1.3v-1.7h5v1.7h1.3v-9.1
			v-0.8c2.9,0,5.4,2.2,7.7,4.4c2.1,2,4.1,3.8,6.5,3.8h0.4v1.7h1.2v-1.7h1.2V-17H227.1z M205.4-15.3h-4.2V-17h4.2L205.4-15.3
			L205.4-15.3z M205.4-17.8h-4.2v-1.7h4.2L205.4-17.8L205.4-17.8z M205.4-20.3h-4.2v-1.7h4.2L205.4-20.3L205.4-20.3z M211.7-25.2
			h-1.3l-0.5-2.1c-0.1-0.6-0.7-1-1.3-0.8c-0.6,0.1-1,0.7-0.8,1.3l0.4,1.6h-6.8v-9.1h10.4L211.7-25.2L211.7-25.2z"/>
	</g>
	<g>
		<path fill="#585D5C" d="M124.6-21.6c-3,0-5.4,2.4-5.4,5.3c0,2.9,2.4,5.3,5.4,5.3c3,0,5.4-2.4,5.4-5.3
			C130-19.2,127.6-21.6,124.6-21.6z M124.6-13.7c-1.4,0-2.6-1.1-2.6-2.5c0-1.4,1.2-2.5,2.6-2.5c1.4,0,2.6,1.1,2.6,2.5
			C127.1-14.8,126-13.7,124.6-13.7z"/>
		<path fill="#585D5C" d="M114.3-25.4c1.2,0,2.3-0.1,3.4-0.4l1.9,4.3c0.9-0.9,2.1-1.5,3.4-1.7l-1.8-4c4.3-2.4,7.3-7,7.3-12.2
			c0-0.8,0-1.4,0-1.4H100c0,0,0,0.6,0,1.4c0,5.3,2.9,9.8,7.3,12.2L100-10.9h4.1l1.6-3.5h11.8c-0.2-0.6-0.2-1.2-0.2-1.9
			c0-0.7,0.1-1.3,0.3-1.9h-10.1l3.4-7.7C111.9-25.6,113.1-25.4,114.3-25.4z M102.9-38h4.2c0.4,4.3,2.5,7.9,5.5,9.7
			C107.6-29.1,103.6-33,102.9-38z"/>
	</g>
	<path fill="#585D5C" d="M12.1-24.9c-0.2-1.2-1.3-2.1-2.5-2.1c-1.4,0-2.3,1.1-2.6,2.6L6.6-22L0-15.4h6L7-13l1.1-2.7
		c2.3-0.7,4-2.9,4-5.5v-2L14-24L12.1-24.9z M10.1-23.8c-0.3,0-0.6-0.3-0.6-0.6c0-0.3,0.3-0.6,0.6-0.6s0.6,0.3,0.6,0.6
		C10.6-24,10.4-23.8,10.1-23.8z"/>
	<g>
		<path fill="#585D5C" d="M20-18.1c-0.6-0.6-1.4-0.9-2.2-0.9l0,0l-3,0l0,3l0,0c0,0.8,0.3,1.6,0.9,2.2c0,0,0,0,0,0
			c1.2,1.2,3.1,1.2,4.3,0c0.6-0.6,0.9-1.4,0.9-2.1C20.9-16.8,20.6-17.5,20-18.1C20-18.1,20-18.1,20-18.1z"/>
		<path fill="#585D5C" d="M23.9-21.5c1.7,0,3-1.3,3-3c1.7,0,3-1.3,3-3c0-0.9-0.4-1.6-1-2.2c0.6-0.5,1-1.3,1-2.2c0-1.7-1.3-3-3-3
			c0-1.7-1.3-3-3-3c-0.9,0-1.6,0.4-2.2,1c-0.5-0.6-1.3-1-2.2-1c-1.7,0-3,1.3-3,3c-1.7,0-3,1.3-3,3c0,0.9,0.4,1.6,1,2.2
			c-0.6,0.5-1,1.3-1,2.2c0,1.7,1.3,3,3,3c0,1.7,1.3,3,3,3c0.5,0,1-0.1,1.4-0.3v5.9v3h1.6v-3c0,0.8,0.3,1.5,0.9,2.1
			c1.2,1.2,3.1,1.2,4.3,0c0,0,0,0,0,0c0.6-0.6,0.9-1.4,0.9-2.2l0,0l0-3l-3,0l0,0c-0.8,0-1.6,0.3-2.2,0.9c0,0,0,0,0,0
			c-0.6,0.6-0.9,1.4-0.9,2.1v-5.9C22.9-21.6,23.4-21.5,23.9-21.5z M16.5-29.7c0-2.9,2.3-5.2,5.2-5.2c2.9,0,5.2,2.3,5.2,5.2
			c0,2.9-2.3,5.2-5.2,5.2C18.8-24.5,16.5-26.9,16.5-29.7z"/>
	</g>
	<rect x="28.3" y="36.9" fill="none" width="3.3" height="3.3"/>
	<g>
		<path fill="#585D5C" d="M17.5,7.7c0,0-0.3,0-0.3-0.6C17.2,6.5,16.7,6,16,6c-0.7,0-1.2,0.5-1.2,1.2c0,0.6-0.3,0.6-0.3,0.6
			c-0.2,0-0.3,0.1-0.3,0.3c0,0.2,0.1,0.3,0.3,0.3h3c0.2,0,0.3-0.1,0.3-0.3C17.8,7.9,17.7,7.7,17.5,7.7z"/>
		<circle fill="#585D5C" cx="16" cy="9.2" r="0.6"/>
		<circle fill="#585D5C" cx="16" cy="1" r="0.9"/>
		<path fill="#585D5C" d="M21.4,15.7l-1.8-5.4V5.5c0.3,0,0.6-0.3,0.6-0.6s-0.3-0.6-0.6-0.6h-1.2c0-1.3-1.1-2.4-2.4-2.4
			c-1.3,0-2.4,1.1-2.4,2.4h-1.2c-0.3,0-0.6,0.3-0.6,0.6s0.3,0.6,0.6,0.6v4.8l-1.8,5.4h-3v1.8h1.2v3.6v4.7v4h14.3v-4v-4.7v-3.6h1.2
			v-1.8H21.4z M13.6,5.5h4.8v4.8h-4.8V5.5z M14.8,25.8L14.8,25.8l0,1.8h-3.6v-1.8v-4.7V21c0-1,0.8-1.8,1.8-1.8c1,0,1.8,0.8,1.8,1.8
			v0.1V25.8z M20.8,25.8L20.8,25.8l0,1.8h-3.6v-1.8v-4.7V21c0-1,0.8-1.8,1.8-1.8c1,0,1.8,0.8,1.8,1.8v0.1V25.8z"/>
	</g>
	<path fill="#585D5C" d="M75.4,17.9L75.4,17.9c7.7,4.9-14.3,4.6-15,12.1h19.7C67.7,27.2,85.1,20.1,75.4,17.9z"/>
	<path fill="#585D5C" d="M75.5,5.4c0.8-0.2,1.9-0.9,1.9-0.9C74.7,2.5,73.6,0,73.6,0h0c0,0-1.1,2.5-3.9,4.4c0,0,1.1,0.8,1.9,0.9
		c0,0-1.3,2.2-4.6,3.1c0,0,2.5,2.1,5.5,2v2.6H74h0.6v-2.6c3.1,0.1,5.5-2,5.5-2C76.8,7.5,75.5,5.4,75.5,5.4z"/>
	<path fill="#585D5C" d="M67.8,10.4c0-0.1,0-0.1,0-0.2c0-2-1.5-3.6-3.4-3.7c-0.7-0.8-1.7-1.3-2.8-1.3c-1.3,0-2.5,0.7-3.2,1.7
		c-0.5-0.3-1.2-0.5-1.8-0.5c-2.1,0-3.7,1.7-3.7,3.7c0,0.1,0,0.1,0,0.2c-1.6,0.4-2.8,1.9-2.8,3.7c0,2.1,1.7,3.8,3.8,3.8
		c0.8,0,1.5-0.2,2.1-0.7c0,0,0,0,0,0c0.6,0.3,1.2,0.5,1.9,0.5c0.4,0,0.9-0.1,1.2-0.2V24h2.5v-6.2c0.2,0,0.4,0,0.6-0.1
		c0.2,0,0.4,0.1,0.6,0.1c0.7,0,1.3-0.2,1.9-0.5c0.6,0.3,1.2,0.5,1.9,0.5c2.1,0,3.7-1.7,3.7-3.7C70.3,12.3,69.3,10.9,67.8,10.4z"/>
	<path fill="#585D5C" d="M76.5-27.2c0-0.1,0-0.1,0-0.2c0-2-1.5-3.6-3.4-3.7c-0.7-0.8-1.7-1.3-2.8-1.3c-1.3,0-2.5,0.7-3.2,1.7
		c-0.5-0.3-1-0.4-1.5-0.5c0.1-0.3,0.2-0.7,0.2-1.1c0-1.1-0.7-2.1-1.8-2.5c0-0.1,0-0.1,0-0.2c0-1.4-1.1-2.5-2.4-2.6
		c-0.5-0.5-1.2-0.9-2-0.9c-0.9,0-1.8,0.5-2.2,1.2c-0.4-0.2-0.8-0.4-1.3-0.4c-1.5,0-2.6,1.2-2.6,2.6c0,0,0,0.1,0,0.1
		c-1.1,0.3-2,1.3-2,2.6c0,1.5,1.2,2.7,2.7,2.7c0.6,0,1.1-0.2,1.5-0.5c0,0,0,0,0,0c0.4,0.2,0.8,0.4,1.3,0.4c0.3,0,0.6-0.1,0.9-0.2
		v1.7c-0.5,0.2-1,0.6-1.3,1.1c-0.4-0.2-0.9-0.4-1.4-0.4c-1.6,0-3,1.3-3,3c0,0.1,0,0.1,0,0.2C51-23.9,50-22.8,50-21.4
		c0,1.6,1.3,3,3,3c0.6,0,1.2-0.2,1.7-0.5c0,0,0,0,0,0c0.4,0.3,0.9,0.4,1.5,0.4c0.3,0,0.7-0.1,1-0.2v5.1h2v-4.9c0.2,0,0.3,0,0.5,0
		c0.2,0,0.3,0,0.5,0c0.5,0,1-0.2,1.5-0.4c0.4,0.3,0.9,0.4,1.5,0.4c1.1,0,2.1-0.6,2.6-1.5c0.3,0.1,0.6,0.1,0.9,0.1
		c0.4,0,0.9-0.1,1.2-0.2v6.5h2.5v-6.2c0.2,0,0.4,0,0.6-0.1c0.2,0,0.4,0.1,0.6,0.1c0.7,0,1.3-0.2,1.9-0.5c0.6,0.3,1.2,0.5,1.9,0.5
		c2.1,0,3.7-1.7,3.7-3.7C79-25.3,77.9-26.7,76.5-27.2z M60.1-29.6c0.1,0,0.3,0,0.4,0c0.5,0,0.9-0.1,1.3-0.4c0.1,0.1,0.3,0.1,0.5,0.2
		c-0.5,0.6-0.8,1.4-0.8,2.3c0,0,0,0.1,0,0.1c-0.1,0-0.1,0-0.2,0c-0.4-0.5-1-0.8-1.6-0.9v-1.3C59.8-29.6,60-29.6,60.1-29.6z"/>
</g>
</svg>
