<?xml version="1.0" encoding="UTF-8" standalone="no"?>
<svg width="32px" height="32px" viewBox="0 0 32 32" version="1.1" xmlns="http://www.w3.org/2000/svg" xmlns:xlink="http://www.w3.org/1999/xlink" xmlns:sketch="http://www.bohemiancoding.com/sketch/ns">
    <!-- Generator: Sketch 3.0.4 (8053) - http://www.bohemiancoding.com/sketch -->
    <title>instagram</title>
    <desc>Created with Sketch.</desc>
    <defs></defs>
    <g id="Page-1" stroke="none" stroke-width="1" fill="none" fill-rule="evenodd" sketch:type="MSPage">
        <g id="instagram" sketch:type="MSArtboardGroup" fill="#FFFFFF">
            <path d="M23.0800781,6 C23.8873738,6 24.5758435,6.28482788 25.1455078,6.85449219 C25.7151721,7.42415649 26,8.11262617 26,8.91992188 L26,23.0800781 C26,23.8873738 25.7151721,24.5758435 25.1455078,25.1455078 C24.5758435,25.7151721 23.8873738,26 23.0800781,26 L8.91992188,26 C8.11262617,26 7.42415649,25.7151721 6.85449219,25.1455078 C6.28482788,24.5758435 6,23.8873738 6,23.0800781 L6,8.91992188 C6,8.11262617 6.28482788,7.42415649 6.85449219,6.85449219 C7.42415649,6.28482788 8.11262617,6 8.91992188,6 L23.0800781,6 Z M16,12.25 C14.9648386,12.25 14.0810583,12.6162073 13.3486328,13.3486328 C12.6162073,14.0810583 12.25,14.9648386 12.25,16 C12.25,17.0351614 12.6162073,17.9189417 13.3486328,18.6513672 C14.0810583,19.3837927 14.9648386,19.75 16,19.75 C17.0351614,19.75 17.9189417,19.3837927 18.6513672,18.6513672 C19.3837927,17.9189417 19.75,17.0351614 19.75,16 C19.75,14.9648386 19.3837927,14.0810583 18.6513672,13.3486328 C17.9189417,12.6162073 17.0351614,12.25 16,12.25 Z M23.9199219,23.5 L23.9199219,14.75 L21.703125,14.75 C21.7877608,15.1341165 21.8300781,15.550779 21.8300781,16 C21.8300781,17.0546928 21.5696641,18.0296179 21.0488281,18.9248047 C20.5279922,19.8199915 19.8199915,20.5279922 18.9248047,21.0488281 C18.0296179,21.5696641 17.0546928,21.8300781 16,21.8300781 C14.9453072,21.8300781 13.9703821,21.5696641 13.0751953,21.0488281 C12.1800085,20.5279922 11.4720078,19.8199915 10.9511719,18.9248047 C10.4303359,18.0296179 10.1699219,17.0546928 10.1699219,16 C10.1699219,15.550779 10.2122392,15.1341165 10.296875,14.75 L8.08007812,14.75 L8.08007812,23.5 C8.08007812,23.6171881 8.12076782,23.7164709 8.20214844,23.7978516 C8.28352905,23.8792322 8.38281191,23.9199219 8.5,23.9199219 L23.5,23.9199219 C23.6171881,23.9199219 23.7164709,23.8792322 23.7978516,23.7978516 C23.8792322,23.7164709 23.9199219,23.6171881 23.9199219,23.5 Z M23.9199219,11 L23.9199219,8.5 C23.9199219,8.38281191 23.8792322,8.28352905 23.7978516,8.20214844 C23.7164709,8.12076782 23.6171881,8.08007812 23.5,8.08007812 L21,8.08007812 C20.8828119,8.08007812 20.7835291,8.12076782 20.7021484,8.20214844 C20.6207678,8.28352905 20.5800781,8.38281191 20.5800781,8.5 L20.5800781,11 C20.5800781,11.1171881 20.6207678,11.2164709 20.7021484,11.2978516 C20.7835291,11.3792322 20.8828119,11.4199219 21,11.4199219 L23.5,11.4199219 C23.6171881,11.4199219 23.7164709,11.3792322 23.7978516,11.2978516 C23.8792322,11.2164709 23.9199219,11.1171881 23.9199219,11 Z" sketch:type="MSShapeGroup"></path>
        </g>
    </g>
</svg>