<?xml version="1.0" encoding="utf-8"?>
<!-- Generated by IcoMoon.io -->
<!DOCTYPE svg PUBLIC "-//W3C//DTD SVG 1.1//EN" "http://www.w3.org/Graphics/SVG/1.1/DTD/svg11.dtd">
<svg version="1.1" xmlns="http://www.w3.org/2000/svg" xmlns:xlink="http://www.w3.org/1999/xlink" width="1024" height="1024" viewBox="0 0 1024 1024"><g id="icomoon-ignore">
</g>
<path d="M992.883 813.872l-169.675 169.675q-34.147 35.141-83.812 35.141t-84.838-35.141l-169.675-169.675q-32.127-32.127-34.147-77.816t26.099-80.83l214.852 215.846q20.071 19.077 47.677 19.077t46.683-19.077l94.36-94.36q19.077-19.077 19.077-46.683t-19.077-47.677l-215.846-214.852q35.141-28.119 80.83-26.099t77.816 34.147l169.675 169.675q35.141 35.141 35.141 84.838t-35.141 83.812zM342.333 332.996q19.077-19.077 45.176-20.071t44.182 17.057l258.008 259.002q18.083 17.057 17.057 43.669t-20.071 45.689-45.176 19.59-44.182-16.576l-258.008-259.002q-18.083-18.083-17.057-44.182t20.071-45.176zM336.305 139.242q-19.077-20.071-46.683-20.071t-47.677 20.071l-93.366 93.366q-20.071 20.071-20.071 47.677t20.071 46.683l214.852 214.852q-35.141 28.119-80.83 26.099t-77.816-34.147l-169.675-169.675q-35.141-35.141-35.141-84.838t35.141-84.838l169.675-168.649q34.147-35.141 83.812-35.141t84.838 35.141l169.675 168.649q32.127 33.121 34.147 78.81t-26.099 80.83z" fill="rgb(68, 68, 68)"></path>
</svg>
