<?xml version="1.0" encoding="utf-8"?>
<!-- Generated by IcoMoon.io -->
<!DOCTYPE svg PUBLIC "-//W3C//DTD SVG 1.1//EN" "http://www.w3.org/Graphics/SVG/1.1/DTD/svg11.dtd">
<svg version="1.1" xmlns="http://www.w3.org/2000/svg" xmlns:xlink="http://www.w3.org/1999/xlink" width="1024" height="1024" viewBox="0 0 1024 1024"><g id="icomoon-ignore">
</g>
<path d="M963.77 568.913h-513.996q-27.093 0-45.689-19.077t-18.564-45.689 18.564-45.176 45.689-18.564h513.996q27.093 0 45.689 18.564t18.564 45.176-18.564 45.689-45.689 19.077zM963.77 183.424h-513.996q-27.093 0-45.689-19.077t-18.564-45.689 18.564-45.176 45.689-18.564h513.996q27.093 0 45.689 18.564t18.564 45.176-18.564 45.689-45.689 19.077zM128.507 1018.688q-53.192 0-90.865-37.642t-37.642-90.865 37.642-90.865 90.865-37.642 90.865 37.642 37.642 90.865-37.642 90.865-90.865 37.642zM128.507 633.167q-53.192 0-90.865-37.642t-37.642-90.865 37.642-90.865 90.865-37.642 90.865 37.642 37.642 90.865-37.642 90.865-90.865 37.642zM128.507 247.678q-53.192 0-90.865-37.642t-37.642-90.865 37.642-90.865 90.865-37.642 90.865 37.642 37.642 90.865-37.642 90.865-90.865 37.642zM449.742 825.927h513.996q27.093 0 45.689 18.564t18.564 45.689-18.564 45.689-45.689 18.564h-513.996q-27.093 0-45.689-18.564t-18.564-45.689 18.564-45.689 45.689-18.564z" fill="rgb(68, 68, 68)"></path>
</svg>
