<?xml version="1.0" encoding="utf-8"?>
<!-- Generated by IcoMoon.io -->
<!DOCTYPE svg PUBLIC "-//W3C//DTD SVG 1.1//EN" "http://www.w3.org/Graphics/SVG/1.1/DTD/svg11.dtd">
<svg version="1.1" xmlns="http://www.w3.org/2000/svg" xmlns:xlink="http://www.w3.org/1999/xlink" width="1024" height="1024" viewBox="0 0 1024 1024"><g id="icomoon-ignore">
</g>
<path d="M510.565-9.336c-174.549 0-312.707 142.807-312.707 321.78 0 124.724 47.966 184.905 154.093 338.197 128.026 194.043 152.778 357.915 152.778 357.915 2.95 13.498 14.524 13.498 17.41 0 0 0 18.885-163.872 149.732-357.851 61.111-91.763 154.221-213.505 154.221-338.325 0-178.909-142.582-321.716-315.56-321.716zM513.996 434.378c-72.077 0-130.495-58.418-130.495-130.495s58.418-130.495 130.495-130.495c72.077 0 130.495 58.418 130.495 130.495s-58.418 130.495-130.495 130.495z" fill="rgb(68, 68, 68)"></path>
</svg>
