<?xml version="1.0" encoding="utf-8"?>
<!-- Generator: Adobe Illustrator 18.0.0, SVG Export Plug-In . SVG Version: 6.00 Build 0)  -->
<!DOCTYPE svg PUBLIC "-//W3C//DTD SVG 1.1//EN" "http://www.w3.org/Graphics/SVG/1.1/DTD/svg11.dtd" [
	<!ENTITY ns_flows "http://ns.adobe.com/Flows/1.0/">
	<!ENTITY ns_extend "http://ns.adobe.com/Extensibility/1.0/">
	<!ENTITY ns_ai "http://ns.adobe.com/AdobeIllustrator/10.0/">
	<!ENTITY ns_graphs "http://ns.adobe.com/Graphs/1.0/">
]>
<svg version="1.1" id="Layer_1" xmlns:x="&ns_extend;" xmlns:i="&ns_ai;" xmlns:graph="&ns_graphs;"
	 xmlns="http://www.w3.org/2000/svg" xmlns:xlink="http://www.w3.org/1999/xlink" xmlns:a="http://ns.adobe.com/AdobeSVGViewerExtensions/3.0/"
	 x="0px" y="0px" viewBox="0 0 30 30" style="enable-background:new 0 0 30 30;" xml:space="preserve">
<g>
	<g>
		<path d="M24.139,14.244c-0.737,2.847-2.77,5.171-5.43,6.31l5.42,5.42v-5.87H30L24.139,14.244z"/>
		<path d="M6.008,14.749L0,20.757h5.87v5.87l5.887-5.887C9.032,19.742,6.896,17.524,6.008,14.749z"/>
		<path d="M23.496,11.87c0-4.692-3.804-8.496-8.496-8.496S6.504,7.178,6.504,11.87s3.804,8.496,8.496,8.496
			S23.496,16.562,23.496,11.87z M15,19.423c-4.171,0-7.553-3.382-7.553-7.553S10.829,4.317,15,4.317s7.553,3.382,7.553,7.553
			S19.171,19.423,15,19.423z"/>
		<circle cx="15" cy="11.87" r="6.608"/>
	</g>
</g>
</svg>
