<?xml version="1.0" encoding="utf-8"?>
<!-- Generator: Adobe Illustrator 18.0.0, SVG Export Plug-In . SVG Version: 6.00 Build 0)  -->
<!DOCTYPE svg PUBLIC "-//W3C//DTD SVG 1.0//EN" "http://www.w3.org/TR/2001/REC-SVG-20010904/DTD/svg10.dtd">
<svg version="1.0" id="Layer_1" xmlns="http://www.w3.org/2000/svg" xmlns:xlink="http://www.w3.org/1999/xlink" x="0px" y="0px"
	 viewBox="0 0 30 30" style="enable-background:new 0 0 30 30;" xml:space="preserve">
<style type="text/css">
	.st0{fill:#010101;}
</style>
<path class="st0" d="M29.2,10.5c-0.3-0.9-0.6-1.9-1.3-2.6c-0.6-0.7-1.5-1.2-2.3-1.8c-0.4,0-0.8,0-1.2,0C21.6,7.1,18.7,8,15.9,9
	c-4.3,1.3-8.5,2.7-12.8,4c-0.3,0.1-0.8,0.1-1,0c-0.6-0.4-1-0.2-1.3,0.3c-0.3,0.6-0.5,1.3-0.8,1.9c0,0.7,0,1.4,0,2.1
	c0.2,0.6,0.4,1.2,0.7,1.8c0.3,0.5,0.7,0.9,1.4,0.3c0.1-0.1,0.4-0.1,0.6-0.1c0.4,0.1,0.7,0.2,1,0.3c1.5,0.3,2.6,0.8,3.1,2.2
	c0.5,1.3,1.9,2.1,3.7,2.5c1.6,0.3,3,0,4-1.2c3.3,1,6.6,2.1,9.9,3.1c0.4,0,0.8,0,1.2,0c2.1-0.7,2.8-2.2,3.4-3.7
	c0.4-1.2,0.6-2.5,0.9-3.8c0.1-0.3,0.1-0.5,0.2-0.8c0-1.1,0-2.2,0-3.4C29.7,13.1,29.6,11.8,29.2,10.5z M23.8,9.5
	C24.1,9,24.6,8.6,25,8.2c0.4,0.4,0.9,0.8,1.2,1.3c1.2,2.4,1.4,4.9,1.3,7.4c-0.1,2-0.3,4-1.3,5.8c-0.3,0.5-0.8,0.9-1.2,1.3
	c-0.4-0.4-0.9-0.8-1.2-1.3c-1-1.9-1.2-3.9-1.4-6.4C22.5,14.3,22.6,11.8,23.8,9.5z M13.3,22.6c-1,1.5-4.6,0.6-5.6-1.8
	C9.6,21.4,11.4,22,13.3,22.6z"/>
</svg>
