<?xml version="1.0" encoding="utf-8"?>
<!-- Generated by IcoMoon.io -->
<!DOCTYPE svg PUBLIC "-//W3C//DTD SVG 1.1//EN" "http://www.w3.org/Graphics/SVG/1.1/DTD/svg11.dtd">
<svg version="1.1" xmlns="http://www.w3.org/2000/svg" xmlns:xlink="http://www.w3.org/1999/xlink" width="1024" height="1024" viewBox="0 0 1024 1024"><g id="icomoon-ignore">
</g>
<path d="M1028.024 119.171c0 55.436-44.952 100.388-100.388 100.388h-827.216c-55.436 0-100.388-44.952-100.388-100.388v0c0-55.436 44.952-100.388 100.388-100.388h827.216c55.436 0 100.388 44.952 100.388 100.388v0zM1028.024 504.66c0 55.436-44.952 100.388-100.388 100.388h-827.216c-55.436 0-100.388-44.952-100.388-100.388v0c0-55.436 44.952-100.388 100.388-100.388h827.216c55.436 0 100.388 44.952 100.388 100.388v0zM1028.024 890.181c0 55.436-44.952 100.388-100.388 100.388h-827.216c-55.436 0-100.388-44.952-100.388-100.388v0c0-55.436 44.952-100.388 100.388-100.388h827.216c55.436 0 100.388 44.952 100.388 100.388v0z" fill="rgb(68, 68, 68)"></path>
</svg>
