<?xml version="1.0" encoding="utf-8"?>
<!-- Generator: Adobe Illustrator 18.0.0, SVG Export Plug-In . SVG Version: 6.00 Build 0)  -->
<!DOCTYPE svg PUBLIC "-//W3C//DTD SVG 1.0//EN" "http://www.w3.org/TR/2001/REC-SVG-20010904/DTD/svg10.dtd">
<svg version="1.0" xmlns="http://www.w3.org/2000/svg" xmlns:xlink="http://www.w3.org/1999/xlink" x="0px" y="0px"
	 viewBox="0 0 30 30" enable-background="new 0 0 30 30" xml:space="preserve">
<g id="Layer_1">
	<path fill-rule="evenodd" clip-rule="evenodd" d="M15-326c-8.3,0-15,6.7-15,15c0,8.3,6.7,15,15,15s15-6.7,15-15
		C30-319.3,23.3-326,15-326z M13.1-299.8v-9.4H3.8l18.7-9.4L13.1-299.8z"/>
</g>
<g id="Layer_2">
	<path fill-rule="evenodd" clip-rule="evenodd" d="M222.2-276.1h-15c-2.1,0-3.7,1.7-3.7,3.8v22.5c0,2.1,1.7,3.7,3.7,3.7h15
		c2.1,0,3.7-1.7,3.7-3.7v-22.5C226-274.4,224.3-276.1,222.2-276.1z M224.5-249.8c0,1.2-1,2.2-2.2,2.2h-15c-1.2,0-2.2-1-2.2-2.2
		v-22.5c0-1.2,1-2.2,2.2-2.2h15c1.2,0,2.2,1,2.2,2.2V-249.8z"/>
	<path fill-rule="evenodd" clip-rule="evenodd" d="M73.4-312.9c3.6,0,6.6,3,6.6,6.7c0,3.7-2.9,6.7-6.6,6.7c-3.6,0-6.6-3-6.6-6.7
		c0-2.3,1.2-4.4,2.9-5.6l-0.4-0.7l-1.1-2.1l-0.1-0.3h-6.8c-0.8,0-1.5,0.5-1.7,1.3l-0.4,1.2c2.3,1.1,3.9,3.4,3.9,6.1
		c0,3.7-2.9,6.7-6.6,6.7c-3.6,0-6.6-3-6.6-6.7c0-3.7,2.9-6.7,6.6-6.7c0.3,0,0.6,0.1,0.9,0.1l1-3.3c0.1-0.4,0.5-0.7,0.9-0.7h9.9
		l1.7-3.8h-3.2c-0.5,0-0.9-0.4-0.9-1c0-0.5,0.4-1,0.9-1h4.1h0.6c0.3,0,0.6,0.2,0.8,0.4c0.2,0.3,0.2,0.6,0.1,0.9l-0.3,0.6l-2.7,5.9
		l1.1,2.1C72.1-312.8,72.8-312.9,73.4-312.9z M58.7-310.5l-1,3c-0.1,0.2-0.2,0.4-0.5,0.6c-0.2,0.1-0.5,0.1-0.7,0.1
		c-0.5-0.2-0.8-0.7-0.6-1.2l0.9-2.9c-0.1,0-0.2,0-0.3,0c-2.6,0-4.7,2.1-4.7,4.8c0,2.6,2.1,4.8,4.7,4.8c2.6,0,4.7-2.1,4.7-4.8
		C61.3-308.1,60.2-309.7,58.7-310.5z M68.7-306.2c0,2.6,2.1,4.8,4.7,4.8c2.6,0,4.7-2.1,4.7-4.8c0-2.6-2.1-4.8-4.7-4.8
		c-0.3,0-0.7,0-1,0.1l2.3,4.3c0.1,0.2,0.1,0.5,0.1,0.7c-0.1,0.2-0.2,0.5-0.5,0.6l0,0c-0.5,0.2-1,0.1-1.2-0.4l-2.4-4.5
		C69.5-309.2,68.7-307.8,68.7-306.2z M59.4-318.7h-2.8c-0.5,0-0.9-0.4-0.9-1c0-0.5,0.4-1,0.9-1h5.6c0.2,0,0.3,0.1,0.3,0.2
		c0.1,0.1,0,0.3-0.1,0.4C61.6-319.2,60.8-318.7,59.4-318.7z"/>
	<path fill-rule="evenodd" clip-rule="evenodd" d="M129.1-312h-0.9v-5.6h0.9c0.5,0,0.9,0.4,0.9,0.9v3.7
		C130-312.4,129.6-312,129.1-312z M124.4-300.8v1.9c0,1-0.8,1.9-1.9,1.9h-1.9c-1,0-1.9-0.8-1.9-1.9v-1.9h-7.5v1.9
		c0,1-0.8,1.9-1.9,1.9h-1.9c-1,0-1.9-0.8-1.9-1.9v-1.9c-1,0-1.9-0.8-1.9-1.9v-16.8c0-3.1,2.5-5.6,5.6-5.6h11.2
		c3.1,0,5.6,2.5,5.6,5.6v16.8C126.2-301.6,125.4-300.8,124.4-300.8z M107.5-302.6c1,0,1.9-0.8,1.9-1.9c0-1-0.8-1.9-1.9-1.9
		c-1,0-1.9,0.8-1.9,1.9C105.6-303.5,106.5-302.6,107.5-302.6z M118.7-323.2h-7.5v1.9h7.5V-323.2z M124.4-319.4h-18.7v11.2h18.7
		V-319.4z M122.5-306.4c-1,0-1.9,0.8-1.9,1.9c0,1,0.8,1.9,1.9,1.9c1,0,1.9-0.8,1.9-1.9C124.4-305.5,123.5-306.4,122.5-306.4z
		 M100-312.9v-3.7c0-0.5,0.4-0.9,0.9-0.9h0.9v5.6h-0.9C100.4-312,100-312.4,100-312.9z"/>
	<path fill-rule="evenodd" clip-rule="evenodd" d="M174.4-309.2c0,2-1.7,3.7-3.7,3.7h-11.2c-2.1,0-3.7-1.6-3.7-3.7V-322h18.7v1.8
		c3.1,0,5.6,2.5,5.6,5.5C180-311.7,177.5-309.2,174.4-309.2z M159.4-320.2h-1.9v11c0,1,0.8,1.8,1.9,1.8V-320.2z M174.4-318.4v7.3
		c2.1,0,3.7-1.6,3.7-3.7C178.1-316.7,176.4-318.4,174.4-318.4z M180-301.9c0,1-0.8,1.8-1.9,1.8h-26.2c-1,0-1.9-0.8-1.9-1.8
		c0-1,0.8-1.8,1.9-1.8h26.2C179.2-303.7,180-302.9,180-301.9z"/>
	<g>
		<polygon fill-rule="evenodd" clip-rule="evenodd" points="228,-320.5 228,-298.5 202,-298.5 202,-296.5 230,-296.5 230,-297.5 
			230,-298.5 230,-320.5 		"/>
		<path fill-rule="evenodd" clip-rule="evenodd" d="M226-322.5h-3c0,1.7-1.3,3-3,3c-1.7,0-3-1.3-3-3h-7c0,1.7-1.3,3-3,3
			c-1.7,0-3-1.3-3-3h-4v22h26V-322.5z M224-302.5h-22v-15h22V-302.5z"/>
		<path fill-rule="evenodd" clip-rule="evenodd" d="M207-321.5c0.6,0,1-0.4,1-1v-2c0-0.6-0.4-1-1-1s-1,0.4-1,1v2
			C206-322,206.4-321.5,207-321.5z"/>
		<path fill-rule="evenodd" clip-rule="evenodd" d="M220-321.5c0.6,0,1-0.4,1-1v-2c0-0.6-0.4-1-1-1s-1,0.4-1,1v2
			C219-322,219.4-321.5,220-321.5z"/>
		<rect x="206" y="-314.5" fill-rule="evenodd" clip-rule="evenodd" width="3" height="3"/>
		<rect x="212" y="-314.5" fill-rule="evenodd" clip-rule="evenodd" width="3" height="3"/>
		<rect x="217" y="-314.5" fill-rule="evenodd" clip-rule="evenodd" width="3" height="3"/>
		<rect x="206" y="-309.5" fill-rule="evenodd" clip-rule="evenodd" width="3" height="3"/>
		<rect x="212" y="-309.5" fill-rule="evenodd" clip-rule="evenodd" width="3" height="3"/>
		<rect x="217" y="-309.5" fill-rule="evenodd" clip-rule="evenodd" width="3" height="3"/>
	</g>
	<g>
		<path fill-rule="evenodd" clip-rule="evenodd" d="M257-322c0.6,0,1-0.4,1-1v-2c0-0.6-0.4-1-1-1s-1,0.4-1,1v2
			C256-322.5,256.4-322,257-322z"/>
		<path fill-rule="evenodd" clip-rule="evenodd" d="M270-322c0.6,0,1-0.4,1-1v-2c0-0.6-0.4-1-1-1s-1,0.4-1,1v2
			C269-322.5,269.4-322,270-322z"/>
		<rect x="256" y="-315" fill-rule="evenodd" clip-rule="evenodd" width="3" height="3"/>
		<rect x="262" y="-315" fill-rule="evenodd" clip-rule="evenodd" width="3" height="3"/>
		<rect x="267" y="-315" fill-rule="evenodd" clip-rule="evenodd" width="3" height="3"/>
		<rect x="256" y="-310" fill-rule="evenodd" clip-rule="evenodd" width="3" height="3"/>
		<rect x="262" y="-310" fill-rule="evenodd" clip-rule="evenodd" width="3" height="3"/>
		<rect x="252" y="-299" fill-rule="evenodd" clip-rule="evenodd" width="17" height="2"/>
		<rect x="278" y="-321" fill-rule="evenodd" clip-rule="evenodd" width="2" height="13"/>
		<path fill-rule="evenodd" clip-rule="evenodd" d="M252-318h22v10h2v-15h-3c0,1.7-1.3,3-3,3s-3-1.3-3-3h-7c0,1.7-1.3,3-3,3
			s-3-1.3-3-3h-4v22h19v-2h-17V-318z"/>
		<path fill-rule="evenodd" clip-rule="evenodd" d="M275-307c-2.8,0-5,2.2-5,5c0,2.8,2.2,5,5,5s5-2.2,5-5
			C280-304.8,277.8-307,275-307z M278-301h-2v2h-2v-2h-2v-2h2v-2h2v2h2V-301z"/>
		<rect x="267" y="-310" fill-rule="evenodd" clip-rule="evenodd" width="3" height="3"/>
	</g>
	<g>
		
			<rect x="21.1" y="-253.8" transform="matrix(-0.5 -0.866 0.866 -0.5 252.5313 -360.8647)" fill-rule="evenodd" clip-rule="evenodd" width="2" height="1"/>
		
			<rect x="19.1" y="-257.3" transform="matrix(-0.5 -0.866 0.866 -0.5 252.5379 -367.7787)" fill-rule="evenodd" clip-rule="evenodd" width="2" height="1"/>
		
			<rect x="17.1" y="-260.8" transform="matrix(-0.5 -0.866 0.866 -0.5 252.531 -374.7213)" fill-rule="evenodd" clip-rule="evenodd" width="2" height="1"/>
		
			<rect x="15.6" y="-264.7" transform="matrix(-0.866 0.5 -0.5 -0.866 -101.82 -500.1582)" fill-rule="evenodd" clip-rule="evenodd" width="1" height="2"/>
		
			<rect x="27.8" y="-258.3" transform="matrix(0.7072 -0.707 0.707 0.7072 190.2002 -55.2949)" fill-rule="evenodd" clip-rule="evenodd" width="1" height="2"/>
		
			<rect x="24.5" y="-260.6" transform="matrix(-0.7071 -0.7071 0.7071 -0.7071 227.4855 -425.9868)" fill-rule="evenodd" clip-rule="evenodd" width="2" height="1"/>
		
			<rect x="21.7" y="-263.4" transform="matrix(-0.7072 -0.7071 0.7071 -0.7072 224.6387 -432.8369)" fill-rule="evenodd" clip-rule="evenodd" width="2" height="1"/>
		
			<rect x="18.9" y="-266.3" transform="matrix(0.7072 0.707 -0.707 0.7072 -182.0949 -91.864)" fill-rule="evenodd" clip-rule="evenodd" width="2" height="1"/>
		
			<rect x="15.7" y="-251.2" transform="matrix(-0.2588 -0.9659 0.9659 -0.2588 263.1463 -299.5376)" fill-rule="evenodd" clip-rule="evenodd" width="2" height="1"/>
		
			<rect x="15.1" y="-255.6" transform="matrix(0.9659 -0.2589 0.2589 0.9659 66.4506 -4.6384)" fill-rule="evenodd" clip-rule="evenodd" width="1" height="2"/>
		
			<rect x="14.1" y="-259.5" transform="matrix(0.9659 -0.2589 0.2589 0.9659 67.4117 -5.0374)" fill-rule="evenodd" clip-rule="evenodd" width="1" height="2"/>
		
			<rect x="13" y="-263.3" transform="matrix(0.9659 -0.2589 0.2589 0.9659 68.3807 -5.438)" fill-rule="evenodd" clip-rule="evenodd" width="1" height="2"/>
		<rect x="9.6" y="-250.5" fill-rule="evenodd" clip-rule="evenodd" width="1" height="2"/>
		<rect x="9.6" y="-254.5" fill-rule="evenodd" clip-rule="evenodd" width="1" height="2"/>
		<rect x="9.6" y="-258.5" fill-rule="evenodd" clip-rule="evenodd" width="1" height="2"/>
		<rect x="9.6" y="-262.5" fill-rule="evenodd" clip-rule="evenodd" width="1" height="2"/>
		<path fill-rule="evenodd" clip-rule="evenodd" d="M17-272.3l-3.1,1.8c-1.1-2.4-3.5-4-6.3-4c-3.9,0-7,3.1-7,7v20h4v-20
			c0-1.7,1.3-3,3-3c1.3,0,2.4,0.8,2.8,2l-3.8,2.2l1.5,2.6l10.4-6L17-272.3z"/>
	</g>
	<path fill-rule="evenodd" clip-rule="evenodd" d="M79.7-250.7l-9.3-9.6l9.4-9.8c0.1,0.2,0.1,0.5,0.1,0.7v17.6
		C80-251.3,79.9-251,79.7-250.7z M51.7-271.5l0.2,0h26.2l0.3,0.1L65-257.6L51.7-271.5z M50.2-250.8c-0.1-0.3-0.2-0.6-0.2-0.9v-17.6
		c0-0.3,0.1-0.6,0.1-0.9l9.4,9.9L50.2-250.8z M65-254.7l4-4.1l9,9.3H51.9l-0.1,0l9.2-9.3L65-254.7z"/>
	<path d="M100-276v30h30v-30H100z M120.3-255.5c0,0-6,6.5-7.9,7.3c0,0-7.2-5.9-9.4-9.5c-2.2-3.6-2.9-6.9,1.3-9.1
		c4.3-2.3,7.8,2.1,8.1,3c0,0,3.2-5.8,8.9-2.5C127.1-262.9,120.3-255.5,120.3-255.5z M128-270h-3v3h-2v-3h-3v-2h3v-3h2v3h3V-270z"/>
	<path d="M109-266v11l3.5-2.6l-0.4,5.6l-1.3-0.4l1.6,3.2l2.3-2.7l-1.1,0l1.4-9.2l-4,2v-5L109-266z"/>
	<path fill-rule="evenodd" clip-rule="evenodd" d="M162-272h1v23h-1V-272z"/>
	<path fill-rule="evenodd" clip-rule="evenodd" d="M178.6-259.1l-2.8-4.3l-1.1,2.2l3.9,6.4H175l-0.6,5.7h-2.8l-0.6-5.7h-3.6l3.9-6.4
		l-1.1-2.2l-2.8,4.3H166l2.3-5.9c0.3-0.8,1.1-1.3,1.9-1.3h1.4l1.4,2.9l1.4-2.9h1.4c0.8,0,1.6,0.5,1.9,1.3l2.3,5.9H178.6z M173-267.7
		c-1.2,0-2.1-1-2.1-2.2c0-1.2,0.9-2.2,2.1-2.2c1.2,0,2.1,1,2.1,2.2C175.1-268.7,174.2-267.7,173-267.7z"/>
	<path fill-rule="evenodd" clip-rule="evenodd" d="M156.1-257.7l-0.8,8.6h-2.7l-0.8-8.6H150v-7.6c0.6-0.3,1.3-0.6,2.1-0.8l1.9,4.1
		l1.9-4.1c0.8,0.2,1.5,0.4,2.1,0.8v7.6H156.1z M154-267.7c-1.1,0-2-1-2-2.2c0-1.2,0.9-2.2,2-2.2c1.1,0,2,1,2,2.2
		C156-268.7,155.1-267.7,154-267.7z"/>
	<path fill-rule="evenodd" clip-rule="evenodd" d="M277.5-256.2l-10.6-5.9c0-0.6,0.4-1.2,0.9-1.5c1.7-1,2.8-2.8,2.8-4.8
		c0-3.1-2.5-5.6-5.6-5.6s-5.6,2.5-5.6,5.6c0,1,0.8,1.9,1.9,1.9c1,0,1.9-0.8,1.9-1.9c0-1,0.8-1.9,1.9-1.9s1.9,0.8,1.9,1.9
		c0,0.7-0.4,1.3-0.9,1.6c-1.7,1-2.8,2.8-2.8,4.7l-10.7,6c-1.4,0.9-2.4,2.8-2.4,4.4c0,2,1.7,3.7,3.7,3.7h22.5c2.1,0,3.7-1.7,3.7-3.7
		C280-253.4,279-255.3,277.5-256.2z M253.8-251.7c0-0.4,0.4-1.1,0.6-1.2l10.6-5.9l10.5,5.9c0.3,0.2,0.7,0.9,0.7,1.3H253.8z"/>
	<path fill-rule="evenodd" clip-rule="evenodd" d="M100-202.8h30v1h-30V-202.8z"/>
	<path fill-rule="evenodd" clip-rule="evenodd" d="M113-201.8h4c1.1,0,2-0.9,2-2h-8C111-202.7,111.9-201.8,113-201.8z"/>
	<path fill-rule="evenodd" clip-rule="evenodd" d="M123-201.8h4c1.1,0,2-0.9,2-2h-8C121-202.7,121.9-201.8,123-201.8z"/>
	<path fill-rule="evenodd" clip-rule="evenodd" d="M117-212.8h-4c-1.1,0-2,0.9-2,2v6h8v-6C119-211.9,118.1-212.8,117-212.8z
		 M116.5-211h-3.1c-0.3,0-0.5-0.2-0.5-0.5c0-0.3,0.2-0.5,0.5-0.5h3.1c0.3,0,0.5,0.2,0.5,0.5C117-211.2,116.8-211,116.5-211z"/>
	<path fill-rule="evenodd" clip-rule="evenodd" d="M127-212.8h-4c-1.1,0-2,0.9-2,2v6h8v-6C129-211.9,128.1-212.8,127-212.8z
		 M126.5-211h-3.1c-0.3,0-0.5-0.2-0.5-0.5c0-0.3,0.2-0.5,0.5-0.5h3.1c0.3,0,0.5,0.2,0.5,0.5C127-211.2,126.8-211,126.5-211z"/>
	<path fill-rule="evenodd" clip-rule="evenodd" d="M116-210.8h8v1h-8V-210.8z"/>
	<path fill-rule="evenodd" clip-rule="evenodd" d="M100-202.8h1v3h-1V-202.8z"/>
	<path fill-rule="evenodd" clip-rule="evenodd" d="M129-202.8h1v3h-1V-202.8z"/>
	<path fill-rule="evenodd" clip-rule="evenodd" d="M103-201.8h4c1.1,0,2-0.9,2-2h-8C101-202.7,101.9-201.8,103-201.8z"/>
	<path fill-rule="evenodd" clip-rule="evenodd" d="M107-212.8h-4c-1.1,0-2,0.9-2,2v6h8v-6C109-211.9,108.1-212.8,107-212.8z
		 M106.5-211h-3.1c-0.3,0-0.5-0.2-0.5-0.5c0-0.3,0.2-0.5,0.5-0.5h3.1c0.3,0,0.5,0.2,0.5,0.5C107-211.2,106.8-211,106.5-211z"/>
	<path fill-rule="evenodd" clip-rule="evenodd" d="M106-210.8h8v1h-8V-210.8z"/>
	<path fill="none" d="M111.5-217.9h-3.1c-0.3,0-0.5,0.2-0.5,0.5c0,0.3,0.2,0.5,0.5,0.5h3.1c0.3,0,0.5-0.2,0.5-0.5
		C112-217.7,111.8-217.9,111.5-217.9z"/>
	<path fill="none" d="M122-217.4c0-0.3-0.2-0.5-0.5-0.5h-3.1c-0.3,0-0.5,0.2-0.5,0.5c0,0.3,0.2,0.5,0.5,0.5h3.1
		C121.8-217,122-217.2,122-217.4z"/>
	<path fill="none" d="M112-217.4c0-0.3-0.2-0.5-0.5-0.5h-3.1c-0.3,0-0.5,0.2-0.5,0.5c0,0.3,0.2,0.5,0.5,0.5h3.1
		C111.8-217,112-217.2,112-217.4z"/>
	<path d="M123-213.3h1v-3.5c0-1.1-0.9-2-2-2h-4c-1.1,0-2,0.9-2,2v3.5h1c1.4,0,2.5,1.1,2.5,2.5v1h1v-1
		C120.5-212.2,121.6-213.3,123-213.3z M118.5-217c-0.3,0-0.5-0.2-0.5-0.5c0-0.3,0.2-0.5,0.5-0.5h3.1c0.3,0,0.5,0.2,0.5,0.5
		c0,0.3-0.2,0.5-0.5,0.5H118.5z"/>
	<path d="M113-213.3h1v-3.5c0-1.1-0.9-2-2-2h-4c-1.1,0-2,0.9-2,2v3.5h1c1.4,0,2.5,1.1,2.5,2.5v1h1v-1
		C110.5-212.2,111.6-213.3,113-213.3z M108.5-217c-0.3,0-0.5-0.2-0.5-0.5c0-0.3,0.2-0.5,0.5-0.5h3.1c0.3,0,0.5,0.2,0.5,0.5
		c0,0.3-0.2,0.5-0.5,0.5H108.5z"/>
	<g>
		<path d="M20.1-202.1c-0.5-0.3-1.2-0.2-1.5,0.4c-1.4,2.2-3.7,3.5-6.3,3.5c-4.1,0-7.4-3.4-7.4-7.5c0-2.4,1.2-4.7,3.1-6.1
			c0.5-0.4,0.6-1,0.2-1.5c-0.4-0.5-1-0.6-1.5-0.3c-2.5,1.8-4,4.8-4,7.9c0,5.3,4.3,9.7,9.6,9.7c3.3,0,6.4-1.7,8.1-4.6
			C20.8-201.1,20.7-201.8,20.1-202.1z"/>
		<path d="M27.7-201.5c-0.2-0.6-0.8-0.9-1.4-0.7l-1.3,0.5c0,0-2.4-6.8-2.5-6.9c0,0-0.1-0.1-0.1-0.2c-0.3-0.5-0.9-0.9-1.5-0.9h-5.7
			l-0.1-2.1h4.7c0.6,0,1.1-0.5,1.1-1.1c0-0.6-0.5-1.1-1.1-1.1H15l-0.2-3.1c0,0,0-0.1,0-0.1c-0.1-1.5-1.4-2.7-2.9-2.6
			c-1.5,0.1-2.7,1.4-2.6,2.9v0l0,0l0.4,8.1l0,0c0,0,0,0,0,0c0.1,1.5,1.3,2.6,2.7,2.6c0,0,7.4,0,7.4,0l2.2,6.1
			c0.2,0.7,0.9,1.1,1.5,1.1c0.1,0,0.2,0,0.3,0c0.1,0,0.1,0,0.2-0.1l2.9-1.1C27.6-200.2,27.9-200.9,27.7-201.5z"/>
		
			<ellipse transform="matrix(5.248704e-02 0.9986 -0.9986 5.248704e-02 -211.9148 -223.7048)" cx="11.9" cy="-223.5" rx="2.5" ry="2.5"/>
	</g>
	<g>
		<path fill-rule="evenodd" clip-rule="evenodd" d="M77-215.8c0-0.1,0-0.1,0-0.2c0-2-1.5-3.6-3.4-3.7c-0.7-0.8-1.7-1.3-2.8-1.3
			c-1.3,0-2.5,0.7-3.2,1.7c-0.5-0.3-1.2-0.5-1.8-0.5c-2.1,0-3.7,1.7-3.7,3.7c0,0.1,0,0.1,0,0.2c-1.5,0.5-2.5,1.9-2.5,3.5
			c0,0.1,0,0.2,0,0.2h-6h-1h-2v2h2v1h-2v1h2v1v1h1h7h1v-1v-1h2v-0.5c0.6,0,1.1-0.2,1.6-0.5c0.6,0.3,1.2,0.5,1.9,0.5
			c0.4,0,0.9-0.1,1.2-0.2v6.5H67v1.2h5v-1.2h-1.2v-6.2c0.2,0,0.4,0,0.6-0.1c0.2,0,0.4,0.1,0.6,0.1c0.7,0,1.3-0.2,1.9-0.5
			c0.6,0.3,1.2,0.5,1.9,0.5c2.1,0,3.7-1.7,3.7-3.7C79.5-213.9,78.4-215.3,77-215.8z M53.5-210h6.8c0.1,0.1,0.1,0.2,0.2,0.3v0.7h-7
			V-210z M60.5-207h-7v-1h7V-207z"/>
		<polygon fill-rule="evenodd" clip-rule="evenodd" points="60.5,-205 53.5,-205 51.5,-205 50.5,-205 50.5,-204 51.5,-204 
			51.5,-201 53.5,-201 53.5,-204 54.5,-204 54.5,-202 55.5,-202 55.5,-204 58.5,-204 58.5,-202 59.5,-202 59.5,-204 60.5,-204 
			60.5,-201 62.5,-201 62.5,-204 63.5,-204 63.5,-205 62.5,-205 		"/>
	</g>
	<g>
		<path fill-rule="evenodd" clip-rule="evenodd" d="M215.8-265.1c-0.1-0.2-0.2-0.4-0.4-0.5c-0.2-0.1-0.5-0.2-0.8-0.2h-1v4.4h0.9
			c0.4,0,0.7-0.1,0.9-0.2s0.4-0.3,0.5-0.4c0.1-0.2,0.2-0.4,0.2-0.7c0-0.3,0-0.6,0-0.9c0-0.3,0-0.6,0-0.9
			C216-264.7,215.9-264.9,215.8-265.1z"/>
		<path fill-rule="evenodd" clip-rule="evenodd" d="M221.4-273.1h-13.3c-1.1,0-2,0.9-2,2v20c0,1.1,0.9,2,2,2h13.3c1.1,0,2-0.9,2-2
			v-20C223.4-272.2,222.5-273.1,221.4-273.1z M217.6-262.1c-0.1,0.4-0.2,0.8-0.4,1.1c-0.3,0.4-0.6,0.7-1,1s-1,0.4-1.7,0.4h-0.9v5
			h-1.8v-12.8h2.8c0.5,0,0.9,0.1,1.3,0.2c0.4,0.1,0.7,0.4,1,0.7c0.3,0.3,0.5,0.7,0.6,1.2c0.1,0.4,0.2,1.1,0.2,1.8
			C217.7-263,217.7-262.5,217.6-262.1z"/>
	</g>
	<path fill-rule="evenodd" clip-rule="evenodd" d="M179.8-149.3L166-173.8c-0.5-1-1.4-1-2,0l-13.8,24.6c-0.5,1-0.1,1.7,1,1.7h27.6
		C179.9-147.5,180.3-148.3,179.8-149.3z M167-152.5c0,0.6-0.5,1-1,1h-2c-0.5,0-1-0.4-1-1v-2c0-0.6,0.5-1,1-1h2c0.5,0,1,0.5,1,1
		V-152.5z M167-158.5c0,0.6-0.4,1-1,1h-2c-0.5,0-1-0.4-1-1v-6c0-0.6,0.5-1,1-1h2c0.5,0,1,0.5,1,1L167-158.5z"/>
	<g>
		<path d="M219.6-168c-1.4-0.4-3-0.7-4.6-0.7c-7.1,0-13,5.2-14.8,6.9c-0.3,0.3-0.3,0.8,0,1.1c1,1,3.5,3.2,6.9,4.9L219.6-168z"/>
		<path d="M229.8-161.8c-1.1-1-3.7-3.4-7.1-5l2.8-2.7H223l-17.4,17h2.4l2.2-2.1c1.5,0.5,3.2,0.8,4.9,0.8c7.1,0,13-5.2,14.8-6.9
			C230.1-161,230.1-161.5,229.8-161.8z M220.1-160.2c-0.4,1.9-2,3.5-4,3.9c-1.4,0.3-2.6,0-3.7-0.6l2.2-2.2c0.1,0,0.2,0,0.4,0
			c1.3,0,2.3-1,2.3-2.3c0-0.1,0-0.2,0-0.4l2.2-2.2C220.1-162.8,220.4-161.5,220.1-160.2z"/>
	</g>
	<g>
		<polygon points="265.9,-173.5 264,-173.5 264,-167.5 265.9,-167.5 		"/>
		<polygon points="274,-158.2 280,-159.4 279.5,-161.7 273.6,-160.5 		"/>
		<polygon points="276.3,-168.3 274.6,-169.9 270.4,-165.7 272,-164 		"/>
		<polygon points="256.4,-160.5 250.5,-161.7 250,-159.4 256,-158.2 		"/>
		<path d="M273-152.5l-2.3-10.9c-0.2-1.2-1.3-2.1-2.7-2.1l-5,0c-1.4,0-2.7,0.9-3,2.1l-2,10.9c0,0.1,0,0,0,1h-3l0.1,3H276v-3h-3
			C273-152.5,273-152.4,273-152.5z M265.1-152.5l-0.1-11h2c1.1,0,1.8,0.1,2,1l1,5c0,0.1,1,5,1,5H265.1z"/>
		<polygon points="259.6,-165.7 255.4,-169.9 253.7,-168.3 258,-164 		"/>
	</g>
	<path fill-rule="evenodd" clip-rule="evenodd" d="M166.8-196h-4v-11h-2v-9c0-2.1,0.9-3,3-3h2c2.1,0,3,0.9,3,3v9h-2V-196z
		 M164.8-220.4c-1.6,0-2.8-1.3-2.8-2.8c0-1.6,1.3-2.8,2.8-2.8c1.6,0,2.8,1.3,2.8,2.8C167.6-221.7,166.4-220.4,164.8-220.4z"/>
	<path fill-rule="evenodd" clip-rule="evenodd" d="M155.8-196h-4v-11h-2v-9c0-2.1,0.9-3,3-3h2c2.1,0,3,0.9,3,3v9h-2V-196z
		 M153.8-220.4c-1.6,0-2.8-1.3-2.8-2.8c0-1.6,1.3-2.8,2.8-2.8c1.6,0,2.8,1.3,2.8,2.8C156.6-221.7,155.4-220.4,153.8-220.4z"/>
	<path fill-rule="evenodd" clip-rule="evenodd" d="M177.8-196h-4v-11h-2v-9c0-2.1,0.9-3,3-3h2c2.1,0,3,0.9,3,3v9h-2V-196z
		 M175.8-220.4c-1.6,0-2.8-1.3-2.8-2.8c0-1.6,1.3-2.8,2.8-2.8c1.6,0,2.8,1.3,2.8,2.8C178.6-221.7,177.4-220.4,175.8-220.4z"/>
	<path fill-rule="evenodd" clip-rule="evenodd" d="M214.6-223c-5,0-9,4-9,9c0,6,9,15,9,15s9-9,9-15C223.6-219,219.6-223,214.6-223z
		 M214.6-209.9c-2.6,0-4.7-2.1-4.7-4.7c0-2.6,2.1-4.7,4.7-4.7c2.6,0,4.7,2.1,4.7,4.7C219.3-212.1,217.2-209.9,214.6-209.9z"/>
	<path fill-rule="evenodd" clip-rule="evenodd" d="M269.1-215.9c1,0,1.8,0.8,1.8,1.9c0,1-0.8,1.9-1.8,1.9h-6.7
		c-0.1,0.4-0.1,0.8-0.1,1.1c0,0.4,0,0.8,0.1,1.1h6.7c1,0,1.8,0.8,1.8,1.9c0,1-0.8,1.9-1.8,1.9h-5.6c1.7,3.2,5,5.3,8.5,5.3h0.4
		c0.8,0,1.4,0.7,1.4,1.7c0,1-0.6,1.9-1.3,2l0,0H272c-5.5,0-10.5-3.6-12.4-9.1h-2c-1,0-1.8-0.8-1.8-1.9c0-1,0.8-1.9,1.8-1.9h1.2v0
		c-0.1-0.4-0.1-0.7-0.1-1.1c0-0.4,0-0.7,0.1-1.1v0h-1.2c-1,0-1.8-0.8-1.8-1.9c0-1,0.8-1.9,1.8-1.9h2c2-5.4,6.9-9.1,12.4-9.1h0.4
		c0.8,0.1,1.4,1,1.4,2c0,1-0.5,1.7-1.2,1.7l-0.6,0c-3.5,0-6.8,2.1-8.5,5.3H269.1z"/>
	<path fill-rule="evenodd" clip-rule="evenodd" d="M23.4-174.4l-0.3,0.2c-1.1,0.5-2.8,6.3-2.8,6.7l0,0.4c0.2,0.8,0.9,1.7,2.5,3.5
		c-0.9,2.1-3.4,4.9-4.9,6.2c-1.6,1.4-4.3,3.2-6.3,3.9c-1.8-2.1-2.6-2.9-3.5-3c-0.5,0-6.4,1-6.9,2l-0.2,0.3c-0.4,0.7-1.1,1.7-0.8,2.8
		c0.1,0.3,0.2,0.5,0.3,0.8c0.5,0.8,1.7,2.6,3.4,3.4c1,0.5,10.4,0.8,18.3-6.3c7.8-7,8.2-15.6,7.9-16.9l0,0l0-0.1
		c-0.6-1.8-2.3-3.2-3-3.8C25.7-175.5,24.2-174.8,23.4-174.4z"/>
	<path fill-rule="evenodd" clip-rule="evenodd" d="M52.8-173v18h18v-18H52.8z M68.8-157h-14v-14h14V-157z"/>
	<path fill-rule="evenodd" clip-rule="evenodd" d="M74.8-159v-10h-2l3-4l3,4h-2v10h2l-3,4l-3-4"/>
	<path fill-rule="evenodd" clip-rule="evenodd" d="M66.8-149h-10v2l-4-3l4-3v2h10v-2l4,3l-4,3"/>
	<g opacity="0.4">
		<path fill-rule="evenodd" clip-rule="evenodd" d="M108.5-156.1l4-4c-0.1-0.2-0.1-0.5-0.1-0.7c0-1,0.6-1.9,1.5-2.3v-9.9
			c0-0.5,0.5-1,1-1c-7.2,0-13,5.8-13,13c0,3.6,1.5,6.8,3.8,9.2l2.8-2.8C108.1-155.1,108.1-155.7,108.5-156.1z"/>
	</g>
	<g>
		<g>
			<path fill-rule="evenodd" clip-rule="evenodd" d="M114.8-176c-1,0-2,0.1-3,0.3c-1,0.2-1.9,0.5-2.8,0.9c-1.3,0.6-2.6,1.3-3.7,2.2
				s-2.1,2-2.9,3.2c-1.6,2.4-2.6,5.3-2.6,8.4c0,1.6,0.2,3.1,0.7,4.5c0.7,2.3,2,4.4,3.7,6.1c0.3,0.3,0.7,0.7,1.1,1
				c0.7,0.6,1.5,1.2,2.4,1.6c0.4,0.2,0.9,0.4,1.3,0.6c0.9,0.4,1.8,0.7,2.8,0.9c1,0.2,2,0.3,3,0.3c8.3,0,15-6.7,15-15
				C129.8-169.3,123.1-176,114.8-176z M114.8-158.3c-0.3,0-0.6-0.1-0.9-0.2l-3.9,3.9c-0.4,0.4-1.1,0.4-1.5,0c0,0,0,0,0,0l-2.8,2.8
				c-2.4-2.4-3.8-5.6-3.8-9.2c0-7.2,5.8-13,13-13c0.5,0,1,0.5,1,1v9.9c0.9,0.4,1.5,1.3,1.5,2.3C117.3-159.4,116.2-158.3,114.8-158.3
				z"/>
		</g>
	</g>
	<path fill-rule="evenodd" clip-rule="evenodd" d="M16-99.1h-2l-14-2V-121h2v18.2l12,1.7h2l12-1.7V-121h2v19.9L16-99.1z M16-120.9
		c3.6-2.1,10-2.1,10-2.1v17.9c0,0-6.4,0-10,2.1V-120.9z M4-123c0,0,6.4,0,10,2.1v17.9C10.4-105,4-105,4-105V-123z"/>
	<path fill-rule="evenodd" clip-rule="evenodd" d="M79.5-117.1l-0.2,0.1l0,0l-2.7,2.7l-8.4-8.4l2.7-2.7l0,0l0.1-0.2
		c0.7-0.7,2-0.7,2.7,0.1l5.6,5.6C80.2-119,80.2-117.8,79.5-117.1z M57-105.9l12.5-12.6l2.8,2.8l-12.5,12.6l1.4,1.4l12.5-12.6
		l1.4,1.4l-13.9,14l-8.4-8.4l13.9-14l1.4,1.4l-12.5,12.6L57-105.9z M59.8-97.4l-4.9,0.7L50-96l0.7-4.9l0.7-4.9l4.2,4.2L59.8-97.4z"
		/>
	<path fill-rule="evenodd" clip-rule="evenodd" d="M126-97l-26,0v-28l30,0v24L126-97z M109-99h12v-7h-12V-99z M124-123h-18v12h18
		V-123z M111-104l4,0v3h-4V-104z"/>
	<path fill-rule="evenodd" clip-rule="evenodd" d="M150-114l3-2l8,14l16-23l3,2l-19,27L150-114"/>
	<path fill-rule="evenodd" clip-rule="evenodd" d="M223.6-118.2l-1.8-1.8l-7.2,7.2l-7.2-7.2l-1.8,1.8l7.2,7.2l-7.2,7.2l1.8,1.8
		l7.2-7.2l7.2,7.2l1.8-1.8l-7.2-7.2L223.6-118.2z"/>
	<path fill-rule="evenodd" clip-rule="evenodd" d="M264.8-119.5c-4.7,0-8.5,3.8-8.5,8.5s3.8,8.5,8.5,8.5s8.5-3.8,8.5-8.5
		S269.5-119.5,264.8-119.5z M269.8-108.3l-2.2,2.2l-2.8-2.8l-2.8,2.8l-2.2-2.2l2.8-2.8l-2.8-2.8l2.2-2.2l2.8,2.8l2.8-2.8l2.2,2.2
		L267-111L269.8-108.3z"/>
	<path fill-rule="evenodd" clip-rule="evenodd" d="M22.3-68.7c-0.9,0-1.6-0.7-1.6-1.6c0-0.9,0.7-1.6,1.6-1.6c0.9,0,1.6,0.7,1.6,1.6
		C23.8-69.4,23.1-68.7,22.3-68.7z M20.1-74c-0.4,0-0.8-0.2-1.1-0.5c-0.6-0.6-0.6-1.6,0-2.2c0.3-0.3,0.7-0.5,1.1-0.5s0.8,0.2,1.1,0.5
		c0.6,0.6,0.6,1.6,0,2.2C20.9-74.1,20.5-74,20.1-74z M14.8-75.2c-1.4,0-2.5-1.1-2.5-2.5c0-1.4,1.1-2.5,2.5-2.5
		c1.4,0,2.5,1.1,2.5,2.5C17.3-76.3,16.2-75.2,14.8-75.2z M9.6-63.4c-0.4,0-0.8-0.2-1.1-0.5c-0.6-0.6-0.6-1.6,0-2.2
		c0.3-0.3,0.7-0.5,1.1-0.5s0.8,0.2,1.1,0.5c0.6,0.6,0.6,1.6,0,2.2C10.4-63.5,10-63.4,9.6-63.4z M9.6-74c-0.4,0-0.8-0.2-1.1-0.5
		c-0.6-0.6-0.6-1.6,0-2.2c0.3-0.3,0.7-0.5,1.1-0.5s0.8,0.2,1.1,0.5c0.6,0.6,0.6,1.6,0,2.2C10.4-74.1,10-74,9.6-74z M8.9-70.2
		c0,0.9-0.7,1.6-1.6,1.6s-1.6-0.7-1.6-1.6s0.7-1.6,1.6-1.6C8.2-71.8,8.9-71.1,8.9-70.2z M14.8-64.3c0.9,0,1.6,0.7,1.6,1.6
		c0,0.9-0.7,1.6-1.6,1.6c-0.9,0-1.6-0.7-1.6-1.6C13.3-63.6,14-64.3,14.8-64.3z M20.1-66.5c0.4,0,0.8,0.2,1.1,0.5
		c0.6,0.6,0.6,1.6,0,2.2c-0.3,0.3-0.7,0.5-1.1,0.5c-0.4,0-0.8-0.2-1.1-0.5c-0.6-0.6-0.6-1.6,0-2.2C19.3-66.3,19.7-66.5,20.1-66.5z"
		/>
	<g>
		<circle fill-rule="evenodd" clip-rule="evenodd" cx="215" cy="-81.6" r="2.3"/>
		<rect x="200.2" y="-73.2" fill-rule="evenodd" clip-rule="evenodd" width="1.8" height="7.3"/>
		<path fill-rule="evenodd" clip-rule="evenodd" d="M224.7-70.3H221l-0.1-6.3c0-1.2-1-2.2-2.2-2.2h-7.6c-1.2,0-2.2,1-2.2,2.2l0,6.3
			h-3.7v-4.1h-2.5v9.6h2.5v-4.1h3.7h2.1h0.6c-0.2,3.6-0.6,12.2-0.6,12.2h2.9l0.6-11.2c0.1,0,0.5,0,0.6,0l0.9,11.2h2.9
			c0,0-0.6-8.6-0.8-12.2h0.6h2.1h3.8v4.1h2.5v-9.6h-2.5V-70.3z M211.2-70.3L211.2-70.3v-4.7c0-0.2,0.1-0.3,0.3-0.3
			c0.2,0,0.3,0.1,0.3,0.3v3.9c0,0,0,0.3,0,0.8H211.2z M218.8-70.3h-0.6c0-0.5,0-0.8,0-0.8v-3.9c0-0.2,0.1-0.3,0.3-0.3
			c0.2,0,0.3,0.1,0.3,0.3V-70.3z"/>
		<rect x="228" y="-73.2" fill-rule="evenodd" clip-rule="evenodd" width="1.8" height="7.3"/>
	</g>
	<g>
		<path fill="#010101" d="M267.9-63.4c1.5-0.1,2.9-0.2,2.9-0.2l-2.2-1.3l-2.7-1.5l-4.1-2.3l-2.7-1.5l-2.2-1.3c0,0,0.7,1.2,1.4,2.5
			c0.8,1.5,1.5,3.1,1.4,3.4c-0.2,0.7-3.2,5.3-3.9,6.3c-0.5,0.8,0.9,2.2,1.9,2.8c1,0.5,2.9,1,3.3,0.1c0.5-1.3,2.8-6.1,3.3-6.6
			C264.5-63.1,266.3-63.3,267.9-63.4z"/>
		<g>
			<path fill="#010101" d="M276.7-68.8c3.3-5.8,1.8-12.8-3.3-15.7c-5.1-2.8-11.8-0.4-15.1,5.4c-1.2,2.2-1.8,4.5-1.7,6.7l15.3,8.6
				C273.7-64.9,275.4-66.6,276.7-68.8z"/>
		</g>
	</g>
	<circle fill="#010101" cx="255.6" cy="-82.6" r="2.6"/>
	<g>
		<path d="M27.5-31.6v-3.5L22-39.6l-1.3,1.1c-1-0.9-2.3-1.5-3.7-1.5c-2,0-3.7,1-4.7,2.6c-0.8-0.5-1.7-0.7-2.7-0.7
			c-3.1,0-5.6,2.5-5.6,5.6c0,0.1,0,0.2,0,0.3c-1.9,0.7-3.3,2.3-3.7,4.3c0,0,0,0.1,0,0.1c0,0.3-0.1,0.5-0.1,0.8c0,0,0,0,0,0
			c0,0,0,0,0,0c0,0,0,0,0,0c0,3.1,2.5,5.5,5.6,5.5c0.1,0,0.2,0,0.4,0l0,0c0.3,0,0.5-0.1,0.8-0.1v1.3c-1.3,0.2-2.3,1.4-2.3,2.8
			c0,1.6,1.3,2.8,2.8,2.8c1.6,0,2.8-1.3,2.8-2.8c0-1.4-1-2.5-2.3-2.8v-1.6c0.2-0.1,0.4-0.2,0.6-0.3c0.8,0.5,1.8,0.8,2.8,0.8
			c0.7,0,1.3-0.1,1.9-0.3v9.7h-1.9v1.9h7.5v-1.9H17v-9.3c0.3,0,0.6,0,0.9-0.1c0.3,0.1,0.6,0.1,0.9,0.1c1,0,2-0.3,2.8-0.8
			c0.8,0.5,1.8,0.8,2.8,0.8c3.1,0,5.6-2.5,5.6-5.6C30-28.9,29-30.6,27.5-31.6z M9.2-17.4c0,1-0.8,1.8-1.8,1.8c-1,0-1.8-0.8-1.8-1.8
			s0.8-1.8,1.8-1.8C8.4-19.2,9.2-18.4,9.2-17.4z M26.5-27.2H22v-4.1h-3v4.1h-1.5v-7.5l4.5-3.7l4.5,3.7V-27.2z"/>
		<circle cx="24.3" cy="-33.9" r="1.3"/>
	</g>
	<g>
		<g>
			<polygon fill="#010101" points="77,-21.2 53.4,-17.9 50,-21 50.9,-21.9 53.8,-19.3 76.3,-22.4 79,-25.9 80,-25.2 			"/>
		</g>
		<g>
			<g>
				<circle fill="#010101" cx="57.1" cy="-16.2" r="1.5"/>
			</g>
			<g>
				<g>
					<circle fill="#010101" cx="74.5" cy="-18.6" r="1.5"/>
				</g>
			</g>
		</g>
	</g>
	<g>
		<polygon fill="#010101" points="109.7,-26.4 111.8,-20.2 118.2,-20.2 120.3,-26.4 115,-30.2 		"/>
		<path fill="#010101" d="M115-40.2c-8.3,0-15,6.7-15,15s6.7,15,15,15s15-6.7,15-15S123.3-40.2,115-40.2z M126.6-20.3
			c-0.4,0.9-0.9,1.8-1.5,2.6l-0.1-1.3l-4.7,1.1l-2.5,4.2l1.3,0.6c-1.3,0.4-2.7,0.7-4.1,0.7c-1.4,0-2.7-0.2-4-0.7l1.3-0.6l-2.5-4.2
			l-4.7-1.1l-0.1,1.4c-0.6-0.8-1.1-1.7-1.5-2.6c-0.7-1.6-1-3.2-1-4.9c0,0,0-0.1,0-0.1l0.9,0.9l3.2-3.7l-0.4-4.8l-1.2,0.2
			c0.4-0.5,0.8-1,1.3-1.5c1.2-1.2,2.5-2.1,4-2.7c0.3-0.1,0.7-0.3,1-0.4l-0.6,1.1l4.5,1.9l4.5-1.9l-0.6-1.1c0.4,0.1,0.7,0.2,1.1,0.4
			c1.5,0.6,2.9,1.5,4,2.7c0.5,0.5,0.9,1,1.3,1.5l-1.2-0.2l-0.4,4.8l3.2,3.7l0.9-0.9c0,0,0,0,0,0.1C127.6-23.5,127.3-21.8,126.6-20.3
			z"/>
	</g>
	<g id="Layer_4">
		<polygon fill="#010101" points="163.2,-12.2 165.8,-12.2 165.8,-17.4 164.5,-18.9 163.2,-17.4 		"/>
		<g>
			<path fill="#010101" d="M160.6-35.5c-0.4-0.2-0.6-0.6-0.7-1c-0.1-0.4,0-0.8,0.2-1.2c0.2-0.4,0.6-0.6,1-0.7c0.4-0.1,0.8,0,1.2,0.2
				c0.4,0.2,0.6,0.6,0.7,1c0.1,0.4,0,0.8-0.2,1.2c-0.2,0.4-0.6,0.6-1,0.7C161.3-35.2,160.9-35.2,160.6-35.5z"/>
			<path fill="#010101" d="M153.6-29.2l4-0.6l-2.4-2.4c-0.1-0.1-0.2-0.3-0.3-0.5c-0.2-0.6,0.1-0.9,0.6-1.3l2.3-2
				c0.2-0.2,0.4-0.3,0.6-0.3c0.4-0.1,0.7,0,1,0.2c0.3,0.2,0.5,0.5,0.6,0.9c0.1,0.5-0.1,0.9-0.5,1.2l-1.9,1.6l2,2
				c0.1,0.1,0.2,0.3,0.2,0.6c0,0.3,0,0.5-0.2,0.7c-0.2,0.3-0.4,0.4-0.7,0.5l-5.1,0.9L153.6-29.2z"/>
		</g>
		<path fill="#010101" d="M177.1-22.1c-0.4,0.2-0.8,0.2-1.2,0.1c-0.4-0.1-0.7-0.4-0.9-0.8c-0.2-0.4-0.2-0.8-0.1-1.2
			c0.1-0.4,0.4-0.7,0.8-0.9c0.4-0.2,0.8-0.2,1.2-0.1c0.4,0.1,0.7,0.4,0.9,0.8c0.2,0.4,0.2,0.8,0.1,1.2
			C177.7-22.6,177.5-22.3,177.1-22.1z"/>
		<path fill="#010101" d="M150.5-25.9l21.1,8c0.1-0.2,0.2-0.3,0.4-0.4c0.2-0.1,0.5-0.2,0.7-0.1l2.7,0.7l0-2.5c0-0.5,0.2-0.9,0.7-1.2
			c0.3-0.2,0.7-0.2,1.1-0.1c0.4,0.1,0.7,0.3,0.8,0.7c0.1,0.2,0.1,0.4,0.1,0.7l0,3.1c0,0.6-0.1,1-0.7,1.3c0,0-0.1,0-0.2,0l2.8,1
			l-0.5,1.4l-4.9-1.9l-0.6-1.1l-0.2,0.1l-0.2,0.1l1.8,3.4l-0.7,0.4l-0.8,0.3l-2.3-4.4L150-24.5L150.5-25.9z"/>
	</g>
	<circle fill="none" cx="206.4" cy="-33.3" r="0.7"/>
	<circle fill="none" cx="204.6" cy="-31.5" r="0.7"/>
	<circle fill="none" cx="204" cy="-33.9" r="0.7"/>
	<g>
		<path fill="#010101" d="M219.6-25.8c0.3,0,0.7,0.1,1,0.2l0.9,0.3l-1.1-11.7l-0.3-3.1h-3.1l-0.3,3.1h-3.9l-0.3-3.1h-3.1l-0.3,3.1
			h-3.9l-0.3-3.1h-3.1l-0.3,3.1h0l-1.7,18.8c0,0,4.8,1.6,11,1.6c1.6,0,3.1-0.1,4.5-0.3l1.4-6.6C217.1-24.9,218.2-25.8,219.6-25.8z
			 M203.5-34.4c0.3-0.3,0.7-0.3,1,0c0.3,0.3,0.3,0.7,0,1c-0.3,0.3-0.7,0.3-1,0C203.2-33.7,203.2-34.1,203.5-34.4z M205.1-31
			c-0.3,0.3-0.7,0.3-1,0c-0.3-0.3-0.3-0.7,0-1c0.3-0.3,0.7-0.3,1,0C205.4-31.8,205.4-31.3,205.1-31z M206.9-32.8
			c-0.3,0.3-0.7,0.3-1,0c-0.3-0.3-0.3-0.7,0-1c0.3-0.3,0.7-0.3,1,0C207.2-33.5,207.2-33,206.9-32.8z"/>
		<circle fill="#010101" cx="223.5" cy="-12.1" r="0.7"/>
		<path fill="#010101" d="M229.4-20.3l-3.3-1.2l3.4-10.5l-2.8-1l-3.4,10.5l-3.3-1.2c-0.1,0-0.2-0.1-0.3-0.1c-0.4,0-0.7,0.3-0.8,0.7
			l-1.9,9.3c-0.1,0.3,0,0.5,0.1,0.7c1-0.8,2.3-1.6,3.9-2.2c2-0.8,4.7-0.7,6.7,0.5l2.3-4.3C230.2-19.6,229.9-20.1,229.4-20.3z"/>
		<circle fill="#010101" cx="225.6" cy="-13.4" r="0.7"/>
		<circle fill="#010101" cx="225.6" cy="-10.9" r="0.7"/>
	</g>
	<path fill="none" d="M72.4-75l-0.4,0.7c0.3,0.2,0.6,0.4,0.9,0.5l0.4-0.7C72.9-74.6,72.6-74.8,72.4-75z"/>
	<path fill="none" d="M70.1-71.3c0.3,0.1,0.6,0.3,0.9,0.5l0.4-0.7c-0.3-0.2-0.6-0.3-0.9-0.5L70.1-71.3z"/>
	<circle cx="54.1" cy="-62.3" r="4.1"/>
	<path d="M79.9-69.6c-1.7,1.4-2.8,3.6-2.8,6c0,0.7,0.1,1.4,0.3,2.1c1.6-1.8,2.6-4.2,2.6-6.8C80-68.8,80-69.2,79.9-69.6z"/>
	<path d="M69.8-78.5c-0.1,0-0.3,0-0.4,0c0.5,1.1,1.2,2.1,2.1,2.9L73-78C72-78.3,70.9-78.5,69.8-78.5z"/>
	<path d="M73.3-74.5l1.7-2.7c-0.3-0.2-0.6-0.3-0.9-0.5L72.4-75C72.6-74.8,72.9-74.6,73.3-74.5z"/>
	<path d="M76.7-73.7c0.6,0,1.2-0.1,1.7-0.2c-0.7-1.1-1.6-2-2.6-2.7l-1.6,2.5C75-73.8,75.8-73.7,76.7-73.7z"/>
	<path d="M68.6-78.5c-4.9,0.6-8.7,4.6-8.9,9.6c1.5-2.4,4.2-4,7.3-4c0.9,0,1.8,0.1,2.6,0.4l1.6-2.5C70-75.9,69.1-77.1,68.6-78.5z"/>
	<path d="M70.5-72c0.3,0.1,0.6,0.3,0.9,0.5l1.4-2.2c-0.3-0.2-0.6-0.3-0.9-0.5L70.5-72z"/>
	<path d="M79.8-70.6c-0.2-0.9-0.5-1.8-0.9-2.5c-0.7,0.2-1.4,0.3-2.1,0.3c-1,0-2-0.2-2.9-0.5l-1.5,2.4c2,1.6,3.3,4,3.3,6.8
		c0,1.9-0.6,3.6-1.7,5.1c1-0.5,1.9-1.1,2.8-1.8c-0.3-0.9-0.5-1.8-0.5-2.7C76.3-66.5,77.6-69,79.8-70.6z"/>
	<path d="M69.8-58.2c0.9,0,1.7-0.1,2.6-0.3c1.5-1.4,2.4-3.4,2.4-5.6c0-2.5-1.1-4.7-2.9-6.1l-6.8,10.9C66.5-58.6,68.1-58.2,69.8-58.2
		z"/>
	<path d="M70.1-71.3l-6.7,10.8c0.3,0.2,0.5,0.4,0.8,0.6L71-70.8C70.7-71,70.4-71.2,70.1-71.3z"/>
	<path d="M66.9-72c-3.2,0-6,2-7.2,4.8c0.3,2.3,1.3,4.4,2.8,5.9l6.5-10.4C68.4-71.9,67.7-72,66.9-72z"/>
	<path fill="#010101" d="M177.9-66.8c0.1-0.5,0.1-1,0.1-1.5c0-4.2-3.5-7.6-7.8-7.6c-0.2,0-0.5,0-0.7,0c-1,0.8-2.2,1.5-3.6,2.1
		c-1.2,0.6-2.4,1.1-3.5,1.4c0-0.2,0-0.4-0.1-0.5c1.1-0.3,2.2-0.8,3.4-1.4c0.9-0.5,1.8-0.9,2.5-1.4c1-0.7,1.9-1.4,2.6-2.1
		c1.1-1.2,1.6-2.2,1.3-2.8c-0.2-0.5-0.9-0.7-2-0.7c-1.8,0-4.4,0.8-7,2c-2.1,1-3.7,2.2-4.8,3.2c-1.4-0.2-3,0.1-4.5,0.9
		c-3.2,1.7-4.8,5-3.5,7.4c1,1.8,3.3,2.6,5.8,2.1l0.1,0.1c-1.3,2.1-1.3,4.8-1.3,4.8h3.2h2.7c0-2.8,4-3.2,4.2-3.2l0,0.3l0,0.3
		c0,0-0.2,0-0.5,0.1c-0.9,0.2-3.1,0.8-3.2,2.4c0,0.1,0,0.1,0,0.2h2.2h6.9l0,0c2.2-0.1,4.1-1,5.5-2.5c0.4,0.5,1,0.8,1.7,0.8
		c1.2,0,2.3-1,2.3-2.3C180-65.7,179.1-66.7,177.9-66.8z M154.4-70.9c-0.5,0-0.9-0.4-0.9-0.9c0-0.5,0.4-0.9,0.9-0.9
		c0.5,0,0.9,0.4,0.9,0.9C155.3-71.3,154.9-70.9,154.4-70.9z"/>
	<path fill="#010101" d="M282-13.4l-9.4-9.4c1.2-1.8,1.9-4,1.9-6.2c0-3-1.2-5.8-3.3-7.9c-2.1-2.1-4.9-3.3-7.9-3.3
		c-3,0-5.8,1.2-7.9,3.3c-2.1,2.1-3.3,4.9-3.3,7.9s1.2,5.8,3.3,7.9s4.9,3.3,7.9,3.3c2.3,0,4.4-0.7,6.3-1.9l9.4,9.4
		c0.3,0.3,0.9,0.2,1.3-0.2l1.6-1.6C282.3-12.5,282.3-13.1,282-13.4z M263.4-20.9c-4.5,0-8.1-3.7-8.1-8.1s3.6-8.1,8.1-8.1
		s8.1,3.7,8.1,8.1S267.9-20.9,263.4-20.9z"/>
	<g id="Your_Icon">
		<path fill="#010101" d="M282.2,6.5h-24.3L256.8,3h-4.7l0.6,1.7h2.8l5.5,17.2c-1.2,0.2-2.1,1.3-2.1,2.5c0,1.4,1.2,2.6,2.6,2.6
			c1.4,0,2.6-1.1,2.6-2.6c0-0.3-0.1-0.6-0.2-0.9h7.2c-0.1,0.3-0.2,0.6-0.2,0.9c0,1.4,1.2,2.6,2.6,2.6c1.4,0,2.6-1.1,2.6-2.6
			c0-1.4-1.1-2.5-2.4-2.6c0,0-0.2,0-0.2,0l-10.7,0l-1.1-3.4h13.5L282.2,6.5z"/>
	</g>
	<path fill="#010101" d="M176,19.7c-0.2-0.1-0.4-0.2-0.6-0.3l-0.1,0c0,0-1-0.5-1.1-4.4c-0.1-3.9,0.9-4.5,0.9-4.5l0.1-0.1
		c1-0.5,1.8-1.3,2.3-2.3c1.4-2.7,0.4-6-2.3-7.4c-2.7-1.4-6-0.4-7.4,2.3c-0.6,1.1-0.7,2.3-0.6,3.4l0,0c0,0,0.3,1.3-3.1,3.4
		c-3.3,2.1-4.9,1.1-4.9,1.1l-0.2-0.1c-2.7-1.4-6-0.4-7.4,2.3c-1.4,2.7-0.4,6,2.3,7.4c2,1.1,4.3,0.8,6-0.6l0,0c0,0,1.1-0.9,4.6,1
		c2.8,1.5,3.2,2.9,3.2,3.5c-0.1,2,1,4,2.9,5c2.7,1.4,6,0.4,7.4-2.3C179.7,24.4,178.7,21.1,176,19.7z M153.3,18.5
		C153.3,18.5,153.3,18.5,153.3,18.5C153.3,18.5,153.3,18.5,153.3,18.5L153.3,18.5z M159.2,12.1c-0.7-0.6-2.4-0.5-3.9,0.4
		c0.2,0.2,0.3,0.4,0.3,0.7c0,0.6-0.5,1.2-1.1,1.2c-0.1,0-0.2,0-0.3,0c0,0,0,0-0.1,0c-0.4-0.1-0.7,0.2-0.8,0.3c-0.8,1.5-0.8,3,0,3.7
		c-1.5-1.5-1.5-4,0.1-5.8C155,10.9,157.6,10.7,159.2,12.1L159.2,12.1z M169.4,2.4c1.6-1.8,4.2-2,5.8-0.6l0,0
		c-0.7-0.6-2.4-0.5-3.9,0.4c0.2,0.2,0.3,0.4,0.3,0.7c0,0.6-0.5,1.2-1.1,1.2c-0.1,0-0.2,0-0.3,0c0,0,0,0-0.1,0
		c-0.4-0.1-0.7,0.2-0.8,0.3c-0.8,1.5-0.8,3,0,3.7C167.8,6.7,167.8,4.1,169.4,2.4z M165.4,19.3c-2.9-1.5-3.3-2.8-3.4-3.2
		c0-0.5,0-0.9-0.1-1.4l0,0c0,0-0.2-1.3,3.1-3.3c3-1.8,4.3-1.5,4.5-1.4c0.2,0.1,0.3,0.2,0.5,0.3c0.3,0.2,0.7,0.3,1,0.4
		c0.4,0.4,1.2,1.5,1.2,4.4c0.1,2.9-0.8,4-1.2,4.4c-0.5,0.2-0.9,0.5-1.3,0.9C169.4,20.6,168.1,20.7,165.4,19.3z M170.3,27.2
		C170.3,27.2,170.3,27.2,170.3,27.2C170.3,27.2,170.3,27.2,170.3,27.2L170.3,27.2z M176.1,20.9c-0.7-0.6-2.4-0.5-3.9,0.4
		c0.2,0.2,0.3,0.4,0.3,0.7c0,0.6-0.5,1.2-1.1,1.2c-0.1,0-0.2,0-0.3,0c0,0,0,0-0.1,0c-0.4-0.1-0.7,0.2-0.8,0.3c-0.8,1.5-0.8,3,0,3.7
		c-1.5-1.5-1.5-4,0.1-5.8C172,19.7,174.6,19.4,176.1,20.9L176.1,20.9z"/>
	<path fill="#010101" d="M200,11.7C200,11.8,200,11.8,200,11.7L200,11.7C200,11.7,200,11.7,200,11.7z"/>
	<g>
		<ellipse fill="#010101" cx="209" cy="11.2" rx="1" ry="1"/>
		<path fill="#010101" d="M220.5,16.3c0.6-0.1,0.9-0.7,0.8-1.2c-0.1-0.6-0.7-0.9-1.3-0.8c-0.6,0.1-0.9,0.7-0.8,1.2
			C219.4,16.1,220,16.5,220.5,16.3z"/>
		<path fill="#010101" d="M227.1,23.9c-1.4,0-3-1.5-4.8-3.2c-0.2-0.2-0.4-0.4-0.6-0.5l-0.6-2.5c-0.1-0.6-0.7-1-1.3-0.8
			c-0.5,0.1-0.8,0.5-0.9,1c-1.7-1.3-3.7-2.2-6-2.2V5.7L206.2,2L200,5.7v9.9v3.3V28h1.3v-1.7h4.2V28h1.3v-1.7h5V28h1.3v-9.1v-0.8
			c2.9,0,5.4,2.2,7.7,4.4c2.1,2,4.1,3.8,6.5,3.8h0.4V28h1.2v-1.7h1.2v-2.5H227.1z M205.4,25.5h-4.2v-1.7h4.2L205.4,25.5L205.4,25.5z
			 M205.4,23h-4.2v-1.7h4.2L205.4,23L205.4,23z M205.4,20.6h-4.2v-1.7h4.2L205.4,20.6L205.4,20.6z M211.7,15.6h-1.3l-0.5-2.1
			c-0.1-0.6-0.7-1-1.3-0.8c-0.6,0.1-1,0.7-0.8,1.3l0.4,1.6h-6.8V6.5h10.4L211.7,15.6L211.7,15.6z"/>
	</g>
	<g>
		<path fill="#585D5C" d="M124.6,19.3c-3,0-5.4,2.4-5.4,5.3c0,2.9,2.4,5.3,5.4,5.3c3,0,5.4-2.4,5.4-5.3
			C130,21.7,127.6,19.3,124.6,19.3z M124.6,27.2c-1.4,0-2.6-1.1-2.6-2.5c0-1.4,1.2-2.5,2.6-2.5c1.4,0,2.6,1.1,2.6,2.5
			C127.1,26,126,27.2,124.6,27.2z"/>
		<path fill="#585D5C" d="M114.3,15.4c1.2,0,2.3-0.1,3.4-0.4l1.9,4.3c0.9-0.9,2.1-1.5,3.4-1.7l-1.8-4c4.3-2.4,7.3-7,7.3-12.2
			c0-0.8,0-1.4,0-1.4H100c0,0,0,0.6,0,1.4c0,5.3,2.9,9.8,7.3,12.2L100,30h4.1l1.6-3.5h11.8c-0.2-0.6-0.2-1.2-0.2-1.9
			c0-0.7,0.1-1.3,0.3-1.9h-10.1l3.4-7.7C111.9,15.3,113.1,15.4,114.3,15.4z M102.9,2.8h4.2c0.4,4.3,2.5,7.9,5.5,9.7
			C107.6,11.8,103.6,7.8,102.9,2.8z"/>
	</g>
	<path fill="#585D5C" d="M77.5,16.4c0-0.1,0-0.1,0-0.2c0-2-1.5-3.6-3.4-3.7c-0.3-0.3-0.6-0.5-0.9-0.8v-1.1c0.2,0,0.3,0,0.4,0
		c0.1,0,0.3,0,0.4,0c0.5,0,0.9-0.1,1.3-0.4c0.4,0.2,0.8,0.4,1.3,0.4c1.5,0,2.6-1.2,2.6-2.6c0-1.1-0.7-2.1-1.8-2.5c0-0.1,0-0.1,0-0.2
		c0-1.4-1.1-2.5-2.4-2.6c-0.5-0.5-1.2-0.9-2-0.9c-0.9,0-1.8,0.5-2.2,1.2c-0.4-0.2-0.8-0.4-1.3-0.4c-1.5,0-2.6,1.2-2.6,2.6
		c0,0,0,0.1,0,0.1c-1.1,0.3-2,1.3-2,2.6c0,1.5,1.2,2.7,2.7,2.7c0.6,0,1.1-0.2,1.5-0.5c0,0,0,0,0,0c0.4,0.2,0.8,0.4,1.3,0.4
		c0.3,0,0.6-0.1,0.9-0.2v0.7c0,0-0.1,0-0.1,0c-1.3,0-2.5,0.7-3.2,1.7c-0.4-0.2-0.8-0.4-1.2-0.4c-0.2-1-1-1.8-1.9-2.1
		c0-0.1,0-0.1,0-0.2c0-1.5-1.2-2.8-2.7-2.9c-0.5-0.6-1.3-1-2.2-1c-1.1,0-2,0.6-2.5,1.4c-0.4-0.2-0.9-0.4-1.4-0.4c-1.6,0-3,1.3-3,3
		c0,0.1,0,0.1,0,0.2C52,10.7,51,11.8,51,13.2c0,1.6,1.3,3,3,3c0.6,0,1.2-0.2,1.7-0.5c0,0,0,0,0,0c0.4,0.3,0.9,0.4,1.5,0.4
		c0.3,0,0.7-0.1,1-0.2v3.3c-1.1-1.3-1.6-2.4-1.6-2.4h0c0,0-1.1,2.5-3.9,4.4c0,0,1.1,0.8,1.9,0.9c0,0-1.3,2.2-4.6,3.1
		c0,0,2.5,2.1,5.5,2V30H57h0.6v-2.6c3.1,0.1,5.5-2,5.5-2c-3.3-0.9-4.6-3.1-4.6-3.1c0.5-0.1,1.1-0.4,1.5-0.7c0.6,1.3,1.9,2.2,3.5,2.2
		c0.8,0,1.5-0.2,2.1-0.7c0,0,0,0,0,0c0.6,0.3,1.2,0.5,1.9,0.5c0.4,0,0.9-0.1,1.2-0.2v6.5h2.5v-6.2c0.2,0,0.4,0,0.6-0.1
		c0.2,0,0.4,0.1,0.6,0.1c0.7,0,1.3-0.2,1.9-0.5c0.6,0.3,1.2,0.5,1.9,0.5c2.1,0,3.7-1.7,3.7-3.7C80,18.3,78.9,16.9,77.5,16.4z
		 M60.1,18.3v-2.2c0.2,0,0.3,0,0.5,0c0.2,0,0.3,0,0.5,0c0.5,0,1-0.2,1.5-0.4c0,0.1,0,0.3,0,0.5c0,0.1,0,0.1,0,0.2
		C61.5,16.6,60.6,17.3,60.1,18.3z"/>
	<path fill="#585D5C" d="M9.6,15.9c-1.4,0-2.3,1.1-2.6,2.6l-0.4,2.4L0,27.5h6l1,2.4l1.1-2.7c2.3-0.7,4-2.9,4-5.5v-2l1.9-0.9L12.1,18
		C11.9,16.8,10.8,15.9,9.6,15.9z M10.1,19.1c-0.3,0-0.6-0.3-0.6-0.6S9.8,18,10.1,18s0.6,0.3,0.6,0.6S10.4,19.1,10.1,19.1z"/>
	<path fill="#585D5C" d="M20,24.7c-0.6-0.6-1.4-0.9-2.2-0.9l0,0l-3,0l0,3l0,0c0,0.8,0.3,1.6,0.9,2.2c0,0,0,0,0,0
		c1.2,1.2,3.1,1.2,4.3,0c0.6-0.6,0.9-1.4,0.9-2.1C20.9,26.1,20.6,25.3,20,24.7C20,24.7,20,24.7,20,24.7z"/>
	<path fill="#585D5C" d="M23.9,21.3c1.7,0,3-1.3,3-3c1.7,0,3-1.3,3-3c0-0.9-0.4-1.6-1-2.2c0.6-0.5,1-1.3,1-2.2c0-1.7-1.3-3-3-3
		c0-1.7-1.3-3-3-3c-0.9,0-1.6,0.4-2.2,1c-0.5-0.6-1.3-1-2.2-1c-1.7,0-3,1.3-3,3c-1.7,0-3,1.3-3,3c0,0.9,0.4,1.6,1,2.2
		c-0.6,0.5-1,1.3-1,2.2c0,1.7,1.3,3,3,3c0,1.7,1.3,3,3,3c0.5,0,1-0.1,1.4-0.3v5.9v3h1.6v-3c0,0.8,0.3,1.5,0.9,2.1
		c1.2,1.2,3.1,1.2,4.3,0c0,0,0,0,0,0c0.6-0.6,0.9-1.4,0.9-2.2l0,0l0-3l-3,0l0,0c-0.8,0-1.6,0.3-2.2,0.9c0,0,0,0,0,0
		c-0.6,0.6-0.9,1.4-0.9,2.1V21C22.9,21.2,23.4,21.3,23.9,21.3z M21.7,18.3c-2.9,0-5.2-2.3-5.2-5.2c0-2.9,2.3-5.2,5.2-5.2
		c2.9,0,5.2,2.3,5.2,5.2C26.9,16,24.6,18.3,21.7,18.3z"/>
	<path fill="#585D5C" d="M3,60.6c0.6,0,1.2-0.2,1.7-0.5c0,0,0,0,0,0c0.4,0.3,0.9,0.4,1.5,0.4c0.3,0,0.7-0.1,1-0.2v5.1h2v-4.9
		c0.2,0,0.3,0,0.5,0c0.2,0,0.3,0,0.5,0c0.5,0,1-0.2,1.5-0.4c0.4,0.3,0.9,0.4,1.5,0.4c1.6,0,3-1.3,3-3c0-1.3-0.8-2.4-2-2.8
		c0-0.1,0-0.1,0-0.2c0-1.5-1.2-2.8-2.7-2.9c-0.5-0.6-1.3-1-2.2-1c-1.1,0-2,0.6-2.5,1.4c-0.4-0.2-0.9-0.4-1.4-0.4c-1.6,0-3,1.3-3,3
		c0,0.1,0,0.1,0,0.2C1,55.1,0,56.2,0,57.6C0,59.3,1.3,60.6,3,60.6z"/>
	<rect x="28.3" y="77.7" fill="none" width="3.3" height="3.3"/>
	<path fill="#585D5C" d="M15,58.8L15,58.8c7.7,4.9-14.3,4.6-15,12.1h19.7C7.2,68,24.7,60.9,15,58.8z"/>
	<g>
		<path fill="#585D5C" d="M25,53c0,0-0.2,0-0.2-0.4c0-0.4-0.4-0.8-0.8-0.8c-0.5,0-0.8,0.4-0.8,0.8C23.2,53,23,53,23,53
			c-0.1,0-0.2,0.1-0.2,0.2c0,0.1,0.1,0.2,0.2,0.2H25c0.1,0,0.2-0.1,0.2-0.2C25.2,53,25.2,53,25,53z"/>
		<circle fill="#585D5C" cx="24" cy="54" r="0.4"/>
		<circle fill="#585D5C" cx="24" cy="48.3" r="0.6"/>
		<path fill="#585D5C" d="M27.8,58.5l-1.3-3.8v-3.3c0.2,0,0.4-0.2,0.4-0.4s-0.2-0.4-0.4-0.4h-0.8c0-0.9-0.7-1.7-1.7-1.7
			c-0.9,0-1.7,0.7-1.7,1.7h-0.8c-0.2,0-0.4,0.2-0.4,0.4s0.2,0.4,0.4,0.4v3.3l-1.3,3.8h-2.1v1.3H19v2.5v3.3v2.8h10v-2.8v-3.3v-2.5
			h0.8v-1.3H27.8z M22.3,51.4h3.3v3.3h-3.3V51.4z M23.2,65.6L23.2,65.6l0,1.2h-2.5v-1.2v-3.3v0c0-0.7,0.6-1.3,1.3-1.3
			c0.7,0,1.3,0.6,1.3,1.3v0V65.6z M27.3,65.6L27.3,65.6l0,1.2h-2.5v-1.2v-3.3v0c0-0.7,0.6-1.3,1.3-1.3c0.7,0,1.3,0.6,1.3,1.3v0V65.6
			z"/>
	</g>
	<path fill="#585D5C" d="M17.3,46.2c0.8-0.2,1.9-0.9,1.9-0.9c-2.8-1.9-3.9-4.4-3.9-4.4h0c0,0-1.1,2.5-3.9,4.4c0,0,1.1,0.8,1.9,0.9
		c0,0-1.3,2.2-4.6,3.1c0,0,2.5,2.1,5.5,2V54h1.5h0.6v-2.6c3.1,0.1,5.5-2,5.5-2C18.7,48.4,17.3,46.2,17.3,46.2z"/>
	<g>
		<path fill="#585D5C" d="M17.5,85.8c0,0-0.3,0-0.3-0.6c0-0.6-0.5-1.2-1.2-1.2c-0.7,0-1.2,0.5-1.2,1.2c0,0.6-0.3,0.6-0.3,0.6
			c-0.2,0-0.3,0.1-0.3,0.3c0,0.2,0.1,0.3,0.3,0.3h3c0.2,0,0.3-0.1,0.3-0.3C17.8,85.9,17.7,85.8,17.5,85.8z"/>
		<circle fill="#585D5C" cx="16" cy="87.3" r="0.6"/>
		<circle fill="#585D5C" cx="16" cy="79.1" r="0.9"/>
		<path fill="#585D5C" d="M21.4,93.7l-1.8-5.4v-4.8c0.3,0,0.6-0.3,0.6-0.6s-0.3-0.6-0.6-0.6h-1.2c0-1.3-1.1-2.4-2.4-2.4
			c-1.3,0-2.4,1.1-2.4,2.4h-1.2c-0.3,0-0.6,0.3-0.6,0.6s0.3,0.6,0.6,0.6v4.8l-1.8,5.4h-3v1.8h1.2v3.6v4.7v4h14.3v-4v-4.7v-3.6h1.2
			v-1.8H21.4z M13.6,83.6h4.8v4.8h-4.8V83.6z M14.8,103.9L14.8,103.9l0,1.8h-3.6v-1.8v-4.7v-0.1c0-1,0.8-1.8,1.8-1.8
			c1,0,1.8,0.8,1.8,1.8v0.1V103.9z M20.8,103.9L20.8,103.9l0,1.8h-3.6v-1.8v-4.7v-0.1c0-1,0.8-1.8,1.8-1.8c1,0,1.8,0.8,1.8,1.8v0.1
			V103.9z"/>
	</g>
	<g>
		<path fill="#585D5C" d="M75.4,58.8L75.4,58.8c7.7,4.9-14.3,4.6-15,12.1h19.7C67.7,68,85.1,60.9,75.4,58.8z"/>
		<path fill="#585D5C" d="M61.6,64.8v-6.2c0.2,0,0.4,0,0.6-0.1c0.2,0,0.4,0.1,0.6,0.1c0.7,0,1.3-0.2,1.9-0.5
			c0.6,0.3,1.2,0.5,1.9,0.5c2.1,0,3.7-1.7,3.7-3.7c0-1.6-1.1-3-2.5-3.5c0-0.1,0-0.1,0-0.2c0-0.5-0.1-0.9-0.2-1.3
			c0.9,0.6,2.8,1.6,5,1.6V54H74h0.6v-2.6c3.1,0.1,5.5-2,5.5-2c-3.3-0.9-4.6-3.1-4.6-3.1c0.8-0.2,1.9-0.9,1.9-0.9
			c-2.8-1.9-3.9-4.4-3.9-4.4h0c0,0-1.1,2.5-3.9,4.4c0,0,1.1,0.8,1.9,0.9c0,0-1.2,2-4.3,3c-0.6-1-1.7-1.8-2.9-1.9
			c-0.7-0.8-1.7-1.3-2.8-1.3c-1.3,0-2.5,0.7-3.2,1.7c-0.5-0.3-1.2-0.5-1.8-0.5c-2.1,0-3.7,1.7-3.7,3.7c0,0.1,0,0.1,0,0.2
			c-1.6,0.4-2.8,1.9-2.8,3.7c0,2.1,1.7,3.8,3.8,3.8c0.8,0,1.5-0.2,2.1-0.7c0,0,0,0,0,0c0.6,0.3,1.2,0.5,1.9,0.5
			c0.4,0,0.9-0.1,1.2-0.2v6.5H61.6z"/>
	</g>
	<path fill="#585D5C" d="M76.5,94.4c0-0.1,0-0.1,0-0.2c0-2-1.5-3.6-3.4-3.7c-0.7-0.8-1.7-1.3-2.8-1.3c-1.3,0-2.5,0.7-3.2,1.7
		c-0.5-0.3-1-0.4-1.5-0.5c0.1-0.3,0.2-0.7,0.2-1.1c0-1.1-0.7-2.1-1.8-2.5c0-0.1,0-0.1,0-0.2c0-1.4-1.1-2.5-2.4-2.6
		c-0.5-0.5-1.2-0.9-2-0.9c-0.9,0-1.8,0.5-2.2,1.2c-0.4-0.2-0.8-0.4-1.3-0.4c-1.5,0-2.6,1.2-2.6,2.6c0,0,0,0.1,0,0.1
		c-1.1,0.3-2,1.3-2,2.6c0,1.5,1.2,2.7,2.7,2.7c0.6,0,1.1-0.2,1.5-0.5c0,0,0,0,0,0c0.4,0.2,0.8,0.4,1.3,0.4c0.3,0,0.6-0.1,0.9-0.2
		v1.7c-0.5,0.2-1,0.6-1.3,1.1c-0.4-0.2-0.9-0.4-1.4-0.4c-1.6,0-3,1.3-3,3c0,0.1,0,0.1,0,0.2c-1.3,0.3-2.2,1.5-2.2,2.9
		c0,1.6,1.3,3,3,3c0.6,0,1.2-0.2,1.7-0.5c0,0,0,0,0,0c0.4,0.3,0.9,0.4,1.5,0.4c0.3,0,0.7-0.1,1-0.2v5.1h2v-4.9c0.2,0,0.3,0,0.5,0
		c0.2,0,0.3,0,0.5,0c0.5,0,1-0.2,1.5-0.4c0.4,0.3,0.9,0.4,1.5,0.4c1.1,0,2.1-0.6,2.6-1.5c0.3,0.1,0.6,0.1,0.9,0.1
		c0.4,0,0.9-0.1,1.2-0.2v6.5h2.5v-6.2c0.2,0,0.4,0,0.6-0.1c0.2,0,0.4,0.1,0.6,0.1c0.7,0,1.3-0.2,1.9-0.5c0.6,0.3,1.2,0.5,1.9,0.5
		c2.1,0,3.7-1.7,3.7-3.7C79,96.3,77.9,95,76.5,94.4z M60.1,92c0.1,0,0.3,0,0.4,0c0.5,0,0.9-0.1,1.3-0.4c0.1,0.1,0.3,0.1,0.5,0.2
		c-0.5,0.6-0.8,1.4-0.8,2.3c0,0,0,0.1,0,0.1c-0.1,0-0.1,0-0.2,0c-0.4-0.5-1-0.8-1.6-0.9v-1.3C59.8,92.1,60,92,60.1,92z"/>
	<path fill="#010101" d="M100-71.1v0.3C100-71,100-71.1,100-71.1L100-71.1z"/>
	<path fill="#010101" d="M100-70.1L100-70.1c0-0.1,0-0.2,0-0.3V-70.1z"/>
	<path fill="#010101" d="M124.4-82.4c-3.5,2.6-5.7,6.6-5.9,11.2H130C129.8-75.7,127.7-79.7,124.4-82.4z"/>
	<path fill="#010101" d="M130-70.1h-11.5c0.2,4.6,2.5,8.6,5.9,11.1C127.7-61.7,129.8-65.7,130-70.1z"/>
	<path fill="#010101" d="M123.5-83c-2.3-1.6-5-2.6-8-2.7v14.5h2C117.6-76,120-80.2,123.5-83z"/>
	<path fill="#010101" d="M117.5-70.1h-2v14.5c3-0.1,5.8-1.1,8.1-2.7C120-61.1,117.7-65.4,117.5-70.1z"/>
	<path fill="#010101" d="M105.5-59.1c3.4-2.5,5.6-6.5,5.8-11.1H100C100.2-65.7,102.3-61.7,105.5-59.1z"/>
	<path fill="#010101" d="M105.5-82.3c-3.2,2.7-5.4,6.6-5.5,11.1h11.3C111.1-75.7,108.9-79.7,105.5-82.3z"/>
	<path fill="#010101" d="M106.3-58.5c2.3,1.7,5.2,2.7,8.2,2.8v-14.5h-2.2C112.1-65.4,109.8-61.2,106.3-58.5z"/>
	<path fill="#010101" d="M114.5-85.7c-3,0.1-5.9,1.1-8.2,2.7c3.5,2.8,5.8,7,6,11.8h2.2V-85.7z"/>
</g>
</svg>
