<?xml version="1.0" encoding="utf-8"?>
<!-- Generated by IcoMoon.io -->
<!DOCTYPE svg PUBLIC "-//W3C//DTD SVG 1.1//EN" "http://www.w3.org/Graphics/SVG/1.1/DTD/svg11.dtd">
<svg version="1.1" xmlns="http://www.w3.org/2000/svg" xmlns:xlink="http://www.w3.org/1999/xlink" width="1024" height="1024" viewBox="0 0 1024 1024"><g id="icomoon-ignore">
</g>
<path d="M962.199 898.485h-787.843c-33.185 0-60.246-27.029-60.246-60.278v-787.875c0-33.217 27.029-60.246 60.246-60.246h787.843c33.217 0 60.246 27.029 60.246 60.246v787.843c0 33.281-27.029 60.31-60.246 60.31zM194.203 818.36h748.149v-748.149h-748.149v748.149zM312.995 624.061c-14.108-14.14-14.108-37.225 0-51.396l166.181-166.149c14.108-14.108 14.108-37.225 0-51.332l-114.047-114.079c-14.108-14.108-9.362-25.682 10.677-25.682h362.372c19.943 0 36.327 16.352 36.327 36.295v362.404c0 19.975-11.543 24.784-25.714 10.677l-114.015-114.047c-14.172-14.172-37.257-14.172-51.461 0l-166.116 166.116c-14.108 14.108-37.225 14.108-51.364 0l-52.839-52.807zM861.298 1013.846h-727.309c-74.578 0-135.208-60.662-135.208-135.24v-713.009c0-18.981 15.39-34.339 34.339-34.339s34.307 15.358 34.307 34.339v713.009c0 36.68 29.85 66.562 66.562 66.562h727.309c18.949 0 34.307 15.358 34.307 34.339s-15.39 34.339-34.307 34.339z" fill="rgb(68, 68, 68)"></path>
</svg>
