<?xml version="1.0" encoding="utf-8"?>
<!-- Generator: Adobe Illustrator 18.0.0, SVG Export Plug-In . SVG Version: 6.00 Build 0)  -->
<!DOCTYPE svg PUBLIC "-//W3C//DTD SVG 1.0//EN" "http://www.w3.org/TR/2001/REC-SVG-20010904/DTD/svg10.dtd">
<svg version="1.0" xmlns="http://www.w3.org/2000/svg" xmlns:xlink="http://www.w3.org/1999/xlink" x="0px" y="0px"
	 viewBox="0 0 30 30" enable-background="new 0 0 30 30" xml:space="preserve">
<g id="Layer_1">
	<path fill-rule="evenodd" clip-rule="evenodd" d="M-35-366.9c-8.3,0-15,6.7-15,15s6.7,15,15,15s15-6.7,15-15S-26.7-366.9-35-366.9z
		 M-36.9-340.6v-9.4h-9.4l18.7-9.4L-36.9-340.6z"/>
</g>
<g id="Layer_2">
	<path fill-rule="evenodd" clip-rule="evenodd" d="M172.2-317h-15c-2.1,0-3.7,1.7-3.7,3.8v22.5c0,2.1,1.7,3.7,3.7,3.7h15
		c2.1,0,3.7-1.7,3.7-3.7v-22.5C176-315.3,174.3-317,172.2-317z M174.5-290.7c0,1.2-1,2.2-2.2,2.2h-15c-1.2,0-2.2-1-2.2-2.2v-22.5
		c0-1.2,1-2.2,2.2-2.2h15c1.2,0,2.2,1,2.2,2.2V-290.7z"/>
	<path fill-rule="evenodd" clip-rule="evenodd" d="M23.4-353.8c3.6,0,6.6,3,6.6,6.7c0,3.7-2.9,6.7-6.6,6.7c-3.6,0-6.6-3-6.6-6.7
		c0-2.3,1.2-4.4,2.9-5.6l-0.4-0.7l-1.1-2.1l-0.1-0.3h-6.8c-0.8,0-1.5,0.5-1.7,1.3l-0.4,1.2c2.3,1.1,3.9,3.4,3.9,6.1
		c0,3.7-2.9,6.7-6.6,6.7s-6.6-3-6.6-6.7c0-3.7,2.9-6.7,6.6-6.7c0.3,0,0.6,0.1,0.9,0.1l1-3.3c0.1-0.4,0.5-0.7,0.9-0.7h9.9l1.7-3.8
		h-3.2c-0.5,0-0.9-0.4-0.9-1c0-0.5,0.4-1,0.9-1h4.1h0.6c0.3,0,0.6,0.2,0.8,0.4c0.2,0.3,0.2,0.6,0.1,0.9l-0.3,0.6l-2.7,5.9l1.1,2.1
		C22.1-353.7,22.8-353.8,23.4-353.8z M8.7-351.4l-1,3c-0.1,0.2-0.2,0.4-0.5,0.6c-0.2,0.1-0.5,0.1-0.7,0.1c-0.5-0.2-0.8-0.7-0.6-1.2
		l0.9-2.9c-0.1,0-0.2,0-0.3,0c-2.6,0-4.7,2.1-4.7,4.8c0,2.6,2.1,4.8,4.7,4.8c2.6,0,4.7-2.1,4.7-4.8C11.3-349,10.2-350.6,8.7-351.4z
		 M18.7-347.1c0,2.6,2.1,4.8,4.7,4.8s4.7-2.1,4.7-4.8c0-2.6-2.1-4.8-4.7-4.8c-0.3,0-0.7,0-1,0.1l2.3,4.3c0.1,0.2,0.1,0.5,0.1,0.7
		c-0.1,0.2-0.2,0.5-0.5,0.6l0,0c-0.5,0.2-1,0.1-1.2-0.4l-2.4-4.5C19.5-350.1,18.7-348.7,18.7-347.1z M9.4-359.6H6.6
		c-0.5,0-0.9-0.4-0.9-1c0-0.5,0.4-1,0.9-1h5.6c0.2,0,0.3,0.1,0.3,0.2c0.1,0.1,0,0.3-0.1,0.4C11.6-360,10.8-359.6,9.4-359.6z"/>
	<path fill-rule="evenodd" clip-rule="evenodd" d="M79.1-352.8h-0.9v-5.6h0.9c0.5,0,0.9,0.4,0.9,0.9v3.7
		C80-353.2,79.6-352.8,79.1-352.8z M74.4-341.6v1.9c0,1-0.8,1.9-1.9,1.9h-1.9c-1,0-1.9-0.8-1.9-1.9v-1.9h-7.5v1.9
		c0,1-0.8,1.9-1.9,1.9h-1.9c-1,0-1.9-0.8-1.9-1.9v-1.9c-1,0-1.9-0.8-1.9-1.9v-16.8c0-3.1,2.5-5.6,5.6-5.6h11.2
		c3.1,0,5.6,2.5,5.6,5.6v16.8C76.2-342.5,75.4-341.6,74.4-341.6z M57.5-343.5c1,0,1.9-0.8,1.9-1.9c0-1-0.8-1.9-1.9-1.9
		c-1,0-1.9,0.8-1.9,1.9C55.6-344.3,56.5-343.5,57.5-343.5z M68.7-364h-7.5v1.9h7.5V-364z M74.4-360.3H55.6v11.2h18.7V-360.3z
		 M72.5-347.2c-1,0-1.9,0.8-1.9,1.9c0,1,0.8,1.9,1.9,1.9c1,0,1.9-0.8,1.9-1.9C74.4-346.4,73.5-347.2,72.5-347.2z M50-353.8v-3.7
		c0-0.5,0.4-0.9,0.9-0.9h0.9v5.6h-0.9C50.4-352.8,50-353.2,50-353.8z"/>
	<path fill-rule="evenodd" clip-rule="evenodd" d="M124.4-350.1c0,2-1.7,3.7-3.7,3.7h-11.2c-2.1,0-3.7-1.6-3.7-3.7v-12.8h18.7v1.8
		c3.1,0,5.6,2.5,5.6,5.5C130-352.5,127.5-350.1,124.4-350.1z M109.4-361.1h-1.9v11c0,1,0.8,1.8,1.9,1.8V-361.1z M124.4-359.2v7.3
		c2.1,0,3.7-1.6,3.7-3.7C128.1-357.6,126.4-359.2,124.4-359.2z M130-342.7c0,1-0.8,1.8-1.9,1.8h-26.2c-1,0-1.9-0.8-1.9-1.8
		c0-1,0.8-1.8,1.9-1.8h26.2C129.2-344.6,130-343.7,130-342.7z"/>
	<g>
		<polygon fill-rule="evenodd" clip-rule="evenodd" points="178,-361.4 178,-339.4 152,-339.4 152,-337.4 180,-337.4 180,-338.4 
			180,-339.4 180,-361.4 		"/>
		<path fill-rule="evenodd" clip-rule="evenodd" d="M176-363.4h-3c0,1.7-1.3,3-3,3c-1.7,0-3-1.3-3-3h-7c0,1.7-1.3,3-3,3
			c-1.7,0-3-1.3-3-3h-4v22h26V-363.4z M174-343.4h-22v-15h22V-343.4z"/>
		<path fill-rule="evenodd" clip-rule="evenodd" d="M157-362.4c0.6,0,1-0.4,1-1v-2c0-0.6-0.4-1-1-1s-1,0.4-1,1v2
			C156-362.8,156.4-362.4,157-362.4z"/>
		<path fill-rule="evenodd" clip-rule="evenodd" d="M170-362.4c0.6,0,1-0.4,1-1v-2c0-0.6-0.4-1-1-1s-1,0.4-1,1v2
			C169-362.8,169.4-362.4,170-362.4z"/>
		<rect x="156" y="-355.4" fill-rule="evenodd" clip-rule="evenodd" width="3" height="3"/>
		<rect x="162" y="-355.4" fill-rule="evenodd" clip-rule="evenodd" width="3" height="3"/>
		<rect x="167" y="-355.4" fill-rule="evenodd" clip-rule="evenodd" width="3" height="3"/>
		<rect x="156" y="-350.4" fill-rule="evenodd" clip-rule="evenodd" width="3" height="3"/>
		<rect x="162" y="-350.4" fill-rule="evenodd" clip-rule="evenodd" width="3" height="3"/>
		<rect x="167" y="-350.4" fill-rule="evenodd" clip-rule="evenodd" width="3" height="3"/>
	</g>
	<g>
		<path fill-rule="evenodd" clip-rule="evenodd" d="M207-362.9c0.6,0,1-0.4,1-1v-2c0-0.6-0.4-1-1-1s-1,0.4-1,1v2
			C206-363.3,206.4-362.9,207-362.9z"/>
		<path fill-rule="evenodd" clip-rule="evenodd" d="M220-362.9c0.6,0,1-0.4,1-1v-2c0-0.6-0.4-1-1-1s-1,0.4-1,1v2
			C219-363.3,219.4-362.9,220-362.9z"/>
		<rect x="206" y="-355.9" fill-rule="evenodd" clip-rule="evenodd" width="3" height="3"/>
		<rect x="212" y="-355.9" fill-rule="evenodd" clip-rule="evenodd" width="3" height="3"/>
		<rect x="217" y="-355.9" fill-rule="evenodd" clip-rule="evenodd" width="3" height="3"/>
		<rect x="206" y="-350.9" fill-rule="evenodd" clip-rule="evenodd" width="3" height="3"/>
		<rect x="212" y="-350.9" fill-rule="evenodd" clip-rule="evenodd" width="3" height="3"/>
		<rect x="202" y="-339.9" fill-rule="evenodd" clip-rule="evenodd" width="17" height="2"/>
		<rect x="228" y="-361.9" fill-rule="evenodd" clip-rule="evenodd" width="2" height="13"/>
		<path fill-rule="evenodd" clip-rule="evenodd" d="M202-358.9h22v10h2v-15h-3c0,1.7-1.3,3-3,3s-3-1.3-3-3h-7c0,1.7-1.3,3-3,3
			s-3-1.3-3-3h-4v22h19v-2h-17V-358.9z"/>
		<path fill-rule="evenodd" clip-rule="evenodd" d="M225-347.9c-2.8,0-5,2.2-5,5c0,2.8,2.2,5,5,5s5-2.2,5-5
			C230-345.6,227.8-347.9,225-347.9z M228-341.9h-2v2h-2v-2h-2v-2h2v-2h2v2h2V-341.9z"/>
		<rect x="217" y="-350.9" fill-rule="evenodd" clip-rule="evenodd" width="3" height="3"/>
	</g>
	<g>
		
			<rect x="-28.9" y="-294.7" transform="matrix(-0.5 -0.866 0.866 -0.5 212.9164 -465.4602)" fill-rule="evenodd" clip-rule="evenodd" width="2" height="1"/>
		
			<rect x="-30.9" y="-298.2" transform="matrix(-0.5 -0.866 0.866 -0.5 212.927 -472.3737)" fill-rule="evenodd" clip-rule="evenodd" width="2" height="1"/>
		
			<rect x="-32.9" y="-301.6" transform="matrix(-0.5 -0.866 0.866 -0.5 212.9162 -479.3168)" fill-rule="evenodd" clip-rule="evenodd" width="2" height="1"/>
		
			<rect x="-34.4" y="-305.6" transform="matrix(-0.866 0.5 -0.5 -0.866 -215.5525 -551.4089)" fill-rule="evenodd" clip-rule="evenodd" width="1" height="2"/>
		
			<rect x="-22.2" y="-299.1" transform="matrix(0.7072 -0.707 0.707 0.7072 204.4506 -102.6103)" fill-rule="evenodd" clip-rule="evenodd" width="1" height="2"/>
		
			<rect x="-25.5" y="-301.5" transform="matrix(-0.7071 -0.7071 0.7071 -0.7071 171.0271 -531.0991)" fill-rule="evenodd" clip-rule="evenodd" width="2" height="1"/>
		
			<rect x="-28.3" y="-304.3" transform="matrix(-0.7072 -0.7071 0.7071 -0.7072 168.1734 -537.9485)" fill-rule="evenodd" clip-rule="evenodd" width="2" height="1"/>
		
			<rect x="-31.1" y="-307.1" transform="matrix(0.7072 0.707 -0.707 0.7072 -225.6283 -68.4776)" fill-rule="evenodd" clip-rule="evenodd" width="2" height="1"/>
		
			<rect x="-34.3" y="-292.1" transform="matrix(-0.2588 -0.9659 0.9659 -0.2588 239.6757 -399.2724)" fill-rule="evenodd" clip-rule="evenodd" width="2" height="1"/>
		
			<rect x="-34.9" y="-296.5" transform="matrix(0.9659 -0.2589 0.2589 0.9659 75.3256 -18.9776)" fill-rule="evenodd" clip-rule="evenodd" width="1" height="2"/>
		
			<rect x="-35.9" y="-300.3" transform="matrix(0.9659 -0.2589 0.2589 0.9659 76.2862 -19.3757)" fill-rule="evenodd" clip-rule="evenodd" width="1" height="2"/>
		
			<rect x="-37" y="-304.2" transform="matrix(0.9659 -0.2589 0.2589 0.9659 77.2557 -19.7772)" fill-rule="evenodd" clip-rule="evenodd" width="1" height="2"/>
		<rect x="-40.4" y="-291.4" fill-rule="evenodd" clip-rule="evenodd" width="1" height="2"/>
		<rect x="-40.4" y="-295.4" fill-rule="evenodd" clip-rule="evenodd" width="1" height="2"/>
		<rect x="-40.4" y="-299.4" fill-rule="evenodd" clip-rule="evenodd" width="1" height="2"/>
		<rect x="-40.4" y="-303.4" fill-rule="evenodd" clip-rule="evenodd" width="1" height="2"/>
		<path fill-rule="evenodd" clip-rule="evenodd" d="M-33-313.2l-3.1,1.8c-1.1-2.4-3.5-4-6.3-4c-3.9,0-7,3.1-7,7v20h4v-20
			c0-1.7,1.3-3,3-3c1.3,0,2.4,0.8,2.8,2l-3.8,2.2l1.5,2.6l10.4-6L-33-313.2z"/>
	</g>
	<path fill-rule="evenodd" clip-rule="evenodd" d="M29.7-291.6l-9.3-9.6l9.4-9.8c0.1,0.2,0.1,0.5,0.1,0.7v17.6
		C30-292.2,29.9-291.9,29.7-291.6z M1.7-312.3l0.2,0h26.2l0.3,0.1L15-298.5L1.7-312.3z M0.2-291.7C0.1-292,0-292.3,0-292.6v-17.6
		c0-0.3,0.1-0.6,0.1-0.9l9.4,9.9L0.2-291.7z M15-295.5l4-4.1l9,9.3H1.9l-0.1,0l9.2-9.3L15-295.5z"/>
	<path d="M50-316.9v30h30v-30H50z M70.3-296.4c0,0-6,6.5-7.9,7.3c0,0-7.2-5.9-9.4-9.5c-2.2-3.6-2.9-6.9,1.3-9.1
		c4.3-2.3,7.8,2.1,8.1,3c0,0,3.2-5.8,8.9-2.5C77.1-303.8,70.3-296.4,70.3-296.4z M78-310.9h-3v3h-2v-3h-3v-2h3v-3h2v3h3V-310.9z"/>
	<path d="M59-306.9v11l3.5-2.6l-0.4,5.6l-1.3-0.4l1.6,3.2l2.3-2.7l-1.1,0l1.4-9.2l-4,2v-5L59-306.9z"/>
	<path fill-rule="evenodd" clip-rule="evenodd" d="M112-312.9h1v23h-1V-312.9z"/>
	<path fill-rule="evenodd" clip-rule="evenodd" d="M128.6-299.9l-2.8-4.3l-1.1,2.2l3.9,6.4H125l-0.6,5.7h-2.8l-0.6-5.7h-3.6l3.9-6.4
		l-1.1-2.2l-2.8,4.3H116l2.3-5.9c0.3-0.8,1.1-1.3,1.9-1.3h1.4l1.4,2.9l1.4-2.9h1.4c0.8,0,1.6,0.5,1.9,1.3l2.3,5.9H128.6z M123-308.6
		c-1.2,0-2.1-1-2.1-2.2c0-1.2,0.9-2.2,2.1-2.2c1.2,0,2.1,1,2.1,2.2C125.1-309.5,124.2-308.6,123-308.6z"/>
	<path fill-rule="evenodd" clip-rule="evenodd" d="M106.1-298.5l-0.8,8.6h-2.7l-0.8-8.6H100v-7.6c0.6-0.3,1.3-0.6,2.1-0.8l1.9,4.1
		l1.9-4.1c0.8,0.2,1.5,0.4,2.1,0.8v7.6H106.1z M104-308.6c-1.1,0-2-1-2-2.2c0-1.2,0.9-2.2,2-2.2c1.1,0,2,1,2,2.2
		C106-309.5,105.1-308.6,104-308.6z"/>
	<path fill-rule="evenodd" clip-rule="evenodd" d="M227.5-297.1l-10.6-5.9c0-0.6,0.4-1.2,0.9-1.5c1.7-1,2.8-2.8,2.8-4.8
		c0-3.1-2.5-5.6-5.6-5.6s-5.6,2.5-5.6,5.6c0,1,0.8,1.9,1.9,1.9c1,0,1.9-0.8,1.9-1.9c0-1,0.8-1.9,1.9-1.9s1.9,0.8,1.9,1.9
		c0,0.7-0.4,1.3-0.9,1.6c-1.7,1-2.8,2.8-2.8,4.7l-10.7,6c-1.4,0.9-2.4,2.8-2.4,4.4c0,2,1.7,3.7,3.7,3.7h22.5c2.1,0,3.7-1.7,3.7-3.7
		C230-294.3,229-296.1,227.5-297.1z M203.8-292.6c0-0.4,0.4-1.1,0.6-1.2l10.6-5.9l10.5,5.9c0.3,0.2,0.7,0.9,0.7,1.3H203.8z"/>
	<path fill-rule="evenodd" clip-rule="evenodd" d="M50-243.7h30v1H50V-243.7z"/>
	<path fill-rule="evenodd" clip-rule="evenodd" d="M63-242.7h4c1.1,0,2-0.9,2-2h-8C61-243.6,61.9-242.7,63-242.7z"/>
	<path fill-rule="evenodd" clip-rule="evenodd" d="M73-242.7h4c1.1,0,2-0.9,2-2h-8C71-243.6,71.9-242.7,73-242.7z"/>
	<path fill-rule="evenodd" clip-rule="evenodd" d="M67-253.7h-4c-1.1,0-2,0.9-2,2v6h8v-6C69-252.8,68.1-253.7,67-253.7z M66.5-251.8
		h-3.1c-0.3,0-0.5-0.2-0.5-0.5c0-0.3,0.2-0.5,0.5-0.5h3.1c0.3,0,0.5,0.2,0.5,0.5C67-252,66.8-251.8,66.5-251.8z"/>
	<path fill-rule="evenodd" clip-rule="evenodd" d="M77-253.7h-4c-1.1,0-2,0.9-2,2v6h8v-6C79-252.8,78.1-253.7,77-253.7z M76.5-251.8
		h-3.1c-0.3,0-0.5-0.2-0.5-0.5c0-0.3,0.2-0.5,0.5-0.5h3.1c0.3,0,0.5,0.2,0.5,0.5C77-252,76.8-251.8,76.5-251.8z"/>
	<path fill-rule="evenodd" clip-rule="evenodd" d="M66-251.7h8v1h-8V-251.7z"/>
	<path fill-rule="evenodd" clip-rule="evenodd" d="M50-243.7h1v3h-1V-243.7z"/>
	<path fill-rule="evenodd" clip-rule="evenodd" d="M79-243.7h1v3h-1V-243.7z"/>
	<path fill-rule="evenodd" clip-rule="evenodd" d="M53-242.7h4c1.1,0,2-0.9,2-2h-8C51-243.6,51.9-242.7,53-242.7z"/>
	<path fill-rule="evenodd" clip-rule="evenodd" d="M57-253.7h-4c-1.1,0-2,0.9-2,2v6h8v-6C59-252.8,58.1-253.7,57-253.7z M56.5-251.8
		h-3.1c-0.3,0-0.5-0.2-0.5-0.5c0-0.3,0.2-0.5,0.5-0.5h3.1c0.3,0,0.5,0.2,0.5,0.5C57-252,56.8-251.8,56.5-251.8z"/>
	<path fill-rule="evenodd" clip-rule="evenodd" d="M56-251.7h8v1h-8V-251.7z"/>
	<path fill="none" d="M61.5-258.8h-3.1c-0.3,0-0.5,0.2-0.5,0.5c0,0.3,0.2,0.5,0.5,0.5h3.1c0.3,0,0.5-0.2,0.5-0.5
		C62-258.6,61.8-258.8,61.5-258.8z"/>
	<path fill="none" d="M72-258.3c0-0.3-0.2-0.5-0.5-0.5h-3.1c-0.3,0-0.5,0.2-0.5,0.5c0,0.3,0.2,0.5,0.5,0.5h3.1
		C71.8-257.8,72-258,72-258.3z"/>
	<path fill="none" d="M62-258.3c0-0.3-0.2-0.5-0.5-0.5h-3.1c-0.3,0-0.5,0.2-0.5,0.5c0,0.3,0.2,0.5,0.5,0.5h3.1
		C61.8-257.8,62-258,62-258.3z"/>
	<path d="M73-254.2h1v-3.5c0-1.1-0.9-2-2-2h-4c-1.1,0-2,0.9-2,2v3.5h1c1.4,0,2.5,1.1,2.5,2.5v1h1v-1C70.5-253.1,71.6-254.2,73-254.2
		z M68.5-257.8c-0.3,0-0.5-0.2-0.5-0.5c0-0.3,0.2-0.5,0.5-0.5h3.1c0.3,0,0.5,0.2,0.5,0.5c0,0.3-0.2,0.5-0.5,0.5H68.5z"/>
	<path d="M63-254.2h1v-3.5c0-1.1-0.9-2-2-2h-4c-1.1,0-2,0.9-2,2v3.5h1c1.4,0,2.5,1.1,2.5,2.5v1h1v-1C60.5-253.1,61.6-254.2,63-254.2
		z M58.5-257.8c-0.3,0-0.5-0.2-0.5-0.5c0-0.3,0.2-0.5,0.5-0.5h3.1c0.3,0,0.5,0.2,0.5,0.5c0,0.3-0.2,0.5-0.5,0.5H58.5z"/>
	<g>
		<path d="M-29.9-243c-0.5-0.3-1.2-0.2-1.5,0.4c-1.4,2.2-3.7,3.5-6.3,3.5c-4.1,0-7.4-3.4-7.4-7.5c0-2.4,1.2-4.7,3.1-6.1
			c0.5-0.4,0.6-1,0.2-1.5c-0.4-0.5-1-0.6-1.5-0.3c-2.5,1.8-4,4.8-4,7.9c0,5.3,4.3,9.7,9.6,9.7c3.3,0,6.4-1.7,8.1-4.6
			C-29.2-242-29.3-242.7-29.9-243z"/>
		<path d="M-22.3-242.3c-0.2-0.6-0.8-0.9-1.4-0.7l-1.3,0.5c0,0-2.4-6.8-2.5-6.9c0,0-0.1-0.1-0.1-0.2c-0.3-0.5-0.9-0.9-1.5-0.9h-5.7
			l-0.1-2.1h4.7c0.6,0,1.1-0.5,1.1-1.1c0-0.6-0.5-1.1-1.1-1.1H-35l-0.2-3.1c0,0,0-0.1,0-0.1c-0.1-1.5-1.4-2.7-2.9-2.6
			c-1.5,0.1-2.7,1.4-2.6,2.9v0l0,0l0.4,8.1l0,0c0,0,0,0,0,0c0.1,1.5,1.3,2.6,2.7,2.6c0,0,7.4,0,7.4,0l2.2,6.1
			c0.2,0.7,0.9,1.1,1.5,1.1c0.1,0,0.2,0,0.3,0c0.1,0,0.1,0,0.2-0.1l2.9-1.1C-22.4-241.1-22.1-241.7-22.3-242.3z"/>
		
			<ellipse transform="matrix(5.248704e-02 0.9986 -0.9986 5.248704e-02 -300.0967 -212.4915)" cx="-38.1" cy="-264.4" rx="2.5" ry="2.5"/>
	</g>
	<g>
		<path fill-rule="evenodd" clip-rule="evenodd" d="M27-256.7c0-0.1,0-0.1,0-0.2c0-2-1.5-3.6-3.4-3.7c-0.7-0.8-1.7-1.3-2.8-1.3
			c-1.3,0-2.5,0.7-3.2,1.7c-0.5-0.3-1.2-0.5-1.8-0.5c-2.1,0-3.7,1.7-3.7,3.7c0,0.1,0,0.1,0,0.2c-1.5,0.5-2.5,1.9-2.5,3.5
			c0,0.1,0,0.2,0,0.2h-6h-1h-2v2h2v1h-2v1h2v1v1h1h7h1v-1v-1h2v-0.5c0.6,0,1.1-0.2,1.6-0.5c0.6,0.3,1.2,0.5,1.9,0.5
			c0.4,0,0.9-0.1,1.2-0.2v6.5H17v1.2h5v-1.2h-1.2v-6.2c0.2,0,0.4,0,0.6-0.1c0.2,0,0.4,0.1,0.6,0.1c0.7,0,1.3-0.2,1.9-0.5
			c0.6,0.3,1.2,0.5,1.9,0.5c2.1,0,3.7-1.7,3.7-3.7C29.5-254.8,28.4-256.2,27-256.7z M3.5-250.9h6.8c0.1,0.1,0.1,0.2,0.2,0.3v0.7h-7
			V-250.9z M10.5-247.9h-7v-1h7V-247.9z"/>
		<polygon fill-rule="evenodd" clip-rule="evenodd" points="10.5,-245.9 3.5,-245.9 1.5,-245.9 0.5,-245.9 0.5,-244.9 1.5,-244.9 
			1.5,-241.9 3.5,-241.9 3.5,-244.9 4.5,-244.9 4.5,-242.9 5.5,-242.9 5.5,-244.9 8.5,-244.9 8.5,-242.9 9.5,-242.9 9.5,-244.9 
			10.5,-244.9 10.5,-241.9 12.5,-241.9 12.5,-244.9 13.5,-244.9 13.5,-245.9 12.5,-245.9 		"/>
	</g>
	<g>
		<path fill-rule="evenodd" clip-rule="evenodd" d="M165.8-306c-0.1-0.2-0.2-0.4-0.4-0.5c-0.2-0.1-0.5-0.2-0.8-0.2h-1v4.4h0.9
			c0.4,0,0.7-0.1,0.9-0.2s0.4-0.3,0.5-0.4c0.1-0.2,0.2-0.4,0.2-0.7c0-0.3,0-0.6,0-0.9c0-0.3,0-0.6,0-0.9
			C166-305.6,165.9-305.8,165.8-306z"/>
		<path fill-rule="evenodd" clip-rule="evenodd" d="M171.4-314h-13.3c-1.1,0-2,0.9-2,2v20c0,1.1,0.9,2,2,2h13.3c1.1,0,2-0.9,2-2v-20
			C173.4-313.1,172.5-314,171.4-314z M167.6-303c-0.1,0.4-0.2,0.8-0.4,1.1c-0.3,0.4-0.6,0.7-1,1s-1,0.4-1.7,0.4h-0.9v5h-1.8v-12.8
			h2.8c0.5,0,0.9,0.1,1.3,0.2c0.4,0.1,0.7,0.4,1,0.7c0.3,0.3,0.5,0.7,0.6,1.2c0.1,0.4,0.2,1.1,0.2,1.8
			C167.7-303.9,167.7-303.4,167.6-303z"/>
	</g>
	<path fill-rule="evenodd" clip-rule="evenodd" d="M129.8-190.1L116-214.7c-0.5-1-1.4-1-2,0l-13.8,24.6c-0.5,1-0.1,1.7,1,1.7h27.6
		C129.9-188.4,130.3-189.2,129.8-190.1z M117-193.4c0,0.6-0.5,1-1,1h-2c-0.5,0-1-0.4-1-1v-2c0-0.6,0.5-1,1-1h2c0.5,0,1,0.5,1,1
		V-193.4z M117-199.4c0,0.6-0.4,1-1,1h-2c-0.5,0-1-0.4-1-1v-6c0-0.6,0.5-1,1-1h2c0.5,0,1,0.5,1,1L117-199.4z"/>
	<g>
		<path d="M169.6-208.9c-1.4-0.4-3-0.7-4.6-0.7c-7.1,0-13,5.2-14.8,6.9c-0.3,0.3-0.3,0.8,0,1.1c1,1,3.5,3.2,6.9,4.9L169.6-208.9z"/>
		<path d="M179.8-202.7c-1.1-1-3.7-3.4-7.1-5l2.8-2.7H173l-17.4,17h2.4l2.2-2.1c1.5,0.5,3.2,0.8,4.9,0.8c7.1,0,13-5.2,14.8-6.9
			C180.1-201.9,180.1-202.4,179.8-202.7z M170.1-201.1c-0.4,1.9-2,3.5-4,3.9c-1.4,0.3-2.6,0-3.7-0.6l2.2-2.2c0.1,0,0.2,0,0.4,0
			c1.3,0,2.3-1,2.3-2.3c0-0.1,0-0.2,0-0.4l2.2-2.2C170.1-203.6,170.4-202.4,170.1-201.1z"/>
	</g>
	<g>
		<polygon points="215.9,-214.4 214,-214.4 214,-208.4 215.9,-208.3 		"/>
		<polygon points="224,-199.1 230,-200.3 229.5,-202.6 223.6,-201.4 		"/>
		<polygon points="226.3,-209.2 224.6,-210.8 220.4,-206.5 222,-204.9 		"/>
		<polygon points="206.4,-201.4 200.5,-202.6 200,-200.3 206,-199.1 		"/>
		<path d="M223-193.4l-2.3-10.9c-0.2-1.2-1.3-2.1-2.7-2.1l-5,0c-1.4,0-2.7,0.9-3,2.1l-2,10.9c0,0.1,0,0,0,1h-3l0.1,3H226v-3h-3
			C223-193.4,223-193.3,223-193.4z M215.1-193.4l-0.1-11h2c1.1,0,1.8,0.1,2,1l1,5c0,0.1,1,5,1,5H215.1z"/>
		<polygon points="209.6,-206.5 205.4,-210.8 203.7,-209.2 208,-204.9 		"/>
	</g>
	<path fill-rule="evenodd" clip-rule="evenodd" d="M116.8-236.9h-4v-11h-2v-9c0-2.1,0.9-3,3-3h2c2.1,0,3,0.9,3,3v9h-2V-236.9z
		 M114.8-261.3c-1.6,0-2.8-1.3-2.8-2.8c0-1.6,1.3-2.8,2.8-2.8s2.8,1.3,2.8,2.8C117.6-262.5,116.4-261.3,114.8-261.3z"/>
	<path fill-rule="evenodd" clip-rule="evenodd" d="M105.8-236.9h-4v-11h-2v-9c0-2.1,0.9-3,3-3h2c2.1,0,3,0.9,3,3v9h-2V-236.9z
		 M103.8-261.3c-1.6,0-2.8-1.3-2.8-2.8c0-1.6,1.3-2.8,2.8-2.8s2.8,1.3,2.8,2.8C106.6-262.5,105.4-261.3,103.8-261.3z"/>
	<path fill-rule="evenodd" clip-rule="evenodd" d="M127.8-236.9h-4v-11h-2v-9c0-2.1,0.9-3,3-3h2c2.1,0,3,0.9,3,3v9h-2V-236.9z
		 M125.8-261.3c-1.6,0-2.8-1.3-2.8-2.8c0-1.6,1.3-2.8,2.8-2.8s2.8,1.3,2.8,2.8C128.6-262.5,127.4-261.3,125.8-261.3z"/>
	<path fill-rule="evenodd" clip-rule="evenodd" d="M164.6-263.9c-5,0-9,4-9,9c0,6,9,15,9,15s9-9,9-15
		C173.6-259.9,169.6-263.9,164.6-263.9z M164.6-250.8c-2.6,0-4.7-2.1-4.7-4.7c0-2.6,2.1-4.7,4.7-4.7c2.6,0,4.7,2.1,4.7,4.7
		C169.3-252.9,167.2-250.8,164.6-250.8z"/>
	<path fill-rule="evenodd" clip-rule="evenodd" d="M219.1-256.8c1,0,1.8,0.8,1.8,1.9c0,1-0.8,1.9-1.8,1.9h-6.7
		c-0.1,0.4-0.1,0.8-0.1,1.1c0,0.4,0,0.8,0.1,1.1h6.7c1,0,1.8,0.8,1.8,1.9c0,1-0.8,1.9-1.8,1.9h-5.6c1.7,3.2,5,5.3,8.5,5.3h0.4
		c0.8,0,1.4,0.7,1.4,1.7c0,1-0.6,1.9-1.3,2l0,0H222c-5.5,0-10.5-3.6-12.4-9.1h-2c-1,0-1.8-0.8-1.8-1.9c0-1,0.8-1.9,1.8-1.9h1.2v0
		c-0.1-0.4-0.1-0.7-0.1-1.1c0-0.4,0-0.7,0.1-1.1v0h-1.2c-1,0-1.8-0.8-1.8-1.9c0-1,0.8-1.9,1.8-1.9h2c2-5.4,6.9-9.1,12.4-9.1h0.4
		c0.8,0.1,1.4,1,1.4,2c0,1-0.5,1.7-1.2,1.7l-0.6,0c-3.5,0-6.8,2.1-8.5,5.3H219.1z"/>
	<path fill-rule="evenodd" clip-rule="evenodd" d="M-26.6-215.3l-0.3,0.2c-1.1,0.5-2.8,6.3-2.8,6.7l0,0.4c0.2,0.8,0.9,1.7,2.5,3.5
		c-0.9,2.1-3.4,4.9-4.9,6.2c-1.6,1.4-4.3,3.2-6.3,3.9c-1.8-2.1-2.6-2.9-3.5-3c-0.5,0-6.4,1-6.9,2l-0.2,0.3c-0.4,0.7-1.1,1.7-0.8,2.8
		c0.1,0.3,0.2,0.5,0.3,0.8c0.5,0.8,1.7,2.6,3.4,3.4c1,0.5,10.4,0.8,18.3-6.3c7.8-7,8.2-15.6,7.9-16.9l0,0l0-0.1
		c-0.6-1.8-2.3-3.2-3-3.8C-24.3-216.4-25.8-215.6-26.6-215.3z"/>
	<path fill-rule="evenodd" clip-rule="evenodd" d="M2.8-213.9v18h18v-18H2.8z M18.8-197.9h-14v-14h14V-197.9z"/>
	<path fill-rule="evenodd" clip-rule="evenodd" d="M24.8-199.9v-10h-2l3-4l3,4h-2v10h2l-3,4l-3-4"/>
	<path fill-rule="evenodd" clip-rule="evenodd" d="M16.8-189.9h-10v2l-4-3l4-3v2h10v-2l4,3l-4,3"/>
	<g opacity="0.4">
		<path fill-rule="evenodd" clip-rule="evenodd" d="M58.5-197l4-4c-0.1-0.2-0.1-0.5-0.1-0.7c0-1,0.6-1.9,1.5-2.3v-9.9
			c0-0.5,0.5-1,1-1c-7.2,0-13,5.8-13,13c0,3.6,1.5,6.8,3.8,9.2l2.8-2.8C58.1-195.9,58.1-196.6,58.5-197z"/>
	</g>
	<g>
		<g>
			<path fill-rule="evenodd" clip-rule="evenodd" d="M64.8-216.9c-1,0-2,0.1-3,0.3c-1,0.2-1.9,0.5-2.8,0.9c-1.3,0.6-2.6,1.3-3.7,2.2
				s-2.1,2-2.9,3.2c-1.6,2.4-2.6,5.3-2.6,8.4c0,1.6,0.2,3.1,0.7,4.5c0.7,2.3,2,4.4,3.7,6.1c0.3,0.3,0.7,0.7,1.1,1
				c0.7,0.6,1.5,1.2,2.4,1.6c0.4,0.2,0.9,0.4,1.3,0.6c0.9,0.4,1.8,0.7,2.8,0.9c1,0.2,2,0.3,3,0.3c8.3,0,15-6.7,15-15
				C79.8-210.2,73.1-216.9,64.8-216.9z M64.8-199.2c-0.3,0-0.6-0.1-0.9-0.2l-3.9,3.9c-0.4,0.4-1.1,0.4-1.5,0c0,0,0,0,0,0l-2.8,2.8
				c-2.4-2.4-3.8-5.6-3.8-9.2c0-7.2,5.8-13,13-13c0.5,0,1,0.5,1,1v9.9c0.9,0.4,1.5,1.3,1.5,2.3C67.3-200.3,66.2-199.2,64.8-199.2z"
				/>
		</g>
	</g>
	<path fill-rule="evenodd" clip-rule="evenodd" d="M-34-139.9h-2l-14-2v-19.9h2v18.2l12,1.7h2l12-1.7v-18.2h2v19.9L-34-139.9z
		 M-34-161.8c3.6-2.1,10-2.1,10-2.1v17.9c0,0-6.4,0-10,2.1V-161.8z M-46-163.8c0,0,6.4,0,10,2.1v17.9c-3.6-2.1-10-2.1-10-2.1V-163.8
		z"/>
	<path fill-rule="evenodd" clip-rule="evenodd" d="M29.5-157.9l-0.2,0.1l0,0l-2.7,2.7l-8.4-8.4l2.7-2.7l0,0l0.1-0.2
		c0.7-0.7,2-0.7,2.7,0.1l5.6,5.6C30.2-159.9,30.2-158.7,29.5-157.9z M7-146.7l12.5-12.6l2.8,2.8L9.7-143.9l1.4,1.4l12.5-12.6
		l1.4,1.4l-13.9,14l-8.4-8.4l13.9-14l1.4,1.4L5.6-148.1L7-146.7z M9.8-138.3l-4.9,0.7L0-136.9l0.7-4.9l0.7-4.9l4.2,4.2L9.8-138.3z"
		/>
	<path fill-rule="evenodd" clip-rule="evenodd" d="M76-137.9l-26,0v-28l30,0v24L76-137.9z M59-139.9h12v-7H59V-139.9z M74-163.9H56
		v12h18V-163.9z M61-144.9l4,0v3h-4V-144.9z"/>
	<path fill-rule="evenodd" clip-rule="evenodd" d="M100-154.9l3-2l8,14l16-23l3,2l-19,27L100-154.9"/>
	<path fill-rule="evenodd" clip-rule="evenodd" d="M173.6-159.1l-1.8-1.8l-7.2,7.2l-7.2-7.2l-1.8,1.8l7.2,7.2l-7.2,7.2l1.8,1.8
		l7.2-7.2l7.2,7.2l1.8-1.8l-7.2-7.2L173.6-159.1z"/>
	<path fill-rule="evenodd" clip-rule="evenodd" d="M214.8-160.4c-4.7,0-8.5,3.8-8.5,8.5c0,4.7,3.8,8.5,8.5,8.5
		c4.7,0,8.5-3.8,8.5-8.5C223.3-156.6,219.5-160.4,214.8-160.4z M219.8-149.1l-2.2,2.2l-2.8-2.8l-2.8,2.8l-2.2-2.2l2.8-2.8l-2.8-2.8
		l2.2-2.2l2.8,2.8l2.8-2.8l2.2,2.2l-2.8,2.8L219.8-149.1z"/>
	<path fill-rule="evenodd" clip-rule="evenodd" d="M-27.7-109.5c-0.9,0-1.6-0.7-1.6-1.6c0-0.9,0.7-1.6,1.6-1.6
		c0.9,0,1.6,0.7,1.6,1.6C-26.2-110.2-26.9-109.5-27.7-109.5z M-29.9-114.8c-0.4,0-0.8-0.2-1.1-0.5c-0.6-0.6-0.6-1.6,0-2.2
		c0.3-0.3,0.7-0.5,1.1-0.5s0.8,0.2,1.1,0.5c0.6,0.6,0.6,1.6,0,2.2C-29.1-115-29.5-114.8-29.9-114.8z M-35.2-116.1
		c-1.4,0-2.5-1.1-2.5-2.5c0-1.4,1.1-2.5,2.5-2.5c1.4,0,2.5,1.1,2.5,2.5C-32.7-117.2-33.8-116.1-35.2-116.1z M-40.4-104.2
		c-0.4,0-0.8-0.2-1.1-0.5c-0.6-0.6-0.6-1.6,0-2.2c0.3-0.3,0.7-0.5,1.1-0.5s0.8,0.2,1.1,0.5c0.6,0.6,0.6,1.6,0,2.2
		C-39.6-104.4-40-104.2-40.4-104.2z M-40.4-114.8c-0.4,0-0.8-0.2-1.1-0.5c-0.6-0.6-0.6-1.6,0-2.2c0.3-0.3,0.7-0.5,1.1-0.5
		s0.8,0.2,1.1,0.5c0.6,0.6,0.6,1.6,0,2.2C-39.6-115-40-114.8-40.4-114.8z M-41.1-111.1c0,0.9-0.7,1.6-1.6,1.6
		c-0.9,0-1.6-0.7-1.6-1.6s0.7-1.6,1.6-1.6C-41.8-112.6-41.1-111.9-41.1-111.1z M-35.2-105.2c0.9,0,1.6,0.7,1.6,1.6
		c0,0.9-0.7,1.6-1.6,1.6c-0.9,0-1.6-0.7-1.6-1.6C-36.7-104.5-36-105.2-35.2-105.2z M-29.9-107.4c0.4,0,0.8,0.2,1.1,0.5
		c0.6,0.6,0.6,1.6,0,2.2c-0.3,0.3-0.7,0.5-1.1,0.5c-0.4,0-0.8-0.2-1.1-0.5c-0.6-0.6-0.6-1.6,0-2.2
		C-30.7-107.2-30.3-107.4-29.9-107.4z"/>
	<g>
		<circle fill-rule="evenodd" clip-rule="evenodd" cx="165" cy="-122.5" r="2.3"/>
		<rect x="150.2" y="-114.1" fill-rule="evenodd" clip-rule="evenodd" width="1.8" height="7.3"/>
		<path fill-rule="evenodd" clip-rule="evenodd" d="M174.7-111.1H171l-0.1-6.3c0-1.2-1-2.2-2.2-2.2h-7.6c-1.2,0-2.2,1-2.2,2.2l0,6.3
			h-3.7v-4.1h-2.5v9.6h2.5v-4.1h3.7h2.1h0.6c-0.2,3.6-0.6,12.2-0.6,12.2h2.9l0.6-11.2c0.1,0,0.5,0,0.6,0l0.9,11.2h2.9
			c0,0-0.6-8.6-0.8-12.2h0.6h2.1h3.8v4.1h2.5v-9.6h-2.5V-111.1z M161.2-111.1L161.2-111.1v-4.7c0-0.2,0.1-0.3,0.3-0.3
			c0.2,0,0.3,0.1,0.3,0.3v3.9c0,0,0,0.3,0,0.8H161.2z M168.8-111.1h-0.6c0-0.5,0-0.8,0-0.8v-3.9c0-0.2,0.1-0.3,0.3-0.3
			c0.2,0,0.3,0.1,0.3,0.3V-111.1z"/>
		<rect x="178" y="-114.1" fill-rule="evenodd" clip-rule="evenodd" width="1.8" height="7.3"/>
	</g>
	<g>
		<path fill="#010101" d="M217.9-104.2c1.5-0.1,2.9-0.2,2.9-0.2l-2.2-1.3l-2.7-1.5l-4.1-2.3l-2.7-1.5l-2.2-1.3c0,0,0.7,1.2,1.4,2.5
			c0.8,1.5,1.5,3.1,1.4,3.4c-0.2,0.7-3.2,5.3-3.9,6.3c-0.5,0.8,0.9,2.2,1.9,2.8c1,0.5,2.9,1,3.3,0.1c0.5-1.3,2.8-6.1,3.3-6.6
			C214.5-103.9,216.3-104.1,217.9-104.2z"/>
		<g>
			<path fill="#010101" d="M226.7-109.7c3.3-5.8,1.8-12.8-3.3-15.7s-11.8-0.4-15.1,5.4c-1.2,2.2-1.8,4.5-1.7,6.7l15.3,8.6
				C223.7-105.8,225.4-107.5,226.7-109.7z"/>
		</g>
	</g>
	<circle fill="#010101" cx="205.6" cy="-123.4" r="2.6"/>
	<g>
		<path d="M-22.5-72.4V-76l-5.5-4.5l-1.3,1.1c-1-0.9-2.3-1.5-3.7-1.5c-2,0-3.7,1-4.7,2.6c-0.8-0.5-1.7-0.7-2.7-0.7
			c-3.1,0-5.6,2.5-5.6,5.6c0,0.1,0,0.2,0,0.3c-1.9,0.7-3.3,2.3-3.7,4.3c0,0,0,0.1,0,0.1c0,0.3-0.1,0.5-0.1,0.8c0,0,0,0,0,0
			c0,0,0,0,0,0c0,0,0,0,0,0c0,3.1,2.5,5.5,5.6,5.5c0.1,0,0.2,0,0.4,0l0,0c0.3,0,0.5-0.1,0.8-0.1v1.3c-1.3,0.2-2.3,1.4-2.3,2.8
			c0,1.6,1.3,2.8,2.8,2.8c1.6,0,2.8-1.3,2.8-2.8c0-1.4-1-2.5-2.3-2.8v-1.6c0.2-0.1,0.4-0.2,0.6-0.3c0.8,0.5,1.8,0.8,2.8,0.8
			c0.7,0,1.3-0.1,1.9-0.3v9.7h-1.9v1.9h7.5v-1.9H-33v-9.3c0.3,0,0.6,0,0.9-0.1c0.3,0.1,0.6,0.1,0.9,0.1c1,0,2-0.3,2.8-0.8
			c0.8,0.5,1.8,0.8,2.8,0.8c3.1,0,5.6-2.5,5.6-5.6C-20-69.8-21-71.5-22.5-72.4z M-40.8-58.3c0,1-0.8,1.8-1.8,1.8
			c-1,0-1.8-0.8-1.8-1.8s0.8-1.8,1.8-1.8C-41.6-60.1-40.8-59.3-40.8-58.3z M-23.5-68.1H-28v-4.1h-3v4.1h-1.5v-7.5l4.5-3.7l4.5,3.7
			V-68.1z"/>
		<circle cx="-25.7" cy="-74.8" r="1.3"/>
	</g>
	<g>
		<g>
			<polygon fill="#010101" points="27,-62.1 3.4,-58.8 0,-61.8 0.9,-62.8 3.8,-60.1 26.3,-63.3 29,-66.8 30,-66 			"/>
		</g>
		<g>
			<g>
				<circle fill="#010101" cx="7.1" cy="-57" r="1.5"/>
			</g>
			<g>
				<g>
					<circle fill="#010101" cx="24.5" cy="-59.5" r="1.5"/>
				</g>
			</g>
		</g>
	</g>
	<g>
		<polygon fill="#010101" points="59.7,-67.3 61.8,-61.1 68.2,-61.1 70.3,-67.3 65,-71.1 		"/>
		<path fill="#010101" d="M65-81.1c-8.3,0-15,6.7-15,15s6.7,15,15,15s15-6.7,15-15S73.3-81.1,65-81.1z M76.6-61.1
			c-0.4,0.9-0.9,1.8-1.5,2.6L75-59.9l-4.7,1.1l-2.5,4.2l1.3,0.6c-1.3,0.4-2.7,0.7-4.1,0.7c-1.4,0-2.7-0.2-4-0.7l1.3-0.6l-2.5-4.2
			L55-59.9l-0.1,1.4c-0.6-0.8-1.1-1.7-1.5-2.6c-0.7-1.6-1-3.2-1-4.9c0,0,0-0.1,0-0.1l0.9,0.9l3.2-3.7L56-73.7l-1.2,0.2
			c0.4-0.5,0.8-1,1.3-1.5c1.2-1.2,2.5-2.1,4-2.7c0.3-0.1,0.7-0.3,1-0.4L60.5-77l4.5,1.9l4.5-1.9l-0.6-1.1c0.4,0.1,0.7,0.2,1.1,0.4
			c1.5,0.6,2.9,1.5,4,2.7c0.5,0.5,0.9,1,1.3,1.5L74-73.7l-0.4,4.8l3.2,3.7l0.9-0.9c0,0,0,0,0,0.1C77.6-64.3,77.3-62.7,76.6-61.1z"/>
	</g>
	<g id="Layer_4">
		<polygon fill="#010101" points="113.2,-53 115.8,-53 115.8,-58.3 114.5,-59.8 113.2,-58.3 		"/>
		<g>
			<path fill="#010101" d="M110.6-76.3c-0.4-0.2-0.6-0.6-0.7-1c-0.1-0.4,0-0.8,0.2-1.2c0.2-0.4,0.6-0.6,1-0.7c0.4-0.1,0.8,0,1.2,0.2
				c0.4,0.2,0.6,0.6,0.7,1c0.1,0.4,0,0.8-0.2,1.2c-0.2,0.4-0.6,0.6-1,0.7C111.3-76,110.9-76.1,110.6-76.3z"/>
			<path fill="#010101" d="M103.6-70.1l4-0.6l-2.4-2.4c-0.1-0.1-0.2-0.3-0.3-0.5c-0.2-0.6,0.1-0.9,0.6-1.3l2.3-2
				c0.2-0.2,0.4-0.3,0.6-0.3c0.4-0.1,0.7,0,1,0.2c0.3,0.2,0.5,0.5,0.6,0.9c0.1,0.5-0.1,0.9-0.5,1.2l-1.9,1.6l2,2
				c0.1,0.1,0.2,0.3,0.2,0.6c0,0.3,0,0.5-0.2,0.7c-0.2,0.3-0.4,0.4-0.7,0.5l-5.1,0.9L103.6-70.1z"/>
		</g>
		<path fill="#010101" d="M127.1-63c-0.4,0.2-0.8,0.2-1.2,0.1c-0.4-0.1-0.7-0.4-0.9-0.8c-0.2-0.4-0.2-0.8-0.1-1.2
			c0.1-0.4,0.4-0.7,0.8-0.9c0.4-0.2,0.8-0.2,1.2-0.1c0.4,0.1,0.7,0.4,0.9,0.8c0.2,0.4,0.2,0.8,0.1,1.2
			C127.7-63.5,127.5-63.2,127.1-63z"/>
		<path fill="#010101" d="M100.5-66.7l21.1,8c0.1-0.2,0.2-0.3,0.4-0.4c0.2-0.1,0.5-0.2,0.7-0.1l2.7,0.7l0-2.5c0-0.5,0.2-0.9,0.7-1.2
			c0.3-0.2,0.7-0.2,1.1-0.1c0.4,0.1,0.7,0.3,0.8,0.7c0.1,0.2,0.1,0.4,0.1,0.7l0,3.1c0,0.6-0.1,1-0.7,1.3c0,0-0.1,0-0.2,0l2.8,1
			l-0.5,1.4l-4.9-1.9l-0.6-1.1l-0.2,0.1l-0.2,0.1l1.8,3.4l-0.7,0.4l-0.8,0.3l-2.3-4.4L100-65.3L100.5-66.7z"/>
	</g>
	<circle fill="none" cx="156.4" cy="-74.1" r="0.7"/>
	<circle fill="none" cx="154.6" cy="-72.4" r="0.7"/>
	<circle fill="none" cx="154" cy="-74.8" r="0.7"/>
	<g>
		<path fill="#010101" d="M169.6-66.7c0.3,0,0.7,0.1,1,0.2l0.9,0.3l-1.1-11.7l-0.3-3.1h-3.1l-0.3,3.1h-3.9l-0.3-3.1h-3.1l-0.3,3.1
			h-3.9l-0.3-3.1h-3.1l-0.3,3.1h0l-1.7,18.8c0,0,4.8,1.6,11,1.6c1.6,0,3.1-0.1,4.5-0.3l1.4-6.6C167.1-65.8,168.2-66.7,169.6-66.7z
			 M153.5-75.3c0.3-0.3,0.7-0.3,1,0c0.3,0.3,0.3,0.7,0,1c-0.3,0.3-0.7,0.3-1,0C153.2-74.5,153.2-75,153.5-75.3z M155.1-71.9
			c-0.3,0.3-0.7,0.3-1,0c-0.3-0.3-0.3-0.7,0-1c0.3-0.3,0.7-0.3,1,0C155.4-72.6,155.4-72.2,155.1-71.9z M156.9-73.6
			c-0.3,0.3-0.7,0.3-1,0c-0.3-0.3-0.3-0.7,0-1c0.3-0.3,0.7-0.3,1,0C157.2-74.4,157.2-73.9,156.9-73.6z"/>
		<circle fill="#010101" cx="173.5" cy="-53" r="0.7"/>
		<path fill="#010101" d="M179.4-61.2l-3.3-1.2l3.4-10.5l-2.8-1l-3.4,10.5l-3.3-1.2c-0.1,0-0.2-0.1-0.3-0.1c-0.4,0-0.7,0.3-0.8,0.7
			l-1.9,9.3c-0.1,0.3,0,0.5,0.1,0.7c1-0.8,2.3-1.6,3.9-2.2c2-0.8,4.7-0.7,6.7,0.5l2.3-4.3C180.2-60.4,179.9-61,179.4-61.2z"/>
		<circle fill="#010101" cx="175.6" cy="-54.2" r="0.7"/>
		<circle fill="#010101" cx="175.6" cy="-51.8" r="0.7"/>
	</g>
	<g>
		<path d="M21.4-112.4l1.4-2.2l0.4-0.7l1.7-2.7c-0.3-0.2-0.6-0.3-0.9-0.5l-1.7,2.6l-0.4,0.7l-1.4,2.3l-0.4,0.7l-6.7,10.8
			c0.3,0.2,0.5,0.4,0.8,0.6l6.8-10.9L21.4-112.4z"/>
		<circle cx="4.1" cy="-103.2" r="4.1"/>
		<path d="M29.9-110.5c-1.7,1.4-2.8,3.6-2.8,6c0,0.7,0.1,1.4,0.3,2.1c1.6-1.8,2.6-4.2,2.6-6.8C30-109.7,30-110.1,29.9-110.5z"/>
		<path d="M21.5-116.5l1.5-2.4c-1-0.3-2.1-0.5-3.2-0.5c-0.1,0-0.3,0-0.4,0C19.9-118.3,20.6-117.3,21.5-116.5z"/>
		<path d="M26.7-114.5c0.6,0,1.2-0.1,1.7-0.2c-0.7-1.1-1.6-2-2.6-2.7l-1.6,2.5C25-114.7,25.8-114.5,26.7-114.5z"/>
		<path d="M16.9-113.7c0.9,0,1.8,0.1,2.6,0.4l1.6-2.5c-1.1-0.9-2-2.1-2.5-3.5c-4.9,0.6-8.7,4.6-8.9,9.6
			C11.2-112.1,13.9-113.7,16.9-113.7z"/>
		<path d="M29.8-111.4c-0.2-0.9-0.5-1.8-0.9-2.5c-0.7,0.2-1.4,0.3-2.1,0.3c-1,0-2-0.2-2.9-0.5l-1.5,2.4c2,1.6,3.3,4,3.3,6.8
			c0,1.9-0.6,3.6-1.7,5.1c1-0.5,1.9-1.1,2.8-1.8c-0.3-0.9-0.5-1.8-0.5-2.7C26.3-107.3,27.6-109.8,29.8-111.4z"/>
		<path d="M21.9-111.1l-6.8,10.9c1.4,0.8,3,1.2,4.7,1.2c0.9,0,1.7-0.1,2.6-0.3c1.5-1.4,2.4-3.4,2.4-5.6
			C24.8-107.5,23.6-109.7,21.9-111.1z"/>
		<path d="M16.9-112.8c-3.2,0-6,2-7.2,4.8c0.3,2.3,1.3,4.4,2.8,5.9l6.5-10.4C18.4-112.7,17.7-112.8,16.9-112.8z"/>
	</g>
	<path fill="#010101" d="M127.9-107.6c0.1-0.5,0.1-1,0.1-1.5c0-4.2-3.5-7.6-7.8-7.6c-0.2,0-0.5,0-0.7,0c-1,0.8-2.2,1.5-3.6,2.1
		c-1.2,0.6-2.4,1.1-3.5,1.4c0-0.2,0-0.4-0.1-0.5c1.1-0.3,2.2-0.8,3.4-1.4c0.9-0.5,1.8-0.9,2.5-1.4c1-0.7,1.9-1.4,2.6-2.1
		c1.1-1.2,1.6-2.2,1.3-2.8c-0.2-0.5-0.9-0.7-2-0.7c-1.8,0-4.4,0.8-7,2c-2.1,1-3.7,2.2-4.8,3.2c-1.4-0.2-3,0.1-4.5,0.9
		c-3.2,1.7-4.8,5-3.5,7.4c1,1.8,3.3,2.6,5.8,2.1l0.1,0.1c-1.3,2.1-1.3,4.8-1.3,4.8h3.2h2.7c0-2.8,4-3.2,4.2-3.2l0,0.3l0,0.3
		c0,0-0.2,0-0.5,0.1c-0.9,0.2-3.1,0.8-3.2,2.4c0,0.1,0,0.1,0,0.2h2.2h6.9l0,0c2.2-0.1,4.1-1,5.5-2.5c0.4,0.5,1,0.8,1.7,0.8
		c1.2,0,2.3-1,2.3-2.3C130-106.6,129.1-107.5,127.9-107.6z M104.4-111.7c-0.5,0-0.9-0.4-0.9-0.9c0-0.5,0.4-0.9,0.9-0.9
		c0.5,0,0.9,0.4,0.9,0.9C105.3-112.1,104.9-111.7,104.4-111.7z"/>
	<path fill="#010101" d="M232-54.3l-9.4-9.4c1.2-1.8,1.9-4,1.9-6.2c0-3-1.2-5.8-3.3-7.9c-2.1-2.1-4.9-3.3-7.9-3.3
		c-3,0-5.8,1.2-7.9,3.3c-2.1,2.1-3.3,4.9-3.3,7.9c0,3,1.2,5.8,3.3,7.9c2.1,2.1,4.9,3.3,7.9,3.3c2.3,0,4.4-0.7,6.3-1.9l9.4,9.4
		c0.3,0.3,0.9,0.2,1.3-0.2l1.6-1.6C232.3-53.4,232.3-54,232-54.3z M213.4-61.8c-4.5,0-8.1-3.7-8.1-8.1c0-4.5,3.6-8.1,8.1-8.1
		s8.1,3.7,8.1,8.1C221.5-65.4,217.9-61.8,213.4-61.8z"/>
	<g id="Your_Icon">
		<path fill="#010101" d="M232.2-34.4h-24.3l-1.1-3.5h-4.7l0.6,1.7h2.8l5.5,17.2c-1.2,0.2-2.1,1.3-2.1,2.5c0,1.4,1.2,2.6,2.6,2.6
			c1.4,0,2.6-1.1,2.6-2.6c0-0.3-0.1-0.6-0.2-0.9h7.2c-0.1,0.3-0.2,0.6-0.2,0.9c0,1.4,1.2,2.6,2.6,2.6c1.4,0,2.6-1.1,2.6-2.6
			c0-1.4-1.1-2.5-2.4-2.6c0,0-0.2,0-0.2,0l-10.7,0l-1.1-3.4h13.5L232.2-34.4z"/>
	</g>
	<path fill="#010101" d="M126-21.2c-0.2-0.1-0.4-0.2-0.6-0.3l-0.1,0c0,0-1-0.5-1.1-4.4c-0.1-3.9,0.9-4.5,0.9-4.5l0.1-0.1
		c1-0.5,1.8-1.3,2.3-2.3c1.4-2.7,0.4-6-2.3-7.4c-2.7-1.4-6-0.4-7.4,2.3c-0.6,1.1-0.7,2.3-0.6,3.4l0,0c0,0,0.3,1.3-3.1,3.4
		c-3.3,2.1-4.9,1.1-4.9,1.1l-0.2-0.1c-2.7-1.4-6-0.4-7.4,2.3c-1.4,2.7-0.4,6,2.3,7.4c2,1.1,4.3,0.8,6-0.6l0,0c0,0,1.1-0.9,4.6,1
		c2.8,1.5,3.2,2.9,3.2,3.5c-0.1,2,1,4,2.9,5c2.7,1.4,6,0.4,7.4-2.3C129.7-16.4,128.7-19.8,126-21.2z M103.3-22.4
		C103.3-22.4,103.3-22.4,103.3-22.4C103.3-22.4,103.3-22.4,103.3-22.4L103.3-22.4z M109.2-28.7c-0.7-0.6-2.4-0.5-3.9,0.4
		c0.2,0.2,0.3,0.4,0.3,0.7c0,0.6-0.5,1.2-1.1,1.2c-0.1,0-0.2,0-0.3,0c0,0,0,0-0.1,0c-0.4-0.1-0.7,0.2-0.8,0.3c-0.8,1.5-0.8,3,0,3.7
		c-1.5-1.5-1.5-4,0.1-5.8C105-29.9,107.6-30.2,109.2-28.7L109.2-28.7z M119.4-38.5c1.6-1.8,4.2-2,5.8-0.6l0,0
		c-0.7-0.6-2.4-0.5-3.9,0.4c0.2,0.2,0.3,0.4,0.3,0.7c0,0.6-0.5,1.2-1.1,1.2c-0.1,0-0.2,0-0.3,0c0,0,0,0-0.1,0
		c-0.4-0.1-0.7,0.2-0.8,0.3c-0.8,1.5-0.8,3,0,3.7C117.8-34.2,117.8-36.7,119.4-38.5z M115.4-21.6c-2.9-1.5-3.3-2.8-3.4-3.2
		c0-0.5,0-0.9-0.1-1.4l0,0c0,0-0.2-1.3,3.1-3.3c3-1.8,4.3-1.5,4.5-1.4c0.2,0.1,0.3,0.2,0.5,0.3c0.3,0.2,0.7,0.3,1,0.4
		c0.4,0.4,1.2,1.5,1.2,4.4c0.1,2.9-0.8,4-1.2,4.4c-0.5,0.2-0.9,0.5-1.3,0.9C119.4-20.3,118.1-20.1,115.4-21.6z M120.3-13.6
		C120.3-13.6,120.3-13.7,120.3-13.6C120.3-13.7,120.3-13.6,120.3-13.6L120.3-13.6z M126.1-20c-0.7-0.6-2.4-0.5-3.9,0.4
		c0.2,0.2,0.3,0.4,0.3,0.7c0,0.6-0.5,1.2-1.1,1.2c-0.1,0-0.2,0-0.3,0c0,0,0,0-0.1,0c-0.4-0.1-0.7,0.2-0.8,0.3c-0.8,1.5-0.8,3,0,3.7
		c-1.5-1.5-1.5-4,0.1-5.8C122-21.2,124.6-21.4,126.1-20L126.1-20z"/>
	<path fill="#010101" d="M150-29.1C150-29.1,150-29.1,150-29.1L150-29.1C150-29.2,150-29.1,150-29.1z"/>
	<g>
		<ellipse fill="#010101" cx="159" cy="-29.7" rx="1" ry="1"/>
		<path fill="#010101" d="M170.5-24.5c0.6-0.1,0.9-0.7,0.8-1.2c-0.1-0.6-0.7-0.9-1.3-0.8c-0.6,0.1-0.9,0.7-0.8,1.2
			C169.4-24.7,170-24.4,170.5-24.5z"/>
		<path fill="#010101" d="M177.1-17c-1.4,0-3-1.5-4.8-3.2c-0.2-0.2-0.4-0.4-0.6-0.5l-0.6-2.5c-0.1-0.6-0.7-1-1.3-0.8
			c-0.5,0.1-0.8,0.5-0.9,1c-1.7-1.3-3.7-2.2-6-2.2v-9.9l-6.7-3.7l-6.2,3.7v9.9v3.3v9.1h1.3v-1.7h4.2v1.7h1.3v-1.7h5v1.7h1.3v-9.1
			v-0.8c2.9,0,5.4,2.2,7.7,4.4c2.1,2,4.1,3.8,6.5,3.8h0.4v1.7h1.2v-1.7h1.2V-17H177.1z M155.4-15.3h-4.2V-17h4.2L155.4-15.3
			L155.4-15.3z M155.4-17.8h-4.2v-1.7h4.2L155.4-17.8L155.4-17.8z M155.4-20.3h-4.2v-1.7h4.2L155.4-20.3L155.4-20.3z M161.7-25.2
			h-1.3l-0.5-2.1c-0.1-0.6-0.7-1-1.3-0.8c-0.6,0.1-1,0.7-0.8,1.3l0.4,1.6h-6.8v-9.1h10.4L161.7-25.2L161.7-25.2z"/>
	</g>
	<g>
		<path fill="#585D5C" d="M74.6-21.6c-3,0-5.4,2.4-5.4,5.3c0,2.9,2.4,5.3,5.4,5.3c3,0,5.4-2.4,5.4-5.3C80-19.2,77.6-21.6,74.6-21.6z
			 M74.6-13.7c-1.4,0-2.6-1.1-2.6-2.5c0-1.4,1.2-2.5,2.6-2.5c1.4,0,2.6,1.1,2.6,2.5C77.1-14.8,76-13.7,74.6-13.7z"/>
		<path fill="#585D5C" d="M64.3-25.4c1.2,0,2.3-0.1,3.4-0.4l1.9,4.3c0.9-0.9,2.1-1.5,3.4-1.7l-1.8-4c4.3-2.4,7.3-7,7.3-12.2
			c0-0.8,0-1.4,0-1.4H50c0,0,0,0.6,0,1.4c0,5.3,2.9,9.8,7.3,12.2L50-10.9h4.1l1.6-3.5h11.8c-0.2-0.6-0.2-1.2-0.2-1.9
			c0-0.7,0.1-1.3,0.3-1.9H57.4l3.4-7.7C61.9-25.6,63.1-25.4,64.3-25.4z M52.9-38h4.2c0.4,4.3,2.5,7.9,5.5,9.7
			C57.6-29.1,53.6-33,52.9-38z"/>
	</g>
	<path fill="#585D5C" d="M27.5-24.5c0-0.1,0-0.1,0-0.2c0-2-1.5-3.6-3.4-3.7c-0.3-0.3-0.6-0.5-0.9-0.8v-1.1c0.2,0,0.3,0,0.4,0
		c0.1,0,0.3,0,0.4,0c0.5,0,0.9-0.1,1.3-0.4c0.4,0.2,0.8,0.4,1.3,0.4c1.5,0,2.6-1.2,2.6-2.6c0-1.1-0.7-2.1-1.8-2.5c0-0.1,0-0.1,0-0.2
		c0-1.4-1.1-2.5-2.4-2.6c-0.5-0.5-1.2-0.9-2-0.9c-0.9,0-1.8,0.5-2.2,1.2c-0.4-0.2-0.8-0.4-1.3-0.4c-1.5,0-2.6,1.2-2.6,2.6
		c0,0,0,0.1,0,0.1c-1.1,0.3-2,1.3-2,2.6c0,1.5,1.2,2.7,2.7,2.7c0.6,0,1.1-0.2,1.5-0.5c0,0,0,0,0,0c0.4,0.2,0.8,0.4,1.3,0.4
		c0.3,0,0.6-0.1,0.9-0.2v0.7c0,0-0.1,0-0.1,0c-1.3,0-2.5,0.7-3.2,1.7c-0.4-0.2-0.8-0.4-1.2-0.4c-0.2-1-1-1.8-1.9-2.1
		c0-0.1,0-0.1,0-0.2c0-1.5-1.2-2.8-2.7-2.9c-0.5-0.6-1.3-1-2.2-1c-1.1,0-2,0.6-2.5,1.4c-0.4-0.2-0.9-0.4-1.4-0.4c-1.6,0-3,1.3-3,3
		c0,0.1,0,0.1,0,0.2C2-30.2,1-29,1-27.6c0,1.6,1.3,3,3,3c0.6,0,1.2-0.2,1.7-0.5c0,0,0,0,0,0c0.4,0.3,0.9,0.4,1.5,0.4
		c0.3,0,0.7-0.1,1-0.2v3.3C7-22.9,6.6-24,6.6-24h0c0,0-1.1,2.5-3.9,4.4c0,0,1.1,0.8,1.9,0.9c0,0-1.3,2.2-4.6,3.1c0,0,2.5,2.1,5.5,2
		v2.6H7h0.6v-2.6c3.1,0.1,5.5-2,5.5-2c-3.3-0.9-4.6-3.1-4.6-3.1c0.5-0.1,1.1-0.4,1.5-0.7c0.6,1.3,1.9,2.2,3.5,2.2
		c0.8,0,1.5-0.2,2.1-0.7c0,0,0,0,0,0c0.6,0.3,1.2,0.5,1.9,0.5c0.4,0,0.9-0.1,1.2-0.2v6.5h2.5v-6.2c0.2,0,0.4,0,0.6-0.1
		c0.2,0,0.4,0.1,0.6,0.1c0.7,0,1.3-0.2,1.9-0.5c0.6,0.3,1.2,0.5,1.9,0.5c2.1,0,3.7-1.7,3.7-3.7C30-22.6,28.9-24,27.5-24.5z
		 M10.1-22.6v-2.2c0.2,0,0.3,0,0.5,0c0.2,0,0.3,0,0.5,0c0.5,0,1-0.2,1.5-0.4c0,0.1,0,0.3,0,0.5c0,0.1,0,0.1,0,0.2
		C11.5-24.2,10.6-23.5,10.1-22.6z"/>
	<path fill="#585D5C" d="M-40.4-25c-1.4,0-2.3,1.1-2.6,2.6l-0.4,2.4l-6.6,6.6h6l1,2.4l1.1-2.7c2.3-0.7,4-2.9,4-5.5v-2L-36-22
		l-1.9-0.9C-38.1-24.1-39.2-25-40.4-25z M-39.9-21.8c-0.3,0-0.6-0.3-0.6-0.6s0.3-0.6,0.6-0.6s0.6,0.3,0.6,0.6S-39.6-21.8-39.9-21.8z
		"/>
	<path fill="#585D5C" d="M-30-16.1c-0.6-0.6-1.4-0.9-2.2-0.9l0,0l-3,0l0,3l0,0c0,0.8,0.3,1.6,0.9,2.2c0,0,0,0,0,0
		c1.2,1.2,3.1,1.2,4.3,0c0.6-0.6,0.9-1.4,0.9-2.1C-29.1-14.8-29.4-15.5-30-16.1C-30-16.1-30-16.1-30-16.1z"/>
	<path fill="#585D5C" d="M-26.1-19.5c1.7,0,3-1.3,3-3c1.7,0,3-1.3,3-3c0-0.9-0.4-1.6-1-2.2c0.6-0.5,1-1.3,1-2.2c0-1.7-1.3-3-3-3
		c0-1.7-1.3-3-3-3c-0.9,0-1.6,0.4-2.2,1c-0.5-0.6-1.3-1-2.2-1c-1.7,0-3,1.3-3,3c-1.7,0-3,1.3-3,3c0,0.9,0.4,1.6,1,2.2
		c-0.6,0.5-1,1.3-1,2.2c0,1.7,1.3,3,3,3c0,1.7,1.3,3,3,3c0.5,0,1-0.1,1.4-0.3v5.9v3h1.6v-3c0,0.8,0.3,1.5,0.9,2.1
		c1.2,1.2,3.1,1.2,4.3,0c0,0,0,0,0,0c0.6-0.6,0.9-1.4,0.9-2.2l0,0l0-3l-3,0l0,0c-0.8,0-1.6,0.3-2.2,0.9c0,0,0,0,0,0
		c-0.6,0.6-0.9,1.4-0.9,2.1v-5.9C-27.1-19.6-26.6-19.5-26.1-19.5z M-28.3-22.5c-2.9,0-5.2-2.3-5.2-5.2c0-2.9,2.3-5.2,5.2-5.2
		c2.9,0,5.2,2.3,5.2,5.2C-23.1-24.9-25.4-22.5-28.3-22.5z"/>
	<rect x="-21.7" y="36.9" fill="none" width="3.3" height="3.3"/>
	<g>
		<path fill="#585D5C" d="M-34.4,18.1c0.2-0.4,0.4-0.9,0.4-1.4c0-1.3-0.8-2.4-2-2.8c0-0.1,0-0.1,0-0.2c0-1.5-1.2-2.8-2.7-2.9
			c-0.5-0.6-1.3-1-2.2-1c-1.1,0-2,0.6-2.5,1.4c-0.4-0.2-0.9-0.4-1.4-0.4c-1.6,0-3,1.3-3,3c0,0.1,0,0.1,0,0.2
			c-1.3,0.3-2.2,1.5-2.2,2.9c0,1.6,1.3,3,3,3c0.6,0,1.2-0.2,1.7-0.5c0,0,0,0,0,0c0.4,0.3,0.9,0.4,1.5,0.4c0.3,0,0.7-0.1,1-0.2v4.7
			c-3.6,1.3-6.9,3-7.1,5.8h19.7C-42.5,27.2-26.2,20.4-34.4,18.1z M-40.9,19.6c0.2,0,0.3,0,0.5,0c0.2,0,0.3,0,0.5,0
			c0.5,0,1-0.2,1.5-0.4c0.4,0.3,0.9,0.4,1.5,0.4c1,0,1.9-0.5,2.4-1.3c3.2,2.4-1.4,3.5-6.4,5.2V19.6z"/>
		<path fill="#585D5C" d="M-25,12.1c0,0-0.2,0-0.2-0.4c0-0.4-0.4-0.8-0.8-0.8c-0.5,0-0.8,0.4-0.8,0.8c0,0.4-0.2,0.4-0.2,0.4
			c-0.1,0-0.2,0.1-0.2,0.2c0,0.1,0.1,0.2,0.2,0.2h2.1c0.1,0,0.2-0.1,0.2-0.2C-24.8,12.2-24.8,12.1-25,12.1z"/>
		<circle fill="#585D5C" cx="-26" cy="13.1" r="0.4"/>
		<circle fill="#585D5C" cx="-26" cy="7.4" r="0.6"/>
		<path fill="#585D5C" d="M-22.2,17.6l-1.3-3.7v-3.3c0.2,0,0.4-0.2,0.4-0.4s-0.2-0.4-0.4-0.4h-0.8c0-0.9-0.7-1.7-1.7-1.7
			c-0.9,0-1.7,0.7-1.7,1.7h-0.8c-0.2,0-0.4,0.2-0.4,0.4s0.2,0.4,0.4,0.4v3.3l-1.3,3.7h-2.1v1.3h0.8v2.5v3.3v2.8h10v-2.8v-3.3v-2.5
			h0.8v-1.3H-22.2z M-27.7,10.5h3.3v3.3h-3.3V10.5z M-26.8,21.4v3.3h0v1.2h-2.5v-1.2v-3.3v0c0-0.7,0.6-1.3,1.3-1.3
			C-27.4,20.1-26.8,20.7-26.8,21.4L-26.8,21.4z M-22.7,21.4v3.3h0v1.2h-2.5v-1.2v-3.3v0c0-0.7,0.6-1.3,1.3-1.3
			C-23.2,20.1-22.7,20.7-22.7,21.4L-22.7,21.4z"/>
		<path fill="#585D5C" d="M-41.2,8.5c0,0,2.5,2.1,5.5,2v2.6h1.5h0.6v-2.6c3.1,0.1,5.5-2,5.5-2c-3.3-0.9-4.6-3.1-4.6-3.1
			c0.8-0.2,1.9-0.9,1.9-0.9C-33.5,2.5-34.6,0-34.6,0h0c0,0-1.1,2.5-3.9,4.4c0,0,1.1,0.8,1.9,0.9C-36.5,5.4-37.9,7.5-41.2,8.5z"/>
	</g>
	<g>
		<path fill="#585D5C" d="M-32.5,44.9c0,0-0.3,0-0.3-0.6c0-0.6-0.5-1.2-1.2-1.2c-0.7,0-1.2,0.5-1.2,1.2c0,0.6-0.3,0.6-0.3,0.6
			c-0.2,0-0.3,0.1-0.3,0.3c0,0.2,0.1,0.3,0.3,0.3h3c0.2,0,0.3-0.1,0.3-0.3C-32.2,45.1-32.3,44.9-32.5,44.9z"/>
		<circle fill="#585D5C" cx="-34" cy="46.4" r="0.6"/>
		<circle fill="#585D5C" cx="-34" cy="38.2" r="0.9"/>
		<path fill="#585D5C" d="M-28.6,52.9l-1.8-5.4v-4.8c0.3,0,0.6-0.3,0.6-0.6c0-0.3-0.3-0.6-0.6-0.6h-1.2c0-1.3-1.1-2.4-2.4-2.4
			c-1.3,0-2.4,1.1-2.4,2.4h-1.2c-0.3,0-0.6,0.3-0.6,0.6c0,0.3,0.3,0.6,0.6,0.6v4.8l-1.8,5.4h-3v1.8h1.2v3.6V63v4h14.3v-4v-4.7v-3.6
			h1.2v-1.8H-28.6z M-36.4,42.7h4.8v4.8h-4.8V42.7z M-35.2,63L-35.2,63l0,1.8h-3.6V63v-4.7v-0.1c0-1,0.8-1.8,1.8-1.8
			c1,0,1.8,0.8,1.8,1.8v0.1V63z M-29.2,63L-29.2,63l0,1.8h-3.6V63v-4.7v-0.1c0-1,0.8-1.8,1.8-1.8c1,0,1.8,0.8,1.8,1.8v0.1V63z"/>
	</g>
	<g>
		<path fill="#585D5C" d="M25.4,17.9L25.4,17.9c7.7,4.9-14.3,4.6-15,12.1h19.7C17.7,27.2,35.1,20.1,25.4,17.9z"/>
		<path fill="#585D5C" d="M11.6,24v-6.2c0.2,0,0.4,0,0.6-0.1c0.2,0,0.4,0.1,0.6,0.1c0.7,0,1.3-0.2,1.9-0.5c0.6,0.3,1.2,0.5,1.9,0.5
			c2.1,0,3.7-1.7,3.7-3.7c0-1.6-1.1-3-2.5-3.5c0-0.1,0-0.1,0-0.2c0-0.5-0.1-0.9-0.2-1.3c0.9,0.6,2.8,1.6,5,1.6v2.6H24h0.6v-2.6
			c3.1,0.1,5.5-2,5.5-2c-3.3-0.9-4.6-3.1-4.6-3.1c0.8-0.2,1.9-0.9,1.9-0.9C24.7,2.5,23.6,0,23.6,0h0c0,0-1.1,2.5-3.9,4.4
			c0,0,1.1,0.8,1.9,0.9c0,0-1.2,2-4.3,3c-0.6-1-1.7-1.8-2.9-1.9c-0.7-0.8-1.7-1.3-2.8-1.3c-1.3,0-2.5,0.7-3.2,1.7
			C7.9,6.7,7.2,6.5,6.6,6.5c-2.1,0-3.7,1.7-3.7,3.7c0,0.1,0,0.1,0,0.2C1.2,10.8,0,12.3,0,14.1c0,2.1,1.7,3.8,3.8,3.8
			c0.8,0,1.5-0.2,2.1-0.7c0,0,0,0,0,0c0.6,0.3,1.2,0.5,1.9,0.5c0.4,0,0.9-0.1,1.2-0.2V24H11.6z"/>
	</g>
	<path fill="#585D5C" d="M26.5,53.6c0-0.1,0-0.1,0-0.2c0-2-1.5-3.6-3.4-3.7c-0.7-0.8-1.7-1.3-2.8-1.3c-1.3,0-2.5,0.7-3.2,1.7
		c-0.5-0.3-1-0.4-1.5-0.5c0.1-0.3,0.2-0.7,0.2-1.1c0-1.1-0.7-2.1-1.8-2.5c0-0.1,0-0.1,0-0.2c0-1.4-1.1-2.5-2.4-2.6
		c-0.5-0.5-1.2-0.9-2-0.9c-0.9,0-1.8,0.5-2.2,1.2c-0.4-0.2-0.8-0.4-1.3-0.4c-1.5,0-2.6,1.2-2.6,2.6c0,0,0,0.1,0,0.1
		c-1.1,0.3-2,1.3-2,2.6c0,1.5,1.2,2.7,2.7,2.7c0.6,0,1.1-0.2,1.5-0.5c0,0,0,0,0,0c0.4,0.2,0.8,0.4,1.3,0.4c0.3,0,0.6-0.1,0.9-0.2
		v1.7c-0.5,0.2-1,0.6-1.3,1.1c-0.4-0.2-0.9-0.4-1.4-0.4c-1.6,0-3,1.3-3,3c0,0.1,0,0.1,0,0.2C1,56.9,0,58,0,59.4c0,1.6,1.3,3,3,3
		c0.6,0,1.2-0.2,1.7-0.5c0,0,0,0,0,0c0.4,0.3,0.9,0.4,1.5,0.4c0.3,0,0.7-0.1,1-0.2v5.1h2v-4.9c0.2,0,0.3,0,0.5,0c0.2,0,0.3,0,0.5,0
		c0.5,0,1-0.2,1.5-0.4c0.4,0.3,0.9,0.4,1.5,0.4c1.1,0,2.1-0.6,2.6-1.5c0.3,0.1,0.6,0.1,0.9,0.1c0.4,0,0.9-0.1,1.2-0.2v6.5h2.5v-6.2
		c0.2,0,0.4,0,0.6-0.1c0.2,0,0.4,0.1,0.6,0.1c0.7,0,1.3-0.2,1.9-0.5c0.6,0.3,1.2,0.5,1.9,0.5c2.1,0,3.7-1.7,3.7-3.7
		C29,55.5,27.9,54.1,26.5,53.6z M10.1,51.2c0.1,0,0.3,0,0.4,0c0.5,0,0.9-0.1,1.3-0.4c0.1,0.1,0.3,0.1,0.5,0.2
		c-0.5,0.6-0.8,1.4-0.8,2.3c0,0,0,0.1,0,0.1c-0.1,0-0.1,0-0.2,0c-0.4-0.5-1-0.8-1.6-0.9v-1.3C9.8,51.2,10,51.2,10.1,51.2z"/>
	<g>
		<path fill="#010101" d="M50-112v0.3C50-111.8,50-111.9,50-112L50-112z"/>
		<path fill="#010101" d="M50-111L50-111c0-0.1,0-0.2,0-0.3V-111z"/>
		<path fill="#010101" d="M68.5-112H80c-0.1-4.5-2.3-8.6-5.6-11.2C70.9-120.7,68.6-116.6,68.5-112z"/>
		<path fill="#010101" d="M74.4-99.9c3.3-2.6,5.4-6.6,5.5-11.1H68.5C68.7-106.5,71-102.4,74.4-99.9z"/>
		<path fill="#010101" d="M73.5-123.9c-2.3-1.6-5-2.6-8-2.7v14.5h2C67.6-116.8,70-121.1,73.5-123.9z"/>
		<path fill="#010101" d="M67.5-111h-2v14.5c3-0.1,5.8-1.1,8.1-2.7C70-102,67.7-106.2,67.5-111z"/>
		<path fill="#010101" d="M61.3-111H50c0.2,4.5,2.3,8.4,5.5,11.1C58.9-102.5,61.1-106.5,61.3-111z"/>
		<path fill="#010101" d="M55.5-123.1c-3.2,2.7-5.4,6.6-5.5,11.1h11.3C61.1-116.6,58.9-120.6,55.5-123.1z"/>
		<path fill="#010101" d="M56.3-99.3c2.3,1.7,5.2,2.7,8.2,2.8V-111h-2.2C62.1-106.3,59.8-102,56.3-99.3z"/>
		<path fill="#010101" d="M62.3-112h2.2v-14.5c-3,0.1-5.9,1.1-8.2,2.7C59.8-121,62.1-116.8,62.3-112z"/>
	</g>
</g>
</svg>
