<?xml version="1.0" encoding="utf-8"?>
<!-- Generator: Adobe Illustrator 18.0.0, SVG Export Plug-In . SVG Version: 6.00 Build 0)  -->
<!DOCTYPE svg PUBLIC "-//W3C//DTD SVG 1.0//EN" "http://www.w3.org/TR/2001/REC-SVG-20010904/DTD/svg10.dtd">
<svg version="1.0" xmlns="http://www.w3.org/2000/svg" xmlns:xlink="http://www.w3.org/1999/xlink" x="0px" y="0px"
	 viewBox="0 0 30 30" enable-background="new 0 0 30 30" xml:space="preserve">
<g id="Layer_1">
	<path fill-rule="evenodd" clip-rule="evenodd" d="M-35-240.3c-8.3,0-15,6.7-15,15c0,8.3,6.7,15,15,15s15-6.7,15-15
		C-20-233.6-26.7-240.3-35-240.3z M-36.9-214.1v-9.4h-9.4l18.7-9.4L-36.9-214.1z"/>
</g>
<g id="Layer_2">
	<path fill-rule="evenodd" clip-rule="evenodd" d="M172.2-190.4h-15c-2.1,0-3.7,1.7-3.7,3.8v22.5c0,2.1,1.7,3.7,3.7,3.7h15
		c2.1,0,3.7-1.7,3.7-3.7v-22.5C176-188.7,174.3-190.4,172.2-190.4z M174.5-164.1c0,1.2-1,2.2-2.2,2.2h-15c-1.2,0-2.2-1-2.2-2.2
		v-22.5c0-1.2,1-2.2,2.2-2.2h15c1.2,0,2.2,1,2.2,2.2V-164.1z"/>
	<path fill-rule="evenodd" clip-rule="evenodd" d="M23.4-227.2c3.6,0,6.6,3,6.6,6.7c0,3.7-2.9,6.7-6.6,6.7c-3.6,0-6.6-3-6.6-6.7
		c0-2.3,1.2-4.4,2.9-5.6l-0.4-0.7l-1.1-2.1l-0.1-0.3h-6.8c-0.8,0-1.5,0.5-1.7,1.3l-0.4,1.2c2.3,1.1,3.9,3.4,3.9,6.1
		c0,3.7-2.9,6.7-6.6,6.7s-6.6-3-6.6-6.7c0-3.7,2.9-6.7,6.6-6.7c0.3,0,0.6,0.1,0.9,0.1l1-3.3c0.1-0.4,0.5-0.7,0.9-0.7h9.9l1.7-3.8
		h-3.2c-0.5,0-0.9-0.4-0.9-1c0-0.5,0.4-1,0.9-1h4.1h0.6c0.3,0,0.6,0.2,0.8,0.4c0.2,0.3,0.2,0.6,0.1,0.9l-0.3,0.6l-2.7,5.9l1.1,2.1
		C22.1-227.1,22.8-227.2,23.4-227.2z M8.7-224.8l-1,3c-0.1,0.2-0.2,0.4-0.5,0.6c-0.2,0.1-0.5,0.1-0.7,0.1c-0.5-0.2-0.8-0.7-0.6-1.2
		l0.9-2.9c-0.1,0-0.2,0-0.3,0c-2.6,0-4.7,2.1-4.7,4.8c0,2.6,2.1,4.8,4.7,4.8c2.6,0,4.7-2.1,4.7-4.8C11.3-222.4,10.2-224,8.7-224.8z
		 M18.7-220.5c0,2.6,2.1,4.8,4.7,4.8s4.7-2.1,4.7-4.8c0-2.6-2.1-4.8-4.7-4.8c-0.3,0-0.7,0-1,0.1l2.3,4.3c0.1,0.2,0.1,0.5,0.1,0.7
		c-0.1,0.2-0.2,0.5-0.5,0.6l0,0c-0.5,0.2-1,0.1-1.2-0.4l-2.4-4.5C19.5-223.6,18.7-222.1,18.7-220.5z M9.4-233H6.6
		c-0.5,0-0.9-0.4-0.9-1c0-0.5,0.4-1,0.9-1h5.6c0.2,0,0.3,0.1,0.3,0.2c0.1,0.1,0,0.3-0.1,0.4C11.6-233.5,10.8-233,9.4-233z"/>
	<path fill-rule="evenodd" clip-rule="evenodd" d="M79.1-226.3h-0.9v-5.6h0.9c0.5,0,0.9,0.4,0.9,0.9v3.7
		C80-226.7,79.6-226.3,79.1-226.3z M74.4-215.1v1.9c0,1-0.8,1.9-1.9,1.9h-1.9c-1,0-1.9-0.8-1.9-1.9v-1.9h-7.5v1.9
		c0,1-0.8,1.9-1.9,1.9h-1.9c-1,0-1.9-0.8-1.9-1.9v-1.9c-1,0-1.9-0.8-1.9-1.9v-16.8c0-3.1,2.5-5.6,5.6-5.6h11.2
		c3.1,0,5.6,2.5,5.6,5.6v16.8C76.2-215.9,75.4-215.1,74.4-215.1z M57.5-216.9c1,0,1.9-0.8,1.9-1.9c0-1-0.8-1.9-1.9-1.9
		c-1,0-1.9,0.8-1.9,1.9C55.6-217.8,56.5-216.9,57.5-216.9z M68.7-237.5h-7.5v1.9h7.5V-237.5z M74.4-233.7H55.6v11.2h18.7V-233.7z
		 M72.5-220.7c-1,0-1.9,0.8-1.9,1.9c0,1,0.8,1.9,1.9,1.9c1,0,1.9-0.8,1.9-1.9C74.4-219.8,73.5-220.7,72.5-220.7z M50-227.2v-3.7
		c0-0.5,0.4-0.9,0.9-0.9h0.9v5.6h-0.9C50.4-226.3,50-226.7,50-227.2z"/>
	<path fill-rule="evenodd" clip-rule="evenodd" d="M124.4-223.5c0,2-1.7,3.7-3.7,3.7h-11.2c-2.1,0-3.7-1.6-3.7-3.7v-12.8h18.7v1.8
		c3.1,0,5.6,2.5,5.6,5.5C130-226,127.5-223.5,124.4-223.5z M109.4-234.5h-1.9v11c0,1,0.8,1.8,1.9,1.8V-234.5z M124.4-232.7v7.3
		c2.1,0,3.7-1.6,3.7-3.7C128.1-231,126.4-232.7,124.4-232.7z M130-216.2c0,1-0.8,1.8-1.9,1.8h-26.2c-1,0-1.9-0.8-1.9-1.8
		c0-1,0.8-1.8,1.9-1.8h26.2C129.2-218,130-217.2,130-216.2z"/>
	<g>
		<polygon fill-rule="evenodd" clip-rule="evenodd" points="178,-234.8 178,-212.8 152,-212.8 152,-210.8 180,-210.8 180,-211.8 
			180,-212.8 180,-234.8 		"/>
		<path fill-rule="evenodd" clip-rule="evenodd" d="M176-236.8h-3c0,1.7-1.3,3-3,3c-1.7,0-3-1.3-3-3h-7c0,1.7-1.3,3-3,3
			c-1.7,0-3-1.3-3-3h-4v22h26V-236.8z M174-216.8h-22v-15h22V-216.8z"/>
		<path fill-rule="evenodd" clip-rule="evenodd" d="M157-235.8c0.6,0,1-0.4,1-1v-2c0-0.6-0.4-1-1-1s-1,0.4-1,1v2
			C156-236.3,156.4-235.8,157-235.8z"/>
		<path fill-rule="evenodd" clip-rule="evenodd" d="M170-235.8c0.6,0,1-0.4,1-1v-2c0-0.6-0.4-1-1-1s-1,0.4-1,1v2
			C169-236.3,169.4-235.8,170-235.8z"/>
		<rect x="156" y="-228.8" fill-rule="evenodd" clip-rule="evenodd" width="3" height="3"/>
		<rect x="162" y="-228.8" fill-rule="evenodd" clip-rule="evenodd" width="3" height="3"/>
		<rect x="167" y="-228.8" fill-rule="evenodd" clip-rule="evenodd" width="3" height="3"/>
		<rect x="156" y="-223.8" fill-rule="evenodd" clip-rule="evenodd" width="3" height="3"/>
		<rect x="162" y="-223.8" fill-rule="evenodd" clip-rule="evenodd" width="3" height="3"/>
		<rect x="167" y="-223.8" fill-rule="evenodd" clip-rule="evenodd" width="3" height="3"/>
	</g>
	<g>
		<path fill-rule="evenodd" clip-rule="evenodd" d="M207-236.3c0.6,0,1-0.4,1-1v-2c0-0.6-0.4-1-1-1s-1,0.4-1,1v2
			C206-236.8,206.4-236.3,207-236.3z"/>
		<path fill-rule="evenodd" clip-rule="evenodd" d="M220-236.3c0.6,0,1-0.4,1-1v-2c0-0.6-0.4-1-1-1s-1,0.4-1,1v2
			C219-236.8,219.4-236.3,220-236.3z"/>
		<rect x="206" y="-229.3" fill-rule="evenodd" clip-rule="evenodd" width="3" height="3"/>
		<rect x="212" y="-229.3" fill-rule="evenodd" clip-rule="evenodd" width="3" height="3"/>
		<rect x="217" y="-229.3" fill-rule="evenodd" clip-rule="evenodd" width="3" height="3"/>
		<rect x="206" y="-224.3" fill-rule="evenodd" clip-rule="evenodd" width="3" height="3"/>
		<rect x="212" y="-224.3" fill-rule="evenodd" clip-rule="evenodd" width="3" height="3"/>
		<rect x="202" y="-213.3" fill-rule="evenodd" clip-rule="evenodd" width="17" height="2"/>
		<rect x="228" y="-235.3" fill-rule="evenodd" clip-rule="evenodd" width="2" height="13"/>
		<path fill-rule="evenodd" clip-rule="evenodd" d="M202-232.3h22v10h2v-15h-3c0,1.7-1.3,3-3,3s-3-1.3-3-3h-7c0,1.7-1.3,3-3,3
			s-3-1.3-3-3h-4v22h19v-2h-17V-232.3z"/>
		<path fill-rule="evenodd" clip-rule="evenodd" d="M225-221.3c-2.8,0-5,2.2-5,5c0,2.8,2.2,5,5,5s5-2.2,5-5
			C230-219.1,227.8-221.3,225-221.3z M228-215.3h-2v2h-2v-2h-2v-2h2v-2h2v2h2V-215.3z"/>
		<rect x="217" y="-224.3" fill-rule="evenodd" clip-rule="evenodd" width="3" height="3"/>
	</g>
	<g>
		
			<rect x="-28.9" y="-168.1" transform="matrix(-0.5 -0.866 0.866 -0.5 103.3207 -275.6251)" fill-rule="evenodd" clip-rule="evenodd" width="2" height="1"/>
		
			<rect x="-30.9" y="-171.6" transform="matrix(-0.5 -0.866 0.866 -0.5 103.3274 -282.5453)" fill-rule="evenodd" clip-rule="evenodd" width="2" height="1"/>
		
			<rect x="-32.9" y="-175.1" transform="matrix(-0.5 -0.866 0.866 -0.5 103.3204 -289.4817)" fill-rule="evenodd" clip-rule="evenodd" width="2" height="1"/>
		
			<rect x="-34.4" y="-179" transform="matrix(-0.866 0.5 -0.5 -0.866 -152.2759 -315.2568)" fill-rule="evenodd" clip-rule="evenodd" width="1" height="2"/>
		
			<rect x="-22.2" y="-172.6" transform="matrix(0.7072 -0.707 0.707 0.7072 114.9754 -65.5553)" fill-rule="evenodd" clip-rule="evenodd" width="1" height="2"/>
		
			<rect x="-25.5" y="-174.9" transform="matrix(-0.7071 -0.7071 0.7071 -0.7071 81.5364 -315.0627)" fill-rule="evenodd" clip-rule="evenodd" width="2" height="1"/>
		
			<rect x="-28.3" y="-177.7" transform="matrix(-0.7072 -0.7071 0.7071 -0.7072 78.6923 -321.9024)" fill-rule="evenodd" clip-rule="evenodd" width="2" height="1"/>
		
			<rect x="-31.1" y="-180.6" transform="matrix(0.7072 0.707 -0.707 0.7072 -136.1492 -31.4186)" fill-rule="evenodd" clip-rule="evenodd" width="2" height="1"/>
		
			<rect x="-34.3" y="-165.5" transform="matrix(-0.2588 -0.9659 0.9659 -0.2588 117.4343 -239.9647)" fill-rule="evenodd" clip-rule="evenodd" width="2" height="1"/>
		
			<rect x="-34.9" y="-169.9" transform="matrix(0.9659 -0.2589 0.2589 0.9659 42.5588 -14.6621)" fill-rule="evenodd" clip-rule="evenodd" width="1" height="2"/>
		
			<rect x="-35.9" y="-173.8" transform="matrix(0.9659 -0.2589 0.2589 0.9659 43.5214 -15.0607)" fill-rule="evenodd" clip-rule="evenodd" width="1" height="2"/>
		
			<rect x="-37" y="-177.6" transform="matrix(0.9659 -0.2589 0.2589 0.9659 44.489 -15.4618)" fill-rule="evenodd" clip-rule="evenodd" width="1" height="2"/>
		<rect x="-40.4" y="-164.8" fill-rule="evenodd" clip-rule="evenodd" width="1" height="2"/>
		<rect x="-40.4" y="-168.8" fill-rule="evenodd" clip-rule="evenodd" width="1" height="2"/>
		<rect x="-40.4" y="-172.8" fill-rule="evenodd" clip-rule="evenodd" width="1" height="2"/>
		<rect x="-40.4" y="-176.8" fill-rule="evenodd" clip-rule="evenodd" width="1" height="2"/>
		<path fill-rule="evenodd" clip-rule="evenodd" d="M-33-186.6l-3.1,1.8c-1.1-2.4-3.5-4-6.3-4c-3.9,0-7,3.1-7,7v20h4v-20
			c0-1.7,1.3-3,3-3c1.3,0,2.4,0.8,2.8,2l-3.8,2.2l1.5,2.6l10.4-6L-33-186.6z"/>
	</g>
	<path fill-rule="evenodd" clip-rule="evenodd" d="M29.7-165l-9.3-9.6l9.4-9.8c0.1,0.2,0.1,0.5,0.1,0.7v17.6
		C30-165.7,29.9-165.3,29.7-165z M1.7-185.8l0.2,0h26.2l0.3,0.1L15-171.9L1.7-185.8z M0.2-165.1C0.1-165.4,0-165.7,0-166v-17.6
		c0-0.3,0.1-0.6,0.1-0.9l9.4,9.9L0.2-165.1z M15-169l4-4.1l9,9.3H1.9l-0.1,0l9.2-9.3L15-169z"/>
	<path d="M50-190.3v30h30v-30H50z M70.3-169.8c0,0-6,6.5-7.9,7.3c0,0-7.2-5.9-9.4-9.5c-2.2-3.6-2.9-6.9,1.3-9.1
		c4.3-2.3,7.8,2.1,8.1,3c0,0,3.2-5.8,8.9-2.5C77.1-177.2,70.3-169.8,70.3-169.8z M78-184.3h-3v3h-2v-3h-3v-2h3v-3h2v3h3V-184.3z"/>
	<path d="M59-180.3v11l3.5-2.6l-0.4,5.6l-1.3-0.4l1.6,3.2l2.3-2.7l-1.1,0l1.4-9.2l-4,2v-5L59-180.3z"/>
	<path fill-rule="evenodd" clip-rule="evenodd" d="M112-186.3h1v23h-1V-186.3z"/>
	<path fill-rule="evenodd" clip-rule="evenodd" d="M128.6-173.4l-2.8-4.3l-1.1,2.2l3.9,6.4H125l-0.6,5.7h-2.8l-0.6-5.7h-3.6l3.9-6.4
		l-1.1-2.2l-2.8,4.3H116l2.3-5.9c0.3-0.8,1.1-1.3,1.9-1.3h1.4l1.4,2.9l1.4-2.9h1.4c0.8,0,1.6,0.5,1.9,1.3l2.3,5.9H128.6z M123-182
		c-1.2,0-2.1-1-2.1-2.2c0-1.2,0.9-2.2,2.1-2.2c1.2,0,2.1,1,2.1,2.2C125.1-183,124.2-182,123-182z"/>
	<path fill-rule="evenodd" clip-rule="evenodd" d="M106.1-172l-0.8,8.6h-2.7l-0.8-8.6H100v-7.6c0.6-0.3,1.3-0.6,2.1-0.8l1.9,4.1
		l1.9-4.1c0.8,0.2,1.5,0.4,2.1,0.8v7.6H106.1z M104-182c-1.1,0-2-1-2-2.2c0-1.2,0.9-2.2,2-2.2c1.1,0,2,1,2,2.2
		C106-183,105.1-182,104-182z"/>
	<path fill-rule="evenodd" clip-rule="evenodd" d="M227.5-170.5l-10.6-5.9c0-0.6,0.4-1.2,0.9-1.5c1.7-1,2.8-2.8,2.8-4.8
		c0-3.1-2.5-5.6-5.6-5.6s-5.6,2.5-5.6,5.6c0,1,0.8,1.9,1.9,1.9c1,0,1.9-0.8,1.9-1.9c0-1,0.8-1.9,1.9-1.9s1.9,0.8,1.9,1.9
		c0,0.7-0.4,1.3-0.9,1.6c-1.7,1-2.8,2.8-2.8,4.7l-10.7,6c-1.4,0.9-2.4,2.8-2.4,4.4c0,2,1.7,3.7,3.7,3.7h22.5c2.1,0,3.7-1.7,3.7-3.7
		C230-167.7,229-169.6,227.5-170.5z M203.8-166c0-0.4,0.4-1.1,0.6-1.2l10.6-5.9l10.5,5.9c0.3,0.2,0.7,0.9,0.7,1.3H203.8z"/>
	<path fill-rule="evenodd" clip-rule="evenodd" d="M50-117.1h30v1H50V-117.1z"/>
	<path fill-rule="evenodd" clip-rule="evenodd" d="M63-116.1h4c1.1,0,2-0.9,2-2h-8C61-117,61.9-116.1,63-116.1z"/>
	<path fill-rule="evenodd" clip-rule="evenodd" d="M73-116.1h4c1.1,0,2-0.9,2-2h-8C71-117,71.9-116.1,73-116.1z"/>
	<path fill-rule="evenodd" clip-rule="evenodd" d="M67-127.1h-4c-1.1,0-2,0.9-2,2v6h8v-6C69-126.2,68.1-127.1,67-127.1z M66.5-125.3
		h-3.1c-0.3,0-0.5-0.2-0.5-0.5c0-0.3,0.2-0.5,0.5-0.5h3.1c0.3,0,0.5,0.2,0.5,0.5C67-125.5,66.8-125.3,66.5-125.3z"/>
	<path fill-rule="evenodd" clip-rule="evenodd" d="M77-127.1h-4c-1.1,0-2,0.9-2,2v6h8v-6C79-126.2,78.1-127.1,77-127.1z M76.5-125.3
		h-3.1c-0.3,0-0.5-0.2-0.5-0.5c0-0.3,0.2-0.5,0.5-0.5h3.1c0.3,0,0.5,0.2,0.5,0.5C77-125.5,76.8-125.3,76.5-125.3z"/>
	<path fill-rule="evenodd" clip-rule="evenodd" d="M66-125.1h8v1h-8V-125.1z"/>
	<path fill-rule="evenodd" clip-rule="evenodd" d="M50-117.1h1v3h-1V-117.1z"/>
	<path fill-rule="evenodd" clip-rule="evenodd" d="M79-117.1h1v3h-1V-117.1z"/>
	<path fill-rule="evenodd" clip-rule="evenodd" d="M53-116.1h4c1.1,0,2-0.9,2-2h-8C51-117,51.9-116.1,53-116.1z"/>
	<path fill-rule="evenodd" clip-rule="evenodd" d="M57-127.1h-4c-1.1,0-2,0.9-2,2v6h8v-6C59-126.2,58.1-127.1,57-127.1z M56.5-125.3
		h-3.1c-0.3,0-0.5-0.2-0.5-0.5c0-0.3,0.2-0.5,0.5-0.5h3.1c0.3,0,0.5,0.2,0.5,0.5C57-125.5,56.8-125.3,56.5-125.3z"/>
	<path fill-rule="evenodd" clip-rule="evenodd" d="M56-125.1h8v1h-8V-125.1z"/>
	<path fill="none" d="M61.5-132.2h-3.1c-0.3,0-0.5,0.2-0.5,0.5c0,0.3,0.2,0.5,0.5,0.5h3.1c0.3,0,0.5-0.2,0.5-0.5
		C62-132,61.8-132.2,61.5-132.2z"/>
	<path fill="none" d="M72-131.7c0-0.3-0.2-0.5-0.5-0.5h-3.1c-0.3,0-0.5,0.2-0.5,0.5c0,0.3,0.2,0.5,0.5,0.5h3.1
		C71.8-131.3,72-131.5,72-131.7z"/>
	<path fill="none" d="M62-131.7c0-0.3-0.2-0.5-0.5-0.5h-3.1c-0.3,0-0.5,0.2-0.5,0.5c0,0.3,0.2,0.5,0.5,0.5h3.1
		C61.8-131.3,62-131.5,62-131.7z"/>
	<path d="M73-127.6h1v-3.5c0-1.1-0.9-2-2-2h-4c-1.1,0-2,0.9-2,2v3.5h1c1.4,0,2.5,1.1,2.5,2.5v1h1v-1C70.5-126.5,71.6-127.6,73-127.6
		z M68.5-131.3c-0.3,0-0.5-0.2-0.5-0.5c0-0.3,0.2-0.5,0.5-0.5h3.1c0.3,0,0.5,0.2,0.5,0.5c0,0.3-0.2,0.5-0.5,0.5H68.5z"/>
	<path d="M63-127.6h1v-3.5c0-1.1-0.9-2-2-2h-4c-1.1,0-2,0.9-2,2v3.5h1c1.4,0,2.5,1.1,2.5,2.5v1h1v-1C60.5-126.5,61.6-127.6,63-127.6
		z M58.5-131.3c-0.3,0-0.5-0.2-0.5-0.5c0-0.3,0.2-0.5,0.5-0.5h3.1c0.3,0,0.5,0.2,0.5,0.5c0,0.3-0.2,0.5-0.5,0.5H58.5z"/>
	<g>
		<path d="M-29.9-116.4c-0.5-0.3-1.2-0.2-1.5,0.4c-1.4,2.2-3.7,3.5-6.3,3.5c-4.1,0-7.4-3.4-7.4-7.5c0-2.4,1.2-4.7,3.1-6.1
			c0.5-0.4,0.6-1,0.2-1.5c-0.4-0.5-1-0.6-1.5-0.3c-2.5,1.8-4,4.8-4,7.9c0,5.3,4.3,9.7,9.6,9.7c3.3,0,6.4-1.7,8.1-4.6
			C-29.2-115.4-29.3-116.1-29.9-116.4z"/>
		<path d="M-22.3-115.8c-0.2-0.6-0.8-0.9-1.4-0.7l-1.3,0.5c0,0-2.4-6.8-2.5-6.9c0,0-0.1-0.1-0.1-0.2c-0.3-0.5-0.9-0.9-1.5-0.9h-5.7
			l-0.1-2.1h4.7c0.6,0,1.1-0.5,1.1-1.1c0-0.6-0.5-1.1-1.1-1.1H-35l-0.2-3.1c0,0,0-0.1,0-0.1c-0.1-1.5-1.4-2.7-2.9-2.6
			c-1.5,0.1-2.7,1.4-2.6,2.9v0l0,0l0.4,8.1l0,0c0,0,0,0,0,0c0.1,1.5,1.3,2.6,2.7,2.6c0,0,7.4,0,7.4,0l2.2,6.1
			c0.2,0.7,0.9,1.1,1.5,1.1c0.1,0,0.2,0,0.3,0c0.1,0,0.1,0,0.2-0.1l2.9-1.1C-22.4-114.6-22.1-115.2-22.3-115.8z"/>
		
			<ellipse transform="matrix(5.248704e-02 0.9986 -0.9986 5.248704e-02 -173.7177 -92.5805)" cx="-38.1" cy="-137.8" rx="2.5" ry="2.5"/>
	</g>
	<g>
		<path fill-rule="evenodd" clip-rule="evenodd" d="M27-130.1c0-0.1,0-0.1,0-0.2c0-2-1.5-3.6-3.4-3.7c-0.7-0.8-1.7-1.3-2.8-1.3
			c-1.3,0-2.5,0.7-3.2,1.7c-0.5-0.3-1.2-0.5-1.8-0.5c-2.1,0-3.7,1.7-3.7,3.7c0,0.1,0,0.1,0,0.2c-1.5,0.5-2.5,1.9-2.5,3.5
			c0,0.1,0,0.2,0,0.2h-6h-1h-2v2h2v1h-2v1h2v1v1h1h7h1v-1v-1h2v-0.5c0.6,0,1.1-0.2,1.6-0.5c0.6,0.3,1.2,0.5,1.9,0.5
			c0.4,0,0.9-0.1,1.2-0.2v6.5H17v1.2h5v-1.2h-1.2v-6.2c0.2,0,0.4,0,0.6-0.1c0.2,0,0.4,0.1,0.6,0.1c0.7,0,1.3-0.2,1.9-0.5
			c0.6,0.3,1.2,0.5,1.9,0.5c2.1,0,3.7-1.7,3.7-3.7C29.5-128.2,28.4-129.6,27-130.1z M3.5-124.3h6.8c0.1,0.1,0.1,0.2,0.2,0.3v0.7h-7
			V-124.3z M10.5-121.3h-7v-1h7V-121.3z"/>
		<polygon fill-rule="evenodd" clip-rule="evenodd" points="10.5,-119.3 3.5,-119.3 1.5,-119.3 0.5,-119.3 0.5,-118.3 1.5,-118.3 
			1.5,-115.3 3.5,-115.3 3.5,-118.3 4.5,-118.3 4.5,-116.3 5.5,-116.3 5.5,-118.3 8.5,-118.3 8.5,-116.3 9.5,-116.3 9.5,-118.3 
			10.5,-118.3 10.5,-115.3 12.5,-115.3 12.5,-118.3 13.5,-118.3 13.5,-119.3 12.5,-119.3 		"/>
	</g>
	<g>
		<path fill-rule="evenodd" clip-rule="evenodd" d="M165.8-179.4c-0.1-0.2-0.2-0.4-0.4-0.5c-0.2-0.1-0.5-0.2-0.8-0.2h-1v4.4h0.9
			c0.4,0,0.7-0.1,0.9-0.2s0.4-0.3,0.5-0.4c0.1-0.2,0.2-0.4,0.2-0.7c0-0.3,0-0.6,0-0.9c0-0.3,0-0.6,0-0.9
			C166-179,165.9-179.2,165.8-179.4z"/>
		<path fill-rule="evenodd" clip-rule="evenodd" d="M171.4-187.4h-13.3c-1.1,0-2,0.9-2,2v20c0,1.1,0.9,2,2,2h13.3c1.1,0,2-0.9,2-2
			v-20C173.4-186.5,172.5-187.4,171.4-187.4z M167.6-176.5c-0.1,0.4-0.2,0.8-0.4,1.1c-0.3,0.4-0.6,0.7-1,1s-1,0.4-1.7,0.4h-0.9v5
			h-1.8v-12.8h2.8c0.5,0,0.9,0.1,1.3,0.2c0.4,0.1,0.7,0.4,1,0.7c0.3,0.3,0.5,0.7,0.6,1.2c0.1,0.4,0.2,1.1,0.2,1.8
			C167.7-177.3,167.7-176.9,167.6-176.5z"/>
	</g>
	<path fill-rule="evenodd" clip-rule="evenodd" d="M129.8-63.6L116-88.1c-0.5-1-1.4-1-2,0l-13.8,24.6c-0.5,1-0.1,1.7,1,1.7h27.6
		C129.9-61.8,130.3-62.6,129.8-63.6z M117-66.8c0,0.6-0.5,1-1,1h-2c-0.5,0-1-0.4-1-1v-2c0-0.6,0.5-1,1-1h2c0.5,0,1,0.5,1,1V-66.8z
		 M117-72.8c0,0.6-0.4,1-1,1h-2c-0.5,0-1-0.4-1-1v-6c0-0.6,0.5-1,1-1h2c0.5,0,1,0.5,1,1L117-72.8z"/>
	<g>
		<path d="M169.6-82.3c-1.4-0.4-3-0.7-4.6-0.7c-7.1,0-13,5.2-14.8,6.9c-0.3,0.3-0.3,0.8,0,1.1c1,1,3.5,3.2,6.9,4.9L169.6-82.3z"/>
		<path d="M179.8-76.1c-1.1-1-3.7-3.4-7.1-5l2.8-2.7H173l-17.4,17h2.4l2.2-2.1c1.5,0.5,3.2,0.8,4.9,0.8c7.1,0,13-5.2,14.8-6.9
			C180.1-75.3,180.1-75.8,179.8-76.1z M170.1-74.5c-0.4,1.9-2,3.5-4,3.9c-1.4,0.3-2.6,0-3.7-0.6l2.2-2.2c0.1,0,0.2,0,0.4,0
			c1.3,0,2.3-1,2.3-2.3c0-0.1,0-0.2,0-0.4l2.2-2.2C170.1-77.1,170.4-75.8,170.1-74.5z"/>
	</g>
	<g>
		<polygon points="215.9,-87.8 214,-87.8 214,-81.8 215.9,-81.8 		"/>
		<polygon points="224,-72.5 230,-73.7 229.5,-76 223.6,-74.8 		"/>
		<polygon points="226.3,-82.6 224.6,-84.2 220.4,-80 222,-78.3 		"/>
		<polygon points="206.4,-74.8 200.5,-76 200,-73.7 206,-72.5 		"/>
		<path d="M223-66.8l-2.3-10.9c-0.2-1.2-1.3-2.1-2.7-2.1l-5,0c-1.4,0-2.7,0.9-3,2.1l-2,10.9c0,0.1,0,0,0,1h-3l0.1,3H226v-3h-3
			C223-66.8,223-66.8,223-66.8z M215.1-66.8l-0.1-11h2c1.1,0,1.8,0.1,2,1l1,5c0,0.1,1,5,1,5H215.1z"/>
		<polygon points="209.6,-80 205.4,-84.2 203.7,-82.6 208,-78.3 		"/>
	</g>
	<path fill-rule="evenodd" clip-rule="evenodd" d="M116.8-110.3h-4v-11h-2v-9c0-2.1,0.9-3,3-3h2c2.1,0,3,0.9,3,3v9h-2V-110.3z
		 M114.8-134.7c-1.6,0-2.8-1.3-2.8-2.8c0-1.6,1.3-2.8,2.8-2.8s2.8,1.3,2.8,2.8C117.6-136,116.4-134.7,114.8-134.7z"/>
	<path fill-rule="evenodd" clip-rule="evenodd" d="M105.8-110.3h-4v-11h-2v-9c0-2.1,0.9-3,3-3h2c2.1,0,3,0.9,3,3v9h-2V-110.3z
		 M103.8-134.7c-1.6,0-2.8-1.3-2.8-2.8c0-1.6,1.3-2.8,2.8-2.8s2.8,1.3,2.8,2.8C106.6-136,105.4-134.7,103.8-134.7z"/>
	<path fill-rule="evenodd" clip-rule="evenodd" d="M127.8-110.3h-4v-11h-2v-9c0-2.1,0.9-3,3-3h2c2.1,0,3,0.9,3,3v9h-2V-110.3z
		 M125.8-134.7c-1.6,0-2.8-1.3-2.8-2.8c0-1.6,1.3-2.8,2.8-2.8s2.8,1.3,2.8,2.8C128.6-136,127.4-134.7,125.8-134.7z"/>
	<path fill-rule="evenodd" clip-rule="evenodd" d="M164.6-137.3c-5,0-9,4-9,9c0,6,9,15,9,15s9-9,9-15
		C173.6-133.3,169.6-137.3,164.6-137.3z M164.6-124.2c-2.6,0-4.7-2.1-4.7-4.7c0-2.6,2.1-4.7,4.7-4.7c2.6,0,4.7,2.1,4.7,4.7
		C169.3-126.4,167.2-124.2,164.6-124.2z"/>
	<path fill-rule="evenodd" clip-rule="evenodd" d="M219.1-130.3c1,0,1.8,0.8,1.8,1.9c0,1-0.8,1.9-1.8,1.9h-6.7
		c-0.1,0.4-0.1,0.8-0.1,1.1c0,0.4,0,0.8,0.1,1.1h6.7c1,0,1.8,0.8,1.8,1.9c0,1-0.8,1.9-1.8,1.9h-5.6c1.7,3.2,5,5.3,8.5,5.3h0.4
		c0.8,0,1.4,0.7,1.4,1.7c0,1-0.6,1.9-1.3,2l0,0H222c-5.5,0-10.5-3.6-12.4-9.1h-2c-1,0-1.8-0.8-1.8-1.9c0-1,0.8-1.9,1.8-1.9h1.2v0
		c-0.1-0.4-0.1-0.7-0.1-1.1c0-0.4,0-0.7,0.1-1.1v0h-1.2c-1,0-1.8-0.8-1.8-1.9c0-1,0.8-1.9,1.8-1.9h2c2-5.4,6.9-9.1,12.4-9.1h0.4
		c0.8,0.1,1.4,1,1.4,2c0,1-0.5,1.7-1.2,1.7l-0.6,0c-3.5,0-6.8,2.1-8.5,5.3H219.1z"/>
	<path fill-rule="evenodd" clip-rule="evenodd" d="M-26.6-88.7l-0.3,0.2c-1.1,0.5-2.8,6.3-2.8,6.7l0,0.4c0.2,0.8,0.9,1.7,2.5,3.5
		c-0.9,2.1-3.4,4.9-4.9,6.2c-1.6,1.4-4.3,3.2-6.3,3.9c-1.8-2.1-2.6-2.9-3.5-3c-0.5,0-6.4,1-6.9,2l-0.2,0.3c-0.4,0.7-1.1,1.7-0.8,2.8
		c0.1,0.3,0.2,0.5,0.3,0.8c0.5,0.8,1.7,2.6,3.4,3.4c1,0.5,10.4,0.8,18.3-6.3c7.8-7,8.2-15.6,7.9-16.9l0,0l0-0.1
		c-0.6-1.8-2.3-3.2-3-3.8C-24.3-89.8-25.8-89.1-26.6-88.7z"/>
	<path fill-rule="evenodd" clip-rule="evenodd" d="M2.8-87.3v18h18v-18H2.8z M18.8-71.3h-14v-14h14V-71.3z"/>
	<path fill-rule="evenodd" clip-rule="evenodd" d="M24.8-73.3v-10h-2l3-4l3,4h-2v10h2l-3,4l-3-4"/>
	<path fill-rule="evenodd" clip-rule="evenodd" d="M16.8-63.3h-10v2l-4-3l4-3v2h10v-2l4,3l-4,3"/>
	<g opacity="0.4">
		<path fill-rule="evenodd" clip-rule="evenodd" d="M58.5-70.4l4-4c-0.1-0.2-0.1-0.5-0.1-0.7c0-1,0.6-1.9,1.5-2.3v-9.9
			c0-0.5,0.5-1,1-1c-7.2,0-13,5.8-13,13c0,3.6,1.5,6.8,3.8,9.2l2.8-2.8C58.1-69.4,58.1-70,58.5-70.4z"/>
	</g>
	<g>
		<g>
			<path fill-rule="evenodd" clip-rule="evenodd" d="M64.8-90.3c-1,0-2,0.1-3,0.3c-1,0.2-1.9,0.5-2.8,0.9c-1.3,0.6-2.6,1.3-3.7,2.2
				s-2.1,2-2.9,3.2c-1.6,2.4-2.6,5.3-2.6,8.4c0,1.6,0.2,3.1,0.7,4.5c0.7,2.3,2,4.4,3.7,6.1c0.3,0.3,0.7,0.7,1.1,1
				c0.7,0.6,1.5,1.2,2.4,1.6c0.4,0.2,0.9,0.4,1.3,0.6c0.9,0.4,1.8,0.7,2.8,0.9c1,0.2,2,0.3,3,0.3c8.3,0,15-6.7,15-15
				C79.8-83.6,73.1-90.3,64.8-90.3z M64.8-72.6c-0.3,0-0.6-0.1-0.9-0.2L60-68.9c-0.4,0.4-1.1,0.4-1.5,0c0,0,0,0,0,0l-2.8,2.8
				c-2.4-2.4-3.8-5.6-3.8-9.2c0-7.2,5.8-13,13-13c0.5,0,1,0.5,1,1v9.9c0.9,0.4,1.5,1.3,1.5,2.3C67.3-73.7,66.2-72.6,64.8-72.6z"/>
		</g>
	</g>
	<path fill-rule="evenodd" clip-rule="evenodd" d="M-34-13.4h-2l-14-2v-19.9h2v18.2l12,1.7h2l12-1.7v-18.2h2v19.9L-34-13.4z
		 M-34-35.2c3.6-2.1,10-2.1,10-2.1v17.9c0,0-6.4,0-10,2.1V-35.2z M-46-37.3c0,0,6.4,0,10,2.1v17.9c-3.6-2.1-10-2.1-10-2.1V-37.3z"/>
	<path fill-rule="evenodd" clip-rule="evenodd" d="M29.5-31.4l-0.2,0.1l0,0l-2.7,2.7l-8.4-8.4l2.7-2.7l0,0l0.1-0.2
		c0.7-0.7,2-0.7,2.7,0.1l5.6,5.6C30.2-33.4,30.2-32.1,29.5-31.4z M7-20.2l12.5-12.6l2.8,2.8L9.7-17.4l1.4,1.4l12.5-12.6l1.4,1.4
		l-13.9,14l-8.4-8.4l13.9-14l1.4,1.4L5.6-21.6L7-20.2z M9.8-11.7L4.9-11L0-10.3l0.7-4.9l0.7-4.9l4.2,4.2L9.8-11.7z"/>
	<path fill-rule="evenodd" clip-rule="evenodd" d="M76-11.3l-26,0v-28l30,0v24L76-11.3z M59-13.3h12v-7H59V-13.3z M74-37.3H56v12h18
		V-37.3z M61-18.3l4,0v3h-4V-18.3z"/>
	<path fill-rule="evenodd" clip-rule="evenodd" d="M100-28.3l3-2l8,14l16-23l3,2l-19,27L100-28.3"/>
	<path fill-rule="evenodd" clip-rule="evenodd" d="M173.6-32.5l-1.8-1.8l-7.2,7.2l-7.2-7.2l-1.8,1.8l7.2,7.2l-7.2,7.2l1.8,1.8
		l7.2-7.2l7.2,7.2l1.8-1.8l-7.2-7.2L173.6-32.5z"/>
	<path fill-rule="evenodd" clip-rule="evenodd" d="M214.8-33.8c-4.7,0-8.5,3.8-8.5,8.5s3.8,8.5,8.5,8.5c4.7,0,8.5-3.8,8.5-8.5
		S219.5-33.8,214.8-33.8z M219.8-22.6l-2.2,2.2l-2.8-2.8l-2.8,2.8l-2.2-2.2l2.8-2.8l-2.8-2.8l2.2-2.2l2.8,2.8l2.8-2.8l2.2,2.2
		l-2.8,2.8L219.8-22.6z"/>
	<path fill-rule="evenodd" clip-rule="evenodd" d="M-27.7,17c-0.9,0-1.6-0.7-1.6-1.6c0-0.9,0.7-1.6,1.6-1.6c0.9,0,1.6,0.7,1.6,1.6
		C-26.2,16.3-26.9,17-27.7,17z M-29.9,11.7c-0.4,0-0.8-0.2-1.1-0.5c-0.6-0.6-0.6-1.6,0-2.2c0.3-0.3,0.7-0.5,1.1-0.5s0.8,0.2,1.1,0.5
		c0.6,0.6,0.6,1.6,0,2.2C-29.1,11.6-29.5,11.7-29.9,11.7z M-35.2,10.5c-1.4,0-2.5-1.1-2.5-2.5c0-1.4,1.1-2.5,2.5-2.5
		c1.4,0,2.5,1.1,2.5,2.5C-32.7,9.4-33.8,10.5-35.2,10.5z M-40.4,22.3c-0.4,0-0.8-0.2-1.1-0.5c-0.6-0.6-0.6-1.6,0-2.2
		c0.3-0.3,0.7-0.5,1.1-0.5s0.8,0.2,1.1,0.5c0.6,0.6,0.6,1.6,0,2.2C-39.6,22.1-40,22.3-40.4,22.3z M-40.4,11.7
		c-0.4,0-0.8-0.2-1.1-0.5c-0.6-0.6-0.6-1.6,0-2.2c0.3-0.3,0.7-0.5,1.1-0.5s0.8,0.2,1.1,0.5c0.6,0.6,0.6,1.6,0,2.2
		C-39.6,11.6-40,11.7-40.4,11.7z M-41.1,15.5c0,0.9-0.7,1.6-1.6,1.6c-0.9,0-1.6-0.7-1.6-1.6s0.7-1.6,1.6-1.6
		C-41.8,13.9-41.1,14.6-41.1,15.5z M-35.2,21.4c0.9,0,1.6,0.7,1.6,1.6c0,0.9-0.7,1.6-1.6,1.6c-0.9,0-1.6-0.7-1.6-1.6
		C-36.7,22.1-36,21.4-35.2,21.4z M-29.9,19.2c0.4,0,0.8,0.2,1.1,0.5c0.6,0.6,0.6,1.6,0,2.2c-0.3,0.3-0.7,0.5-1.1,0.5
		c-0.4,0-0.8-0.2-1.1-0.5c-0.6-0.6-0.6-1.6,0-2.2C-30.7,19.4-30.3,19.2-29.9,19.2z"/>
	<g>
		<circle fill-rule="evenodd" clip-rule="evenodd" cx="165" cy="4.1" r="2.3"/>
		<rect x="150.2" y="12.5" fill-rule="evenodd" clip-rule="evenodd" width="1.8" height="7.3"/>
		<path fill-rule="evenodd" clip-rule="evenodd" d="M174.7,15.4H171l-0.1-6.3c0-1.2-1-2.2-2.2-2.2h-7.6c-1.2,0-2.2,1-2.2,2.2l0,6.3
			h-3.7v-4.1h-2.5v9.6h2.5v-4.1h3.7h2.1h0.6c-0.2,3.6-0.6,12.2-0.6,12.2h2.9l0.6-11.2c0.1,0,0.5,0,0.6,0l0.9,11.2h2.9
			c0,0-0.6-8.6-0.8-12.2h0.6h2.1h3.8v4.1h2.5v-9.6h-2.5V15.4z M161.2,15.4L161.2,15.4v-4.7c0-0.2,0.1-0.3,0.3-0.3
			c0.2,0,0.3,0.1,0.3,0.3v3.9c0,0,0,0.3,0,0.8H161.2z M168.8,15.4h-0.6c0-0.5,0-0.8,0-0.8v-3.9c0-0.2,0.1-0.3,0.3-0.3
			c0.2,0,0.3,0.1,0.3,0.3V15.4z"/>
		<rect x="178" y="12.5" fill-rule="evenodd" clip-rule="evenodd" width="1.8" height="7.3"/>
	</g>
	<g>
		<path fill="#010101" d="M217.9,22.3c1.5-0.1,2.9-0.2,2.9-0.2l-2.2-1.3l-2.7-1.5l-4.1-2.3l-2.7-1.5l-2.2-1.3c0,0,0.7,1.2,1.4,2.5
			c0.8,1.5,1.5,3.1,1.4,3.4c-0.2,0.7-3.2,5.3-3.9,6.3c-0.5,0.8,0.9,2.2,1.9,2.8c1,0.5,2.9,1,3.3,0.1c0.5-1.3,2.8-6.1,3.3-6.6
			C214.5,22.6,216.3,22.4,217.9,22.3z"/>
		<g>
			<path fill="#010101" d="M226.7,16.9c3.3-5.8,1.8-12.8-3.3-15.7s-11.8-0.4-15.1,5.4c-1.2,2.2-1.8,4.5-1.7,6.7l15.3,8.6
				C223.7,20.7,225.4,19.1,226.7,16.9z"/>
		</g>
	</g>
	<circle fill="#010101" cx="205.6" cy="3.1" r="2.6"/>
	<g>
		<path d="M-22.5,54.1v-3.5l-5.5-4.5l-1.3,1.1c-1-0.9-2.3-1.5-3.7-1.5c-2,0-3.7,1-4.7,2.6c-0.8-0.5-1.7-0.7-2.7-0.7
			c-3.1,0-5.6,2.5-5.6,5.6c0,0.1,0,0.2,0,0.3c-1.9,0.7-3.3,2.3-3.7,4.3c0,0,0,0.1,0,0.1c0,0.3-0.1,0.5-0.1,0.8c0,0,0,0,0,0
			c0,0,0,0,0,0c0,0,0,0,0,0c0,3.1,2.5,5.5,5.6,5.5c0.1,0,0.2,0,0.4,0l0,0c0.3,0,0.5-0.1,0.8-0.1v1.3c-1.3,0.2-2.3,1.4-2.3,2.8
			c0,1.6,1.3,2.8,2.8,2.8c1.6,0,2.8-1.3,2.8-2.8c0-1.4-1-2.5-2.3-2.8v-1.6c0.2-0.1,0.4-0.2,0.6-0.3c0.8,0.5,1.8,0.8,2.8,0.8
			c0.7,0,1.3-0.1,1.9-0.3v9.7h-1.9v1.9h7.5v-1.9H-33v-9.3c0.3,0,0.6,0,0.9-0.1c0.3,0.1,0.6,0.1,0.9,0.1c1,0,2-0.3,2.8-0.8
			c0.8,0.5,1.8,0.8,2.8,0.8c3.1,0,5.6-2.5,5.6-5.6C-20,56.8-21,55.1-22.5,54.1z M-40.8,68.3c0,1-0.8,1.8-1.8,1.8
			c-1,0-1.8-0.8-1.8-1.8s0.8-1.8,1.8-1.8C-41.6,66.4-40.8,67.3-40.8,68.3z M-23.5,58.5H-28v-4.1h-3v4.1h-1.5V51l4.5-3.7l4.5,3.7
			V58.5z"/>
		<circle cx="-25.7" cy="51.8" r="1.3"/>
	</g>
	<g>
		<g>
			<polygon fill="#010101" points="27,64.5 3.4,67.8 0,64.7 0.9,63.8 3.8,66.4 26.3,63.3 29,59.8 30,60.5 			"/>
		</g>
		<g>
			<g>
				<circle fill="#010101" cx="7.1" cy="69.5" r="1.5"/>
			</g>
			<g>
				<g>
					<circle fill="#010101" cx="24.5" cy="67.1" r="1.5"/>
				</g>
			</g>
		</g>
	</g>
	<g>
		<polygon fill="#010101" points="59.7,59.3 61.8,65.4 68.2,65.4 70.3,59.3 65,55.4 		"/>
		<path fill="#010101" d="M65,45.5c-8.3,0-15,6.7-15,15s6.7,15,15,15s15-6.7,15-15S73.3,45.5,65,45.5z M76.6,65.4
			c-0.4,0.9-0.9,1.8-1.5,2.6L75,66.6l-4.7,1.1l-2.5,4.2l1.3,0.6c-1.3,0.4-2.7,0.7-4.1,0.7c-1.4,0-2.7-0.2-4-0.7l1.3-0.6l-2.5-4.2
			L55,66.6L54.8,68c-0.6-0.8-1.1-1.7-1.5-2.6c-0.7-1.6-1-3.2-1-4.9c0,0,0-0.1,0-0.1l0.9,0.9l3.2-3.7L56,52.8l-1.2,0.2
			c0.4-0.5,0.8-1,1.3-1.5c1.2-1.2,2.5-2.1,4-2.7c0.3-0.1,0.7-0.3,1-0.4l-0.6,1.1l4.5,1.9l4.5-1.9l-0.6-1.1c0.4,0.1,0.7,0.2,1.1,0.4
			c1.5,0.6,2.9,1.5,4,2.7c0.5,0.5,0.9,1,1.3,1.5L74,52.8l-0.4,4.8l3.2,3.7l0.9-0.9c0,0,0,0,0,0.1C77.6,62.2,77.3,63.9,76.6,65.4z"/>
	</g>
	<g id="Layer_4">
		<polygon fill="#010101" points="113.2,73.5 115.8,73.5 115.8,68.3 114.5,66.8 113.2,68.3 		"/>
		<g>
			<path fill="#010101" d="M110.6,50.2c-0.4-0.2-0.6-0.6-0.7-1c-0.1-0.4,0-0.8,0.2-1.2c0.2-0.4,0.6-0.6,1-0.7c0.4-0.1,0.8,0,1.2,0.2
				c0.4,0.2,0.6,0.6,0.7,1c0.1,0.4,0,0.8-0.2,1.2c-0.2,0.4-0.6,0.6-1,0.7C111.3,50.5,110.9,50.5,110.6,50.2z"/>
			<path fill="#010101" d="M103.6,56.5l4-0.6l-2.4-2.4c-0.1-0.1-0.2-0.3-0.3-0.5c-0.2-0.6,0.1-0.9,0.6-1.3l2.3-2
				c0.2-0.2,0.4-0.3,0.6-0.3c0.4-0.1,0.7,0,1,0.2c0.3,0.2,0.5,0.5,0.6,0.9c0.1,0.5-0.1,0.9-0.5,1.2l-1.9,1.6l2,2
				c0.1,0.1,0.2,0.3,0.2,0.6c0,0.3,0,0.5-0.2,0.7c-0.2,0.3-0.4,0.4-0.7,0.5l-5.1,0.9L103.6,56.5z"/>
		</g>
		<path fill="#010101" d="M127.1,63.5c-0.4,0.2-0.8,0.2-1.2,0.1c-0.4-0.1-0.7-0.4-0.9-0.8c-0.2-0.4-0.2-0.8-0.1-1.2
			c0.1-0.4,0.4-0.7,0.8-0.9c0.4-0.2,0.8-0.2,1.2-0.1c0.4,0.1,0.7,0.4,0.9,0.8c0.2,0.4,0.2,0.8,0.1,1.2
			C127.7,63,127.5,63.3,127.1,63.5z"/>
		<path fill="#010101" d="M100.5,59.8l21.1,8c0.1-0.2,0.2-0.3,0.4-0.4c0.2-0.1,0.5-0.2,0.7-0.1l2.7,0.7l0-2.5c0-0.5,0.2-0.9,0.7-1.2
			c0.3-0.2,0.7-0.2,1.1-0.1c0.4,0.1,0.7,0.3,0.8,0.7c0.1,0.2,0.1,0.4,0.1,0.7l0,3.1c0,0.6-0.1,1-0.7,1.3c0,0-0.1,0-0.2,0l2.8,1
			l-0.5,1.4l-4.9-1.9l-0.6-1.1l-0.2,0.1l-0.2,0.1l1.8,3.4l-0.7,0.4l-0.8,0.3l-2.3-4.4L100,61.2L100.5,59.8z"/>
	</g>
	<circle fill="none" cx="156.4" cy="52.4" r="0.7"/>
	<circle fill="none" cx="154.6" cy="54.2" r="0.7"/>
	<circle fill="none" cx="154" cy="51.8" r="0.7"/>
	<g>
		<path fill="#010101" d="M169.6,59.9c0.3,0,0.7,0.1,1,0.2l0.9,0.3l-1.1-11.7l-0.3-3.1h-3.1l-0.3,3.1h-3.9l-0.3-3.1h-3.1l-0.3,3.1
			h-3.9l-0.3-3.1h-3.1l-0.3,3.1h0l-1.7,18.8c0,0,4.8,1.6,11,1.6c1.6,0,3.1-0.1,4.5-0.3l1.4-6.6C167.1,60.8,168.2,59.9,169.6,59.9z
			 M153.5,51.3c0.3-0.3,0.7-0.3,1,0c0.3,0.3,0.3,0.7,0,1c-0.3,0.3-0.7,0.3-1,0C153.2,52,153.2,51.6,153.5,51.3z M155.1,54.7
			c-0.3,0.3-0.7,0.3-1,0c-0.3-0.3-0.3-0.7,0-1c0.3-0.3,0.7-0.3,1,0C155.4,53.9,155.4,54.4,155.1,54.7z M156.9,52.9
			c-0.3,0.3-0.7,0.3-1,0c-0.3-0.3-0.3-0.7,0-1c0.3-0.3,0.7-0.3,1,0C157.2,52.2,157.2,52.6,156.9,52.9z"/>
		<circle fill="#010101" cx="173.5" cy="73.6" r="0.7"/>
		<path fill="#010101" d="M179.4,65.4l-3.3-1.2l3.4-10.5l-2.8-1l-3.4,10.5l-3.3-1.2c-0.1,0-0.2-0.1-0.3-0.1c-0.4,0-0.7,0.3-0.8,0.7
			l-1.9,9.3c-0.1,0.3,0,0.5,0.1,0.7c1-0.8,2.3-1.6,3.9-2.2c2-0.8,4.7-0.7,6.7,0.5l2.3-4.3C180.2,66.1,179.9,65.6,179.4,65.4z"/>
		<circle fill="#010101" cx="175.6" cy="72.3" r="0.7"/>
		<circle fill="#010101" cx="175.6" cy="74.8" r="0.7"/>
	</g>
	<g>
		<path d="M21.4,14.2l1.4-2.2l0.4-0.7l1.7-2.7c-0.3-0.2-0.6-0.3-0.9-0.5l-1.7,2.6l-0.4,0.7l-1.4,2.3l-0.4,0.7l-6.7,10.8
			c0.3,0.2,0.5,0.4,0.8,0.6L21,14.9L21.4,14.2z"/>
		<circle cx="4.1" cy="23.4" r="4.1"/>
		<path d="M29.9,16c-1.7,1.4-2.8,3.6-2.8,6c0,0.7,0.1,1.4,0.3,2.1c1.6-1.8,2.6-4.2,2.6-6.8C30,16.9,30,16.5,29.9,16z"/>
		<path d="M21.5,10.1L23,7.7c-1-0.3-2.1-0.5-3.2-0.5c-0.1,0-0.3,0-0.4,0C19.9,8.3,20.6,9.3,21.5,10.1z"/>
		<path d="M26.7,12c0.6,0,1.2-0.1,1.7-0.2c-0.7-1.1-1.6-2-2.6-2.7l-1.6,2.5C25,11.9,25.8,12,26.7,12z"/>
		<path d="M16.9,12.9c0.9,0,1.8,0.1,2.6,0.4l1.6-2.5c-1.1-0.9-2-2.1-2.5-3.5c-4.9,0.6-8.7,4.6-8.9,9.6
			C11.2,14.5,13.9,12.9,16.9,12.9z"/>
		<path d="M29.8,15.1c-0.2-0.9-0.5-1.8-0.9-2.5c-0.7,0.2-1.4,0.3-2.1,0.3c-1,0-2-0.2-2.9-0.5l-1.5,2.4c2,1.6,3.3,4,3.3,6.8
			c0,1.9-0.6,3.6-1.7,5.1c1-0.5,1.9-1.1,2.8-1.8c-0.3-0.9-0.5-1.8-0.5-2.7C26.3,19.2,27.6,16.7,29.8,15.1z"/>
		<path d="M21.9,15.5l-6.8,10.9c1.4,0.8,3,1.2,4.7,1.2c0.9,0,1.7-0.1,2.6-0.3c1.5-1.4,2.4-3.4,2.4-5.6
			C24.8,19.1,23.6,16.9,21.9,15.5z"/>
		<path d="M16.9,13.7c-3.2,0-6,2-7.2,4.8c0.3,2.3,1.3,4.4,2.8,5.9L19.1,14C18.4,13.8,17.7,13.7,16.9,13.7z"/>
	</g>
	<path fill="#010101" d="M127.9,18.9c0.1-0.5,0.1-1,0.1-1.5c0-4.2-3.5-7.6-7.8-7.6c-0.2,0-0.5,0-0.7,0c-1,0.8-2.2,1.5-3.6,2.1
		c-1.2,0.6-2.4,1.1-3.5,1.4c0-0.2,0-0.4-0.1-0.5c1.1-0.3,2.2-0.8,3.4-1.4c0.9-0.5,1.8-0.9,2.5-1.4c1-0.7,1.9-1.4,2.6-2.1
		c1.1-1.2,1.6-2.2,1.3-2.8c-0.2-0.5-0.9-0.7-2-0.7c-1.8,0-4.4,0.8-7,2c-2.1,1-3.7,2.2-4.8,3.2c-1.4-0.2-3,0.1-4.5,0.9
		c-3.2,1.7-4.8,5-3.5,7.4c1,1.8,3.3,2.6,5.8,2.1l0.1,0.1c-1.3,2.1-1.3,4.8-1.3,4.8h3.2h2.7c0-2.8,4-3.2,4.2-3.2l0,0.3l0,0.3
		c0,0-0.2,0-0.5,0.1c-0.9,0.2-3.1,0.8-3.2,2.4c0,0.1,0,0.1,0,0.2h2.2h6.9l0,0c2.2-0.1,4.1-1,5.5-2.5c0.4,0.5,1,0.8,1.7,0.8
		c1.2,0,2.3-1,2.3-2.3C130,20,129.1,19,127.9,18.9z M104.4,14.8c-0.5,0-0.9-0.4-0.9-0.9c0-0.5,0.4-0.9,0.9-0.9
		c0.5,0,0.9,0.4,0.9,0.9C105.3,14.4,104.9,14.8,104.4,14.8z"/>
	<path fill="#010101" d="M232,72.3l-9.4-9.4c1.2-1.8,1.9-4,1.9-6.2c0-3-1.2-5.8-3.3-7.9c-2.1-2.1-4.9-3.3-7.9-3.3
		c-3,0-5.8,1.2-7.9,3.3c-2.1,2.1-3.3,4.9-3.3,7.9s1.2,5.8,3.3,7.9c2.1,2.1,4.9,3.3,7.9,3.3c2.3,0,4.4-0.7,6.3-1.9l9.4,9.4
		c0.3,0.3,0.9,0.2,1.3-0.2l1.6-1.6C232.3,73.2,232.3,72.6,232,72.3z M213.4,64.8c-4.5,0-8.1-3.7-8.1-8.1s3.6-8.1,8.1-8.1
		s8.1,3.7,8.1,8.1S217.9,64.8,213.4,64.8z"/>
	<g id="Your_Icon">
		<path fill="#010101" d="M232.2,92.1h-24.3l-1.1-3.5h-4.7l0.6,1.7h2.8l5.5,17.2c-1.2,0.2-2.1,1.3-2.1,2.5c0,1.4,1.2,2.6,2.6,2.6
			c1.4,0,2.6-1.1,2.6-2.6c0-0.3-0.1-0.6-0.2-0.9h7.2c-0.1,0.3-0.2,0.6-0.2,0.9c0,1.4,1.2,2.6,2.6,2.6c1.4,0,2.6-1.1,2.6-2.6
			c0-1.4-1.1-2.5-2.4-2.6c0,0-0.2,0-0.2,0l-10.7,0l-1.1-3.4h13.5L232.2,92.1z"/>
	</g>
	<path fill="#010101" d="M126,105.4c-0.2-0.1-0.4-0.2-0.6-0.3l-0.1,0c0,0-1-0.5-1.1-4.4c-0.1-3.9,0.9-4.5,0.9-4.5l0.1-0.1
		c1-0.5,1.8-1.3,2.3-2.3c1.4-2.7,0.4-6-2.3-7.4c-2.7-1.4-6-0.4-7.4,2.3c-0.6,1.1-0.7,2.3-0.6,3.4l0,0c0,0,0.3,1.3-3.1,3.4
		c-3.3,2.1-4.9,1.1-4.9,1.1l-0.2-0.1c-2.7-1.4-6-0.4-7.4,2.3c-1.4,2.7-0.4,6,2.3,7.4c2,1.1,4.3,0.8,6-0.6l0,0c0,0,1.1-0.9,4.6,1
		c2.8,1.5,3.2,2.9,3.2,3.5c-0.1,2,1,4,2.9,5c2.7,1.4,6,0.4,7.4-2.3C129.7,110.1,128.7,106.8,126,105.4z M103.3,104.2
		C103.3,104.2,103.3,104.2,103.3,104.2C103.3,104.2,103.3,104.2,103.3,104.2L103.3,104.2z M109.2,97.8c-0.7-0.6-2.4-0.5-3.9,0.4
		c0.2,0.2,0.3,0.4,0.3,0.7c0,0.6-0.5,1.2-1.1,1.2c-0.1,0-0.2,0-0.3,0c0,0,0,0-0.1,0c-0.4-0.1-0.7,0.2-0.8,0.3c-0.8,1.5-0.8,3,0,3.7
		c-1.5-1.5-1.5-4,0.1-5.8C105,96.6,107.6,96.4,109.2,97.8L109.2,97.8z M119.4,88.1c1.6-1.8,4.2-2,5.8-0.6l0,0
		c-0.7-0.6-2.4-0.5-3.9,0.4c0.2,0.2,0.3,0.4,0.3,0.7c0,0.6-0.5,1.2-1.1,1.2c-0.1,0-0.2,0-0.3,0c0,0,0,0-0.1,0
		c-0.4-0.1-0.7,0.2-0.8,0.3c-0.8,1.5-0.8,3,0,3.7C117.8,92.4,117.8,89.8,119.4,88.1z M115.4,105c-2.9-1.5-3.3-2.8-3.4-3.2
		c0-0.5,0-0.9-0.1-1.4l0,0c0,0-0.2-1.3,3.1-3.3c3-1.8,4.3-1.5,4.5-1.4c0.2,0.1,0.3,0.2,0.5,0.3c0.3,0.2,0.7,0.3,1,0.4
		c0.4,0.4,1.2,1.5,1.2,4.4c0.1,2.9-0.8,4-1.2,4.4c-0.5,0.2-0.9,0.5-1.3,0.9C119.4,106.2,118.1,106.4,115.4,105z M120.3,112.9
		C120.3,112.9,120.3,112.9,120.3,112.9C120.3,112.9,120.3,112.9,120.3,112.9L120.3,112.9z M126.1,106.5c-0.7-0.6-2.4-0.5-3.9,0.4
		c0.2,0.2,0.3,0.4,0.3,0.7c0,0.6-0.5,1.2-1.1,1.2c-0.1,0-0.2,0-0.3,0c0,0,0,0-0.1,0c-0.4-0.1-0.7,0.2-0.8,0.3c-0.8,1.5-0.8,3,0,3.7
		c-1.5-1.5-1.5-4,0.1-5.8C122,105.4,124.6,105.1,126.1,106.5L126.1,106.5z"/>
	<path fill="#010101" d="M150,97.4C150,97.5,150,97.5,150,97.4L150,97.4C150,97.4,150,97.4,150,97.4z"/>
	<g>
		<ellipse fill="#010101" cx="159" cy="96.9" rx="1" ry="1"/>
		<path fill="#010101" d="M170.5,102c0.6-0.1,0.9-0.7,0.8-1.2c-0.1-0.6-0.7-0.9-1.3-0.8c-0.6,0.1-0.9,0.7-0.8,1.2
			C169.4,101.8,170,102.2,170.5,102z"/>
		<path fill="#010101" d="M177.1,109.6c-1.4,0-3-1.5-4.8-3.2c-0.2-0.2-0.4-0.4-0.6-0.5l-0.6-2.5c-0.1-0.6-0.7-1-1.3-0.8
			c-0.5,0.1-0.8,0.5-0.9,1c-1.7-1.3-3.7-2.2-6-2.2v-9.9l-6.7-3.7l-6.2,3.7v9.9v3.3v9.1h1.3V112h4.2v1.7h1.3V112h5v1.7h1.3v-9.1v-0.8
			c2.9,0,5.4,2.2,7.7,4.4c2.1,2,4.1,3.8,6.5,3.8h0.4v1.7h1.2V112h1.2v-2.5H177.1z M155.4,111.2h-4.2v-1.7h4.2L155.4,111.2
			L155.4,111.2z M155.4,108.7h-4.2v-1.7h4.2L155.4,108.7L155.4,108.7z M155.4,106.3h-4.2v-1.7h4.2L155.4,106.3L155.4,106.3z
			 M161.7,101.3h-1.3l-0.5-2.1c-0.1-0.6-0.7-1-1.3-0.8c-0.6,0.1-1,0.7-0.8,1.3l0.4,1.6h-6.8v-9.1h10.4L161.7,101.3L161.7,101.3z"/>
	</g>
	<g>
		<path fill="#585D5C" d="M74.6,105c-3,0-5.4,2.4-5.4,5.3c0,2.9,2.4,5.3,5.4,5.3c3,0,5.4-2.4,5.4-5.3C80,107.4,77.6,105,74.6,105z
			 M74.6,112.9c-1.4,0-2.6-1.1-2.6-2.5c0-1.4,1.2-2.5,2.6-2.5c1.4,0,2.6,1.1,2.6,2.5C77.1,111.7,76,112.9,74.6,112.9z"/>
		<path fill="#585D5C" d="M64.3,101.1c1.2,0,2.3-0.1,3.4-0.4l1.9,4.3c0.9-0.9,2.1-1.5,3.4-1.7l-1.8-4c4.3-2.4,7.3-7,7.3-12.2
			c0-0.8,0-1.4,0-1.4H50c0,0,0,0.6,0,1.4c0,5.3,2.9,9.8,7.3,12.2L50,115.7h4.1l1.6-3.5h11.8c-0.2-0.6-0.2-1.2-0.2-1.9
			c0-0.7,0.1-1.3,0.3-1.9H57.4l3.4-7.7C61.9,101,63.1,101.1,64.3,101.1z M52.9,88.5h4.2c0.4,4.3,2.5,7.9,5.5,9.7
			C57.6,97.5,53.6,93.5,52.9,88.5z"/>
	</g>
	<path fill="#585D5C" d="M27.5,102.1c0-0.1,0-0.1,0-0.2c0-2-1.5-3.6-3.4-3.7c-0.3-0.3-0.6-0.5-0.9-0.8v-1.1c0.2,0,0.3,0,0.4,0
		c0.1,0,0.3,0,0.4,0c0.5,0,0.9-0.1,1.3-0.4c0.4,0.2,0.8,0.4,1.3,0.4c1.5,0,2.6-1.2,2.6-2.6c0-1.1-0.7-2.1-1.8-2.5c0-0.1,0-0.1,0-0.2
		c0-1.4-1.1-2.5-2.4-2.6c-0.5-0.5-1.2-0.9-2-0.9c-0.9,0-1.8,0.5-2.2,1.2c-0.4-0.2-0.8-0.4-1.3-0.4c-1.5,0-2.6,1.2-2.6,2.6
		c0,0,0,0.1,0,0.1c-1.1,0.3-2,1.3-2,2.6c0,1.5,1.2,2.7,2.7,2.7c0.6,0,1.1-0.2,1.5-0.5c0,0,0,0,0,0c0.4,0.2,0.8,0.4,1.3,0.4
		c0.3,0,0.6-0.1,0.9-0.2v0.7c0,0-0.1,0-0.1,0c-1.3,0-2.5,0.7-3.2,1.7c-0.4-0.2-0.8-0.4-1.2-0.4c-0.2-1-1-1.8-1.9-2.1
		c0-0.1,0-0.1,0-0.2c0-1.5-1.2-2.8-2.7-2.9c-0.5-0.6-1.3-1-2.2-1c-1.1,0-2,0.6-2.5,1.4c-0.4-0.2-0.9-0.4-1.4-0.4c-1.6,0-3,1.3-3,3
		c0,0.1,0,0.1,0,0.2C2,96.4,1,97.5,1,98.9c0,1.6,1.3,3,3,3c0.6,0,1.2-0.2,1.7-0.5c0,0,0,0,0,0c0.4,0.3,0.9,0.4,1.5,0.4
		c0.3,0,0.7-0.1,1-0.2v3.3c-1.1-1.3-1.6-2.4-1.6-2.4h0c0,0-1.1,2.5-3.9,4.4c0,0,1.1,0.8,1.9,0.9c0,0-1.3,2.2-4.6,3.1
		c0,0,2.5,2.1,5.5,2v2.6H7h0.6v-2.6c3.1,0.1,5.5-2,5.5-2c-3.3-0.9-4.6-3.1-4.6-3.1c0.5-0.1,1.1-0.4,1.5-0.7c0.6,1.3,1.9,2.2,3.5,2.2
		c0.8,0,1.5-0.2,2.1-0.7c0,0,0,0,0,0c0.6,0.3,1.2,0.5,1.9,0.5c0.4,0,0.9-0.1,1.2-0.2v6.5h2.5v-6.2c0.2,0,0.4,0,0.6-0.1
		c0.2,0,0.4,0.1,0.6,0.1c0.7,0,1.3-0.2,1.9-0.5c0.6,0.3,1.2,0.5,1.9,0.5c2.1,0,3.7-1.7,3.7-3.7C30,103.9,28.9,102.6,27.5,102.1z
		 M10.1,104v-2.2c0.2,0,0.3,0,0.5,0c0.2,0,0.3,0,0.5,0c0.5,0,1-0.2,1.5-0.4c0,0.1,0,0.3,0,0.5c0,0.1,0,0.1,0,0.2
		C11.5,102.3,10.6,103,10.1,104z"/>
	<path fill="#585D5C" d="M-40.4,101.6c-1.4,0-2.3,1.1-2.6,2.6l-0.4,2.4l-6.6,6.6h6l1,2.4l1.1-2.7c2.3-0.7,4-2.9,4-5.5v-2l1.9-0.9
		l-1.9-0.9C-38.1,102.5-39.2,101.6-40.4,101.6z M-39.9,104.8c-0.3,0-0.6-0.3-0.6-0.6s0.3-0.6,0.6-0.6s0.6,0.3,0.6,0.6
		S-39.6,104.8-39.9,104.8z"/>
	<path fill="#585D5C" d="M-30,110.4c-0.6-0.6-1.4-0.9-2.2-0.9l0,0l-3,0l0,3l0,0c0,0.8,0.3,1.6,0.9,2.2c0,0,0,0,0,0
		c1.2,1.2,3.1,1.2,4.3,0c0.6-0.6,0.9-1.4,0.9-2.1C-29.1,111.8-29.4,111-30,110.4C-30,110.4-30,110.4-30,110.4z"/>
	<path fill="#585D5C" d="M-26.1,107c1.7,0,3-1.3,3-3c1.7,0,3-1.3,3-3c0-0.9-0.4-1.6-1-2.2c0.6-0.5,1-1.3,1-2.2c0-1.7-1.3-3-3-3
		c0-1.7-1.3-3-3-3c-0.9,0-1.6,0.4-2.2,1c-0.5-0.6-1.3-1-2.2-1c-1.7,0-3,1.3-3,3c-1.7,0-3,1.3-3,3c0,0.9,0.4,1.6,1,2.2
		c-0.6,0.5-1,1.3-1,2.2c0,1.7,1.3,3,3,3c0,1.7,1.3,3,3,3c0.5,0,1-0.1,1.4-0.3v5.9v3h1.6v-3c0,0.8,0.3,1.5,0.9,2.1
		c1.2,1.2,3.1,1.2,4.3,0c0,0,0,0,0,0c0.6-0.6,0.9-1.4,0.9-2.2l0,0l0-3l-3,0l0,0c-0.8,0-1.6,0.3-2.2,0.9c0,0,0,0,0,0
		c-0.6,0.6-0.9,1.4-0.9,2.1v-5.9C-27.1,106.9-26.6,107-26.1,107z M-28.3,104c-2.9,0-5.2-2.3-5.2-5.2c0-2.9,2.3-5.2,5.2-5.2
		c2.9,0,5.2,2.3,5.2,5.2C-23.1,101.7-25.4,104-28.3,104z"/>
	<path fill="#585D5C" d="M-47,146.3c0.6,0,1.2-0.2,1.7-0.5c0,0,0,0,0,0c0.4,0.3,0.9,0.4,1.5,0.4c0.3,0,0.7-0.1,1-0.2v5.1h2v-4.9
		c0.2,0,0.3,0,0.5,0c0.2,0,0.3,0,0.5,0c0.5,0,1-0.2,1.5-0.4c0.4,0.3,0.9,0.4,1.5,0.4c1.6,0,3-1.3,3-3c0-1.3-0.8-2.4-2-2.8
		c0-0.1,0-0.1,0-0.2c0-1.5-1.2-2.8-2.7-2.9c-0.5-0.6-1.3-1-2.2-1c-1.1,0-2,0.6-2.5,1.4c-0.4-0.2-0.9-0.4-1.4-0.4c-1.6,0-3,1.3-3,3
		c0,0.1,0,0.1,0,0.2c-1.3,0.3-2.2,1.5-2.2,2.9C-50,144.9-48.7,146.3-47,146.3z"/>
	<rect x="-21.7" y="163.4" fill="none" width="3.3" height="3.3"/>
	<path fill="#585D5C" d="M-35,144.5L-35,144.5c7.7,4.9-14.3,4.6-15,12.1h19.7C-42.8,153.7-25.3,146.6-35,144.5z"/>
	<g>
		<path fill="#585D5C" d="M-25,138.6c0,0-0.2,0-0.2-0.4c0-0.4-0.4-0.8-0.8-0.8c-0.5,0-0.8,0.4-0.8,0.8c0,0.4-0.2,0.4-0.2,0.4
			c-0.1,0-0.2,0.1-0.2,0.2c0,0.1,0.1,0.2,0.2,0.2h2.1c0.1,0,0.2-0.1,0.2-0.2C-24.8,138.7-24.8,138.6-25,138.6z"/>
		<circle fill="#585D5C" cx="-26" cy="139.7" r="0.4"/>
		<circle fill="#585D5C" cx="-26" cy="134" r="0.6"/>
		<path fill="#585D5C" d="M-22.2,144.2l-1.3-3.8v-3.3c0.2,0,0.4-0.2,0.4-0.4s-0.2-0.4-0.4-0.4h-0.8c0-0.9-0.7-1.7-1.7-1.7
			c-0.9,0-1.7,0.7-1.7,1.7h-0.8c-0.2,0-0.4,0.2-0.4,0.4s0.2,0.4,0.4,0.4v3.3l-1.3,3.8h-2.1v1.3h0.8v2.5v3.3v2.8h10v-2.8V148v-2.5
			h0.8v-1.3H-22.2z M-27.7,137.1h3.3v3.3h-3.3V137.1z M-26.8,151.3L-26.8,151.3l0,1.2h-2.5v-1.2V148v0c0-0.7,0.6-1.3,1.3-1.3
			c0.7,0,1.3,0.6,1.3,1.3v0V151.3z M-22.7,151.3L-22.7,151.3l0,1.2h-2.5v-1.2V148v0c0-0.7,0.6-1.3,1.3-1.3c0.7,0,1.3,0.6,1.3,1.3v0
			V151.3z"/>
	</g>
	<path fill="#585D5C" d="M-32.7,131.9c0.8-0.2,1.9-0.9,1.9-0.9c-2.8-1.9-3.9-4.4-3.9-4.4h0c0,0-1.1,2.5-3.9,4.4c0,0,1.1,0.8,1.9,0.9
		c0,0-1.3,2.2-4.6,3.1c0,0,2.5,2.1,5.5,2v2.6h1.5h0.6v-2.6c3.1,0.1,5.5-2,5.5-2C-31.3,134.1-32.7,131.9-32.7,131.9z"/>
	<g>
		<path fill="#585D5C" d="M-32.5,171.5c0,0-0.3,0-0.3-0.6c0-0.6-0.5-1.2-1.2-1.2c-0.7,0-1.2,0.5-1.2,1.2c0,0.6-0.3,0.6-0.3,0.6
			c-0.2,0-0.3,0.1-0.3,0.3c0,0.2,0.1,0.3,0.3,0.3h3c0.2,0,0.3-0.1,0.3-0.3C-32.2,171.6-32.3,171.5-32.5,171.5z"/>
		<circle fill="#585D5C" cx="-34" cy="173" r="0.6"/>
		<circle fill="#585D5C" cx="-34" cy="164.8" r="0.9"/>
		<path fill="#585D5C" d="M-28.6,179.4l-1.8-5.4v-4.8c0.3,0,0.6-0.3,0.6-0.6s-0.3-0.6-0.6-0.6h-1.2c0-1.3-1.1-2.4-2.4-2.4
			c-1.3,0-2.4,1.1-2.4,2.4h-1.2c-0.3,0-0.6,0.3-0.6,0.6s0.3,0.6,0.6,0.6v4.8l-1.8,5.4h-3v1.8h1.2v3.6v4.7v4h14.3v-4v-4.7v-3.6h1.2
			v-1.8H-28.6z M-36.4,169.2h4.8v4.8h-4.8V169.2z M-35.2,189.6L-35.2,189.6l0,1.8h-3.6v-1.8v-4.7v-0.1c0-1,0.8-1.8,1.8-1.8
			c1,0,1.8,0.8,1.8,1.8v0.1V189.6z M-29.2,189.6L-29.2,189.6l0,1.8h-3.6v-1.8v-4.7v-0.1c0-1,0.8-1.8,1.8-1.8c1,0,1.8,0.8,1.8,1.8
			v0.1V189.6z"/>
	</g>
	<g>
		<path fill="#585D5C" d="M25.4,144.5L25.4,144.5c7.7,4.9-14.3,4.6-15,12.1h19.7C17.7,153.7,35.1,146.6,25.4,144.5z"/>
		<path fill="#585D5C" d="M11.6,150.5v-6.2c0.2,0,0.4,0,0.6-0.1c0.2,0,0.4,0.1,0.6,0.1c0.7,0,1.3-0.2,1.9-0.5
			c0.6,0.3,1.2,0.5,1.9,0.5c2.1,0,3.7-1.7,3.7-3.7c0-1.6-1.1-3-2.5-3.5c0-0.1,0-0.1,0-0.2c0-0.5-0.1-0.9-0.2-1.3
			c0.9,0.6,2.8,1.6,5,1.6v2.6H24h0.6v-2.6c3.1,0.1,5.5-2,5.5-2c-3.3-0.9-4.6-3.1-4.6-3.1c0.8-0.2,1.9-0.9,1.9-0.9
			c-2.8-1.9-3.9-4.4-3.9-4.4h0c0,0-1.1,2.5-3.9,4.4c0,0,1.1,0.8,1.9,0.9c0,0-1.2,2-4.3,3c-0.6-1-1.7-1.8-2.9-1.9
			c-0.7-0.8-1.7-1.3-2.8-1.3c-1.3,0-2.5,0.7-3.2,1.7c-0.5-0.3-1.2-0.5-1.8-0.5c-2.1,0-3.7,1.7-3.7,3.7c0,0.1,0,0.1,0,0.2
			c-1.6,0.4-2.8,1.9-2.8,3.7c0,2.1,1.7,3.8,3.8,3.8c0.8,0,1.5-0.2,2.1-0.7c0,0,0,0,0,0c0.6,0.3,1.2,0.5,1.9,0.5
			c0.4,0,0.9-0.1,1.2-0.2v6.5H11.6z"/>
	</g>
	<path fill="#585D5C" d="M26.5,180.1c0-0.1,0-0.1,0-0.2c0-2-1.5-3.6-3.4-3.7c-0.7-0.8-1.7-1.3-2.8-1.3c-1.3,0-2.5,0.7-3.2,1.7
		c-0.5-0.3-1-0.4-1.5-0.5c0.1-0.3,0.2-0.7,0.2-1.1c0-1.1-0.7-2.1-1.8-2.5c0-0.1,0-0.1,0-0.2c0-1.4-1.1-2.5-2.4-2.6
		c-0.5-0.5-1.2-0.9-2-0.9c-0.9,0-1.8,0.5-2.2,1.2c-0.4-0.2-0.8-0.4-1.3-0.4c-1.5,0-2.6,1.2-2.6,2.6c0,0,0,0.1,0,0.1
		c-1.1,0.3-2,1.3-2,2.6c0,1.5,1.2,2.7,2.7,2.7c0.6,0,1.1-0.2,1.5-0.5c0,0,0,0,0,0c0.4,0.2,0.8,0.4,1.3,0.4c0.3,0,0.6-0.1,0.9-0.2
		v1.7c-0.5,0.2-1,0.6-1.3,1.1c-0.4-0.2-0.9-0.4-1.4-0.4c-1.6,0-3,1.3-3,3c0,0.1,0,0.1,0,0.2C1,183.4,0,184.6,0,186c0,1.6,1.3,3,3,3
		c0.6,0,1.2-0.2,1.7-0.5c0,0,0,0,0,0c0.4,0.3,0.9,0.4,1.5,0.4c0.3,0,0.7-0.1,1-0.2v5.1h2v-4.9c0.2,0,0.3,0,0.5,0c0.2,0,0.3,0,0.5,0
		c0.5,0,1-0.2,1.5-0.4c0.4,0.3,0.9,0.4,1.5,0.4c1.1,0,2.1-0.6,2.6-1.5c0.3,0.1,0.6,0.1,0.9,0.1c0.4,0,0.9-0.1,1.2-0.2v6.5h2.5v-6.2
		c0.2,0,0.4,0,0.6-0.1c0.2,0,0.4,0.1,0.6,0.1c0.7,0,1.3-0.2,1.9-0.5c0.6,0.3,1.2,0.5,1.9,0.5c2.1,0,3.7-1.7,3.7-3.7
		C29,182,27.9,180.6,26.5,180.1z M10.1,177.7c0.1,0,0.3,0,0.4,0c0.5,0,0.9-0.1,1.3-0.4c0.1,0.1,0.3,0.1,0.5,0.2
		c-0.5,0.6-0.8,1.4-0.8,2.3c0,0,0,0.1,0,0.1c-0.1,0-0.1,0-0.2,0c-0.4-0.5-1-0.8-1.6-0.9v-1.3C9.8,177.8,10,177.7,10.1,177.7z"/>
	<g>
		<path fill="#010101" d="M50,14.5v0.3C50,14.7,50,14.6,50,14.5L50,14.5z"/>
		<path fill="#010101" d="M50,15.5L50,15.5c0-0.1,0-0.2,0-0.3V15.5z"/>
		<path fill="#010101" d="M68.5,14.5H80C79.8,10,77.7,6,74.4,3.3C70.9,5.9,68.6,9.9,68.5,14.5z"/>
		<path fill="#010101" d="M74.4,26.7C77.7,24,79.8,20,80,15.5H68.5C68.7,20.1,71,24.1,74.4,26.7z"/>
		<path fill="#010101" d="M73.5,2.7c-2.3-1.6-5-2.6-8-2.7v14.5h2C67.6,9.7,70,5.5,73.5,2.7z"/>
		<path fill="#010101" d="M67.5,15.5h-2V30c3-0.1,5.8-1.1,8.1-2.7C70,24.6,67.7,20.3,67.5,15.5z"/>
		<path fill="#010101" d="M61.3,15.5H50c0.2,4.5,2.3,8.4,5.5,11.1C58.9,24.1,61.1,20.1,61.3,15.5z"/>
		<path fill="#010101" d="M55.5,3.4c-3.2,2.7-5.4,6.6-5.5,11.1h11.3C61.1,10,58.9,6,55.5,3.4z"/>
		<path fill="#010101" d="M56.3,27.2c2.3,1.7,5.2,2.7,8.2,2.8V15.5h-2.2C62.1,20.3,59.8,24.5,56.3,27.2z"/>
		<path fill="#010101" d="M62.3,14.5h2.2V0c-3,0.1-5.9,1.1-8.2,2.7C59.8,5.5,62.1,9.8,62.3,14.5z"/>
	</g>
</g>
</svg>
