<?xml version="1.0" encoding="utf-8"?>
<!-- Generator: Adobe Illustrator 18.0.0, SVG Export Plug-In . SVG Version: 6.00 Build 0)  -->
<!DOCTYPE svg PUBLIC "-//W3C//DTD SVG 1.0//EN" "http://www.w3.org/TR/2001/REC-SVG-20010904/DTD/svg10.dtd">
<svg version="1.0" xmlns="http://www.w3.org/2000/svg" xmlns:xlink="http://www.w3.org/1999/xlink" x="0px" y="0px"
	 viewBox="0 0 30 30" enable-background="new 0 0 30 30" xml:space="preserve">
<g id="Layer_1">
	<path fill-rule="evenodd" clip-rule="evenodd" d="M-235-240.3c-8.3,0-15,6.7-15,15c0,8.3,6.7,15,15,15s15-6.7,15-15
		C-220-233.6-226.7-240.3-235-240.3z M-236.9-214.1v-9.4h-9.4l18.7-9.4L-236.9-214.1z"/>
</g>
<g id="Layer_2">
	<path fill-rule="evenodd" clip-rule="evenodd" d="M-27.8-190.4h-15c-2.1,0-3.7,1.7-3.7,3.8v22.5c0,2.1,1.7,3.7,3.7,3.7h15
		c2.1,0,3.7-1.7,3.7-3.7v-22.5C-24-188.7-25.7-190.4-27.8-190.4z M-25.5-164.1c0,1.2-1,2.2-2.2,2.2h-15c-1.2,0-2.2-1-2.2-2.2v-22.5
		c0-1.2,1-2.2,2.2-2.2h15c1.2,0,2.2,1,2.2,2.2V-164.1z"/>
	<path fill-rule="evenodd" clip-rule="evenodd" d="M-176.6-227.2c3.6,0,6.6,3,6.6,6.7c0,3.7-2.9,6.7-6.6,6.7c-3.6,0-6.6-3-6.6-6.7
		c0-2.3,1.2-4.4,2.9-5.6l-0.4-0.7l-1.1-2.1l-0.1-0.3h-6.8c-0.8,0-1.5,0.5-1.7,1.3l-0.4,1.2c2.3,1.1,3.9,3.4,3.9,6.1
		c0,3.7-2.9,6.7-6.6,6.7s-6.6-3-6.6-6.7c0-3.7,2.9-6.7,6.6-6.7c0.3,0,0.6,0.1,0.9,0.1l1-3.3c0.1-0.4,0.5-0.7,0.9-0.7h9.9l1.7-3.8
		h-3.2c-0.5,0-0.9-0.4-0.9-1c0-0.5,0.4-1,0.9-1h4.1h0.6c0.3,0,0.6,0.2,0.8,0.4c0.2,0.3,0.2,0.6,0.1,0.9l-0.3,0.6l-2.7,5.9l1.1,2.1
		C-177.9-227.1-177.2-227.2-176.6-227.2z M-191.3-224.8l-1,3c-0.1,0.2-0.2,0.4-0.5,0.6c-0.2,0.1-0.5,0.1-0.7,0.1
		c-0.5-0.2-0.8-0.7-0.6-1.2l0.9-2.9c-0.1,0-0.2,0-0.3,0c-2.6,0-4.7,2.1-4.7,4.8c0,2.6,2.1,4.8,4.7,4.8c2.6,0,4.7-2.1,4.7-4.8
		C-188.7-222.4-189.8-224-191.3-224.8z M-181.3-220.5c0,2.6,2.1,4.8,4.7,4.8c2.6,0,4.7-2.1,4.7-4.8c0-2.6-2.1-4.8-4.7-4.8
		c-0.3,0-0.7,0-1,0.1l2.3,4.3c0.1,0.2,0.1,0.5,0.1,0.7c-0.1,0.2-0.2,0.5-0.5,0.6l0,0c-0.5,0.2-1,0.1-1.2-0.4l-2.4-4.5
		C-180.5-223.6-181.3-222.1-181.3-220.5z M-190.6-233h-2.8c-0.5,0-0.9-0.4-0.9-1c0-0.5,0.4-1,0.9-1h5.6c0.2,0,0.3,0.1,0.3,0.2
		c0.1,0.1,0,0.3-0.1,0.4C-188.4-233.5-189.2-233-190.6-233z"/>
	<path fill-rule="evenodd" clip-rule="evenodd" d="M-120.9-226.3h-0.9v-5.6h0.9c0.5,0,0.9,0.4,0.9,0.9v3.7
		C-120-226.7-120.4-226.3-120.9-226.3z M-125.6-215.1v1.9c0,1-0.8,1.9-1.9,1.9h-1.9c-1,0-1.9-0.8-1.9-1.9v-1.9h-7.5v1.9
		c0,1-0.8,1.9-1.9,1.9h-1.9c-1,0-1.9-0.8-1.9-1.9v-1.9c-1,0-1.9-0.8-1.9-1.9v-16.8c0-3.1,2.5-5.6,5.6-5.6h11.2
		c3.1,0,5.6,2.5,5.6,5.6v16.8C-123.8-215.9-124.6-215.1-125.6-215.1z M-142.5-216.9c1,0,1.9-0.8,1.9-1.9c0-1-0.8-1.9-1.9-1.9
		c-1,0-1.9,0.8-1.9,1.9C-144.4-217.8-143.5-216.9-142.5-216.9z M-131.3-237.5h-7.5v1.9h7.5V-237.5z M-125.6-233.7h-18.7v11.2h18.7
		V-233.7z M-127.5-220.7c-1,0-1.9,0.8-1.9,1.9c0,1,0.8,1.9,1.9,1.9c1,0,1.9-0.8,1.9-1.9C-125.6-219.8-126.5-220.7-127.5-220.7z
		 M-150-227.2v-3.7c0-0.5,0.4-0.9,0.9-0.9h0.9v5.6h-0.9C-149.6-226.3-150-226.7-150-227.2z"/>
	<path fill-rule="evenodd" clip-rule="evenodd" d="M-75.6-223.5c0,2-1.7,3.7-3.7,3.7h-11.2c-2.1,0-3.7-1.6-3.7-3.7v-12.8h18.7v1.8
		c3.1,0,5.6,2.5,5.6,5.5C-70-226-72.5-223.5-75.6-223.5z M-90.6-234.5h-1.9v11c0,1,0.8,1.8,1.9,1.8V-234.5z M-75.6-232.7v7.3
		c2.1,0,3.7-1.6,3.7-3.7C-71.9-231-73.6-232.7-75.6-232.7z M-70-216.2c0,1-0.8,1.8-1.9,1.8h-26.2c-1,0-1.9-0.8-1.9-1.8
		c0-1,0.8-1.8,1.9-1.8h26.2C-70.8-218-70-217.2-70-216.2z"/>
	<g>
		<polygon fill-rule="evenodd" clip-rule="evenodd" points="-22,-234.8 -22,-212.8 -48,-212.8 -48,-210.8 -20,-210.8 -20,-211.8 
			-20,-212.8 -20,-234.8 		"/>
		<path fill-rule="evenodd" clip-rule="evenodd" d="M-24-236.8h-3c0,1.7-1.3,3-3,3c-1.7,0-3-1.3-3-3h-7c0,1.7-1.3,3-3,3
			c-1.7,0-3-1.3-3-3h-4v22h26V-236.8z M-26-216.8h-22v-15h22V-216.8z"/>
		<path fill-rule="evenodd" clip-rule="evenodd" d="M-43-235.8c0.6,0,1-0.4,1-1v-2c0-0.6-0.4-1-1-1s-1,0.4-1,1v2
			C-44-236.3-43.6-235.8-43-235.8z"/>
		<path fill-rule="evenodd" clip-rule="evenodd" d="M-30-235.8c0.6,0,1-0.4,1-1v-2c0-0.6-0.4-1-1-1s-1,0.4-1,1v2
			C-31-236.3-30.6-235.8-30-235.8z"/>
		<rect x="-44" y="-228.8" fill-rule="evenodd" clip-rule="evenodd" width="3" height="3"/>
		<rect x="-38" y="-228.8" fill-rule="evenodd" clip-rule="evenodd" width="3" height="3"/>
		<rect x="-33" y="-228.8" fill-rule="evenodd" clip-rule="evenodd" width="3" height="3"/>
		<rect x="-44" y="-223.8" fill-rule="evenodd" clip-rule="evenodd" width="3" height="3"/>
		<rect x="-38" y="-223.8" fill-rule="evenodd" clip-rule="evenodd" width="3" height="3"/>
		<rect x="-33" y="-223.8" fill-rule="evenodd" clip-rule="evenodd" width="3" height="3"/>
	</g>
	<g>
		<path fill-rule="evenodd" clip-rule="evenodd" d="M7-236.3c0.6,0,1-0.4,1-1v-2c0-0.6-0.4-1-1-1s-1,0.4-1,1v2
			C6-236.8,6.4-236.3,7-236.3z"/>
		<path fill-rule="evenodd" clip-rule="evenodd" d="M20-236.3c0.6,0,1-0.4,1-1v-2c0-0.6-0.4-1-1-1s-1,0.4-1,1v2
			C19-236.8,19.4-236.3,20-236.3z"/>
		<rect x="6" y="-229.3" fill-rule="evenodd" clip-rule="evenodd" width="3" height="3"/>
		<rect x="12" y="-229.3" fill-rule="evenodd" clip-rule="evenodd" width="3" height="3"/>
		<rect x="17" y="-229.3" fill-rule="evenodd" clip-rule="evenodd" width="3" height="3"/>
		<rect x="6" y="-224.3" fill-rule="evenodd" clip-rule="evenodd" width="3" height="3"/>
		<rect x="12" y="-224.3" fill-rule="evenodd" clip-rule="evenodd" width="3" height="3"/>
		<rect x="2" y="-213.3" fill-rule="evenodd" clip-rule="evenodd" width="17" height="2"/>
		<rect x="28" y="-235.3" fill-rule="evenodd" clip-rule="evenodd" width="2" height="13"/>
		<path fill-rule="evenodd" clip-rule="evenodd" d="M2-232.3h22v10h2v-15h-3c0,1.7-1.3,3-3,3s-3-1.3-3-3h-7c0,1.7-1.3,3-3,3
			s-3-1.3-3-3H0v22h19v-2H2V-232.3z"/>
		<path fill-rule="evenodd" clip-rule="evenodd" d="M25-221.3c-2.8,0-5,2.2-5,5c0,2.8,2.2,5,5,5s5-2.2,5-5
			C30-219.1,27.8-221.3,25-221.3z M28-215.3h-2v2h-2v-2h-2v-2h2v-2h2v2h2V-215.3z"/>
		<rect x="17" y="-224.3" fill-rule="evenodd" clip-rule="evenodd" width="3" height="3"/>
	</g>
	<g>
		
			<rect x="-228.9" y="-168.1" transform="matrix(-0.5 -0.866 0.866 -0.5 -196.687 -448.8257)" fill-rule="evenodd" clip-rule="evenodd" width="2" height="1"/>
		
			<rect x="-230.9" y="-171.6" transform="matrix(-0.5 -0.866 0.866 -0.5 -196.6698 -455.752)" fill-rule="evenodd" clip-rule="evenodd" width="2" height="1"/>
		
			<rect x="-232.9" y="-175.1" transform="matrix(-0.5 -0.866 0.866 -0.5 -196.6873 -462.6823)" fill-rule="evenodd" clip-rule="evenodd" width="2" height="1"/>
		
			<rect x="-234.4" y="-179" transform="matrix(-0.866 0.5 -0.5 -0.866 -525.4811 -215.257)" fill-rule="evenodd" clip-rule="evenodd" width="1" height="2"/>
		
			<rect x="-222.2" y="-172.6" transform="matrix(0.7072 -0.707 0.707 0.7072 56.415 -206.9583)" fill-rule="evenodd" clip-rule="evenodd" width="1" height="2"/>
		
			<rect x="-225.5" y="-174.9" transform="matrix(-0.7071 -0.7071 0.7071 -0.7071 -259.8788 -456.4902)" fill-rule="evenodd" clip-rule="evenodd" width="2" height="1"/>
		
			<rect x="-228.3" y="-177.7" transform="matrix(-0.7072 -0.7071 0.7071 -0.7072 -262.7382 -463.3146)" fill-rule="evenodd" clip-rule="evenodd" width="2" height="1"/>
		
			<rect x="-231.1" y="-180.6" transform="matrix(0.7072 0.707 -0.707 0.7072 -194.7156 109.9905)" fill-rule="evenodd" clip-rule="evenodd" width="2" height="1"/>
		
			<rect x="-234.3" y="-165.5" transform="matrix(-0.2588 -0.9659 0.9659 -0.2588 -134.3292 -433.15)" fill-rule="evenodd" clip-rule="evenodd" width="2" height="1"/>
		
			<rect x="-234.9" y="-169.9" transform="matrix(0.9659 -0.2589 0.2589 0.9659 35.7388 -66.4454)" fill-rule="evenodd" clip-rule="evenodd" width="1" height="2"/>
		
			<rect x="-235.9" y="-173.8" transform="matrix(0.9659 -0.2589 0.2589 0.9659 36.7022 -66.8409)" fill-rule="evenodd" clip-rule="evenodd" width="1" height="2"/>
		
			<rect x="-237" y="-177.6" transform="matrix(0.9659 -0.2589 0.2589 0.9659 37.6689 -67.245)" fill-rule="evenodd" clip-rule="evenodd" width="1" height="2"/>
		<rect x="-240.4" y="-164.8" fill-rule="evenodd" clip-rule="evenodd" width="1" height="2"/>
		<rect x="-240.4" y="-168.8" fill-rule="evenodd" clip-rule="evenodd" width="1" height="2"/>
		<rect x="-240.4" y="-172.8" fill-rule="evenodd" clip-rule="evenodd" width="1" height="2"/>
		<rect x="-240.4" y="-176.8" fill-rule="evenodd" clip-rule="evenodd" width="1" height="2"/>
		<path fill-rule="evenodd" clip-rule="evenodd" d="M-233-186.6l-3.1,1.8c-1.1-2.4-3.5-4-6.3-4c-3.9,0-7,3.1-7,7v20h4v-20
			c0-1.7,1.3-3,3-3c1.3,0,2.4,0.8,2.8,2l-3.8,2.2l1.5,2.6l10.4-6L-233-186.6z"/>
	</g>
	<path fill-rule="evenodd" clip-rule="evenodd" d="M-170.3-165l-9.3-9.6l9.4-9.8c0.1,0.2,0.1,0.5,0.1,0.7v17.6
		C-170-165.7-170.1-165.3-170.3-165z M-198.3-185.8l0.2,0h26.2l0.3,0.1l-13.4,13.9L-198.3-185.8z M-199.8-165.1
		c-0.1-0.3-0.2-0.6-0.2-0.9v-17.6c0-0.3,0.1-0.6,0.1-0.9l9.4,9.9L-199.8-165.1z M-185-169l4-4.1l9,9.3h-26.2l-0.1,0l9.2-9.3
		L-185-169z"/>
	<path d="M-150-190.3v30h30v-30H-150z M-129.7-169.8c0,0-6,6.5-7.9,7.3c0,0-7.2-5.9-9.4-9.5c-2.2-3.6-2.9-6.9,1.3-9.1
		c4.3-2.3,7.8,2.1,8.1,3c0,0,3.2-5.8,8.9-2.5C-122.9-177.2-129.7-169.8-129.7-169.8z M-122-184.3h-3v3h-2v-3h-3v-2h3v-3h2v3h3
		V-184.3z"/>
	<path d="M-141-180.3v11l3.5-2.6l-0.4,5.6l-1.3-0.4l1.6,3.2l2.3-2.7l-1.1,0l1.4-9.2l-4,2v-5L-141-180.3z"/>
	<path fill-rule="evenodd" clip-rule="evenodd" d="M-88-186.3h1v23h-1V-186.3z"/>
	<path fill-rule="evenodd" clip-rule="evenodd" d="M-71.4-173.4l-2.8-4.3l-1.1,2.2l3.9,6.4H-75l-0.6,5.7h-2.8l-0.6-5.7h-3.6l3.9-6.4
		l-1.1-2.2l-2.8,4.3H-84l2.3-5.9c0.3-0.8,1.1-1.3,1.9-1.3h1.4l1.4,2.9l1.4-2.9h1.4c0.8,0,1.6,0.5,1.9,1.3l2.3,5.9H-71.4z M-77-182
		c-1.2,0-2.1-1-2.1-2.2c0-1.2,0.9-2.2,2.1-2.2c1.2,0,2.1,1,2.1,2.2C-74.9-183-75.8-182-77-182z"/>
	<path fill-rule="evenodd" clip-rule="evenodd" d="M-93.9-172l-0.8,8.6h-2.7l-0.8-8.6h-1.9v-7.6c0.6-0.3,1.3-0.6,2.1-0.8l1.9,4.1
		l1.9-4.1c0.8,0.2,1.5,0.4,2.1,0.8v7.6H-93.9z M-96-182c-1.1,0-2-1-2-2.2c0-1.2,0.9-2.2,2-2.2c1.1,0,2,1,2,2.2
		C-94-183-94.9-182-96-182z"/>
	<path fill-rule="evenodd" clip-rule="evenodd" d="M27.5-170.5l-10.6-5.9c0-0.6,0.4-1.2,0.9-1.5c1.7-1,2.8-2.8,2.8-4.8
		c0-3.1-2.5-5.6-5.6-5.6s-5.6,2.5-5.6,5.6c0,1,0.8,1.9,1.9,1.9s1.9-0.8,1.9-1.9c0-1,0.8-1.9,1.9-1.9s1.9,0.8,1.9,1.9
		c0,0.7-0.4,1.3-0.9,1.6c-1.7,1-2.8,2.8-2.8,4.7l-10.7,6C1-169.6,0-167.7,0-166c0,2,1.7,3.7,3.7,3.7h22.5c2.1,0,3.7-1.7,3.7-3.7
		C30-167.7,29-169.6,27.5-170.5z M3.8-166c0-0.4,0.4-1.1,0.6-1.2l10.6-5.9l10.5,5.9c0.3,0.2,0.7,0.9,0.7,1.3H3.8z"/>
	<path fill-rule="evenodd" clip-rule="evenodd" d="M-150-117.1h30v1h-30V-117.1z"/>
	<path fill-rule="evenodd" clip-rule="evenodd" d="M-137-116.1h4c1.1,0,2-0.9,2-2h-8C-139-117-138.1-116.1-137-116.1z"/>
	<path fill-rule="evenodd" clip-rule="evenodd" d="M-127-116.1h4c1.1,0,2-0.9,2-2h-8C-129-117-128.1-116.1-127-116.1z"/>
	<path fill-rule="evenodd" clip-rule="evenodd" d="M-133-127.1h-4c-1.1,0-2,0.9-2,2v6h8v-6C-131-126.2-131.9-127.1-133-127.1z
		 M-133.5-125.3h-3.1c-0.3,0-0.5-0.2-0.5-0.5c0-0.3,0.2-0.5,0.5-0.5h3.1c0.3,0,0.5,0.2,0.5,0.5C-133-125.5-133.2-125.3-133.5-125.3z
		"/>
	<path fill-rule="evenodd" clip-rule="evenodd" d="M-123-127.1h-4c-1.1,0-2,0.9-2,2v6h8v-6C-121-126.2-121.9-127.1-123-127.1z
		 M-123.5-125.3h-3.1c-0.3,0-0.5-0.2-0.5-0.5c0-0.3,0.2-0.5,0.5-0.5h3.1c0.3,0,0.5,0.2,0.5,0.5C-123-125.5-123.2-125.3-123.5-125.3z
		"/>
	<path fill-rule="evenodd" clip-rule="evenodd" d="M-134-125.1h8v1h-8V-125.1z"/>
	<path fill-rule="evenodd" clip-rule="evenodd" d="M-150-117.1h1v3h-1V-117.1z"/>
	<path fill-rule="evenodd" clip-rule="evenodd" d="M-121-117.1h1v3h-1V-117.1z"/>
	<path fill-rule="evenodd" clip-rule="evenodd" d="M-147-116.1h4c1.1,0,2-0.9,2-2h-8C-149-117-148.1-116.1-147-116.1z"/>
	<path fill-rule="evenodd" clip-rule="evenodd" d="M-143-127.1h-4c-1.1,0-2,0.9-2,2v6h8v-6C-141-126.2-141.9-127.1-143-127.1z
		 M-143.5-125.3h-3.1c-0.3,0-0.5-0.2-0.5-0.5c0-0.3,0.2-0.5,0.5-0.5h3.1c0.3,0,0.5,0.2,0.5,0.5C-143-125.5-143.2-125.3-143.5-125.3z
		"/>
	<path fill-rule="evenodd" clip-rule="evenodd" d="M-144-125.1h8v1h-8V-125.1z"/>
	<path fill="none" d="M-138.5-132.2h-3.1c-0.3,0-0.5,0.2-0.5,0.5c0,0.3,0.2,0.5,0.5,0.5h3.1c0.3,0,0.5-0.2,0.5-0.5
		C-138-132-138.2-132.2-138.5-132.2z"/>
	<path fill="none" d="M-128-131.7c0-0.3-0.2-0.5-0.5-0.5h-3.1c-0.3,0-0.5,0.2-0.5,0.5c0,0.3,0.2,0.5,0.5,0.5h3.1
		C-128.2-131.3-128-131.5-128-131.7z"/>
	<path fill="none" d="M-138-131.7c0-0.3-0.2-0.5-0.5-0.5h-3.1c-0.3,0-0.5,0.2-0.5,0.5c0,0.3,0.2,0.5,0.5,0.5h3.1
		C-138.2-131.3-138-131.5-138-131.7z"/>
	<path d="M-127-127.6h1v-3.5c0-1.1-0.9-2-2-2h-4c-1.1,0-2,0.9-2,2v3.5h1c1.4,0,2.5,1.1,2.5,2.5v1h1v-1
		C-129.5-126.5-128.4-127.6-127-127.6z M-131.5-131.3c-0.3,0-0.5-0.2-0.5-0.5c0-0.3,0.2-0.5,0.5-0.5h3.1c0.3,0,0.5,0.2,0.5,0.5
		c0,0.3-0.2,0.5-0.5,0.5H-131.5z"/>
	<path d="M-137-127.6h1v-3.5c0-1.1-0.9-2-2-2h-4c-1.1,0-2,0.9-2,2v3.5h1c1.4,0,2.5,1.1,2.5,2.5v1h1v-1
		C-139.5-126.5-138.4-127.6-137-127.6z M-141.5-131.3c-0.3,0-0.5-0.2-0.5-0.5c0-0.3,0.2-0.5,0.5-0.5h3.1c0.3,0,0.5,0.2,0.5,0.5
		c0,0.3-0.2,0.5-0.5,0.5H-141.5z"/>
	<g>
		<path d="M-229.9-116.4c-0.5-0.3-1.2-0.2-1.5,0.4c-1.4,2.2-3.7,3.5-6.3,3.5c-4.1,0-7.4-3.4-7.4-7.5c0-2.4,1.2-4.7,3.1-6.1
			c0.5-0.4,0.6-1,0.2-1.5c-0.4-0.5-1-0.6-1.5-0.3c-2.5,1.8-4,4.8-4,7.9c0,5.3,4.3,9.7,9.6,9.7c3.3,0,6.4-1.7,8.1-4.6
			C-229.2-115.4-229.3-116.1-229.9-116.4z"/>
		<path d="M-222.3-115.8c-0.2-0.6-0.8-0.9-1.4-0.7l-1.3,0.5c0,0-2.4-6.8-2.5-6.9c0,0-0.1-0.1-0.1-0.2c-0.3-0.5-0.9-0.9-1.5-0.9h-5.7
			l-0.1-2.1h4.7c0.6,0,1.1-0.5,1.1-1.1c0-0.6-0.5-1.1-1.1-1.1h-4.9l-0.2-3.1c0,0,0-0.1,0-0.1c-0.1-1.5-1.4-2.7-2.9-2.6
			c-1.5,0.1-2.7,1.4-2.6,2.9v0l0,0l0.4,8.1l0,0c0,0,0,0,0,0c0.1,1.5,1.3,2.6,2.7,2.6c0,0,7.4,0,7.4,0l2.2,6.1
			c0.2,0.7,0.9,1.1,1.5,1.1c0.1,0,0.2,0,0.3,0c0.1,0,0.1,0,0.2-0.1l2.9-1.1C-222.4-114.6-222.1-115.2-222.3-115.8z"/>
		
			<ellipse transform="matrix(5.248704e-02 0.9986 -0.9986 5.248704e-02 -363.2202 107.1438)" cx="-238.1" cy="-137.8" rx="2.5" ry="2.5"/>
	</g>
	<g>
		<path fill-rule="evenodd" clip-rule="evenodd" d="M-173-130.1c0-0.1,0-0.1,0-0.2c0-2-1.5-3.6-3.4-3.7c-0.7-0.8-1.7-1.3-2.8-1.3
			c-1.3,0-2.5,0.7-3.2,1.7c-0.5-0.3-1.2-0.5-1.8-0.5c-2.1,0-3.7,1.7-3.7,3.7c0,0.1,0,0.1,0,0.2c-1.5,0.5-2.5,1.9-2.5,3.5
			c0,0.1,0,0.2,0,0.2h-6h-1h-2v2h2v1h-2v1h2v1v1h1h7h1v-1v-1h2v-0.5c0.6,0,1.1-0.2,1.6-0.5c0.6,0.3,1.2,0.5,1.9,0.5
			c0.4,0,0.9-0.1,1.2-0.2v6.5h-1.2v1.2h5v-1.2h-1.2v-6.2c0.2,0,0.4,0,0.6-0.1c0.2,0,0.4,0.1,0.6,0.1c0.7,0,1.3-0.2,1.9-0.5
			c0.6,0.3,1.2,0.5,1.9,0.5c2.1,0,3.7-1.7,3.7-3.7C-170.5-128.2-171.6-129.6-173-130.1z M-196.5-124.3h6.8c0.1,0.1,0.1,0.2,0.2,0.3
			v0.7h-7V-124.3z M-189.5-121.3h-7v-1h7V-121.3z"/>
		<polygon fill-rule="evenodd" clip-rule="evenodd" points="-189.5,-119.3 -196.5,-119.3 -198.5,-119.3 -199.5,-119.3 
			-199.5,-118.3 -198.5,-118.3 -198.5,-115.3 -196.5,-115.3 -196.5,-118.3 -195.5,-118.3 -195.5,-116.3 -194.5,-116.3 
			-194.5,-118.3 -191.5,-118.3 -191.5,-116.3 -190.5,-116.3 -190.5,-118.3 -189.5,-118.3 -189.5,-115.3 -187.5,-115.3 
			-187.5,-118.3 -186.5,-118.3 -186.5,-119.3 -187.5,-119.3 		"/>
	</g>
	<g>
		<path fill-rule="evenodd" clip-rule="evenodd" d="M-34.2-179.4c-0.1-0.2-0.2-0.4-0.4-0.5c-0.2-0.1-0.5-0.2-0.8-0.2h-1v4.4h0.9
			c0.4,0,0.7-0.1,0.9-0.2s0.4-0.3,0.5-0.4c0.1-0.2,0.2-0.4,0.2-0.7c0-0.3,0-0.6,0-0.9c0-0.3,0-0.6,0-0.9
			C-34-179-34.1-179.2-34.2-179.4z"/>
		<path fill-rule="evenodd" clip-rule="evenodd" d="M-28.6-187.4h-13.3c-1.1,0-2,0.9-2,2v20c0,1.1,0.9,2,2,2h13.3c1.1,0,2-0.9,2-2
			v-20C-26.6-186.5-27.5-187.4-28.6-187.4z M-32.4-176.5c-0.1,0.4-0.2,0.8-0.4,1.1c-0.3,0.4-0.6,0.7-1,1s-1,0.4-1.7,0.4h-0.9v5h-1.8
			v-12.8h2.8c0.5,0,0.9,0.1,1.3,0.2c0.4,0.1,0.7,0.4,1,0.7c0.3,0.3,0.5,0.7,0.6,1.2c0.1,0.4,0.2,1.1,0.2,1.8
			C-32.3-177.3-32.3-176.9-32.4-176.5z"/>
	</g>
	<path fill-rule="evenodd" clip-rule="evenodd" d="M-70.2-63.6L-84-88.1c-0.5-1-1.4-1-2,0l-13.8,24.6c-0.5,1-0.1,1.7,1,1.7h27.6
		C-70.1-61.8-69.7-62.6-70.2-63.6z M-83-66.8c0,0.6-0.5,1-1,1h-2c-0.5,0-1-0.4-1-1v-2c0-0.6,0.5-1,1-1h2c0.5,0,1,0.5,1,1V-66.8z
		 M-83-72.8c0,0.6-0.4,1-1,1h-2c-0.5,0-1-0.4-1-1v-6c0-0.6,0.5-1,1-1h2c0.5,0,1,0.5,1,1L-83-72.8z"/>
	<g>
		<path d="M-30.4-82.3c-1.4-0.4-3-0.7-4.6-0.7c-7.1,0-13,5.2-14.8,6.9c-0.3,0.3-0.3,0.8,0,1.1c1,1,3.5,3.2,6.9,4.9L-30.4-82.3z"/>
		<path d="M-20.2-76.1c-1.1-1-3.7-3.4-7.1-5l2.8-2.7H-27l-17.4,17h2.4l2.2-2.1c1.5,0.5,3.2,0.8,4.9,0.8c7.1,0,13-5.2,14.8-6.9
			C-19.9-75.3-19.9-75.8-20.2-76.1z M-29.9-74.5c-0.4,1.9-2,3.5-4,3.9c-1.4,0.3-2.6,0-3.7-0.6l2.2-2.2c0.1,0,0.2,0,0.4,0
			c1.3,0,2.3-1,2.3-2.3c0-0.1,0-0.2,0-0.4l2.2-2.2C-29.9-77.1-29.6-75.8-29.9-74.5z"/>
	</g>
	<g>
		<polygon points="15.9,-87.8 14,-87.8 14,-81.8 15.9,-81.8 		"/>
		<polygon points="24,-72.5 30,-73.7 29.5,-76 23.6,-74.8 		"/>
		<polygon points="26.3,-82.6 24.6,-84.2 20.4,-80 22,-78.3 		"/>
		<polygon points="6.4,-74.8 0.5,-76 0,-73.7 6,-72.5 		"/>
		<path d="M23-66.8l-2.3-10.9c-0.2-1.2-1.3-2.1-2.7-2.1l-5,0c-1.4,0-2.7,0.9-3,2.1L8-66.8c0,0.1,0,0,0,1H5l0.1,3H26v-3h-3
			C23-66.8,23-66.8,23-66.8z M15.1-66.8l-0.1-11h2c1.1,0,1.8,0.1,2,1l1,5c0,0.1,1,5,1,5H15.1z"/>
		<polygon points="9.6,-80 5.4,-84.2 3.7,-82.6 8,-78.3 		"/>
	</g>
	<path fill-rule="evenodd" clip-rule="evenodd" d="M-83.2-110.3h-4v-11h-2v-9c0-2.1,0.9-3,3-3h2c2.1,0,3,0.9,3,3v9h-2V-110.3z
		 M-85.2-134.7c-1.6,0-2.8-1.3-2.8-2.8c0-1.6,1.3-2.8,2.8-2.8s2.8,1.3,2.8,2.8C-82.4-136-83.6-134.7-85.2-134.7z"/>
	<path fill-rule="evenodd" clip-rule="evenodd" d="M-94.2-110.3h-4v-11h-2v-9c0-2.1,0.9-3,3-3h2c2.1,0,3,0.9,3,3v9h-2V-110.3z
		 M-96.2-134.7c-1.6,0-2.8-1.3-2.8-2.8c0-1.6,1.3-2.8,2.8-2.8s2.8,1.3,2.8,2.8C-93.4-136-94.6-134.7-96.2-134.7z"/>
	<path fill-rule="evenodd" clip-rule="evenodd" d="M-72.2-110.3h-4v-11h-2v-9c0-2.1,0.9-3,3-3h2c2.1,0,3,0.9,3,3v9h-2V-110.3z
		 M-74.2-134.7c-1.6,0-2.8-1.3-2.8-2.8c0-1.6,1.3-2.8,2.8-2.8s2.8,1.3,2.8,2.8C-71.4-136-72.6-134.7-74.2-134.7z"/>
	<path fill-rule="evenodd" clip-rule="evenodd" d="M-35.4-137.3c-5,0-9,4-9,9c0,6,9,15,9,15s9-9,9-15
		C-26.4-133.3-30.4-137.3-35.4-137.3z M-35.4-124.2c-2.6,0-4.7-2.1-4.7-4.7c0-2.6,2.1-4.7,4.7-4.7s4.7,2.1,4.7,4.7
		C-30.7-126.4-32.8-124.2-35.4-124.2z"/>
	<path fill-rule="evenodd" clip-rule="evenodd" d="M19.1-130.3c1,0,1.8,0.8,1.8,1.9c0,1-0.8,1.9-1.8,1.9h-6.7
		c-0.1,0.4-0.1,0.8-0.1,1.1c0,0.4,0,0.8,0.1,1.1h6.7c1,0,1.8,0.8,1.8,1.9c0,1-0.8,1.9-1.8,1.9h-5.6c1.7,3.2,5,5.3,8.5,5.3h0.4
		c0.8,0,1.4,0.7,1.4,1.7c0,1-0.6,1.9-1.3,2l0,0H22c-5.5,0-10.5-3.6-12.4-9.1h-2c-1,0-1.8-0.8-1.8-1.9c0-1,0.8-1.9,1.8-1.9h1.2v0
		c-0.1-0.4-0.1-0.7-0.1-1.1c0-0.4,0-0.7,0.1-1.1v0H7.6c-1,0-1.8-0.8-1.8-1.9c0-1,0.8-1.9,1.8-1.9h2c2-5.4,6.9-9.1,12.4-9.1h0.4
		c0.8,0.1,1.4,1,1.4,2c0,1-0.5,1.7-1.2,1.7l-0.6,0c-3.5,0-6.8,2.1-8.5,5.3H19.1z"/>
	<path fill-rule="evenodd" clip-rule="evenodd" d="M-226.6-88.7l-0.3,0.2c-1.1,0.5-2.8,6.3-2.8,6.7l0,0.4c0.2,0.8,0.9,1.7,2.5,3.5
		c-0.9,2.1-3.4,4.9-4.9,6.2c-1.6,1.4-4.3,3.2-6.3,3.9c-1.8-2.1-2.6-2.9-3.5-3c-0.5,0-6.4,1-6.9,2l-0.2,0.3c-0.4,0.7-1.1,1.7-0.8,2.8
		c0.1,0.3,0.2,0.5,0.3,0.8c0.5,0.8,1.7,2.6,3.4,3.4c1,0.5,10.4,0.8,18.3-6.3c7.8-7,8.2-15.6,7.9-16.9l0,0l0-0.1
		c-0.6-1.8-2.3-3.2-3-3.8C-224.3-89.8-225.8-89.1-226.6-88.7z"/>
	<path fill-rule="evenodd" clip-rule="evenodd" d="M-197.2-87.3v18h18v-18H-197.2z M-181.2-71.3h-14v-14h14V-71.3z"/>
	<path fill-rule="evenodd" clip-rule="evenodd" d="M-175.2-73.3v-10h-2l3-4l3,4h-2v10h2l-3,4l-3-4"/>
	<path fill-rule="evenodd" clip-rule="evenodd" d="M-183.2-63.3h-10v2l-4-3l4-3v2h10v-2l4,3l-4,3"/>
	<g opacity="0.4">
		<path fill-rule="evenodd" clip-rule="evenodd" d="M-141.5-70.4l4-4c-0.1-0.2-0.1-0.5-0.1-0.7c0-1,0.6-1.9,1.5-2.3v-9.9
			c0-0.5,0.5-1,1-1c-7.2,0-13,5.8-13,13c0,3.6,1.5,6.8,3.8,9.2l2.8-2.8C-141.9-69.4-141.9-70-141.5-70.4z"/>
	</g>
	<g>
		<g>
			<path fill-rule="evenodd" clip-rule="evenodd" d="M-135.2-90.3c-1,0-2,0.1-3,0.3c-1,0.2-1.9,0.5-2.8,0.9
				c-1.3,0.6-2.6,1.3-3.7,2.2s-2.1,2-2.9,3.2c-1.6,2.4-2.6,5.3-2.6,8.4c0,1.6,0.2,3.1,0.7,4.5c0.7,2.3,2,4.4,3.7,6.1
				c0.3,0.3,0.7,0.7,1.1,1c0.7,0.6,1.5,1.2,2.4,1.6c0.4,0.2,0.9,0.4,1.3,0.6c0.9,0.4,1.8,0.7,2.8,0.9c1,0.2,2,0.3,3,0.3
				c8.3,0,15-6.7,15-15C-120.2-83.6-126.9-90.3-135.2-90.3z M-135.2-72.6c-0.3,0-0.6-0.1-0.9-0.2l-3.9,3.9c-0.4,0.4-1.1,0.4-1.5,0
				c0,0,0,0,0,0l-2.8,2.8c-2.4-2.4-3.8-5.6-3.8-9.2c0-7.2,5.8-13,13-13c0.6,0,1,0.5,1,1v9.9c0.9,0.4,1.5,1.3,1.5,2.3
				C-132.7-73.7-133.8-72.6-135.2-72.6z"/>
		</g>
	</g>
	<path fill-rule="evenodd" clip-rule="evenodd" d="M-234-13.4h-2l-14-2v-19.9h2v18.2l12,1.7h2l12-1.7v-18.2h2v19.9L-234-13.4z
		 M-234-35.2c3.6-2.1,10-2.1,10-2.1v17.9c0,0-6.4,0-10,2.1V-35.2z M-246-37.3c0,0,6.4,0,10,2.1v17.9c-3.6-2.1-10-2.1-10-2.1V-37.3z"
		/>
	<path fill-rule="evenodd" clip-rule="evenodd" d="M-170.5-31.4l-0.2,0.1l0,0l-2.7,2.7l-8.4-8.4l2.7-2.7l0,0l0.1-0.2
		c0.7-0.7,2-0.7,2.7,0.1l5.6,5.6C-169.8-33.4-169.8-32.1-170.5-31.4z M-193-20.2l12.5-12.6l2.8,2.8l-12.5,12.6l1.4,1.4l12.5-12.6
		l1.4,1.4l-13.9,14l-8.4-8.4l13.9-14l1.4,1.4l-12.5,12.6L-193-20.2z M-190.2-11.7l-4.9,0.7l-4.9,0.7l0.7-4.9l0.7-4.9l4.2,4.2
		L-190.2-11.7z"/>
	<path fill-rule="evenodd" clip-rule="evenodd" d="M-124-11.3l-26,0v-28l30,0v24L-124-11.3z M-141-13.3h12v-7h-12V-13.3z M-126-37.3
		h-18v12h18V-37.3z M-139-18.3l4,0v3h-4V-18.3z"/>
	<path fill-rule="evenodd" clip-rule="evenodd" d="M-100-28.3l3-2l8,14l16-23l3,2l-19,27L-100-28.3"/>
	<path fill-rule="evenodd" clip-rule="evenodd" d="M-26.4-32.5l-1.8-1.8l-7.2,7.2l-7.2-7.2l-1.8,1.8l7.2,7.2l-7.2,7.2l1.8,1.8
		l7.2-7.2l7.2,7.2l1.8-1.8l-7.2-7.2L-26.4-32.5z"/>
	<path fill-rule="evenodd" clip-rule="evenodd" d="M14.8-33.8c-4.7,0-8.5,3.8-8.5,8.5s3.8,8.5,8.5,8.5s8.5-3.8,8.5-8.5
		S19.5-33.8,14.8-33.8z M19.8-22.6l-2.2,2.2l-2.8-2.8l-2.8,2.8l-2.2-2.2l2.8-2.8l-2.8-2.8l2.2-2.2l2.8,2.8l2.8-2.8l2.2,2.2L17-25.3
		L19.8-22.6z"/>
	<path fill-rule="evenodd" clip-rule="evenodd" d="M-227.7,17c-0.9,0-1.6-0.7-1.6-1.6c0-0.9,0.7-1.6,1.6-1.6c0.9,0,1.6,0.7,1.6,1.6
		C-226.2,16.3-226.9,17-227.7,17z M-229.9,11.7c-0.4,0-0.8-0.2-1.1-0.5c-0.6-0.6-0.6-1.6,0-2.2c0.3-0.3,0.7-0.5,1.1-0.5
		c0.4,0,0.8,0.2,1.1,0.5c0.6,0.6,0.6,1.6,0,2.2C-229.1,11.6-229.5,11.7-229.9,11.7z M-235.2,10.5c-1.4,0-2.5-1.1-2.5-2.5
		c0-1.4,1.1-2.5,2.5-2.5c1.4,0,2.5,1.1,2.5,2.5C-232.7,9.4-233.8,10.5-235.2,10.5z M-240.4,22.3c-0.4,0-0.8-0.2-1.1-0.5
		c-0.6-0.6-0.6-1.6,0-2.2c0.3-0.3,0.7-0.5,1.1-0.5c0.4,0,0.8,0.2,1.1,0.5c0.6,0.6,0.6,1.6,0,2.2C-239.6,22.1-240,22.3-240.4,22.3z
		 M-240.4,11.7c-0.4,0-0.8-0.2-1.1-0.5c-0.6-0.6-0.6-1.6,0-2.2c0.3-0.3,0.7-0.5,1.1-0.5c0.4,0,0.8,0.2,1.1,0.5
		c0.6,0.6,0.6,1.6,0,2.2C-239.6,11.6-240,11.7-240.4,11.7z M-241.1,15.5c0,0.9-0.7,1.6-1.6,1.6c-0.9,0-1.6-0.7-1.6-1.6
		s0.7-1.6,1.6-1.6C-241.8,13.9-241.1,14.6-241.1,15.5z M-235.2,21.4c0.9,0,1.6,0.7,1.6,1.6c0,0.9-0.7,1.6-1.6,1.6
		c-0.9,0-1.6-0.7-1.6-1.6C-236.7,22.1-236,21.4-235.2,21.4z M-229.9,19.2c0.4,0,0.8,0.2,1.1,0.5c0.6,0.6,0.6,1.6,0,2.2
		c-0.3,0.3-0.7,0.5-1.1,0.5c-0.4,0-0.8-0.2-1.1-0.5c-0.6-0.6-0.6-1.6,0-2.2C-230.7,19.4-230.3,19.2-229.9,19.2z"/>
	<g>
		<circle fill-rule="evenodd" clip-rule="evenodd" cx="-35" cy="4.1" r="2.3"/>
		<rect x="-49.8" y="12.5" fill-rule="evenodd" clip-rule="evenodd" width="1.8" height="7.3"/>
		<path fill-rule="evenodd" clip-rule="evenodd" d="M-25.3,15.4H-29l-0.1-6.3c0-1.2-1-2.2-2.2-2.2h-7.6c-1.2,0-2.2,1-2.2,2.2l0,6.3
			h-3.7v-4.1h-2.5v9.6h2.5v-4.1h3.7h2.1h0.6c-0.2,3.6-0.6,12.2-0.6,12.2h2.9l0.6-11.2c0.1,0,0.5,0,0.6,0l0.9,11.2h2.9
			c0,0-0.6-8.6-0.8-12.2h0.6h2.1h3.8v4.1h2.5v-9.6h-2.5V15.4z M-38.8,15.4L-38.8,15.4v-4.7c0-0.2,0.1-0.3,0.3-0.3
			c0.2,0,0.3,0.1,0.3,0.3v3.9c0,0,0,0.3,0,0.8H-38.8z M-31.2,15.4h-0.6c0-0.5,0-0.8,0-0.8v-3.9c0-0.2,0.1-0.3,0.3-0.3
			c0.2,0,0.3,0.1,0.3,0.3V15.4z"/>
		<rect x="-22" y="12.5" fill-rule="evenodd" clip-rule="evenodd" width="1.8" height="7.3"/>
	</g>
	<g>
		<path fill="#010101" d="M17.9,22.3c1.5-0.1,2.9-0.2,2.9-0.2l-2.2-1.3l-2.7-1.5l-4.1-2.3l-2.7-1.5l-2.2-1.3c0,0,0.7,1.2,1.4,2.5
			c0.8,1.5,1.5,3.1,1.4,3.4c-0.2,0.7-3.2,5.3-3.9,6.3c-0.5,0.8,0.9,2.2,1.9,2.8c1,0.5,2.9,1,3.3,0.1c0.5-1.3,2.8-6.1,3.3-6.6
			C14.5,22.6,16.3,22.4,17.9,22.3z"/>
		<g>
			<path fill="#010101" d="M26.7,16.9c3.3-5.8,1.8-12.8-3.3-15.7S11.5,0.8,8.2,6.6C7,8.7,6.5,11.1,6.5,13.3l15.3,8.6
				C23.7,20.7,25.4,19.1,26.7,16.9z"/>
		</g>
	</g>
	<circle fill="#010101" cx="5.6" cy="3.1" r="2.6"/>
	<g>
		<path d="M-222.5,54.1v-3.5l-5.5-4.5l-1.3,1.1c-1-0.9-2.3-1.5-3.7-1.5c-2,0-3.7,1-4.7,2.6c-0.8-0.5-1.7-0.7-2.7-0.7
			c-3.1,0-5.6,2.5-5.6,5.6c0,0.1,0,0.2,0,0.3c-1.9,0.7-3.3,2.3-3.7,4.3c0,0,0,0.1,0,0.1c0,0.3-0.1,0.5-0.1,0.8c0,0,0,0,0,0
			c0,0,0,0,0,0c0,0,0,0,0,0c0,3.1,2.5,5.5,5.6,5.5c0.1,0,0.2,0,0.4,0l0,0c0.3,0,0.5-0.1,0.8-0.1v1.3c-1.3,0.2-2.3,1.4-2.3,2.8
			c0,1.6,1.3,2.8,2.8,2.8c1.6,0,2.8-1.3,2.8-2.8c0-1.4-1-2.5-2.3-2.8v-1.6c0.2-0.1,0.4-0.2,0.6-0.3c0.8,0.5,1.8,0.8,2.8,0.8
			c0.7,0,1.3-0.1,1.9-0.3v9.7h-1.9v1.9h7.5v-1.9h-1.9v-9.3c0.3,0,0.6,0,0.9-0.1c0.3,0.1,0.6,0.1,0.9,0.1c1,0,2-0.3,2.8-0.8
			c0.8,0.5,1.8,0.8,2.8,0.8c3.1,0,5.6-2.5,5.6-5.6C-220,56.8-221,55.1-222.5,54.1z M-240.8,68.3c0,1-0.8,1.8-1.8,1.8
			c-1,0-1.8-0.8-1.8-1.8s0.8-1.8,1.8-1.8C-241.6,66.4-240.8,67.3-240.8,68.3z M-223.5,58.5h-4.5v-4.1h-3v4.1h-1.5V51l4.5-3.7
			l4.5,3.7V58.5z"/>
		<circle cx="-225.7" cy="51.8" r="1.3"/>
	</g>
	<g>
		<g>
			<polygon fill="#010101" points="-173,64.5 -196.6,67.8 -200,64.7 -199.1,63.8 -196.2,66.4 -173.7,63.3 -171,59.8 -170,60.5 			
				"/>
		</g>
		<g>
			<g>
				<circle fill="#010101" cx="-192.9" cy="69.5" r="1.5"/>
			</g>
			<g>
				<g>
					<circle fill="#010101" cx="-175.5" cy="67.1" r="1.5"/>
				</g>
			</g>
		</g>
	</g>
	<g>
		<polygon fill="#010101" points="-140.3,59.3 -138.2,65.4 -131.8,65.4 -129.7,59.3 -135,55.4 		"/>
		<path fill="#010101" d="M-135,45.5c-8.3,0-15,6.7-15,15s6.7,15,15,15s15-6.7,15-15S-126.7,45.5-135,45.5z M-123.4,65.4
			c-0.4,0.9-0.9,1.8-1.5,2.6l-0.1-1.3l-4.7,1.1l-2.5,4.2l1.3,0.6c-1.3,0.4-2.7,0.7-4.1,0.7c-1.4,0-2.7-0.2-4-0.7l1.3-0.6l-2.5-4.2
			l-4.7-1.1l-0.1,1.4c-0.6-0.8-1.1-1.7-1.5-2.6c-0.7-1.6-1-3.2-1-4.9c0,0,0-0.1,0-0.1l0.9,0.9l3.2-3.7l-0.4-4.8l-1.2,0.2
			c0.4-0.5,0.8-1,1.3-1.5c1.2-1.2,2.5-2.1,4-2.7c0.3-0.1,0.7-0.3,1-0.4l-0.6,1.1l4.5,1.9l4.5-1.9l-0.6-1.1c0.4,0.1,0.7,0.2,1.1,0.4
			c1.5,0.6,2.9,1.5,4,2.7c0.5,0.5,0.9,1,1.3,1.5l-1.2-0.2l-0.4,4.8l3.2,3.7l0.9-0.9c0,0,0,0,0,0.1
			C-122.4,62.2-122.7,63.9-123.4,65.4z"/>
	</g>
	<g id="Layer_4">
		<polygon fill="#010101" points="-86.8,73.5 -84.2,73.5 -84.2,68.3 -85.5,66.8 -86.8,68.3 		"/>
		<g>
			<path fill="#010101" d="M-89.4,50.2c-0.4-0.2-0.6-0.6-0.7-1c-0.1-0.4,0-0.8,0.2-1.2c0.2-0.4,0.6-0.6,1-0.7c0.4-0.1,0.8,0,1.2,0.2
				c0.4,0.2,0.6,0.6,0.7,1c0.1,0.4,0,0.8-0.2,1.2c-0.2,0.4-0.6,0.6-1,0.7C-88.7,50.5-89.1,50.5-89.4,50.2z"/>
			<path fill="#010101" d="M-96.4,56.5l4-0.6l-2.4-2.4c-0.1-0.1-0.2-0.3-0.3-0.5c-0.2-0.6,0.1-0.9,0.6-1.3l2.3-2
				c0.2-0.2,0.4-0.3,0.6-0.3c0.4-0.1,0.7,0,1,0.2c0.3,0.2,0.5,0.5,0.6,0.9c0.1,0.5-0.1,0.9-0.5,1.2l-1.9,1.6l2,2
				c0.1,0.1,0.2,0.3,0.2,0.6c0,0.3,0,0.5-0.2,0.7c-0.2,0.3-0.4,0.4-0.7,0.5l-5.1,0.9L-96.4,56.5z"/>
		</g>
		<path fill="#010101" d="M-72.9,63.5c-0.4,0.2-0.8,0.2-1.2,0.1c-0.4-0.1-0.7-0.4-0.9-0.8c-0.2-0.4-0.2-0.8-0.1-1.2
			c0.1-0.4,0.4-0.7,0.8-0.9c0.4-0.2,0.8-0.2,1.2-0.1c0.4,0.1,0.7,0.4,0.9,0.8c0.2,0.4,0.2,0.8,0.1,1.2C-72.3,63-72.5,63.3-72.9,63.5
			z"/>
		<path fill="#010101" d="M-99.5,59.8l21.1,8c0.1-0.2,0.2-0.3,0.4-0.4c0.2-0.1,0.5-0.2,0.7-0.1l2.7,0.7l0-2.5c0-0.5,0.2-0.9,0.7-1.2
			c0.3-0.2,0.7-0.2,1.1-0.1c0.4,0.1,0.7,0.3,0.8,0.7c0.1,0.2,0.1,0.4,0.1,0.7l0,3.1c0,0.6-0.1,1-0.7,1.3c0,0-0.1,0-0.2,0l2.8,1
			l-0.5,1.4l-4.9-1.9l-0.6-1.1l-0.2,0.1l-0.2,0.1l1.8,3.4l-0.7,0.4l-0.8,0.3l-2.3-4.4l-21.5-8.1L-99.5,59.8z"/>
	</g>
	<circle fill="none" cx="-43.6" cy="52.4" r="0.7"/>
	<circle fill="none" cx="-45.4" cy="54.2" r="0.7"/>
	<circle fill="none" cx="-46" cy="51.8" r="0.7"/>
	<g>
		<path fill="#010101" d="M-30.4,59.9c0.3,0,0.7,0.1,1,0.2l0.9,0.3l-1.1-11.7l-0.3-3.1h-3.1l-0.3,3.1h-3.9l-0.3-3.1h-3.1l-0.3,3.1
			h-3.9l-0.3-3.1h-3.1l-0.3,3.1h0l-1.7,18.8c0,0,4.8,1.6,11,1.6c1.6,0,3.1-0.1,4.5-0.3l1.4-6.6C-32.9,60.8-31.8,59.9-30.4,59.9z
			 M-46.5,51.3c0.3-0.3,0.7-0.3,1,0c0.3,0.3,0.3,0.7,0,1c-0.3,0.3-0.7,0.3-1,0C-46.8,52-46.8,51.6-46.5,51.3z M-44.9,54.7
			c-0.3,0.3-0.7,0.3-1,0c-0.3-0.3-0.3-0.7,0-1c0.3-0.3,0.7-0.3,1,0C-44.6,53.9-44.6,54.4-44.9,54.7z M-43.1,52.9
			c-0.3,0.3-0.7,0.3-1,0c-0.3-0.3-0.3-0.7,0-1c0.3-0.3,0.7-0.3,1,0C-42.8,52.2-42.8,52.6-43.1,52.9z"/>
		<circle fill="#010101" cx="-26.5" cy="73.6" r="0.7"/>
		<path fill="#010101" d="M-20.6,65.4l-3.3-1.2l3.4-10.5l-2.8-1l-3.4,10.5l-3.3-1.2c-0.1,0-0.2-0.1-0.3-0.1c-0.4,0-0.7,0.3-0.8,0.7
			l-1.9,9.3c-0.1,0.3,0,0.5,0.1,0.7c1-0.8,2.3-1.6,3.9-2.2c2-0.8,4.7-0.7,6.7,0.5l2.3-4.3C-19.8,66.1-20.1,65.6-20.6,65.4z"/>
		<circle fill="#010101" cx="-24.4" cy="72.3" r="0.7"/>
		<circle fill="#010101" cx="-24.4" cy="74.8" r="0.7"/>
	</g>
	<path fill="none" d="M-177.6,10.7l-0.4,0.7c0.3,0.2,0.6,0.4,0.9,0.5l0.4-0.7C-177.1,11.1-177.4,10.9-177.6,10.7z"/>
	<path fill="none" d="M-179.9,14.4c0.3,0.1,0.6,0.3,0.9,0.5l0.4-0.7c-0.3-0.2-0.6-0.3-0.9-0.5L-179.9,14.4z"/>
	<circle cx="-195.9" cy="23.4" r="4.1"/>
	<path d="M-170.1,16c-1.7,1.4-2.8,3.6-2.8,6c0,0.7,0.1,1.4,0.3,2.1c1.6-1.8,2.6-4.2,2.6-6.8C-170,16.9-170,16.5-170.1,16z"/>
	<path d="M-180.2,7.2c-0.1,0-0.3,0-0.4,0c0.5,1.1,1.2,2.1,2.1,2.9l1.5-2.4C-178,7.4-179.1,7.2-180.2,7.2z"/>
	<path d="M-176.7,11.2l1.7-2.7c-0.3-0.2-0.6-0.3-0.9-0.5l-1.7,2.6C-177.4,10.9-177.1,11.1-176.7,11.2z"/>
	<path d="M-173.3,12c0.6,0,1.2-0.1,1.7-0.2c-0.7-1.1-1.6-2-2.6-2.7l-1.6,2.5C-175,11.9-174.2,12-173.3,12z"/>
	<path d="M-181.4,7.2c-4.9,0.6-8.7,4.6-8.9,9.6c1.5-2.4,4.2-4,7.3-4c0.9,0,1.8,0.1,2.6,0.4l1.6-2.5C-180,9.8-180.9,8.6-181.4,7.2z"
		/>
	<path d="M-179.5,13.7c0.3,0.1,0.6,0.3,0.9,0.5l1.4-2.2c-0.3-0.2-0.6-0.3-0.9-0.5L-179.5,13.7z"/>
	<path d="M-170.2,15.1c-0.2-0.9-0.5-1.8-0.9-2.5c-0.7,0.2-1.4,0.3-2.1,0.3c-1,0-2-0.2-2.9-0.5l-1.5,2.4c2,1.6,3.3,4,3.3,6.8
		c0,1.9-0.6,3.6-1.7,5.1c1-0.5,1.9-1.1,2.8-1.8c-0.3-0.9-0.5-1.8-0.5-2.7C-173.7,19.2-172.4,16.7-170.2,15.1z"/>
	<path d="M-180.2,27.5c0.9,0,1.7-0.1,2.6-0.3c1.5-1.4,2.4-3.4,2.4-5.6c0-2.5-1.1-4.7-2.9-6.1l-6.8,10.9
		C-183.5,27.1-181.9,27.5-180.2,27.5z"/>
	<path d="M-179.9,14.4l-6.7,10.8c0.3,0.2,0.5,0.4,0.8,0.6l6.8-10.9C-179.3,14.7-179.6,14.5-179.9,14.4z"/>
	<path d="M-183.1,13.7c-3.2,0-6,2-7.2,4.8c0.3,2.3,1.3,4.4,2.8,5.9l6.5-10.4C-181.6,13.8-182.3,13.7-183.1,13.7z"/>
	<path fill="#010101" d="M-72.1,18.9c0.1-0.5,0.1-1,0.1-1.5c0-4.2-3.5-7.6-7.8-7.6c-0.2,0-0.5,0-0.7,0c-1,0.8-2.2,1.5-3.6,2.1
		c-1.2,0.6-2.4,1.1-3.5,1.4c0-0.2,0-0.4-0.1-0.5c1.1-0.3,2.2-0.8,3.4-1.4c0.9-0.5,1.8-0.9,2.5-1.4c1-0.7,1.9-1.4,2.6-2.1
		c1.1-1.2,1.6-2.2,1.3-2.8c-0.2-0.5-0.9-0.7-2-0.7c-1.8,0-4.4,0.8-7,2c-2.1,1-3.7,2.2-4.8,3.2c-1.4-0.2-3,0.1-4.5,0.9
		c-3.2,1.7-4.8,5-3.5,7.4c1,1.8,3.3,2.6,5.8,2.1l0.1,0.1c-1.3,2.1-1.3,4.8-1.3,4.8h3.2h2.7c0-2.8,4-3.2,4.2-3.2l0,0.3l0,0.3
		c0,0-0.2,0-0.5,0.1c-0.9,0.2-3.1,0.8-3.2,2.4c0,0.1,0,0.1,0,0.2h2.2h6.9l0,0c2.2-0.1,4.1-1,5.5-2.5c0.4,0.5,1,0.8,1.7,0.8
		c1.2,0,2.3-1,2.3-2.3C-70,20-70.9,19-72.1,18.9z M-95.6,14.8c-0.5,0-0.9-0.4-0.9-0.9c0-0.5,0.4-0.9,0.9-0.9c0.5,0,0.9,0.4,0.9,0.9
		C-94.7,14.4-95.1,14.8-95.6,14.8z"/>
	<path fill="#010101" d="M32,72.3l-9.4-9.4c1.2-1.8,1.9-4,1.9-6.2c0-3-1.2-5.8-3.3-7.9c-2.1-2.1-4.9-3.3-7.9-3.3s-5.8,1.2-7.9,3.3
		c-2.1,2.1-3.3,4.9-3.3,7.9s1.2,5.8,3.3,7.9c2.1,2.1,4.9,3.3,7.9,3.3c2.3,0,4.4-0.7,6.3-1.9l9.4,9.4c0.3,0.3,0.9,0.2,1.3-0.2
		l1.6-1.6C32.3,73.2,32.3,72.6,32,72.3z M13.4,64.8c-4.5,0-8.1-3.7-8.1-8.1s3.6-8.1,8.1-8.1s8.1,3.7,8.1,8.1S17.9,64.8,13.4,64.8z"
		/>
	<g id="Your_Icon">
		<path fill="#010101" d="M32.2,92.1H7.9l-1.1-3.5H2.2l0.6,1.7h2.8l5.5,17.2c-1.2,0.2-2.1,1.3-2.1,2.5c0,1.4,1.2,2.6,2.6,2.6
			c1.4,0,2.6-1.1,2.6-2.6c0-0.3-0.1-0.6-0.2-0.9h7.2c-0.1,0.3-0.2,0.6-0.2,0.9c0,1.4,1.2,2.6,2.6,2.6c1.4,0,2.6-1.1,2.6-2.6
			c0-1.4-1.1-2.5-2.4-2.6c0,0-0.2,0-0.2,0l-10.7,0l-1.1-3.4h13.5L32.2,92.1z"/>
	</g>
	<path fill="#010101" d="M-74,105.4c-0.2-0.1-0.4-0.2-0.6-0.3l-0.1,0c0,0-1-0.5-1.1-4.4c-0.1-3.9,0.9-4.5,0.9-4.5l0.1-0.1
		c1-0.5,1.8-1.3,2.3-2.3c1.4-2.7,0.4-6-2.3-7.4c-2.7-1.4-6-0.4-7.4,2.3c-0.6,1.1-0.7,2.3-0.6,3.4l0,0c0,0,0.3,1.3-3.1,3.4
		c-3.3,2.1-4.9,1.1-4.9,1.1l-0.2-0.1c-2.7-1.4-6-0.4-7.4,2.3c-1.4,2.7-0.4,6,2.3,7.4c2,1.1,4.3,0.8,6-0.6l0,0c0,0,1.1-0.9,4.6,1
		c2.8,1.5,3.2,2.9,3.2,3.5c-0.1,2,1,4,2.9,5c2.7,1.4,6,0.4,7.4-2.3C-70.3,110.1-71.3,106.8-74,105.4z M-96.7,104.2
		C-96.7,104.2-96.7,104.2-96.7,104.2C-96.7,104.2-96.7,104.2-96.7,104.2L-96.7,104.2z M-90.8,97.8c-0.7-0.6-2.4-0.5-3.9,0.4
		c0.2,0.2,0.3,0.4,0.3,0.7c0,0.6-0.5,1.2-1.1,1.2c-0.1,0-0.2,0-0.3,0c0,0,0,0-0.1,0c-0.4-0.1-0.7,0.2-0.8,0.3c-0.8,1.5-0.8,3,0,3.7
		c-1.5-1.5-1.5-4,0.1-5.8C-95,96.6-92.4,96.4-90.8,97.8L-90.8,97.8z M-80.6,88.1c1.6-1.8,4.2-2,5.8-0.6l0,0
		c-0.7-0.6-2.4-0.5-3.9,0.4c0.2,0.2,0.3,0.4,0.3,0.7c0,0.6-0.5,1.2-1.1,1.2c-0.1,0-0.2,0-0.3,0c0,0,0,0-0.1,0
		c-0.4-0.1-0.7,0.2-0.8,0.3c-0.8,1.5-0.8,3,0,3.7C-82.2,92.4-82.2,89.8-80.6,88.1z M-84.6,105c-2.9-1.5-3.3-2.8-3.4-3.2
		c0-0.5,0-0.9-0.1-1.4l0,0c0,0-0.2-1.3,3.1-3.3c3-1.8,4.3-1.5,4.5-1.4c0.2,0.1,0.3,0.2,0.5,0.3c0.3,0.2,0.7,0.3,1,0.4
		c0.4,0.4,1.2,1.5,1.2,4.4c0.1,2.9-0.8,4-1.2,4.4c-0.5,0.2-0.9,0.5-1.3,0.9C-80.6,106.2-81.9,106.4-84.6,105z M-79.7,112.9
		C-79.7,112.9-79.7,112.9-79.7,112.9C-79.7,112.9-79.7,112.9-79.7,112.9L-79.7,112.9z M-73.9,106.5c-0.7-0.6-2.4-0.5-3.9,0.4
		c0.2,0.2,0.3,0.4,0.3,0.7c0,0.6-0.5,1.2-1.1,1.2c-0.1,0-0.2,0-0.3,0c0,0,0,0-0.1,0c-0.4-0.1-0.7,0.2-0.8,0.3c-0.8,1.5-0.8,3,0,3.7
		c-1.5-1.5-1.5-4,0.1-5.8C-78,105.4-75.4,105.1-73.9,106.5L-73.9,106.5z"/>
	<path fill="#010101" d="M-50,97.4C-50,97.5-50,97.5-50,97.4L-50,97.4C-50,97.4-50,97.4-50,97.4z"/>
	<g>
		<ellipse fill="#010101" cx="-41" cy="96.9" rx="1" ry="1"/>
		<path fill="#010101" d="M-29.5,102c0.6-0.1,0.9-0.7,0.8-1.2c-0.1-0.6-0.7-0.9-1.3-0.8c-0.6,0.1-0.9,0.7-0.8,1.2
			C-30.6,101.8-30,102.2-29.5,102z"/>
		<path fill="#010101" d="M-22.9,109.6c-1.4,0-3-1.5-4.8-3.2c-0.2-0.2-0.4-0.4-0.6-0.5l-0.6-2.5c-0.1-0.6-0.7-1-1.3-0.8
			c-0.5,0.1-0.8,0.5-0.9,1c-1.7-1.3-3.7-2.2-6-2.2v-9.9l-6.7-3.7l-6.2,3.7v9.9v3.3v9.1h1.3V112h4.2v1.7h1.3V112h5v1.7h1.3v-9.1v-0.8
			c2.9,0,5.4,2.2,7.7,4.4c2.1,2,4.1,3.8,6.5,3.8h0.4v1.7h1.2V112h1.2v-2.5H-22.9z M-44.6,111.2h-4.2v-1.7h4.2L-44.6,111.2
			L-44.6,111.2z M-44.6,108.7h-4.2v-1.7h4.2L-44.6,108.7L-44.6,108.7z M-44.6,106.3h-4.2v-1.7h4.2L-44.6,106.3L-44.6,106.3z
			 M-38.3,101.3h-1.3l-0.5-2.1c-0.1-0.6-0.7-1-1.3-0.8c-0.6,0.1-1,0.7-0.8,1.3l0.4,1.6h-6.8v-9.1h10.4L-38.3,101.3L-38.3,101.3z"/>
	</g>
	<g>
		<path fill="#585D5C" d="M-125.4,105c-3,0-5.4,2.4-5.4,5.3c0,2.9,2.4,5.3,5.4,5.3c3,0,5.4-2.4,5.4-5.3
			C-120,107.4-122.4,105-125.4,105z M-125.4,112.9c-1.4,0-2.6-1.1-2.6-2.5c0-1.4,1.2-2.5,2.6-2.5c1.4,0,2.6,1.1,2.6,2.5
			C-122.9,111.7-124,112.9-125.4,112.9z"/>
		<path fill="#585D5C" d="M-135.7,101.1c1.2,0,2.3-0.1,3.4-0.4l1.9,4.3c0.9-0.9,2.1-1.5,3.4-1.7l-1.8-4c4.3-2.4,7.3-7,7.3-12.2
			c0-0.8,0-1.4,0-1.4H-150c0,0,0,0.6,0,1.4c0,5.3,2.9,9.8,7.3,12.2l-7.3,16.3h4.1l1.6-3.5h11.8c-0.2-0.6-0.2-1.2-0.2-1.9
			c0-0.7,0.1-1.3,0.3-1.9h-10.1l3.4-7.7C-138.1,101-136.9,101.1-135.7,101.1z M-147.1,88.5h4.2c0.4,4.3,2.5,7.9,5.5,9.7
			C-142.4,97.5-146.4,93.5-147.1,88.5z"/>
	</g>
	<path fill="#585D5C" d="M-172.5,102.1c0-0.1,0-0.1,0-0.2c0-2-1.5-3.6-3.4-3.7c-0.3-0.3-0.6-0.5-0.9-0.8v-1.1c0.2,0,0.3,0,0.4,0
		c0.1,0,0.3,0,0.4,0c0.5,0,0.9-0.1,1.3-0.4c0.4,0.2,0.8,0.4,1.3,0.4c1.5,0,2.6-1.2,2.6-2.6c0-1.1-0.7-2.1-1.8-2.5c0-0.1,0-0.1,0-0.2
		c0-1.4-1.1-2.5-2.4-2.6c-0.5-0.5-1.2-0.9-2-0.9c-0.9,0-1.8,0.5-2.2,1.2c-0.4-0.2-0.8-0.4-1.3-0.4c-1.5,0-2.6,1.2-2.6,2.6
		c0,0,0,0.1,0,0.1c-1.1,0.3-2,1.3-2,2.6c0,1.5,1.2,2.7,2.7,2.7c0.6,0,1.1-0.2,1.5-0.5c0,0,0,0,0,0c0.4,0.2,0.8,0.4,1.3,0.4
		c0.3,0,0.6-0.1,0.9-0.2v0.7c0,0-0.1,0-0.1,0c-1.3,0-2.5,0.7-3.2,1.7c-0.4-0.2-0.8-0.4-1.2-0.4c-0.2-1-1-1.8-1.9-2.1
		c0-0.1,0-0.1,0-0.2c0-1.5-1.2-2.8-2.7-2.9c-0.5-0.6-1.3-1-2.2-1c-1.1,0-2,0.6-2.5,1.4c-0.4-0.2-0.9-0.4-1.4-0.4c-1.6,0-3,1.3-3,3
		c0,0.1,0,0.1,0,0.2c-1.3,0.3-2.2,1.5-2.2,2.9c0,1.6,1.3,3,3,3c0.6,0,1.2-0.2,1.7-0.5c0,0,0,0,0,0c0.4,0.3,0.9,0.4,1.5,0.4
		c0.3,0,0.7-0.1,1-0.2v3.3c-1.1-1.3-1.6-2.4-1.6-2.4h0c0,0-1.1,2.5-3.9,4.4c0,0,1.1,0.8,1.9,0.9c0,0-1.3,2.2-4.6,3.1
		c0,0,2.5,2.1,5.5,2v2.6h1.5h0.6v-2.6c3.1,0.1,5.5-2,5.5-2c-3.3-0.9-4.6-3.1-4.6-3.1c0.5-0.1,1.1-0.4,1.5-0.7
		c0.6,1.3,1.9,2.2,3.5,2.2c0.8,0,1.5-0.2,2.1-0.7c0,0,0,0,0,0c0.6,0.3,1.2,0.5,1.9,0.5c0.4,0,0.9-0.1,1.2-0.2v6.5h2.5v-6.2
		c0.2,0,0.4,0,0.6-0.1c0.2,0,0.4,0.1,0.6,0.1c0.7,0,1.3-0.2,1.9-0.5c0.6,0.3,1.2,0.5,1.9,0.5c2.1,0,3.7-1.7,3.7-3.7
		C-170,103.9-171.1,102.6-172.5,102.1z M-189.9,104v-2.2c0.2,0,0.3,0,0.5,0c0.2,0,0.3,0,0.5,0c0.5,0,1-0.2,1.5-0.4
		c0,0.1,0,0.3,0,0.5c0,0.1,0,0.1,0,0.2C-188.5,102.3-189.4,103-189.9,104z"/>
	<path fill="#585D5C" d="M-240.4,101.6c-1.4,0-2.3,1.1-2.6,2.6l-0.4,2.4l-6.6,6.6h6l1,2.4l1.1-2.7c2.3-0.7,4-2.9,4-5.5v-2l1.9-0.9
		l-1.9-0.9C-238.1,102.5-239.2,101.6-240.4,101.6z M-239.9,104.8c-0.3,0-0.6-0.3-0.6-0.6s0.3-0.6,0.6-0.6s0.6,0.3,0.6,0.6
		S-239.6,104.8-239.9,104.8z"/>
	<path fill="#585D5C" d="M-230,110.4c-0.6-0.6-1.4-0.9-2.2-0.9l0,0l-3,0l0,3l0,0c0,0.8,0.3,1.6,0.9,2.2c0,0,0,0,0,0
		c1.2,1.2,3.1,1.2,4.3,0c0.6-0.6,0.9-1.4,0.9-2.1C-229.1,111.8-229.4,111-230,110.4C-230,110.4-230,110.4-230,110.4z"/>
	<path fill="#585D5C" d="M-226.1,107c1.7,0,3-1.3,3-3c1.7,0,3-1.3,3-3c0-0.9-0.4-1.6-1-2.2c0.6-0.5,1-1.3,1-2.2c0-1.7-1.3-3-3-3
		c0-1.7-1.3-3-3-3c-0.9,0-1.6,0.4-2.2,1c-0.5-0.6-1.3-1-2.2-1c-1.7,0-3,1.3-3,3c-1.7,0-3,1.3-3,3c0,0.9,0.4,1.6,1,2.2
		c-0.6,0.5-1,1.3-1,2.2c0,1.7,1.3,3,3,3c0,1.7,1.3,3,3,3c0.5,0,1-0.1,1.4-0.3v5.9v3h1.6v-3c0,0.8,0.3,1.5,0.9,2.1
		c1.2,1.2,3.1,1.2,4.3,0c0,0,0,0,0,0c0.6-0.6,0.9-1.4,0.9-2.2l0,0l0-3l-3,0l0,0c-0.8,0-1.6,0.3-2.2,0.9c0,0,0,0,0,0
		c-0.6,0.6-0.9,1.4-0.9,2.1v-5.9C-227.1,106.9-226.6,107-226.1,107z M-228.3,104c-2.9,0-5.2-2.3-5.2-5.2c0-2.9,2.3-5.2,5.2-5.2
		c2.9,0,5.2,2.3,5.2,5.2C-223.1,101.7-225.4,104-228.3,104z"/>
	<path fill="#585D5C" d="M-247,146.3c0.6,0,1.2-0.2,1.7-0.5c0,0,0,0,0,0c0.4,0.3,0.9,0.4,1.5,0.4c0.3,0,0.7-0.1,1-0.2v5.1h2v-4.9
		c0.2,0,0.3,0,0.5,0c0.2,0,0.3,0,0.5,0c0.5,0,1-0.2,1.5-0.4c0.4,0.3,0.9,0.4,1.5,0.4c1.6,0,3-1.3,3-3c0-1.3-0.8-2.4-2-2.8
		c0-0.1,0-0.1,0-0.2c0-1.5-1.2-2.8-2.7-2.9c-0.5-0.6-1.3-1-2.2-1c-1.1,0-2,0.6-2.5,1.4c-0.4-0.2-0.9-0.4-1.4-0.4c-1.6,0-3,1.3-3,3
		c0,0.1,0,0.1,0,0.2c-1.3,0.3-2.2,1.5-2.2,2.9C-250,144.9-248.7,146.3-247,146.3z"/>
	<rect x="-221.7" y="163.4" fill="none" width="3.3" height="3.3"/>
	<path fill="#585D5C" d="M-235,144.5L-235,144.5c7.7,4.9-14.3,4.6-15,12.1h19.7C-242.8,153.7-225.3,146.6-235,144.5z"/>
	<g>
		<path fill="#585D5C" d="M-225,138.6c0,0-0.2,0-0.2-0.4c0-0.4-0.4-0.8-0.8-0.8c-0.5,0-0.8,0.4-0.8,0.8c0,0.4-0.2,0.4-0.2,0.4
			c-0.1,0-0.2,0.1-0.2,0.2c0,0.1,0.1,0.2,0.2,0.2h2.1c0.1,0,0.2-0.1,0.2-0.2C-224.8,138.7-224.8,138.6-225,138.6z"/>
		<circle fill="#585D5C" cx="-226" cy="139.7" r="0.4"/>
		<circle fill="#585D5C" cx="-226" cy="134" r="0.6"/>
		<path fill="#585D5C" d="M-222.2,144.2l-1.3-3.8v-3.3c0.2,0,0.4-0.2,0.4-0.4s-0.2-0.4-0.4-0.4h-0.8c0-0.9-0.7-1.7-1.7-1.7
			c-0.9,0-1.7,0.7-1.7,1.7h-0.8c-0.2,0-0.4,0.2-0.4,0.4s0.2,0.4,0.4,0.4v3.3l-1.3,3.8h-2.1v1.3h0.8v2.5v3.3v2.8h10v-2.8V148v-2.5
			h0.8v-1.3H-222.2z M-227.7,137.1h3.3v3.3h-3.3V137.1z M-226.8,151.3L-226.8,151.3l0,1.2h-2.5v-1.2V148v0c0-0.7,0.6-1.3,1.3-1.3
			c0.7,0,1.3,0.6,1.3,1.3v0V151.3z M-222.7,151.3L-222.7,151.3l0,1.2h-2.5v-1.2V148v0c0-0.7,0.6-1.3,1.3-1.3c0.7,0,1.3,0.6,1.3,1.3
			v0V151.3z"/>
	</g>
	<path fill="#585D5C" d="M-232.7,131.9c0.8-0.2,1.9-0.9,1.9-0.9c-2.8-1.9-3.9-4.4-3.9-4.4h0c0,0-1.1,2.5-3.9,4.4
		c0,0,1.1,0.8,1.9,0.9c0,0-1.3,2.2-4.6,3.1c0,0,2.5,2.1,5.5,2v2.6h1.5h0.6v-2.6c3.1,0.1,5.5-2,5.5-2
		C-231.3,134.1-232.7,131.9-232.7,131.9z"/>
	<g>
		<path fill="#585D5C" d="M-232.5,171.5c0,0-0.3,0-0.3-0.6c0-0.6-0.5-1.2-1.2-1.2c-0.7,0-1.2,0.5-1.2,1.2c0,0.6-0.3,0.6-0.3,0.6
			c-0.2,0-0.3,0.1-0.3,0.3c0,0.2,0.1,0.3,0.3,0.3h3c0.2,0,0.3-0.1,0.3-0.3C-232.2,171.6-232.3,171.5-232.5,171.5z"/>
		<circle fill="#585D5C" cx="-234" cy="173" r="0.6"/>
		<circle fill="#585D5C" cx="-234" cy="164.8" r="0.9"/>
		<path fill="#585D5C" d="M-228.6,179.4l-1.8-5.4v-4.8c0.3,0,0.6-0.3,0.6-0.6s-0.3-0.6-0.6-0.6h-1.2c0-1.3-1.1-2.4-2.4-2.4
			c-1.3,0-2.4,1.1-2.4,2.4h-1.2c-0.3,0-0.6,0.3-0.6,0.6s0.3,0.6,0.6,0.6v4.8l-1.8,5.4h-3v1.8h1.2v3.6v4.7v4h14.3v-4v-4.7v-3.6h1.2
			v-1.8H-228.6z M-236.4,169.2h4.8v4.8h-4.8V169.2z M-235.2,189.6L-235.2,189.6l0,1.8h-3.6v-1.8v-4.7v-0.1c0-1,0.8-1.8,1.8-1.8
			c1,0,1.8,0.8,1.8,1.8v0.1V189.6z M-229.2,189.6L-229.2,189.6l0,1.8h-3.6v-1.8v-4.7v-0.1c0-1,0.8-1.8,1.8-1.8c1,0,1.8,0.8,1.8,1.8
			v0.1V189.6z"/>
	</g>
	<g>
		<path fill="#585D5C" d="M-174.6,144.5L-174.6,144.5c7.7,4.9-14.3,4.6-15,12.1h19.7C-182.3,153.7-164.9,146.6-174.6,144.5z"/>
		<path fill="#585D5C" d="M-188.4,150.5v-6.2c0.2,0,0.4,0,0.6-0.1c0.2,0,0.4,0.1,0.6,0.1c0.7,0,1.3-0.2,1.9-0.5
			c0.6,0.3,1.2,0.5,1.9,0.5c2.1,0,3.7-1.7,3.7-3.7c0-1.6-1.1-3-2.5-3.5c0-0.1,0-0.1,0-0.2c0-0.5-0.1-0.9-0.2-1.3
			c0.9,0.6,2.8,1.6,5,1.6v2.6h1.5h0.6v-2.6c3.1,0.1,5.5-2,5.5-2c-3.3-0.9-4.6-3.1-4.6-3.1c0.8-0.2,1.9-0.9,1.9-0.9
			c-2.8-1.9-3.9-4.4-3.9-4.4h0c0,0-1.1,2.5-3.9,4.4c0,0,1.1,0.8,1.9,0.9c0,0-1.2,2-4.3,3c-0.6-1-1.7-1.8-2.9-1.9
			c-0.7-0.8-1.7-1.3-2.8-1.3c-1.3,0-2.5,0.7-3.2,1.7c-0.5-0.3-1.2-0.5-1.8-0.5c-2.1,0-3.7,1.7-3.7,3.7c0,0.1,0,0.1,0,0.2
			c-1.6,0.4-2.8,1.9-2.8,3.7c0,2.1,1.7,3.8,3.8,3.8c0.8,0,1.5-0.2,2.1-0.7c0,0,0,0,0,0c0.6,0.3,1.2,0.5,1.9,0.5
			c0.4,0,0.9-0.1,1.2-0.2v6.5H-188.4z"/>
	</g>
	<path fill="#585D5C" d="M-173.5,180.1c0-0.1,0-0.1,0-0.2c0-2-1.5-3.6-3.4-3.7c-0.7-0.8-1.7-1.3-2.8-1.3c-1.3,0-2.5,0.7-3.2,1.7
		c-0.5-0.3-1-0.4-1.5-0.5c0.1-0.3,0.2-0.7,0.2-1.1c0-1.1-0.7-2.1-1.8-2.5c0-0.1,0-0.1,0-0.2c0-1.4-1.1-2.5-2.4-2.6
		c-0.5-0.5-1.2-0.9-2-0.9c-0.9,0-1.8,0.5-2.2,1.2c-0.4-0.2-0.8-0.4-1.3-0.4c-1.5,0-2.6,1.2-2.6,2.6c0,0,0,0.1,0,0.1
		c-1.1,0.3-2,1.3-2,2.6c0,1.5,1.2,2.7,2.7,2.7c0.6,0,1.1-0.2,1.5-0.5c0,0,0,0,0,0c0.4,0.2,0.8,0.4,1.3,0.4c0.3,0,0.6-0.1,0.9-0.2
		v1.7c-0.5,0.2-1,0.6-1.3,1.1c-0.4-0.2-0.9-0.4-1.4-0.4c-1.6,0-3,1.3-3,3c0,0.1,0,0.1,0,0.2c-1.3,0.3-2.2,1.5-2.2,2.9
		c0,1.6,1.3,3,3,3c0.6,0,1.2-0.2,1.7-0.5c0,0,0,0,0,0c0.4,0.3,0.9,0.4,1.5,0.4c0.3,0,0.7-0.1,1-0.2v5.1h2v-4.9c0.2,0,0.3,0,0.5,0
		c0.2,0,0.3,0,0.5,0c0.5,0,1-0.2,1.5-0.4c0.4,0.3,0.9,0.4,1.5,0.4c1.1,0,2.1-0.6,2.6-1.5c0.3,0.1,0.6,0.1,0.9,0.1
		c0.4,0,0.9-0.1,1.2-0.2v6.5h2.5v-6.2c0.2,0,0.4,0,0.6-0.1c0.2,0,0.4,0.1,0.6,0.1c0.7,0,1.3-0.2,1.9-0.5c0.6,0.3,1.2,0.5,1.9,0.5
		c2.1,0,3.7-1.7,3.7-3.7C-171,182-172.1,180.6-173.5,180.1z M-189.9,177.7c0.1,0,0.3,0,0.4,0c0.5,0,0.9-0.1,1.3-0.4
		c0.1,0.1,0.3,0.1,0.5,0.2c-0.5,0.6-0.8,1.4-0.8,2.3c0,0,0,0.1,0,0.1c-0.1,0-0.1,0-0.2,0c-0.4-0.5-1-0.8-1.6-0.9v-1.3
		C-190.2,177.8-190,177.7-189.9,177.7z"/>
	<path fill="#010101" d="M-150,14.5v0.3C-150,14.7-150,14.6-150,14.5L-150,14.5z"/>
	<path fill="#010101" d="M-150,15.5L-150,15.5c0-0.1,0-0.2,0-0.3V15.5z"/>
	<path fill="#010101" d="M-125.6,3.3c-3.5,2.6-5.7,6.6-5.9,11.2h11.5C-120.2,10-122.3,6-125.6,3.3z"/>
	<path fill="#010101" d="M-120,15.5h-11.5c0.2,4.6,2.5,8.6,5.9,11.1C-122.3,24-120.2,20-120,15.5z"/>
	<path fill="#010101" d="M-126.5,2.7c-2.3-1.6-5-2.6-8-2.7v14.5h2C-132.4,9.7-130,5.5-126.5,2.7z"/>
	<path fill="#010101" d="M-132.5,15.5h-2V30c3-0.1,5.8-1.1,8.1-2.7C-130,24.6-132.3,20.3-132.5,15.5z"/>
	<path fill="#010101" d="M-144.5,26.6c3.4-2.5,5.6-6.5,5.8-11.1H-150C-149.8,20-147.7,24-144.5,26.6z"/>
	<path fill="#010101" d="M-144.5,3.4c-3.2,2.7-5.4,6.6-5.5,11.1h11.3C-138.9,10-141.1,6-144.5,3.4z"/>
	<path fill="#010101" d="M-143.7,27.2c2.3,1.7,5.2,2.7,8.2,2.8V15.5h-2.2C-137.9,20.3-140.2,24.5-143.7,27.2z"/>
	<path fill="#010101" d="M-135.5,0c-3,0.1-5.9,1.1-8.2,2.7c3.5,2.8,5.8,7,6,11.8h2.2V0z"/>
</g>
</svg>
