<?xml version="1.0" encoding="utf-8"?>
<!-- Generator: Adobe Illustrator 18.0.0, SVG Export Plug-In . SVG Version: 6.00 Build 0)  -->
<!DOCTYPE svg PUBLIC "-//W3C//DTD SVG 1.0//EN" "http://www.w3.org/TR/2001/REC-SVG-20010904/DTD/svg10.dtd">
<svg version="1.0" xmlns="http://www.w3.org/2000/svg" xmlns:xlink="http://www.w3.org/1999/xlink" x="0px" y="0px"
	 viewBox="0 0 30 30" enable-background="new 0 0 30 30" xml:space="preserve">
<g id="Layer_1">
	<path fill-rule="evenodd" clip-rule="evenodd" d="M-185-326c-8.3,0-15,6.7-15,15c0,8.3,6.7,15,15,15s15-6.7,15-15
		C-170-319.3-176.7-326-185-326z M-186.9-299.8v-9.4h-9.4l18.7-9.4L-186.9-299.8z"/>
</g>
<g id="Layer_2">
	<path fill-rule="evenodd" clip-rule="evenodd" d="M22.2-276.1h-15c-2.1,0-3.7,1.7-3.7,3.8v22.5c0,2.1,1.7,3.7,3.7,3.7h15
		c2.1,0,3.7-1.7,3.7-3.7v-22.5C26-274.4,24.3-276.1,22.2-276.1z M24.5-249.8c0,1.2-1,2.2-2.2,2.2h-15c-1.2,0-2.2-1-2.2-2.2v-22.5
		c0-1.2,1-2.2,2.2-2.2h15c1.2,0,2.2,1,2.2,2.2V-249.8z"/>
	<path fill-rule="evenodd" clip-rule="evenodd" d="M-126.6-312.9c3.6,0,6.6,3,6.6,6.7c0,3.7-2.9,6.7-6.6,6.7c-3.6,0-6.6-3-6.6-6.7
		c0-2.3,1.2-4.4,2.9-5.6l-0.4-0.7l-1.1-2.1l-0.1-0.3h-6.8c-0.8,0-1.5,0.5-1.7,1.3l-0.4,1.2c2.3,1.1,3.9,3.4,3.9,6.1
		c0,3.7-2.9,6.7-6.6,6.7s-6.6-3-6.6-6.7c0-3.7,2.9-6.7,6.6-6.7c0.3,0,0.6,0.1,0.9,0.1l1-3.3c0.1-0.4,0.5-0.7,0.9-0.7h9.9l1.7-3.8
		h-3.2c-0.5,0-0.9-0.4-0.9-1c0-0.5,0.4-1,0.9-1h4.1h0.6c0.3,0,0.6,0.2,0.8,0.4c0.2,0.3,0.2,0.6,0.1,0.9l-0.3,0.6l-2.7,5.9l1.1,2.1
		C-127.9-312.8-127.2-312.9-126.6-312.9z M-141.3-310.5l-1,3c-0.1,0.2-0.2,0.4-0.5,0.6c-0.2,0.1-0.5,0.1-0.7,0.1
		c-0.5-0.2-0.8-0.7-0.6-1.2l0.9-2.9c-0.1,0-0.2,0-0.3,0c-2.6,0-4.7,2.1-4.7,4.8c0,2.6,2.1,4.8,4.7,4.8c2.6,0,4.7-2.1,4.7-4.8
		C-138.7-308.1-139.8-309.7-141.3-310.5z M-131.3-306.2c0,2.6,2.1,4.8,4.7,4.8c2.6,0,4.7-2.1,4.7-4.8c0-2.6-2.1-4.8-4.7-4.8
		c-0.3,0-0.7,0-1,0.1l2.3,4.3c0.1,0.2,0.1,0.5,0.1,0.7c-0.1,0.2-0.2,0.5-0.5,0.6l0,0c-0.5,0.2-1,0.1-1.2-0.4l-2.4-4.5
		C-130.5-309.2-131.3-307.8-131.3-306.2z M-140.6-318.7h-2.8c-0.5,0-0.9-0.4-0.9-1c0-0.5,0.4-1,0.9-1h5.6c0.2,0,0.3,0.1,0.3,0.2
		c0.1,0.1,0,0.3-0.1,0.4C-138.4-319.2-139.2-318.7-140.6-318.7z"/>
	<path fill-rule="evenodd" clip-rule="evenodd" d="M-70.9-312h-0.9v-5.6h0.9c0.5,0,0.9,0.4,0.9,0.9v3.7C-70-312.4-70.4-312-70.9-312
		z M-75.6-300.8v1.9c0,1-0.8,1.9-1.9,1.9h-1.9c-1,0-1.9-0.8-1.9-1.9v-1.9h-7.5v1.9c0,1-0.8,1.9-1.9,1.9h-1.9c-1,0-1.9-0.8-1.9-1.9
		v-1.9c-1,0-1.9-0.8-1.9-1.9v-16.8c0-3.1,2.5-5.6,5.6-5.6h11.2c3.1,0,5.6,2.5,5.6,5.6v16.8C-73.8-301.6-74.6-300.8-75.6-300.8z
		 M-92.5-302.6c1,0,1.9-0.8,1.9-1.9c0-1-0.8-1.9-1.9-1.9c-1,0-1.9,0.8-1.9,1.9C-94.4-303.5-93.5-302.6-92.5-302.6z M-81.3-323.2
		h-7.5v1.9h7.5V-323.2z M-75.6-319.4h-18.7v11.2h18.7V-319.4z M-77.5-306.4c-1,0-1.9,0.8-1.9,1.9c0,1,0.8,1.9,1.9,1.9
		c1,0,1.9-0.8,1.9-1.9C-75.6-305.5-76.5-306.4-77.5-306.4z M-100-312.9v-3.7c0-0.5,0.4-0.9,0.9-0.9h0.9v5.6h-0.9
		C-99.6-312-100-312.4-100-312.9z"/>
	<path fill-rule="evenodd" clip-rule="evenodd" d="M-25.6-309.2c0,2-1.7,3.7-3.7,3.7h-11.2c-2.1,0-3.7-1.6-3.7-3.7V-322h18.7v1.8
		c3.1,0,5.6,2.5,5.6,5.5C-20-311.7-22.5-309.2-25.6-309.2z M-40.6-320.2h-1.9v11c0,1,0.8,1.8,1.9,1.8V-320.2z M-25.6-318.4v7.3
		c2.1,0,3.7-1.6,3.7-3.7C-21.9-316.7-23.6-318.4-25.6-318.4z M-20-301.9c0,1-0.8,1.8-1.9,1.8h-26.2c-1,0-1.9-0.8-1.9-1.8
		c0-1,0.8-1.8,1.9-1.8h26.2C-20.8-303.7-20-302.9-20-301.9z"/>
	<g>
		<polygon fill-rule="evenodd" clip-rule="evenodd" points="28,-320.5 28,-298.5 2,-298.5 2,-296.5 30,-296.5 30,-297.5 30,-298.5 
			30,-320.5 		"/>
		<path fill-rule="evenodd" clip-rule="evenodd" d="M26-322.5h-3c0,1.7-1.3,3-3,3c-1.7,0-3-1.3-3-3h-7c0,1.7-1.3,3-3,3
			c-1.7,0-3-1.3-3-3H0v22h26V-322.5z M24-302.5H2v-15h22V-302.5z"/>
		<path fill-rule="evenodd" clip-rule="evenodd" d="M7-321.5c0.6,0,1-0.4,1-1v-2c0-0.6-0.4-1-1-1s-1,0.4-1,1v2
			C6-322,6.4-321.5,7-321.5z"/>
		<path fill-rule="evenodd" clip-rule="evenodd" d="M20-321.5c0.6,0,1-0.4,1-1v-2c0-0.6-0.4-1-1-1s-1,0.4-1,1v2
			C19-322,19.4-321.5,20-321.5z"/>
		<rect x="6" y="-314.5" fill-rule="evenodd" clip-rule="evenodd" width="3" height="3"/>
		<rect x="12" y="-314.5" fill-rule="evenodd" clip-rule="evenodd" width="3" height="3"/>
		<rect x="17" y="-314.5" fill-rule="evenodd" clip-rule="evenodd" width="3" height="3"/>
		<rect x="6" y="-309.5" fill-rule="evenodd" clip-rule="evenodd" width="3" height="3"/>
		<rect x="12" y="-309.5" fill-rule="evenodd" clip-rule="evenodd" width="3" height="3"/>
		<rect x="17" y="-309.5" fill-rule="evenodd" clip-rule="evenodd" width="3" height="3"/>
	</g>
	<g>
		<path fill-rule="evenodd" clip-rule="evenodd" d="M57-322c0.6,0,1-0.4,1-1v-2c0-0.6-0.4-1-1-1s-1,0.4-1,1v2
			C56-322.5,56.4-322,57-322z"/>
		<path fill-rule="evenodd" clip-rule="evenodd" d="M70-322c0.6,0,1-0.4,1-1v-2c0-0.6-0.4-1-1-1s-1,0.4-1,1v2
			C69-322.5,69.4-322,70-322z"/>
		<rect x="56" y="-315" fill-rule="evenodd" clip-rule="evenodd" width="3" height="3"/>
		<rect x="62" y="-315" fill-rule="evenodd" clip-rule="evenodd" width="3" height="3"/>
		<rect x="67" y="-315" fill-rule="evenodd" clip-rule="evenodd" width="3" height="3"/>
		<rect x="56" y="-310" fill-rule="evenodd" clip-rule="evenodd" width="3" height="3"/>
		<rect x="62" y="-310" fill-rule="evenodd" clip-rule="evenodd" width="3" height="3"/>
		<rect x="52" y="-299" fill-rule="evenodd" clip-rule="evenodd" width="17" height="2"/>
		<rect x="78" y="-321" fill-rule="evenodd" clip-rule="evenodd" width="2" height="13"/>
		<path fill-rule="evenodd" clip-rule="evenodd" d="M52-318h22v10h2v-15h-3c0,1.7-1.3,3-3,3s-3-1.3-3-3h-7c0,1.7-1.3,3-3,3
			s-3-1.3-3-3h-4v22h19v-2H52V-318z"/>
		<path fill-rule="evenodd" clip-rule="evenodd" d="M75-307c-2.8,0-5,2.2-5,5c0,2.8,2.2,5,5,5s5-2.2,5-5C80-304.8,77.8-307,75-307z
			 M78-301h-2v2h-2v-2h-2v-2h2v-2h2v2h2V-301z"/>
		<rect x="67" y="-310" fill-rule="evenodd" clip-rule="evenodd" width="3" height="3"/>
	</g>
	<g>
		
			<rect x="-178.9" y="-253.8" transform="matrix(-0.5 -0.866 0.866 -0.5 -47.4765 -534.0652)" fill-rule="evenodd" clip-rule="evenodd" width="2" height="1"/>
		
			<rect x="-180.9" y="-257.3" transform="matrix(-0.5 -0.866 0.866 -0.5 -47.4593 -540.9855)" fill-rule="evenodd" clip-rule="evenodd" width="2" height="1"/>
		
			<rect x="-182.9" y="-260.8" transform="matrix(-0.5 -0.866 0.866 -0.5 -47.4767 -547.9219)" fill-rule="evenodd" clip-rule="evenodd" width="2" height="1"/>
		
			<rect x="-184.4" y="-264.7" transform="matrix(-0.866 0.5 -0.5 -0.866 -475.0252 -400.1584)" fill-rule="evenodd" clip-rule="evenodd" width="1" height="2"/>
		
			<rect x="-172.2" y="-258.3" transform="matrix(0.7072 -0.707 0.707 0.7072 131.6399 -196.698)" fill-rule="evenodd" clip-rule="evenodd" width="1" height="2"/>
		
			<rect x="-175.5" y="-260.6" transform="matrix(-0.7071 -0.7071 0.7071 -0.7071 -113.9298 -567.4142)" fill-rule="evenodd" clip-rule="evenodd" width="2" height="1"/>
		
			<rect x="-178.3" y="-263.4" transform="matrix(-0.7072 -0.7071 0.7071 -0.7072 -116.7919 -574.249)" fill-rule="evenodd" clip-rule="evenodd" width="2" height="1"/>
		
			<rect x="-181.1" y="-266.3" transform="matrix(0.7072 0.707 -0.707 0.7072 -240.6614 49.5452)" fill-rule="evenodd" clip-rule="evenodd" width="2" height="1"/>
		
			<rect x="-184.3" y="-251.2" transform="matrix(-0.2588 -0.9659 0.9659 -0.2588 11.3828 -492.7229)" fill-rule="evenodd" clip-rule="evenodd" width="2" height="1"/>
		
			<rect x="-184.9" y="-255.6" transform="matrix(0.9659 -0.2589 0.2589 0.9659 59.6306 -56.4216)" fill-rule="evenodd" clip-rule="evenodd" width="1" height="2"/>
		
			<rect x="-185.9" y="-259.5" transform="matrix(0.9659 -0.2589 0.2589 0.9659 60.5924 -56.8176)" fill-rule="evenodd" clip-rule="evenodd" width="1" height="2"/>
		
			<rect x="-187" y="-263.3" transform="matrix(0.9659 -0.2589 0.2589 0.9659 61.5607 -57.2212)" fill-rule="evenodd" clip-rule="evenodd" width="1" height="2"/>
		<rect x="-190.4" y="-250.5" fill-rule="evenodd" clip-rule="evenodd" width="1" height="2"/>
		<rect x="-190.4" y="-254.5" fill-rule="evenodd" clip-rule="evenodd" width="1" height="2"/>
		<rect x="-190.4" y="-258.5" fill-rule="evenodd" clip-rule="evenodd" width="1" height="2"/>
		<rect x="-190.4" y="-262.5" fill-rule="evenodd" clip-rule="evenodd" width="1" height="2"/>
		<path fill-rule="evenodd" clip-rule="evenodd" d="M-183-272.3l-3.1,1.8c-1.1-2.4-3.5-4-6.3-4c-3.9,0-7,3.1-7,7v20h4v-20
			c0-1.7,1.3-3,3-3c1.3,0,2.4,0.8,2.8,2l-3.8,2.2l1.5,2.6l10.4-6L-183-272.3z"/>
	</g>
	<path fill-rule="evenodd" clip-rule="evenodd" d="M-120.3-250.7l-9.3-9.6l9.4-9.8c0.1,0.2,0.1,0.5,0.1,0.7v17.6
		C-120-251.3-120.1-251-120.3-250.7z M-148.3-271.5l0.2,0h26.2l0.3,0.1l-13.4,13.9L-148.3-271.5z M-149.8-250.8
		c-0.1-0.3-0.2-0.6-0.2-0.9v-17.6c0-0.3,0.1-0.6,0.1-0.9l9.4,9.9L-149.8-250.8z M-135-254.7l4-4.1l9,9.3h-26.2l-0.1,0l9.2-9.3
		L-135-254.7z"/>
	<path d="M-100-276v30h30v-30H-100z M-79.7-255.5c0,0-6,6.5-7.9,7.3c0,0-7.2-5.9-9.4-9.5c-2.2-3.6-2.9-6.9,1.3-9.1
		c4.3-2.3,7.8,2.1,8.1,3c0,0,3.2-5.8,8.9-2.5C-72.9-262.9-79.7-255.5-79.7-255.5z M-72-270h-3v3h-2v-3h-3v-2h3v-3h2v3h3V-270z"/>
	<path d="M-91-266v11l3.5-2.6l-0.4,5.6l-1.3-0.4l1.6,3.2l2.3-2.7l-1.1,0l1.4-9.2l-4,2v-5L-91-266z"/>
	<path fill-rule="evenodd" clip-rule="evenodd" d="M-38-272h1v23h-1V-272z"/>
	<path fill-rule="evenodd" clip-rule="evenodd" d="M-21.4-259.1l-2.8-4.3l-1.1,2.2l3.9,6.4H-25l-0.6,5.7h-2.8l-0.6-5.7h-3.6l3.9-6.4
		l-1.1-2.2l-2.8,4.3H-34l2.3-5.9c0.3-0.8,1.1-1.3,1.9-1.3h1.4l1.4,2.9l1.4-2.9h1.4c0.8,0,1.6,0.5,1.9,1.3l2.3,5.9H-21.4z M-27-267.7
		c-1.2,0-2.1-1-2.1-2.2c0-1.2,0.9-2.2,2.1-2.2c1.2,0,2.1,1,2.1,2.2C-24.9-268.7-25.8-267.7-27-267.7z"/>
	<path fill-rule="evenodd" clip-rule="evenodd" d="M-43.9-257.7l-0.8,8.6h-2.7l-0.8-8.6H-50v-7.6c0.6-0.3,1.3-0.6,2.1-0.8l1.9,4.1
		l1.9-4.1c0.8,0.2,1.5,0.4,2.1,0.8v7.6H-43.9z M-46-267.7c-1.1,0-2-1-2-2.2c0-1.2,0.9-2.2,2-2.2s2,1,2,2.2
		C-44-268.7-44.9-267.7-46-267.7z"/>
	<path fill-rule="evenodd" clip-rule="evenodd" d="M77.5-256.2l-10.6-5.9c0-0.6,0.4-1.2,0.9-1.5c1.7-1,2.8-2.8,2.8-4.8
		c0-3.1-2.5-5.6-5.6-5.6s-5.6,2.5-5.6,5.6c0,1,0.8,1.9,1.9,1.9s1.9-0.8,1.9-1.9c0-1,0.8-1.9,1.9-1.9c1,0,1.9,0.8,1.9,1.9
		c0,0.7-0.4,1.3-0.9,1.6c-1.7,1-2.8,2.8-2.8,4.7l-10.7,6c-1.4,0.9-2.4,2.8-2.4,4.4c0,2,1.7,3.7,3.7,3.7h22.5c2.1,0,3.7-1.7,3.7-3.7
		C80-253.4,79-255.3,77.5-256.2z M53.8-251.7c0-0.4,0.4-1.1,0.6-1.2l10.6-5.9l10.5,5.9c0.3,0.2,0.7,0.9,0.7,1.3H53.8z"/>
	<path fill-rule="evenodd" clip-rule="evenodd" d="M-100-202.8h30v1h-30V-202.8z"/>
	<path fill-rule="evenodd" clip-rule="evenodd" d="M-87-201.8h4c1.1,0,2-0.9,2-2h-8C-89-202.7-88.1-201.8-87-201.8z"/>
	<path fill-rule="evenodd" clip-rule="evenodd" d="M-77-201.8h4c1.1,0,2-0.9,2-2h-8C-79-202.7-78.1-201.8-77-201.8z"/>
	<path fill-rule="evenodd" clip-rule="evenodd" d="M-83-212.8h-4c-1.1,0-2,0.9-2,2v6h8v-6C-81-211.9-81.9-212.8-83-212.8z
		 M-83.5-211h-3.1c-0.3,0-0.5-0.2-0.5-0.5c0-0.3,0.2-0.5,0.5-0.5h3.1c0.3,0,0.5,0.2,0.5,0.5C-83-211.2-83.2-211-83.5-211z"/>
	<path fill-rule="evenodd" clip-rule="evenodd" d="M-73-212.8h-4c-1.1,0-2,0.9-2,2v6h8v-6C-71-211.9-71.9-212.8-73-212.8z
		 M-73.5-211h-3.1c-0.3,0-0.5-0.2-0.5-0.5c0-0.3,0.2-0.5,0.5-0.5h3.1c0.3,0,0.5,0.2,0.5,0.5C-73-211.2-73.2-211-73.5-211z"/>
	<path fill-rule="evenodd" clip-rule="evenodd" d="M-84-210.8h8v1h-8V-210.8z"/>
	<path fill-rule="evenodd" clip-rule="evenodd" d="M-100-202.8h1v3h-1V-202.8z"/>
	<path fill-rule="evenodd" clip-rule="evenodd" d="M-71-202.8h1v3h-1V-202.8z"/>
	<path fill-rule="evenodd" clip-rule="evenodd" d="M-97-201.8h4c1.1,0,2-0.9,2-2h-8C-99-202.7-98.1-201.8-97-201.8z"/>
	<path fill-rule="evenodd" clip-rule="evenodd" d="M-93-212.8h-4c-1.1,0-2,0.9-2,2v6h8v-6C-91-211.9-91.9-212.8-93-212.8z
		 M-93.5-211h-3.1c-0.3,0-0.5-0.2-0.5-0.5c0-0.3,0.2-0.5,0.5-0.5h3.1c0.3,0,0.5,0.2,0.5,0.5C-93-211.2-93.2-211-93.5-211z"/>
	<path fill-rule="evenodd" clip-rule="evenodd" d="M-94-210.8h8v1h-8V-210.8z"/>
	<path fill="none" d="M-88.5-217.9h-3.1c-0.3,0-0.5,0.2-0.5,0.5c0,0.3,0.2,0.5,0.5,0.5h3.1c0.3,0,0.5-0.2,0.5-0.5
		C-88-217.7-88.2-217.9-88.5-217.9z"/>
	<path fill="none" d="M-78-217.4c0-0.3-0.2-0.5-0.5-0.5h-3.1c-0.3,0-0.5,0.2-0.5,0.5c0,0.3,0.2,0.5,0.5,0.5h3.1
		C-78.2-217-78-217.2-78-217.4z"/>
	<path fill="none" d="M-88-217.4c0-0.3-0.2-0.5-0.5-0.5h-3.1c-0.3,0-0.5,0.2-0.5,0.5c0,0.3,0.2,0.5,0.5,0.5h3.1
		C-88.2-217-88-217.2-88-217.4z"/>
	<path d="M-77-213.3h1v-3.5c0-1.1-0.9-2-2-2h-4c-1.1,0-2,0.9-2,2v3.5h1c1.4,0,2.5,1.1,2.5,2.5v1h1v-1
		C-79.5-212.2-78.4-213.3-77-213.3z M-81.5-217c-0.3,0-0.5-0.2-0.5-0.5c0-0.3,0.2-0.5,0.5-0.5h3.1c0.3,0,0.5,0.2,0.5,0.5
		c0,0.3-0.2,0.5-0.5,0.5H-81.5z"/>
	<path d="M-87-213.3h1v-3.5c0-1.1-0.9-2-2-2h-4c-1.1,0-2,0.9-2,2v3.5h1c1.4,0,2.5,1.1,2.5,2.5v1h1v-1
		C-89.5-212.2-88.4-213.3-87-213.3z M-91.5-217c-0.3,0-0.5-0.2-0.5-0.5c0-0.3,0.2-0.5,0.5-0.5h3.1c0.3,0,0.5,0.2,0.5,0.5
		c0,0.3-0.2,0.5-0.5,0.5H-91.5z"/>
	<g>
		<path d="M-179.9-202.1c-0.5-0.3-1.2-0.2-1.5,0.4c-1.4,2.2-3.7,3.5-6.3,3.5c-4.1,0-7.4-3.4-7.4-7.5c0-2.4,1.2-4.7,3.1-6.1
			c0.5-0.4,0.6-1,0.2-1.5c-0.4-0.5-1-0.6-1.5-0.3c-2.5,1.8-4,4.8-4,7.9c0,5.3,4.3,9.7,9.6,9.7c3.3,0,6.4-1.7,8.1-4.6
			C-179.2-201.1-179.3-201.8-179.9-202.1z"/>
		<path d="M-172.3-201.5c-0.2-0.6-0.8-0.9-1.4-0.7l-1.3,0.5c0,0-2.4-6.8-2.5-6.9c0,0-0.1-0.1-0.1-0.2c-0.3-0.5-0.9-0.9-1.5-0.9h-5.7
			l-0.1-2.1h4.7c0.6,0,1.1-0.5,1.1-1.1c0-0.6-0.5-1.1-1.1-1.1h-4.9l-0.2-3.1c0,0,0-0.1,0-0.1c-0.1-1.5-1.4-2.7-2.9-2.6
			c-1.5,0.1-2.7,1.4-2.6,2.9v0l0,0l0.4,8.1l0,0c0,0,0,0,0,0c0.1,1.5,1.3,2.6,2.7,2.6c0,0,7.4,0,7.4,0l2.2,6.1
			c0.2,0.7,0.9,1.1,1.5,1.1c0.1,0,0.2,0,0.3,0c0.1,0,0.1,0,0.2-0.1l2.9-1.1C-172.4-200.2-172.1-200.9-172.3-201.5z"/>
		
			<ellipse transform="matrix(5.248704e-02 0.9986 -0.9986 5.248704e-02 -401.4174 -23.9805)" cx="-188.1" cy="-223.5" rx="2.5" ry="2.5"/>
	</g>
	<g>
		<path fill-rule="evenodd" clip-rule="evenodd" d="M-123-215.8c0-0.1,0-0.1,0-0.2c0-2-1.5-3.6-3.4-3.7c-0.7-0.8-1.7-1.3-2.8-1.3
			c-1.3,0-2.5,0.7-3.2,1.7c-0.5-0.3-1.2-0.5-1.8-0.5c-2.1,0-3.7,1.7-3.7,3.7c0,0.1,0,0.1,0,0.2c-1.5,0.5-2.5,1.9-2.5,3.5
			c0,0.1,0,0.2,0,0.2h-6h-1h-2v2h2v1h-2v1h2v1v1h1h7h1v-1v-1h2v-0.5c0.6,0,1.1-0.2,1.6-0.5c0.6,0.3,1.2,0.5,1.9,0.5
			c0.4,0,0.9-0.1,1.2-0.2v6.5h-1.2v1.2h5v-1.2h-1.2v-6.2c0.2,0,0.4,0,0.6-0.1c0.2,0,0.4,0.1,0.6,0.1c0.7,0,1.3-0.2,1.9-0.5
			c0.6,0.3,1.2,0.5,1.9,0.5c2.1,0,3.7-1.7,3.7-3.7C-120.5-213.9-121.6-215.3-123-215.8z M-146.5-210h6.8c0.1,0.1,0.1,0.2,0.2,0.3
			v0.7h-7V-210z M-139.5-207h-7v-1h7V-207z"/>
		<polygon fill-rule="evenodd" clip-rule="evenodd" points="-139.5,-205 -146.5,-205 -148.5,-205 -149.5,-205 -149.5,-204 
			-148.5,-204 -148.5,-201 -146.5,-201 -146.5,-204 -145.5,-204 -145.5,-202 -144.5,-202 -144.5,-204 -141.5,-204 -141.5,-202 
			-140.5,-202 -140.5,-204 -139.5,-204 -139.5,-201 -137.5,-201 -137.5,-204 -136.5,-204 -136.5,-205 -137.5,-205 		"/>
	</g>
	<g>
		<path fill-rule="evenodd" clip-rule="evenodd" d="M15.8-265.1c-0.1-0.2-0.2-0.4-0.4-0.5c-0.2-0.1-0.5-0.2-0.8-0.2h-1v4.4h0.9
			c0.4,0,0.7-0.1,0.9-0.2s0.4-0.3,0.5-0.4c0.1-0.2,0.2-0.4,0.2-0.7c0-0.3,0-0.6,0-0.9c0-0.3,0-0.6,0-0.9
			C16-264.7,15.9-264.9,15.8-265.1z"/>
		<path fill-rule="evenodd" clip-rule="evenodd" d="M21.4-273.1H8.1c-1.1,0-2,0.9-2,2v20c0,1.1,0.9,2,2,2h13.3c1.1,0,2-0.9,2-2v-20
			C23.4-272.2,22.5-273.1,21.4-273.1z M17.6-262.1c-0.1,0.4-0.2,0.8-0.4,1.1c-0.3,0.4-0.6,0.7-1,1s-1,0.4-1.7,0.4h-0.9v5h-1.8v-12.8
			h2.8c0.5,0,0.9,0.1,1.3,0.2c0.4,0.1,0.7,0.4,1,0.7c0.3,0.3,0.5,0.7,0.6,1.2c0.1,0.4,0.2,1.1,0.2,1.8
			C17.7-263,17.7-262.5,17.6-262.1z"/>
	</g>
	<path fill-rule="evenodd" clip-rule="evenodd" d="M-20.2-149.3L-34-173.8c-0.5-1-1.4-1-2,0l-13.8,24.6c-0.5,1-0.1,1.7,1,1.7h27.6
		C-20.1-147.5-19.7-148.3-20.2-149.3z M-33-152.5c0,0.6-0.5,1-1,1h-2c-0.5,0-1-0.4-1-1v-2c0-0.6,0.5-1,1-1h2c0.5,0,1,0.5,1,1V-152.5
		z M-33-158.5c0,0.6-0.4,1-1,1h-2c-0.5,0-1-0.4-1-1v-6c0-0.6,0.5-1,1-1h2c0.5,0,1,0.5,1,1L-33-158.5z"/>
	<g>
		<path d="M19.6-168c-1.4-0.4-3-0.7-4.6-0.7c-7.1,0-13,5.2-14.8,6.9c-0.3,0.3-0.3,0.8,0,1.1c1,1,3.5,3.2,6.9,4.9L19.6-168z"/>
		<path d="M29.8-161.8c-1.1-1-3.7-3.4-7.1-5l2.8-2.7H23l-17.4,17h2.4l2.2-2.1c1.5,0.5,3.2,0.8,4.9,0.8c7.1,0,13-5.2,14.8-6.9
			C30.1-161,30.1-161.5,29.8-161.8z M20.1-160.2c-0.4,1.9-2,3.5-4,3.9c-1.4,0.3-2.6,0-3.7-0.6l2.2-2.2c0.1,0,0.2,0,0.4,0
			c1.3,0,2.3-1,2.3-2.3c0-0.1,0-0.2,0-0.4l2.2-2.2C20.1-162.8,20.4-161.5,20.1-160.2z"/>
	</g>
	<g>
		<polygon points="65.9,-173.5 64,-173.5 64,-167.5 65.9,-167.5 		"/>
		<polygon points="74,-158.2 80,-159.4 79.5,-161.7 73.6,-160.5 		"/>
		<polygon points="76.3,-168.3 74.6,-169.9 70.4,-165.7 72,-164 		"/>
		<polygon points="56.4,-160.5 50.5,-161.7 50,-159.4 56,-158.2 		"/>
		<path d="M73-152.5l-2.3-10.9c-0.2-1.2-1.3-2.1-2.7-2.1l-5,0c-1.4,0-2.7,0.9-3,2.1l-2,10.9c0,0.1,0,0,0,1h-3l0.1,3H76v-3h-3
			C73-152.5,73-152.4,73-152.5z M65.1-152.5l-0.1-11h2c1.1,0,1.8,0.1,2,1l1,5c0,0.1,1,5,1,5H65.1z"/>
		<polygon points="59.6,-165.7 55.4,-169.9 53.7,-168.3 58,-164 		"/>
	</g>
	<path fill-rule="evenodd" clip-rule="evenodd" d="M-33.2-196h-4v-11h-2v-9c0-2.1,0.9-3,3-3h2c2.1,0,3,0.9,3,3v9h-2V-196z
		 M-35.2-220.4c-1.6,0-2.8-1.3-2.8-2.8c0-1.6,1.3-2.8,2.8-2.8s2.8,1.3,2.8,2.8C-32.4-221.7-33.6-220.4-35.2-220.4z"/>
	<path fill-rule="evenodd" clip-rule="evenodd" d="M-44.2-196h-4v-11h-2v-9c0-2.1,0.9-3,3-3h2c2.1,0,3,0.9,3,3v9h-2V-196z
		 M-46.2-220.4c-1.6,0-2.8-1.3-2.8-2.8c0-1.6,1.3-2.8,2.8-2.8s2.8,1.3,2.8,2.8C-43.4-221.7-44.6-220.4-46.2-220.4z"/>
	<path fill-rule="evenodd" clip-rule="evenodd" d="M-22.2-196h-4v-11h-2v-9c0-2.1,0.9-3,3-3h2c2.1,0,3,0.9,3,3v9h-2V-196z
		 M-24.2-220.4c-1.6,0-2.8-1.3-2.8-2.8c0-1.6,1.3-2.8,2.8-2.8s2.8,1.3,2.8,2.8C-21.4-221.7-22.6-220.4-24.2-220.4z"/>
	<path fill-rule="evenodd" clip-rule="evenodd" d="M14.6-223c-5,0-9,4-9,9c0,6,9,15,9,15s9-9,9-15C23.6-219,19.6-223,14.6-223z
		 M14.6-209.9c-2.6,0-4.7-2.1-4.7-4.7c0-2.6,2.1-4.7,4.7-4.7s4.7,2.1,4.7,4.7C19.3-212.1,17.2-209.9,14.6-209.9z"/>
	<path fill-rule="evenodd" clip-rule="evenodd" d="M69.1-215.9c1,0,1.8,0.8,1.8,1.9c0,1-0.8,1.9-1.8,1.9h-6.7
		c-0.1,0.4-0.1,0.8-0.1,1.1c0,0.4,0,0.8,0.1,1.1h6.7c1,0,1.8,0.8,1.8,1.9c0,1-0.8,1.9-1.8,1.9h-5.6c1.7,3.2,5,5.3,8.5,5.3h0.4
		c0.8,0,1.4,0.7,1.4,1.7c0,1-0.6,1.9-1.3,2l0,0H72c-5.5,0-10.5-3.6-12.4-9.1h-2c-1,0-1.8-0.8-1.8-1.9c0-1,0.8-1.9,1.8-1.9h1.2v0
		c-0.1-0.4-0.1-0.7-0.1-1.1c0-0.4,0-0.7,0.1-1.1v0h-1.2c-1,0-1.8-0.8-1.8-1.9c0-1,0.8-1.9,1.8-1.9h2c2-5.4,6.9-9.1,12.4-9.1h0.4
		c0.8,0.1,1.4,1,1.4,2c0,1-0.5,1.7-1.2,1.7l-0.6,0c-3.5,0-6.8,2.1-8.5,5.3H69.1z"/>
	<path fill-rule="evenodd" clip-rule="evenodd" d="M-176.6-174.4l-0.3,0.2c-1.1,0.5-2.8,6.3-2.8,6.7l0,0.4c0.2,0.8,0.9,1.7,2.5,3.5
		c-0.9,2.1-3.4,4.9-4.9,6.2c-1.6,1.4-4.3,3.2-6.3,3.9c-1.8-2.1-2.6-2.9-3.5-3c-0.5,0-6.4,1-6.9,2l-0.2,0.3c-0.4,0.7-1.1,1.7-0.8,2.8
		c0.1,0.3,0.2,0.5,0.3,0.8c0.5,0.8,1.7,2.6,3.4,3.4c1,0.5,10.4,0.8,18.3-6.3c7.8-7,8.2-15.6,7.9-16.9l0,0l0-0.1
		c-0.6-1.8-2.3-3.2-3-3.8C-174.3-175.5-175.8-174.8-176.6-174.4z"/>
	<path fill-rule="evenodd" clip-rule="evenodd" d="M-147.2-173v18h18v-18H-147.2z M-131.2-157h-14v-14h14V-157z"/>
	<path fill-rule="evenodd" clip-rule="evenodd" d="M-125.2-159v-10h-2l3-4l3,4h-2v10h2l-3,4l-3-4"/>
	<path fill-rule="evenodd" clip-rule="evenodd" d="M-133.2-149h-10v2l-4-3l4-3v2h10v-2l4,3l-4,3"/>
	<g opacity="0.4">
		<path fill-rule="evenodd" clip-rule="evenodd" d="M-91.5-156.1l4-4c-0.1-0.2-0.1-0.5-0.1-0.7c0-1,0.6-1.9,1.5-2.3v-9.9
			c0-0.5,0.5-1,1-1c-7.2,0-13,5.8-13,13c0,3.6,1.5,6.8,3.8,9.2l2.8-2.8C-91.9-155.1-91.9-155.7-91.5-156.1z"/>
	</g>
	<g>
		<g>
			<path fill-rule="evenodd" clip-rule="evenodd" d="M-85.2-176c-1,0-2,0.1-3,0.3c-1,0.2-1.9,0.5-2.8,0.9c-1.3,0.6-2.6,1.3-3.7,2.2
				s-2.1,2-2.9,3.2c-1.6,2.4-2.6,5.3-2.6,8.4c0,1.6,0.2,3.1,0.7,4.5c0.7,2.3,2,4.4,3.7,6.1c0.3,0.3,0.7,0.7,1.1,1
				c0.7,0.6,1.5,1.2,2.4,1.6c0.4,0.2,0.9,0.4,1.3,0.6c0.9,0.4,1.8,0.7,2.8,0.9c1,0.2,2,0.3,3,0.3c8.3,0,15-6.7,15-15
				C-70.2-169.3-76.9-176-85.2-176z M-85.2-158.3c-0.3,0-0.6-0.1-0.9-0.2l-3.9,3.9c-0.4,0.4-1.1,0.4-1.5,0c0,0,0,0,0,0l-2.8,2.8
				c-2.4-2.4-3.8-5.6-3.8-9.2c0-7.2,5.8-13,13-13c0.5,0,1,0.5,1,1v9.9c0.9,0.4,1.5,1.3,1.5,2.3C-82.7-159.4-83.8-158.3-85.2-158.3z"
				/>
		</g>
	</g>
	<path fill-rule="evenodd" clip-rule="evenodd" d="M-184-99.1h-2l-14-2V-121h2v18.2l12,1.7h2l12-1.7V-121h2v19.9L-184-99.1z
		 M-184-120.9c3.6-2.1,10-2.1,10-2.1v17.9c0,0-6.4,0-10,2.1V-120.9z M-196-123c0,0,6.4,0,10,2.1v17.9c-3.6-2.1-10-2.1-10-2.1V-123z"
		/>
	<path fill-rule="evenodd" clip-rule="evenodd" d="M-120.5-117.1l-0.2,0.1l0,0l-2.7,2.7l-8.4-8.4l2.7-2.7l0,0l0.1-0.2
		c0.7-0.7,2-0.7,2.7,0.1l5.6,5.6C-119.8-119-119.8-117.8-120.5-117.1z M-143-105.9l12.5-12.6l2.8,2.8l-12.5,12.6l1.4,1.4l12.5-12.6
		l1.4,1.4l-13.9,14l-8.4-8.4l13.9-14l1.4,1.4l-12.5,12.6L-143-105.9z M-140.2-97.4l-4.9,0.7L-150-96l0.7-4.9l0.7-4.9l4.2,4.2
		L-140.2-97.4z"/>
	<path fill-rule="evenodd" clip-rule="evenodd" d="M-74-97l-26,0v-28l30,0v24L-74-97z M-91-99h12v-7h-12V-99z M-76-123h-18v12h18
		V-123z M-89-104l4,0v3h-4V-104z"/>
	<path fill-rule="evenodd" clip-rule="evenodd" d="M-50-114l3-2l8,14l16-23l3,2l-19,27L-50-114"/>
	<path fill-rule="evenodd" clip-rule="evenodd" d="M23.6-118.2l-1.8-1.8l-7.2,7.2L7.4-120l-1.8,1.8l7.2,7.2l-7.2,7.2l1.8,1.8
		l7.2-7.2l7.2,7.2l1.8-1.8l-7.2-7.2L23.6-118.2z"/>
	<path fill-rule="evenodd" clip-rule="evenodd" d="M64.8-119.5c-4.7,0-8.5,3.8-8.5,8.5s3.8,8.5,8.5,8.5s8.5-3.8,8.5-8.5
		S69.5-119.5,64.8-119.5z M69.8-108.3l-2.2,2.2l-2.8-2.8l-2.8,2.8l-2.2-2.2l2.8-2.8l-2.8-2.8l2.2-2.2l2.8,2.8l2.8-2.8l2.2,2.2
		L67-111L69.8-108.3z"/>
	<path fill-rule="evenodd" clip-rule="evenodd" d="M-177.7-68.7c-0.9,0-1.6-0.7-1.6-1.6c0-0.9,0.7-1.6,1.6-1.6
		c0.9,0,1.6,0.7,1.6,1.6C-176.2-69.4-176.9-68.7-177.7-68.7z M-179.9-74c-0.4,0-0.8-0.2-1.1-0.5c-0.6-0.6-0.6-1.6,0-2.2
		c0.3-0.3,0.7-0.5,1.1-0.5c0.4,0,0.8,0.2,1.1,0.5c0.6,0.6,0.6,1.6,0,2.2C-179.1-74.1-179.5-74-179.9-74z M-185.2-75.2
		c-1.4,0-2.5-1.1-2.5-2.5c0-1.4,1.1-2.5,2.5-2.5c1.4,0,2.5,1.1,2.5,2.5C-182.7-76.3-183.8-75.2-185.2-75.2z M-190.4-63.4
		c-0.4,0-0.8-0.2-1.1-0.5c-0.6-0.6-0.6-1.6,0-2.2c0.3-0.3,0.7-0.5,1.1-0.5c0.4,0,0.8,0.2,1.1,0.5c0.6,0.6,0.6,1.6,0,2.2
		C-189.6-63.5-190-63.4-190.4-63.4z M-190.4-74c-0.4,0-0.8-0.2-1.1-0.5c-0.6-0.6-0.6-1.6,0-2.2c0.3-0.3,0.7-0.5,1.1-0.5
		c0.4,0,0.8,0.2,1.1,0.5c0.6,0.6,0.6,1.6,0,2.2C-189.6-74.1-190-74-190.4-74z M-191.1-70.2c0,0.9-0.7,1.6-1.6,1.6
		c-0.9,0-1.6-0.7-1.6-1.6s0.7-1.6,1.6-1.6C-191.8-71.8-191.1-71.1-191.1-70.2z M-185.2-64.3c0.9,0,1.6,0.7,1.6,1.6
		c0,0.9-0.7,1.6-1.6,1.6c-0.9,0-1.6-0.7-1.6-1.6C-186.7-63.6-186-64.3-185.2-64.3z M-179.9-66.5c0.4,0,0.8,0.2,1.1,0.5
		c0.6,0.6,0.6,1.6,0,2.2c-0.3,0.3-0.7,0.5-1.1,0.5c-0.4,0-0.8-0.2-1.1-0.5c-0.6-0.6-0.6-1.6,0-2.2
		C-180.7-66.3-180.3-66.5-179.9-66.5z"/>
	<g>
		<circle fill-rule="evenodd" clip-rule="evenodd" cx="15" cy="-81.6" r="2.3"/>
		<rect x="0.2" y="-73.2" fill-rule="evenodd" clip-rule="evenodd" width="1.8" height="7.3"/>
		<path fill-rule="evenodd" clip-rule="evenodd" d="M24.7-70.3H21l-0.1-6.3c0-1.2-1-2.2-2.2-2.2h-7.6c-1.2,0-2.2,1-2.2,2.2l0,6.3
			H5.3v-4.1H2.8v9.6h2.5v-4.1h3.7h2.1h0.6c-0.2,3.6-0.6,12.2-0.6,12.2h2.9l0.6-11.2c0.1,0,0.5,0,0.6,0l0.9,11.2h2.9
			c0,0-0.6-8.6-0.8-12.2h0.6h2.1h3.8v4.1h2.5v-9.6h-2.5V-70.3z M11.2-70.3L11.2-70.3v-4.7c0-0.2,0.1-0.3,0.3-0.3
			c0.2,0,0.3,0.1,0.3,0.3v3.9c0,0,0,0.3,0,0.8H11.2z M18.8-70.3h-0.6c0-0.5,0-0.8,0-0.8v-3.9c0-0.2,0.1-0.3,0.3-0.3
			c0.2,0,0.3,0.1,0.3,0.3V-70.3z"/>
		<rect x="28" y="-73.2" fill-rule="evenodd" clip-rule="evenodd" width="1.8" height="7.3"/>
	</g>
	<g>
		<path fill="#010101" d="M67.9-63.4c1.5-0.1,2.9-0.2,2.9-0.2l-2.2-1.3l-2.7-1.5l-4.1-2.3l-2.7-1.5l-2.2-1.3c0,0,0.7,1.2,1.4,2.5
			c0.8,1.5,1.5,3.1,1.4,3.4c-0.2,0.7-3.2,5.3-3.9,6.3c-0.5,0.8,0.9,2.2,1.9,2.8c1,0.5,2.9,1,3.3,0.1c0.5-1.3,2.8-6.1,3.3-6.6
			C64.5-63.1,66.3-63.3,67.9-63.4z"/>
		<g>
			<path fill="#010101" d="M76.7-68.8c3.3-5.8,1.8-12.8-3.3-15.7c-5.1-2.8-11.8-0.4-15.1,5.4c-1.2,2.2-1.8,4.5-1.7,6.7l15.3,8.6
				C73.7-64.9,75.4-66.6,76.7-68.8z"/>
		</g>
	</g>
	<circle fill="#010101" cx="55.6" cy="-82.6" r="2.6"/>
	<g>
		<path d="M-172.5-31.6v-3.5l-5.5-4.5l-1.3,1.1c-1-0.9-2.3-1.5-3.7-1.5c-2,0-3.7,1-4.7,2.6c-0.8-0.5-1.7-0.7-2.7-0.7
			c-3.1,0-5.6,2.5-5.6,5.6c0,0.1,0,0.2,0,0.3c-1.9,0.7-3.3,2.3-3.7,4.3c0,0,0,0.1,0,0.1c0,0.3-0.1,0.5-0.1,0.8c0,0,0,0,0,0
			c0,0,0,0,0,0c0,0,0,0,0,0c0,3.1,2.5,5.5,5.6,5.5c0.1,0,0.2,0,0.4,0l0,0c0.3,0,0.5-0.1,0.8-0.1v1.3c-1.3,0.2-2.3,1.4-2.3,2.8
			c0,1.6,1.3,2.8,2.8,2.8c1.6,0,2.8-1.3,2.8-2.8c0-1.4-1-2.5-2.3-2.8v-1.6c0.2-0.1,0.4-0.2,0.6-0.3c0.8,0.5,1.8,0.8,2.8,0.8
			c0.7,0,1.3-0.1,1.9-0.3v9.7h-1.9v1.9h7.5v-1.9h-1.9v-9.3c0.3,0,0.6,0,0.9-0.1c0.3,0.1,0.6,0.1,0.9,0.1c1,0,2-0.3,2.8-0.8
			c0.8,0.5,1.8,0.8,2.8,0.8c3.1,0,5.6-2.5,5.6-5.6C-170-28.9-171-30.6-172.5-31.6z M-190.8-17.4c0,1-0.8,1.8-1.8,1.8
			c-1,0-1.8-0.8-1.8-1.8s0.8-1.8,1.8-1.8C-191.6-19.2-190.8-18.4-190.8-17.4z M-173.5-27.2h-4.5v-4.1h-3v4.1h-1.5v-7.5l4.5-3.7
			l4.5,3.7V-27.2z"/>
		<circle cx="-175.7" cy="-33.9" r="1.3"/>
	</g>
	<g>
		<g>
			<polygon fill="#010101" points="-123,-21.2 -146.6,-17.9 -150,-21 -149.1,-21.9 -146.2,-19.3 -123.7,-22.4 -121,-25.9 
				-120,-25.2 			"/>
		</g>
		<g>
			<g>
				<circle fill="#010101" cx="-142.9" cy="-16.2" r="1.5"/>
			</g>
			<g>
				<g>
					<circle fill="#010101" cx="-125.5" cy="-18.6" r="1.5"/>
				</g>
			</g>
		</g>
	</g>
	<g>
		<polygon fill="#010101" points="-90.3,-26.4 -88.2,-20.2 -81.8,-20.2 -79.7,-26.4 -85,-30.2 		"/>
		<path fill="#010101" d="M-85-40.2c-8.3,0-15,6.7-15,15s6.7,15,15,15s15-6.7,15-15S-76.7-40.2-85-40.2z M-73.4-20.3
			c-0.4,0.9-0.9,1.8-1.5,2.6l-0.1-1.3l-4.7,1.1l-2.5,4.2l1.3,0.6c-1.3,0.4-2.7,0.7-4.1,0.7c-1.4,0-2.7-0.2-4-0.7l1.3-0.6l-2.5-4.2
			l-4.7-1.1l-0.1,1.4c-0.6-0.8-1.1-1.7-1.5-2.6c-0.7-1.6-1-3.2-1-4.9c0,0,0-0.1,0-0.1l0.9,0.9l3.2-3.7l-0.4-4.8l-1.2,0.2
			c0.4-0.5,0.8-1,1.3-1.5c1.2-1.2,2.5-2.1,4-2.7c0.3-0.1,0.7-0.3,1-0.4l-0.6,1.1l4.5,1.9l4.5-1.9l-0.6-1.1c0.4,0.1,0.7,0.2,1.1,0.4
			c1.5,0.6,2.9,1.5,4,2.7c0.5,0.5,0.9,1,1.3,1.5l-1.2-0.2l-0.4,4.8l3.2,3.7l0.9-0.9c0,0,0,0,0,0.1C-72.4-23.5-72.7-21.8-73.4-20.3z"
			/>
	</g>
	<g id="Layer_4">
		<polygon fill="#010101" points="-36.8,-12.2 -34.2,-12.2 -34.2,-17.4 -35.5,-18.9 -36.8,-17.4 		"/>
		<g>
			<path fill="#010101" d="M-39.4-35.5c-0.4-0.2-0.6-0.6-0.7-1c-0.1-0.4,0-0.8,0.2-1.2c0.2-0.4,0.6-0.6,1-0.7c0.4-0.1,0.8,0,1.2,0.2
				c0.4,0.2,0.6,0.6,0.7,1c0.1,0.4,0,0.8-0.2,1.2c-0.2,0.4-0.6,0.6-1,0.7C-38.7-35.2-39.1-35.2-39.4-35.5z"/>
			<path fill="#010101" d="M-46.4-29.2l4-0.6l-2.4-2.4c-0.1-0.1-0.2-0.3-0.3-0.5c-0.2-0.6,0.1-0.9,0.6-1.3l2.3-2
				c0.2-0.2,0.4-0.3,0.6-0.3c0.4-0.1,0.7,0,1,0.2c0.3,0.2,0.5,0.5,0.6,0.9c0.1,0.5-0.1,0.9-0.5,1.2l-1.9,1.6l2,2
				c0.1,0.1,0.2,0.3,0.2,0.6c0,0.3,0,0.5-0.2,0.7c-0.2,0.3-0.4,0.4-0.7,0.5l-5.1,0.9L-46.4-29.2z"/>
		</g>
		<path fill="#010101" d="M-22.9-22.1c-0.4,0.2-0.8,0.2-1.2,0.1c-0.4-0.1-0.7-0.4-0.9-0.8c-0.2-0.4-0.2-0.8-0.1-1.2
			c0.1-0.4,0.4-0.7,0.8-0.9c0.4-0.2,0.8-0.2,1.2-0.1c0.4,0.1,0.7,0.4,0.9,0.8c0.2,0.4,0.2,0.8,0.1,1.2
			C-22.3-22.6-22.5-22.3-22.9-22.1z"/>
		<path fill="#010101" d="M-49.5-25.9l21.1,8c0.1-0.2,0.2-0.3,0.4-0.4c0.2-0.1,0.5-0.2,0.7-0.1l2.7,0.7l0-2.5c0-0.5,0.2-0.9,0.7-1.2
			c0.3-0.2,0.7-0.2,1.1-0.1c0.4,0.1,0.7,0.3,0.8,0.7c0.1,0.2,0.1,0.4,0.1,0.7l0,3.1c0,0.6-0.1,1-0.7,1.3c0,0-0.1,0-0.2,0l2.8,1
			l-0.5,1.4l-4.9-1.9l-0.6-1.1l-0.2,0.1l-0.2,0.1l1.8,3.4l-0.7,0.4l-0.8,0.3l-2.3-4.4L-50-24.5L-49.5-25.9z"/>
	</g>
	<circle fill="none" cx="6.4" cy="-33.3" r="0.7"/>
	<circle fill="none" cx="4.6" cy="-31.5" r="0.7"/>
	<circle fill="none" cx="4" cy="-33.9" r="0.7"/>
	<g>
		<path fill="#010101" d="M19.6-25.8c0.3,0,0.7,0.1,1,0.2l0.9,0.3l-1.1-11.7l-0.3-3.1h-3.1l-0.3,3.1h-3.9l-0.3-3.1H9.4l-0.3,3.1H5.3
			L5-40.2H1.9l-0.3,3.1h0l-1.7,18.8c0,0,4.8,1.6,11,1.6c1.6,0,3.1-0.1,4.5-0.3l1.4-6.6C17.1-24.9,18.2-25.8,19.6-25.8z M3.5-34.4
			c0.3-0.3,0.7-0.3,1,0c0.3,0.3,0.3,0.7,0,1c-0.3,0.3-0.7,0.3-1,0C3.2-33.7,3.2-34.1,3.5-34.4z M5.1-31c-0.3,0.3-0.7,0.3-1,0
			c-0.3-0.3-0.3-0.7,0-1c0.3-0.3,0.7-0.3,1,0C5.4-31.8,5.4-31.3,5.1-31z M6.9-32.8c-0.3,0.3-0.7,0.3-1,0c-0.3-0.3-0.3-0.7,0-1
			c0.3-0.3,0.7-0.3,1,0C7.2-33.5,7.2-33,6.9-32.8z"/>
		<circle fill="#010101" cx="23.5" cy="-12.1" r="0.7"/>
		<path fill="#010101" d="M29.4-20.3l-3.3-1.2L29.5-32l-2.8-1l-3.4,10.5l-3.3-1.2c-0.1,0-0.2-0.1-0.3-0.1c-0.4,0-0.7,0.3-0.8,0.7
			l-1.9,9.3c-0.1,0.3,0,0.5,0.1,0.7c1-0.8,2.3-1.6,3.9-2.2c2-0.8,4.7-0.7,6.7,0.5l2.3-4.3C30.2-19.6,29.9-20.1,29.4-20.3z"/>
		<circle fill="#010101" cx="25.6" cy="-13.4" r="0.7"/>
		<circle fill="#010101" cx="25.6" cy="-10.9" r="0.7"/>
	</g>
	<path fill="none" d="M-127.6-75l-0.4,0.7c0.3,0.2,0.6,0.4,0.9,0.5l0.4-0.7C-127.1-74.6-127.4-74.8-127.6-75z"/>
	<path fill="none" d="M-129.9-71.3c0.3,0.1,0.6,0.3,0.9,0.5l0.4-0.7c-0.3-0.2-0.6-0.3-0.9-0.5L-129.9-71.3z"/>
	<circle cx="-145.9" cy="-62.3" r="4.1"/>
	<path d="M-120.1-69.6c-1.7,1.4-2.8,3.6-2.8,6c0,0.7,0.1,1.4,0.3,2.1c1.6-1.8,2.6-4.2,2.6-6.8C-120-68.8-120-69.2-120.1-69.6z"/>
	<path d="M-130.2-78.5c-0.1,0-0.3,0-0.4,0c0.5,1.1,1.2,2.1,2.1,2.9l1.5-2.4C-128-78.3-129.1-78.5-130.2-78.5z"/>
	<path d="M-126.7-74.5l1.7-2.7c-0.3-0.2-0.6-0.3-0.9-0.5l-1.7,2.6C-127.4-74.8-127.1-74.6-126.7-74.5z"/>
	<path d="M-123.3-73.7c0.6,0,1.2-0.1,1.7-0.2c-0.7-1.1-1.6-2-2.6-2.7l-1.6,2.5C-125-73.8-124.2-73.7-123.3-73.7z"/>
	<path d="M-131.4-78.5c-4.9,0.6-8.7,4.6-8.9,9.6c1.5-2.4,4.2-4,7.3-4c0.9,0,1.8,0.1,2.6,0.4l1.6-2.5
		C-130-75.9-130.9-77.1-131.4-78.5z"/>
	<path d="M-129.5-72c0.3,0.1,0.6,0.3,0.9,0.5l1.4-2.2c-0.3-0.2-0.6-0.3-0.9-0.5L-129.5-72z"/>
	<path d="M-120.2-70.6c-0.2-0.9-0.5-1.8-0.9-2.5c-0.7,0.2-1.4,0.3-2.1,0.3c-1,0-2-0.2-2.9-0.5l-1.5,2.4c2,1.6,3.3,4,3.3,6.8
		c0,1.9-0.6,3.6-1.7,5.1c1-0.5,1.9-1.1,2.8-1.8c-0.3-0.9-0.5-1.8-0.5-2.7C-123.7-66.5-122.4-69-120.2-70.6z"/>
	<path d="M-130.2-58.2c0.9,0,1.7-0.1,2.6-0.3c1.5-1.4,2.4-3.4,2.4-5.6c0-2.5-1.1-4.7-2.9-6.1l-6.8,10.9
		C-133.5-58.6-131.9-58.2-130.2-58.2z"/>
	<path d="M-129.9-71.3l-6.7,10.8c0.3,0.2,0.5,0.4,0.8,0.6l6.8-10.9C-129.3-71-129.6-71.2-129.9-71.3z"/>
	<path d="M-133.1-72c-3.2,0-6,2-7.2,4.8c0.3,2.3,1.3,4.4,2.8,5.9l6.5-10.4C-131.6-71.9-132.3-72-133.1-72z"/>
	<path fill="#010101" d="M-22.1-66.8c0.1-0.5,0.1-1,0.1-1.5c0-4.2-3.5-7.6-7.8-7.6c-0.2,0-0.5,0-0.7,0c-1,0.8-2.2,1.5-3.6,2.1
		c-1.2,0.6-2.4,1.1-3.5,1.4c0-0.2,0-0.4-0.1-0.5c1.1-0.3,2.2-0.8,3.4-1.4c0.9-0.5,1.8-0.9,2.5-1.4c1-0.7,1.9-1.4,2.6-2.1
		c1.1-1.2,1.6-2.2,1.3-2.8c-0.2-0.5-0.9-0.7-2-0.7c-1.8,0-4.4,0.8-7,2c-2.1,1-3.7,2.2-4.8,3.2c-1.4-0.2-3,0.1-4.5,0.9
		c-3.2,1.7-4.8,5-3.5,7.4c1,1.8,3.3,2.6,5.8,2.1l0.1,0.1c-1.3,2.1-1.3,4.8-1.3,4.8h3.2h2.7c0-2.8,4-3.2,4.2-3.2l0,0.3l0,0.3
		c0,0-0.2,0-0.5,0.1c-0.9,0.2-3.1,0.8-3.2,2.4c0,0.1,0,0.1,0,0.2h2.2h6.9l0,0c2.2-0.1,4.1-1,5.5-2.5c0.4,0.5,1,0.8,1.7,0.8
		c1.2,0,2.3-1,2.3-2.3C-20-65.7-20.9-66.7-22.1-66.8z M-45.6-70.9c-0.5,0-0.9-0.4-0.9-0.9c0-0.5,0.4-0.9,0.9-0.9
		c0.5,0,0.9,0.4,0.9,0.9C-44.7-71.3-45.1-70.9-45.6-70.9z"/>
	<path fill="#010101" d="M82-13.4l-9.4-9.4c1.2-1.8,1.9-4,1.9-6.2c0-3-1.2-5.8-3.3-7.9c-2.1-2.1-4.9-3.3-7.9-3.3
		c-3,0-5.8,1.2-7.9,3.3c-2.1,2.1-3.3,4.9-3.3,7.9s1.2,5.8,3.3,7.9c2.1,2.1,4.9,3.3,7.9,3.3c2.3,0,4.4-0.7,6.3-1.9l9.4,9.4
		c0.3,0.3,0.9,0.2,1.3-0.2l1.6-1.6C82.3-12.5,82.3-13.1,82-13.4z M63.4-20.9c-4.5,0-8.1-3.7-8.1-8.1s3.6-8.1,8.1-8.1
		s8.1,3.7,8.1,8.1S67.9-20.9,63.4-20.9z"/>
	<g id="Your_Icon">
		<path fill="#010101" d="M82.2,6.5H57.9L56.8,3h-4.7l0.6,1.7h2.8l5.5,17.2c-1.2,0.2-2.1,1.3-2.1,2.5c0,1.4,1.2,2.6,2.6,2.6
			c1.4,0,2.6-1.1,2.6-2.6c0-0.3-0.1-0.6-0.2-0.9h7.2c-0.1,0.3-0.2,0.6-0.2,0.9c0,1.4,1.2,2.6,2.6,2.6c1.4,0,2.6-1.1,2.6-2.6
			c0-1.4-1.1-2.5-2.4-2.6c0,0-0.2,0-0.2,0l-10.7,0l-1.1-3.4h13.5L82.2,6.5z"/>
	</g>
	<path fill="#010101" d="M-24,19.7c-0.2-0.1-0.4-0.2-0.6-0.3l-0.1,0c0,0-1-0.5-1.1-4.4c-0.1-3.9,0.9-4.5,0.9-4.5l0.1-0.1
		c1-0.5,1.8-1.3,2.3-2.3c1.4-2.7,0.4-6-2.3-7.4c-2.7-1.4-6-0.4-7.4,2.3c-0.6,1.1-0.7,2.3-0.6,3.4l0,0c0,0,0.3,1.3-3.1,3.4
		c-3.3,2.1-4.9,1.1-4.9,1.1l-0.2-0.1c-2.7-1.4-6-0.4-7.4,2.3c-1.4,2.7-0.4,6,2.3,7.4c2,1.1,4.3,0.8,6-0.6l0,0c0,0,1.1-0.9,4.6,1
		c2.8,1.5,3.2,2.9,3.2,3.5c-0.1,2,1,4,2.9,5c2.7,1.4,6,0.4,7.4-2.3C-20.3,24.4-21.3,21.1-24,19.7z M-46.7,18.5
		C-46.7,18.5-46.7,18.5-46.7,18.5C-46.7,18.5-46.7,18.5-46.7,18.5L-46.7,18.5z M-40.8,12.1c-0.7-0.6-2.4-0.5-3.9,0.4
		c0.2,0.2,0.3,0.4,0.3,0.7c0,0.6-0.5,1.2-1.1,1.2c-0.1,0-0.2,0-0.3,0c0,0,0,0-0.1,0c-0.4-0.1-0.7,0.2-0.8,0.3c-0.8,1.5-0.8,3,0,3.7
		c-1.5-1.5-1.5-4,0.1-5.8C-45,10.9-42.4,10.7-40.8,12.1L-40.8,12.1z M-30.6,2.4c1.6-1.8,4.2-2,5.8-0.6l0,0c-0.7-0.6-2.4-0.5-3.9,0.4
		c0.2,0.2,0.3,0.4,0.3,0.7c0,0.6-0.5,1.2-1.1,1.2c-0.1,0-0.2,0-0.3,0c0,0,0,0-0.1,0c-0.4-0.1-0.7,0.2-0.8,0.3c-0.8,1.5-0.8,3,0,3.7
		C-32.2,6.7-32.2,4.1-30.6,2.4z M-34.6,19.3c-2.9-1.5-3.3-2.8-3.4-3.2c0-0.5,0-0.9-0.1-1.4l0,0c0,0-0.2-1.3,3.1-3.3
		c3-1.8,4.3-1.5,4.5-1.4c0.2,0.1,0.3,0.2,0.5,0.3c0.3,0.2,0.7,0.3,1,0.4c0.4,0.4,1.2,1.5,1.2,4.4c0.1,2.9-0.8,4-1.2,4.4
		c-0.5,0.2-0.9,0.5-1.3,0.9C-30.6,20.6-31.9,20.7-34.6,19.3z M-29.7,27.2C-29.7,27.2-29.7,27.2-29.7,27.2
		C-29.7,27.2-29.7,27.2-29.7,27.2L-29.7,27.2z M-23.9,20.9c-0.7-0.6-2.4-0.5-3.9,0.4c0.2,0.2,0.3,0.4,0.3,0.7c0,0.6-0.5,1.2-1.1,1.2
		c-0.1,0-0.2,0-0.3,0c0,0,0,0-0.1,0c-0.4-0.1-0.7,0.2-0.8,0.3c-0.8,1.5-0.8,3,0,3.7c-1.5-1.5-1.5-4,0.1-5.8
		C-28,19.7-25.4,19.4-23.9,20.9L-23.9,20.9z"/>
	<path fill="#010101" d="M0,11.7C0,11.8,0,11.8,0,11.7L0,11.7C0,11.7,0,11.7,0,11.7z"/>
	<g>
		<ellipse fill="#010101" cx="9" cy="11.2" rx="1" ry="1"/>
		<path fill="#010101" d="M20.5,16.3c0.6-0.1,0.9-0.7,0.8-1.2c-0.1-0.6-0.7-0.9-1.3-0.8c-0.6,0.1-0.9,0.7-0.8,1.2
			C19.4,16.1,20,16.5,20.5,16.3z"/>
		<path fill="#010101" d="M27.1,23.9c-1.4,0-3-1.5-4.8-3.2c-0.2-0.2-0.4-0.4-0.6-0.5l-0.6-2.5c-0.1-0.6-0.7-1-1.3-0.8
			c-0.5,0.1-0.8,0.5-0.9,1c-1.7-1.3-3.7-2.2-6-2.2V5.7L6.2,2L0,5.7v9.9v3.3V28h1.3v-1.7h4.2V28h1.3v-1.7h5V28h1.3v-9.1v-0.8
			c2.9,0,5.4,2.2,7.7,4.4c2.1,2,4.1,3.8,6.5,3.8h0.4V28h1.2v-1.7H30v-2.5H27.1z M5.4,25.5H1.3v-1.7h4.2L5.4,25.5L5.4,25.5z M5.4,23
			H1.3v-1.7h4.2L5.4,23L5.4,23z M5.4,20.6H1.3v-1.7h4.2L5.4,20.6L5.4,20.6z M11.7,15.6h-1.3l-0.5-2.1c-0.1-0.6-0.7-1-1.3-0.8
			c-0.6,0.1-1,0.7-0.8,1.3l0.4,1.6H1.3V6.5h10.4L11.7,15.6L11.7,15.6z"/>
	</g>
	<g>
		<path fill="#585D5C" d="M-75.4,19.3c-3,0-5.4,2.4-5.4,5.3c0,2.9,2.4,5.3,5.4,5.3c3,0,5.4-2.4,5.4-5.3
			C-70,21.7-72.4,19.3-75.4,19.3z M-75.4,27.2c-1.4,0-2.6-1.1-2.6-2.5c0-1.4,1.2-2.5,2.6-2.5c1.4,0,2.6,1.1,2.6,2.5
			C-72.9,26-74,27.2-75.4,27.2z"/>
		<path fill="#585D5C" d="M-85.7,15.4c1.2,0,2.3-0.1,3.4-0.4l1.9,4.3c0.9-0.9,2.1-1.5,3.4-1.7l-1.8-4c4.3-2.4,7.3-7,7.3-12.2
			c0-0.8,0-1.4,0-1.4H-100c0,0,0,0.6,0,1.4c0,5.3,2.9,9.8,7.3,12.2L-100,30h4.1l1.6-3.5h11.8c-0.2-0.6-0.2-1.2-0.2-1.9
			c0-0.7,0.1-1.3,0.3-1.9h-10.1l3.4-7.7C-88.1,15.3-86.9,15.4-85.7,15.4z M-97.1,2.8h4.2c0.4,4.3,2.5,7.9,5.5,9.7
			C-92.4,11.8-96.4,7.8-97.1,2.8z"/>
	</g>
	<path fill="#585D5C" d="M-122.5,16.4c0-0.1,0-0.1,0-0.2c0-2-1.5-3.6-3.4-3.7c-0.3-0.3-0.6-0.5-0.9-0.8v-1.1c0.2,0,0.3,0,0.4,0
		c0.1,0,0.3,0,0.4,0c0.5,0,0.9-0.1,1.3-0.4c0.4,0.2,0.8,0.4,1.3,0.4c1.5,0,2.6-1.2,2.6-2.6c0-1.1-0.7-2.1-1.8-2.5c0-0.1,0-0.1,0-0.2
		c0-1.4-1.1-2.5-2.4-2.6c-0.5-0.5-1.2-0.9-2-0.9c-0.9,0-1.8,0.5-2.2,1.2c-0.4-0.2-0.8-0.4-1.3-0.4c-1.5,0-2.6,1.2-2.6,2.6
		c0,0,0,0.1,0,0.1c-1.1,0.3-2,1.3-2,2.6c0,1.5,1.2,2.7,2.7,2.7c0.6,0,1.1-0.2,1.5-0.5c0,0,0,0,0,0c0.4,0.2,0.8,0.4,1.3,0.4
		c0.3,0,0.6-0.1,0.9-0.2v0.7c0,0-0.1,0-0.1,0c-1.3,0-2.5,0.7-3.2,1.7c-0.4-0.2-0.8-0.4-1.2-0.4c-0.2-1-1-1.8-1.9-2.1
		c0-0.1,0-0.1,0-0.2c0-1.5-1.2-2.8-2.7-2.9c-0.5-0.6-1.3-1-2.2-1c-1.1,0-2,0.6-2.5,1.4c-0.4-0.2-0.9-0.4-1.4-0.4c-1.6,0-3,1.3-3,3
		c0,0.1,0,0.1,0,0.2c-1.3,0.3-2.2,1.5-2.2,2.9c0,1.6,1.3,3,3,3c0.6,0,1.2-0.2,1.7-0.5c0,0,0,0,0,0c0.4,0.3,0.9,0.4,1.5,0.4
		c0.3,0,0.7-0.1,1-0.2v3.3c-1.1-1.3-1.6-2.4-1.6-2.4h0c0,0-1.1,2.5-3.9,4.4c0,0,1.1,0.8,1.9,0.9c0,0-1.3,2.2-4.6,3.1
		c0,0,2.5,2.1,5.5,2V30h1.5h0.6v-2.6c3.1,0.1,5.5-2,5.5-2c-3.3-0.9-4.6-3.1-4.6-3.1c0.5-0.1,1.1-0.4,1.5-0.7
		c0.6,1.3,1.9,2.2,3.5,2.2c0.8,0,1.5-0.2,2.1-0.7c0,0,0,0,0,0c0.6,0.3,1.2,0.5,1.9,0.5c0.4,0,0.9-0.1,1.2-0.2v6.5h2.5v-6.2
		c0.2,0,0.4,0,0.6-0.1c0.2,0,0.4,0.1,0.6,0.1c0.7,0,1.3-0.2,1.9-0.5c0.6,0.3,1.2,0.5,1.9,0.5c2.1,0,3.7-1.7,3.7-3.7
		C-120,18.3-121.1,16.9-122.5,16.4z M-139.9,18.3v-2.2c0.2,0,0.3,0,0.5,0c0.2,0,0.3,0,0.5,0c0.5,0,1-0.2,1.5-0.4c0,0.1,0,0.3,0,0.5
		c0,0.1,0,0.1,0,0.2C-138.5,16.6-139.4,17.3-139.9,18.3z"/>
	<path fill="#585D5C" d="M-190.4,15.9c-1.4,0-2.3,1.1-2.6,2.6l-0.4,2.4l-6.6,6.6h6l1,2.4l1.1-2.7c2.3-0.7,4-2.9,4-5.5v-2l1.9-0.9
		l-1.9-0.9C-188.1,16.8-189.2,15.9-190.4,15.9z M-189.9,19.1c-0.3,0-0.6-0.3-0.6-0.6s0.3-0.6,0.6-0.6s0.6,0.3,0.6,0.6
		S-189.6,19.1-189.9,19.1z"/>
	<path fill="#585D5C" d="M-180,24.7c-0.6-0.6-1.4-0.9-2.2-0.9l0,0l-3,0l0,3l0,0c0,0.8,0.3,1.6,0.9,2.2c0,0,0,0,0,0
		c1.2,1.2,3.1,1.2,4.3,0c0.6-0.6,0.9-1.4,0.9-2.1C-179.1,26.1-179.4,25.3-180,24.7C-180,24.7-180,24.7-180,24.7z"/>
	<path fill="#585D5C" d="M-176.1,21.3c1.7,0,3-1.3,3-3c1.7,0,3-1.3,3-3c0-0.9-0.4-1.6-1-2.2c0.6-0.5,1-1.3,1-2.2c0-1.7-1.3-3-3-3
		c0-1.7-1.3-3-3-3c-0.9,0-1.6,0.4-2.2,1c-0.5-0.6-1.3-1-2.2-1c-1.7,0-3,1.3-3,3c-1.7,0-3,1.3-3,3c0,0.9,0.4,1.6,1,2.2
		c-0.6,0.5-1,1.3-1,2.2c0,1.7,1.3,3,3,3c0,1.7,1.3,3,3,3c0.5,0,1-0.1,1.4-0.3v5.9v3h1.6v-3c0,0.8,0.3,1.5,0.9,2.1
		c1.2,1.2,3.1,1.2,4.3,0c0,0,0,0,0,0c0.6-0.6,0.9-1.4,0.9-2.2l0,0l0-3l-3,0l0,0c-0.8,0-1.6,0.3-2.2,0.9c0,0,0,0,0,0
		c-0.6,0.6-0.9,1.4-0.9,2.1V21C-177.1,21.2-176.6,21.3-176.1,21.3z M-178.3,18.3c-2.9,0-5.2-2.3-5.2-5.2c0-2.9,2.3-5.2,5.2-5.2
		c2.9,0,5.2,2.3,5.2,5.2C-173.1,16-175.4,18.3-178.3,18.3z"/>
	<path fill="#585D5C" d="M-197,60.6c0.6,0,1.2-0.2,1.7-0.5c0,0,0,0,0,0c0.4,0.3,0.9,0.4,1.5,0.4c0.3,0,0.7-0.1,1-0.2v5.1h2v-4.9
		c0.2,0,0.3,0,0.5,0c0.2,0,0.3,0,0.5,0c0.5,0,1-0.2,1.5-0.4c0.4,0.3,0.9,0.4,1.5,0.4c1.6,0,3-1.3,3-3c0-1.3-0.8-2.4-2-2.8
		c0-0.1,0-0.1,0-0.2c0-1.5-1.2-2.8-2.7-2.9c-0.5-0.6-1.3-1-2.2-1c-1.1,0-2,0.6-2.5,1.4c-0.4-0.2-0.9-0.4-1.4-0.4c-1.6,0-3,1.3-3,3
		c0,0.1,0,0.1,0,0.2c-1.3,0.3-2.2,1.5-2.2,2.9C-200,59.3-198.7,60.6-197,60.6z"/>
	<rect x="-171.7" y="77.7" fill="none" width="3.3" height="3.3"/>
	<path fill="#585D5C" d="M-185,58.8L-185,58.8c7.7,4.9-14.3,4.6-15,12.1h19.7C-192.8,68-175.3,60.9-185,58.8z"/>
	<g>
		<path fill="#585D5C" d="M-175,53c0,0-0.2,0-0.2-0.4c0-0.4-0.4-0.8-0.8-0.8c-0.5,0-0.8,0.4-0.8,0.8c0,0.4-0.2,0.4-0.2,0.4
			c-0.1,0-0.2,0.1-0.2,0.2c0,0.1,0.1,0.2,0.2,0.2h2.1c0.1,0,0.2-0.1,0.2-0.2C-174.8,53-174.8,53-175,53z"/>
		<circle fill="#585D5C" cx="-176" cy="54" r="0.4"/>
		<circle fill="#585D5C" cx="-176" cy="48.3" r="0.6"/>
		<path fill="#585D5C" d="M-172.2,58.5l-1.3-3.8v-3.3c0.2,0,0.4-0.2,0.4-0.4s-0.2-0.4-0.4-0.4h-0.8c0-0.9-0.7-1.7-1.7-1.7
			c-0.9,0-1.7,0.7-1.7,1.7h-0.8c-0.2,0-0.4,0.2-0.4,0.4s0.2,0.4,0.4,0.4v3.3l-1.3,3.8h-2.1v1.3h0.8v2.5v3.3v2.8h10v-2.8v-3.3v-2.5
			h0.8v-1.3H-172.2z M-177.7,51.4h3.3v3.3h-3.3V51.4z M-176.8,65.6L-176.8,65.6l0,1.2h-2.5v-1.2v-3.3v0c0-0.7,0.6-1.3,1.3-1.3
			c0.7,0,1.3,0.6,1.3,1.3v0V65.6z M-172.7,65.6L-172.7,65.6l0,1.2h-2.5v-1.2v-3.3v0c0-0.7,0.6-1.3,1.3-1.3c0.7,0,1.3,0.6,1.3,1.3v0
			V65.6z"/>
	</g>
	<path fill="#585D5C" d="M-182.7,46.2c0.8-0.2,1.9-0.9,1.9-0.9c-2.8-1.9-3.9-4.4-3.9-4.4h0c0,0-1.1,2.5-3.9,4.4c0,0,1.1,0.8,1.9,0.9
		c0,0-1.3,2.2-4.6,3.1c0,0,2.5,2.1,5.5,2V54h1.5h0.6v-2.6c3.1,0.1,5.5-2,5.5-2C-181.3,48.4-182.7,46.2-182.7,46.2z"/>
	<g>
		<path fill="#585D5C" d="M-182.5,85.8c0,0-0.3,0-0.3-0.6c0-0.6-0.5-1.2-1.2-1.2c-0.7,0-1.2,0.5-1.2,1.2c0,0.6-0.3,0.6-0.3,0.6
			c-0.2,0-0.3,0.1-0.3,0.3c0,0.2,0.1,0.3,0.3,0.3h3c0.2,0,0.3-0.1,0.3-0.3C-182.2,85.9-182.3,85.8-182.5,85.8z"/>
		<circle fill="#585D5C" cx="-184" cy="87.3" r="0.6"/>
		<circle fill="#585D5C" cx="-184" cy="79.1" r="0.9"/>
		<path fill="#585D5C" d="M-178.6,93.7l-1.8-5.4v-4.8c0.3,0,0.6-0.3,0.6-0.6s-0.3-0.6-0.6-0.6h-1.2c0-1.3-1.1-2.4-2.4-2.4
			c-1.3,0-2.4,1.1-2.4,2.4h-1.2c-0.3,0-0.6,0.3-0.6,0.6s0.3,0.6,0.6,0.6v4.8l-1.8,5.4h-3v1.8h1.2v3.6v4.7v4h14.3v-4v-4.7v-3.6h1.2
			v-1.8H-178.6z M-186.4,83.6h4.8v4.8h-4.8V83.6z M-185.2,103.9L-185.2,103.9l0,1.8h-3.6v-1.8v-4.7v-0.1c0-1,0.8-1.8,1.8-1.8
			c1,0,1.8,0.8,1.8,1.8v0.1V103.9z M-179.2,103.9L-179.2,103.9l0,1.8h-3.6v-1.8v-4.7v-0.1c0-1,0.8-1.8,1.8-1.8c1,0,1.8,0.8,1.8,1.8
			v0.1V103.9z"/>
	</g>
	<g>
		<path fill="#585D5C" d="M-124.6,58.8L-124.6,58.8c7.7,4.9-14.3,4.6-15,12.1h19.7C-132.3,68-114.9,60.9-124.6,58.8z"/>
		<path fill="#585D5C" d="M-138.4,64.8v-6.2c0.2,0,0.4,0,0.6-0.1c0.2,0,0.4,0.1,0.6,0.1c0.7,0,1.3-0.2,1.9-0.5
			c0.6,0.3,1.2,0.5,1.9,0.5c2.1,0,3.7-1.7,3.7-3.7c0-1.6-1.1-3-2.5-3.5c0-0.1,0-0.1,0-0.2c0-0.5-0.1-0.9-0.2-1.3
			c0.9,0.6,2.8,1.6,5,1.6V54h1.5h0.6v-2.6c3.1,0.1,5.5-2,5.5-2c-3.3-0.9-4.6-3.1-4.6-3.1c0.8-0.2,1.9-0.9,1.9-0.9
			c-2.8-1.9-3.9-4.4-3.9-4.4h0c0,0-1.1,2.5-3.9,4.4c0,0,1.1,0.8,1.9,0.9c0,0-1.2,2-4.3,3c-0.6-1-1.7-1.8-2.9-1.9
			c-0.7-0.8-1.7-1.3-2.8-1.3c-1.3,0-2.5,0.7-3.2,1.7c-0.5-0.3-1.2-0.5-1.8-0.5c-2.1,0-3.7,1.7-3.7,3.7c0,0.1,0,0.1,0,0.2
			c-1.6,0.4-2.8,1.9-2.8,3.7c0,2.1,1.7,3.8,3.8,3.8c0.8,0,1.5-0.2,2.1-0.7c0,0,0,0,0,0c0.6,0.3,1.2,0.5,1.9,0.5
			c0.4,0,0.9-0.1,1.2-0.2v6.5H-138.4z"/>
	</g>
	<path fill="#585D5C" d="M-123.5,94.4c0-0.1,0-0.1,0-0.2c0-2-1.5-3.6-3.4-3.7c-0.7-0.8-1.7-1.3-2.8-1.3c-1.3,0-2.5,0.7-3.2,1.7
		c-0.5-0.3-1-0.4-1.5-0.5c0.1-0.3,0.2-0.7,0.2-1.1c0-1.1-0.7-2.1-1.8-2.5c0-0.1,0-0.1,0-0.2c0-1.4-1.1-2.5-2.4-2.6
		c-0.5-0.5-1.2-0.9-2-0.9c-0.9,0-1.8,0.5-2.2,1.2c-0.4-0.2-0.8-0.4-1.3-0.4c-1.5,0-2.6,1.2-2.6,2.6c0,0,0,0.1,0,0.1
		c-1.1,0.3-2,1.3-2,2.6c0,1.5,1.2,2.7,2.7,2.7c0.6,0,1.1-0.2,1.5-0.5c0,0,0,0,0,0c0.4,0.2,0.8,0.4,1.3,0.4c0.3,0,0.6-0.1,0.9-0.2
		v1.7c-0.5,0.2-1,0.6-1.3,1.1c-0.4-0.2-0.9-0.4-1.4-0.4c-1.6,0-3,1.3-3,3c0,0.1,0,0.1,0,0.2c-1.3,0.3-2.2,1.5-2.2,2.9
		c0,1.6,1.3,3,3,3c0.6,0,1.2-0.2,1.7-0.5c0,0,0,0,0,0c0.4,0.3,0.9,0.4,1.5,0.4c0.3,0,0.7-0.1,1-0.2v5.1h2v-4.9c0.2,0,0.3,0,0.5,0
		c0.2,0,0.3,0,0.5,0c0.5,0,1-0.2,1.5-0.4c0.4,0.3,0.9,0.4,1.5,0.4c1.1,0,2.1-0.6,2.6-1.5c0.3,0.1,0.6,0.1,0.9,0.1
		c0.4,0,0.9-0.1,1.2-0.2v6.5h2.5v-6.2c0.2,0,0.4,0,0.6-0.1c0.2,0,0.4,0.1,0.6,0.1c0.7,0,1.3-0.2,1.9-0.5c0.6,0.3,1.2,0.5,1.9,0.5
		c2.1,0,3.7-1.7,3.7-3.7C-121,96.3-122.1,95-123.5,94.4z M-139.9,92c0.1,0,0.3,0,0.4,0c0.5,0,0.9-0.1,1.3-0.4
		c0.1,0.1,0.3,0.1,0.5,0.2c-0.5,0.6-0.8,1.4-0.8,2.3c0,0,0,0.1,0,0.1c-0.1,0-0.1,0-0.2,0c-0.4-0.5-1-0.8-1.6-0.9v-1.3
		C-140.2,92.1-140,92-139.9,92z"/>
	<path fill="#010101" d="M-100-71.1v0.3C-100-71-100-71.1-100-71.1L-100-71.1z"/>
	<path fill="#010101" d="M-100-70.1L-100-70.1c0-0.1,0-0.2,0-0.3V-70.1z"/>
	<path fill="#010101" d="M-75.6-82.4c-3.5,2.6-5.7,6.6-5.9,11.2H-70C-70.2-75.7-72.3-79.7-75.6-82.4z"/>
	<path fill="#010101" d="M-70-70.1h-11.5c0.2,4.6,2.5,8.6,5.9,11.1C-72.3-61.7-70.2-65.7-70-70.1z"/>
	<path fill="#010101" d="M-76.5-83c-2.3-1.6-5-2.6-8-2.7v14.5h2C-82.4-76-80-80.2-76.5-83z"/>
	<path fill="#010101" d="M-82.5-70.1h-2v14.5c3-0.1,5.8-1.1,8.1-2.7C-80-61.1-82.3-65.4-82.5-70.1z"/>
	<path fill="#010101" d="M-94.5-59.1c3.4-2.5,5.6-6.5,5.8-11.1H-100C-99.8-65.7-97.7-61.7-94.5-59.1z"/>
	<path fill="#010101" d="M-94.5-82.3c-3.2,2.7-5.4,6.6-5.5,11.1h11.3C-88.9-75.7-91.1-79.7-94.5-82.3z"/>
	<path fill="#010101" d="M-93.7-58.5c2.3,1.7,5.2,2.7,8.2,2.8v-14.5h-2.2C-87.9-65.4-90.2-61.2-93.7-58.5z"/>
	<path fill="#010101" d="M-85.5-85.7c-3,0.1-5.9,1.1-8.2,2.7c3.5,2.8,5.8,7,6,11.8h2.2V-85.7z"/>
</g>
</svg>
