<?xml version="1.0" encoding="utf-8"?>
<!-- Generator: Adobe Illustrator 18.0.0, SVG Export Plug-In . SVG Version: 6.00 Build 0)  -->
<!DOCTYPE svg PUBLIC "-//W3C//DTD SVG 1.1//EN" "http://www.w3.org/Graphics/SVG/1.1/DTD/svg11.dtd" [
	<!ENTITY ns_flows "http://ns.adobe.com/Flows/1.0/">
	<!ENTITY ns_extend "http://ns.adobe.com/Extensibility/1.0/">
	<!ENTITY ns_ai "http://ns.adobe.com/AdobeIllustrator/10.0/">
	<!ENTITY ns_graphs "http://ns.adobe.com/Graphs/1.0/">
]>
<svg version="1.1" id="Layer_1" xmlns:x="&ns_extend;" xmlns:i="&ns_ai;" xmlns:graph="&ns_graphs;"
	 xmlns="http://www.w3.org/2000/svg" xmlns:xlink="http://www.w3.org/1999/xlink" xmlns:a="http://ns.adobe.com/AdobeSVGViewerExtensions/3.0/"
	 x="0px" y="0px" viewBox="0 0 30 30" style="enable-background:new 0 0 30 30;" xml:space="preserve">
<style type="text/css">
	.Drop_x0020_Shadow{fill:none;}
	.Round_x0020_Corners_x0020_2_x0020_pt{fill:#FFFFFF;stroke:#000000;stroke-miterlimit:10;}
	.Live_x0020_Reflect_x0020_X{fill:none;}
	.Bevel_x0020_Soft{fill:url(#SVGID_1_);}
	.Dusk{fill:#FFFFFF;}
	.Foliage_GS{fill:#FFDD00;}
	.Pompadour_GS{fill-rule:evenodd;clip-rule:evenodd;fill:#44ADE2;}
</style>
<linearGradient id="SVGID_1_" gradientUnits="userSpaceOnUse" x1="0" y1="0" x2="0.7071" y2="0.7071">
	<stop  offset="0" style="stop-color:#DEDFE3"/>
	<stop  offset="0.1738" style="stop-color:#D8D9DD"/>
	<stop  offset="0.352" style="stop-color:#C9CACD"/>
	<stop  offset="0.5323" style="stop-color:#B4B5B8"/>
	<stop  offset="0.7139" style="stop-color:#989A9C"/>
	<stop  offset="0.8949" style="stop-color:#797C7E"/>
	<stop  offset="1" style="stop-color:#656B6C"/>
	<a:midPointStop  offset="0" style="stop-color:#DEDFE3"/>
	<a:midPointStop  offset="0.7022" style="stop-color:#DEDFE3"/>
	<a:midPointStop  offset="1" style="stop-color:#656B6C"/>
</linearGradient>
<g>
	<rect x="9.71" y="7.394" width="16.087" height="3.478"/>
	<rect x="9.71" y="13.264" width="11.522" height="3.478"/>
	<rect x="9.71" y="18.916" width="5.652" height="3.478"/>
	<path d="M5.892,7.195c-1.066,0-1.934,0.868-1.934,1.934s0.868,1.934,1.934,1.934s1.934-0.868,1.934-1.934S6.959,7.195,5.892,7.195z
		 M5.892,10.628c-0.827,0-1.499-0.673-1.499-1.499S5.066,7.63,5.892,7.63s1.499,0.673,1.499,1.499S6.719,10.628,5.892,10.628z"/>
	<circle cx="5.892" cy="15.023" r="1.825"/>
	<path d="M5.892,18.644c-1.066,0-1.934,0.867-1.934,1.934c0,1.066,0.868,1.934,1.934,1.934s1.934-0.868,1.934-1.934
		C7.826,19.512,6.959,18.644,5.892,18.644z M5.892,22.077c-0.827,0-1.499-0.673-1.499-1.499c0-0.826,0.673-1.499,1.499-1.499
		s1.499,0.673,1.499,1.499C7.391,21.405,6.719,22.077,5.892,22.077z"/>
	<path d="M26.739,3.095H3.261C1.463,3.095,0,4.558,0,6.356v17.246c0,1.798,1.463,3.261,3.261,3.261h23.478
		c1.798,0,3.261-1.463,3.261-3.261V6.356C30,4.558,28.537,3.095,26.739,3.095z M28.696,23.602c0,1.079-0.878,1.957-1.957,1.957
		H3.261c-1.079,0-1.957-0.878-1.957-1.957V6.356c0-1.079,0.878-1.957,1.957-1.957h23.478c1.079,0,1.957,0.878,1.957,1.957V23.602z"
		/>
</g>
</svg>
