<?xml version="1.0" encoding="utf-8"?>
<!-- Generated by IcoMoon.io -->
<!DOCTYPE svg PUBLIC "-//W3C//DTD SVG 1.1//EN" "http://www.w3.org/Graphics/SVG/1.1/DTD/svg11.dtd">
<svg version="1.1" xmlns="http://www.w3.org/2000/svg" xmlns:xlink="http://www.w3.org/1999/xlink" width="1024" height="1024" viewBox="0 0 1024 1024"><g id="icomoon-ignore">
</g>
<path d="M660.063 330.059c34.201 0 61.56 27.361 61.56 64.981 0 34.199-27.361 64.979-61.56 64.979h-229.14c-3.421 13.681-3.421 27.361-3.421 37.621 0 13.681 0 27.361 3.421 37.621h229.14c34.201 0 61.56 27.361 61.56 64.979 0 34.201-27.361 64.979-61.56 64.979h-191.52c58.14 109.44 171 181.262 290.7 181.262h13.681c27.361 0 47.882 23.941 47.882 58.142s-20.52 64.979-44.461 68.4v0h-17.101c-188.101 0-359.101-123.12-424.080-311.222h-68.4c-34.201 0-61.56-27.361-61.56-64.979 0-34.201 27.359-64.979 61.56-64.979h41.040c-3.421-13.681-3.421-23.941-3.421-37.621s0-23.941 3.421-37.621v0h-41.040c-34.201 3.421-61.56-27.361-61.56-61.56s27.359-64.979 61.56-64.979h68.4c68.4-184.681 235.981-311.222 424.080-311.222h13.681c27.361 3.421 47.882 34.201 47.882 68.402s-17.101 58.14-41.040 58.14h-20.52c-119.7 0-232.56 71.82-290.7 181.262h191.52z" fill="rgb(68, 68, 68)"></path>
</svg>
