<?xml version="1.0" encoding="utf-8"?>
<!-- Generated by IcoMoon.io -->
<!DOCTYPE svg PUBLIC "-//W3C//DTD SVG 1.1//EN" "http://www.w3.org/Graphics/SVG/1.1/DTD/svg11.dtd">
<svg version="1.1" xmlns="http://www.w3.org/2000/svg" xmlns:xlink="http://www.w3.org/1999/xlink" width="1024" height="1024" viewBox="0 0 1024 1024"><g id="icomoon-ignore">
</g>
<path d="M995.224 466.858h-30.78v-191.522h30.78c17.101 0 30.78 13.681 30.78 30.78v126.541c0 20.52-13.681 34.199-30.78 34.199zM834.482 849.9v64.979c0 34.201-27.361 64.979-64.979 64.979h-64.979c-34.201 0-64.979-27.361-64.979-64.979v-64.979h-256.501v64.979c0 34.201-27.361 64.979-64.981 64.979h-61.56c-34.201 0-64.981-27.361-64.981-64.979v-64.979c-34.201 0-64.979-27.361-64.979-64.979v-574.562c3.419-106.019 88.92-191.522 194.941-191.522h383.042c106.019 0 191.52 85.501 191.52 191.522v574.562c0 34.201-27.361 64.979-61.56 64.979zM256.501 784.919c34.199 0 64.981-27.361 64.981-64.979 0-34.201-27.361-64.979-64.981-64.979-34.201 0-64.981 27.361-64.981 64.979s30.78 64.979 64.981 64.979zM639.543 83.818h-256.501v64.979h256.501v-64.979zM834.482 210.357h-642.962v383.042h639.543v-383.042zM769.503 658.38c-34.201 0-64.979 27.361-64.979 64.979 0 34.201 27.361 64.979 64.979 64.979 34.201 0 64.979-27.361 64.979-64.979s-30.78-64.979-64.979-64.979zM0 432.659v-126.541c0-17.101 13.681-30.78 30.78-30.78h30.78v191.52h-30.78c-17.101 0-30.78-13.681-30.78-34.199z" fill="rgb(68, 68, 68)"></path>
</svg>
