<?xml version="1.0" encoding="utf-8"?>
<!-- Generator: Adobe Illustrator 18.0.0, SVG Export Plug-In . SVG Version: 6.00 Build 0)  -->
<!DOCTYPE svg PUBLIC "-//W3C//DTD SVG 1.0//EN" "http://www.w3.org/TR/2001/REC-SVG-20010904/DTD/svg10.dtd">
<svg version="1.0" xmlns="http://www.w3.org/2000/svg" xmlns:xlink="http://www.w3.org/1999/xlink" x="0px" y="0px"
	 viewBox="0 0 30 30" enable-background="new 0 0 30 30" xml:space="preserve">
<g id="Layer_1">
	<path fill-rule="evenodd" clip-rule="evenodd" d="M-135-326c-8.3,0-15,6.7-15,15c0,8.3,6.7,15,15,15s15-6.7,15-15
		C-120-319.3-126.7-326-135-326z M-136.9-299.8v-9.4h-9.4l18.7-9.4L-136.9-299.8z"/>
</g>
<g id="Layer_2">
	<path fill-rule="evenodd" clip-rule="evenodd" d="M72.2-276.1h-15c-2.1,0-3.7,1.7-3.7,3.8v22.5c0,2.1,1.7,3.7,3.7,3.7h15
		c2.1,0,3.7-1.7,3.7-3.7v-22.5C76-274.4,74.3-276.1,72.2-276.1z M74.5-249.8c0,1.2-1,2.2-2.2,2.2h-15c-1.2,0-2.2-1-2.2-2.2v-22.5
		c0-1.2,1-2.2,2.2-2.2h15c1.2,0,2.2,1,2.2,2.2V-249.8z"/>
	<path fill-rule="evenodd" clip-rule="evenodd" d="M-76.6-312.9c3.6,0,6.6,3,6.6,6.7c0,3.7-2.9,6.7-6.6,6.7c-3.6,0-6.6-3-6.6-6.7
		c0-2.3,1.2-4.4,2.9-5.6l-0.4-0.7l-1.1-2.1l-0.1-0.3h-6.8c-0.8,0-1.5,0.5-1.7,1.3l-0.4,1.2c2.3,1.1,3.9,3.4,3.9,6.1
		c0,3.7-2.9,6.7-6.6,6.7c-3.6,0-6.6-3-6.6-6.7c0-3.7,2.9-6.7,6.6-6.7c0.3,0,0.6,0.1,0.9,0.1l1-3.3c0.1-0.4,0.5-0.7,0.9-0.7h9.9
		l1.7-3.8h-3.2c-0.5,0-0.9-0.4-0.9-1c0-0.5,0.4-1,0.9-1h4.1h0.6c0.3,0,0.6,0.2,0.8,0.4c0.2,0.3,0.2,0.6,0.1,0.9l-0.3,0.6l-2.7,5.9
		l1.1,2.1C-77.9-312.8-77.2-312.9-76.6-312.9z M-91.3-310.5l-1,3c-0.1,0.2-0.2,0.4-0.5,0.6c-0.2,0.1-0.5,0.1-0.7,0.1
		c-0.5-0.2-0.8-0.7-0.6-1.2l0.9-2.9c-0.1,0-0.2,0-0.3,0c-2.6,0-4.7,2.1-4.7,4.8c0,2.6,2.1,4.8,4.7,4.8c2.6,0,4.7-2.1,4.7-4.8
		C-88.7-308.1-89.8-309.7-91.3-310.5z M-81.3-306.2c0,2.6,2.1,4.8,4.7,4.8c2.6,0,4.7-2.1,4.7-4.8c0-2.6-2.1-4.8-4.7-4.8
		c-0.3,0-0.7,0-1,0.1l2.3,4.3c0.1,0.2,0.1,0.5,0.1,0.7c-0.1,0.2-0.2,0.5-0.5,0.6l0,0c-0.5,0.2-1,0.1-1.2-0.4l-2.4-4.5
		C-80.5-309.2-81.3-307.8-81.3-306.2z M-90.6-318.7h-2.8c-0.5,0-0.9-0.4-0.9-1c0-0.5,0.4-1,0.9-1h5.6c0.2,0,0.3,0.1,0.3,0.2
		c0.1,0.1,0,0.3-0.1,0.4C-88.4-319.2-89.2-318.7-90.6-318.7z"/>
	<path fill-rule="evenodd" clip-rule="evenodd" d="M-20.9-312h-0.9v-5.6h0.9c0.5,0,0.9,0.4,0.9,0.9v3.7C-20-312.4-20.4-312-20.9-312
		z M-25.6-300.8v1.9c0,1-0.8,1.9-1.9,1.9h-1.9c-1,0-1.9-0.8-1.9-1.9v-1.9h-7.5v1.9c0,1-0.8,1.9-1.9,1.9h-1.9c-1,0-1.9-0.8-1.9-1.9
		v-1.9c-1,0-1.9-0.8-1.9-1.9v-16.8c0-3.1,2.5-5.6,5.6-5.6h11.2c3.1,0,5.6,2.5,5.6,5.6v16.8C-23.8-301.6-24.6-300.8-25.6-300.8z
		 M-42.5-302.6c1,0,1.9-0.8,1.9-1.9c0-1-0.8-1.9-1.9-1.9c-1,0-1.9,0.8-1.9,1.9C-44.4-303.5-43.5-302.6-42.5-302.6z M-31.3-323.2
		h-7.5v1.9h7.5V-323.2z M-25.6-319.4h-18.7v11.2h18.7V-319.4z M-27.5-306.4c-1,0-1.9,0.8-1.9,1.9c0,1,0.8,1.9,1.9,1.9
		c1,0,1.9-0.8,1.9-1.9C-25.6-305.5-26.5-306.4-27.5-306.4z M-50-312.9v-3.7c0-0.5,0.4-0.9,0.9-0.9h0.9v5.6h-0.9
		C-49.6-312-50-312.4-50-312.9z"/>
	<path fill-rule="evenodd" clip-rule="evenodd" d="M24.4-309.2c0,2-1.7,3.7-3.7,3.7H9.4c-2.1,0-3.7-1.6-3.7-3.7V-322h18.7v1.8
		c3.1,0,5.6,2.5,5.6,5.5C30-311.7,27.5-309.2,24.4-309.2z M9.4-320.2H7.5v11c0,1,0.8,1.8,1.9,1.8V-320.2z M24.4-318.4v7.3
		c2.1,0,3.7-1.6,3.7-3.7C28.1-316.7,26.4-318.4,24.4-318.4z M30-301.9c0,1-0.8,1.8-1.9,1.8H1.9c-1,0-1.9-0.8-1.9-1.8
		c0-1,0.8-1.8,1.9-1.8h26.2C29.2-303.7,30-302.9,30-301.9z"/>
	<g>
		<polygon fill-rule="evenodd" clip-rule="evenodd" points="78,-320.5 78,-298.5 52,-298.5 52,-296.5 80,-296.5 80,-297.5 
			80,-298.5 80,-320.5 		"/>
		<path fill-rule="evenodd" clip-rule="evenodd" d="M76-322.5h-3c0,1.7-1.3,3-3,3c-1.7,0-3-1.3-3-3h-7c0,1.7-1.3,3-3,3
			c-1.7,0-3-1.3-3-3h-4v22h26V-322.5z M74-302.5H52v-15h22V-302.5z"/>
		<path fill-rule="evenodd" clip-rule="evenodd" d="M57-321.5c0.6,0,1-0.4,1-1v-2c0-0.6-0.4-1-1-1s-1,0.4-1,1v2
			C56-322,56.4-321.5,57-321.5z"/>
		<path fill-rule="evenodd" clip-rule="evenodd" d="M70-321.5c0.6,0,1-0.4,1-1v-2c0-0.6-0.4-1-1-1s-1,0.4-1,1v2
			C69-322,69.4-321.5,70-321.5z"/>
		<rect x="56" y="-314.5" fill-rule="evenodd" clip-rule="evenodd" width="3" height="3"/>
		<rect x="62" y="-314.5" fill-rule="evenodd" clip-rule="evenodd" width="3" height="3"/>
		<rect x="67" y="-314.5" fill-rule="evenodd" clip-rule="evenodd" width="3" height="3"/>
		<rect x="56" y="-309.5" fill-rule="evenodd" clip-rule="evenodd" width="3" height="3"/>
		<rect x="62" y="-309.5" fill-rule="evenodd" clip-rule="evenodd" width="3" height="3"/>
		<rect x="67" y="-309.5" fill-rule="evenodd" clip-rule="evenodd" width="3" height="3"/>
	</g>
	<g>
		<path fill-rule="evenodd" clip-rule="evenodd" d="M107-322c0.6,0,1-0.4,1-1v-2c0-0.6-0.4-1-1-1s-1,0.4-1,1v2
			C106-322.5,106.4-322,107-322z"/>
		<path fill-rule="evenodd" clip-rule="evenodd" d="M120-322c0.6,0,1-0.4,1-1v-2c0-0.6-0.4-1-1-1s-1,0.4-1,1v2
			C119-322.5,119.4-322,120-322z"/>
		<rect x="106" y="-315" fill-rule="evenodd" clip-rule="evenodd" width="3" height="3"/>
		<rect x="112" y="-315" fill-rule="evenodd" clip-rule="evenodd" width="3" height="3"/>
		<rect x="117" y="-315" fill-rule="evenodd" clip-rule="evenodd" width="3" height="3"/>
		<rect x="106" y="-310" fill-rule="evenodd" clip-rule="evenodd" width="3" height="3"/>
		<rect x="112" y="-310" fill-rule="evenodd" clip-rule="evenodd" width="3" height="3"/>
		<rect x="102" y="-299" fill-rule="evenodd" clip-rule="evenodd" width="17" height="2"/>
		<rect x="128" y="-321" fill-rule="evenodd" clip-rule="evenodd" width="2" height="13"/>
		<path fill-rule="evenodd" clip-rule="evenodd" d="M102-318h22v10h2v-15h-3c0,1.7-1.3,3-3,3s-3-1.3-3-3h-7c0,1.7-1.3,3-3,3
			s-3-1.3-3-3h-4v22h19v-2h-17V-318z"/>
		<path fill-rule="evenodd" clip-rule="evenodd" d="M125-307c-2.8,0-5,2.2-5,5c0,2.8,2.2,5,5,5s5-2.2,5-5
			C130-304.8,127.8-307,125-307z M128-301h-2v2h-2v-2h-2v-2h2v-2h2v2h2V-301z"/>
		<rect x="117" y="-310" fill-rule="evenodd" clip-rule="evenodd" width="3" height="3"/>
	</g>
	<g>
		
			<rect x="-128.9" y="-253.8" transform="matrix(-0.5 -0.866 0.866 -0.5 27.5255 -490.7651)" fill-rule="evenodd" clip-rule="evenodd" width="2" height="1"/>
		
			<rect x="-130.9" y="-257.3" transform="matrix(-0.5 -0.866 0.866 -0.5 27.54 -497.6838)" fill-rule="evenodd" clip-rule="evenodd" width="2" height="1"/>
		
			<rect x="-132.9" y="-260.8" transform="matrix(-0.5 -0.866 0.866 -0.5 27.5252 -504.6217)" fill-rule="evenodd" clip-rule="evenodd" width="2" height="1"/>
		
			<rect x="-134.4" y="-264.7" transform="matrix(-0.866 0.5 -0.5 -0.866 -381.7239 -425.1584)" fill-rule="evenodd" clip-rule="evenodd" width="1" height="2"/>
		
			<rect x="-122.2" y="-258.3" transform="matrix(0.7072 -0.707 0.707 0.7072 146.28 -161.3472)" fill-rule="evenodd" clip-rule="evenodd" width="1" height="2"/>
		
			<rect x="-125.5" y="-260.6" transform="matrix(-0.7071 -0.7071 0.7071 -0.7071 -28.576 -532.0574)" fill-rule="evenodd" clip-rule="evenodd" width="2" height="1"/>
		
			<rect x="-128.3" y="-263.4" transform="matrix(-0.7072 -0.7071 0.7071 -0.7072 -31.4342 -538.896)" fill-rule="evenodd" clip-rule="evenodd" width="2" height="1"/>
		
			<rect x="-131.1" y="-266.3" transform="matrix(0.7072 0.707 -0.707 0.7072 -226.0198 14.1929)" fill-rule="evenodd" clip-rule="evenodd" width="2" height="1"/>
		
			<rect x="-134.3" y="-251.2" transform="matrix(-0.2588 -0.9659 0.9659 -0.2588 74.3237 -444.4265)" fill-rule="evenodd" clip-rule="evenodd" width="2" height="1"/>
		
			<rect x="-134.9" y="-255.6" transform="matrix(0.9659 -0.2589 0.2589 0.9659 61.3356 -43.4758)" fill-rule="evenodd" clip-rule="evenodd" width="1" height="2"/>
		
			<rect x="-135.9" y="-259.5" transform="matrix(0.9659 -0.2589 0.2589 0.9659 62.2972 -43.8725)" fill-rule="evenodd" clip-rule="evenodd" width="1" height="2"/>
		
			<rect x="-137" y="-263.3" transform="matrix(0.9659 -0.2589 0.2589 0.9659 63.2657 -44.2754)" fill-rule="evenodd" clip-rule="evenodd" width="1" height="2"/>
		<rect x="-140.4" y="-250.5" fill-rule="evenodd" clip-rule="evenodd" width="1" height="2"/>
		<rect x="-140.4" y="-254.5" fill-rule="evenodd" clip-rule="evenodd" width="1" height="2"/>
		<rect x="-140.4" y="-258.5" fill-rule="evenodd" clip-rule="evenodd" width="1" height="2"/>
		<rect x="-140.4" y="-262.5" fill-rule="evenodd" clip-rule="evenodd" width="1" height="2"/>
		<path fill-rule="evenodd" clip-rule="evenodd" d="M-133-272.3l-3.1,1.8c-1.1-2.4-3.5-4-6.3-4c-3.9,0-7,3.1-7,7v20h4v-20
			c0-1.7,1.3-3,3-3c1.3,0,2.4,0.8,2.8,2l-3.8,2.2l1.5,2.6l10.4-6L-133-272.3z"/>
	</g>
	<path fill-rule="evenodd" clip-rule="evenodd" d="M-70.3-250.7l-9.3-9.6l9.4-9.8c0.1,0.2,0.1,0.5,0.1,0.7v17.6
		C-70-251.3-70.1-251-70.3-250.7z M-98.3-271.5l0.2,0h26.2l0.3,0.1L-85-257.6L-98.3-271.5z M-99.8-250.8c-0.1-0.3-0.2-0.6-0.2-0.9
		v-17.6c0-0.3,0.1-0.6,0.1-0.9l9.4,9.9L-99.8-250.8z M-85-254.7l4-4.1l9,9.3h-26.2l-0.1,0l9.2-9.3L-85-254.7z"/>
	<path d="M-50-276v30h30v-30H-50z M-29.7-255.5c0,0-6,6.5-7.9,7.3c0,0-7.2-5.9-9.4-9.5c-2.2-3.6-2.9-6.9,1.3-9.1
		c4.3-2.3,7.8,2.1,8.1,3c0,0,3.2-5.8,8.9-2.5C-22.9-262.9-29.7-255.5-29.7-255.5z M-22-270h-3v3h-2v-3h-3v-2h3v-3h2v3h3V-270z"/>
	<path d="M-41-266v11l3.5-2.6l-0.4,5.6l-1.3-0.4l1.6,3.2l2.3-2.7l-1.1,0l1.4-9.2l-4,2v-5L-41-266z"/>
	<path fill-rule="evenodd" clip-rule="evenodd" d="M12-272h1v23h-1V-272z"/>
	<path fill-rule="evenodd" clip-rule="evenodd" d="M28.6-259.1l-2.8-4.3l-1.1,2.2l3.9,6.4H25l-0.6,5.7h-2.8l-0.6-5.7h-3.6l3.9-6.4
		l-1.1-2.2l-2.8,4.3H16l2.3-5.9c0.3-0.8,1.1-1.3,1.9-1.3h1.4l1.4,2.9l1.4-2.9h1.4c0.8,0,1.6,0.5,1.9,1.3l2.3,5.9H28.6z M23-267.7
		c-1.2,0-2.1-1-2.1-2.2c0-1.2,0.9-2.2,2.1-2.2c1.2,0,2.1,1,2.1,2.2C25.1-268.7,24.2-267.7,23-267.7z"/>
	<path fill-rule="evenodd" clip-rule="evenodd" d="M6.1-257.7L5.3-249H2.7l-0.8-8.6H0v-7.6c0.6-0.3,1.3-0.6,2.1-0.8L4-262l1.9-4.1
		c0.8,0.2,1.5,0.4,2.1,0.8v7.6H6.1z M4-267.7c-1.1,0-2-1-2-2.2c0-1.2,0.9-2.2,2-2.2s2,1,2,2.2C6-268.7,5.1-267.7,4-267.7z"/>
	<path fill-rule="evenodd" clip-rule="evenodd" d="M127.5-256.2l-10.6-5.9c0-0.6,0.4-1.2,0.9-1.5c1.7-1,2.8-2.8,2.8-4.8
		c0-3.1-2.5-5.6-5.6-5.6s-5.6,2.5-5.6,5.6c0,1,0.8,1.9,1.9,1.9c1,0,1.9-0.8,1.9-1.9c0-1,0.8-1.9,1.9-1.9s1.9,0.8,1.9,1.9
		c0,0.7-0.4,1.3-0.9,1.6c-1.7,1-2.8,2.8-2.8,4.7l-10.7,6c-1.4,0.9-2.4,2.8-2.4,4.4c0,2,1.7,3.7,3.7,3.7h22.5c2.1,0,3.7-1.7,3.7-3.7
		C130-253.4,129-255.3,127.5-256.2z M103.8-251.7c0-0.4,0.4-1.1,0.6-1.2l10.6-5.9l10.5,5.9c0.3,0.2,0.7,0.9,0.7,1.3H103.8z"/>
	<path fill-rule="evenodd" clip-rule="evenodd" d="M-50-202.8h30v1h-30V-202.8z"/>
	<path fill-rule="evenodd" clip-rule="evenodd" d="M-37-201.8h4c1.1,0,2-0.9,2-2h-8C-39-202.7-38.1-201.8-37-201.8z"/>
	<path fill-rule="evenodd" clip-rule="evenodd" d="M-27-201.8h4c1.1,0,2-0.9,2-2h-8C-29-202.7-28.1-201.8-27-201.8z"/>
	<path fill-rule="evenodd" clip-rule="evenodd" d="M-33-212.8h-4c-1.1,0-2,0.9-2,2v6h8v-6C-31-211.9-31.9-212.8-33-212.8z
		 M-33.5-211h-3.1c-0.3,0-0.5-0.2-0.5-0.5c0-0.3,0.2-0.5,0.5-0.5h3.1c0.3,0,0.5,0.2,0.5,0.5C-33-211.2-33.2-211-33.5-211z"/>
	<path fill-rule="evenodd" clip-rule="evenodd" d="M-23-212.8h-4c-1.1,0-2,0.9-2,2v6h8v-6C-21-211.9-21.9-212.8-23-212.8z
		 M-23.5-211h-3.1c-0.3,0-0.5-0.2-0.5-0.5c0-0.3,0.2-0.5,0.5-0.5h3.1c0.3,0,0.5,0.2,0.5,0.5C-23-211.2-23.2-211-23.5-211z"/>
	<path fill-rule="evenodd" clip-rule="evenodd" d="M-34-210.8h8v1h-8V-210.8z"/>
	<path fill-rule="evenodd" clip-rule="evenodd" d="M-50-202.8h1v3h-1V-202.8z"/>
	<path fill-rule="evenodd" clip-rule="evenodd" d="M-21-202.8h1v3h-1V-202.8z"/>
	<path fill-rule="evenodd" clip-rule="evenodd" d="M-47-201.8h4c1.1,0,2-0.9,2-2h-8C-49-202.7-48.1-201.8-47-201.8z"/>
	<path fill-rule="evenodd" clip-rule="evenodd" d="M-43-212.8h-4c-1.1,0-2,0.9-2,2v6h8v-6C-41-211.9-41.9-212.8-43-212.8z
		 M-43.5-211h-3.1c-0.3,0-0.5-0.2-0.5-0.5c0-0.3,0.2-0.5,0.5-0.5h3.1c0.3,0,0.5,0.2,0.5,0.5C-43-211.2-43.2-211-43.5-211z"/>
	<path fill-rule="evenodd" clip-rule="evenodd" d="M-44-210.8h8v1h-8V-210.8z"/>
	<path fill="none" d="M-38.5-217.9h-3.1c-0.3,0-0.5,0.2-0.5,0.5c0,0.3,0.2,0.5,0.5,0.5h3.1c0.3,0,0.5-0.2,0.5-0.5
		C-38-217.7-38.2-217.9-38.5-217.9z"/>
	<path fill="none" d="M-28-217.4c0-0.3-0.2-0.5-0.5-0.5h-3.1c-0.3,0-0.5,0.2-0.5,0.5c0,0.3,0.2,0.5,0.5,0.5h3.1
		C-28.2-217-28-217.2-28-217.4z"/>
	<path fill="none" d="M-38-217.4c0-0.3-0.2-0.5-0.5-0.5h-3.1c-0.3,0-0.5,0.2-0.5,0.5c0,0.3,0.2,0.5,0.5,0.5h3.1
		C-38.2-217-38-217.2-38-217.4z"/>
	<path d="M-27-213.3h1v-3.5c0-1.1-0.9-2-2-2h-4c-1.1,0-2,0.9-2,2v3.5h1c1.4,0,2.5,1.1,2.5,2.5v1h1v-1
		C-29.5-212.2-28.4-213.3-27-213.3z M-31.5-217c-0.3,0-0.5-0.2-0.5-0.5c0-0.3,0.2-0.5,0.5-0.5h3.1c0.3,0,0.5,0.2,0.5,0.5
		c0,0.3-0.2,0.5-0.5,0.5H-31.5z"/>
	<path d="M-37-213.3h1v-3.5c0-1.1-0.9-2-2-2h-4c-1.1,0-2,0.9-2,2v3.5h1c1.4,0,2.5,1.1,2.5,2.5v1h1v-1
		C-39.5-212.2-38.4-213.3-37-213.3z M-41.5-217c-0.3,0-0.5-0.2-0.5-0.5c0-0.3,0.2-0.5,0.5-0.5h3.1c0.3,0,0.5,0.2,0.5,0.5
		c0,0.3-0.2,0.5-0.5,0.5H-41.5z"/>
	<g>
		<path d="M-129.9-202.1c-0.5-0.3-1.2-0.2-1.5,0.4c-1.4,2.2-3.7,3.5-6.3,3.5c-4.1,0-7.4-3.4-7.4-7.5c0-2.4,1.2-4.7,3.1-6.1
			c0.5-0.4,0.6-1,0.2-1.5c-0.4-0.5-1-0.6-1.5-0.3c-2.5,1.8-4,4.8-4,7.9c0,5.3,4.3,9.7,9.6,9.7c3.3,0,6.4-1.7,8.1-4.6
			C-129.2-201.1-129.3-201.8-129.9-202.1z"/>
		<path d="M-122.3-201.5c-0.2-0.6-0.8-0.9-1.4-0.7l-1.3,0.5c0,0-2.4-6.8-2.5-6.9c0,0-0.1-0.1-0.1-0.2c-0.3-0.5-0.9-0.9-1.5-0.9h-5.7
			l-0.1-2.1h4.7c0.6,0,1.1-0.5,1.1-1.1c0-0.6-0.5-1.1-1.1-1.1h-4.9l-0.2-3.1c0,0,0-0.1,0-0.1c-0.1-1.5-1.4-2.7-2.9-2.6
			c-1.5,0.1-2.7,1.4-2.6,2.9v0l0,0l0.4,8.1l0,0c0,0,0,0,0,0c0.1,1.5,1.3,2.6,2.7,2.6c0,0,7.4,0,7.4,0l2.2,6.1
			c0.2,0.7,0.9,1.1,1.5,1.1c0.1,0,0.2,0,0.3,0c0.1,0,0.1,0,0.2-0.1l2.9-1.1C-122.4-200.2-122.1-200.9-122.3-201.5z"/>
		
			<ellipse transform="matrix(5.248704e-02 0.9986 -0.9986 5.248704e-02 -354.0417 -73.9116)" cx="-138.1" cy="-223.5" rx="2.5" ry="2.5"/>
	</g>
	<g>
		<path fill-rule="evenodd" clip-rule="evenodd" d="M-73-215.8c0-0.1,0-0.1,0-0.2c0-2-1.5-3.6-3.4-3.7c-0.7-0.8-1.7-1.3-2.8-1.3
			c-1.3,0-2.5,0.7-3.2,1.7c-0.5-0.3-1.2-0.5-1.8-0.5c-2.1,0-3.7,1.7-3.7,3.7c0,0.1,0,0.1,0,0.2c-1.5,0.5-2.5,1.9-2.5,3.5
			c0,0.1,0,0.2,0,0.2h-6h-1h-2v2h2v1h-2v1h2v1v1h1h7h1v-1v-1h2v-0.5c0.6,0,1.1-0.2,1.6-0.5c0.6,0.3,1.2,0.5,1.9,0.5
			c0.4,0,0.9-0.1,1.2-0.2v6.5H-83v1.2h5v-1.2h-1.2v-6.2c0.2,0,0.4,0,0.6-0.1c0.2,0,0.4,0.1,0.6,0.1c0.7,0,1.3-0.2,1.9-0.5
			c0.6,0.3,1.2,0.5,1.9,0.5c2.1,0,3.7-1.7,3.7-3.7C-70.5-213.9-71.6-215.3-73-215.8z M-96.5-210h6.8c0.1,0.1,0.1,0.2,0.2,0.3v0.7h-7
			V-210z M-89.5-207h-7v-1h7V-207z"/>
		<polygon fill-rule="evenodd" clip-rule="evenodd" points="-89.5,-205 -96.5,-205 -98.5,-205 -99.5,-205 -99.5,-204 -98.5,-204 
			-98.5,-201 -96.5,-201 -96.5,-204 -95.5,-204 -95.5,-202 -94.5,-202 -94.5,-204 -91.5,-204 -91.5,-202 -90.5,-202 -90.5,-204 
			-89.5,-204 -89.5,-201 -87.5,-201 -87.5,-204 -86.5,-204 -86.5,-205 -87.5,-205 		"/>
	</g>
	<g>
		<path fill-rule="evenodd" clip-rule="evenodd" d="M65.8-265.1c-0.1-0.2-0.2-0.4-0.4-0.5c-0.2-0.1-0.5-0.2-0.8-0.2h-1v4.4h0.9
			c0.4,0,0.7-0.1,0.9-0.2s0.4-0.3,0.5-0.4c0.1-0.2,0.2-0.4,0.2-0.7c0-0.3,0-0.6,0-0.9c0-0.3,0-0.6,0-0.9
			C66-264.7,65.9-264.9,65.8-265.1z"/>
		<path fill-rule="evenodd" clip-rule="evenodd" d="M71.4-273.1H58.1c-1.1,0-2,0.9-2,2v20c0,1.1,0.9,2,2,2h13.3c1.1,0,2-0.9,2-2v-20
			C73.4-272.2,72.5-273.1,71.4-273.1z M67.6-262.1c-0.1,0.4-0.2,0.8-0.4,1.1c-0.3,0.4-0.6,0.7-1,1s-1,0.4-1.7,0.4h-0.9v5h-1.8v-12.8
			h2.8c0.5,0,0.9,0.1,1.3,0.2c0.4,0.1,0.7,0.4,1,0.7c0.3,0.3,0.5,0.7,0.6,1.2c0.1,0.4,0.2,1.1,0.2,1.8
			C67.7-263,67.7-262.5,67.6-262.1z"/>
	</g>
	<path fill-rule="evenodd" clip-rule="evenodd" d="M29.8-149.3L16-173.8c-0.5-1-1.4-1-2,0L0.2-149.3c-0.5,1-0.1,1.7,1,1.7h27.6
		C29.9-147.5,30.3-148.3,29.8-149.3z M17-152.5c0,0.6-0.5,1-1,1h-2c-0.5,0-1-0.4-1-1v-2c0-0.6,0.5-1,1-1h2c0.5,0,1,0.5,1,1V-152.5z
		 M17-158.5c0,0.6-0.4,1-1,1h-2c-0.5,0-1-0.4-1-1v-6c0-0.6,0.5-1,1-1h2c0.5,0,1,0.5,1,1L17-158.5z"/>
	<g>
		<path d="M69.6-168c-1.4-0.4-3-0.7-4.6-0.7c-7.1,0-13,5.2-14.8,6.9c-0.3,0.3-0.3,0.8,0,1.1c1,1,3.5,3.2,6.9,4.9L69.6-168z"/>
		<path d="M79.8-161.8c-1.1-1-3.7-3.4-7.1-5l2.8-2.7H73l-17.4,17h2.4l2.2-2.1c1.5,0.5,3.2,0.8,4.9,0.8c7.1,0,13-5.2,14.8-6.9
			C80.1-161,80.1-161.5,79.8-161.8z M70.1-160.2c-0.4,1.9-2,3.5-4,3.9c-1.4,0.3-2.6,0-3.7-0.6l2.2-2.2c0.1,0,0.2,0,0.4,0
			c1.3,0,2.3-1,2.3-2.3c0-0.1,0-0.2,0-0.4l2.2-2.2C70.1-162.8,70.4-161.5,70.1-160.2z"/>
	</g>
	<g>
		<polygon points="115.9,-173.5 114,-173.5 114,-167.5 115.9,-167.5 		"/>
		<polygon points="124,-158.2 130,-159.4 129.5,-161.7 123.6,-160.5 		"/>
		<polygon points="126.3,-168.3 124.6,-169.9 120.4,-165.7 122,-164 		"/>
		<polygon points="106.4,-160.5 100.5,-161.7 100,-159.4 106,-158.2 		"/>
		<path d="M123-152.5l-2.3-10.9c-0.2-1.2-1.3-2.1-2.7-2.1l-5,0c-1.4,0-2.7,0.9-3,2.1l-2,10.9c0,0.1,0,0,0,1h-3l0.1,3H126v-3h-3
			C123-152.5,123-152.4,123-152.5z M115.1-152.5l-0.1-11h2c1.1,0,1.8,0.1,2,1l1,5c0,0.1,1,5,1,5H115.1z"/>
		<polygon points="109.6,-165.7 105.4,-169.9 103.7,-168.3 108,-164 		"/>
	</g>
	<path fill-rule="evenodd" clip-rule="evenodd" d="M16.8-196h-4v-11h-2v-9c0-2.1,0.9-3,3-3h2c2.1,0,3,0.9,3,3v9h-2V-196z
		 M14.8-220.4c-1.6,0-2.8-1.3-2.8-2.8c0-1.6,1.3-2.8,2.8-2.8s2.8,1.3,2.8,2.8C17.6-221.7,16.4-220.4,14.8-220.4z"/>
	<path fill-rule="evenodd" clip-rule="evenodd" d="M5.8-196h-4v-11h-2v-9c0-2.1,0.9-3,3-3h2c2.1,0,3,0.9,3,3v9h-2V-196z M3.8-220.4
		c-1.6,0-2.8-1.3-2.8-2.8c0-1.6,1.3-2.8,2.8-2.8s2.8,1.3,2.8,2.8C6.6-221.7,5.4-220.4,3.8-220.4z"/>
	<path fill-rule="evenodd" clip-rule="evenodd" d="M27.8-196h-4v-11h-2v-9c0-2.1,0.9-3,3-3h2c2.1,0,3,0.9,3,3v9h-2V-196z
		 M25.8-220.4c-1.6,0-2.8-1.3-2.8-2.8c0-1.6,1.3-2.8,2.8-2.8s2.8,1.3,2.8,2.8C28.6-221.7,27.4-220.4,25.8-220.4z"/>
	<path fill-rule="evenodd" clip-rule="evenodd" d="M64.6-223c-5,0-9,4-9,9c0,6,9,15,9,15s9-9,9-15C73.6-219,69.6-223,64.6-223z
		 M64.6-209.9c-2.6,0-4.7-2.1-4.7-4.7c0-2.6,2.1-4.7,4.7-4.7s4.7,2.1,4.7,4.7C69.3-212.1,67.2-209.9,64.6-209.9z"/>
	<path fill-rule="evenodd" clip-rule="evenodd" d="M119.1-215.9c1,0,1.8,0.8,1.8,1.9c0,1-0.8,1.9-1.8,1.9h-6.7
		c-0.1,0.4-0.1,0.8-0.1,1.1c0,0.4,0,0.8,0.1,1.1h6.7c1,0,1.8,0.8,1.8,1.9c0,1-0.8,1.9-1.8,1.9h-5.6c1.7,3.2,5,5.3,8.5,5.3h0.4
		c0.8,0,1.4,0.7,1.4,1.7c0,1-0.6,1.9-1.3,2l0,0H122c-5.5,0-10.5-3.6-12.4-9.1h-2c-1,0-1.8-0.8-1.8-1.9c0-1,0.8-1.9,1.8-1.9h1.2v0
		c-0.1-0.4-0.1-0.7-0.1-1.1c0-0.4,0-0.7,0.1-1.1v0h-1.2c-1,0-1.8-0.8-1.8-1.9c0-1,0.8-1.9,1.8-1.9h2c2-5.4,6.9-9.1,12.4-9.1h0.4
		c0.8,0.1,1.4,1,1.4,2c0,1-0.5,1.7-1.2,1.7l-0.6,0c-3.5,0-6.8,2.1-8.5,5.3H119.1z"/>
	<path fill-rule="evenodd" clip-rule="evenodd" d="M-126.6-174.4l-0.3,0.2c-1.1,0.5-2.8,6.3-2.8,6.7l0,0.4c0.2,0.8,0.9,1.7,2.5,3.5
		c-0.9,2.1-3.4,4.9-4.9,6.2c-1.6,1.4-4.3,3.2-6.3,3.9c-1.8-2.1-2.6-2.9-3.5-3c-0.5,0-6.4,1-6.9,2l-0.2,0.3c-0.4,0.7-1.1,1.7-0.8,2.8
		c0.1,0.3,0.2,0.5,0.3,0.8c0.5,0.8,1.7,2.6,3.4,3.4c1,0.5,10.4,0.8,18.3-6.3c7.8-7,8.2-15.6,7.9-16.9l0,0l0-0.1
		c-0.6-1.8-2.3-3.2-3-3.8C-124.3-175.5-125.8-174.8-126.6-174.4z"/>
	<path fill-rule="evenodd" clip-rule="evenodd" d="M-97.2-173v18h18v-18H-97.2z M-81.2-157h-14v-14h14V-157z"/>
	<path fill-rule="evenodd" clip-rule="evenodd" d="M-75.2-159v-10h-2l3-4l3,4h-2v10h2l-3,4l-3-4"/>
	<path fill-rule="evenodd" clip-rule="evenodd" d="M-83.2-149h-10v2l-4-3l4-3v2h10v-2l4,3l-4,3"/>
	<g opacity="0.4">
		<path fill-rule="evenodd" clip-rule="evenodd" d="M-41.5-156.1l4-4c-0.1-0.2-0.1-0.5-0.1-0.7c0-1,0.6-1.9,1.5-2.3v-9.9
			c0-0.5,0.5-1,1-1c-7.2,0-13,5.8-13,13c0,3.6,1.5,6.8,3.8,9.2l2.8-2.8C-41.9-155.1-41.9-155.7-41.5-156.1z"/>
	</g>
	<g>
		<g>
			<path fill-rule="evenodd" clip-rule="evenodd" d="M-35.2-176c-1,0-2,0.1-3,0.3c-1,0.2-1.9,0.5-2.8,0.9c-1.3,0.6-2.6,1.3-3.7,2.2
				s-2.1,2-2.9,3.2c-1.6,2.4-2.6,5.3-2.6,8.4c0,1.6,0.2,3.1,0.7,4.5c0.7,2.3,2,4.4,3.7,6.1c0.3,0.3,0.7,0.7,1.1,1
				c0.7,0.6,1.5,1.2,2.4,1.6c0.4,0.2,0.9,0.4,1.3,0.6c0.9,0.4,1.8,0.7,2.8,0.9c1,0.2,2,0.3,3,0.3c8.3,0,15-6.7,15-15
				C-20.2-169.3-26.9-176-35.2-176z M-35.2-158.3c-0.3,0-0.6-0.1-0.9-0.2l-3.9,3.9c-0.4,0.4-1.1,0.4-1.5,0c0,0,0,0,0,0l-2.8,2.8
				c-2.4-2.4-3.8-5.6-3.8-9.2c0-7.2,5.8-13,13-13c0.5,0,1,0.5,1,1v9.9c0.9,0.4,1.5,1.3,1.5,2.3C-32.7-159.4-33.8-158.3-35.2-158.3z"
				/>
		</g>
	</g>
	<path fill-rule="evenodd" clip-rule="evenodd" d="M-134-99.1h-2l-14-2V-121h2v18.2l12,1.7h2l12-1.7V-121h2v19.9L-134-99.1z
		 M-134-120.9c3.6-2.1,10-2.1,10-2.1v17.9c0,0-6.4,0-10,2.1V-120.9z M-146-123c0,0,6.4,0,10,2.1v17.9c-3.6-2.1-10-2.1-10-2.1V-123z"
		/>
	<path fill-rule="evenodd" clip-rule="evenodd" d="M-70.5-117.1l-0.2,0.1l0,0l-2.7,2.7l-8.4-8.4l2.7-2.7l0,0l0.1-0.2
		c0.7-0.7,2-0.7,2.7,0.1l5.6,5.6C-69.8-119-69.8-117.8-70.5-117.1z M-93-105.9l12.5-12.6l2.8,2.8l-12.5,12.6l1.4,1.4l12.5-12.6
		l1.4,1.4l-13.9,14l-8.4-8.4l13.9-14l1.4,1.4l-12.5,12.6L-93-105.9z M-90.2-97.4l-4.9,0.7L-100-96l0.7-4.9l0.7-4.9l4.2,4.2
		L-90.2-97.4z"/>
	<path fill-rule="evenodd" clip-rule="evenodd" d="M-24-97l-26,0v-28l30,0v24L-24-97z M-41-99h12v-7h-12V-99z M-26-123h-18v12h18
		V-123z M-39-104l4,0v3h-4V-104z"/>
	<path fill-rule="evenodd" clip-rule="evenodd" d="M0-114l3-2l8,14l16-23l3,2L11-96L0-114"/>
	<path fill-rule="evenodd" clip-rule="evenodd" d="M73.6-118.2l-1.8-1.8l-7.2,7.2l-7.2-7.2l-1.8,1.8l7.2,7.2l-7.2,7.2l1.8,1.8
		l7.2-7.2l7.2,7.2l1.8-1.8l-7.2-7.2L73.6-118.2z"/>
	<path fill-rule="evenodd" clip-rule="evenodd" d="M114.8-119.5c-4.7,0-8.5,3.8-8.5,8.5s3.8,8.5,8.5,8.5s8.5-3.8,8.5-8.5
		S119.5-119.5,114.8-119.5z M119.8-108.3l-2.2,2.2l-2.8-2.8l-2.8,2.8l-2.2-2.2l2.8-2.8l-2.8-2.8l2.2-2.2l2.8,2.8l2.8-2.8l2.2,2.2
		L117-111L119.8-108.3z"/>
	<path fill-rule="evenodd" clip-rule="evenodd" d="M-127.7-68.7c-0.9,0-1.6-0.7-1.6-1.6c0-0.9,0.7-1.6,1.6-1.6
		c0.9,0,1.6,0.7,1.6,1.6C-126.2-69.4-126.9-68.7-127.7-68.7z M-129.9-74c-0.4,0-0.8-0.2-1.1-0.5c-0.6-0.6-0.6-1.6,0-2.2
		c0.3-0.3,0.7-0.5,1.1-0.5c0.4,0,0.8,0.2,1.1,0.5c0.6,0.6,0.6,1.6,0,2.2C-129.1-74.1-129.5-74-129.9-74z M-135.2-75.2
		c-1.4,0-2.5-1.1-2.5-2.5c0-1.4,1.1-2.5,2.5-2.5c1.4,0,2.5,1.1,2.5,2.5C-132.7-76.3-133.8-75.2-135.2-75.2z M-140.4-63.4
		c-0.4,0-0.8-0.2-1.1-0.5c-0.6-0.6-0.6-1.6,0-2.2c0.3-0.3,0.7-0.5,1.1-0.5c0.4,0,0.8,0.2,1.1,0.5c0.6,0.6,0.6,1.6,0,2.2
		C-139.6-63.5-140-63.4-140.4-63.4z M-140.4-74c-0.4,0-0.8-0.2-1.1-0.5c-0.6-0.6-0.6-1.6,0-2.2c0.3-0.3,0.7-0.5,1.1-0.5
		c0.4,0,0.8,0.2,1.1,0.5c0.6,0.6,0.6,1.6,0,2.2C-139.6-74.1-140-74-140.4-74z M-141.1-70.2c0,0.9-0.7,1.6-1.6,1.6
		c-0.9,0-1.6-0.7-1.6-1.6s0.7-1.6,1.6-1.6C-141.8-71.8-141.1-71.1-141.1-70.2z M-135.2-64.3c0.9,0,1.6,0.7,1.6,1.6
		c0,0.9-0.7,1.6-1.6,1.6c-0.9,0-1.6-0.7-1.6-1.6C-136.7-63.6-136-64.3-135.2-64.3z M-129.9-66.5c0.4,0,0.8,0.2,1.1,0.5
		c0.6,0.6,0.6,1.6,0,2.2c-0.3,0.3-0.7,0.5-1.1,0.5c-0.4,0-0.8-0.2-1.1-0.5c-0.6-0.6-0.6-1.6,0-2.2
		C-130.7-66.3-130.3-66.5-129.9-66.5z"/>
	<g>
		<circle fill-rule="evenodd" clip-rule="evenodd" cx="65" cy="-81.6" r="2.3"/>
		<rect x="50.2" y="-73.2" fill-rule="evenodd" clip-rule="evenodd" width="1.8" height="7.3"/>
		<path fill-rule="evenodd" clip-rule="evenodd" d="M74.7-70.3H71l-0.1-6.3c0-1.2-1-2.2-2.2-2.2h-7.6c-1.2,0-2.2,1-2.2,2.2l0,6.3
			h-3.7v-4.1h-2.5v9.6h2.5v-4.1h3.7h2.1h0.6c-0.2,3.6-0.6,12.2-0.6,12.2h2.9l0.6-11.2c0.1,0,0.5,0,0.6,0l0.9,11.2h2.9
			c0,0-0.6-8.6-0.8-12.2h0.6h2.1h3.8v4.1h2.5v-9.6h-2.5V-70.3z M61.2-70.3L61.2-70.3v-4.7c0-0.2,0.1-0.3,0.3-0.3
			c0.2,0,0.3,0.1,0.3,0.3v3.9c0,0,0,0.3,0,0.8H61.2z M68.8-70.3h-0.6c0-0.5,0-0.8,0-0.8v-3.9c0-0.2,0.1-0.3,0.3-0.3
			c0.2,0,0.3,0.1,0.3,0.3V-70.3z"/>
		<rect x="78" y="-73.2" fill-rule="evenodd" clip-rule="evenodd" width="1.8" height="7.3"/>
	</g>
	<g>
		<path fill="#010101" d="M117.9-63.4c1.5-0.1,2.9-0.2,2.9-0.2l-2.2-1.3l-2.7-1.5l-4.1-2.3l-2.7-1.5l-2.2-1.3c0,0,0.7,1.2,1.4,2.5
			c0.8,1.5,1.5,3.1,1.4,3.4c-0.2,0.7-3.2,5.3-3.9,6.3c-0.5,0.8,0.9,2.2,1.9,2.8c1,0.5,2.9,1,3.3,0.1c0.5-1.3,2.8-6.1,3.3-6.6
			C114.5-63.1,116.3-63.3,117.9-63.4z"/>
		<g>
			<path fill="#010101" d="M126.7-68.8c3.3-5.8,1.8-12.8-3.3-15.7c-5.1-2.8-11.8-0.4-15.1,5.4c-1.2,2.2-1.8,4.5-1.7,6.7l15.3,8.6
				C123.7-64.9,125.4-66.6,126.7-68.8z"/>
		</g>
	</g>
	<circle fill="#010101" cx="105.6" cy="-82.6" r="2.6"/>
	<g>
		<path d="M-122.5-31.6v-3.5l-5.5-4.5l-1.3,1.1c-1-0.9-2.3-1.5-3.7-1.5c-2,0-3.7,1-4.7,2.6c-0.8-0.5-1.7-0.7-2.7-0.7
			c-3.1,0-5.6,2.5-5.6,5.6c0,0.1,0,0.2,0,0.3c-1.9,0.7-3.3,2.3-3.7,4.3c0,0,0,0.1,0,0.1c0,0.3-0.1,0.5-0.1,0.8c0,0,0,0,0,0
			c0,0,0,0,0,0c0,0,0,0,0,0c0,3.1,2.5,5.5,5.6,5.5c0.1,0,0.2,0,0.4,0l0,0c0.3,0,0.5-0.1,0.8-0.1v1.3c-1.3,0.2-2.3,1.4-2.3,2.8
			c0,1.6,1.3,2.8,2.8,2.8c1.6,0,2.8-1.3,2.8-2.8c0-1.4-1-2.5-2.3-2.8v-1.6c0.2-0.1,0.4-0.2,0.6-0.3c0.8,0.5,1.8,0.8,2.8,0.8
			c0.7,0,1.3-0.1,1.9-0.3v9.7h-1.9v1.9h7.5v-1.9h-1.9v-9.3c0.3,0,0.6,0,0.9-0.1c0.3,0.1,0.6,0.1,0.9,0.1c1,0,2-0.3,2.8-0.8
			c0.8,0.5,1.8,0.8,2.8,0.8c3.1,0,5.6-2.5,5.6-5.6C-120-28.9-121-30.6-122.5-31.6z M-140.8-17.4c0,1-0.8,1.8-1.8,1.8
			c-1,0-1.8-0.8-1.8-1.8s0.8-1.8,1.8-1.8C-141.6-19.2-140.8-18.4-140.8-17.4z M-123.5-27.2h-4.5v-4.1h-3v4.1h-1.5v-7.5l4.5-3.7
			l4.5,3.7V-27.2z"/>
		<circle cx="-125.7" cy="-33.9" r="1.3"/>
	</g>
	<g>
		<g>
			<polygon fill="#010101" points="-73,-21.2 -96.6,-17.9 -100,-21 -99.1,-21.9 -96.2,-19.3 -73.7,-22.4 -71,-25.9 -70,-25.2 			"/>
		</g>
		<g>
			<g>
				<circle fill="#010101" cx="-92.9" cy="-16.2" r="1.5"/>
			</g>
			<g>
				<g>
					<circle fill="#010101" cx="-75.5" cy="-18.6" r="1.5"/>
				</g>
			</g>
		</g>
	</g>
	<g>
		<polygon fill="#010101" points="-40.3,-26.4 -38.2,-20.2 -31.8,-20.2 -29.7,-26.4 -35,-30.2 		"/>
		<path fill="#010101" d="M-35-40.2c-8.3,0-15,6.7-15,15s6.7,15,15,15s15-6.7,15-15S-26.7-40.2-35-40.2z M-23.4-20.3
			c-0.4,0.9-0.9,1.8-1.5,2.6l-0.1-1.3l-4.7,1.1l-2.5,4.2l1.3,0.6c-1.3,0.4-2.7,0.7-4.1,0.7c-1.4,0-2.7-0.2-4-0.7l1.3-0.6l-2.5-4.2
			l-4.7-1.1l-0.1,1.4c-0.6-0.8-1.1-1.7-1.5-2.6c-0.7-1.6-1-3.2-1-4.9c0,0,0-0.1,0-0.1l0.9,0.9l3.2-3.7l-0.4-4.8l-1.2,0.2
			c0.4-0.5,0.8-1,1.3-1.5c1.2-1.2,2.5-2.1,4-2.7c0.3-0.1,0.7-0.3,1-0.4l-0.6,1.1l4.5,1.9l4.5-1.9l-0.6-1.1c0.4,0.1,0.7,0.2,1.1,0.4
			c1.5,0.6,2.9,1.5,4,2.7c0.5,0.5,0.9,1,1.3,1.5l-1.2-0.2l-0.4,4.8l3.2,3.7l0.9-0.9c0,0,0,0,0,0.1C-22.4-23.5-22.7-21.8-23.4-20.3z"
			/>
	</g>
	<g id="Layer_4">
		<polygon fill="#010101" points="13.2,-12.2 15.8,-12.2 15.8,-17.4 14.5,-18.9 13.2,-17.4 		"/>
		<g>
			<path fill="#010101" d="M10.6-35.5c-0.4-0.2-0.6-0.6-0.7-1c-0.1-0.4,0-0.8,0.2-1.2c0.2-0.4,0.6-0.6,1-0.7c0.4-0.1,0.8,0,1.2,0.2
				c0.4,0.2,0.6,0.6,0.7,1c0.1,0.4,0,0.8-0.2,1.2c-0.2,0.4-0.6,0.6-1,0.7C11.3-35.2,10.9-35.2,10.6-35.5z"/>
			<path fill="#010101" d="M3.6-29.2l4-0.6l-2.4-2.4c-0.1-0.1-0.2-0.3-0.3-0.5C4.7-33.2,5-33.6,5.4-34l2.3-2
				c0.2-0.2,0.4-0.3,0.6-0.3c0.4-0.1,0.7,0,1,0.2c0.3,0.2,0.5,0.5,0.6,0.9c0.1,0.5-0.1,0.9-0.5,1.2l-1.9,1.6l2,2
				c0.1,0.1,0.2,0.3,0.2,0.6c0,0.3,0,0.5-0.2,0.7c-0.2,0.3-0.4,0.4-0.7,0.5l-5.1,0.9L3.6-29.2z"/>
		</g>
		<path fill="#010101" d="M27.1-22.1c-0.4,0.2-0.8,0.2-1.2,0.1c-0.4-0.1-0.7-0.4-0.9-0.8c-0.2-0.4-0.2-0.8-0.1-1.2
			c0.1-0.4,0.4-0.7,0.8-0.9c0.4-0.2,0.8-0.2,1.2-0.1c0.4,0.1,0.7,0.4,0.9,0.8c0.2,0.4,0.2,0.8,0.1,1.2
			C27.7-22.6,27.5-22.3,27.1-22.1z"/>
		<path fill="#010101" d="M0.5-25.9l21.1,8c0.1-0.2,0.2-0.3,0.4-0.4c0.2-0.1,0.5-0.2,0.7-0.1l2.7,0.7l0-2.5c0-0.5,0.2-0.9,0.7-1.2
			c0.3-0.2,0.7-0.2,1.1-0.1c0.4,0.1,0.7,0.3,0.8,0.7c0.1,0.2,0.1,0.4,0.1,0.7l0,3.1c0,0.6-0.1,1-0.7,1.3c0,0-0.1,0-0.2,0l2.8,1
			l-0.5,1.4l-4.9-1.9L24-16.3l-0.2,0.1l-0.2,0.1l1.8,3.4l-0.7,0.4l-0.8,0.3l-2.3-4.4L0-24.5L0.5-25.9z"/>
	</g>
	<circle fill="none" cx="56.4" cy="-33.3" r="0.7"/>
	<circle fill="none" cx="54.6" cy="-31.5" r="0.7"/>
	<circle fill="none" cx="54" cy="-33.9" r="0.7"/>
	<g>
		<path fill="#010101" d="M69.6-25.8c0.3,0,0.7,0.1,1,0.2l0.9,0.3l-1.1-11.7l-0.3-3.1h-3.1l-0.3,3.1h-3.9l-0.3-3.1h-3.1l-0.3,3.1
			h-3.9L55-40.2h-3.1l-0.3,3.1h0l-1.7,18.8c0,0,4.8,1.6,11,1.6c1.6,0,3.1-0.1,4.5-0.3l1.4-6.6C67.1-24.9,68.2-25.8,69.6-25.8z
			 M53.5-34.4c0.3-0.3,0.7-0.3,1,0c0.3,0.3,0.3,0.7,0,1c-0.3,0.3-0.7,0.3-1,0C53.2-33.7,53.2-34.1,53.5-34.4z M55.1-31
			c-0.3,0.3-0.7,0.3-1,0c-0.3-0.3-0.3-0.7,0-1c0.3-0.3,0.7-0.3,1,0C55.4-31.8,55.4-31.3,55.1-31z M56.9-32.8c-0.3,0.3-0.7,0.3-1,0
			c-0.3-0.3-0.3-0.7,0-1c0.3-0.3,0.7-0.3,1,0C57.2-33.5,57.2-33,56.9-32.8z"/>
		<circle fill="#010101" cx="73.5" cy="-12.1" r="0.7"/>
		<path fill="#010101" d="M79.4-20.3l-3.3-1.2L79.5-32l-2.8-1l-3.4,10.5l-3.3-1.2c-0.1,0-0.2-0.1-0.3-0.1c-0.4,0-0.7,0.3-0.8,0.7
			l-1.9,9.3c-0.1,0.3,0,0.5,0.1,0.7c1-0.8,2.3-1.6,3.9-2.2c2-0.8,4.7-0.7,6.7,0.5l2.3-4.3C80.2-19.6,79.9-20.1,79.4-20.3z"/>
		<circle fill="#010101" cx="75.6" cy="-13.4" r="0.7"/>
		<circle fill="#010101" cx="75.6" cy="-10.9" r="0.7"/>
	</g>
	<path fill="none" d="M-77.6-75l-0.4,0.7c0.3,0.2,0.6,0.4,0.9,0.5l0.4-0.7C-77.1-74.6-77.4-74.8-77.6-75z"/>
	<path fill="none" d="M-79.9-71.3c0.3,0.1,0.6,0.3,0.9,0.5l0.4-0.7c-0.3-0.2-0.6-0.3-0.9-0.5L-79.9-71.3z"/>
	<circle cx="-95.9" cy="-62.3" r="4.1"/>
	<path d="M-70.1-69.6c-1.7,1.4-2.8,3.6-2.8,6c0,0.7,0.1,1.4,0.3,2.1c1.6-1.8,2.6-4.2,2.6-6.8C-70-68.8-70-69.2-70.1-69.6z"/>
	<path d="M-80.2-78.5c-0.1,0-0.3,0-0.4,0c0.5,1.1,1.2,2.1,2.1,2.9L-77-78C-78-78.3-79.1-78.5-80.2-78.5z"/>
	<path d="M-76.7-74.5l1.7-2.7c-0.3-0.2-0.6-0.3-0.9-0.5l-1.7,2.6C-77.4-74.8-77.1-74.6-76.7-74.5z"/>
	<path d="M-73.3-73.7c0.6,0,1.2-0.1,1.7-0.2c-0.7-1.1-1.6-2-2.6-2.7l-1.6,2.5C-75-73.8-74.2-73.7-73.3-73.7z"/>
	<path d="M-81.4-78.5c-4.9,0.6-8.7,4.6-8.9,9.6c1.5-2.4,4.2-4,7.3-4c0.9,0,1.8,0.1,2.6,0.4l1.6-2.5C-80-75.9-80.9-77.1-81.4-78.5z"
		/>
	<path d="M-79.5-72c0.3,0.1,0.6,0.3,0.9,0.5l1.4-2.2c-0.3-0.2-0.6-0.3-0.9-0.5L-79.5-72z"/>
	<path d="M-70.2-70.6c-0.2-0.9-0.5-1.8-0.9-2.5c-0.7,0.2-1.4,0.3-2.1,0.3c-1,0-2-0.2-2.9-0.5l-1.5,2.4c2,1.6,3.3,4,3.3,6.8
		c0,1.9-0.6,3.6-1.7,5.1c1-0.5,1.9-1.1,2.8-1.8c-0.3-0.9-0.5-1.8-0.5-2.7C-73.7-66.5-72.4-69-70.2-70.6z"/>
	<path d="M-80.2-58.2c0.9,0,1.7-0.1,2.6-0.3c1.5-1.4,2.4-3.4,2.4-5.6c0-2.5-1.1-4.7-2.9-6.1l-6.8,10.9
		C-83.5-58.6-81.9-58.2-80.2-58.2z"/>
	<path d="M-79.9-71.3l-6.7,10.8c0.3,0.2,0.5,0.4,0.8,0.6l6.8-10.9C-79.3-71-79.6-71.2-79.9-71.3z"/>
	<path d="M-83.1-72c-3.2,0-6,2-7.2,4.8c0.3,2.3,1.3,4.4,2.8,5.9l6.5-10.4C-81.6-71.9-82.3-72-83.1-72z"/>
	<path fill="#010101" d="M27.9-66.8c0.1-0.5,0.1-1,0.1-1.5c0-4.2-3.5-7.6-7.8-7.6c-0.2,0-0.5,0-0.7,0c-1,0.8-2.2,1.5-3.6,2.1
		c-1.2,0.6-2.4,1.1-3.5,1.4c0-0.2,0-0.4-0.1-0.5c1.1-0.3,2.2-0.8,3.4-1.4c0.9-0.5,1.8-0.9,2.5-1.4c1-0.7,1.9-1.4,2.6-2.1
		c1.1-1.2,1.6-2.2,1.3-2.8c-0.2-0.5-0.9-0.7-2-0.7c-1.8,0-4.4,0.8-7,2c-2.1,1-3.7,2.2-4.8,3.2c-1.4-0.2-3,0.1-4.5,0.9
		c-3.2,1.7-4.8,5-3.5,7.4c1,1.8,3.3,2.6,5.8,2.1l0.1,0.1C5-63.3,5-60.6,5-60.6h3.2H11c0-2.8,4-3.2,4.2-3.2l0,0.3l0,0.3
		c0,0-0.2,0-0.5,0.1c-0.9,0.2-3.1,0.8-3.2,2.4c0,0.1,0,0.1,0,0.2h2.2h6.9l0,0c2.2-0.1,4.1-1,5.5-2.5c0.4,0.5,1,0.8,1.7,0.8
		c1.2,0,2.3-1,2.3-2.3C30-65.7,29.1-66.7,27.9-66.8z M4.4-70.9c-0.5,0-0.9-0.4-0.9-0.9c0-0.5,0.4-0.9,0.9-0.9c0.5,0,0.9,0.4,0.9,0.9
		C5.3-71.3,4.9-70.9,4.4-70.9z"/>
	<path fill="#010101" d="M132-13.4l-9.4-9.4c1.2-1.8,1.9-4,1.9-6.2c0-3-1.2-5.8-3.3-7.9c-2.1-2.1-4.9-3.3-7.9-3.3
		c-3,0-5.8,1.2-7.9,3.3c-2.1,2.1-3.3,4.9-3.3,7.9s1.2,5.8,3.3,7.9s4.9,3.3,7.9,3.3c2.3,0,4.4-0.7,6.3-1.9l9.4,9.4
		c0.3,0.3,0.9,0.2,1.3-0.2l1.6-1.6C132.3-12.5,132.3-13.1,132-13.4z M113.4-20.9c-4.5,0-8.1-3.7-8.1-8.1s3.6-8.1,8.1-8.1
		s8.1,3.7,8.1,8.1S117.9-20.9,113.4-20.9z"/>
	<g id="Your_Icon">
		<path fill="#010101" d="M132.2,6.5h-24.3L106.8,3h-4.7l0.6,1.7h2.8l5.5,17.2c-1.2,0.2-2.1,1.3-2.1,2.5c0,1.4,1.2,2.6,2.6,2.6
			c1.4,0,2.6-1.1,2.6-2.6c0-0.3-0.1-0.6-0.2-0.9h7.2c-0.1,0.3-0.2,0.6-0.2,0.9c0,1.4,1.2,2.6,2.6,2.6c1.4,0,2.6-1.1,2.6-2.6
			c0-1.4-1.1-2.5-2.4-2.6c0,0-0.2,0-0.2,0l-10.7,0l-1.1-3.4h13.5L132.2,6.5z"/>
	</g>
	<path fill="#010101" d="M26,19.7c-0.2-0.1-0.4-0.2-0.6-0.3l-0.1,0c0,0-1-0.5-1.1-4.4c-0.1-3.9,0.9-4.5,0.9-4.5l0.1-0.1
		c1-0.5,1.8-1.3,2.3-2.3c1.4-2.7,0.4-6-2.3-7.4c-2.7-1.4-6-0.4-7.4,2.3c-0.6,1.1-0.7,2.3-0.6,3.4l0,0c0,0,0.3,1.3-3.1,3.4
		c-3.3,2.1-4.9,1.1-4.9,1.1l-0.2-0.1c-2.7-1.4-6-0.4-7.4,2.3c-1.4,2.7-0.4,6,2.3,7.4c2,1.1,4.3,0.8,6-0.6l0,0c0,0,1.1-0.9,4.6,1
		c2.8,1.5,3.2,2.9,3.2,3.5c-0.1,2,1,4,2.9,5c2.7,1.4,6,0.4,7.4-2.3C29.7,24.4,28.7,21.1,26,19.7z M3.3,18.5
		C3.3,18.5,3.3,18.5,3.3,18.5C3.3,18.5,3.3,18.5,3.3,18.5L3.3,18.5z M9.2,12.1c-0.7-0.6-2.4-0.5-3.9,0.4c0.2,0.2,0.3,0.4,0.3,0.7
		c0,0.6-0.5,1.2-1.1,1.2c-0.1,0-0.2,0-0.3,0c0,0,0,0-0.1,0c-0.4-0.1-0.7,0.2-0.8,0.3c-0.8,1.5-0.8,3,0,3.7c-1.5-1.5-1.5-4,0.1-5.8
		C5,10.9,7.6,10.7,9.2,12.1L9.2,12.1z M19.4,2.4c1.6-1.8,4.2-2,5.8-0.6l0,0c-0.7-0.6-2.4-0.5-3.9,0.4c0.2,0.2,0.3,0.4,0.3,0.7
		c0,0.6-0.5,1.2-1.1,1.2c-0.1,0-0.2,0-0.3,0c0,0,0,0-0.1,0c-0.4-0.1-0.7,0.2-0.8,0.3c-0.8,1.5-0.8,3,0,3.7
		C17.8,6.7,17.8,4.1,19.4,2.4z M15.4,19.3c-2.9-1.5-3.3-2.8-3.4-3.2c0-0.5,0-0.9-0.1-1.4l0,0c0,0-0.2-1.3,3.1-3.3
		c3-1.8,4.3-1.5,4.5-1.4c0.2,0.1,0.3,0.2,0.5,0.3c0.3,0.2,0.7,0.3,1,0.4c0.4,0.4,1.2,1.5,1.2,4.4c0.1,2.9-0.8,4-1.2,4.4
		c-0.5,0.2-0.9,0.5-1.3,0.9C19.4,20.6,18.1,20.7,15.4,19.3z M20.3,27.2C20.3,27.2,20.3,27.2,20.3,27.2
		C20.3,27.2,20.3,27.2,20.3,27.2L20.3,27.2z M26.1,20.9c-0.7-0.6-2.4-0.5-3.9,0.4c0.2,0.2,0.3,0.4,0.3,0.7c0,0.6-0.5,1.2-1.1,1.2
		c-0.1,0-0.2,0-0.3,0c0,0,0,0-0.1,0c-0.4-0.1-0.7,0.2-0.8,0.3c-0.8,1.5-0.8,3,0,3.7c-1.5-1.5-1.5-4,0.1-5.8
		C22,19.7,24.6,19.4,26.1,20.9L26.1,20.9z"/>
	<path fill="#010101" d="M50,11.7C50,11.8,50,11.8,50,11.7L50,11.7C50,11.7,50,11.7,50,11.7z"/>
	<g>
		<ellipse fill="#010101" cx="59" cy="11.2" rx="1" ry="1"/>
		<path fill="#010101" d="M70.5,16.3c0.6-0.1,0.9-0.7,0.8-1.2c-0.1-0.6-0.7-0.9-1.3-0.8c-0.6,0.1-0.9,0.7-0.8,1.2
			C69.4,16.1,70,16.5,70.5,16.3z"/>
		<path fill="#010101" d="M77.1,23.9c-1.4,0-3-1.5-4.8-3.2c-0.2-0.2-0.4-0.4-0.6-0.5l-0.6-2.5c-0.1-0.6-0.7-1-1.3-0.8
			c-0.5,0.1-0.8,0.5-0.9,1c-1.7-1.3-3.7-2.2-6-2.2V5.7L56.2,2L50,5.7v9.9v3.3V28h1.3v-1.7h4.2V28h1.3v-1.7h5V28h1.3v-9.1v-0.8
			c2.9,0,5.4,2.2,7.7,4.4c2.1,2,4.1,3.8,6.5,3.8h0.4V28h1.2v-1.7H80v-2.5H77.1z M55.4,25.5h-4.2v-1.7h4.2L55.4,25.5L55.4,25.5z
			 M55.4,23h-4.2v-1.7h4.2L55.4,23L55.4,23z M55.4,20.6h-4.2v-1.7h4.2L55.4,20.6L55.4,20.6z M61.7,15.6h-1.3l-0.5-2.1
			c-0.1-0.6-0.7-1-1.3-0.8c-0.6,0.1-1,0.7-0.8,1.3l0.4,1.6h-6.8V6.5h10.4L61.7,15.6L61.7,15.6z"/>
	</g>
	<g>
		<path fill="#585D5C" d="M-25.4,19.3c-3,0-5.4,2.4-5.4,5.3c0,2.9,2.4,5.3,5.4,5.3c3,0,5.4-2.4,5.4-5.3
			C-20,21.7-22.4,19.3-25.4,19.3z M-25.4,27.2c-1.4,0-2.6-1.1-2.6-2.5c0-1.4,1.2-2.5,2.6-2.5c1.4,0,2.6,1.1,2.6,2.5
			C-22.9,26-24,27.2-25.4,27.2z"/>
		<path fill="#585D5C" d="M-35.7,15.4c1.2,0,2.3-0.1,3.4-0.4l1.9,4.3c0.9-0.9,2.1-1.5,3.4-1.7l-1.8-4c4.3-2.4,7.3-7,7.3-12.2
			c0-0.8,0-1.4,0-1.4H-50c0,0,0,0.6,0,1.4c0,5.3,2.9,9.8,7.3,12.2L-50,30h4.1l1.6-3.5h11.8c-0.2-0.6-0.2-1.2-0.2-1.9
			c0-0.7,0.1-1.3,0.3-1.9h-10.1l3.4-7.7C-38.1,15.3-36.9,15.4-35.7,15.4z M-47.1,2.8h4.2c0.4,4.3,2.5,7.9,5.5,9.7
			C-42.4,11.8-46.4,7.8-47.1,2.8z"/>
	</g>
	<path fill="#585D5C" d="M-72.5,16.4c0-0.1,0-0.1,0-0.2c0-2-1.5-3.6-3.4-3.7c-0.3-0.3-0.6-0.5-0.9-0.8v-1.1c0.2,0,0.3,0,0.4,0
		c0.1,0,0.3,0,0.4,0c0.5,0,0.9-0.1,1.3-0.4c0.4,0.2,0.8,0.4,1.3,0.4c1.5,0,2.6-1.2,2.6-2.6c0-1.1-0.7-2.1-1.8-2.5c0-0.1,0-0.1,0-0.2
		c0-1.4-1.1-2.5-2.4-2.6c-0.5-0.5-1.2-0.9-2-0.9c-0.9,0-1.8,0.5-2.2,1.2c-0.4-0.2-0.8-0.4-1.3-0.4c-1.5,0-2.6,1.2-2.6,2.6
		c0,0,0,0.1,0,0.1c-1.1,0.3-2,1.3-2,2.6c0,1.5,1.2,2.7,2.7,2.7c0.6,0,1.1-0.2,1.5-0.5c0,0,0,0,0,0c0.4,0.2,0.8,0.4,1.3,0.4
		c0.3,0,0.6-0.1,0.9-0.2v0.7c0,0-0.1,0-0.1,0c-1.3,0-2.5,0.7-3.2,1.7c-0.4-0.2-0.8-0.4-1.2-0.4c-0.2-1-1-1.8-1.9-2.1
		c0-0.1,0-0.1,0-0.2c0-1.5-1.2-2.8-2.7-2.9c-0.5-0.6-1.3-1-2.2-1c-1.1,0-2,0.6-2.5,1.4c-0.4-0.2-0.9-0.4-1.4-0.4c-1.6,0-3,1.3-3,3
		c0,0.1,0,0.1,0,0.2c-1.3,0.3-2.2,1.5-2.2,2.9c0,1.6,1.3,3,3,3c0.6,0,1.2-0.2,1.7-0.5c0,0,0,0,0,0c0.4,0.3,0.9,0.4,1.5,0.4
		c0.3,0,0.7-0.1,1-0.2v3.3c-1.1-1.3-1.6-2.4-1.6-2.4h0c0,0-1.1,2.5-3.9,4.4c0,0,1.1,0.8,1.9,0.9c0,0-1.3,2.2-4.6,3.1
		c0,0,2.5,2.1,5.5,2V30h1.5h0.6v-2.6c3.1,0.1,5.5-2,5.5-2c-3.3-0.9-4.6-3.1-4.6-3.1c0.5-0.1,1.1-0.4,1.5-0.7
		c0.6,1.3,1.9,2.2,3.5,2.2c0.8,0,1.5-0.2,2.1-0.7c0,0,0,0,0,0c0.6,0.3,1.2,0.5,1.9,0.5c0.4,0,0.9-0.1,1.2-0.2v6.5h2.5v-6.2
		c0.2,0,0.4,0,0.6-0.1c0.2,0,0.4,0.1,0.6,0.1c0.7,0,1.3-0.2,1.9-0.5c0.6,0.3,1.2,0.5,1.9,0.5c2.1,0,3.7-1.7,3.7-3.7
		C-70,18.3-71.1,16.9-72.5,16.4z M-89.9,18.3v-2.2c0.2,0,0.3,0,0.5,0c0.2,0,0.3,0,0.5,0c0.5,0,1-0.2,1.5-0.4c0,0.1,0,0.3,0,0.5
		c0,0.1,0,0.1,0,0.2C-88.5,16.6-89.4,17.3-89.9,18.3z"/>
	<path fill="#585D5C" d="M-140.4,15.9c-1.4,0-2.3,1.1-2.6,2.6l-0.4,2.4l-6.6,6.6h6l1,2.4l1.1-2.7c2.3-0.7,4-2.9,4-5.5v-2l1.9-0.9
		l-1.9-0.9C-138.1,16.8-139.2,15.9-140.4,15.9z M-139.9,19.1c-0.3,0-0.6-0.3-0.6-0.6s0.3-0.6,0.6-0.6s0.6,0.3,0.6,0.6
		S-139.6,19.1-139.9,19.1z"/>
	<path fill="#585D5C" d="M-130,24.7c-0.6-0.6-1.4-0.9-2.2-0.9l0,0l-3,0l0,3l0,0c0,0.8,0.3,1.6,0.9,2.2c0,0,0,0,0,0
		c1.2,1.2,3.1,1.2,4.3,0c0.6-0.6,0.9-1.4,0.9-2.1C-129.1,26.1-129.4,25.3-130,24.7C-130,24.7-130,24.7-130,24.7z"/>
	<path fill="#585D5C" d="M-126.1,21.3c1.7,0,3-1.3,3-3c1.7,0,3-1.3,3-3c0-0.9-0.4-1.6-1-2.2c0.6-0.5,1-1.3,1-2.2c0-1.7-1.3-3-3-3
		c0-1.7-1.3-3-3-3c-0.9,0-1.6,0.4-2.2,1c-0.5-0.6-1.3-1-2.2-1c-1.7,0-3,1.3-3,3c-1.7,0-3,1.3-3,3c0,0.9,0.4,1.6,1,2.2
		c-0.6,0.5-1,1.3-1,2.2c0,1.7,1.3,3,3,3c0,1.7,1.3,3,3,3c0.5,0,1-0.1,1.4-0.3v5.9v3h1.6v-3c0,0.8,0.3,1.5,0.9,2.1
		c1.2,1.2,3.1,1.2,4.3,0c0,0,0,0,0,0c0.6-0.6,0.9-1.4,0.9-2.2l0,0l0-3l-3,0l0,0c-0.8,0-1.6,0.3-2.2,0.9c0,0,0,0,0,0
		c-0.6,0.6-0.9,1.4-0.9,2.1V21C-127.1,21.2-126.6,21.3-126.1,21.3z M-128.3,18.3c-2.9,0-5.2-2.3-5.2-5.2c0-2.9,2.3-5.2,5.2-5.2
		c2.9,0,5.2,2.3,5.2,5.2C-123.1,16-125.4,18.3-128.3,18.3z"/>
	<path fill="#585D5C" d="M-147,60.6c0.6,0,1.2-0.2,1.7-0.5c0,0,0,0,0,0c0.4,0.3,0.9,0.4,1.5,0.4c0.3,0,0.7-0.1,1-0.2v5.1h2v-4.9
		c0.2,0,0.3,0,0.5,0c0.2,0,0.3,0,0.5,0c0.5,0,1-0.2,1.5-0.4c0.4,0.3,0.9,0.4,1.5,0.4c1.6,0,3-1.3,3-3c0-1.3-0.8-2.4-2-2.8
		c0-0.1,0-0.1,0-0.2c0-1.5-1.2-2.8-2.7-2.9c-0.5-0.6-1.3-1-2.2-1c-1.1,0-2,0.6-2.5,1.4c-0.4-0.2-0.9-0.4-1.4-0.4c-1.6,0-3,1.3-3,3
		c0,0.1,0,0.1,0,0.2c-1.3,0.3-2.2,1.5-2.2,2.9C-150,59.3-148.7,60.6-147,60.6z"/>
	<rect x="-121.7" y="77.7" fill="none" width="3.3" height="3.3"/>
	<path fill="#585D5C" d="M-135,58.8L-135,58.8c7.7,4.9-14.3,4.6-15,12.1h19.7C-142.8,68-125.3,60.9-135,58.8z"/>
	<g>
		<path fill="#585D5C" d="M-125,53c0,0-0.2,0-0.2-0.4c0-0.4-0.4-0.8-0.8-0.8c-0.5,0-0.8,0.4-0.8,0.8c0,0.4-0.2,0.4-0.2,0.4
			c-0.1,0-0.2,0.1-0.2,0.2c0,0.1,0.1,0.2,0.2,0.2h2.1c0.1,0,0.2-0.1,0.2-0.2C-124.8,53-124.8,53-125,53z"/>
		<circle fill="#585D5C" cx="-126" cy="54" r="0.4"/>
		<circle fill="#585D5C" cx="-126" cy="48.3" r="0.6"/>
		<path fill="#585D5C" d="M-122.2,58.5l-1.3-3.8v-3.3c0.2,0,0.4-0.2,0.4-0.4s-0.2-0.4-0.4-0.4h-0.8c0-0.9-0.7-1.7-1.7-1.7
			c-0.9,0-1.7,0.7-1.7,1.7h-0.8c-0.2,0-0.4,0.2-0.4,0.4s0.2,0.4,0.4,0.4v3.3l-1.3,3.8h-2.1v1.3h0.8v2.5v3.3v2.8h10v-2.8v-3.3v-2.5
			h0.8v-1.3H-122.2z M-127.7,51.4h3.3v3.3h-3.3V51.4z M-126.8,65.6L-126.8,65.6l0,1.2h-2.5v-1.2v-3.3v0c0-0.7,0.6-1.3,1.3-1.3
			c0.7,0,1.3,0.6,1.3,1.3v0V65.6z M-122.7,65.6L-122.7,65.6l0,1.2h-2.5v-1.2v-3.3v0c0-0.7,0.6-1.3,1.3-1.3c0.7,0,1.3,0.6,1.3,1.3v0
			V65.6z"/>
	</g>
	<path fill="#585D5C" d="M-132.7,46.2c0.8-0.2,1.9-0.9,1.9-0.9c-2.8-1.9-3.9-4.4-3.9-4.4h0c0,0-1.1,2.5-3.9,4.4c0,0,1.1,0.8,1.9,0.9
		c0,0-1.3,2.2-4.6,3.1c0,0,2.5,2.1,5.5,2V54h1.5h0.6v-2.6c3.1,0.1,5.5-2,5.5-2C-131.3,48.4-132.7,46.2-132.7,46.2z"/>
	<g>
		<path fill="#585D5C" d="M-132.5,85.8c0,0-0.3,0-0.3-0.6c0-0.6-0.5-1.2-1.2-1.2c-0.7,0-1.2,0.5-1.2,1.2c0,0.6-0.3,0.6-0.3,0.6
			c-0.2,0-0.3,0.1-0.3,0.3c0,0.2,0.1,0.3,0.3,0.3h3c0.2,0,0.3-0.1,0.3-0.3C-132.2,85.9-132.3,85.8-132.5,85.8z"/>
		<circle fill="#585D5C" cx="-134" cy="87.3" r="0.6"/>
		<circle fill="#585D5C" cx="-134" cy="79.1" r="0.9"/>
		<path fill="#585D5C" d="M-128.6,93.7l-1.8-5.4v-4.8c0.3,0,0.6-0.3,0.6-0.6s-0.3-0.6-0.6-0.6h-1.2c0-1.3-1.1-2.4-2.4-2.4
			c-1.3,0-2.4,1.1-2.4,2.4h-1.2c-0.3,0-0.6,0.3-0.6,0.6s0.3,0.6,0.6,0.6v4.8l-1.8,5.4h-3v1.8h1.2v3.6v4.7v4h14.3v-4v-4.7v-3.6h1.2
			v-1.8H-128.6z M-136.4,83.6h4.8v4.8h-4.8V83.6z M-135.2,103.9L-135.2,103.9l0,1.8h-3.6v-1.8v-4.7v-0.1c0-1,0.8-1.8,1.8-1.8
			c1,0,1.8,0.8,1.8,1.8v0.1V103.9z M-129.2,103.9L-129.2,103.9l0,1.8h-3.6v-1.8v-4.7v-0.1c0-1,0.8-1.8,1.8-1.8c1,0,1.8,0.8,1.8,1.8
			v0.1V103.9z"/>
	</g>
	<g>
		<path fill="#585D5C" d="M-74.6,58.8L-74.6,58.8c7.7,4.9-14.3,4.6-15,12.1h19.7C-82.3,68-64.9,60.9-74.6,58.8z"/>
		<path fill="#585D5C" d="M-88.4,64.8v-6.2c0.2,0,0.4,0,0.6-0.1c0.2,0,0.4,0.1,0.6,0.1c0.7,0,1.3-0.2,1.9-0.5
			c0.6,0.3,1.2,0.5,1.9,0.5c2.1,0,3.7-1.7,3.7-3.7c0-1.6-1.1-3-2.5-3.5c0-0.1,0-0.1,0-0.2c0-0.5-0.1-0.9-0.2-1.3
			c0.9,0.6,2.8,1.6,5,1.6V54h1.5h0.6v-2.6c3.1,0.1,5.5-2,5.5-2c-3.3-0.9-4.6-3.1-4.6-3.1c0.8-0.2,1.9-0.9,1.9-0.9
			c-2.8-1.9-3.9-4.4-3.9-4.4h0c0,0-1.1,2.5-3.9,4.4c0,0,1.1,0.8,1.9,0.9c0,0-1.2,2-4.3,3c-0.6-1-1.7-1.8-2.9-1.9
			c-0.7-0.8-1.7-1.3-2.8-1.3c-1.3,0-2.5,0.7-3.2,1.7c-0.5-0.3-1.2-0.5-1.8-0.5c-2.1,0-3.7,1.7-3.7,3.7c0,0.1,0,0.1,0,0.2
			c-1.6,0.4-2.8,1.9-2.8,3.7c0,2.1,1.7,3.8,3.8,3.8c0.8,0,1.5-0.2,2.1-0.7c0,0,0,0,0,0c0.6,0.3,1.2,0.5,1.9,0.5
			c0.4,0,0.9-0.1,1.2-0.2v6.5H-88.4z"/>
	</g>
	<path fill="#585D5C" d="M-73.5,94.4c0-0.1,0-0.1,0-0.2c0-2-1.5-3.6-3.4-3.7c-0.7-0.8-1.7-1.3-2.8-1.3c-1.3,0-2.5,0.7-3.2,1.7
		c-0.5-0.3-1-0.4-1.5-0.5c0.1-0.3,0.2-0.7,0.2-1.1c0-1.1-0.7-2.1-1.8-2.5c0-0.1,0-0.1,0-0.2c0-1.4-1.1-2.5-2.4-2.6
		c-0.5-0.5-1.2-0.9-2-0.9c-0.9,0-1.8,0.5-2.2,1.2c-0.4-0.2-0.8-0.4-1.3-0.4c-1.5,0-2.6,1.2-2.6,2.6c0,0,0,0.1,0,0.1
		c-1.1,0.3-2,1.3-2,2.6c0,1.5,1.2,2.7,2.7,2.7c0.6,0,1.1-0.2,1.5-0.5c0,0,0,0,0,0c0.4,0.2,0.8,0.4,1.3,0.4c0.3,0,0.6-0.1,0.9-0.2
		v1.7c-0.5,0.2-1,0.6-1.3,1.1c-0.4-0.2-0.9-0.4-1.4-0.4c-1.6,0-3,1.3-3,3c0,0.1,0,0.1,0,0.2c-1.3,0.3-2.2,1.5-2.2,2.9
		c0,1.6,1.3,3,3,3c0.6,0,1.2-0.2,1.7-0.5c0,0,0,0,0,0c0.4,0.3,0.9,0.4,1.5,0.4c0.3,0,0.7-0.1,1-0.2v5.1h2v-4.9c0.2,0,0.3,0,0.5,0
		c0.2,0,0.3,0,0.5,0c0.5,0,1-0.2,1.5-0.4c0.4,0.3,0.9,0.4,1.5,0.4c1.1,0,2.1-0.6,2.6-1.5c0.3,0.1,0.6,0.1,0.9,0.1
		c0.4,0,0.9-0.1,1.2-0.2v6.5h2.5v-6.2c0.2,0,0.4,0,0.6-0.1c0.2,0,0.4,0.1,0.6,0.1c0.7,0,1.3-0.2,1.9-0.5c0.6,0.3,1.2,0.5,1.9,0.5
		c2.1,0,3.7-1.7,3.7-3.7C-71,96.3-72.1,95-73.5,94.4z M-89.9,92c0.1,0,0.3,0,0.4,0c0.5,0,0.9-0.1,1.3-0.4c0.1,0.1,0.3,0.1,0.5,0.2
		c-0.5,0.6-0.8,1.4-0.8,2.3c0,0,0,0.1,0,0.1c-0.1,0-0.1,0-0.2,0c-0.4-0.5-1-0.8-1.6-0.9v-1.3C-90.2,92.1-90,92-89.9,92z"/>
	<path fill="#010101" d="M-50-71.1v0.3C-50-71-50-71.1-50-71.1L-50-71.1z"/>
	<path fill="#010101" d="M-50-70.1L-50-70.1c0-0.1,0-0.2,0-0.3V-70.1z"/>
	<path fill="#010101" d="M-25.6-82.4c-3.5,2.6-5.7,6.6-5.9,11.2H-20C-20.2-75.7-22.3-79.7-25.6-82.4z"/>
	<path fill="#010101" d="M-20-70.1h-11.5c0.2,4.6,2.5,8.6,5.9,11.1C-22.3-61.7-20.2-65.7-20-70.1z"/>
	<path fill="#010101" d="M-26.5-83c-2.3-1.6-5-2.6-8-2.7v14.5h2C-32.4-76-30-80.2-26.5-83z"/>
	<path fill="#010101" d="M-32.5-70.1h-2v14.5c3-0.1,5.8-1.1,8.1-2.7C-30-61.1-32.3-65.4-32.5-70.1z"/>
	<path fill="#010101" d="M-44.5-59.1c3.4-2.5,5.6-6.5,5.8-11.1H-50C-49.8-65.7-47.7-61.7-44.5-59.1z"/>
	<path fill="#010101" d="M-44.5-82.3c-3.2,2.7-5.4,6.6-5.5,11.1h11.3C-38.9-75.7-41.1-79.7-44.5-82.3z"/>
	<path fill="#010101" d="M-43.7-58.5c2.3,1.7,5.2,2.7,8.2,2.8v-14.5h-2.2C-37.9-65.4-40.2-61.2-43.7-58.5z"/>
	<path fill="#010101" d="M-35.5-85.7c-3,0.1-5.9,1.1-8.2,2.7c3.5,2.8,5.8,7,6,11.8h2.2V-85.7z"/>
</g>
</svg>
