<?xml version="1.0" encoding="utf-8"?>
<!-- Generator: Adobe Illustrator 18.0.0, SVG Export Plug-In . SVG Version: 6.00 Build 0)  -->
<!DOCTYPE svg PUBLIC "-//W3C//DTD SVG 1.0//EN" "http://www.w3.org/TR/2001/REC-SVG-20010904/DTD/svg10.dtd">
<svg version="1.0" xmlns="http://www.w3.org/2000/svg" xmlns:xlink="http://www.w3.org/1999/xlink" x="0px" y="0px"
	 viewBox="0 0 30 30" enable-background="new 0 0 30 30" xml:space="preserve">
<g id="Layer_1">
	<path fill-rule="evenodd" clip-rule="evenodd" d="M-185-285.8c-8.3,0-15,6.7-15,15c0,8.3,6.7,15,15,15s15-6.7,15-15
		C-170-279.1-176.7-285.8-185-285.8z M-186.9-259.6v-9.4h-9.4l18.7-9.4L-186.9-259.6z"/>
</g>
<g id="Layer_2">
	<path fill-rule="evenodd" clip-rule="evenodd" d="M22.2-235.9h-15c-2.1,0-3.7,1.7-3.7,3.8v22.5c0,2.1,1.7,3.7,3.7,3.7h15
		c2.1,0,3.7-1.7,3.7-3.7v-22.5C26-234.2,24.3-235.9,22.2-235.9z M24.5-209.6c0,1.2-1,2.2-2.2,2.2h-15c-1.2,0-2.2-1-2.2-2.2v-22.5
		c0-1.2,1-2.2,2.2-2.2h15c1.2,0,2.2,1,2.2,2.2V-209.6z"/>
	<path fill-rule="evenodd" clip-rule="evenodd" d="M-126.6-272.7c3.6,0,6.6,3,6.6,6.7c0,3.7-2.9,6.7-6.6,6.7c-3.6,0-6.6-3-6.6-6.7
		c0-2.3,1.2-4.4,2.9-5.6l-0.4-0.7l-1.1-2.1l-0.1-0.3h-6.8c-0.8,0-1.5,0.5-1.7,1.3l-0.4,1.2c2.3,1.1,3.9,3.4,3.9,6.1
		c0,3.7-2.9,6.7-6.6,6.7s-6.6-3-6.6-6.7c0-3.7,2.9-6.7,6.6-6.7c0.3,0,0.6,0.1,0.9,0.1l1-3.3c0.1-0.4,0.5-0.7,0.9-0.7h9.9l1.7-3.8
		h-3.2c-0.5,0-0.9-0.4-0.9-1c0-0.5,0.4-1,0.9-1h4.1h0.6c0.3,0,0.6,0.2,0.8,0.4c0.2,0.3,0.2,0.6,0.1,0.9l-0.3,0.6l-2.7,5.9l1.1,2.1
		C-127.9-272.6-127.2-272.7-126.6-272.7z M-141.3-270.3l-1,3c-0.1,0.2-0.2,0.4-0.5,0.6c-0.2,0.1-0.5,0.1-0.7,0.1
		c-0.5-0.2-0.8-0.7-0.6-1.2l0.9-2.9c-0.1,0-0.2,0-0.3,0c-2.6,0-4.7,2.1-4.7,4.8c0,2.6,2.1,4.8,4.7,4.8c2.6,0,4.7-2.1,4.7-4.8
		C-138.7-267.9-139.8-269.5-141.3-270.3z M-131.3-266c0,2.6,2.1,4.8,4.7,4.8c2.6,0,4.7-2.1,4.7-4.8c0-2.6-2.1-4.8-4.7-4.8
		c-0.3,0-0.7,0-1,0.1l2.3,4.3c0.1,0.2,0.1,0.5,0.1,0.7c-0.1,0.2-0.2,0.5-0.5,0.6l0,0c-0.5,0.2-1,0.1-1.2-0.4l-2.4-4.5
		C-130.5-269.1-131.3-267.6-131.3-266z M-140.6-278.5h-2.8c-0.5,0-0.9-0.4-0.9-1c0-0.5,0.4-1,0.9-1h5.6c0.2,0,0.3,0.1,0.3,0.2
		c0.1,0.1,0,0.3-0.1,0.4C-138.4-279-139.2-278.5-140.6-278.5z"/>
	<path fill-rule="evenodd" clip-rule="evenodd" d="M-70.9-271.8h-0.9v-5.6h0.9c0.5,0,0.9,0.4,0.9,0.9v3.7
		C-70-272.2-70.4-271.8-70.9-271.8z M-75.6-260.6v1.9c0,1-0.8,1.9-1.9,1.9h-1.9c-1,0-1.9-0.8-1.9-1.9v-1.9h-7.5v1.9
		c0,1-0.8,1.9-1.9,1.9h-1.9c-1,0-1.9-0.8-1.9-1.9v-1.9c-1,0-1.9-0.8-1.9-1.9v-16.8c0-3.1,2.5-5.6,5.6-5.6h11.2
		c3.1,0,5.6,2.5,5.6,5.6v16.8C-73.8-261.4-74.6-260.6-75.6-260.6z M-92.5-262.4c1,0,1.9-0.8,1.9-1.9c0-1-0.8-1.9-1.9-1.9
		c-1,0-1.9,0.8-1.9,1.9C-94.4-263.3-93.5-262.4-92.5-262.4z M-81.3-283h-7.5v1.9h7.5V-283z M-75.6-279.2h-18.7v11.2h18.7V-279.2z
		 M-77.5-266.2c-1,0-1.9,0.8-1.9,1.9c0,1,0.8,1.9,1.9,1.9c1,0,1.9-0.8,1.9-1.9C-75.6-265.3-76.5-266.2-77.5-266.2z M-100-272.7v-3.7
		c0-0.5,0.4-0.9,0.9-0.9h0.9v5.6h-0.9C-99.6-271.8-100-272.2-100-272.7z"/>
	<path fill-rule="evenodd" clip-rule="evenodd" d="M-25.6-269c0,2-1.7,3.7-3.7,3.7h-11.2c-2.1,0-3.7-1.6-3.7-3.7v-12.8h18.7v1.8
		c3.1,0,5.6,2.5,5.6,5.5C-20-271.5-22.5-269-25.6-269z M-40.6-280h-1.9v11c0,1,0.8,1.8,1.9,1.8V-280z M-25.6-278.2v7.3
		c2.1,0,3.7-1.6,3.7-3.7C-21.9-276.5-23.6-278.2-25.6-278.2z M-20-261.7c0,1-0.8,1.8-1.9,1.8h-26.2c-1,0-1.9-0.8-1.9-1.8
		c0-1,0.8-1.8,1.9-1.8h26.2C-20.8-263.5-20-262.7-20-261.7z"/>
	<g>
		<polygon fill-rule="evenodd" clip-rule="evenodd" points="28,-280.3 28,-258.3 2,-258.3 2,-256.3 30,-256.3 30,-257.3 30,-258.3 
			30,-280.3 		"/>
		<path fill-rule="evenodd" clip-rule="evenodd" d="M26-282.3h-3c0,1.7-1.3,3-3,3c-1.7,0-3-1.3-3-3h-7c0,1.7-1.3,3-3,3
			c-1.7,0-3-1.3-3-3H0v22h26V-282.3z M24-262.3H2v-15h22V-262.3z"/>
		<path fill-rule="evenodd" clip-rule="evenodd" d="M7-281.3c0.6,0,1-0.4,1-1v-2c0-0.6-0.4-1-1-1s-1,0.4-1,1v2
			C6-281.8,6.4-281.3,7-281.3z"/>
		<path fill-rule="evenodd" clip-rule="evenodd" d="M20-281.3c0.6,0,1-0.4,1-1v-2c0-0.6-0.4-1-1-1s-1,0.4-1,1v2
			C19-281.8,19.4-281.3,20-281.3z"/>
		<rect x="6" y="-274.3" fill-rule="evenodd" clip-rule="evenodd" width="3" height="3"/>
		<rect x="12" y="-274.3" fill-rule="evenodd" clip-rule="evenodd" width="3" height="3"/>
		<rect x="17" y="-274.3" fill-rule="evenodd" clip-rule="evenodd" width="3" height="3"/>
		<rect x="6" y="-269.3" fill-rule="evenodd" clip-rule="evenodd" width="3" height="3"/>
		<rect x="12" y="-269.3" fill-rule="evenodd" clip-rule="evenodd" width="3" height="3"/>
		<rect x="17" y="-269.3" fill-rule="evenodd" clip-rule="evenodd" width="3" height="3"/>
	</g>
	<g>
		<path fill-rule="evenodd" clip-rule="evenodd" d="M57-281.8c0.6,0,1-0.4,1-1v-2c0-0.6-0.4-1-1-1s-1,0.4-1,1v2
			C56-282.3,56.4-281.8,57-281.8z"/>
		<path fill-rule="evenodd" clip-rule="evenodd" d="M70-281.8c0.6,0,1-0.4,1-1v-2c0-0.6-0.4-1-1-1s-1,0.4-1,1v2
			C69-282.3,69.4-281.8,70-281.8z"/>
		<rect x="56" y="-274.8" fill-rule="evenodd" clip-rule="evenodd" width="3" height="3"/>
		<rect x="62" y="-274.8" fill-rule="evenodd" clip-rule="evenodd" width="3" height="3"/>
		<rect x="67" y="-274.8" fill-rule="evenodd" clip-rule="evenodd" width="3" height="3"/>
		<rect x="56" y="-269.8" fill-rule="evenodd" clip-rule="evenodd" width="3" height="3"/>
		<rect x="62" y="-269.8" fill-rule="evenodd" clip-rule="evenodd" width="3" height="3"/>
		<rect x="52" y="-258.8" fill-rule="evenodd" clip-rule="evenodd" width="17" height="2"/>
		<rect x="78" y="-280.8" fill-rule="evenodd" clip-rule="evenodd" width="2" height="13"/>
		<path fill-rule="evenodd" clip-rule="evenodd" d="M52-277.8h22v10h2v-15h-3c0,1.7-1.3,3-3,3s-3-1.3-3-3h-7c0,1.7-1.3,3-3,3
			s-3-1.3-3-3h-4v22h19v-2H52V-277.8z"/>
		<path fill-rule="evenodd" clip-rule="evenodd" d="M75-266.8c-2.8,0-5,2.2-5,5c0,2.8,2.2,5,5,5s5-2.2,5-5
			C80-264.6,77.8-266.8,75-266.8z M78-260.8h-2v2h-2v-2h-2v-2h2v-2h2v2h2V-260.8z"/>
		<rect x="67" y="-269.8" fill-rule="evenodd" clip-rule="evenodd" width="3" height="3"/>
	</g>
	<g>
		
			<rect x="-178.9" y="-213.6" transform="matrix(-0.5 -0.866 0.866 -0.5 -82.2819 -473.7773)" fill-rule="evenodd" clip-rule="evenodd" width="2" height="1"/>
		
			<rect x="-180.9" y="-217.1" transform="matrix(-0.5 -0.866 0.866 -0.5 -82.2659 -480.6997)" fill-rule="evenodd" clip-rule="evenodd" width="2" height="1"/>
		
			<rect x="-182.9" y="-220.6" transform="matrix(-0.5 -0.866 0.866 -0.5 -82.2822 -487.6339)" fill-rule="evenodd" clip-rule="evenodd" width="2" height="1"/>
		
			<rect x="-184.4" y="-224.5" transform="matrix(-0.866 0.5 -0.5 -0.866 -454.9297 -325.1611)" fill-rule="evenodd" clip-rule="evenodd" width="1" height="2"/>
		
			<rect x="-172.2" y="-218.1" transform="matrix(0.7072 -0.707 0.707 0.7072 103.2243 -184.93)" fill-rule="evenodd" clip-rule="evenodd" width="1" height="2"/>
		
			<rect x="-175.5" y="-220.4" transform="matrix(-0.7071 -0.7071 0.7071 -0.7071 -142.3503 -498.8053)" fill-rule="evenodd" clip-rule="evenodd" width="2" height="1"/>
		
			<rect x="-178.3" y="-223.2" transform="matrix(-0.7072 -0.7071 0.7071 -0.7072 -145.2093 -505.637)" fill-rule="evenodd" clip-rule="evenodd" width="2" height="1"/>
		
			<rect x="-181.1" y="-226.1" transform="matrix(0.7072 0.707 -0.707 0.7072 -212.2446 61.3144)" fill-rule="evenodd" clip-rule="evenodd" width="2" height="1"/>
		
			<rect x="-184.3" y="-211" transform="matrix(-0.2588 -0.9659 0.9659 -0.2588 -27.4386 -442.1298)" fill-rule="evenodd" clip-rule="evenodd" width="2" height="1"/>
		
			<rect x="-184.9" y="-215.4" transform="matrix(0.9659 -0.2589 0.2589 0.9659 49.2245 -55.0511)" fill-rule="evenodd" clip-rule="evenodd" width="1" height="2"/>
		
			<rect x="-185.9" y="-219.3" transform="matrix(0.9659 -0.2589 0.2589 0.9659 50.187 -55.4472)" fill-rule="evenodd" clip-rule="evenodd" width="1" height="2"/>
		
			<rect x="-187" y="-223.1" transform="matrix(0.9659 -0.2589 0.2589 0.9659 51.1546 -55.8507)" fill-rule="evenodd" clip-rule="evenodd" width="1" height="2"/>
		<rect x="-190.4" y="-210.3" fill-rule="evenodd" clip-rule="evenodd" width="1" height="2"/>
		<rect x="-190.4" y="-214.3" fill-rule="evenodd" clip-rule="evenodd" width="1" height="2"/>
		<rect x="-190.4" y="-218.3" fill-rule="evenodd" clip-rule="evenodd" width="1" height="2"/>
		<rect x="-190.4" y="-222.3" fill-rule="evenodd" clip-rule="evenodd" width="1" height="2"/>
		<path fill-rule="evenodd" clip-rule="evenodd" d="M-183-232.1l-3.1,1.8c-1.1-2.4-3.5-4-6.3-4c-3.9,0-7,3.1-7,7v20h4v-20
			c0-1.7,1.3-3,3-3c1.3,0,2.4,0.8,2.8,2l-3.8,2.2l1.5,2.6l10.4-6L-183-232.1z"/>
	</g>
	<path fill-rule="evenodd" clip-rule="evenodd" d="M-120.3-210.5l-9.3-9.6l9.4-9.8c0.1,0.2,0.1,0.5,0.1,0.7v17.6
		C-120-211.2-120.1-210.8-120.3-210.5z M-148.3-231.3l0.2,0h26.2l0.3,0.1l-13.4,13.9L-148.3-231.3z M-149.8-210.6
		c-0.1-0.3-0.2-0.6-0.2-0.9v-17.6c0-0.3,0.1-0.6,0.1-0.9l9.4,9.9L-149.8-210.6z M-135-214.5l4-4.1l9,9.3h-26.2l-0.1,0l9.2-9.3
		L-135-214.5z"/>
	<path d="M-100-235.8v30h30v-30H-100z M-79.7-215.3c0,0-6,6.5-7.9,7.3c0,0-7.2-5.9-9.4-9.5c-2.2-3.6-2.9-6.9,1.3-9.1
		c4.3-2.3,7.8,2.1,8.1,3c0,0,3.2-5.8,8.9-2.5C-72.9-222.7-79.7-215.3-79.7-215.3z M-72-229.8h-3v3h-2v-3h-3v-2h3v-3h2v3h3V-229.8z"
		/>
	<path d="M-91-225.8v11l3.5-2.6l-0.4,5.6l-1.3-0.4l1.6,3.2l2.3-2.7l-1.1,0l1.4-9.2l-4,2v-5L-91-225.8z"/>
	<path fill-rule="evenodd" clip-rule="evenodd" d="M-38-231.8h1v23h-1V-231.8z"/>
	<path fill-rule="evenodd" clip-rule="evenodd" d="M-21.4-218.9l-2.8-4.3l-1.1,2.2l3.9,6.4H-25l-0.6,5.7h-2.8l-0.6-5.7h-3.6l3.9-6.4
		l-1.1-2.2l-2.8,4.3H-34l2.3-5.9c0.3-0.8,1.1-1.3,1.9-1.3h1.4l1.4,2.9l1.4-2.9h1.4c0.8,0,1.6,0.5,1.9,1.3l2.3,5.9H-21.4z M-27-227.5
		c-1.2,0-2.1-1-2.1-2.2c0-1.2,0.9-2.2,2.1-2.2c1.2,0,2.1,1,2.1,2.2C-24.9-228.5-25.8-227.5-27-227.5z"/>
	<path fill-rule="evenodd" clip-rule="evenodd" d="M-43.9-217.5l-0.8,8.6h-2.7l-0.8-8.6H-50v-7.6c0.6-0.3,1.3-0.6,2.1-0.8l1.9,4.1
		l1.9-4.1c0.8,0.2,1.5,0.4,2.1,0.8v7.6H-43.9z M-46-227.5c-1.1,0-2-1-2-2.2c0-1.2,0.9-2.2,2-2.2s2,1,2,2.2
		C-44-228.5-44.9-227.5-46-227.5z"/>
	<path fill-rule="evenodd" clip-rule="evenodd" d="M77.5-216l-10.6-5.9c0-0.6,0.4-1.2,0.9-1.5c1.7-1,2.8-2.8,2.8-4.8
		c0-3.1-2.5-5.6-5.6-5.6s-5.6,2.5-5.6,5.6c0,1,0.8,1.9,1.9,1.9s1.9-0.8,1.9-1.9c0-1,0.8-1.9,1.9-1.9c1,0,1.9,0.8,1.9,1.9
		c0,0.7-0.4,1.3-0.9,1.6c-1.7,1-2.8,2.8-2.8,4.7l-10.7,6c-1.4,0.9-2.4,2.8-2.4,4.4c0,2,1.7,3.7,3.7,3.7h22.5c2.1,0,3.7-1.7,3.7-3.7
		C80-213.2,79-215.1,77.5-216z M53.8-211.5c0-0.4,0.4-1.1,0.6-1.2l10.6-5.9l10.5,5.9c0.3,0.2,0.7,0.9,0.7,1.3H53.8z"/>
	<path fill-rule="evenodd" clip-rule="evenodd" d="M-100-162.6h30v1h-30V-162.6z"/>
	<path fill-rule="evenodd" clip-rule="evenodd" d="M-87-161.6h4c1.1,0,2-0.9,2-2h-8C-89-162.5-88.1-161.6-87-161.6z"/>
	<path fill-rule="evenodd" clip-rule="evenodd" d="M-77-161.6h4c1.1,0,2-0.9,2-2h-8C-79-162.5-78.1-161.6-77-161.6z"/>
	<path fill-rule="evenodd" clip-rule="evenodd" d="M-83-172.6h-4c-1.1,0-2,0.9-2,2v6h8v-6C-81-171.7-81.9-172.6-83-172.6z
		 M-83.5-170.8h-3.1c-0.3,0-0.5-0.2-0.5-0.5c0-0.3,0.2-0.5,0.5-0.5h3.1c0.3,0,0.5,0.2,0.5,0.5C-83-171-83.2-170.8-83.5-170.8z"/>
	<path fill-rule="evenodd" clip-rule="evenodd" d="M-73-172.6h-4c-1.1,0-2,0.9-2,2v6h8v-6C-71-171.7-71.9-172.6-73-172.6z
		 M-73.5-170.8h-3.1c-0.3,0-0.5-0.2-0.5-0.5c0-0.3,0.2-0.5,0.5-0.5h3.1c0.3,0,0.5,0.2,0.5,0.5C-73-171-73.2-170.8-73.5-170.8z"/>
	<path fill-rule="evenodd" clip-rule="evenodd" d="M-84-170.6h8v1h-8V-170.6z"/>
	<path fill-rule="evenodd" clip-rule="evenodd" d="M-100-162.6h1v3h-1V-162.6z"/>
	<path fill-rule="evenodd" clip-rule="evenodd" d="M-71-162.6h1v3h-1V-162.6z"/>
	<path fill-rule="evenodd" clip-rule="evenodd" d="M-97-161.6h4c1.1,0,2-0.9,2-2h-8C-99-162.5-98.1-161.6-97-161.6z"/>
	<path fill-rule="evenodd" clip-rule="evenodd" d="M-93-172.6h-4c-1.1,0-2,0.9-2,2v6h8v-6C-91-171.7-91.9-172.6-93-172.6z
		 M-93.5-170.8h-3.1c-0.3,0-0.5-0.2-0.5-0.5c0-0.3,0.2-0.5,0.5-0.5h3.1c0.3,0,0.5,0.2,0.5,0.5C-93-171-93.2-170.8-93.5-170.8z"/>
	<path fill-rule="evenodd" clip-rule="evenodd" d="M-94-170.6h8v1h-8V-170.6z"/>
	<path fill="none" d="M-88.5-177.7h-3.1c-0.3,0-0.5,0.2-0.5,0.5c0,0.3,0.2,0.5,0.5,0.5h3.1c0.3,0,0.5-0.2,0.5-0.5
		C-88-177.5-88.2-177.7-88.5-177.7z"/>
	<path fill="none" d="M-78-177.2c0-0.3-0.2-0.5-0.5-0.5h-3.1c-0.3,0-0.5,0.2-0.5,0.5c0,0.3,0.2,0.5,0.5,0.5h3.1
		C-78.2-176.8-78-177-78-177.2z"/>
	<path fill="none" d="M-88-177.2c0-0.3-0.2-0.5-0.5-0.5h-3.1c-0.3,0-0.5,0.2-0.5,0.5c0,0.3,0.2,0.5,0.5,0.5h3.1
		C-88.2-176.8-88-177-88-177.2z"/>
	<path d="M-77-173.1h1v-3.5c0-1.1-0.9-2-2-2h-4c-1.1,0-2,0.9-2,2v3.5h1c1.4,0,2.5,1.1,2.5,2.5v1h1v-1C-79.5-172-78.4-173.1-77-173.1
		z M-81.5-176.8c-0.3,0-0.5-0.2-0.5-0.5c0-0.3,0.2-0.5,0.5-0.5h3.1c0.3,0,0.5,0.2,0.5,0.5c0,0.3-0.2,0.5-0.5,0.5H-81.5z"/>
	<path d="M-87-173.1h1v-3.5c0-1.1-0.9-2-2-2h-4c-1.1,0-2,0.9-2,2v3.5h1c1.4,0,2.5,1.1,2.5,2.5v1h1v-1C-89.5-172-88.4-173.1-87-173.1
		z M-91.5-176.8c-0.3,0-0.5-0.2-0.5-0.5c0-0.3,0.2-0.5,0.5-0.5h3.1c0.3,0,0.5,0.2,0.5,0.5c0,0.3-0.2,0.5-0.5,0.5H-91.5z"/>
	<g>
		<path d="M-179.9-161.9c-0.5-0.3-1.2-0.2-1.5,0.4c-1.4,2.2-3.7,3.5-6.3,3.5c-4.1,0-7.4-3.4-7.4-7.5c0-2.4,1.2-4.7,3.1-6.1
			c0.5-0.4,0.6-1,0.2-1.5c-0.4-0.5-1-0.6-1.5-0.3c-2.5,1.8-4,4.8-4,7.9c0,5.3,4.3,9.7,9.6,9.7c3.3,0,6.4-1.7,8.1-4.6
			C-179.2-160.9-179.3-161.6-179.9-161.9z"/>
		<path d="M-172.3-161.3c-0.2-0.6-0.8-0.9-1.4-0.7l-1.3,0.5c0,0-2.4-6.8-2.5-6.9c0,0-0.1-0.1-0.1-0.2c-0.3-0.5-0.9-0.9-1.5-0.9h-5.7
			l-0.1-2.1h4.7c0.6,0,1.1-0.5,1.1-1.1c0-0.6-0.5-1.1-1.1-1.1h-4.9l-0.2-3.1c0,0,0-0.1,0-0.1c-0.1-1.5-1.4-2.7-2.9-2.6
			c-1.5,0.1-2.7,1.4-2.6,2.9v0l0,0l0.4,8.1l0,0c0,0,0,0,0,0c0.1,1.5,1.3,2.6,2.7,2.6c0,0,7.4,0,7.4,0l2.2,6.1
			c0.2,0.7,0.9,1.1,1.5,1.1c0.1,0,0.2,0,0.3,0c0.1,0,0.1,0,0.2-0.1l2.9-1.1C-172.4-160.1-172.1-160.7-172.3-161.3z"/>
		
			<ellipse transform="matrix(5.248704e-02 0.9986 -0.9986 5.248704e-02 -361.2819 14.1009)" cx="-188.1" cy="-183.3" rx="2.5" ry="2.5"/>
	</g>
	<g>
		<path fill-rule="evenodd" clip-rule="evenodd" d="M-123-175.6c0-0.1,0-0.1,0-0.2c0-2-1.5-3.6-3.4-3.7c-0.7-0.8-1.7-1.3-2.8-1.3
			c-1.3,0-2.5,0.7-3.2,1.7c-0.5-0.3-1.2-0.5-1.8-0.5c-2.1,0-3.7,1.7-3.7,3.7c0,0.1,0,0.1,0,0.2c-1.5,0.5-2.5,1.9-2.5,3.5
			c0,0.1,0,0.2,0,0.2h-6h-1h-2v2h2v1h-2v1h2v1v1h1h7h1v-1v-1h2v-0.5c0.6,0,1.1-0.2,1.6-0.5c0.6,0.3,1.2,0.5,1.9,0.5
			c0.4,0,0.9-0.1,1.2-0.2v6.5h-1.2v1.2h5v-1.2h-1.2v-6.2c0.2,0,0.4,0,0.6-0.1c0.2,0,0.4,0.1,0.6,0.1c0.7,0,1.3-0.2,1.9-0.5
			c0.6,0.3,1.2,0.5,1.9,0.5c2.1,0,3.7-1.7,3.7-3.7C-120.5-173.7-121.6-175.1-123-175.6z M-146.5-169.8h6.8c0.1,0.1,0.1,0.2,0.2,0.3
			v0.7h-7V-169.8z M-139.5-166.8h-7v-1h7V-166.8z"/>
		<polygon fill-rule="evenodd" clip-rule="evenodd" points="-139.5,-164.8 -146.5,-164.8 -148.5,-164.8 -149.5,-164.8 
			-149.5,-163.8 -148.5,-163.8 -148.5,-160.8 -146.5,-160.8 -146.5,-163.8 -145.5,-163.8 -145.5,-161.8 -144.5,-161.8 
			-144.5,-163.8 -141.5,-163.8 -141.5,-161.8 -140.5,-161.8 -140.5,-163.8 -139.5,-163.8 -139.5,-160.8 -137.5,-160.8 
			-137.5,-163.8 -136.5,-163.8 -136.5,-164.8 -137.5,-164.8 		"/>
	</g>
	<g>
		<path fill-rule="evenodd" clip-rule="evenodd" d="M15.8-224.9c-0.1-0.2-0.2-0.4-0.4-0.5c-0.2-0.1-0.5-0.2-0.8-0.2h-1v4.4h0.9
			c0.4,0,0.7-0.1,0.9-0.2s0.4-0.3,0.5-0.4c0.1-0.2,0.2-0.4,0.2-0.7c0-0.3,0-0.6,0-0.9c0-0.3,0-0.6,0-0.9
			C16-224.5,15.9-224.7,15.8-224.9z"/>
		<path fill-rule="evenodd" clip-rule="evenodd" d="M21.4-232.9H8.1c-1.1,0-2,0.9-2,2v20c0,1.1,0.9,2,2,2h13.3c1.1,0,2-0.9,2-2v-20
			C23.4-232,22.5-232.9,21.4-232.9z M17.6-222c-0.1,0.4-0.2,0.8-0.4,1.1c-0.3,0.4-0.6,0.7-1,1s-1,0.4-1.7,0.4h-0.9v5h-1.8v-12.8h2.8
			c0.5,0,0.9,0.1,1.3,0.2c0.4,0.1,0.7,0.4,1,0.7c0.3,0.3,0.5,0.7,0.6,1.2c0.1,0.4,0.2,1.1,0.2,1.8C17.7-222.8,17.7-222.4,17.6-222z"
			/>
	</g>
	<path fill-rule="evenodd" clip-rule="evenodd" d="M-20.2-109.1L-34-133.6c-0.5-1-1.4-1-2,0l-13.8,24.6c-0.5,1-0.1,1.7,1,1.7h27.6
		C-20.1-107.3-19.7-108.1-20.2-109.1z M-33-112.3c0,0.6-0.5,1-1,1h-2c-0.5,0-1-0.4-1-1v-2c0-0.6,0.5-1,1-1h2c0.5,0,1,0.5,1,1V-112.3
		z M-33-118.3c0,0.6-0.4,1-1,1h-2c-0.5,0-1-0.4-1-1v-6c0-0.6,0.5-1,1-1h2c0.5,0,1,0.5,1,1L-33-118.3z"/>
	<g>
		<path d="M19.6-127.8c-1.4-0.4-3-0.7-4.6-0.7c-7.1,0-13,5.2-14.8,6.9c-0.3,0.3-0.3,0.8,0,1.1c1,1,3.5,3.2,6.9,4.9L19.6-127.8z"/>
		<path d="M29.8-121.6c-1.1-1-3.7-3.4-7.1-5l2.8-2.7H23l-17.4,17h2.4l2.2-2.1c1.5,0.5,3.2,0.8,4.9,0.8c7.1,0,13-5.2,14.8-6.9
			C30.1-120.8,30.1-121.3,29.8-121.6z M20.1-120c-0.4,1.9-2,3.5-4,3.9c-1.4,0.3-2.6,0-3.7-0.6l2.2-2.2c0.1,0,0.2,0,0.4,0
			c1.3,0,2.3-1,2.3-2.3c0-0.1,0-0.2,0-0.4l2.2-2.2C20.1-122.6,20.4-121.3,20.1-120z"/>
	</g>
	<g>
		<polygon points="65.9,-133.3 64,-133.3 64,-127.3 65.9,-127.3 		"/>
		<polygon points="74,-118 80,-119.2 79.5,-121.5 73.6,-120.3 		"/>
		<polygon points="76.3,-128.1 74.6,-129.7 70.4,-125.5 72,-123.8 		"/>
		<polygon points="56.4,-120.3 50.5,-121.5 50,-119.2 56,-118 		"/>
		<path d="M73-112.3l-2.3-10.9c-0.2-1.2-1.3-2.1-2.7-2.1l-5,0c-1.4,0-2.7,0.9-3,2.1l-2,10.9c0,0.1,0,0,0,1h-3l0.1,3H76v-3h-3
			C73-112.3,73-112.3,73-112.3z M65.1-112.3l-0.1-11h2c1.1,0,1.8,0.1,2,1l1,5c0,0.1,1,5,1,5H65.1z"/>
		<polygon points="59.6,-125.5 55.4,-129.7 53.7,-128.1 58,-123.8 		"/>
	</g>
	<path fill-rule="evenodd" clip-rule="evenodd" d="M-33.2-155.8h-4v-11h-2v-9c0-2.1,0.9-3,3-3h2c2.1,0,3,0.9,3,3v9h-2V-155.8z
		 M-35.2-180.2c-1.6,0-2.8-1.3-2.8-2.8c0-1.6,1.3-2.8,2.8-2.8s2.8,1.3,2.8,2.8C-32.4-181.5-33.6-180.2-35.2-180.2z"/>
	<path fill-rule="evenodd" clip-rule="evenodd" d="M-44.2-155.8h-4v-11h-2v-9c0-2.1,0.9-3,3-3h2c2.1,0,3,0.9,3,3v9h-2V-155.8z
		 M-46.2-180.2c-1.6,0-2.8-1.3-2.8-2.8c0-1.6,1.3-2.8,2.8-2.8s2.8,1.3,2.8,2.8C-43.4-181.5-44.6-180.2-46.2-180.2z"/>
	<path fill-rule="evenodd" clip-rule="evenodd" d="M-22.2-155.8h-4v-11h-2v-9c0-2.1,0.9-3,3-3h2c2.1,0,3,0.9,3,3v9h-2V-155.8z
		 M-24.2-180.2c-1.6,0-2.8-1.3-2.8-2.8c0-1.6,1.3-2.8,2.8-2.8s2.8,1.3,2.8,2.8C-21.4-181.5-22.6-180.2-24.2-180.2z"/>
	<path fill-rule="evenodd" clip-rule="evenodd" d="M14.6-182.8c-5,0-9,4-9,9c0,6,9,15,9,15s9-9,9-15
		C23.6-178.8,19.6-182.8,14.6-182.8z M14.6-169.7c-2.6,0-4.7-2.1-4.7-4.7c0-2.6,2.1-4.7,4.7-4.7s4.7,2.1,4.7,4.7
		C19.3-171.9,17.2-169.7,14.6-169.7z"/>
	<path fill-rule="evenodd" clip-rule="evenodd" d="M69.1-175.8c1,0,1.8,0.8,1.8,1.9c0,1-0.8,1.9-1.8,1.9h-6.7
		c-0.1,0.4-0.1,0.8-0.1,1.1c0,0.4,0,0.8,0.1,1.1h6.7c1,0,1.8,0.8,1.8,1.9c0,1-0.8,1.9-1.8,1.9h-5.6c1.7,3.2,5,5.3,8.5,5.3h0.4
		c0.8,0,1.4,0.7,1.4,1.7c0,1-0.6,1.9-1.3,2l0,0H72c-5.5,0-10.5-3.6-12.4-9.1h-2c-1,0-1.8-0.8-1.8-1.9c0-1,0.8-1.9,1.8-1.9h1.2v0
		c-0.1-0.4-0.1-0.7-0.1-1.1c0-0.4,0-0.7,0.1-1.1v0h-1.2c-1,0-1.8-0.8-1.8-1.9c0-1,0.8-1.9,1.8-1.9h2c2-5.4,6.9-9.1,12.4-9.1h0.4
		c0.8,0.1,1.4,1,1.4,2c0,1-0.5,1.7-1.2,1.7l-0.6,0c-3.5,0-6.8,2.1-8.5,5.3H69.1z"/>
	<path fill-rule="evenodd" clip-rule="evenodd" d="M-176.6-134.2l-0.3,0.2c-1.1,0.5-2.8,6.3-2.8,6.7l0,0.4c0.2,0.8,0.9,1.7,2.5,3.5
		c-0.9,2.1-3.4,4.9-4.9,6.2c-1.6,1.4-4.3,3.2-6.3,3.9c-1.8-2.1-2.6-2.9-3.5-3c-0.5,0-6.4,1-6.9,2l-0.2,0.3c-0.4,0.7-1.1,1.7-0.8,2.8
		c0.1,0.3,0.2,0.5,0.3,0.8c0.5,0.8,1.7,2.6,3.4,3.4c1,0.5,10.4,0.8,18.3-6.3c7.8-7,8.2-15.6,7.9-16.9l0,0l0-0.1
		c-0.6-1.8-2.3-3.2-3-3.8C-174.3-135.3-175.8-134.6-176.6-134.2z"/>
	<path fill-rule="evenodd" clip-rule="evenodd" d="M-147.2-132.8v18h18v-18H-147.2z M-131.2-116.8h-14v-14h14V-116.8z"/>
	<path fill-rule="evenodd" clip-rule="evenodd" d="M-125.2-118.8v-10h-2l3-4l3,4h-2v10h2l-3,4l-3-4"/>
	<path fill-rule="evenodd" clip-rule="evenodd" d="M-133.2-108.8h-10v2l-4-3l4-3v2h10v-2l4,3l-4,3"/>
	<g opacity="0.4">
		<path fill-rule="evenodd" clip-rule="evenodd" d="M-91.5-115.9l4-4c-0.1-0.2-0.1-0.5-0.1-0.7c0-1,0.6-1.9,1.5-2.3v-9.9
			c0-0.5,0.5-1,1-1c-7.2,0-13,5.8-13,13c0,3.6,1.5,6.8,3.8,9.2l2.8-2.8C-91.9-114.9-91.9-115.5-91.5-115.9z"/>
	</g>
	<g>
		<g>
			<path fill-rule="evenodd" clip-rule="evenodd" d="M-85.2-135.8c-1,0-2,0.1-3,0.3c-1,0.2-1.9,0.5-2.8,0.9
				c-1.3,0.6-2.6,1.3-3.7,2.2s-2.1,2-2.9,3.2c-1.6,2.4-2.6,5.3-2.6,8.4c0,1.6,0.2,3.1,0.7,4.5c0.7,2.3,2,4.4,3.7,6.1
				c0.3,0.3,0.7,0.7,1.1,1c0.7,0.6,1.5,1.2,2.4,1.6c0.4,0.2,0.9,0.4,1.3,0.6c0.9,0.4,1.8,0.7,2.8,0.9c1,0.2,2,0.3,3,0.3
				c8.3,0,15-6.7,15-15C-70.2-129.1-76.9-135.8-85.2-135.8z M-85.2-118.1c-0.3,0-0.6-0.1-0.9-0.2l-3.9,3.9c-0.4,0.4-1.1,0.4-1.5,0
				c0,0,0,0,0,0l-2.8,2.8c-2.4-2.4-3.8-5.6-3.8-9.2c0-7.2,5.8-13,13-13c0.5,0,1,0.5,1,1v9.9c0.9,0.4,1.5,1.3,1.5,2.3
				C-82.7-119.2-83.8-118.1-85.2-118.1z"/>
		</g>
	</g>
	<path fill-rule="evenodd" clip-rule="evenodd" d="M-184-58.9h-2l-14-2v-19.9h2v18.2l12,1.7h2l12-1.7v-18.2h2v19.9L-184-58.9z
		 M-184-80.7c3.6-2.1,10-2.1,10-2.1v17.9c0,0-6.4,0-10,2.1V-80.7z M-196-82.8c0,0,6.4,0,10,2.1v17.9c-3.6-2.1-10-2.1-10-2.1V-82.8z"
		/>
	<path fill-rule="evenodd" clip-rule="evenodd" d="M-120.5-76.9l-0.2,0.1l0,0l-2.7,2.7l-8.4-8.4l2.7-2.7l0,0l0.1-0.2
		c0.7-0.7,2-0.7,2.7,0.1l5.6,5.6C-119.8-78.9-119.8-77.6-120.5-76.9z M-143-65.7l12.5-12.6l2.8,2.8l-12.5,12.6l1.4,1.4l12.5-12.6
		l1.4,1.4l-13.9,14l-8.4-8.4l13.9-14l1.4,1.4l-12.5,12.6L-143-65.7z M-140.2-57.2l-4.9,0.7l-4.9,0.7l0.7-4.9l0.7-4.9l4.2,4.2
		L-140.2-57.2z"/>
	<path fill-rule="evenodd" clip-rule="evenodd" d="M-74-56.8l-26,0v-28l30,0v24L-74-56.8z M-91-58.8h12v-7h-12V-58.8z M-76-82.8h-18
		v12h18V-82.8z M-89-63.8l4,0v3h-4V-63.8z"/>
	<path fill-rule="evenodd" clip-rule="evenodd" d="M-50-73.8l3-2l8,14l16-23l3,2l-19,27L-50-73.8"/>
	<path fill-rule="evenodd" clip-rule="evenodd" d="M23.6-78l-1.8-1.8l-7.2,7.2l-7.2-7.2L5.6-78l7.2,7.2l-7.2,7.2l1.8,1.8l7.2-7.2
		l7.2,7.2l1.8-1.8l-7.2-7.2L23.6-78z"/>
	<path fill-rule="evenodd" clip-rule="evenodd" d="M64.8-79.3c-4.7,0-8.5,3.8-8.5,8.5s3.8,8.5,8.5,8.5s8.5-3.8,8.5-8.5
		S69.5-79.3,64.8-79.3z M69.8-68.1l-2.2,2.2l-2.8-2.8l-2.8,2.8l-2.2-2.2l2.8-2.8l-2.8-2.8l2.2-2.2l2.8,2.8l2.8-2.8l2.2,2.2L67-70.8
		L69.8-68.1z"/>
	<path fill-rule="evenodd" clip-rule="evenodd" d="M-177.7-28.5c-0.9,0-1.6-0.7-1.6-1.6c0-0.9,0.7-1.6,1.6-1.6
		c0.9,0,1.6,0.7,1.6,1.6C-176.2-29.2-176.9-28.5-177.7-28.5z M-179.9-33.8c-0.4,0-0.8-0.2-1.1-0.5c-0.6-0.6-0.6-1.6,0-2.2
		c0.3-0.3,0.7-0.5,1.1-0.5c0.4,0,0.8,0.2,1.1,0.5c0.6,0.6,0.6,1.6,0,2.2C-179.1-33.9-179.5-33.8-179.9-33.8z M-185.2-35
		c-1.4,0-2.5-1.1-2.5-2.5c0-1.4,1.1-2.5,2.5-2.5c1.4,0,2.5,1.1,2.5,2.5C-182.7-36.1-183.8-35-185.2-35z M-190.4-23.2
		c-0.4,0-0.8-0.2-1.1-0.5c-0.6-0.6-0.6-1.6,0-2.2c0.3-0.3,0.7-0.5,1.1-0.5c0.4,0,0.8,0.2,1.1,0.5c0.6,0.6,0.6,1.6,0,2.2
		C-189.6-23.4-190-23.2-190.4-23.2z M-190.4-33.8c-0.4,0-0.8-0.2-1.1-0.5c-0.6-0.6-0.6-1.6,0-2.2c0.3-0.3,0.7-0.5,1.1-0.5
		c0.4,0,0.8,0.2,1.1,0.5c0.6,0.6,0.6,1.6,0,2.2C-189.6-33.9-190-33.8-190.4-33.8z M-191.1-30c0,0.9-0.7,1.6-1.6,1.6
		c-0.9,0-1.6-0.7-1.6-1.6c0-0.9,0.7-1.6,1.6-1.6C-191.8-31.6-191.1-30.9-191.1-30z M-185.2-24.1c0.9,0,1.6,0.7,1.6,1.6
		c0,0.9-0.7,1.6-1.6,1.6c-0.9,0-1.6-0.7-1.6-1.6C-186.7-23.4-186-24.1-185.2-24.1z M-179.9-26.3c0.4,0,0.8,0.2,1.1,0.5
		c0.6,0.6,0.6,1.6,0,2.2c-0.3,0.3-0.7,0.5-1.1,0.5c-0.4,0-0.8-0.2-1.1-0.5c-0.6-0.6-0.6-1.6,0-2.2
		C-180.7-26.1-180.3-26.3-179.9-26.3z"/>
	<g>
		<circle fill-rule="evenodd" clip-rule="evenodd" cx="15" cy="-41.4" r="2.3"/>
		<rect x="0.2" y="-33" fill-rule="evenodd" clip-rule="evenodd" width="1.8" height="7.3"/>
		<path fill-rule="evenodd" clip-rule="evenodd" d="M24.7-30.1H21l-0.1-6.3c0-1.2-1-2.2-2.2-2.2h-7.6c-1.2,0-2.2,1-2.2,2.2l0,6.3
			H5.3v-4.1H2.8v9.6h2.5v-4.1h3.7h2.1h0.6c-0.2,3.6-0.6,12.2-0.6,12.2h2.9l0.6-11.2c0.1,0,0.5,0,0.6,0l0.9,11.2h2.9
			c0,0-0.6-8.6-0.8-12.2h0.6h2.1h3.8v4.1h2.5v-9.6h-2.5V-30.1z M11.2-30.1L11.2-30.1v-4.7c0-0.2,0.1-0.3,0.3-0.3
			c0.2,0,0.3,0.1,0.3,0.3v3.9c0,0,0,0.3,0,0.8H11.2z M18.8-30.1h-0.6c0-0.5,0-0.8,0-0.8v-3.9c0-0.2,0.1-0.3,0.3-0.3
			c0.2,0,0.3,0.1,0.3,0.3V-30.1z"/>
		<rect x="28" y="-33" fill-rule="evenodd" clip-rule="evenodd" width="1.8" height="7.3"/>
	</g>
	<g>
		<path fill="#010101" d="M67.9-23.2c1.5-0.1,2.9-0.2,2.9-0.2l-2.2-1.3l-2.7-1.5l-4.1-2.3l-2.7-1.5l-2.2-1.3c0,0,0.7,1.2,1.4,2.5
			c0.8,1.5,1.5,3.1,1.4,3.4c-0.2,0.7-3.2,5.3-3.9,6.3c-0.5,0.8,0.9,2.2,1.9,2.8c1,0.5,2.9,1,3.3,0.1c0.5-1.3,2.8-6.1,3.3-6.6
			C64.5-22.9,66.3-23.1,67.9-23.2z"/>
		<g>
			<path fill="#010101" d="M76.7-28.6c3.3-5.8,1.8-12.8-3.3-15.7c-5.1-2.8-11.8-0.4-15.1,5.4c-1.2,2.2-1.8,4.5-1.7,6.7l15.3,8.6
				C73.7-24.8,75.4-26.4,76.7-28.6z"/>
		</g>
	</g>
	<circle fill="#010101" cx="55.6" cy="-42.4" r="2.6"/>
	<g>
		<path d="M-172.5,8.6V5.1l-5.5-4.5l-1.3,1.1c-1-0.9-2.3-1.5-3.7-1.5c-2,0-3.7,1-4.7,2.6c-0.8-0.5-1.7-0.7-2.7-0.7
			c-3.1,0-5.6,2.5-5.6,5.6c0,0.1,0,0.2,0,0.3c-1.9,0.7-3.3,2.3-3.7,4.3c0,0,0,0.1,0,0.1c0,0.3-0.1,0.5-0.1,0.8c0,0,0,0,0,0
			c0,0,0,0,0,0c0,0,0,0,0,0c0,3.1,2.5,5.5,5.6,5.5c0.1,0,0.2,0,0.4,0l0,0c0.3,0,0.5-0.1,0.8-0.1V20c-1.3,0.2-2.3,1.4-2.3,2.8
			c0,1.6,1.3,2.8,2.8,2.8c1.6,0,2.8-1.3,2.8-2.8c0-1.4-1-2.5-2.3-2.8v-1.6c0.2-0.1,0.4-0.2,0.6-0.3c0.8,0.5,1.8,0.8,2.8,0.8
			c0.7,0,1.3-0.1,1.9-0.3v9.7h-1.9V30h7.5v-1.9h-1.9v-9.3c0.3,0,0.6,0,0.9-0.1c0.3,0.1,0.6,0.1,0.9,0.1c1,0,2-0.3,2.8-0.8
			c0.8,0.5,1.8,0.8,2.8,0.8c3.1,0,5.6-2.5,5.6-5.6C-170,11.3-171,9.6-172.5,8.6z M-190.8,22.8c0,1-0.8,1.8-1.8,1.8
			c-1,0-1.8-0.8-1.8-1.8s0.8-1.8,1.8-1.8C-191.6,20.9-190.8,21.8-190.8,22.8z M-173.5,13h-4.5V8.9h-3V13h-1.5V5.5l4.5-3.7l4.5,3.7
			V13z"/>
		<circle cx="-175.7" cy="6.3" r="1.3"/>
	</g>
	<g>
		<g>
			<polygon fill="#010101" points="-123,19 -146.6,22.3 -150,19.2 -149.1,18.3 -146.2,20.9 -123.7,17.8 -121,14.3 -120,15 			"/>
		</g>
		<g>
			<g>
				<circle fill="#010101" cx="-142.9" cy="24" r="1.5"/>
			</g>
			<g>
				<g>
					<circle fill="#010101" cx="-125.5" cy="21.6" r="1.5"/>
				</g>
			</g>
		</g>
	</g>
	<g>
		<polygon fill="#010101" points="-90.3,13.8 -88.2,19.9 -81.8,19.9 -79.7,13.8 -85,9.9 		"/>
		<path fill="#010101" d="M-85,0c-8.3,0-15,6.7-15,15s6.7,15,15,15s15-6.7,15-15S-76.7,0-85,0z M-73.4,19.9
			c-0.4,0.9-0.9,1.8-1.5,2.6l-0.1-1.3l-4.7,1.1l-2.5,4.2l1.3,0.6c-1.3,0.4-2.7,0.7-4.1,0.7c-1.4,0-2.7-0.2-4-0.7l1.3-0.6l-2.5-4.2
			l-4.7-1.1l-0.1,1.4c-0.6-0.8-1.1-1.7-1.5-2.6c-0.7-1.6-1-3.2-1-4.9c0,0,0-0.1,0-0.1l0.9,0.9l3.2-3.7L-94,7.3l-1.2,0.2
			c0.4-0.5,0.8-1,1.3-1.5c1.2-1.2,2.5-2.1,4-2.7c0.3-0.1,0.7-0.3,1-0.4l-0.6,1.1L-85,6l4.5-1.9L-81.2,3c0.4,0.1,0.7,0.2,1.1,0.4
			c1.5,0.6,2.9,1.5,4,2.7c0.5,0.5,0.9,1,1.3,1.5L-76,7.3l-0.4,4.8l3.2,3.7l0.9-0.9c0,0,0,0,0,0.1C-72.4,16.7-72.7,18.4-73.4,19.9z"
			/>
	</g>
	<g id="Layer_4">
		<polygon fill="#010101" points="-36.8,28 -34.2,28 -34.2,22.8 -35.5,21.3 -36.8,22.8 		"/>
		<g>
			<path fill="#010101" d="M-39.4,4.7c-0.4-0.2-0.6-0.6-0.7-1c-0.1-0.4,0-0.8,0.2-1.2c0.2-0.4,0.6-0.6,1-0.7c0.4-0.1,0.8,0,1.2,0.2
				c0.4,0.2,0.6,0.6,0.7,1c0.1,0.4,0,0.8-0.2,1.2c-0.2,0.4-0.6,0.6-1,0.7C-38.7,5-39.1,5-39.4,4.7z"/>
			<path fill="#010101" d="M-46.4,11l4-0.6L-44.9,8c-0.1-0.1-0.2-0.3-0.3-0.5C-45.3,7-45,6.6-44.6,6.2l2.3-2
				c0.2-0.2,0.4-0.3,0.6-0.3c0.4-0.1,0.7,0,1,0.2c0.3,0.2,0.5,0.5,0.6,0.9c0.1,0.5-0.1,0.9-0.5,1.2l-1.9,1.6l2,2
				c0.1,0.1,0.2,0.3,0.2,0.6c0,0.3,0,0.5-0.2,0.7c-0.2,0.3-0.4,0.4-0.7,0.5l-5.1,0.9L-46.4,11z"/>
		</g>
		<path fill="#010101" d="M-22.9,18c-0.4,0.2-0.8,0.2-1.2,0.1c-0.4-0.1-0.7-0.4-0.9-0.8c-0.2-0.4-0.2-0.8-0.1-1.2
			c0.1-0.4,0.4-0.7,0.8-0.9c0.4-0.2,0.8-0.2,1.2-0.1c0.4,0.1,0.7,0.4,0.9,0.8c0.2,0.4,0.2,0.8,0.1,1.2C-22.3,17.5-22.5,17.8-22.9,18
			z"/>
		<path fill="#010101" d="M-49.5,14.3l21.1,8c0.1-0.2,0.2-0.3,0.4-0.4c0.2-0.1,0.5-0.2,0.7-0.1l2.7,0.7l0-2.5c0-0.5,0.2-0.9,0.7-1.2
			c0.3-0.2,0.7-0.2,1.1-0.1c0.4,0.1,0.7,0.3,0.8,0.7c0.1,0.2,0.1,0.4,0.1,0.7l0,3.1c0,0.6-0.1,1-0.7,1.3c0,0-0.1,0-0.2,0l2.8,1
			l-0.5,1.4l-4.9-1.9l-0.6-1.1l-0.2,0.1l-0.2,0.1l1.8,3.4l-0.7,0.4l-0.8,0.3l-2.3-4.4L-50,15.7L-49.5,14.3z"/>
	</g>
	<circle fill="none" cx="6.4" cy="6.9" r="0.7"/>
	<circle fill="none" cx="4.6" cy="8.7" r="0.7"/>
	<circle fill="none" cx="4" cy="6.3" r="0.7"/>
	<g>
		<path fill="#010101" d="M19.6,14.4c0.3,0,0.7,0.1,1,0.2l0.9,0.3L20.3,3.1L20.1,0h-3.1l-0.3,3.1h-3.9L12.5,0H9.4L9.1,3.1H5.3L5,0
			H1.9L1.6,3.1h0l-1.7,18.8c0,0,4.8,1.6,11,1.6c1.6,0,3.1-0.1,4.5-0.3l1.4-6.6C17.1,15.3,18.2,14.4,19.6,14.4z M3.5,5.8
			c0.3-0.3,0.7-0.3,1,0c0.3,0.3,0.3,0.7,0,1c-0.3,0.3-0.7,0.3-1,0C3.2,6.5,3.2,6.1,3.5,5.8z M5.1,9.2c-0.3,0.3-0.7,0.3-1,0
			c-0.3-0.3-0.3-0.7,0-1c0.3-0.3,0.7-0.3,1,0C5.4,8.4,5.4,8.9,5.1,9.2z M6.9,7.4c-0.3,0.3-0.7,0.3-1,0c-0.3-0.3-0.3-0.7,0-1
			c0.3-0.3,0.7-0.3,1,0C7.2,6.7,7.2,7.1,6.9,7.4z"/>
		<circle fill="#010101" cx="23.5" cy="28.1" r="0.7"/>
		<path fill="#010101" d="M29.4,19.9l-3.3-1.2l3.4-10.5l-2.8-1l-3.4,10.5l-3.3-1.2c-0.1,0-0.2-0.1-0.3-0.1c-0.4,0-0.7,0.3-0.8,0.7
			l-1.9,9.3c-0.1,0.3,0,0.5,0.1,0.7c1-0.8,2.3-1.6,3.9-2.2c2-0.8,4.7-0.7,6.7,0.5l2.3-4.3C30.2,20.6,29.9,20.1,29.4,19.9z"/>
		<circle fill="#010101" cx="25.6" cy="26.8" r="0.7"/>
		<circle fill="#010101" cx="25.6" cy="29.3" r="0.7"/>
	</g>
	<path fill="none" d="M-127.6-34.8l-0.4,0.7c0.3,0.2,0.6,0.4,0.9,0.5l0.4-0.7C-127.1-34.4-127.4-34.6-127.6-34.8z"/>
	<path fill="none" d="M-129.9-31.1c0.3,0.1,0.6,0.3,0.9,0.5l0.4-0.7c-0.3-0.2-0.6-0.3-0.9-0.5L-129.9-31.1z"/>
	<circle cx="-145.9" cy="-22.1" r="4.1"/>
	<path d="M-120.1-29.5c-1.7,1.4-2.8,3.6-2.8,6c0,0.7,0.1,1.4,0.3,2.1c1.6-1.8,2.6-4.2,2.6-6.8C-120-28.6-120-29-120.1-29.5z"/>
	<path d="M-130.2-38.3c-0.1,0-0.3,0-0.4,0c0.5,1.1,1.2,2.1,2.1,2.9l1.5-2.4C-128-38.1-129.1-38.3-130.2-38.3z"/>
	<path d="M-126.7-34.3l1.7-2.7c-0.3-0.2-0.6-0.3-0.9-0.5l-1.7,2.6C-127.4-34.6-127.1-34.4-126.7-34.3z"/>
	<path d="M-123.3-33.5c0.6,0,1.2-0.1,1.7-0.2c-0.7-1.1-1.6-2-2.6-2.7l-1.6,2.5C-125-33.6-124.2-33.5-123.3-33.5z"/>
	<path d="M-131.4-38.3c-4.9,0.6-8.7,4.6-8.9,9.6c1.5-2.4,4.2-4,7.3-4c0.9,0,1.8,0.1,2.6,0.4l1.6-2.5
		C-130-35.7-130.9-36.9-131.4-38.3z"/>
	<path d="M-129.5-31.8c0.3,0.1,0.6,0.3,0.9,0.5l1.4-2.2c-0.3-0.2-0.6-0.3-0.9-0.5L-129.5-31.8z"/>
	<path d="M-120.2-30.4c-0.2-0.9-0.5-1.8-0.9-2.5c-0.7,0.2-1.4,0.3-2.1,0.3c-1,0-2-0.2-2.9-0.5l-1.5,2.4c2,1.6,3.3,4,3.3,6.8
		c0,1.9-0.6,3.6-1.7,5.1c1-0.5,1.9-1.1,2.8-1.8c-0.3-0.9-0.5-1.8-0.5-2.7C-123.7-26.3-122.4-28.8-120.2-30.4z"/>
	<path d="M-130.2-18c0.9,0,1.7-0.1,2.6-0.3c1.5-1.4,2.4-3.4,2.4-5.6c0-2.5-1.1-4.7-2.9-6.1l-6.8,10.9C-133.5-18.4-131.9-18-130.2-18
		z"/>
	<path d="M-129.9-31.1l-6.7,10.8c0.3,0.2,0.5,0.4,0.8,0.6l6.8-10.9C-129.3-30.8-129.6-31-129.9-31.1z"/>
	<path d="M-133.1-31.8c-3.2,0-6,2-7.2,4.8c0.3,2.3,1.3,4.4,2.8,5.9l6.5-10.4C-131.6-31.7-132.3-31.8-133.1-31.8z"/>
	<path fill="#010101" d="M-22.1-26.6c0.1-0.5,0.1-1,0.1-1.5c0-4.2-3.5-7.6-7.8-7.6c-0.2,0-0.5,0-0.7,0c-1,0.8-2.2,1.5-3.6,2.1
		c-1.2,0.6-2.4,1.1-3.5,1.4c0-0.2,0-0.4-0.1-0.5c1.1-0.3,2.2-0.8,3.4-1.4c0.9-0.5,1.8-0.9,2.5-1.4c1-0.7,1.9-1.4,2.6-2.1
		c1.1-1.2,1.6-2.2,1.3-2.8c-0.2-0.5-0.9-0.7-2-0.7c-1.8,0-4.4,0.8-7,2c-2.1,1-3.7,2.2-4.8,3.2c-1.4-0.2-3,0.1-4.5,0.9
		c-3.2,1.7-4.8,5-3.5,7.4c1,1.8,3.3,2.6,5.8,2.1l0.1,0.1c-1.3,2.1-1.3,4.8-1.3,4.8h3.2h2.7c0-2.8,4-3.2,4.2-3.2l0,0.3l0,0.3
		c0,0-0.2,0-0.5,0.1c-0.9,0.2-3.1,0.8-3.2,2.4c0,0.1,0,0.1,0,0.2h2.2h6.9l0,0c2.2-0.1,4.1-1,5.5-2.5c0.4,0.5,1,0.8,1.7,0.8
		c1.2,0,2.3-1,2.3-2.3C-20-25.5-20.9-26.5-22.1-26.6z M-45.6-30.7c-0.5,0-0.9-0.4-0.9-0.9c0-0.5,0.4-0.9,0.9-0.9
		c0.5,0,0.9,0.4,0.9,0.9C-44.7-31.1-45.1-30.7-45.6-30.7z"/>
	<path fill="#010101" d="M82,26.8l-9.4-9.4c1.2-1.8,1.9-4,1.9-6.2c0-3-1.2-5.8-3.3-7.9C69.1,1.2,66.4,0,63.4,0c-3,0-5.8,1.2-7.9,3.3
		c-2.1,2.1-3.3,4.9-3.3,7.9s1.2,5.8,3.3,7.9c2.1,2.1,4.9,3.3,7.9,3.3c2.3,0,4.4-0.7,6.3-1.9l9.4,9.4c0.3,0.3,0.9,0.2,1.3-0.2
		l1.6-1.6C82.3,27.7,82.3,27.1,82,26.8z M63.4,19.3c-4.5,0-8.1-3.7-8.1-8.1S58.9,3,63.4,3s8.1,3.7,8.1,8.1S67.9,19.3,63.4,19.3z"/>
	<g id="Your_Icon">
		<path fill="#010101" d="M82.2,46.6H57.9l-1.1-3.5h-4.7l0.6,1.7h2.8l5.5,17.2c-1.2,0.2-2.1,1.3-2.1,2.5c0,1.4,1.2,2.6,2.6,2.6
			c1.4,0,2.6-1.1,2.6-2.6c0-0.3-0.1-0.6-0.2-0.9h7.2c-0.1,0.3-0.2,0.6-0.2,0.9c0,1.4,1.2,2.6,2.6,2.6c1.4,0,2.6-1.1,2.6-2.6
			c0-1.4-1.1-2.5-2.4-2.6c0,0-0.2,0-0.2,0l-10.7,0l-1.1-3.4h13.5L82.2,46.6z"/>
	</g>
	<path fill="#010101" d="M-24,59.9c-0.2-0.1-0.4-0.2-0.6-0.3l-0.1,0c0,0-1-0.5-1.1-4.4c-0.1-3.9,0.9-4.5,0.9-4.5l0.1-0.1
		c1-0.5,1.8-1.3,2.3-2.3c1.4-2.7,0.4-6-2.3-7.4c-2.7-1.4-6-0.4-7.4,2.3c-0.6,1.1-0.7,2.3-0.6,3.4l0,0c0,0,0.3,1.3-3.1,3.4
		c-3.3,2.1-4.9,1.1-4.9,1.1l-0.2-0.1c-2.7-1.4-6-0.4-7.4,2.3c-1.4,2.7-0.4,6,2.3,7.4c2,1.1,4.3,0.8,6-0.6l0,0c0,0,1.1-0.9,4.6,1
		c2.8,1.5,3.2,2.9,3.2,3.5c-0.1,2,1,4,2.9,5c2.7,1.4,6,0.4,7.4-2.3C-20.3,64.6-21.3,61.3-24,59.9z M-46.7,58.7
		C-46.7,58.7-46.7,58.7-46.7,58.7C-46.7,58.7-46.7,58.7-46.7,58.7L-46.7,58.7z M-40.8,52.3c-0.7-0.6-2.4-0.5-3.9,0.4
		c0.2,0.2,0.3,0.4,0.3,0.7c0,0.6-0.5,1.2-1.1,1.2c-0.1,0-0.2,0-0.3,0c0,0,0,0-0.1,0c-0.4-0.1-0.7,0.2-0.8,0.3c-0.8,1.5-0.8,3,0,3.7
		c-1.5-1.5-1.5-4,0.1-5.8C-45,51.1-42.4,50.9-40.8,52.3L-40.8,52.3z M-30.6,42.6c1.6-1.8,4.2-2,5.8-0.6l0,0
		c-0.7-0.6-2.4-0.5-3.9,0.4c0.2,0.2,0.3,0.4,0.3,0.7c0,0.6-0.5,1.2-1.1,1.2c-0.1,0-0.2,0-0.3,0c0,0,0,0-0.1,0
		c-0.4-0.1-0.7,0.2-0.8,0.3c-0.8,1.5-0.8,3,0,3.7C-32.2,46.9-32.2,44.3-30.6,42.6z M-34.6,59.5c-2.9-1.5-3.3-2.8-3.4-3.2
		c0-0.5,0-0.9-0.1-1.4l0,0c0,0-0.2-1.3,3.1-3.3c3-1.8,4.3-1.5,4.5-1.4c0.2,0.1,0.3,0.2,0.5,0.3c0.3,0.2,0.7,0.3,1,0.4
		c0.4,0.4,1.2,1.5,1.2,4.4c0.1,2.9-0.8,4-1.2,4.4c-0.5,0.2-0.9,0.5-1.3,0.9C-30.6,60.7-31.9,60.9-34.6,59.5z M-29.7,67.4
		C-29.7,67.4-29.7,67.4-29.7,67.4C-29.7,67.4-29.7,67.4-29.7,67.4L-29.7,67.4z M-23.9,61c-0.7-0.6-2.4-0.5-3.9,0.4
		c0.2,0.2,0.3,0.4,0.3,0.7c0,0.6-0.5,1.2-1.1,1.2c-0.1,0-0.2,0-0.3,0c0,0,0,0-0.1,0c-0.4-0.1-0.7,0.2-0.8,0.3c-0.8,1.5-0.8,3,0,3.7
		c-1.5-1.5-1.5-4,0.1-5.8C-28,59.9-25.4,59.6-23.9,61L-23.9,61z"/>
	<path fill="#010101" d="M0,51.9C0,52,0,52,0,51.9L0,51.9C0,51.9,0,51.9,0,51.9z"/>
	<g>
		<ellipse fill="#010101" cx="9" cy="51.4" rx="1" ry="1"/>
		<path fill="#010101" d="M20.5,56.5c0.6-0.1,0.9-0.7,0.8-1.2c-0.1-0.6-0.7-0.9-1.3-0.8c-0.6,0.1-0.9,0.7-0.8,1.2
			C19.4,56.3,20,56.7,20.5,56.5z"/>
		<path fill="#010101" d="M27.1,64.1c-1.4,0-3-1.5-4.8-3.2c-0.2-0.2-0.4-0.4-0.6-0.5l-0.6-2.5c-0.1-0.6-0.7-1-1.3-0.8
			c-0.5,0.1-0.8,0.5-0.9,1c-1.7-1.3-3.7-2.2-6-2.2v-9.9l-6.7-3.7L0,45.9v9.9v3.3v9.1h1.3v-1.7h4.2v1.7h1.3v-1.7h5v1.7h1.3v-9.1v-0.8
			c2.9,0,5.4,2.2,7.7,4.4c2.1,2,4.1,3.8,6.5,3.8h0.4v1.7h1.2v-1.7H30v-2.5H27.1z M5.4,65.7H1.3v-1.7h4.2L5.4,65.7L5.4,65.7z
			 M5.4,63.2H1.3v-1.7h4.2L5.4,63.2L5.4,63.2z M5.4,60.8H1.3v-1.7h4.2L5.4,60.8L5.4,60.8z M11.7,55.8h-1.3l-0.5-2.1
			c-0.1-0.6-0.7-1-1.3-0.8c-0.6,0.1-1,0.7-0.8,1.3l0.4,1.6H1.3v-9.1h10.4L11.7,55.8L11.7,55.8z"/>
	</g>
	<g>
		<path fill="#585D5C" d="M-75.4,59.5c-3,0-5.4,2.4-5.4,5.3c0,2.9,2.4,5.3,5.4,5.3c3,0,5.4-2.4,5.4-5.3
			C-70,61.9-72.4,59.5-75.4,59.5z M-75.4,67.4c-1.4,0-2.6-1.1-2.6-2.5c0-1.4,1.2-2.5,2.6-2.5c1.4,0,2.6,1.1,2.6,2.5
			C-72.9,66.2-74,67.4-75.4,67.4z"/>
		<path fill="#585D5C" d="M-85.7,55.6c1.2,0,2.3-0.1,3.4-0.4l1.9,4.3c0.9-0.9,2.1-1.5,3.4-1.7l-1.8-4c4.3-2.4,7.3-7,7.3-12.2
			c0-0.8,0-1.4,0-1.4H-100c0,0,0,0.6,0,1.4c0,5.3,2.9,9.8,7.3,12.2l-7.3,16.3h4.1l1.6-3.5h11.8c-0.2-0.6-0.2-1.2-0.2-1.9
			c0-0.7,0.1-1.3,0.3-1.9h-10.1l3.4-7.7C-88.1,55.5-86.9,55.6-85.7,55.6z M-97.1,43h4.2c0.4,4.3,2.5,7.9,5.5,9.7
			C-92.4,52-96.4,48-97.1,43z"/>
	</g>
	<path fill="#585D5C" d="M-122.5,56.6c0-0.1,0-0.1,0-0.2c0-2-1.5-3.6-3.4-3.7c-0.3-0.3-0.6-0.5-0.9-0.8v-1.1c0.2,0,0.3,0,0.4,0
		c0.1,0,0.3,0,0.4,0c0.5,0,0.9-0.1,1.3-0.4c0.4,0.2,0.8,0.4,1.3,0.4c1.5,0,2.6-1.2,2.6-2.6c0-1.1-0.7-2.1-1.8-2.5c0-0.1,0-0.1,0-0.2
		c0-1.4-1.1-2.5-2.4-2.6c-0.5-0.5-1.2-0.9-2-0.9c-0.9,0-1.8,0.5-2.2,1.2c-0.4-0.2-0.8-0.4-1.3-0.4c-1.5,0-2.6,1.2-2.6,2.6
		c0,0,0,0.1,0,0.1c-1.1,0.3-2,1.3-2,2.6c0,1.5,1.2,2.7,2.7,2.7c0.6,0,1.1-0.2,1.5-0.5c0,0,0,0,0,0c0.4,0.2,0.8,0.4,1.3,0.4
		c0.3,0,0.6-0.1,0.9-0.2v0.7c0,0-0.1,0-0.1,0c-1.3,0-2.5,0.7-3.2,1.7c-0.4-0.2-0.8-0.4-1.2-0.4c-0.2-1-1-1.8-1.9-2.1
		c0-0.1,0-0.1,0-0.2c0-1.5-1.2-2.8-2.7-2.9c-0.5-0.6-1.3-1-2.2-1c-1.1,0-2,0.6-2.5,1.4c-0.4-0.2-0.9-0.4-1.4-0.4c-1.6,0-3,1.3-3,3
		c0,0.1,0,0.1,0,0.2c-1.3,0.3-2.2,1.5-2.2,2.9c0,1.6,1.3,3,3,3c0.6,0,1.2-0.2,1.7-0.5c0,0,0,0,0,0c0.4,0.3,0.9,0.4,1.5,0.4
		c0.3,0,0.7-0.1,1-0.2v3.3c-1.1-1.3-1.6-2.4-1.6-2.4h0c0,0-1.1,2.5-3.9,4.4c0,0,1.1,0.8,1.9,0.9c0,0-1.3,2.2-4.6,3.1
		c0,0,2.5,2.1,5.5,2v2.6h1.5h0.6v-2.6c3.1,0.1,5.5-2,5.5-2c-3.3-0.9-4.6-3.1-4.6-3.1c0.5-0.1,1.1-0.4,1.5-0.7
		c0.6,1.3,1.9,2.2,3.5,2.2c0.8,0,1.5-0.2,2.1-0.7c0,0,0,0,0,0c0.6,0.3,1.2,0.5,1.9,0.5c0.4,0,0.9-0.1,1.2-0.2v6.5h2.5v-6.2
		c0.2,0,0.4,0,0.6-0.1c0.2,0,0.4,0.1,0.6,0.1c0.7,0,1.3-0.2,1.9-0.5c0.6,0.3,1.2,0.5,1.9,0.5c2.1,0,3.7-1.7,3.7-3.7
		C-120,58.4-121.1,57.1-122.5,56.6z M-139.9,58.5v-2.2c0.2,0,0.3,0,0.5,0c0.2,0,0.3,0,0.5,0c0.5,0,1-0.2,1.5-0.4c0,0.1,0,0.3,0,0.5
		c0,0.1,0,0.1,0,0.2C-138.5,56.8-139.4,57.5-139.9,58.5z"/>
	<path fill="#585D5C" d="M-190.4,56.1c-1.4,0-2.3,1.1-2.6,2.6l-0.4,2.4l-6.6,6.6h6l1,2.4l1.1-2.7c2.3-0.7,4-2.9,4-5.5v-2l1.9-0.9
		l-1.9-0.9C-188.1,57-189.2,56.1-190.4,56.1z M-189.9,59.3c-0.3,0-0.6-0.3-0.6-0.6s0.3-0.6,0.6-0.6s0.6,0.3,0.6,0.6
		S-189.6,59.3-189.9,59.3z"/>
	<path fill="#585D5C" d="M-180,64.9c-0.6-0.6-1.4-0.9-2.2-0.9l0,0l-3,0l0,3l0,0c0,0.8,0.3,1.6,0.9,2.2c0,0,0,0,0,0
		c1.2,1.2,3.1,1.2,4.3,0c0.6-0.6,0.9-1.4,0.9-2.1C-179.1,66.3-179.4,65.5-180,64.9C-180,64.9-180,64.9-180,64.9z"/>
	<path fill="#585D5C" d="M-176.1,61.5c1.7,0,3-1.3,3-3c1.7,0,3-1.3,3-3c0-0.9-0.4-1.6-1-2.2c0.6-0.5,1-1.3,1-2.2c0-1.7-1.3-3-3-3
		c0-1.7-1.3-3-3-3c-0.9,0-1.6,0.4-2.2,1c-0.5-0.6-1.3-1-2.2-1c-1.7,0-3,1.3-3,3c-1.7,0-3,1.3-3,3c0,0.9,0.4,1.6,1,2.2
		c-0.6,0.5-1,1.3-1,2.2c0,1.7,1.3,3,3,3c0,1.7,1.3,3,3,3c0.5,0,1-0.1,1.4-0.3v5.9v3h1.6v-3c0,0.8,0.3,1.5,0.9,2.1
		c1.2,1.2,3.1,1.2,4.3,0c0,0,0,0,0,0c0.6-0.6,0.9-1.4,0.9-2.2l0,0l0-3l-3,0l0,0c-0.8,0-1.6,0.3-2.2,0.9c0,0,0,0,0,0
		c-0.6,0.6-0.9,1.4-0.9,2.1v-5.9C-177.1,61.4-176.6,61.5-176.1,61.5z M-178.3,58.5c-2.9,0-5.2-2.3-5.2-5.2c0-2.9,2.3-5.2,5.2-5.2
		c2.9,0,5.2,2.3,5.2,5.2C-173.1,56.2-175.4,58.5-178.3,58.5z"/>
	<path fill="#585D5C" d="M-197,100.8c0.6,0,1.2-0.2,1.7-0.5c0,0,0,0,0,0c0.4,0.3,0.9,0.4,1.5,0.4c0.3,0,0.7-0.1,1-0.2v5.1h2v-4.9
		c0.2,0,0.3,0,0.5,0c0.2,0,0.3,0,0.5,0c0.5,0,1-0.2,1.5-0.4c0.4,0.3,0.9,0.4,1.5,0.4c1.6,0,3-1.3,3-3c0-1.3-0.8-2.4-2-2.8
		c0-0.1,0-0.1,0-0.2c0-1.5-1.2-2.8-2.7-2.9c-0.5-0.6-1.3-1-2.2-1c-1.1,0-2,0.6-2.5,1.4c-0.4-0.2-0.9-0.4-1.4-0.4c-1.6,0-3,1.3-3,3
		c0,0.1,0,0.1,0,0.2c-1.3,0.3-2.2,1.5-2.2,2.9C-200,99.4-198.7,100.8-197,100.8z"/>
	<rect x="-171.7" y="117.9" fill="none" width="3.3" height="3.3"/>
	<path fill="#585D5C" d="M-185,99L-185,99c7.7,4.9-14.3,4.6-15,12.1h19.7C-192.8,108.2-175.3,101.1-185,99z"/>
	<g>
		<path fill="#585D5C" d="M-175,93.1c0,0-0.2,0-0.2-0.4c0-0.4-0.4-0.8-0.8-0.8c-0.5,0-0.8,0.4-0.8,0.8c0,0.4-0.2,0.4-0.2,0.4
			c-0.1,0-0.2,0.1-0.2,0.2c0,0.1,0.1,0.2,0.2,0.2h2.1c0.1,0,0.2-0.1,0.2-0.2C-174.8,93.2-174.8,93.1-175,93.1z"/>
		<circle fill="#585D5C" cx="-176" cy="94.2" r="0.4"/>
		<circle fill="#585D5C" cx="-176" cy="88.5" r="0.6"/>
		<path fill="#585D5C" d="M-172.2,98.7l-1.3-3.8v-3.3c0.2,0,0.4-0.2,0.4-0.4s-0.2-0.4-0.4-0.4h-0.8c0-0.9-0.7-1.7-1.7-1.7
			c-0.9,0-1.7,0.7-1.7,1.7h-0.8c-0.2,0-0.4,0.2-0.4,0.4s0.2,0.4,0.4,0.4v3.3l-1.3,3.8h-2.1v1.3h0.8v2.5v3.3v2.8h10v-2.8v-3.3v-2.5
			h0.8v-1.3H-172.2z M-177.7,91.6h3.3v3.3h-3.3V91.6z M-176.8,105.8L-176.8,105.8l0,1.2h-2.5v-1.2v-3.3v0c0-0.7,0.6-1.3,1.3-1.3
			c0.7,0,1.3,0.6,1.3,1.3v0V105.8z M-172.7,105.8L-172.7,105.8l0,1.2h-2.5v-1.2v-3.3v0c0-0.7,0.6-1.3,1.3-1.3c0.7,0,1.3,0.6,1.3,1.3
			v0V105.8z"/>
	</g>
	<path fill="#585D5C" d="M-182.7,86.4c0.8-0.2,1.9-0.9,1.9-0.9c-2.8-1.9-3.9-4.4-3.9-4.4h0c0,0-1.1,2.5-3.9,4.4c0,0,1.1,0.8,1.9,0.9
		c0,0-1.3,2.2-4.6,3.1c0,0,2.5,2.1,5.5,2v2.6h1.5h0.6v-2.6c3.1,0.1,5.5-2,5.5-2C-181.3,88.6-182.7,86.4-182.7,86.4z"/>
	<g>
		<path fill="#585D5C" d="M-182.5,126c0,0-0.3,0-0.3-0.6c0-0.6-0.5-1.2-1.2-1.2c-0.7,0-1.2,0.5-1.2,1.2c0,0.6-0.3,0.6-0.3,0.6
			c-0.2,0-0.3,0.1-0.3,0.3c0,0.2,0.1,0.3,0.3,0.3h3c0.2,0,0.3-0.1,0.3-0.3C-182.2,126.1-182.3,126-182.5,126z"/>
		<circle fill="#585D5C" cx="-184" cy="127.5" r="0.6"/>
		<circle fill="#585D5C" cx="-184" cy="119.3" r="0.9"/>
		<path fill="#585D5C" d="M-178.6,133.9l-1.8-5.4v-4.8c0.3,0,0.6-0.3,0.6-0.6s-0.3-0.6-0.6-0.6h-1.2c0-1.3-1.1-2.4-2.4-2.4
			c-1.3,0-2.4,1.1-2.4,2.4h-1.2c-0.3,0-0.6,0.3-0.6,0.6s0.3,0.6,0.6,0.6v4.8l-1.8,5.4h-3v1.8h1.2v3.6v4.7v4h14.3v-4v-4.7v-3.6h1.2
			v-1.8H-178.6z M-186.4,123.7h4.8v4.8h-4.8V123.7z M-185.2,144.1L-185.2,144.1l0,1.8h-3.6v-1.8v-4.7v-0.1c0-1,0.8-1.8,1.8-1.8
			c1,0,1.8,0.8,1.8,1.8v0.1V144.1z M-179.2,144.1L-179.2,144.1l0,1.8h-3.6v-1.8v-4.7v-0.1c0-1,0.8-1.8,1.8-1.8c1,0,1.8,0.8,1.8,1.8
			v0.1V144.1z"/>
	</g>
	<g>
		<path fill="#585D5C" d="M-124.6,99L-124.6,99c7.7,4.9-14.3,4.6-15,12.1h19.7C-132.3,108.2-114.9,101.1-124.6,99z"/>
		<path fill="#585D5C" d="M-138.4,105v-6.2c0.2,0,0.4,0,0.6-0.1c0.2,0,0.4,0.1,0.6,0.1c0.7,0,1.3-0.2,1.9-0.5
			c0.6,0.3,1.2,0.5,1.9,0.5c2.1,0,3.7-1.7,3.7-3.7c0-1.6-1.1-3-2.5-3.5c0-0.1,0-0.1,0-0.2c0-0.5-0.1-0.9-0.2-1.3
			c0.9,0.6,2.8,1.6,5,1.6v2.6h1.5h0.6v-2.6c3.1,0.1,5.5-2,5.5-2c-3.3-0.9-4.6-3.1-4.6-3.1c0.8-0.2,1.9-0.9,1.9-0.9
			c-2.8-1.9-3.9-4.4-3.9-4.4h0c0,0-1.1,2.5-3.9,4.4c0,0,1.1,0.8,1.9,0.9c0,0-1.2,2-4.3,3c-0.6-1-1.7-1.8-2.9-1.9
			c-0.7-0.8-1.7-1.3-2.8-1.3c-1.3,0-2.5,0.7-3.2,1.7c-0.5-0.3-1.2-0.5-1.8-0.5c-2.1,0-3.7,1.7-3.7,3.7c0,0.1,0,0.1,0,0.2
			c-1.6,0.4-2.8,1.9-2.8,3.7c0,2.1,1.7,3.8,3.8,3.8c0.8,0,1.5-0.2,2.1-0.7c0,0,0,0,0,0c0.6,0.3,1.2,0.5,1.9,0.5
			c0.4,0,0.9-0.1,1.2-0.2v6.5H-138.4z"/>
	</g>
	<path fill="#585D5C" d="M-123.5,134.6c0-0.1,0-0.1,0-0.2c0-2-1.5-3.6-3.4-3.7c-0.7-0.8-1.7-1.3-2.8-1.3c-1.3,0-2.5,0.7-3.2,1.7
		c-0.5-0.3-1-0.4-1.5-0.5c0.1-0.3,0.2-0.7,0.2-1.1c0-1.1-0.7-2.1-1.8-2.5c0-0.1,0-0.1,0-0.2c0-1.4-1.1-2.5-2.4-2.6
		c-0.5-0.5-1.2-0.9-2-0.9c-0.9,0-1.8,0.5-2.2,1.2c-0.4-0.2-0.8-0.4-1.3-0.4c-1.5,0-2.6,1.2-2.6,2.6c0,0,0,0.1,0,0.1
		c-1.1,0.3-2,1.3-2,2.6c0,1.5,1.2,2.7,2.7,2.7c0.6,0,1.1-0.2,1.5-0.5c0,0,0,0,0,0c0.4,0.2,0.8,0.4,1.3,0.4c0.3,0,0.6-0.1,0.9-0.2
		v1.7c-0.5,0.2-1,0.6-1.3,1.1c-0.4-0.2-0.9-0.4-1.4-0.4c-1.6,0-3,1.3-3,3c0,0.1,0,0.1,0,0.2c-1.3,0.3-2.2,1.5-2.2,2.9
		c0,1.6,1.3,3,3,3c0.6,0,1.2-0.2,1.7-0.5c0,0,0,0,0,0c0.4,0.3,0.9,0.4,1.5,0.4c0.3,0,0.7-0.1,1-0.2v5.1h2v-4.9c0.2,0,0.3,0,0.5,0
		c0.2,0,0.3,0,0.5,0c0.5,0,1-0.2,1.5-0.4c0.4,0.3,0.9,0.4,1.5,0.4c1.1,0,2.1-0.6,2.6-1.5c0.3,0.1,0.6,0.1,0.9,0.1
		c0.4,0,0.9-0.1,1.2-0.2v6.5h2.5v-6.2c0.2,0,0.4,0,0.6-0.1c0.2,0,0.4,0.1,0.6,0.1c0.7,0,1.3-0.2,1.9-0.5c0.6,0.3,1.2,0.5,1.9,0.5
		c2.1,0,3.7-1.7,3.7-3.7C-121,136.5-122.1,135.1-123.5,134.6z M-139.9,132.2c0.1,0,0.3,0,0.4,0c0.5,0,0.9-0.1,1.3-0.4
		c0.1,0.1,0.3,0.1,0.5,0.2c-0.5,0.6-0.8,1.4-0.8,2.3c0,0,0,0.1,0,0.1c-0.1,0-0.1,0-0.2,0c-0.4-0.5-1-0.8-1.6-0.9v-1.3
		C-140.2,132.3-140,132.2-139.9,132.2z"/>
	<path fill="#010101" d="M-100-31v0.3C-100-30.8-100-30.9-100-31L-100-31z"/>
	<path fill="#010101" d="M-100-30L-100-30c0-0.1,0-0.2,0-0.3V-30z"/>
	<path fill="#010101" d="M-75.6-42.2c-3.5,2.6-5.7,6.6-5.9,11.2H-70C-70.2-35.5-72.3-39.5-75.6-42.2z"/>
	<path fill="#010101" d="M-70-30h-11.5c0.2,4.6,2.5,8.6,5.9,11.1C-72.3-21.5-70.2-25.5-70-30z"/>
	<path fill="#010101" d="M-76.5-42.8c-2.3-1.6-5-2.6-8-2.7V-31h2C-82.4-35.8-80-40-76.5-42.8z"/>
	<path fill="#010101" d="M-82.5-30h-2v14.5c3-0.1,5.8-1.1,8.1-2.7C-80-20.9-82.3-25.2-82.5-30z"/>
	<path fill="#010101" d="M-94.5-18.9c3.4-2.5,5.6-6.5,5.8-11.1H-100C-99.8-25.5-97.7-21.5-94.5-18.9z"/>
	<path fill="#010101" d="M-94.5-42.1c-3.2,2.7-5.4,6.6-5.5,11.1h11.3C-88.9-35.5-91.1-39.5-94.5-42.1z"/>
	<path fill="#010101" d="M-93.7-18.3c2.3,1.7,5.2,2.7,8.2,2.8V-30h-2.2C-87.9-25.2-90.2-21-93.7-18.3z"/>
	<path fill="#010101" d="M-85.5-45.5c-3,0.1-5.9,1.1-8.2,2.7c3.5,2.8,5.8,7,6,11.8h2.2V-45.5z"/>
</g>
</svg>
