<?xml version="1.0" encoding="utf-8"?>
<!-- Generated by IcoMoon.io -->
<!DOCTYPE svg PUBLIC "-//W3C//DTD SVG 1.1//EN" "http://www.w3.org/Graphics/SVG/1.1/DTD/svg11.dtd">
<svg version="1.1" xmlns="http://www.w3.org/2000/svg" xmlns:xlink="http://www.w3.org/1999/xlink" width="1024" height="1024" viewBox="0 0 1024 1024"><g id="icomoon-ignore">
</g>
<path d="M1005.324 860.427l-245.888-245.888c37.096-60.951 58.418-132.419 58.418-208.984 0-222.258-192.664-414.922-414.987-414.922-222.258 0-402.482 180.224-402.482 402.482 0 222.322 192.6 414.987 414.922 414.987 73.904 0 143.128-20.039 202.668-54.859l247.171 247.235c24.271 24.207 63.452 24.207 87.563 0l61.368-61.304c24.143-24.207 15.358-54.667-8.785-78.81v0zM124.275 393.146c0-153.869 124.724-278.656 278.624-278.656 153.933 0 291.097 137.164 291.097 291.097s-124.724 278.656-278.688 278.656c-153.933 0-291.032-137.164-291.032-291.097z" fill="rgb(68, 68, 68)"></path>
</svg>
