<?xml version="1.0" encoding="utf-8"?>
<!-- Generated by IcoMoon.io -->
<!DOCTYPE svg PUBLIC "-//W3C//DTD SVG 1.1//EN" "http://www.w3.org/Graphics/SVG/1.1/DTD/svg11.dtd">
<svg version="1.1" xmlns="http://www.w3.org/2000/svg" xmlns:xlink="http://www.w3.org/1999/xlink" width="1024" height="1024" viewBox="0 0 1024 1024"><g id="icomoon-ignore">
</g>
<path d="M972.78 119.171h-76.309l-122.479 597.327q-5.034 19.077-21.578 32.127t-34.628 13.049h-549.137q-19.077 0-35.654-13.049t-21.578-32.127l-98.368-378.467q-10.036-36.135 3.014-63.26t40.142-27.093l711.79-123.473 18.083-89.359q5.034-18.083 21.578-31.133t34.628-13.049h130.495q27.093 0 45.689 18.564t18.564 45.176-19.077 45.689-45.176 19.077zM298.15 825.927q40.142 0 68.261 28.119t28.119 68.261-28.119 68.261-68.261 28.119-68.261-28.119-28.119-68.261 28.119-68.261 68.261-28.119zM619.418 825.927q40.142 0 68.261 28.119t28.119 68.261-28.119 68.261-68.261 28.119-68.261-28.119-28.119-68.261 28.119-68.261 68.261-28.119z" fill="rgb(68, 68, 68)"></path>
</svg>
