<?xml version="1.0" encoding="utf-8"?>
<!-- Generated by IcoMoon.io -->
<!DOCTYPE svg PUBLIC "-//W3C//DTD SVG 1.1//EN" "http://www.w3.org/Graphics/SVG/1.1/DTD/svg11.dtd">
<svg version="1.1" xmlns="http://www.w3.org/2000/svg" xmlns:xlink="http://www.w3.org/1999/xlink" width="1024" height="1024" viewBox="0 0 1024 1024"><g id="icomoon-ignore">
</g>
<path d="M758.173 798.93l-34.201-59.236 29.616-17.101 34.201 59.236-29.616 17.101zM688.649 681.054l-34.201-59.236 29.616-17.101 34.201 59.236-29.616 17.101zM622.203 561.493l-34.201-59.236 29.616-17.101 34.201 59.236-29.616 17.101zM582.508 426.649l-29.616 17.101-34.201-59.236 29.616-17.101 34.201 59.236zM930.96 613.516l24.187-24.179 48.358 48.372-24.187 24.179-48.358-48.372zM884.55 565.843l-48.364-48.364 24.183-24.183 48.364 48.366-24.183 24.183zM787.835 467.673l-48.372-48.364 24.183-24.187 48.372 48.364-24.183 24.187zM667.049 301.25l48.372 48.358-24.179 24.187-48.372-48.358 24.179-24.187zM561.515 885.592l-17.703-66.067 33.035-8.851 17.703 66.067-33.035 8.851zM507.876 688.102l33.035-8.853 17.709 66.067-33.035 8.853-17.709-66.067zM474.21 557.743l33.033-8.853 17.709 66.067-33.033 8.853-17.709-66.067zM436.336 424.988l33.033-8.853 17.709 66.069-33.033 8.853-17.709-66.067zM328.321 856.739h34.199v68.4h-34.199v-68.402zM328.321 719.94h34.199v68.402h-34.199v-68.402zM328.321 583.139h34.199v68.4h-34.199v-68.402zM328.321 446.338h34.199v68.402h-34.199v-68.402zM581.404 111.177l-106.019 61.56c-37.621-82.080-119.7-136.801-215.461-136.801-133.381 0-239.4 106.021-239.4 239.402v684.004h136.799v-684.004c0-58.142 44.459-102.6 102.6-102.6 44.459 0 82.080 27.359 95.759 68.4l-126.541 75.239 51.3 88.922 355.683-205.201-54.721-88.92z" fill="rgb(68, 68, 68)"></path>
</svg>
