<?xml version="1.0" encoding="utf-8"?>
<!-- Generator: Adobe Illustrator 18.0.0, SVG Export Plug-In . SVG Version: 6.00 Build 0)  -->
<!DOCTYPE svg PUBLIC "-//W3C//DTD SVG 1.0//EN" "http://www.w3.org/TR/2001/REC-SVG-20010904/DTD/svg10.dtd">
<svg version="1.0" xmlns="http://www.w3.org/2000/svg" xmlns:xlink="http://www.w3.org/1999/xlink" x="0px" y="0px"
	 viewBox="0 0 30 30" enable-background="new 0 0 30 30" xml:space="preserve">
<g id="Layer_1">
	<path fill-rule="evenodd" clip-rule="evenodd" d="M-35-285.8c-8.3,0-15,6.7-15,15c0,8.3,6.7,15,15,15s15-6.7,15-15
		C-20-279.1-26.7-285.8-35-285.8z M-36.9-259.6v-9.4h-9.4l18.7-9.4L-36.9-259.6z"/>
</g>
<g id="Layer_2">
	<path fill-rule="evenodd" clip-rule="evenodd" d="M172.2-235.9h-15c-2.1,0-3.7,1.7-3.7,3.8v22.5c0,2.1,1.7,3.7,3.7,3.7h15
		c2.1,0,3.7-1.7,3.7-3.7v-22.5C176-234.2,174.3-235.9,172.2-235.9z M174.5-209.6c0,1.2-1,2.2-2.2,2.2h-15c-1.2,0-2.2-1-2.2-2.2
		v-22.5c0-1.2,1-2.2,2.2-2.2h15c1.2,0,2.2,1,2.2,2.2V-209.6z"/>
	<path fill-rule="evenodd" clip-rule="evenodd" d="M23.4-272.7c3.6,0,6.6,3,6.6,6.7c0,3.7-2.9,6.7-6.6,6.7c-3.6,0-6.6-3-6.6-6.7
		c0-2.3,1.2-4.4,2.9-5.6l-0.4-0.7l-1.1-2.1l-0.1-0.3h-6.8c-0.8,0-1.5,0.5-1.7,1.3l-0.4,1.2c2.3,1.1,3.9,3.4,3.9,6.1
		c0,3.7-2.9,6.7-6.6,6.7S0-262.3,0-266c0-3.7,2.9-6.7,6.6-6.7c0.3,0,0.6,0.1,0.9,0.1l1-3.3c0.1-0.4,0.5-0.7,0.9-0.7h9.9l1.7-3.8
		h-3.2c-0.5,0-0.9-0.4-0.9-1c0-0.5,0.4-1,0.9-1h4.1h0.6c0.3,0,0.6,0.2,0.8,0.4c0.2,0.3,0.2,0.6,0.1,0.9l-0.3,0.6l-2.7,5.9l1.1,2.1
		C22.1-272.6,22.8-272.7,23.4-272.7z M8.7-270.3l-1,3c-0.1,0.2-0.2,0.4-0.5,0.6c-0.2,0.1-0.5,0.1-0.7,0.1c-0.5-0.2-0.8-0.7-0.6-1.2
		l0.9-2.9c-0.1,0-0.2,0-0.3,0c-2.6,0-4.7,2.1-4.7,4.8c0,2.6,2.1,4.8,4.7,4.8c2.6,0,4.7-2.1,4.7-4.8C11.3-267.9,10.2-269.5,8.7-270.3
		z M18.7-266c0,2.6,2.1,4.8,4.7,4.8s4.7-2.1,4.7-4.8c0-2.6-2.1-4.8-4.7-4.8c-0.3,0-0.7,0-1,0.1l2.3,4.3c0.1,0.2,0.1,0.5,0.1,0.7
		c-0.1,0.2-0.2,0.5-0.5,0.6l0,0c-0.5,0.2-1,0.1-1.2-0.4l-2.4-4.5C19.5-269.1,18.7-267.6,18.7-266z M9.4-278.5H6.6
		c-0.5,0-0.9-0.4-0.9-1c0-0.5,0.4-1,0.9-1h5.6c0.2,0,0.3,0.1,0.3,0.2c0.1,0.1,0,0.3-0.1,0.4C11.6-279,10.8-278.5,9.4-278.5z"/>
	<path fill-rule="evenodd" clip-rule="evenodd" d="M79.1-271.8h-0.9v-5.6h0.9c0.5,0,0.9,0.4,0.9,0.9v3.7
		C80-272.2,79.6-271.8,79.1-271.8z M74.4-260.6v1.9c0,1-0.8,1.9-1.9,1.9h-1.9c-1,0-1.9-0.8-1.9-1.9v-1.9h-7.5v1.9
		c0,1-0.8,1.9-1.9,1.9h-1.9c-1,0-1.9-0.8-1.9-1.9v-1.9c-1,0-1.9-0.8-1.9-1.9v-16.8c0-3.1,2.5-5.6,5.6-5.6h11.2
		c3.1,0,5.6,2.5,5.6,5.6v16.8C76.2-261.4,75.4-260.6,74.4-260.6z M57.5-262.4c1,0,1.9-0.8,1.9-1.9c0-1-0.8-1.9-1.9-1.9
		c-1,0-1.9,0.8-1.9,1.9C55.6-263.3,56.5-262.4,57.5-262.4z M68.7-283h-7.5v1.9h7.5V-283z M74.4-279.2H55.6v11.2h18.7V-279.2z
		 M72.5-266.2c-1,0-1.9,0.8-1.9,1.9c0,1,0.8,1.9,1.9,1.9c1,0,1.9-0.8,1.9-1.9C74.4-265.3,73.5-266.2,72.5-266.2z M50-272.7v-3.7
		c0-0.5,0.4-0.9,0.9-0.9h0.9v5.6h-0.9C50.4-271.8,50-272.2,50-272.7z"/>
	<path fill-rule="evenodd" clip-rule="evenodd" d="M124.4-269c0,2-1.7,3.7-3.7,3.7h-11.2c-2.1,0-3.7-1.6-3.7-3.7v-12.8h18.7v1.8
		c3.1,0,5.6,2.5,5.6,5.5C130-271.5,127.5-269,124.4-269z M109.4-280h-1.9v11c0,1,0.8,1.8,1.9,1.8V-280z M124.4-278.2v7.3
		c2.1,0,3.7-1.6,3.7-3.7C128.1-276.5,126.4-278.2,124.4-278.2z M130-261.7c0,1-0.8,1.8-1.9,1.8h-26.2c-1,0-1.9-0.8-1.9-1.8
		c0-1,0.8-1.8,1.9-1.8h26.2C129.2-263.5,130-262.7,130-261.7z"/>
	<g>
		<polygon fill-rule="evenodd" clip-rule="evenodd" points="178,-280.3 178,-258.3 152,-258.3 152,-256.3 180,-256.3 180,-257.3 
			180,-258.3 180,-280.3 		"/>
		<path fill-rule="evenodd" clip-rule="evenodd" d="M176-282.3h-3c0,1.7-1.3,3-3,3c-1.7,0-3-1.3-3-3h-7c0,1.7-1.3,3-3,3
			c-1.7,0-3-1.3-3-3h-4v22h26V-282.3z M174-262.3h-22v-15h22V-262.3z"/>
		<path fill-rule="evenodd" clip-rule="evenodd" d="M157-281.3c0.6,0,1-0.4,1-1v-2c0-0.6-0.4-1-1-1s-1,0.4-1,1v2
			C156-281.8,156.4-281.3,157-281.3z"/>
		<path fill-rule="evenodd" clip-rule="evenodd" d="M170-281.3c0.6,0,1-0.4,1-1v-2c0-0.6-0.4-1-1-1s-1,0.4-1,1v2
			C169-281.8,169.4-281.3,170-281.3z"/>
		<rect x="156" y="-274.3" fill-rule="evenodd" clip-rule="evenodd" width="3" height="3"/>
		<rect x="162" y="-274.3" fill-rule="evenodd" clip-rule="evenodd" width="3" height="3"/>
		<rect x="167" y="-274.3" fill-rule="evenodd" clip-rule="evenodd" width="3" height="3"/>
		<rect x="156" y="-269.3" fill-rule="evenodd" clip-rule="evenodd" width="3" height="3"/>
		<rect x="162" y="-269.3" fill-rule="evenodd" clip-rule="evenodd" width="3" height="3"/>
		<rect x="167" y="-269.3" fill-rule="evenodd" clip-rule="evenodd" width="3" height="3"/>
	</g>
	<g>
		<path fill-rule="evenodd" clip-rule="evenodd" d="M207-281.8c0.6,0,1-0.4,1-1v-2c0-0.6-0.4-1-1-1s-1,0.4-1,1v2
			C206-282.3,206.4-281.8,207-281.8z"/>
		<path fill-rule="evenodd" clip-rule="evenodd" d="M220-281.8c0.6,0,1-0.4,1-1v-2c0-0.6-0.4-1-1-1s-1,0.4-1,1v2
			C219-282.3,219.4-281.8,220-281.8z"/>
		<rect x="206" y="-274.8" fill-rule="evenodd" clip-rule="evenodd" width="3" height="3"/>
		<rect x="212" y="-274.8" fill-rule="evenodd" clip-rule="evenodd" width="3" height="3"/>
		<rect x="217" y="-274.8" fill-rule="evenodd" clip-rule="evenodd" width="3" height="3"/>
		<rect x="206" y="-269.8" fill-rule="evenodd" clip-rule="evenodd" width="3" height="3"/>
		<rect x="212" y="-269.8" fill-rule="evenodd" clip-rule="evenodd" width="3" height="3"/>
		<rect x="202" y="-258.8" fill-rule="evenodd" clip-rule="evenodd" width="17" height="2"/>
		<rect x="228" y="-280.8" fill-rule="evenodd" clip-rule="evenodd" width="2" height="13"/>
		<path fill-rule="evenodd" clip-rule="evenodd" d="M202-277.8h22v10h2v-15h-3c0,1.7-1.3,3-3,3s-3-1.3-3-3h-7c0,1.7-1.3,3-3,3
			s-3-1.3-3-3h-4v22h19v-2h-17V-277.8z"/>
		<path fill-rule="evenodd" clip-rule="evenodd" d="M225-266.8c-2.8,0-5,2.2-5,5c0,2.8,2.2,5,5,5s5-2.2,5-5
			C230-264.6,227.8-266.8,225-266.8z M228-260.8h-2v2h-2v-2h-2v-2h2v-2h2v2h2V-260.8z"/>
		<rect x="217" y="-269.8" fill-rule="evenodd" clip-rule="evenodd" width="3" height="3"/>
	</g>
	<g>
		
			<rect x="-28.9" y="-213.6" transform="matrix(-0.5 -0.866 0.866 -0.5 142.7239 -343.8769)" fill-rule="evenodd" clip-rule="evenodd" width="2" height="1"/>
		
			<rect x="-30.9" y="-217.1" transform="matrix(-0.5 -0.866 0.866 -0.5 142.7319 -350.7946)" fill-rule="evenodd" clip-rule="evenodd" width="2" height="1"/>
		
			<rect x="-32.9" y="-220.6" transform="matrix(-0.5 -0.866 0.866 -0.5 142.7236 -357.7335)" fill-rule="evenodd" clip-rule="evenodd" width="2" height="1"/>
		
			<rect x="-34.4" y="-224.5" transform="matrix(-0.866 0.5 -0.5 -0.866 -175.0258 -400.161)" fill-rule="evenodd" clip-rule="evenodd" width="1" height="2"/>
		
			<rect x="-22.2" y="-218.1" transform="matrix(0.7072 -0.707 0.707 0.7072 147.1446 -78.8777)" fill-rule="evenodd" clip-rule="evenodd" width="1" height="2"/>
		
			<rect x="-25.5" y="-220.4" transform="matrix(-0.7071 -0.7071 0.7071 -0.7071 113.7112 -392.7347)" fill-rule="evenodd" clip-rule="evenodd" width="2" height="1"/>
		
			<rect x="-28.3" y="-223.2" transform="matrix(-0.7072 -0.7071 0.7071 -0.7072 110.8636 -399.5779)" fill-rule="evenodd" clip-rule="evenodd" width="2" height="1"/>
		
			<rect x="-31.1" y="-226.1" transform="matrix(0.7072 0.707 -0.707 0.7072 -168.3197 -44.7425)" fill-rule="evenodd" clip-rule="evenodd" width="2" height="1"/>
		
			<rect x="-34.3" y="-211" transform="matrix(-0.2588 -0.9659 0.9659 -0.2588 161.384 -297.2409)" fill-rule="evenodd" clip-rule="evenodd" width="2" height="1"/>
		
			<rect x="-34.9" y="-215.4" transform="matrix(0.9659 -0.2589 0.2589 0.9659 54.3395 -16.2137)" fill-rule="evenodd" clip-rule="evenodd" width="1" height="2"/>
		
			<rect x="-35.9" y="-219.3" transform="matrix(0.9659 -0.2589 0.2589 0.9659 55.3014 -16.6121)" fill-rule="evenodd" clip-rule="evenodd" width="1" height="2"/>
		
			<rect x="-37" y="-223.1" transform="matrix(0.9659 -0.2589 0.2589 0.9659 56.2696 -17.0133)" fill-rule="evenodd" clip-rule="evenodd" width="1" height="2"/>
		<rect x="-40.4" y="-210.3" fill-rule="evenodd" clip-rule="evenodd" width="1" height="2"/>
		<rect x="-40.4" y="-214.3" fill-rule="evenodd" clip-rule="evenodd" width="1" height="2"/>
		<rect x="-40.4" y="-218.3" fill-rule="evenodd" clip-rule="evenodd" width="1" height="2"/>
		<rect x="-40.4" y="-222.3" fill-rule="evenodd" clip-rule="evenodd" width="1" height="2"/>
		<path fill-rule="evenodd" clip-rule="evenodd" d="M-33-232.1l-3.1,1.8c-1.1-2.4-3.5-4-6.3-4c-3.9,0-7,3.1-7,7v20h4v-20
			c0-1.7,1.3-3,3-3c1.3,0,2.4,0.8,2.8,2l-3.8,2.2l1.5,2.6l10.4-6L-33-232.1z"/>
	</g>
	<path fill-rule="evenodd" clip-rule="evenodd" d="M29.7-210.5l-9.3-9.6l9.4-9.8c0.1,0.2,0.1,0.5,0.1,0.7v17.6
		C30-211.2,29.9-210.8,29.7-210.5z M1.7-231.3l0.2,0h26.2l0.3,0.1L15-217.4L1.7-231.3z M0.2-210.6c-0.1-0.3-0.2-0.6-0.2-0.9v-17.6
		c0-0.3,0.1-0.6,0.1-0.9l9.4,9.9L0.2-210.6z M15-214.5l4-4.1l9,9.3H1.9l-0.1,0l9.2-9.3L15-214.5z"/>
	<path d="M50-235.8v30h30v-30H50z M70.3-215.3c0,0-6,6.5-7.9,7.3c0,0-7.2-5.9-9.4-9.5c-2.2-3.6-2.9-6.9,1.3-9.1
		c4.3-2.3,7.8,2.1,8.1,3c0,0,3.2-5.8,8.9-2.5C77.1-222.7,70.3-215.3,70.3-215.3z M78-229.8h-3v3h-2v-3h-3v-2h3v-3h2v3h3V-229.8z"/>
	<path d="M59-225.8v11l3.5-2.6l-0.4,5.6l-1.3-0.4l1.6,3.2l2.3-2.7l-1.1,0l1.4-9.2l-4,2v-5L59-225.8z"/>
	<path fill-rule="evenodd" clip-rule="evenodd" d="M112-231.8h1v23h-1V-231.8z"/>
	<path fill-rule="evenodd" clip-rule="evenodd" d="M128.6-218.9l-2.8-4.3l-1.1,2.2l3.9,6.4H125l-0.6,5.7h-2.8l-0.6-5.7h-3.6l3.9-6.4
		l-1.1-2.2l-2.8,4.3H116l2.3-5.9c0.3-0.8,1.1-1.3,1.9-1.3h1.4l1.4,2.9l1.4-2.9h1.4c0.8,0,1.6,0.5,1.9,1.3l2.3,5.9H128.6z M123-227.5
		c-1.2,0-2.1-1-2.1-2.2c0-1.2,0.9-2.2,2.1-2.2c1.2,0,2.1,1,2.1,2.2C125.1-228.5,124.2-227.5,123-227.5z"/>
	<path fill-rule="evenodd" clip-rule="evenodd" d="M106.1-217.5l-0.8,8.6h-2.7l-0.8-8.6H100v-7.6c0.6-0.3,1.3-0.6,2.1-0.8l1.9,4.1
		l1.9-4.1c0.8,0.2,1.5,0.4,2.1,0.8v7.6H106.1z M104-227.5c-1.1,0-2-1-2-2.2c0-1.2,0.9-2.2,2-2.2c1.1,0,2,1,2,2.2
		C106-228.5,105.1-227.5,104-227.5z"/>
	<path fill-rule="evenodd" clip-rule="evenodd" d="M227.5-216l-10.6-5.9c0-0.6,0.4-1.2,0.9-1.5c1.7-1,2.8-2.8,2.8-4.8
		c0-3.1-2.5-5.6-5.6-5.6s-5.6,2.5-5.6,5.6c0,1,0.8,1.9,1.9,1.9c1,0,1.9-0.8,1.9-1.9c0-1,0.8-1.9,1.9-1.9s1.9,0.8,1.9,1.9
		c0,0.7-0.4,1.3-0.9,1.6c-1.7,1-2.8,2.8-2.8,4.7l-10.7,6c-1.4,0.9-2.4,2.8-2.4,4.4c0,2,1.7,3.7,3.7,3.7h22.5c2.1,0,3.7-1.7,3.7-3.7
		C230-213.2,229-215.1,227.5-216z M203.8-211.5c0-0.4,0.4-1.1,0.6-1.2l10.6-5.9l10.5,5.9c0.3,0.2,0.7,0.9,0.7,1.3H203.8z"/>
	<path fill-rule="evenodd" clip-rule="evenodd" d="M50-162.6h30v1H50V-162.6z"/>
	<path fill-rule="evenodd" clip-rule="evenodd" d="M63-161.6h4c1.1,0,2-0.9,2-2h-8C61-162.5,61.9-161.6,63-161.6z"/>
	<path fill-rule="evenodd" clip-rule="evenodd" d="M73-161.6h4c1.1,0,2-0.9,2-2h-8C71-162.5,71.9-161.6,73-161.6z"/>
	<path fill-rule="evenodd" clip-rule="evenodd" d="M67-172.6h-4c-1.1,0-2,0.9-2,2v6h8v-6C69-171.7,68.1-172.6,67-172.6z M66.5-170.8
		h-3.1c-0.3,0-0.5-0.2-0.5-0.5c0-0.3,0.2-0.5,0.5-0.5h3.1c0.3,0,0.5,0.2,0.5,0.5C67-171,66.8-170.8,66.5-170.8z"/>
	<path fill-rule="evenodd" clip-rule="evenodd" d="M77-172.6h-4c-1.1,0-2,0.9-2,2v6h8v-6C79-171.7,78.1-172.6,77-172.6z M76.5-170.8
		h-3.1c-0.3,0-0.5-0.2-0.5-0.5c0-0.3,0.2-0.5,0.5-0.5h3.1c0.3,0,0.5,0.2,0.5,0.5C77-171,76.8-170.8,76.5-170.8z"/>
	<path fill-rule="evenodd" clip-rule="evenodd" d="M66-170.6h8v1h-8V-170.6z"/>
	<path fill-rule="evenodd" clip-rule="evenodd" d="M50-162.6h1v3h-1V-162.6z"/>
	<path fill-rule="evenodd" clip-rule="evenodd" d="M79-162.6h1v3h-1V-162.6z"/>
	<path fill-rule="evenodd" clip-rule="evenodd" d="M53-161.6h4c1.1,0,2-0.9,2-2h-8C51-162.5,51.9-161.6,53-161.6z"/>
	<path fill-rule="evenodd" clip-rule="evenodd" d="M57-172.6h-4c-1.1,0-2,0.9-2,2v6h8v-6C59-171.7,58.1-172.6,57-172.6z M56.5-170.8
		h-3.1c-0.3,0-0.5-0.2-0.5-0.5c0-0.3,0.2-0.5,0.5-0.5h3.1c0.3,0,0.5,0.2,0.5,0.5C57-171,56.8-170.8,56.5-170.8z"/>
	<path fill-rule="evenodd" clip-rule="evenodd" d="M56-170.6h8v1h-8V-170.6z"/>
	<path fill="none" d="M61.5-177.7h-3.1c-0.3,0-0.5,0.2-0.5,0.5c0,0.3,0.2,0.5,0.5,0.5h3.1c0.3,0,0.5-0.2,0.5-0.5
		C62-177.5,61.8-177.7,61.5-177.7z"/>
	<path fill="none" d="M72-177.2c0-0.3-0.2-0.5-0.5-0.5h-3.1c-0.3,0-0.5,0.2-0.5,0.5c0,0.3,0.2,0.5,0.5,0.5h3.1
		C71.8-176.8,72-177,72-177.2z"/>
	<path fill="none" d="M62-177.2c0-0.3-0.2-0.5-0.5-0.5h-3.1c-0.3,0-0.5,0.2-0.5,0.5c0,0.3,0.2,0.5,0.5,0.5h3.1
		C61.8-176.8,62-177,62-177.2z"/>
	<path d="M73-173.1h1v-3.5c0-1.1-0.9-2-2-2h-4c-1.1,0-2,0.9-2,2v3.5h1c1.4,0,2.5,1.1,2.5,2.5v1h1v-1C70.5-172,71.6-173.1,73-173.1z
		 M68.5-176.8c-0.3,0-0.5-0.2-0.5-0.5c0-0.3,0.2-0.5,0.5-0.5h3.1c0.3,0,0.5,0.2,0.5,0.5c0,0.3-0.2,0.5-0.5,0.5H68.5z"/>
	<path d="M63-173.1h1v-3.5c0-1.1-0.9-2-2-2h-4c-1.1,0-2,0.9-2,2v3.5h1c1.4,0,2.5,1.1,2.5,2.5v1h1v-1C60.5-172,61.6-173.1,63-173.1z
		 M58.5-176.8c-0.3,0-0.5-0.2-0.5-0.5c0-0.3,0.2-0.5,0.5-0.5h3.1c0.3,0,0.5,0.2,0.5,0.5c0,0.3-0.2,0.5-0.5,0.5H58.5z"/>
	<g>
		<path d="M-29.9-161.9c-0.5-0.3-1.2-0.2-1.5,0.4c-1.4,2.2-3.7,3.5-6.3,3.5c-4.1,0-7.4-3.4-7.4-7.5c0-2.4,1.2-4.7,3.1-6.1
			c0.5-0.4,0.6-1,0.2-1.5c-0.4-0.5-1-0.6-1.5-0.3c-2.5,1.8-4,4.8-4,7.9c0,5.3,4.3,9.7,9.6,9.7c3.3,0,6.4-1.7,8.1-4.6
			C-29.2-160.9-29.3-161.6-29.9-161.9z"/>
		<path d="M-22.3-161.3c-0.2-0.6-0.8-0.9-1.4-0.7l-1.3,0.5c0,0-2.4-6.8-2.5-6.9c0,0-0.1-0.1-0.1-0.2c-0.3-0.5-0.9-0.9-1.5-0.9h-5.7
			l-0.1-2.1h4.7c0.6,0,1.1-0.5,1.1-1.1c0-0.6-0.5-1.1-1.1-1.1H-35l-0.2-3.1c0,0,0-0.1,0-0.1c-0.1-1.5-1.4-2.7-2.9-2.6
			c-1.5,0.1-2.7,1.4-2.6,2.9v0l0,0l0.4,8.1l0,0c0,0,0,0,0,0c0.1,1.5,1.3,2.6,2.7,2.6c0,0,7.4,0,7.4,0l2.2,6.1
			c0.2,0.7,0.9,1.1,1.5,1.1c0.1,0,0.2,0,0.3,0c0.1,0,0.1,0,0.2-0.1l2.9-1.1C-22.4-160.1-22.1-160.7-22.3-161.3z"/>
		
			<ellipse transform="matrix(5.248704e-02 0.9986 -0.9986 5.248704e-02 -219.1549 -135.6923)" cx="-38.1" cy="-183.3" rx="2.5" ry="2.5"/>
	</g>
	<g>
		<path fill-rule="evenodd" clip-rule="evenodd" d="M27-175.6c0-0.1,0-0.1,0-0.2c0-2-1.5-3.6-3.4-3.7c-0.7-0.8-1.7-1.3-2.8-1.3
			c-1.3,0-2.5,0.7-3.2,1.7c-0.5-0.3-1.2-0.5-1.8-0.5c-2.1,0-3.7,1.7-3.7,3.7c0,0.1,0,0.1,0,0.2c-1.5,0.5-2.5,1.9-2.5,3.5
			c0,0.1,0,0.2,0,0.2h-6h-1h-2v2h2v1h-2v1h2v1v1h1h7h1v-1v-1h2v-0.5c0.6,0,1.1-0.2,1.6-0.5c0.6,0.3,1.2,0.5,1.9,0.5
			c0.4,0,0.9-0.1,1.2-0.2v6.5H17v1.2h5v-1.2h-1.2v-6.2c0.2,0,0.4,0,0.6-0.1c0.2,0,0.4,0.1,0.6,0.1c0.7,0,1.3-0.2,1.9-0.5
			c0.6,0.3,1.2,0.5,1.9,0.5c2.1,0,3.7-1.7,3.7-3.7C29.5-173.7,28.4-175.1,27-175.6z M3.5-169.8h6.8c0.1,0.1,0.1,0.2,0.2,0.3v0.7h-7
			V-169.8z M10.5-166.8h-7v-1h7V-166.8z"/>
		<polygon fill-rule="evenodd" clip-rule="evenodd" points="10.5,-164.8 3.5,-164.8 1.5,-164.8 0.5,-164.8 0.5,-163.8 1.5,-163.8 
			1.5,-160.8 3.5,-160.8 3.5,-163.8 4.5,-163.8 4.5,-161.8 5.5,-161.8 5.5,-163.8 8.5,-163.8 8.5,-161.8 9.5,-161.8 9.5,-163.8 
			10.5,-163.8 10.5,-160.8 12.5,-160.8 12.5,-163.8 13.5,-163.8 13.5,-164.8 12.5,-164.8 		"/>
	</g>
	<g>
		<path fill-rule="evenodd" clip-rule="evenodd" d="M165.8-224.9c-0.1-0.2-0.2-0.4-0.4-0.5c-0.2-0.1-0.5-0.2-0.8-0.2h-1v4.4h0.9
			c0.4,0,0.7-0.1,0.9-0.2s0.4-0.3,0.5-0.4c0.1-0.2,0.2-0.4,0.2-0.7c0-0.3,0-0.6,0-0.9c0-0.3,0-0.6,0-0.9
			C166-224.5,165.9-224.7,165.8-224.9z"/>
		<path fill-rule="evenodd" clip-rule="evenodd" d="M171.4-232.9h-13.3c-1.1,0-2,0.9-2,2v20c0,1.1,0.9,2,2,2h13.3c1.1,0,2-0.9,2-2
			v-20C173.4-232,172.5-232.9,171.4-232.9z M167.6-222c-0.1,0.4-0.2,0.8-0.4,1.1c-0.3,0.4-0.6,0.7-1,1s-1,0.4-1.7,0.4h-0.9v5h-1.8
			v-12.8h2.8c0.5,0,0.9,0.1,1.3,0.2c0.4,0.1,0.7,0.4,1,0.7c0.3,0.3,0.5,0.7,0.6,1.2c0.1,0.4,0.2,1.1,0.2,1.8
			C167.7-222.8,167.7-222.4,167.6-222z"/>
	</g>
	<path fill-rule="evenodd" clip-rule="evenodd" d="M129.8-109.1L116-133.6c-0.5-1-1.4-1-2,0l-13.8,24.6c-0.5,1-0.1,1.7,1,1.7h27.6
		C129.9-107.3,130.3-108.1,129.8-109.1z M117-112.3c0,0.6-0.5,1-1,1h-2c-0.5,0-1-0.4-1-1v-2c0-0.6,0.5-1,1-1h2c0.5,0,1,0.5,1,1
		V-112.3z M117-118.3c0,0.6-0.4,1-1,1h-2c-0.5,0-1-0.4-1-1v-6c0-0.6,0.5-1,1-1h2c0.5,0,1,0.5,1,1L117-118.3z"/>
	<g>
		<path d="M169.6-127.8c-1.4-0.4-3-0.7-4.6-0.7c-7.1,0-13,5.2-14.8,6.9c-0.3,0.3-0.3,0.8,0,1.1c1,1,3.5,3.2,6.9,4.9L169.6-127.8z"/>
		<path d="M179.8-121.6c-1.1-1-3.7-3.4-7.1-5l2.8-2.7H173l-17.4,17h2.4l2.2-2.1c1.5,0.5,3.2,0.8,4.9,0.8c7.1,0,13-5.2,14.8-6.9
			C180.1-120.8,180.1-121.3,179.8-121.6z M170.1-120c-0.4,1.9-2,3.5-4,3.9c-1.4,0.3-2.6,0-3.7-0.6l2.2-2.2c0.1,0,0.2,0,0.4,0
			c1.3,0,2.3-1,2.3-2.3c0-0.1,0-0.2,0-0.4l2.2-2.2C170.1-122.6,170.4-121.3,170.1-120z"/>
	</g>
	<g>
		<polygon points="215.9,-133.3 214,-133.3 214,-127.3 215.9,-127.3 		"/>
		<polygon points="224,-118 230,-119.2 229.5,-121.5 223.6,-120.3 		"/>
		<polygon points="226.3,-128.1 224.6,-129.7 220.4,-125.5 222,-123.8 		"/>
		<polygon points="206.4,-120.3 200.5,-121.5 200,-119.2 206,-118 		"/>
		<path d="M223-112.3l-2.3-10.9c-0.2-1.2-1.3-2.1-2.7-2.1l-5,0c-1.4,0-2.7,0.9-3,2.1l-2,10.9c0,0.1,0,0,0,1h-3l0.1,3H226v-3h-3
			C223-112.3,223-112.3,223-112.3z M215.1-112.3l-0.1-11h2c1.1,0,1.8,0.1,2,1l1,5c0,0.1,1,5,1,5H215.1z"/>
		<polygon points="209.6,-125.5 205.4,-129.7 203.7,-128.1 208,-123.8 		"/>
	</g>
	<path fill-rule="evenodd" clip-rule="evenodd" d="M116.8-155.8h-4v-11h-2v-9c0-2.1,0.9-3,3-3h2c2.1,0,3,0.9,3,3v9h-2V-155.8z
		 M114.8-180.2c-1.6,0-2.8-1.3-2.8-2.8c0-1.6,1.3-2.8,2.8-2.8s2.8,1.3,2.8,2.8C117.6-181.5,116.4-180.2,114.8-180.2z"/>
	<path fill-rule="evenodd" clip-rule="evenodd" d="M105.8-155.8h-4v-11h-2v-9c0-2.1,0.9-3,3-3h2c2.1,0,3,0.9,3,3v9h-2V-155.8z
		 M103.8-180.2c-1.6,0-2.8-1.3-2.8-2.8c0-1.6,1.3-2.8,2.8-2.8s2.8,1.3,2.8,2.8C106.6-181.5,105.4-180.2,103.8-180.2z"/>
	<path fill-rule="evenodd" clip-rule="evenodd" d="M127.8-155.8h-4v-11h-2v-9c0-2.1,0.9-3,3-3h2c2.1,0,3,0.9,3,3v9h-2V-155.8z
		 M125.8-180.2c-1.6,0-2.8-1.3-2.8-2.8c0-1.6,1.3-2.8,2.8-2.8s2.8,1.3,2.8,2.8C128.6-181.5,127.4-180.2,125.8-180.2z"/>
	<path fill-rule="evenodd" clip-rule="evenodd" d="M164.6-182.8c-5,0-9,4-9,9c0,6,9,15,9,15s9-9,9-15
		C173.6-178.8,169.6-182.8,164.6-182.8z M164.6-169.7c-2.6,0-4.7-2.1-4.7-4.7c0-2.6,2.1-4.7,4.7-4.7c2.6,0,4.7,2.1,4.7,4.7
		C169.3-171.9,167.2-169.7,164.6-169.7z"/>
	<path fill-rule="evenodd" clip-rule="evenodd" d="M219.1-175.8c1,0,1.8,0.8,1.8,1.9c0,1-0.8,1.9-1.8,1.9h-6.7
		c-0.1,0.4-0.1,0.8-0.1,1.1c0,0.4,0,0.8,0.1,1.1h6.7c1,0,1.8,0.8,1.8,1.9c0,1-0.8,1.9-1.8,1.9h-5.6c1.7,3.2,5,5.3,8.5,5.3h0.4
		c0.8,0,1.4,0.7,1.4,1.7c0,1-0.6,1.9-1.3,2l0,0H222c-5.5,0-10.5-3.6-12.4-9.1h-2c-1,0-1.8-0.8-1.8-1.9c0-1,0.8-1.9,1.8-1.9h1.2v0
		c-0.1-0.4-0.1-0.7-0.1-1.1c0-0.4,0-0.7,0.1-1.1v0h-1.2c-1,0-1.8-0.8-1.8-1.9c0-1,0.8-1.9,1.8-1.9h2c2-5.4,6.9-9.1,12.4-9.1h0.4
		c0.8,0.1,1.4,1,1.4,2c0,1-0.5,1.7-1.2,1.7l-0.6,0c-3.5,0-6.8,2.1-8.5,5.3H219.1z"/>
	<path fill-rule="evenodd" clip-rule="evenodd" d="M-26.6-134.2L-27-134c-1.1,0.5-2.8,6.3-2.8,6.7l0,0.4c0.2,0.8,0.9,1.7,2.5,3.5
		c-0.9,2.1-3.4,4.9-4.9,6.2c-1.6,1.4-4.3,3.2-6.3,3.9c-1.8-2.1-2.6-2.9-3.5-3c-0.5,0-6.4,1-6.9,2l-0.2,0.3c-0.4,0.7-1.1,1.7-0.8,2.8
		c0.1,0.3,0.2,0.5,0.3,0.8c0.5,0.8,1.7,2.6,3.4,3.4c1,0.5,10.4,0.8,18.3-6.3c7.8-7,8.2-15.6,7.9-16.9l0,0l0-0.1
		c-0.6-1.8-2.3-3.2-3-3.8C-24.3-135.3-25.8-134.6-26.6-134.2z"/>
	<path fill-rule="evenodd" clip-rule="evenodd" d="M2.8-132.8v18h18v-18H2.8z M18.8-116.8h-14v-14h14V-116.8z"/>
	<path fill-rule="evenodd" clip-rule="evenodd" d="M24.8-118.8v-10h-2l3-4l3,4h-2v10h2l-3,4l-3-4"/>
	<path fill-rule="evenodd" clip-rule="evenodd" d="M16.8-108.8h-10v2l-4-3l4-3v2h10v-2l4,3l-4,3"/>
	<g opacity="0.4">
		<path fill-rule="evenodd" clip-rule="evenodd" d="M58.5-115.9l4-4c-0.1-0.2-0.1-0.5-0.1-0.7c0-1,0.6-1.9,1.5-2.3v-9.9
			c0-0.5,0.5-1,1-1c-7.2,0-13,5.8-13,13c0,3.6,1.5,6.8,3.8,9.2l2.8-2.8C58.1-114.9,58.1-115.5,58.5-115.9z"/>
	</g>
	<g>
		<g>
			<path fill-rule="evenodd" clip-rule="evenodd" d="M64.8-135.8c-1,0-2,0.1-3,0.3c-1,0.2-1.9,0.5-2.8,0.9c-1.3,0.6-2.6,1.3-3.7,2.2
				s-2.1,2-2.9,3.2c-1.6,2.4-2.6,5.3-2.6,8.4c0,1.6,0.2,3.1,0.7,4.5c0.7,2.3,2,4.4,3.7,6.1c0.3,0.3,0.7,0.7,1.1,1
				c0.7,0.6,1.5,1.2,2.4,1.6c0.4,0.2,0.9,0.4,1.3,0.6c0.9,0.4,1.8,0.7,2.8,0.9c1,0.2,2,0.3,3,0.3c8.3,0,15-6.7,15-15
				C79.8-129.1,73.1-135.8,64.8-135.8z M64.8-118.1c-0.3,0-0.6-0.1-0.9-0.2l-3.9,3.9c-0.4,0.4-1.1,0.4-1.5,0c0,0,0,0,0,0l-2.8,2.8
				c-2.4-2.4-3.8-5.6-3.8-9.2c0-7.2,5.8-13,13-13c0.5,0,1,0.5,1,1v9.9c0.9,0.4,1.5,1.3,1.5,2.3C67.3-119.2,66.2-118.1,64.8-118.1z"
				/>
		</g>
	</g>
	<path fill-rule="evenodd" clip-rule="evenodd" d="M-34-58.9h-2l-14-2v-19.9h2v18.2l12,1.7h2l12-1.7v-18.2h2v19.9L-34-58.9z
		 M-34-80.7c3.6-2.1,10-2.1,10-2.1v17.9c0,0-6.4,0-10,2.1V-80.7z M-46-82.8c0,0,6.4,0,10,2.1v17.9c-3.6-2.1-10-2.1-10-2.1V-82.8z"/>
	<path fill-rule="evenodd" clip-rule="evenodd" d="M29.5-76.9l-0.2,0.1l0,0L26.6-74l-8.4-8.4l2.7-2.7l0,0l0.1-0.2
		c0.7-0.7,2-0.7,2.7,0.1l5.6,5.6C30.2-78.9,30.2-77.6,29.5-76.9z M7-65.7l12.5-12.6l2.8,2.8L9.7-62.9l1.4,1.4l12.5-12.6l1.4,1.4
		l-13.9,14l-8.4-8.4l13.9-14l1.4,1.4L5.6-67.1L7-65.7z M9.8-57.2l-4.9,0.7L0-55.8l0.7-4.9l0.7-4.9l4.2,4.2L9.8-57.2z"/>
	<path fill-rule="evenodd" clip-rule="evenodd" d="M76-56.8l-26,0v-28l30,0v24L76-56.8z M59-58.8h12v-7H59V-58.8z M74-82.8H56v12h18
		V-82.8z M61-63.8l4,0v3h-4V-63.8z"/>
	<path fill-rule="evenodd" clip-rule="evenodd" d="M100-73.8l3-2l8,14l16-23l3,2l-19,27L100-73.8"/>
	<path fill-rule="evenodd" clip-rule="evenodd" d="M173.6-78l-1.8-1.8l-7.2,7.2l-7.2-7.2l-1.8,1.8l7.2,7.2l-7.2,7.2l1.8,1.8l7.2-7.2
		l7.2,7.2l1.8-1.8l-7.2-7.2L173.6-78z"/>
	<path fill-rule="evenodd" clip-rule="evenodd" d="M214.8-79.3c-4.7,0-8.5,3.8-8.5,8.5s3.8,8.5,8.5,8.5c4.7,0,8.5-3.8,8.5-8.5
		S219.5-79.3,214.8-79.3z M219.8-68.1l-2.2,2.2l-2.8-2.8l-2.8,2.8l-2.2-2.2l2.8-2.8l-2.8-2.8l2.2-2.2l2.8,2.8l2.8-2.8l2.2,2.2
		l-2.8,2.8L219.8-68.1z"/>
	<path fill-rule="evenodd" clip-rule="evenodd" d="M-27.7-28.5c-0.9,0-1.6-0.7-1.6-1.6c0-0.9,0.7-1.6,1.6-1.6c0.9,0,1.6,0.7,1.6,1.6
		C-26.2-29.2-26.9-28.5-27.7-28.5z M-29.9-33.8c-0.4,0-0.8-0.2-1.1-0.5c-0.6-0.6-0.6-1.6,0-2.2c0.3-0.3,0.7-0.5,1.1-0.5
		s0.8,0.2,1.1,0.5c0.6,0.6,0.6,1.6,0,2.2C-29.1-33.9-29.5-33.8-29.9-33.8z M-35.2-35c-1.4,0-2.5-1.1-2.5-2.5c0-1.4,1.1-2.5,2.5-2.5
		c1.4,0,2.5,1.1,2.5,2.5C-32.7-36.1-33.8-35-35.2-35z M-40.4-23.2c-0.4,0-0.8-0.2-1.1-0.5c-0.6-0.6-0.6-1.6,0-2.2
		c0.3-0.3,0.7-0.5,1.1-0.5s0.8,0.2,1.1,0.5c0.6,0.6,0.6,1.6,0,2.2C-39.6-23.4-40-23.2-40.4-23.2z M-40.4-33.8
		c-0.4,0-0.8-0.2-1.1-0.5c-0.6-0.6-0.6-1.6,0-2.2c0.3-0.3,0.7-0.5,1.1-0.5s0.8,0.2,1.1,0.5c0.6,0.6,0.6,1.6,0,2.2
		C-39.6-33.9-40-33.8-40.4-33.8z M-41.1-30c0,0.9-0.7,1.6-1.6,1.6c-0.9,0-1.6-0.7-1.6-1.6c0-0.9,0.7-1.6,1.6-1.6
		C-41.8-31.6-41.1-30.9-41.1-30z M-35.2-24.1c0.9,0,1.6,0.7,1.6,1.6c0,0.9-0.7,1.6-1.6,1.6c-0.9,0-1.6-0.7-1.6-1.6
		C-36.7-23.4-36-24.1-35.2-24.1z M-29.9-26.3c0.4,0,0.8,0.2,1.1,0.5c0.6,0.6,0.6,1.6,0,2.2c-0.3,0.3-0.7,0.5-1.1,0.5
		c-0.4,0-0.8-0.2-1.1-0.5c-0.6-0.6-0.6-1.6,0-2.2C-30.7-26.1-30.3-26.3-29.9-26.3z"/>
	<g>
		<circle fill-rule="evenodd" clip-rule="evenodd" cx="165" cy="-41.4" r="2.3"/>
		<rect x="150.2" y="-33" fill-rule="evenodd" clip-rule="evenodd" width="1.8" height="7.3"/>
		<path fill-rule="evenodd" clip-rule="evenodd" d="M174.7-30.1H171l-0.1-6.3c0-1.2-1-2.2-2.2-2.2h-7.6c-1.2,0-2.2,1-2.2,2.2l0,6.3
			h-3.7v-4.1h-2.5v9.6h2.5v-4.1h3.7h2.1h0.6c-0.2,3.6-0.6,12.2-0.6,12.2h2.9l0.6-11.2c0.1,0,0.5,0,0.6,0l0.9,11.2h2.9
			c0,0-0.6-8.6-0.8-12.2h0.6h2.1h3.8v4.1h2.5v-9.6h-2.5V-30.1z M161.2-30.1L161.2-30.1v-4.7c0-0.2,0.1-0.3,0.3-0.3
			c0.2,0,0.3,0.1,0.3,0.3v3.9c0,0,0,0.3,0,0.8H161.2z M168.8-30.1h-0.6c0-0.5,0-0.8,0-0.8v-3.9c0-0.2,0.1-0.3,0.3-0.3
			c0.2,0,0.3,0.1,0.3,0.3V-30.1z"/>
		<rect x="178" y="-33" fill-rule="evenodd" clip-rule="evenodd" width="1.8" height="7.3"/>
	</g>
	<g>
		<path fill="#010101" d="M217.9-23.2c1.5-0.1,2.9-0.2,2.9-0.2l-2.2-1.3l-2.7-1.5l-4.1-2.3l-2.7-1.5l-2.2-1.3c0,0,0.7,1.2,1.4,2.5
			c0.8,1.5,1.5,3.1,1.4,3.4c-0.2,0.7-3.2,5.3-3.9,6.3c-0.5,0.8,0.9,2.2,1.9,2.8c1,0.5,2.9,1,3.3,0.1c0.5-1.3,2.8-6.1,3.3-6.6
			C214.5-22.9,216.3-23.1,217.9-23.2z"/>
		<g>
			<path fill="#010101" d="M226.7-28.6c3.3-5.8,1.8-12.8-3.3-15.7s-11.8-0.4-15.1,5.4c-1.2,2.2-1.8,4.5-1.7,6.7l15.3,8.6
				C223.7-24.8,225.4-26.4,226.7-28.6z"/>
		</g>
	</g>
	<circle fill="#010101" cx="205.6" cy="-42.4" r="2.6"/>
	<g>
		<path d="M-22.5,8.6V5.1L-28,0.6l-1.3,1.1c-1-0.9-2.3-1.5-3.7-1.5c-2,0-3.7,1-4.7,2.6C-38.6,2.3-39.5,2-40.5,2
			c-3.1,0-5.6,2.5-5.6,5.6c0,0.1,0,0.2,0,0.3c-1.9,0.7-3.3,2.3-3.7,4.3c0,0,0,0.1,0,0.1c0,0.3-0.1,0.5-0.1,0.8c0,0,0,0,0,0
			c0,0,0,0,0,0c0,0,0,0,0,0c0,3.1,2.5,5.5,5.6,5.5c0.1,0,0.2,0,0.4,0l0,0c0.3,0,0.5-0.1,0.8-0.1V20c-1.3,0.2-2.3,1.4-2.3,2.8
			c0,1.6,1.3,2.8,2.8,2.8c1.6,0,2.8-1.3,2.8-2.8c0-1.4-1-2.5-2.3-2.8v-1.6c0.2-0.1,0.4-0.2,0.6-0.3c0.8,0.5,1.8,0.8,2.8,0.8
			c0.7,0,1.3-0.1,1.9-0.3v9.7h-1.9V30h7.5v-1.9H-33v-9.3c0.3,0,0.6,0,0.9-0.1c0.3,0.1,0.6,0.1,0.9,0.1c1,0,2-0.3,2.8-0.8
			c0.8,0.5,1.8,0.8,2.8,0.8c3.1,0,5.6-2.5,5.6-5.6C-20,11.3-21,9.6-22.5,8.6z M-40.8,22.8c0,1-0.8,1.8-1.8,1.8c-1,0-1.8-0.8-1.8-1.8
			s0.8-1.8,1.8-1.8C-41.6,20.9-40.8,21.8-40.8,22.8z M-23.5,13H-28V8.9h-3V13h-1.5V5.5l4.5-3.7l4.5,3.7V13z"/>
		<circle cx="-25.7" cy="6.3" r="1.3"/>
	</g>
	<g>
		<g>
			<polygon fill="#010101" points="27,19 3.4,22.3 0,19.2 0.9,18.3 3.8,20.9 26.3,17.8 29,14.3 30,15 			"/>
		</g>
		<g>
			<g>
				<circle fill="#010101" cx="7.1" cy="24" r="1.5"/>
			</g>
			<g>
				<g>
					<circle fill="#010101" cx="24.5" cy="21.6" r="1.5"/>
				</g>
			</g>
		</g>
	</g>
	<g>
		<polygon fill="#010101" points="59.7,13.8 61.8,19.9 68.2,19.9 70.3,13.8 65,9.9 		"/>
		<path fill="#010101" d="M65,0c-8.3,0-15,6.7-15,15s6.7,15,15,15s15-6.7,15-15S73.3,0,65,0z M76.6,19.9c-0.4,0.9-0.9,1.8-1.5,2.6
			L75,21.1l-4.7,1.1l-2.5,4.2l1.3,0.6c-1.3,0.4-2.7,0.7-4.1,0.7c-1.4,0-2.7-0.2-4-0.7l1.3-0.6l-2.5-4.2L55,21.1l-0.1,1.4
			c-0.6-0.8-1.1-1.7-1.5-2.6c-0.7-1.6-1-3.2-1-4.9c0,0,0-0.1,0-0.1l0.9,0.9l3.2-3.7L56,7.3l-1.2,0.2c0.4-0.5,0.8-1,1.3-1.5
			c1.2-1.2,2.5-2.1,4-2.7c0.3-0.1,0.7-0.3,1-0.4l-0.6,1.1L65,6l4.5-1.9L68.8,3c0.4,0.1,0.7,0.2,1.1,0.4c1.5,0.6,2.9,1.5,4,2.7
			c0.5,0.5,0.9,1,1.3,1.5L74,7.3l-0.4,4.8l3.2,3.7l0.9-0.9c0,0,0,0,0,0.1C77.6,16.7,77.3,18.4,76.6,19.9z"/>
	</g>
	<g id="Layer_4">
		<polygon fill="#010101" points="113.2,28 115.8,28 115.8,22.8 114.5,21.3 113.2,22.8 		"/>
		<g>
			<path fill="#010101" d="M110.6,4.7c-0.4-0.2-0.6-0.6-0.7-1c-0.1-0.4,0-0.8,0.2-1.2c0.2-0.4,0.6-0.6,1-0.7c0.4-0.1,0.8,0,1.2,0.2
				c0.4,0.2,0.6,0.6,0.7,1c0.1,0.4,0,0.8-0.2,1.2c-0.2,0.4-0.6,0.6-1,0.7C111.3,5,110.9,5,110.6,4.7z"/>
			<path fill="#010101" d="M103.6,11l4-0.6L105.1,8c-0.1-0.1-0.2-0.3-0.3-0.5c-0.2-0.6,0.1-0.9,0.6-1.3l2.3-2
				c0.2-0.2,0.4-0.3,0.6-0.3c0.4-0.1,0.7,0,1,0.2c0.3,0.2,0.5,0.5,0.6,0.9c0.1,0.5-0.1,0.9-0.5,1.2l-1.9,1.6l2,2
				c0.1,0.1,0.2,0.3,0.2,0.6c0,0.3,0,0.5-0.2,0.7c-0.2,0.3-0.4,0.4-0.7,0.5l-5.1,0.9L103.6,11z"/>
		</g>
		<path fill="#010101" d="M127.1,18c-0.4,0.2-0.8,0.2-1.2,0.1c-0.4-0.1-0.7-0.4-0.9-0.8c-0.2-0.4-0.2-0.8-0.1-1.2
			c0.1-0.4,0.4-0.7,0.8-0.9c0.4-0.2,0.8-0.2,1.2-0.1c0.4,0.1,0.7,0.4,0.9,0.8c0.2,0.4,0.2,0.8,0.1,1.2
			C127.7,17.5,127.5,17.8,127.1,18z"/>
		<path fill="#010101" d="M100.5,14.3l21.1,8c0.1-0.2,0.2-0.3,0.4-0.4c0.2-0.1,0.5-0.2,0.7-0.1l2.7,0.7l0-2.5c0-0.5,0.2-0.9,0.7-1.2
			c0.3-0.2,0.7-0.2,1.1-0.1c0.4,0.1,0.7,0.3,0.8,0.7c0.1,0.2,0.1,0.4,0.1,0.7l0,3.1c0,0.6-0.1,1-0.7,1.3c0,0-0.1,0-0.2,0l2.8,1
			l-0.5,1.4l-4.9-1.9l-0.6-1.1l-0.2,0.1l-0.2,0.1l1.8,3.4l-0.7,0.4l-0.8,0.3l-2.3-4.4L100,15.7L100.5,14.3z"/>
	</g>
	<circle fill="none" cx="156.4" cy="6.9" r="0.7"/>
	<circle fill="none" cx="154.6" cy="8.7" r="0.7"/>
	<circle fill="none" cx="154" cy="6.3" r="0.7"/>
	<g>
		<path fill="#010101" d="M169.6,14.4c0.3,0,0.7,0.1,1,0.2l0.9,0.3l-1.1-11.7L170.1,0h-3.1l-0.3,3.1h-3.9L162.5,0h-3.1l-0.3,3.1
			h-3.9L155,0h-3.1l-0.3,3.1h0l-1.7,18.8c0,0,4.8,1.6,11,1.6c1.6,0,3.1-0.1,4.5-0.3l1.4-6.6C167.1,15.3,168.2,14.4,169.6,14.4z
			 M153.5,5.8c0.3-0.3,0.7-0.3,1,0c0.3,0.3,0.3,0.7,0,1c-0.3,0.3-0.7,0.3-1,0C153.2,6.5,153.2,6.1,153.5,5.8z M155.1,9.2
			c-0.3,0.3-0.7,0.3-1,0c-0.3-0.3-0.3-0.7,0-1c0.3-0.3,0.7-0.3,1,0C155.4,8.4,155.4,8.9,155.1,9.2z M156.9,7.4c-0.3,0.3-0.7,0.3-1,0
			c-0.3-0.3-0.3-0.7,0-1c0.3-0.3,0.7-0.3,1,0C157.2,6.7,157.2,7.1,156.9,7.4z"/>
		<circle fill="#010101" cx="173.5" cy="28.1" r="0.7"/>
		<path fill="#010101" d="M179.4,19.9l-3.3-1.2l3.4-10.5l-2.8-1l-3.4,10.5l-3.3-1.2c-0.1,0-0.2-0.1-0.3-0.1c-0.4,0-0.7,0.3-0.8,0.7
			l-1.9,9.3c-0.1,0.3,0,0.5,0.1,0.7c1-0.8,2.3-1.6,3.9-2.2c2-0.8,4.7-0.7,6.7,0.5l2.3-4.3C180.2,20.6,179.9,20.1,179.4,19.9z"/>
		<circle fill="#010101" cx="175.6" cy="26.8" r="0.7"/>
		<circle fill="#010101" cx="175.6" cy="29.3" r="0.7"/>
	</g>
	<path fill="none" d="M22.4-34.8l-0.4,0.7c0.3,0.2,0.6,0.4,0.9,0.5l0.4-0.7C22.9-34.4,22.6-34.6,22.4-34.8z"/>
	<path fill="none" d="M20.1-31.1c0.3,0.1,0.6,0.3,0.9,0.5l0.4-0.7c-0.3-0.2-0.6-0.3-0.9-0.5L20.1-31.1z"/>
	<circle cx="4.1" cy="-22.1" r="4.1"/>
	<path d="M29.9-29.5c-1.7,1.4-2.8,3.6-2.8,6c0,0.7,0.1,1.4,0.3,2.1c1.6-1.8,2.6-4.2,2.6-6.8C30-28.6,30-29,29.9-29.5z"/>
	<path d="M19.8-38.3c-0.1,0-0.3,0-0.4,0c0.5,1.1,1.2,2.1,2.1,2.9l1.5-2.4C22-38.1,20.9-38.3,19.8-38.3z"/>
	<path d="M23.3-34.3l1.7-2.7c-0.3-0.2-0.6-0.3-0.9-0.5l-1.7,2.6C22.6-34.6,22.9-34.4,23.3-34.3z"/>
	<path d="M26.7-33.5c0.6,0,1.2-0.1,1.7-0.2c-0.7-1.1-1.6-2-2.6-2.7l-1.6,2.5C25-33.6,25.8-33.5,26.7-33.5z"/>
	<path d="M18.6-38.3c-4.9,0.6-8.7,4.6-8.9,9.6c1.5-2.4,4.2-4,7.3-4c0.9,0,1.8,0.1,2.6,0.4l1.6-2.5C20-35.7,19.1-36.9,18.6-38.3z"/>
	<path d="M20.5-31.8c0.3,0.1,0.6,0.3,0.9,0.5l1.4-2.2c-0.3-0.2-0.6-0.3-0.9-0.5L20.5-31.8z"/>
	<path d="M29.8-30.4c-0.2-0.9-0.5-1.8-0.9-2.5c-0.7,0.2-1.4,0.3-2.1,0.3c-1,0-2-0.2-2.9-0.5l-1.5,2.4c2,1.6,3.3,4,3.3,6.8
		c0,1.9-0.6,3.6-1.7,5.1c1-0.5,1.9-1.1,2.8-1.8c-0.3-0.9-0.5-1.8-0.5-2.7C26.3-26.3,27.6-28.8,29.8-30.4z"/>
	<path d="M19.8-18c0.9,0,1.7-0.1,2.6-0.3c1.5-1.4,2.4-3.4,2.4-5.6c0-2.5-1.1-4.7-2.9-6.1l-6.8,10.9C16.5-18.4,18.1-18,19.8-18z"/>
	<path d="M20.1-31.1l-6.7,10.8c0.3,0.2,0.5,0.4,0.8,0.6L21-30.6C20.7-30.8,20.4-31,20.1-31.1z"/>
	<path d="M16.9-31.8c-3.2,0-6,2-7.2,4.8c0.3,2.3,1.3,4.4,2.8,5.9l6.5-10.4C18.4-31.7,17.7-31.8,16.9-31.8z"/>
	<path fill="#010101" d="M127.9-26.6c0.1-0.5,0.1-1,0.1-1.5c0-4.2-3.5-7.6-7.8-7.6c-0.2,0-0.5,0-0.7,0c-1,0.8-2.2,1.5-3.6,2.1
		c-1.2,0.6-2.4,1.1-3.5,1.4c0-0.2,0-0.4-0.1-0.5c1.1-0.3,2.2-0.8,3.4-1.4c0.9-0.5,1.8-0.9,2.5-1.4c1-0.7,1.9-1.4,2.6-2.1
		c1.1-1.2,1.6-2.2,1.3-2.8c-0.2-0.5-0.9-0.7-2-0.7c-1.8,0-4.4,0.8-7,2c-2.1,1-3.7,2.2-4.8,3.2c-1.4-0.2-3,0.1-4.5,0.9
		c-3.2,1.7-4.8,5-3.5,7.4c1,1.8,3.3,2.6,5.8,2.1l0.1,0.1c-1.3,2.1-1.3,4.8-1.3,4.8h3.2h2.7c0-2.8,4-3.2,4.2-3.2l0,0.3l0,0.3
		c0,0-0.2,0-0.5,0.1c-0.9,0.2-3.1,0.8-3.2,2.4c0,0.1,0,0.1,0,0.2h2.2h6.9l0,0c2.2-0.1,4.1-1,5.5-2.5c0.4,0.5,1,0.8,1.7,0.8
		c1.2,0,2.3-1,2.3-2.3C130-25.5,129.1-26.5,127.9-26.6z M104.4-30.7c-0.5,0-0.9-0.4-0.9-0.9c0-0.5,0.4-0.9,0.9-0.9
		c0.5,0,0.9,0.4,0.9,0.9C105.3-31.1,104.9-30.7,104.4-30.7z"/>
	<path fill="#010101" d="M232,26.8l-9.4-9.4c1.2-1.8,1.9-4,1.9-6.2c0-3-1.2-5.8-3.3-7.9c-2.1-2.1-4.9-3.3-7.9-3.3
		c-3,0-5.8,1.2-7.9,3.3c-2.1,2.1-3.3,4.9-3.3,7.9s1.2,5.8,3.3,7.9s4.9,3.3,7.9,3.3c2.3,0,4.4-0.7,6.3-1.9l9.4,9.4
		c0.3,0.3,0.9,0.2,1.3-0.2l1.6-1.6C232.3,27.7,232.3,27.1,232,26.8z M213.4,19.3c-4.5,0-8.1-3.7-8.1-8.1s3.6-8.1,8.1-8.1
		s8.1,3.7,8.1,8.1S217.9,19.3,213.4,19.3z"/>
	<g id="Your_Icon">
		<path fill="#010101" d="M232.2,46.6h-24.3l-1.1-3.5h-4.7l0.6,1.7h2.8l5.5,17.2c-1.2,0.2-2.1,1.3-2.1,2.5c0,1.4,1.2,2.6,2.6,2.6
			c1.4,0,2.6-1.1,2.6-2.6c0-0.3-0.1-0.6-0.2-0.9h7.2c-0.1,0.3-0.2,0.6-0.2,0.9c0,1.4,1.2,2.6,2.6,2.6c1.4,0,2.6-1.1,2.6-2.6
			c0-1.4-1.1-2.5-2.4-2.6c0,0-0.2,0-0.2,0l-10.7,0l-1.1-3.4h13.5L232.2,46.6z"/>
	</g>
	<path fill="#010101" d="M126,59.9c-0.2-0.1-0.4-0.2-0.6-0.3l-0.1,0c0,0-1-0.5-1.1-4.4c-0.1-3.9,0.9-4.5,0.9-4.5l0.1-0.1
		c1-0.5,1.8-1.3,2.3-2.3c1.4-2.7,0.4-6-2.3-7.4c-2.7-1.4-6-0.4-7.4,2.3c-0.6,1.1-0.7,2.3-0.6,3.4l0,0c0,0,0.3,1.3-3.1,3.4
		c-3.3,2.1-4.9,1.1-4.9,1.1l-0.2-0.1c-2.7-1.4-6-0.4-7.4,2.3c-1.4,2.7-0.4,6,2.3,7.4c2,1.1,4.3,0.8,6-0.6l0,0c0,0,1.1-0.9,4.6,1
		c2.8,1.5,3.2,2.9,3.2,3.5c-0.1,2,1,4,2.9,5c2.7,1.4,6,0.4,7.4-2.3C129.7,64.6,128.7,61.3,126,59.9z M103.3,58.7
		C103.3,58.7,103.3,58.7,103.3,58.7C103.3,58.7,103.3,58.7,103.3,58.7L103.3,58.7z M109.2,52.3c-0.7-0.6-2.4-0.5-3.9,0.4
		c0.2,0.2,0.3,0.4,0.3,0.7c0,0.6-0.5,1.2-1.1,1.2c-0.1,0-0.2,0-0.3,0c0,0,0,0-0.1,0c-0.4-0.1-0.7,0.2-0.8,0.3c-0.8,1.5-0.8,3,0,3.7
		c-1.5-1.5-1.5-4,0.1-5.8C105,51.1,107.6,50.9,109.2,52.3L109.2,52.3z M119.4,42.6c1.6-1.8,4.2-2,5.8-0.6l0,0
		c-0.7-0.6-2.4-0.5-3.9,0.4c0.2,0.2,0.3,0.4,0.3,0.7c0,0.6-0.5,1.2-1.1,1.2c-0.1,0-0.2,0-0.3,0c0,0,0,0-0.1,0
		c-0.4-0.1-0.7,0.2-0.8,0.3c-0.8,1.5-0.8,3,0,3.7C117.8,46.9,117.8,44.3,119.4,42.6z M115.4,59.5c-2.9-1.5-3.3-2.8-3.4-3.2
		c0-0.5,0-0.9-0.1-1.4l0,0c0,0-0.2-1.3,3.1-3.3c3-1.8,4.3-1.5,4.5-1.4c0.2,0.1,0.3,0.2,0.5,0.3c0.3,0.2,0.7,0.3,1,0.4
		c0.4,0.4,1.2,1.5,1.2,4.4c0.1,2.9-0.8,4-1.2,4.4c-0.5,0.2-0.9,0.5-1.3,0.9C119.4,60.7,118.1,60.9,115.4,59.5z M120.3,67.4
		C120.3,67.4,120.3,67.4,120.3,67.4C120.3,67.4,120.3,67.4,120.3,67.4L120.3,67.4z M126.1,61c-0.7-0.6-2.4-0.5-3.9,0.4
		c0.2,0.2,0.3,0.4,0.3,0.7c0,0.6-0.5,1.2-1.1,1.2c-0.1,0-0.2,0-0.3,0c0,0,0,0-0.1,0c-0.4-0.1-0.7,0.2-0.8,0.3c-0.8,1.5-0.8,3,0,3.7
		c-1.5-1.5-1.5-4,0.1-5.8C122,59.9,124.6,59.6,126.1,61L126.1,61z"/>
	<path fill="#010101" d="M150,51.9C150,52,150,52,150,51.9L150,51.9C150,51.9,150,51.9,150,51.9z"/>
	<g>
		<ellipse fill="#010101" cx="159" cy="51.4" rx="1" ry="1"/>
		<path fill="#010101" d="M170.5,56.5c0.6-0.1,0.9-0.7,0.8-1.2c-0.1-0.6-0.7-0.9-1.3-0.8c-0.6,0.1-0.9,0.7-0.8,1.2
			C169.4,56.3,170,56.7,170.5,56.5z"/>
		<path fill="#010101" d="M177.1,64.1c-1.4,0-3-1.5-4.8-3.2c-0.2-0.2-0.4-0.4-0.6-0.5l-0.6-2.5c-0.1-0.6-0.7-1-1.3-0.8
			c-0.5,0.1-0.8,0.5-0.9,1c-1.7-1.3-3.7-2.2-6-2.2v-9.9l-6.7-3.7l-6.2,3.7v9.9v3.3v9.1h1.3v-1.7h4.2v1.7h1.3v-1.7h5v1.7h1.3v-9.1
			v-0.8c2.9,0,5.4,2.2,7.7,4.4c2.1,2,4.1,3.8,6.5,3.8h0.4v1.7h1.2v-1.7h1.2v-2.5H177.1z M155.4,65.7h-4.2v-1.7h4.2L155.4,65.7
			L155.4,65.7z M155.4,63.2h-4.2v-1.7h4.2L155.4,63.2L155.4,63.2z M155.4,60.8h-4.2v-1.7h4.2L155.4,60.8L155.4,60.8z M161.7,55.8
			h-1.3l-0.5-2.1c-0.1-0.6-0.7-1-1.3-0.8c-0.6,0.1-1,0.7-0.8,1.3l0.4,1.6h-6.8v-9.1h10.4L161.7,55.8L161.7,55.8z"/>
	</g>
	<g>
		<path fill="#585D5C" d="M74.6,59.5c-3,0-5.4,2.4-5.4,5.3c0,2.9,2.4,5.3,5.4,5.3c3,0,5.4-2.4,5.4-5.3C80,61.9,77.6,59.5,74.6,59.5z
			 M74.6,67.4c-1.4,0-2.6-1.1-2.6-2.5c0-1.4,1.2-2.5,2.6-2.5c1.4,0,2.6,1.1,2.6,2.5C77.1,66.2,76,67.4,74.6,67.4z"/>
		<path fill="#585D5C" d="M64.3,55.6c1.2,0,2.3-0.1,3.4-0.4l1.9,4.3c0.9-0.9,2.1-1.5,3.4-1.7l-1.8-4c4.3-2.4,7.3-7,7.3-12.2
			c0-0.8,0-1.4,0-1.4H50c0,0,0,0.6,0,1.4c0,5.3,2.9,9.8,7.3,12.2L50,70.2h4.1l1.6-3.5h11.8c-0.2-0.6-0.2-1.2-0.2-1.9
			c0-0.7,0.1-1.3,0.3-1.9H57.4l3.4-7.7C61.9,55.5,63.1,55.6,64.3,55.6z M52.9,43h4.2c0.4,4.3,2.5,7.9,5.5,9.7
			C57.6,52,53.6,48,52.9,43z"/>
	</g>
	<path fill="#585D5C" d="M27.5,56.6c0-0.1,0-0.1,0-0.2c0-2-1.5-3.6-3.4-3.7c-0.3-0.3-0.6-0.5-0.9-0.8v-1.1c0.2,0,0.3,0,0.4,0
		c0.1,0,0.3,0,0.4,0c0.5,0,0.9-0.1,1.3-0.4c0.4,0.2,0.8,0.4,1.3,0.4c1.5,0,2.6-1.2,2.6-2.6c0-1.1-0.7-2.1-1.8-2.5c0-0.1,0-0.1,0-0.2
		c0-1.4-1.1-2.5-2.4-2.6c-0.5-0.5-1.2-0.9-2-0.9c-0.9,0-1.8,0.5-2.2,1.2c-0.4-0.2-0.8-0.4-1.3-0.4c-1.5,0-2.6,1.2-2.6,2.6
		c0,0,0,0.1,0,0.1c-1.1,0.3-2,1.3-2,2.6c0,1.5,1.2,2.7,2.7,2.7c0.6,0,1.1-0.2,1.5-0.5c0,0,0,0,0,0c0.4,0.2,0.8,0.4,1.3,0.4
		c0.3,0,0.6-0.1,0.9-0.2v0.7c0,0-0.1,0-0.1,0c-1.3,0-2.5,0.7-3.2,1.7c-0.4-0.2-0.8-0.4-1.2-0.4c-0.2-1-1-1.8-1.9-2.1
		c0-0.1,0-0.1,0-0.2c0-1.5-1.2-2.8-2.7-2.9c-0.5-0.6-1.3-1-2.2-1c-1.1,0-2,0.6-2.5,1.4c-0.4-0.2-0.9-0.4-1.4-0.4c-1.6,0-3,1.3-3,3
		c0,0.1,0,0.1,0,0.2C2,50.9,1,52,1,53.4c0,1.6,1.3,3,3,3c0.6,0,1.2-0.2,1.7-0.5c0,0,0,0,0,0c0.4,0.3,0.9,0.4,1.5,0.4
		c0.3,0,0.7-0.1,1-0.2v3.3c-1.1-1.3-1.6-2.4-1.6-2.4h0c0,0-1.1,2.5-3.9,4.4c0,0,1.1,0.8,1.9,0.9c0,0-1.3,2.2-4.6,3.1
		c0,0,2.5,2.1,5.5,2v2.6H7h0.6v-2.6c3.1,0.1,5.5-2,5.5-2c-3.3-0.9-4.6-3.1-4.6-3.1C9,62.3,9.6,62,10,61.7c0.6,1.3,1.9,2.2,3.5,2.2
		c0.8,0,1.5-0.2,2.1-0.7c0,0,0,0,0,0c0.6,0.3,1.2,0.5,1.9,0.5c0.4,0,0.9-0.1,1.2-0.2v6.5h2.5v-6.2c0.2,0,0.4,0,0.6-0.1
		c0.2,0,0.4,0.1,0.6,0.1c0.7,0,1.3-0.2,1.9-0.5c0.6,0.3,1.2,0.5,1.9,0.5c2.1,0,3.7-1.7,3.7-3.7C30,58.4,28.9,57.1,27.5,56.6z
		 M10.1,58.5v-2.2c0.2,0,0.3,0,0.5,0c0.2,0,0.3,0,0.5,0c0.5,0,1-0.2,1.5-0.4c0,0.1,0,0.3,0,0.5c0,0.1,0,0.1,0,0.2
		C11.5,56.8,10.6,57.5,10.1,58.5z"/>
	<path fill="#585D5C" d="M-40.4,56.1c-1.4,0-2.3,1.1-2.6,2.6l-0.4,2.4l-6.6,6.6h6l1,2.4l1.1-2.7c2.3-0.7,4-2.9,4-5.5v-2l1.9-0.9
		l-1.9-0.9C-38.1,57-39.2,56.1-40.4,56.1z M-39.9,59.3c-0.3,0-0.6-0.3-0.6-0.6s0.3-0.6,0.6-0.6s0.6,0.3,0.6,0.6
		S-39.6,59.3-39.9,59.3z"/>
	<path fill="#585D5C" d="M-30,64.9c-0.6-0.6-1.4-0.9-2.2-0.9l0,0l-3,0l0,3l0,0c0,0.8,0.3,1.6,0.9,2.2c0,0,0,0,0,0
		c1.2,1.2,3.1,1.2,4.3,0c0.6-0.6,0.9-1.4,0.9-2.1C-29.1,66.3-29.4,65.5-30,64.9C-30,64.9-30,64.9-30,64.9z"/>
	<path fill="#585D5C" d="M-26.1,61.5c1.7,0,3-1.3,3-3c1.7,0,3-1.3,3-3c0-0.9-0.4-1.6-1-2.2c0.6-0.5,1-1.3,1-2.2c0-1.7-1.3-3-3-3
		c0-1.7-1.3-3-3-3c-0.9,0-1.6,0.4-2.2,1c-0.5-0.6-1.3-1-2.2-1c-1.7,0-3,1.3-3,3c-1.7,0-3,1.3-3,3c0,0.9,0.4,1.6,1,2.2
		c-0.6,0.5-1,1.3-1,2.2c0,1.7,1.3,3,3,3c0,1.7,1.3,3,3,3c0.5,0,1-0.1,1.4-0.3v5.9v3h1.6v-3c0,0.8,0.3,1.5,0.9,2.1
		c1.2,1.2,3.1,1.2,4.3,0c0,0,0,0,0,0c0.6-0.6,0.9-1.4,0.9-2.2l0,0l0-3l-3,0l0,0c-0.8,0-1.6,0.3-2.2,0.9c0,0,0,0,0,0
		c-0.6,0.6-0.9,1.4-0.9,2.1v-5.9C-27.1,61.4-26.6,61.5-26.1,61.5z M-28.3,58.5c-2.9,0-5.2-2.3-5.2-5.2c0-2.9,2.3-5.2,5.2-5.2
		c2.9,0,5.2,2.3,5.2,5.2C-23.1,56.2-25.4,58.5-28.3,58.5z"/>
	<path fill="#585D5C" d="M-47,100.8c0.6,0,1.2-0.2,1.7-0.5c0,0,0,0,0,0c0.4,0.3,0.9,0.4,1.5,0.4c0.3,0,0.7-0.1,1-0.2v5.1h2v-4.9
		c0.2,0,0.3,0,0.5,0c0.2,0,0.3,0,0.5,0c0.5,0,1-0.2,1.5-0.4c0.4,0.3,0.9,0.4,1.5,0.4c1.6,0,3-1.3,3-3c0-1.3-0.8-2.4-2-2.8
		c0-0.1,0-0.1,0-0.2c0-1.5-1.2-2.8-2.7-2.9c-0.5-0.6-1.3-1-2.2-1c-1.1,0-2,0.6-2.5,1.4c-0.4-0.2-0.9-0.4-1.4-0.4c-1.6,0-3,1.3-3,3
		c0,0.1,0,0.1,0,0.2c-1.3,0.3-2.2,1.5-2.2,2.9C-50,99.4-48.7,100.8-47,100.8z"/>
	<rect x="-21.7" y="117.9" fill="none" width="3.3" height="3.3"/>
	<path fill="#585D5C" d="M-35,99L-35,99c7.7,4.9-14.3,4.6-15,12.1h19.7C-42.8,108.2-25.3,101.1-35,99z"/>
	<g>
		<path fill="#585D5C" d="M-25,93.1c0,0-0.2,0-0.2-0.4c0-0.4-0.4-0.8-0.8-0.8c-0.5,0-0.8,0.4-0.8,0.8c0,0.4-0.2,0.4-0.2,0.4
			c-0.1,0-0.2,0.1-0.2,0.2c0,0.1,0.1,0.2,0.2,0.2h2.1c0.1,0,0.2-0.1,0.2-0.2C-24.8,93.2-24.8,93.1-25,93.1z"/>
		<circle fill="#585D5C" cx="-26" cy="94.2" r="0.4"/>
		<circle fill="#585D5C" cx="-26" cy="88.5" r="0.6"/>
		<path fill="#585D5C" d="M-22.2,98.7l-1.3-3.8v-3.3c0.2,0,0.4-0.2,0.4-0.4s-0.2-0.4-0.4-0.4h-0.8c0-0.9-0.7-1.7-1.7-1.7
			c-0.9,0-1.7,0.7-1.7,1.7h-0.8c-0.2,0-0.4,0.2-0.4,0.4s0.2,0.4,0.4,0.4v3.3l-1.3,3.8h-2.1v1.3h0.8v2.5v3.3v2.8h10v-2.8v-3.3v-2.5
			h0.8v-1.3H-22.2z M-27.7,91.6h3.3v3.3h-3.3V91.6z M-26.8,105.8L-26.8,105.8l0,1.2h-2.5v-1.2v-3.3v0c0-0.7,0.6-1.3,1.3-1.3
			c0.7,0,1.3,0.6,1.3,1.3v0V105.8z M-22.7,105.8L-22.7,105.8l0,1.2h-2.5v-1.2v-3.3v0c0-0.7,0.6-1.3,1.3-1.3c0.7,0,1.3,0.6,1.3,1.3v0
			V105.8z"/>
	</g>
	<path fill="#585D5C" d="M-32.7,86.4c0.8-0.2,1.9-0.9,1.9-0.9c-2.8-1.9-3.9-4.4-3.9-4.4h0c0,0-1.1,2.5-3.9,4.4c0,0,1.1,0.8,1.9,0.9
		c0,0-1.3,2.2-4.6,3.1c0,0,2.5,2.1,5.5,2v2.6h1.5h0.6v-2.6c3.1,0.1,5.5-2,5.5-2C-31.3,88.6-32.7,86.4-32.7,86.4z"/>
	<g>
		<path fill="#585D5C" d="M-32.5,126c0,0-0.3,0-0.3-0.6c0-0.6-0.5-1.2-1.2-1.2c-0.7,0-1.2,0.5-1.2,1.2c0,0.6-0.3,0.6-0.3,0.6
			c-0.2,0-0.3,0.1-0.3,0.3c0,0.2,0.1,0.3,0.3,0.3h3c0.2,0,0.3-0.1,0.3-0.3C-32.2,126.1-32.3,126-32.5,126z"/>
		<circle fill="#585D5C" cx="-34" cy="127.5" r="0.6"/>
		<circle fill="#585D5C" cx="-34" cy="119.3" r="0.9"/>
		<path fill="#585D5C" d="M-28.6,133.9l-1.8-5.4v-4.8c0.3,0,0.6-0.3,0.6-0.6s-0.3-0.6-0.6-0.6h-1.2c0-1.3-1.1-2.4-2.4-2.4
			c-1.3,0-2.4,1.1-2.4,2.4h-1.2c-0.3,0-0.6,0.3-0.6,0.6s0.3,0.6,0.6,0.6v4.8l-1.8,5.4h-3v1.8h1.2v3.6v4.7v4h14.3v-4v-4.7v-3.6h1.2
			v-1.8H-28.6z M-36.4,123.7h4.8v4.8h-4.8V123.7z M-35.2,144.1L-35.2,144.1l0,1.8h-3.6v-1.8v-4.7v-0.1c0-1,0.8-1.8,1.8-1.8
			c1,0,1.8,0.8,1.8,1.8v0.1V144.1z M-29.2,144.1L-29.2,144.1l0,1.8h-3.6v-1.8v-4.7v-0.1c0-1,0.8-1.8,1.8-1.8c1,0,1.8,0.8,1.8,1.8
			v0.1V144.1z"/>
	</g>
	<g>
		<path fill="#585D5C" d="M25.4,99L25.4,99c7.7,4.9-14.3,4.6-15,12.1h19.7C17.7,108.2,35.1,101.1,25.4,99z"/>
		<path fill="#585D5C" d="M11.6,105v-6.2c0.2,0,0.4,0,0.6-0.1c0.2,0,0.4,0.1,0.6,0.1c0.7,0,1.3-0.2,1.9-0.5c0.6,0.3,1.2,0.5,1.9,0.5
			c2.1,0,3.7-1.7,3.7-3.7c0-1.6-1.1-3-2.5-3.5c0-0.1,0-0.1,0-0.2c0-0.5-0.1-0.9-0.2-1.3c0.9,0.6,2.8,1.6,5,1.6v2.6H24h0.6v-2.6
			c3.1,0.1,5.5-2,5.5-2c-3.3-0.9-4.6-3.1-4.6-3.1c0.8-0.2,1.9-0.9,1.9-0.9c-2.8-1.9-3.9-4.4-3.9-4.4h0c0,0-1.1,2.5-3.9,4.4
			c0,0,1.1,0.8,1.9,0.9c0,0-1.2,2-4.3,3c-0.6-1-1.7-1.8-2.9-1.9c-0.7-0.8-1.7-1.3-2.8-1.3c-1.3,0-2.5,0.7-3.2,1.7
			c-0.5-0.3-1.2-0.5-1.8-0.5c-2.1,0-3.7,1.7-3.7,3.7c0,0.1,0,0.1,0,0.2C1.2,91.9,0,93.4,0,95.1c0,2.1,1.7,3.8,3.8,3.8
			c0.8,0,1.5-0.2,2.1-0.7c0,0,0,0,0,0c0.6,0.3,1.2,0.5,1.9,0.5c0.4,0,0.9-0.1,1.2-0.2v6.5H11.6z"/>
	</g>
	<path fill="#585D5C" d="M26.5,134.6c0-0.1,0-0.1,0-0.2c0-2-1.5-3.6-3.4-3.7c-0.7-0.8-1.7-1.3-2.8-1.3c-1.3,0-2.5,0.7-3.2,1.7
		c-0.5-0.3-1-0.4-1.5-0.5c0.1-0.3,0.2-0.7,0.2-1.1c0-1.1-0.7-2.1-1.8-2.5c0-0.1,0-0.1,0-0.2c0-1.4-1.1-2.5-2.4-2.6
		c-0.5-0.5-1.2-0.9-2-0.9c-0.9,0-1.8,0.5-2.2,1.2c-0.4-0.2-0.8-0.4-1.3-0.4c-1.5,0-2.6,1.2-2.6,2.6c0,0,0,0.1,0,0.1
		c-1.1,0.3-2,1.3-2,2.6c0,1.5,1.2,2.7,2.7,2.7c0.6,0,1.1-0.2,1.5-0.5c0,0,0,0,0,0c0.4,0.2,0.8,0.4,1.3,0.4c0.3,0,0.6-0.1,0.9-0.2
		v1.7c-0.5,0.2-1,0.6-1.3,1.1c-0.4-0.2-0.9-0.4-1.4-0.4c-1.6,0-3,1.3-3,3c0,0.1,0,0.1,0,0.2C1,137.9,0,139.1,0,140.5
		c0,1.6,1.3,3,3,3c0.6,0,1.2-0.2,1.7-0.5c0,0,0,0,0,0c0.4,0.3,0.9,0.4,1.5,0.4c0.3,0,0.7-0.1,1-0.2v5.1h2v-4.9c0.2,0,0.3,0,0.5,0
		c0.2,0,0.3,0,0.5,0c0.5,0,1-0.2,1.5-0.4c0.4,0.3,0.9,0.4,1.5,0.4c1.1,0,2.1-0.6,2.6-1.5c0.3,0.1,0.6,0.1,0.9,0.1
		c0.4,0,0.9-0.1,1.2-0.2v6.5h2.5v-6.2c0.2,0,0.4,0,0.6-0.1c0.2,0,0.4,0.1,0.6,0.1c0.7,0,1.3-0.2,1.9-0.5c0.6,0.3,1.2,0.5,1.9,0.5
		c2.1,0,3.7-1.7,3.7-3.7C29,136.5,27.9,135.1,26.5,134.6z M10.1,132.2c0.1,0,0.3,0,0.4,0c0.5,0,0.9-0.1,1.3-0.4
		c0.1,0.1,0.3,0.1,0.5,0.2c-0.5,0.6-0.8,1.4-0.8,2.3c0,0,0,0.1,0,0.1c-0.1,0-0.1,0-0.2,0c-0.4-0.5-1-0.8-1.6-0.9v-1.3
		C9.8,132.3,10,132.2,10.1,132.2z"/>
	<path fill="#010101" d="M50-31v0.3C50-30.8,50-30.9,50-31L50-31z"/>
	<path fill="#010101" d="M50-30L50-30c0-0.1,0-0.2,0-0.3V-30z"/>
	<path fill="#010101" d="M74.4-42.2c-3.5,2.6-5.7,6.6-5.9,11.2H80C79.8-35.5,77.7-39.5,74.4-42.2z"/>
	<path fill="#010101" d="M80-30H68.5c0.2,4.6,2.5,8.6,5.9,11.1C77.7-21.5,79.8-25.5,80-30z"/>
	<path fill="#010101" d="M73.5-42.8c-2.3-1.6-5-2.6-8-2.7V-31h2C67.6-35.8,70-40,73.5-42.8z"/>
	<path fill="#010101" d="M67.5-30h-2v14.5c3-0.1,5.8-1.1,8.1-2.7C70-20.9,67.7-25.2,67.5-30z"/>
	<path fill="#010101" d="M55.5-18.9c3.4-2.5,5.6-6.5,5.8-11.1H50C50.2-25.5,52.3-21.5,55.5-18.9z"/>
	<path fill="#010101" d="M55.5-42.1c-3.2,2.7-5.4,6.6-5.5,11.1h11.3C61.1-35.5,58.9-39.5,55.5-42.1z"/>
	<path fill="#010101" d="M56.3-18.3c2.3,1.7,5.2,2.7,8.2,2.8V-30h-2.2C62.1-25.2,59.8-21,56.3-18.3z"/>
	<path fill="#010101" d="M64.5-45.5c-3,0.1-5.9,1.1-8.2,2.7c3.5,2.8,5.8,7,6,11.8h2.2V-45.5z"/>
</g>
</svg>
