<?xml version="1.0" encoding="utf-8"?>
<!-- Generated by IcoMoon.io -->
<!DOCTYPE svg PUBLIC "-//W3C//DTD SVG 1.1//EN" "http://www.w3.org/Graphics/SVG/1.1/DTD/svg11.dtd">
<svg version="1.1" xmlns="http://www.w3.org/2000/svg" xmlns:xlink="http://www.w3.org/1999/xlink" width="577" height="1024" viewBox="0 0 577 1024"><g id="icomoon-ignore">
</g>
<path d="M587.451 642.337q0 14.909-10.901 25.81l-257.014 257.014q-10.901 10.901-25.81 10.901t-25.81-10.901l-257.014-257.014q-10.901-10.901-10.901-25.81t10.901-25.81 25.81-10.901h513.996q14.909 0 25.81 10.901t10.901 25.81zM587.451 422.066q0 14.909-10.901 25.81t-25.81 10.901h-513.996q-14.909 0-25.81-10.901t-10.901-25.81 10.901-25.81l257.014-257.014q10.901-10.901 25.81-10.901t25.81 10.901l257.014 257.014q10.901 10.901 10.901 25.81z" fill="rgb(68, 68, 68)"></path>
</svg>
