<?xml version="1.0" encoding="utf-8"?>
<!-- Generated by IcoMoon.io -->
<!DOCTYPE svg PUBLIC "-//W3C//DTD SVG 1.1//EN" "http://www.w3.org/Graphics/SVG/1.1/DTD/svg11.dtd">
<svg version="1.1" xmlns="http://www.w3.org/2000/svg" xmlns:xlink="http://www.w3.org/1999/xlink" width="1024" height="1024" viewBox="0 0 1024 1024"><g id="icomoon-ignore">
</g>
<path d="M410.402 121.437h34.199v786.604h-34.199v-786.604zM978.122 562.619l-95.759-147.061-37.621 75.239 133.381 218.882h-123.12l-20.52 198.359h-95.759l-20.52-198.359h-123.12l133.381-218.879-37.621-75.241-95.759 147.061h-47.882l78.66-201.782c10.26-27.361 37.621-44.459 64.979-44.459h47.882l47.882 99.18 47.882-99.18h47.882c27.361 0 54.719 17.101 64.979 44.459l78.662 201.782h-47.882zM786.604 268.498c-41.040 0-71.82-34.201-71.82-75.241 0-37.619 30.78-71.82 71.82-71.82s71.82 34.201 71.82 75.239c0 37.621-30.78 71.82-71.82 71.82zM208.619 613.919l-27.359 294.122h-88.92l-27.361-294.122h-64.979v-259.922c20.52-10.26 44.459-20.52 71.82-27.361l64.979 140.222 64.979-140.222c27.359 6.839 51.3 13.681 71.82 27.361v259.922h-64.981zM136.799 268.498c-37.619 0-68.4-34.201-68.4-75.241 0-37.619 30.78-71.82 68.4-71.82s68.4 34.201 68.4 75.239c0 37.621-30.78 71.82-68.4 71.82z" fill="rgb(68, 68, 68)"></path>
</svg>
