<?xml version="1.0" encoding="utf-8"?>
<svg version="1.1" id="Layer_1" xmlns="http://www.w3.org/2000/svg" x="0px" y="0px" viewBox="0 0 30 30" style="enable-background:new 0 0 30 30;" xml:space="preserve">
<g>
	<path d="M14.998,2.934c1.828,0,3.568,0.286,5.174,0.85c1.6,0.561,3.008,1.332,4.185,2.289c1.144,0.932,2.054,2.03,2.703,3.262
		c0.631,1.2,0.938,2.442,0.938,3.797c0,1.395-0.307,2.656-0.937,3.855c-0.646,1.227-1.551,2.311-2.69,3.221
		c-1.18,0.944-2.593,1.709-4.199,2.272c-1.608,0.564-3.349,0.85-5.174,0.85c-0.354,0-0.709-0.008-1.072-0.027
		c-0.354-0.017-0.709-0.044-1.062-0.079l-0.944-0.095l-0.671,0.67c-1.347,1.346-2.742,2.186-4.266,2.567
		c-0.051,0.013-0.103,0.025-0.154,0.038c0.513-0.915,0.771-1.9,0.771-2.941v-0.438c0-0.346-0.053-0.683-0.158-1.002l-0.214-0.652
		L6.66,20.987c-1.426-0.961-2.583-2.158-3.439-3.559c-0.823-1.345-1.223-2.75-1.223-4.297c0-1.356,0.307-2.598,0.937-3.796
		c0.648-1.232,1.557-2.329,2.703-3.262c1.177-0.958,2.585-1.728,4.187-2.29C11.428,3.22,13.169,2.934,14.998,2.934 M14.998,0.934
		c-2.063,0-4.008,0.32-5.836,0.963c-1.83,0.642-3.425,1.518-4.786,2.626c-1.362,1.109-2.432,2.403-3.21,3.882
		c-0.779,1.479-1.167,3.055-1.167,4.728c0,1.907,0.505,3.688,1.518,5.341c1.011,1.654,2.354,3.045,4.027,4.173
		c0.038,0.116,0.058,0.243,0.058,0.379c0,0.137,0,0.283,0,0.438c0,1.012-0.37,1.945-1.109,2.801
		c-0.74,0.856-1.615,1.537-2.626,2.043v0.759c1.868-0.039,3.735-0.292,5.603-0.759c1.868-0.467,3.599-1.497,5.195-3.093
		c0.388,0.039,0.778,0.068,1.167,0.087c0.389,0.021,0.778,0.029,1.167,0.029c2.062,0,4.007-0.321,5.836-0.963
		c1.829-0.642,3.424-1.508,4.786-2.598c1.362-1.089,2.431-2.372,3.21-3.852c0.778-1.479,1.167-3.073,1.167-4.786
		c0-1.673-0.39-3.248-1.167-4.728c-0.779-1.479-1.848-2.772-3.21-3.882c-1.362-1.108-2.958-1.984-4.786-2.626
		C19.005,1.254,17.06,0.934,14.998,0.934L14.998,0.934z"/>
</g>
</svg>