<?xml version="1.0" encoding="utf-8"?>
<!-- Generated by IcoMoon.io -->
<!DOCTYPE svg PUBLIC "-//W3C//DTD SVG 1.1//EN" "http://www.w3.org/Graphics/SVG/1.1/DTD/svg11.dtd">
<svg version="1.1" xmlns="http://www.w3.org/2000/svg" xmlns:xlink="http://www.w3.org/1999/xlink" width="1024" height="1024" viewBox="0 0 1024 1024"><g id="icomoon-ignore">
</g>
<path d="M0 778.080h1026.004v34.201h-1026.004v-34.201zM444.602 812.28h136.799c37.621 0 68.4-30.78 68.4-68.402h-273.602c0 37.621 30.78 68.402 68.4 68.402zM786.604 812.28h136.801c37.621 0 68.4-30.78 68.4-68.402h-273.602c0 37.621 30.78 68.402 68.402 68.402zM581.404 436.078h-136.801c-37.621 0-68.4 30.78-68.4 68.402v205.201h273.602v-205.201c0-37.621-30.78-68.402-68.402-68.402zM564.302 497.638h-106.019c-10.26 0-17.101-6.839-17.101-17.101s6.839-17.101 17.101-17.101h106.019c10.26 0 17.101 6.839 17.101 17.101s-6.839 17.101-17.101 17.101zM923.404 436.078h-136.801c-37.621 0-68.402 30.78-68.402 68.402v205.201h273.602v-205.201c0-37.621-30.78-68.402-68.402-68.402zM906.304 497.638h-106.019c-10.26 0-17.101-6.839-17.101-17.101s6.839-17.101 17.101-17.101h106.019c10.26 0 17.101 6.839 17.101 17.101s-6.839 17.101-17.101 17.101zM547.203 504.479h273.602v34.201h-273.602v-34.201zM0 778.080h34.201v102.6h-34.201v-102.6zM991.803 778.080h34.201v102.6h-34.201v-102.6zM102.6 812.28h136.799c37.621 0 68.4-30.78 68.4-68.402h-273.602c0 37.621 30.78 68.402 68.4 68.402zM239.4 436.078h-136.799c-37.619 0-68.4 30.78-68.4 68.402v205.201h273.602v-205.201c0-37.621-30.78-68.402-68.4-68.402zM222.3 497.638h-102.6c-10.26 0-17.101-6.839-17.101-13.681 0-10.26 6.839-17.101 17.101-17.101h106.019c10.26 0 17.101 6.839 17.101 17.101-3.421 6.839-10.26 13.681-20.52 13.681zM205.201 504.479h273.602v34.201h-273.602v-34.201zM786.604 418.978h34.201v-119.7c0-37.619-30.78-68.4-68.402-68.4h-136.801c-37.621 0-68.4 30.78-68.4 68.4v119.7h34.201c47.882 0 85.499 37.621 85.499 85.501v34.201h34.201v-34.201c0-47.882 37.621-85.499 85.499-85.499zM632.702 292.437c-10.26 0-17.101-6.839-17.101-13.681 0-10.26 6.839-17.101 17.101-17.101h106.019c10.26 0 17.101 6.839 17.101 17.101-3.421 6.839-10.26 13.681-20.52 13.681h-102.6zM444.602 418.978h34.199v-119.7c0-37.619-30.78-68.4-68.4-68.4h-136.799c-37.619 0-68.4 30.78-68.4 68.4v119.7h34.201c47.882 0 85.499 37.621 85.499 85.501v34.201h34.199v-34.201c0-47.882 37.621-85.499 85.499-85.499zM290.7 292.437c-10.26 0-17.101-6.839-17.101-13.681 0-10.26 6.839-17.101 17.101-17.101h106.019c10.26 0 17.101 6.839 17.101 17.101-3.421 6.839-10.26 13.681-20.52 13.681h-102.6z" fill="rgb(68, 68, 68)"></path>
</svg>
