<?xml version="1.0" encoding="utf-8"?>
<!-- Generated by IcoMoon.io -->
<!DOCTYPE svg PUBLIC "-//W3C//DTD SVG 1.1//EN" "http://www.w3.org/Graphics/SVG/1.1/DTD/svg11.dtd">
<svg version="1.1" xmlns="http://www.w3.org/2000/svg" xmlns:xlink="http://www.w3.org/1999/xlink" width="1024" height="1024" viewBox="0 0 1024 1024"><g id="icomoon-ignore">
</g>
<path d="M1028.024 185.829c-37.834 16.769-78.457 28.119-121.133 33.217 43.541-26.099 76.982-67.428 92.725-116.676-40.752 24.175-85.896 41.713-133.926 51.172-38.475-40.976-93.302-66.594-153.933-66.594-116.484 0-210.908 94.424-210.908 210.908 0 16.544 1.86 32.64 5.451 48.062-175.286-8.785-330.694-92.757-434.705-220.366-18.147 31.165-28.568 67.364-28.568 106.031 0 73.167 37.225 137.741 93.815 175.543-34.564-1.090-67.107-10.581-95.515-26.388-0.032 0.866-0.032 1.763-0.032 2.661 0 102.184 72.718 187.438 169.194 206.804-17.699 4.809-36.327 7.406-55.565 7.406-13.595 0-26.804-1.315-39.694-3.783 26.836 83.78 104.717 144.763 197.025 146.462-72.173 56.558-163.135 90.288-261.952 90.288-17.025 0-33.826-0.994-50.306-2.95 93.334 59.829 204.207 94.777 323.319 94.777 387.926 0 600.084-321.364 600.084-600.084 0-9.138-0.192-18.244-0.609-27.285 41.2-29.722 76.982-66.883 105.262-109.173z" fill="rgb(68, 68, 68)"></path>
</svg>
