<?xml version="1.0" encoding="utf-8"?>
<!-- Generator: Adobe Illustrator 18.0.0, SVG Export Plug-In . SVG Version: 6.00 Build 0)  -->
<!DOCTYPE svg PUBLIC "-//W3C//DTD SVG 1.0//EN" "http://www.w3.org/TR/2001/REC-SVG-20010904/DTD/svg10.dtd">
<svg version="1.0" id="Layer_1" xmlns="http://www.w3.org/2000/svg" xmlns:xlink="http://www.w3.org/1999/xlink" x="0px" y="0px"
	 viewBox="0 0 30 30" style="enable-background:new 0 0 30 30;" xml:space="preserve">
<style type="text/css">
	.st0{fill:#010101;}
</style>
<path class="st0" d="M0,11.7C0,11.8,0,11.8,0,11.7L0,11.7C0,11.7,0,11.7,0,11.7z"/>
<path d="M4.4,2.3c0,0.8-0.4,1.5-1.1,1.9v25.3c0,0.2-0.1,0.3-0.2,0.4C3,29.9,2.9,30,2.8,30H1.7c-0.1,0-0.3-0.1-0.4-0.2
	c-0.1-0.1-0.2-0.2-0.2-0.4V4.2C0.4,3.7,0,3.1,0,2.3c0-0.6,0.2-1.1,0.7-1.6C1.1,0.3,1.6,0,2.2,0c0.6,0,1.1,0.2,1.6,0.7
	C4.2,1.1,4.4,1.6,4.4,2.3z"/>
<g>
	<path class="st0" d="M14,4.3c0.1,0,0.2,0,0.3,0c1.4,0,3,0.5,4.7,1c2,0.5,4,1.1,6,1.1c1,0,2-0.1,2.9-0.4v9.9
		c-0.8,0.6-1.7,0.9-2.9,0.9c-1.5,0-3.2-0.5-5-1c-1.9-0.5-3.8-1-5.7-1.1c-0.2,0-0.3,0-0.5,0c-2.9,0-5.6,0.9-7.6,1.8V6.6
		C7.8,5.8,10.9,4.3,14,4.3 M30,2.2c-1.4,1.6-3.1,2.1-4.9,2.1c-3.4,0-7.3-1.9-10.7-2.1c-0.1,0-0.3,0-0.4,0c-5.1,0-9.6,3.3-9.6,3.3
		v14.4c0,0,4.5-3.3,9.6-3.3c0.1,0,0.3,0,0.4,0c3.5,0.1,7.3,2.1,10.7,2.1c1.8,0,3.4-0.5,4.9-2.1V2.2L30,2.2z"/>
</g>
</svg>
