<?xml version="1.0" encoding="utf-8"?>
<!-- Generated by IcoMoon.io -->
<!DOCTYPE svg PUBLIC "-//W3C//DTD SVG 1.1//EN" "http://www.w3.org/Graphics/SVG/1.1/DTD/svg11.dtd">
<svg version="1.1" xmlns="http://www.w3.org/2000/svg" xmlns:xlink="http://www.w3.org/1999/xlink" width="1024" height="1024" viewBox="0 0 1024 1024"><g id="icomoon-ignore">
</g>
<path d="M643.272 610.402c-5.803-1.924-42.259-18.436-19.43-88.685h-0.353c59.444-61.817 104.813-161.467 104.813-259.547 0-150.791-99.106-229.857-214.242-229.857-115.297 0-213.794 79.034-213.794 229.857 0 98.4 45.176 198.5 104.845 260.284 23.342 61.849-18.372 84.774-27.093 87.948-120.588 44.182-262.080 124.724-262.080 204.079v29.754c0 108.308 207.285 132.803 399.18 132.803 192.151 0 396.871-24.496 396.871-132.803v-29.754c0.032-81.824-142.134-161.692-268.749-204.079z" fill="rgb(68, 68, 68)"></path>
</svg>
