<?xml version="1.0" encoding="utf-8"?>
<!-- Generator: Adobe Illustrator 18.0.0, SVG Export Plug-In . SVG Version: 6.00 Build 0)  -->
<!DOCTYPE svg PUBLIC "-//W3C//DTD SVG 1.0//EN" "http://www.w3.org/TR/2001/REC-SVG-20010904/DTD/svg10.dtd">
<svg version="1.0" id="Layer_1" xmlns="http://www.w3.org/2000/svg" xmlns:xlink="http://www.w3.org/1999/xlink" x="0px" y="0px"
	 viewBox="0 0 30 30" enable-background="new 0 0 30 30" xml:space="preserve">
<g>
	<path fill="#010101" d="M15,17.5c5.2,0,7.3-5.3,7.3-9.3c0-4-1.6-8.2-7.3-8.2C9.5,0,7.7,4.2,7.7,8.2C7.7,12.2,9.6,17.5,15,17.5z"/>
	<path fill="#010101" d="M28.6,23.1l-8-3.1c-0.8-0.3-2.1-0.6-3-0.6h-5.1c-0.8,0-2.2,0.2-3,0.6l-8,3.1C0.6,23.4,0,24.3,0,25.2v3.3
		C0,29.3,0.7,30,1.5,30h26.9c0.8,0,1.5-0.7,1.5-1.5v-3.3C30,24.3,29.4,23.4,28.6,23.1z"/>
</g>
</svg>
