<?xml version="1.0" encoding="utf-8"?>
<!-- Generated by IcoMoon.io -->
<!DOCTYPE svg PUBLIC "-//W3C//DTD SVG 1.1//EN" "http://www.w3.org/Graphics/SVG/1.1/DTD/svg11.dtd">
<svg version="1.1" xmlns="http://www.w3.org/2000/svg" xmlns:xlink="http://www.w3.org/1999/xlink" width="1024" height="1024" viewBox="0 0 1024 1024"><g id="icomoon-ignore">
</g>
<path d="M687.423 802.020c-17.101-10.26-41.040-6.839-51.3 13.681-47.882 75.239-126.541 119.7-215.461 119.7-140.222 0-253.080-116.279-253.080-256.501 0-82.080 41.040-160.742 106.019-208.619 17.101-13.681 20.52-34.201 6.839-51.3s-34.201-20.52-51.3-10.26c-85.499 61.56-136.799 164.161-136.799 270.182 0 181.262 147.059 331.742 328.321 331.742 112.86 0 218.879-58.142 277.021-157.321 13.681-17.101 10.26-41.040-10.26-51.3zM947.344 825.959c-6.839-20.52-27.361-30.78-47.882-23.941l-44.461 17.101c0 0-82.080-232.56-85.499-235.981 0 0-3.421-3.421-3.421-6.839-10.26-17.101-30.78-30.78-51.3-30.78h-194.941l-3.421-71.82h160.742c20.52 0 37.621-17.101 37.621-37.619s-17.101-37.621-37.621-37.621h-164.161l-6.839-106.019c0 0 0-3.421 0-3.421-3.421-51.3-47.88-92.34-99.18-88.922s-92.34 47.882-88.922 99.182v0 0l13.681 277.021c0 0 0 0 0 0 3.421 51.3 44.459 88.92 92.34 88.92 0 0 253.080 0 253.080 0l75.239 208.619c6.839 23.941 30.78 37.621 51.3 37.621 3.421 0 6.839 0 10.26 0s3.421 0 6.839-3.421l99.18-37.621c23.941-3.421 34.201-27.361 27.361-44.461zM412.353 154.51c-47.154 2.479-87.389-33.74-89.868-80.894s33.74-87.391 80.894-89.87c47.154-2.479 87.389 33.74 89.868 80.894s-33.74 87.391-80.894 89.87z" fill="rgb(68, 68, 68)"></path>
</svg>
