<?xml version="1.0" encoding="utf-8"?>
<!-- Generator: Adobe Illustrator 18.0.0, SVG Export Plug-In . SVG Version: 6.00 Build 0)  -->
<!DOCTYPE svg PUBLIC "-//W3C//DTD SVG 1.0//EN" "http://www.w3.org/TR/2001/REC-SVG-20010904/DTD/svg10.dtd">
<svg version="1.0" xmlns="http://www.w3.org/2000/svg" xmlns:xlink="http://www.w3.org/1999/xlink" x="0px" y="0px"
	 viewBox="0 0 30 30" style="enable-background:new 0 0 30 30;" xml:space="preserve">
<style type="text/css">
	.st0{fill-rule:evenodd;clip-rule:evenodd;}
	.st1{fill:none;}
	.st2{opacity:0.4;}
	.st3{fill:#010101;}
	.st4{fill:#585D5C;}
	.st5{fill:#63666D;}
</style>
<g id="Layer_1">
</g>
<g id="Layer_2">
	<g id="Lozenge">
		<g>
			<path class="st4" d="M29.7,9c0,0-0.3-2.1-1.2-3c-1.1-1.2-2.4-1.2-3-1.3C21.3,4.4,15,4.4,15,4.4h0c0,0-6.3,0-10.5,0.3
				C3.9,4.8,2.6,4.8,1.5,6C0.6,6.9,0.3,9,0.3,9S0,11.4,0,13.9v2.3C0,18.6,0.3,21,0.3,21s0.3,2.1,1.2,3c1.1,1.2,2.6,1.2,3.3,1.3
				C7.2,25.5,15,25.6,15,25.6s6.3,0,10.5-0.3c0.6-0.1,1.9-0.1,3-1.3c0.9-0.9,1.2-3,1.2-3s0.3-2.4,0.3-4.9v-2.3
				C30,11.4,29.7,9,29.7,9z M11.9,18.9l0-8.4l8.1,4.2L11.9,18.9z"/>
		</g>
	</g>
</g>
</svg>
