<?xml version="1.0" standalone="no"?>
<!DOCTYPE svg PUBLIC "-//W3C//DTD SVG 20010904//EN"
 "http://www.w3.org/TR/2001/REC-SVG-20010904/DTD/svg10.dtd">
<svg version="1.0" xmlns="http://www.w3.org/2000/svg"
 width="192.000000pt" height="192.000000pt" viewBox="0 0 192.000000 192.000000"
 preserveAspectRatio="xMidYMid meet">
<metadata>
Created by potrace 1.11, written by Peter Selinger 2001-2013
</metadata>
<g transform="translate(0.000000,192.000000) scale(0.100000,-0.100000)"
fill="#000000" stroke="none">
<path d="M220 1911 c-84 -26 -150 -82 -191 -161 l-24 -45 0 -745 0 -745 27
-50 c31 -60 77 -104 138 -136 l45 -24 745 0 745 0 45 24 c61 32 107 76 138
136 l27 50 0 745 0 745 -27 50 c-31 60 -77 104 -138 136 l-45 24 -730 2 c-401
1 -741 -2 -755 -6z m1015 -487 c3 -26 9 -52 11 -59 4 -9 -21 -18 -78 -31 l-83
-19 47 -34 c52 -37 58 -51 58 -134 0 -73 -22 -121 -69 -152 -46 -31 -166 -64
-258 -72 -68 -6 -73 -7 -73 -29 0 -30 2 -30 176 1 264 47 312 31 350 -117 29
-112 2 -179 -89 -221 -93 -44 -320 -87 -456 -87 l-68 0 -6 67 c-3 38 -3 71 -1
74 2 3 52 9 111 13 118 8 234 28 301 52 36 14 42 20 42 45 0 18 -6 32 -16 36
-9 3 -87 -6 -173 -21 -235 -40 -280 -35 -316 34 -22 42 -19 75 12 121 27 40
27 42 8 55 -65 46 -89 97 -101 219 -12 116 31 180 145 216 64 20 499 98 512
92 4 -1 10 -24 14 -49z"/>
<path d="M905 1284 c-11 -3 -44 -10 -73 -15 -77 -15 -95 -37 -87 -102 15 -109
32 -123 132 -106 38 6 83 17 101 25 31 12 32 15 31 66 0 29 -6 71 -13 93 -10
34 -16 40 -41 42 -17 0 -39 -1 -50 -3z"/>
</g>
</svg>
