<?xml version="1.0" standalone="no"?>
<!DOCTYPE svg PUBLIC "-//W3C//DTD SVG 1.1//EN" "http://www.w3.org/Graphics/SVG/1.1/DTD/svg11.dtd" >
<svg xmlns="http://www.w3.org/2000/svg">
<metadata>Generated by IcoMoon</metadata>
<defs>
<font id="gent-icons" horiz-adv-x="512">
<font-face units-per-em="512" ascent="480" descent="-32" />
<missing-glyph horiz-adv-x="512" />
<glyph unicode="&#x20;" d="" horiz-adv-x="256" />
<glyph unicode="&#x3d;" d="M514.012 418.281c0-27.718-22.476-50.194-50.194-50.194h-413.608c-27.718 0-50.194 22.476-50.194 50.194v0c0 27.718 22.476 50.194 50.194 50.194h413.608c27.718 0 50.194-22.476 50.194-50.194v0zM514.012 225.537c0-27.718-22.476-50.194-50.194-50.194h-413.608c-27.718 0-50.194 22.476-50.194 50.194v0c0 27.718 22.476 50.194 50.194 50.194h413.608c27.718 0 50.194-22.476 50.194-50.194v0zM514.012 32.776c0-27.718-22.476-50.194-50.194-50.194h-413.608c-27.718 0-50.194 22.476-50.194 50.194v0c0 27.718 22.476 50.194 50.194 50.194h413.608c27.718 0 50.194-22.476 50.194-50.194v0z" />
<glyph unicode="&#x3e;" d="M336.449 239.725l-130.511 130.511c-7.839 7.839-20.552 7.839-28.392 0s-7.839-20.552 0-28.392l116.307-116.307-116.307-116.307c-7.839-7.839-7.839-20.552 0-28.392 3.928-3.928 9.058-5.884 14.203-5.884s10.276 1.956 14.203 5.884l130.511 130.511c7.839 7.839 7.839 20.552 0 28.392z" />
<glyph unicode="&#x61;" d="M508.587 20.48l-235.52 419.84c-8.534 17.067-23.893 17.067-34.133 0l-235.52-419.84c-8.534-17.067-1.706-29.014 17.067-29.014h471.040c18.774 0 25.6 13.654 17.067 29.014zM290.134 76.8c0-10.24-8.534-17.067-17.067-17.067h-34.133c-8.534 0-17.066 6.827-17.066 17.067v34.134c0 10.24 8.534 17.067 17.066 17.067h34.133c8.534 0 17.067-8.534 17.067-17.067v-34.134zM290.134 179.2c0-10.24-6.827-17.067-17.067-17.067h-34.133c-8.534 0-17.066 6.827-17.066 17.067v102.4c0 10.24 8.534 17.066 17.066 17.066h34.133c8.534 0 17.067-8.534 17.067-17.066v-102.4z" />
<glyph unicode="&#x62;" d="M271.36 435.2h-32.427v-102.4h32.427zM409.6 174.080l102.4 20.48-8.534 39.254-100.693-20.48zM448.853 346.453l-29.014 27.307-71.68-73.387 27.307-27.306zM109.227 213.333l-100.694 20.48-8.534-39.254 102.4-20.48zM392.534 76.8l-39.254 186.026c-3.413 20.48-22.187 35.84-46.080 35.84h-85.334c-23.893 0-46.080-15.36-51.2-35.84l-34.133-186.026c0-1.707 0 0 0-17.067h-51.2l1.707-51.2h356.693v51.2h-51.2c0 17.067 0 15.36 0 17.067zM257.707 76.8l-1.707 187.733h34.134c18.774 0 30.72-1.707 34.134-17.066l17.067-85.333c0-1.707 17.067-85.334 17.067-85.334h-100.693zM163.84 300.373l-71.68 73.387-29.014-27.306 73.386-73.387z" />
<glyph unicode="&#x63;" d="M269.053 64.903q4.008 3.511 80.317 78.81t89.342 88.846q9.538 9.041 22.844 9.041t22.844-9.282 9.538-22.845-9.538-22.588q-11.046-11.046-86.841-87.339t-79.804-79.804q-34.13-33.634-80.060-45.673t-91.859 0.497-80.558 46.683-47.18 79.804-0.497 91.106 46.186 79.563l174.677 172.673q38.154 38.155 92.356 38.155t92.613-37.898 38.395-91.603-38.154-91.362l-143.56-142.053q-23.598-22.588-57.729-22.588t-57.969 22.844-23.839 54.218 23.598 54.459q8.529 8.529 57.729 58.979t56.222 57.473q9.538 9.538 22.844 9.538t22.588-9.538 9.282-22.845-9.041-22.845q-5.515-5.018-56.478-56.719t-55.965-56.719q-4.521-4.521-4.521-11.046t4.762-11.046 11.286-4.521 11.542 4.521l143.064 143.56q46.186 45.673-0.257 91.603t-92.613-0.257l-176.184-173.17q-34.627-34.627-34.387-81.071t34.13-79.804 80.061-33.634 80.814 33.89z" />
<glyph unicode="&#x65;" d="M256.998 160.786l-225.384 225.384h450.752zM3.511 18.22q-3.511 7.022-3.511 14.556v321.252q0 7.534 3.511 14.556l175.687-175.19zM237.423 134.671q3.014-2.517 7.775-4.008t8.288-1.507h3.511q13.050-0.497 19.574 5.515l35.637 36.135 170.156-170.156h-450.752l170.156 170.156zM510.485 368.6q3.511-7.022 3.511-14.556v-321.252q0-7.534-3.511-14.556l-175.687 175.19z" />
<glyph unicode="&#x68;" d="M334.507 341.333c-23.894 6.827-51.2 11.947-78.507 11.947-121.173 0-221.867-88.747-252.587-117.76-5.12-5.12-5.12-13.653 0-18.773 17.067-17.067 59.733-54.613 117.76-83.626l213.334 208.214zM508.587 235.52c-18.774 17.066-63.147 58.026-121.173 85.334l47.786 46.080h-42.666l-296.96-290.134h40.96l37.547 35.84c25.6-8.534 54.613-13.654 83.626-13.654 121.173 0 221.866 88.746 252.587 117.76 3.413 5.12 3.413 13.654-1.707 18.774zM343.040 208.213c-6.827-32.426-34.133-59.733-68.267-66.56-23.893-5.12-44.374 0-63.147 10.24l37.547 37.546c1.707 0 3.413 0 6.826 0 22.187 0 39.254 17.067 39.254 39.254 0 1.707 0 3.413 0 6.827l37.546 37.547c10.24-20.48 15.36-42.666 10.24-64.853z" />
<glyph unicode="&#x70;" d="M255.282 482.535c-87.275 0-156.353-71.404-156.353-160.89 0-62.362 23.983-92.452 77.047-169.099 64.013-97.022 76.389-178.958 76.389-178.958 1.475-6.749 7.262-6.749 8.705 0 0 0 9.442 81.936 74.866 178.925 30.555 45.882 77.111 106.752 77.111 169.162 0 89.455-71.291 160.858-157.78 160.858zM256.998 260.678c-36.038 0-65.248 29.209-65.248 65.247s29.209 65.248 65.248 65.248c36.038 0 65.248-29.209 65.248-65.248s-29.209-65.247-65.248-65.247z" />
<glyph unicode="&#x73;" d="M502.662 47.653l-122.944 122.944c18.548 30.476 29.209 66.209 29.209 104.492 0 111.129-96.332 207.461-207.494 207.461-111.129 0-201.241-90.112-201.241-201.241 0-111.161 96.3-207.493 207.461-207.493 36.952 0 71.564 10.019 101.334 27.43l123.586-123.618c12.135-12.103 31.726-12.103 43.781 0l30.684 30.652c12.072 12.103 7.679 27.334-4.392 39.405v0zM62.138 281.294c0 76.934 62.362 139.328 139.312 139.328 76.966 0 145.548-68.582 145.548-145.548s-62.362-139.328-139.344-139.328c-76.966 0-145.516 68.582-145.516 145.548z" />
<glyph unicode="&#xe600;" d="M116.067 188.601c10.484 10.741 120.683 115.698 120.683 115.698 5.611 5.755 12.921 8.609 20.248 8.609s14.652-2.853 20.248-8.609c0 0 110.199-104.957 120.668-115.698 10.485-10.741 11.206-30.043 0-41.537-11.174-11.462-26.772-12.36-40.479 0l-100.436 96.332-100.436-96.3c-13.723-12.36-29.322-11.462-40.511 0s-10.484 30.796 0 41.505z" />
<glyph unicode="&#xe601;" d="M397.945 262.473c-10.485-10.741-120.683-115.698-120.683-115.698-5.595-5.755-12.921-8.609-20.248-8.609s-14.653 2.853-20.248 8.609c0 0-110.199 104.957-120.668 115.698-10.484 10.741-11.206 30.043 0 41.537 11.174 11.462 26.772 12.36 40.479 0l100.436-96.332 100.436 96.3c13.723 12.36 29.322 11.463 40.511 0s10.485-30.796 0-41.505z" />
<glyph unicode="&#xe602;" d="M384.896 61.889c3.366 0.497 6.476 2.325 8.529 5.146 2.789 3.815 3.286 8.882 1.283 13.194l-46.17 98.833c-3.014 6.509-10.741 9.314-17.25 6.284s-9.314-10.757-6.284-17.265l36.070-77.271-84.517 11.382c-7.15 0.962-13.675-4.008-14.637-11.125-0.93-7.118 4.056-13.675 11.142-14.604l108.115-14.604c1.25-0.176 2.485-0.144 3.687 0.048zM364.776 122.584l17.202-36.904c1.459-3.11 1.090-6.781-0.898-9.587-1.539-2.036-3.784-3.351-6.204-3.703-0.882-0.144-1.796-0.144-2.693-0.016l-40.367 5.45 32.961 44.776zM316.859 146.647l-20.327-7.935-0.096-19.815-166.982 122.688 20.36 27.75zM115.906 223.549l168.281-123.601-15.871-21.642-168.81 122.96zM161.9 286.103l14.653 19.895 168.778-122.96-15.118-20.552zM84.165 213.69l77.014 104.749-23.774 16.304-76.999-104.733zM47.228 244.213l73.792 100.388-15.422 11.478c-13.707 10.052-33.072 6.99-43.252-6.861l-36.936-50.194c-10.18-13.867-7.326-33.265 6.396-43.333l15.422-11.478zM458.143 399.364c-4.841 4.745-9.763 9.555-14.637 14.476-4.921 4.889-9.715 9.827-14.476 14.653-33.826 34.515-53.978 54.057-74.978 54.057h-158.165c-43.589 0-79.082-35.477-79.082-79.082v-17.298l39.533-27.878v45.192c0 21.818 17.731 39.533 39.533 39.533l144.121 0.080c14.252-3.639 14.060-21.161 14.060-38.7v-60.229c0-10.886 8.882-19.767 19.75-19.767h59.3c19.735 0 39.533-0.096 39.533-19.766v-256.998c0-21.818-17.714-39.533-39.533-39.533h-237.248c-21.819 0-39.533 17.714-39.533 39.533v74.978l-39.533 30.636v-105.615c0-43.589 35.478-79.082 79.082-79.082h237.247c43.589 0 79.082 35.478 79.082 79.082v276.796c0.016 21.001-19.51 41.152-54.058 74.978z" />
<glyph unicode="&#xe603;" d="M504.971 140.699l-163.135-163.135q-9.041-9.041-22.332-9.041t-22.332 9.041l-288.131 288.131q-9.041 9.041-9.041 39.661v144.57q0 13.547 9.539 22.845t22.588 9.282h144.571q31.117 0 40.159-9.041l288.131-287.618q9.041-9.538 9.041-22.588t-9.041-22.091zM128.507 418.281q-26.596 0-45.433-18.821t-18.821-45.432 18.821-45.433 45.433-18.821 45.433 18.821 18.821 45.433-18.821 45.433-45.433 18.821z" />
<glyph unicode="&#xe604;" d="M481.099 28.624h-393.921c-16.593 0-30.123 13.514-30.123 30.139v393.938c0 16.608 13.514 30.123 30.123 30.123h393.921c16.608 0 30.123-13.514 30.123-30.123v-393.921c0-16.64-13.514-30.155-30.123-30.155zM97.102 68.687h374.075v374.075h-374.075v-374.075zM156.498 165.836c-7.054 7.070-7.054 18.613 0 25.698l83.091 83.075c7.054 7.054 7.054 18.613 0 25.666l-57.024 57.040c-7.054 7.054-4.681 12.841 5.339 12.841h181.186c9.971 0 18.163-8.176 18.163-18.147v-181.202c0-9.988-5.772-12.392-12.857-5.339l-57.007 57.024c-7.086 7.086-18.628 7.086-25.731 0l-83.058-83.058c-7.054-7.054-18.613-7.054-25.682 0l-26.419 26.404zM430.649-29.056h-363.654c-37.289 0-67.604 30.331-67.604 67.62v356.505c0 9.49 7.695 17.169 17.169 17.169s17.154-7.679 17.154-17.169v-356.505c0-18.34 14.925-33.281 33.281-33.281h363.654c9.474 0 17.154-7.679 17.154-17.17s-7.695-17.169-17.154-17.169z" />
<glyph unicode="&#xe605;" d="M478.801 391.498v-376.201h-444.601v-34.201h478.801v410.401zM444.601 425.698h-51.3c0-29.071-22.231-51.3-51.3-51.3s-51.3 22.229-51.3 51.3h-119.7c0-29.071-22.23-51.3-51.3-51.3s-51.3 22.229-51.3 51.3h-68.4v-376.201h444.601v376.201zM410.401 83.697h-376.201v256.501h376.201v-256.501zM119.7 408.598c10.26 0 17.099 6.841 17.099 17.101v34.201c0 10.26-6.84 17.099-17.1 17.099s-17.1-6.839-17.1-17.099v-34.201c0-10.26 6.84-17.101 17.1-17.101zM342.002 408.598c10.26 0 17.101 6.841 17.101 17.101v34.201c0 10.26-6.841 17.099-17.101 17.099s-17.101-6.839-17.101-17.099v-34.201c0-10.26 6.841-17.101 17.101-17.101zM102.6 288.898h51.3v-51.3h-51.3v51.3zM205.201 288.898h51.3v-51.3h-51.3v51.3zM290.702 288.898h51.3v-51.3h-51.3v51.3zM102.6 203.398h51.3v-51.3h-51.3v51.3zM205.201 203.398h51.3v-51.3h-51.3v51.3zM290.702 203.398h51.3v-51.3h-51.3v51.3z" />
<glyph unicode="&#xe606;" d="M321.636 172.666c-2.901 0.962-21.13 9.218-9.715 44.342h-0.176c29.722 30.909 52.406 80.733 52.406 129.774 0 75.395-49.553 114.928-107.121 114.928-57.649 0-106.897-39.517-106.897-114.928 0-49.2 22.588-99.25 52.423-130.142 11.671-30.925-9.186-42.387-13.547-43.974-60.294-22.091-131.040-62.362-131.040-102.039v-14.877c0-54.154 103.642-66.401 199.59-66.401 96.076 0 198.435 12.248 198.435 66.401v14.877c0.016 40.912-71.067 80.846-134.375 102.039z" />
<glyph unicode="&#xe607;" d="M496.442 70.931l-84.837-84.838q-17.074-17.57-41.906-17.57t-42.419 17.57l-84.838 84.837q-16.064 16.063-17.073 38.908t13.049 40.415l107.426-107.923q10.036-9.538 23.839-9.538t23.341 9.538l47.18 47.18q9.538 9.538 9.538 23.341t-9.538 23.839l-107.923 107.426q17.57 14.060 40.415 13.049t38.908-17.073l84.838-84.837q17.571-17.57 17.571-42.419t-17.57-41.906zM171.167 311.369q9.538 9.538 22.588 10.036t22.091-8.529l129.004-129.501q9.041-8.529 8.529-21.834t-10.036-22.844-22.588-9.795-22.091 8.288l-129.004 129.501q-9.042 9.041-8.529 22.091t10.036 22.588zM168.153 408.246q-9.538 10.035-23.341 10.035t-23.838-10.035l-46.683-46.683q-10.035-10.036-10.035-23.839t10.035-23.341l107.426-107.426q-17.571-14.060-40.415-13.050t-38.908 17.074l-84.838 84.838q-17.57 17.57-17.57 42.419t17.57 42.419l84.838 84.325q17.073 17.57 41.906 17.57t42.419-17.57l84.838-84.325q16.063-16.56 17.074-39.405t-13.050-40.415z" />
<glyph unicode="&#xe608;" d="M486.39 418.281h-38.154l-61.24-298.663q-2.517-9.538-10.789-16.063t-17.314-6.524h-274.568q-9.538 0-17.827 6.524t-10.789 16.063l-49.184 189.233q-5.018 18.067 1.507 31.63t20.071 13.546l355.895 61.736 9.041 44.68q2.517 9.041 10.789 15.567t17.314 6.524h65.248q13.546 0 22.844-9.282t9.282-22.588-9.538-22.844-22.588-9.538zM149.075 64.903q20.071 0 34.13-14.060t14.060-34.13-14.060-34.13-34.13-14.060-34.13 14.060-14.059 34.13 14.059 34.13 34.13 14.060zM309.709 64.903q20.071 0 34.13-14.060t14.060-34.13-14.060-34.13-34.13-14.060-34.13 14.060-14.060 34.13 14.060 34.13 34.13 14.060z" />
<glyph unicode="&#xe609;" d="M293.726 156.698q0-7.454-5.45-12.905l-128.507-128.507q-5.451-5.45-12.905-5.45t-12.905 5.45l-128.507 128.507q-5.45 5.45-5.45 12.905t5.45 12.905 12.905 5.45h256.998q7.454 0 12.905-5.45t5.45-12.905zM293.726 266.834q0-7.454-5.45-12.905t-12.905-5.451h-256.998q-7.454 0-12.905 5.451t-5.45 12.905 5.45 12.905l128.507 128.507q5.451 5.451 12.905 5.451t12.905-5.451l128.507-128.507q5.45-5.45 5.45-12.905z" horiz-adv-x="289" />
<glyph unicode="&#xe60a;" d="M481.885 193.41h-256.998q-13.547 0-22.845 9.538t-9.282 22.845 9.282 22.588 22.845 9.282h256.998q13.546 0 22.844-9.282t9.282-22.588-9.282-22.845-22.844-9.538zM481.885 386.155h-256.998q-13.547 0-22.845 9.538t-9.282 22.844 9.282 22.588 22.845 9.282h256.998q13.546 0 22.844-9.282t9.282-22.588-9.282-22.844-22.844-9.538zM64.254-31.477q-26.596 0-45.432 18.821t-18.821 45.433 18.821 45.433 45.432 18.821 45.433-18.821 18.821-45.433-18.821-45.433-45.433-18.821zM64.254 161.283q-26.596 0-45.432 18.821t-18.821 45.433 18.821 45.433 45.432 18.821 45.433-18.821 18.821-45.433-18.821-45.433-45.433-18.821zM64.254 354.028q-26.596 0-45.432 18.821t-18.821 45.433 18.821 45.433 45.432 18.821 45.433-18.821 18.821-45.433-18.821-45.433-45.433-18.821zM224.871 64.903h256.998q13.546 0 22.844-9.282t9.282-22.844-9.282-22.844-22.844-9.282h-256.998q-13.547 0-22.845 9.282t-9.282 22.844 9.282 22.844 22.845 9.282z" />
<glyph unicode="&#xe60b;" d="M288.596 187.527c-40.688-40.704-87.82-79.612-106.448-60.967-26.676 26.644-43.092 49.889-101.895 2.645s-13.642-78.746 12.2-104.604c29.818-29.786 140.947-1.571 250.81 108.275 109.815 109.846 138.094 220.991 108.243 250.81-25.827 25.858-57.312 70.986-104.572 12.2s-24.031-75.219 2.645-101.895c18.58-18.661-20.296-65.76-60.983-106.48z" />
<glyph unicode="&#xe60c;" d="M256.998 450.408c141.941 0 256.998-93.494 256.998-208.808s-115.057-208.808-256.998-208.808c-13.626 0-27.013 0.865-40.062 2.533-55.212-55.212-121.1-65.103-184.809-66.562v13.514c34.403 16.849 64.254 47.549 64.254 82.642 0 4.889-0.385 9.699-1.090 14.396-58.13 38.283-95.29 96.749-95.29 162.285 0 115.329 115.056 208.808 256.998 208.808z" />
<glyph unicode="&#xe60d;" d="M428.341 482.535h-342.67c-47.116 0-85.671-38.555-85.671-85.672v-342.653c0-47.148 38.556-85.671 85.671-85.671h342.67c47.116 0 85.655 38.523 85.655 85.671v342.653c0 47.116-38.539 85.671-85.656 85.671zM436.998 225.537h-83.62v-224.871h-96.38v224.871h-46.442v73.567h46.442v47.774c0 64.927 28.007 103.53 104.348 103.53h87.964v-79.596h-71.853c-21.322 0.032-23.967-11.125-23.967-31.886l-0.112-39.838h96.38l-12.761-73.568z" />
<glyph unicode="&#xe60e;" d="M514.012 289.79h-192.745v192.744h-128.507v-192.744h-192.744v-128.507h192.744v-192.744h128.507v192.745h192.745z" />
<glyph unicode="&#xe60f;" d="M514.012 384.952c-18.917-8.385-39.228-14.060-60.567-16.609 21.77 13.050 38.491 33.714 46.363 58.338-20.376-12.088-42.948-20.857-66.963-25.586-19.238 20.488-46.651 33.297-76.966 33.297-58.242 0-105.454-47.212-105.454-105.454 0-8.272 0.93-16.32 2.726-24.031-87.643 4.392-165.347 46.378-217.352 110.183-9.073-15.582-14.284-33.682-14.284-53.016 0-36.583 18.613-68.87 46.908-87.771-17.282 0.545-33.553 5.291-47.758 13.194-0.016-0.433-0.016-0.881-0.016-1.33 0-51.092 36.359-93.719 84.597-103.402-8.85-2.404-18.163-3.703-27.782-3.703-6.797 0-13.402 0.658-19.847 1.892 13.418-41.89 52.358-72.382 98.513-73.231-36.087-28.279-81.567-45.144-130.976-45.144-8.512 0-16.913 0.497-25.153 1.475 46.667-29.914 102.103-47.389 161.66-47.389 193.963 0 300.042 160.682 300.042 300.042 0 4.569-0.096 9.122-0.305 13.643 20.6 14.861 38.491 33.441 52.631 54.587z" />
<glyph unicode="&#xe610;" d="M130.463 397.729c0-27.317-20.168-49.44-53.352-49.44-31.229 0-51.397 22.123-51.397 49.44 0 27.959 20.84 49.441 52.711 49.441s51.397-21.482 52.038-49.441zM28.328-8.953v318.173h98.897v-318.173h-98.897zM186.412 207.726c0 39.678-1.315 72.863-2.629 101.494h85.896l4.569-44.263h1.956c13.002 20.841 44.904 51.397 98.256 51.397 65.055 0 113.855-43.589 113.855-137.292v-188.048h-98.897v176.328c0 40.992-14.348 68.983-50.114 68.983-27.317 0-43.557-18.869-50.739-37.080-2.613-6.509-3.271-15.599-3.271-24.721v-183.495h-98.897v216.712z" />
<glyph unicode="&#xe611;" d="M290.702-27.453h-68.4v188.101h-34.2v153.901c0 35.91 15.39 51.3 51.3 51.3h34.2c35.91 0 51.3-15.39 51.3-51.3v-153.901h-34.2v-188.101zM256.501 389.788c-27.359 0-47.88 22.229-47.88 47.88s20.52 47.88 47.88 47.88 47.88-22.231 47.88-47.88c0-27.361-20.52-47.88-47.88-47.88zM102.6-27.453h-68.4v188.101h-34.2v153.901c0 35.91 15.39 51.3 51.3 51.3h34.2c35.91 0 51.3-15.39 51.3-51.3v-153.901h-34.2v-188.101zM68.4 389.788c-27.359 0-47.88 22.229-47.88 47.88s20.52 47.88 47.88 47.88 47.88-22.231 47.88-47.88c0-27.361-20.52-47.88-47.88-47.88zM478.801-27.453h-68.401v188.101h-34.2v153.901c0 35.91 15.39 51.3 51.3 51.3h34.2c35.91 0 51.3-15.39 51.3-51.3v-153.901h-34.2v-188.101zM444.601 389.788c-27.36 0-47.88 22.229-47.88 47.88s20.52 47.88 47.88 47.88 47.88-22.231 47.88-47.88c0-27.361-20.52-47.88-47.88-47.88z" />
<glyph unicode="&#xe612;" d="M253.082 434.249c-85.501 0-153.9-68.401-153.9-153.901 0-102.6 153.9-256.501 153.9-256.501s153.9 153.9 153.9 256.501c0 85.501-68.4 153.9-153.9 153.9zM253.082 210.237c-44.461 0-80.371 35.91-80.371 80.371s35.91 80.371 80.371 80.371 80.371-35.91 80.371-80.371c0-44.46-35.91-80.371-80.371-80.371z" />
<glyph unicode="&#xe613;" d="M330.031 312.837c17.101 0 30.78-13.681 30.78-32.49 0-17.1-13.68-32.49-30.78-32.49h-114.57c-1.71-6.84-1.71-13.68-1.71-18.81 0-6.841 0-13.68 1.71-18.81h114.57c17.101 0 30.78-13.68 30.78-32.49 0-17.101-13.68-32.49-30.78-32.49h-95.76c29.070-54.72 85.5-90.631 145.35-90.631h6.841c13.68 0 23.941-11.971 23.941-29.071s-10.26-32.49-22.231-34.2v0h-8.55c-94.050 0-179.55 61.56-212.040 155.611h-34.2c-17.1 0-30.78 13.68-30.78 32.49 0 17.101 13.68 32.49 30.78 32.49h20.52c-1.71 6.841-1.71 11.97-1.71 18.81s0 11.97 1.71 18.81v0h-20.52c-17.1-1.71-30.78 13.68-30.78 30.78s13.68 32.489 30.78 32.489h34.2c34.2 92.34 117.99 155.611 212.040 155.611h6.841c13.68-1.711 23.941-17.101 23.941-34.201s-8.55-29.070-20.52-29.070h-10.26c-59.85 0-116.28-35.91-145.35-90.631h95.76z" />
<glyph unicode="&#xe614;" d="M273.067 17.067h-34.133l-238.934 34.133v341.334h34.133v-310.613l204.8-30.72h34.133l204.8 29.014v312.32h34.133v-341.334l-238.933-34.134zM273.067 390.827c61.44 34.134 170.667 35.84 170.667 35.84v-307.2c0 0-109.226 0-170.667-35.84v307.2zM68.266 426.667c0 0 109.227 0 170.666-35.84v-305.493c-61.44 34.134-170.667 34.134-170.667 34.134v307.2z" />
<glyph unicode="&#xe615;" d="M51.3 434.249v-307.801h307.801v307.801h-307.801zM324.901 160.647h-239.401v239.401h239.401v-239.401zM427.501 194.847v171.001h-34.2l51.3 68.401 51.3-68.401h-34.201v-171.001h34.201l-51.3-68.4-51.3 68.4zM290.702 23.847h-171.001v-34.2l-68.4 51.3 68.4 51.3v-34.201h171.001v34.201l68.4-51.3-68.4-51.3z" />
<glyph unicode="&#xe616;" d="M148.77 145.257l68.4 68.4c-1.71 3.42-1.71 8.55-1.71 11.97 0 17.101 10.26 32.491 25.65 39.331v169.291c0 8.55 8.55 17.101 17.099 17.101-124.831 0-224.011-99.181-224.011-222.301 0-61.56 25.65-116.28 64.98-157.321l47.879 47.88c-6.84 8.55-5.13 18.81 1.71 25.65zM256.501 485.549c-17.1 0-34.2-1.711-51.3-5.13s-32.49-8.551-47.88-15.39c-23.94-8.55-44.461-22.231-63.27-37.62s-35.91-34.2-49.59-54.72c-29.071-41.040-44.46-90.631-44.46-143.641 0-27.361 3.42-53.010 11.97-76.95 11.97-39.33 34.2-75.241 63.27-104.31 5.13-5.13 11.971-11.971 18.809-17.101 11.971-10.26 25.65-20.52 41.040-27.36 6.84-3.42 15.39-6.841 22.23-10.26 15.39-6.841 30.78-11.971 47.88-15.39s34.2-5.13 51.3-5.13c141.931 0 256.501 114.57 256.501 256.501s-114.57 256.501-256.501 256.501zM256.501 182.878c-5.13 0-10.26 1.711-15.39 3.42l-66.69-66.69c-6.84-6.841-18.81-6.841-25.65 0 0 0 0 0 0 0l-47.88-47.88c-41.040 41.040-66.691 95.761-66.691 157.321 0 123.12 99.18 222.3 222.301 222.3 8.55 0 17.101-8.55 17.101-17.1v-169.291c15.39-6.84 25.65-22.23 25.65-39.331 0-23.941-18.81-42.75-42.75-42.75z" />
<glyph unicode="&#xe617;" d="M443.733-17.067h-443.733v477.866h512v-409.6l-68.267-68.267zM153.6 17.067h204.8v119.466h-204.8v-119.466zM409.6 426.667h-307.2v-204.8h307.2v204.8zM187.733 102.4h68.267v-51.2h-68.267v51.2z" />
<glyph unicode="&#xe618;" d="M503.466 324.267l-3.413-1.707-46.080-46.080-143.36 143.36 46.080 46.080 1.707 3.413c11.947 11.947 34.134 11.947 46.080-1.707l95.574-95.573c15.36-13.654 15.36-34.134 3.413-47.787zM119.466 133.12l213.333 216.747 47.786-47.787-215.040-216.746 23.893-23.894 213.333 215.040 23.894-23.893-237.226-238.934-143.36 143.36 237.226 238.933 23.894-23.894-211.626-215.040 23.894-23.894zM167.254-10.24l-167.254-23.894 23.893 167.254 143.36-143.36z" />
<glyph unicode="&#xe619;" d="M380.587 187.733c-15.36 0-27.307 11.947-27.307 27.307s11.947 27.306 27.307 27.306c15.36 0 27.307-11.946 27.307-27.306-1.707-15.36-13.654-27.307-27.307-27.307zM343.040 278.187c-6.827 0-13.654 3.413-18.774 8.534-10.24 10.24-10.24 27.306 0 37.546 5.12 5.12 11.947 8.534 18.774 8.534s13.654-3.413 18.774-8.534c10.24-10.24 10.24-27.306 0-37.546-5.12-6.827-11.947-8.534-18.774-8.534zM252.587 298.667c-23.893 0-42.666 18.774-42.666 42.666s18.774 42.666 42.666 42.666c23.894 0 42.666-18.773 42.666-42.666s-18.774-42.666-42.666-42.666zM163.84 97.28c-6.827 0-13.654 3.413-18.773 8.534-10.24 10.24-10.24 27.307 0 37.546 5.12 5.12 11.947 8.534 18.774 8.534s13.654-3.413 18.774-8.534c10.24-10.24 10.24-27.306 0-37.546-5.12-5.12-11.947-8.534-18.774-8.534zM163.84 278.187c-6.827 0-13.654 3.413-18.773 8.534-10.24 10.24-10.24 27.306 0 37.546 5.12 5.12 11.947 8.534 18.774 8.534s13.654-3.413 18.774-8.534c10.24-10.24 10.24-27.306 0-37.546-5.12-6.827-11.947-8.534-18.774-8.534zM151.893 213.333c0-15.36-11.946-27.307-27.306-27.307s-27.306 11.947-27.306 27.307 11.947 27.306 27.306 27.306c15.36 0 27.306-11.946 27.306-27.306zM252.587 112.64c15.36 0 27.307-11.947 27.307-27.307s-11.947-27.307-27.306-27.307c-15.36 0-27.306 11.947-27.306 27.307 1.707 15.36 13.654 27.307 27.306 27.307zM343.040 150.187c6.827 0 13.654-3.413 18.774-8.534 10.24-10.24 10.24-27.306 0-37.546-5.12-5.12-11.947-8.534-18.774-8.534s-13.654 3.413-18.774 8.534c-10.24 10.24-10.24 27.307 0 37.546 5.12 5.12 11.947 8.534 18.774 8.534z" />
<glyph unicode="&#xe61a;" d="M369.281 381.867c12.916 0 23.932-4.557 33.047-13.672s13.672-20.13 13.672-33.047v-226.563c0-12.916-4.557-23.932-13.672-33.047s-20.13-13.672-33.047-13.672h-226.563c-12.916 0-23.932 4.557-33.047 13.672s-13.672 20.13-13.672 33.047v226.563c0 12.916 4.557 23.932 13.672 33.047s20.13 13.672 33.047 13.672h226.563zM256 281.867c-16.563 0-30.703-5.86-42.422-17.578s-17.578-25.86-17.578-42.422c0-16.563 5.859-30.703 17.578-42.422s25.859-17.578 42.422-17.578c16.563 0 30.703 5.86 42.422 17.578s17.578 25.86 17.578 42.422c0 16.563-5.86 30.703-17.578 42.422s-25.86 17.578-42.422 17.578zM382.719 101.867v140h-35.469c1.354-6.146 2.031-12.813 2.031-20 0-16.875-4.166-32.474-12.5-46.797s-19.661-25.651-33.984-33.985c-14.323-8.334-29.922-12.5-46.797-12.5s-32.474 4.166-46.797 12.5c-14.323 8.334-25.651 19.661-33.984 33.985s-12.5 29.922-12.5 46.797c0 7.188 0.677 13.854 2.031 20h-35.469v-140c0-1.875 0.651-3.464 1.953-4.765s2.891-1.953 4.766-1.953h240c1.875 0 3.464 0.651 4.765 1.953s1.953 2.89 1.953 4.765zM382.719 301.867v40c0 1.875-0.651 3.464-1.953 4.765s-2.89 1.953-4.765 1.953h-40c-1.875 0-3.464-0.651-4.765-1.953s-1.953-2.89-1.953-4.765v-40c0-1.875 0.651-3.464 1.953-4.765s2.89-1.953 4.765-1.953h40c1.875 0 3.464 0.651 4.765 1.953s1.953 2.89 1.953 4.765z" />
<glyph unicode="&#xe61b;" d="M416 308.586v-13.438h-53.281v-53.281h-13.438v53.281h-53.281v13.438h53.281v53.281h13.438v-53.281h53.281zM234.906 199.679c10.834-7.916 18.411-15.938 22.735-24.063s6.485-18.281 6.485-30.469c0-7.709-1.849-15.13-5.547-22.265s-8.906-13.541-15.625-19.219c-6.719-5.677-15.391-10.235-26.016-13.672s-22.396-5.156-35.313-5.156c-15.521 0-29.739 1.953-42.656 5.86s-23.308 9.661-31.172 17.265c-7.864 7.604-11.797 16.302-11.797 26.094 0 15.729 8.047 29.74 24.141 42.031s35.442 18.438 58.047 18.438h14.531c-7.396 7.188-11.094 14.844-11.094 22.969 0 5.729 1.354 10.989 4.063 15.781-1.771-0.208-4.375-0.313-7.813-0.313-18.75 0-34.063 5.833-45.938 17.5s-17.813 26.094-17.813 43.281c0 10.729 3.438 20.86 10.313 30.39s15.938 17.084 27.188 22.657c11.25 5.573 23.073 8.359 35.469 8.359h83.75l-18.906-13.594h-26.719c8.541-3.229 15.183-9.297 19.922-18.203s7.109-18.932 7.109-30.078c0-16.979-7.864-31.511-23.594-43.594-6.563-5.313-10.859-9.505-12.891-12.578s-3.047-6.901-3.047-11.484c0-3.542 2.474-7.942 7.422-13.203s9.87-9.505 14.766-12.735zM190.063 241.554c10.729-0.417 19.245 4.271 25.547 14.063s8.516 21.771 6.641 35.938c-1.771 14.166-7.136 26.25-16.094 36.25s-18.906 15.156-29.844 15.469c-10.729 0.416-19.245-4.166-25.547-13.75s-8.516-21.406-6.641-35.469c1.875-14.166 7.317-26.38 16.328-36.64s18.88-15.547 29.609-15.86zM181.625 98.117c21.25 0 36.666 3.985 46.25 11.953s14.375 18.567 14.375 31.797c0 1.771-0.208 4.635-0.625 8.594-0.625 2.188-1.589 4.349-2.891 6.485s-2.448 3.88-3.438 5.235c-0.989 1.354-2.891 3.151-5.703 5.39s-4.766 3.776-5.859 4.61c-1.094 0.834-3.698 2.683-7.813 5.547s-6.797 4.714-8.047 5.547c-6.042 1.771-12.969 2.916-20.781 3.438-10.625 0-20.599-1.953-29.922-5.86s-16.797-9.245-22.422-16.015c-5.625-6.771-8.438-14.063-8.438-21.875 0-12.396 5.234-22.969 15.703-31.719s23.672-13.125 39.609-13.125z" />
<glyph unicode="&#xf600;" d="M461.702 311.128c0 1.71 0 1.71 0 3.42 0 34.2-25.65 61.56-58.139 63.27-11.971 13.679-29.071 22.23-47.88 22.23-22.231 0-42.75-11.971-54.72-29.070-8.55 5.13-20.52 8.551-30.78 8.551-35.91-1.711-64.98-29.071-64.98-64.98 0-1.711 0-1.711 0-3.419-25.65-8.551-42.75-32.49-42.75-59.85 0-1.71 0-3.419 0-3.419h-153.9v-34.201h34.2v-17.101h-34.2v-17.101h34.2v-34.201h153.9v34.201h34.2v8.55c10.26 0 18.81 3.42 27.36 8.55 10.26-5.13 20.52-8.55 32.49-8.55 6.841 0 15.39 1.711 20.52 3.42v-111.15h-20.52v-22.231h85.501v20.52h-20.52v106.020c3.42 0 6.841 0 10.26 1.711 3.42 0 6.841-1.711 10.26-1.711 11.971 0 22.231 3.42 32.49 8.55 10.26-5.13 20.52-8.55 32.49-8.55 35.91 0 63.27 29.071 63.27 63.27 0 30.78-18.81 54.72-42.75 63.27zM59.85 211.947h116.281c1.71-1.711 1.71-3.42 3.419-5.13v-11.971h-119.7v17.101zM179.55 160.647h-119.7v17.101h119.7v-17.101zM179.55 126.447h-171.001v-17.101h17.101v-51.3h34.2v51.3h17.1v-34.201h17.1v34.201h51.3v-34.201h17.1v34.201h17.1v-51.3h34.2v51.3h17.1v17.101h-17.1z" />
<glyph unicode="&#xf601;" d="M470.252 146.967l-181.26 100.891c0 10.26 6.841 20.52 15.39 25.65 29.071 17.101 47.88 47.88 47.88 82.080 0 53.010-42.75 95.761-95.761 95.761s-95.76-42.75-95.76-95.761c0-17.099 13.68-32.489 32.49-32.489s32.49 13.68 32.49 32.489c0 17.1 13.68 32.49 32.49 32.49s32.49-13.68 32.49-32.49c0-11.97-6.841-22.229-15.39-27.359-29.070-17.101-47.88-47.88-47.88-80.371l-182.97-102.601c-27.36-15.39-44.46-46.17-44.46-75.241 0-34.2 29.071-63.271 63.27-63.271h384.752c35.91 0 63.271 29.071 63.271 63.27 1.711 29.071-15.39 59.85-41.040 76.951zM64.98 70.017c0 6.841 6.84 18.81 10.26 20.52l181.26 102.601 179.55-100.89c5.13-3.42 11.971-15.39 11.971-22.231h-383.041z" />
<glyph unicode="&#xf602;" d="M379.622 487.258h-256.501c-35.91 0-63.27-29.070-63.27-64.98v-384.752c0-35.91 29.070-63.27 63.27-63.27h256.501c35.91 0 63.271 29.071 63.271 63.27v384.752c1.711 35.91-27.36 64.98-63.27 64.98zM418.952 37.527c0-20.52-17.101-37.62-37.62-37.62h-256.501c-20.52 0-37.62 17.101-37.62 37.62v384.752c0 20.52 17.1 37.62 37.62 37.62h256.501c20.52 0 37.62-17.101 37.62-37.62v-384.752zM270.182 299.158c-1.711 3.42-3.42 6.84-6.841 8.55s-8.55 3.419-13.68 3.419h-17.1v-75.241h15.39c6.84 0 11.971 1.71 15.39 3.419s6.841 5.13 8.55 6.84c1.711 3.419 3.42 6.84 3.42 11.971s0 10.26 0 15.39c0 5.13 0 10.26 0 15.39-1.711 3.419-3.42 6.841-5.13 10.26zM365.94 435.958h-227.431c-18.809 0-34.2-15.39-34.2-34.201v-342.002c0-18.81 15.39-34.201 34.2-34.201h227.431c18.81 0 34.201 15.39 34.201 34.201v342.002c0 18.81-15.39 34.201-34.201 34.201zM300.961 247.858c-1.711-6.84-3.42-13.68-6.841-18.81-5.13-6.84-10.26-11.97-17.101-17.1s-17.101-6.841-29.070-6.841h-15.39v-85.501h-30.78v220.591h47.88c8.549 0 15.39-1.711 22.23-3.419s11.971-6.841 17.101-11.971c5.13-5.13 8.55-11.971 10.26-20.52 1.711-6.841 3.42-18.811 3.42-30.78 0-10.26 0-18.81-1.711-25.65z" />
<glyph unicode="&#xf603;" d="M343.712 76.857c-8.55 5.13-20.52 3.42-25.65-6.841-23.941-37.62-63.27-59.85-107.731-59.85-70.111 0-126.54 58.139-126.54 128.25 0 41.040 20.52 80.371 53.009 104.31 8.55 6.84 10.26 17.101 3.419 25.65s-17.1 10.26-25.65 5.13c-42.749-30.78-68.4-82.081-68.4-135.091 0-90.631 73.529-165.871 164.161-165.871 56.43 0 109.44 29.071 138.51 78.661 6.841 8.55 5.13 20.52-5.13 25.65zM473.672 64.887c-3.42 10.26-13.68 15.39-23.941 11.971l-22.231-8.55c0 0-41.040 116.28-42.75 117.99 0 0-1.711 1.711-1.711 3.42-5.13 8.55-15.39 15.39-25.65 15.39h-97.471l-1.711 35.91h80.371c10.26 0 18.81 8.55 18.81 18.809s-8.55 18.81-18.81 18.81h-82.080l-3.419 53.010c0 0 0 1.71 0 1.71-1.71 25.65-23.94 46.17-49.59 44.461s-46.17-23.941-44.461-49.591v0 0l6.84-138.51c0 0 0 0 0 0 1.71-25.65 22.23-44.46 46.17-44.46 0 0 126.54 0 126.54 0l37.62-104.31c3.42-11.971 15.39-18.81 25.65-18.81 1.711 0 3.42 0 5.13 0s1.711 0 3.42 1.711l49.59 18.81c11.971 1.711 17.101 13.68 13.68 22.231zM206.177 400.612c-23.577-1.24-43.695 16.87-44.934 40.447s16.87 43.695 40.447 44.935c23.577 1.239 43.695-16.87 44.934-40.447s-16.87-43.695-40.447-44.935z" />
<glyph unicode="&#xf604;" d="M0 88.827h513.002v-17.101h-513.002v17.101zM222.301 71.727h68.399c18.81 0 34.2 15.39 34.2 34.201h-136.801c0-18.81 15.39-34.201 34.2-34.201zM393.302 71.727h68.4c18.81 0 34.2 15.39 34.2 34.201h-136.801c0-18.81 15.39-34.201 34.201-34.201zM290.702 259.828h-68.4c-18.81 0-34.2-15.39-34.2-34.201v-102.6h136.801v102.601c0 18.81-15.39 34.201-34.201 34.201zM282.151 229.048h-53.010c-5.13 0-8.55 3.419-8.55 8.55s3.419 8.55 8.55 8.55h53.010c5.13 0 8.55-3.419 8.55-8.55s-3.42-8.55-8.55-8.55zM461.702 259.828h-68.4c-18.81 0-34.201-15.39-34.201-34.201v-102.6h136.801v102.601c0 18.81-15.39 34.201-34.201 34.201zM453.152 229.048h-53.010c-5.13 0-8.55 3.419-8.55 8.55s3.42 8.55 8.55 8.55h53.010c5.13 0 8.55-3.419 8.55-8.55s-3.42-8.55-8.55-8.55zM273.601 225.627h136.801v-17.1h-136.801v17.101zM0 88.827h17.101v-51.3h-17.101v51.3zM495.901 88.827h17.1v-51.3h-17.101v51.3zM51.3 71.727h68.4c18.81 0 34.2 15.39 34.2 34.201h-136.801c0-18.81 15.39-34.201 34.2-34.201zM119.7 259.828h-68.4c-18.809 0-34.2-15.39-34.2-34.201v-102.6h136.801v102.601c0 18.81-15.39 34.201-34.2 34.201zM111.15 229.048h-51.3c-5.13 0-8.55 3.419-8.55 6.84 0 5.13 3.419 8.55 8.55 8.55h53.010c5.13 0 8.55-3.419 8.55-8.55-1.71-3.419-5.13-6.84-10.26-6.84zM102.6 225.627h136.801v-17.1h-136.801v17.101zM393.302 268.378h17.101v59.85c0 18.81-15.39 34.2-34.201 34.2h-68.4c-18.81 0-34.2-15.39-34.2-34.2v-59.85h17.101c23.941 0 42.75-18.81 42.75-42.75v-17.101h17.101v17.101c0 23.941 18.81 42.75 42.75 42.75zM316.351 331.648c-5.13 0-8.55 3.42-8.55 6.84 0 5.13 3.42 8.551 8.55 8.551h53.010c5.13 0 8.55-3.42 8.55-8.551-1.711-3.419-5.13-6.84-10.26-6.84h-51.3zM222.301 268.378h17.1v59.85c0 18.81-15.39 34.2-34.2 34.2h-68.399c-18.809 0-34.2-15.39-34.2-34.2v-59.85h17.1c23.941 0 42.749-18.81 42.749-42.75v-17.101h17.1v17.101c0 23.941 18.81 42.75 42.749 42.75zM145.35 331.648c-5.13 0-8.55 3.42-8.55 6.84 0 5.13 3.419 8.551 8.55 8.551h53.010c5.13 0 8.55-3.42 8.55-8.551-1.71-3.419-5.13-6.84-10.26-6.84h-51.3z" />
<glyph unicode="&#xf605;" d="M205.201 417.148h17.1v-393.302h-17.1v393.302zM489.061 196.557l-47.88 73.531-18.81-37.62 66.69-109.441h-61.56l-10.26-99.18h-47.88l-10.26 99.18h-61.56l66.69 109.44-18.81 37.62-47.88-73.531h-23.941l39.33 100.891c5.13 13.68 18.81 22.229 32.49 22.229h23.941l23.941-49.59 23.941 49.59h23.941c13.68 0 27.36-8.55 32.49-22.229l39.331-100.891h-23.941zM393.302 343.618c-20.52 0-35.91 17.101-35.91 37.62 0 18.81 15.39 35.91 35.91 35.91s35.91-17.101 35.91-37.62c0-18.81-15.39-35.91-35.91-35.91zM104.309 170.907l-13.68-147.061h-44.46l-13.681 147.061h-32.489v129.961c10.26 5.13 22.23 10.26 35.91 13.68l32.489-70.111 32.489 70.111c13.68-3.42 25.65-6.84 35.91-13.68v-129.961h-32.49zM68.4 343.618c-18.809 0-34.2 17.101-34.2 37.62 0 18.81 15.39 35.91 34.2 35.91s34.2-17.101 34.2-37.62c0-18.81-15.39-35.91-34.2-35.91z" />
<glyph unicode="&#xf606;" d="M0 485.549v-513.002h513.002v513.002h-513.002zM347.132 134.997c0 0-102.601-111.15-135.091-124.831 0 0-123.121 100.89-160.741 162.452s-49.59 117.99 22.23 155.611c73.531 39.33 133.381-35.91 138.511-51.3 0 0 54.72 99.18 152.19 42.75 99.18-58.139-17.101-184.68-17.101-184.68zM478.801 382.948h-51.3v-51.3h-34.2v51.3h-51.3v34.201h51.3v51.3h34.201v-51.3h51.3v-34.201zM153.9 314.548v-188.101l59.85 44.46-6.84-95.761-22.23 6.841 27.359-54.72 39.331 46.17h-18.81l23.941 155.611-68.4-34.201v85.501l-34.2 34.201z" />
<glyph unicode="&#xf607;" d="M379.087 78.402l-17.101 29.618 14.808 8.55 17.101-29.618-14.808-8.55zM344.325 137.34l-17.101 29.618 14.808 8.55 17.101-29.618-14.808-8.55zM311.101 197.12l-17.101 29.618 14.808 8.55 17.101-29.618-14.808-8.55zM291.254 264.542l-14.808-8.55-17.101 29.618 14.808 8.55 17.101-29.618zM465.48 171.109l12.094 12.089 24.179-24.186-12.094-12.089-24.179 24.186zM442.275 194.945l-24.182 24.182 12.091 12.091 24.182-24.183-12.091-12.091zM393.918 244.030l-24.186 24.182 12.091 12.093 24.186-24.182-12.091-12.094zM333.524 327.242l24.186-24.179-12.089-12.094-24.186 24.179 12.089 12.094zM280.757 35.071l-8.851 33.034 16.517 4.425 8.851-33.034-16.517-4.425zM253.938 133.816l16.517 4.426 8.854-33.034-16.517-4.426-8.855 33.034zM237.105 198.995l16.517 4.426 8.855-33.034-16.517-4.426-8.855 33.034zM218.168 265.373l16.517 4.427 8.855-33.035-16.517-4.427-8.855 33.034zM164.161 49.497h17.1v-34.2h-17.1v34.201zM164.161 117.897h17.1v-34.201h-17.1v34.201zM164.161 186.297h17.1v-34.2h-17.1v34.201zM164.161 254.698h17.1v-34.201h-17.1v34.201zM290.702 422.278l-53.010-30.78c-18.81 41.040-59.85 68.401-107.731 68.401-66.691 0-119.7-53.011-119.7-119.701v-342.002h68.4v342.002c0 29.071 22.23 51.3 51.3 51.3 22.23 0 41.040-13.68 47.88-34.2l-63.27-37.619 25.65-44.461 177.841 102.6-27.361 44.46z" />
<glyph unicode="&#xf60a;" d="M119.7 417.148c10.26 0 17.099 6.841 17.099 17.101v34.201c0 10.26-6.84 17.1-17.1 17.1s-17.1-6.839-17.1-17.1v-34.201c0-10.26 6.84-17.101 17.1-17.101zM342.002 417.148c10.26 0 17.101 6.841 17.101 17.101v34.201c0 10.26-6.841 17.1-17.101 17.1s-17.101-6.839-17.101-17.1v-34.201c0-10.26 6.841-17.101 17.101-17.101zM102.6 297.447h51.3v-51.3h-51.3v51.3zM205.201 297.447h51.3v-51.3h-51.3v51.3zM290.702 297.447h51.3v-51.3h-51.3v51.3zM102.6 211.947h51.3v-51.3h-51.3v51.3zM205.201 211.947h51.3v-51.3h-51.3v51.3zM34.2 23.847h290.702v-34.2h-290.702v34.201zM478.801 400.048h34.201v-222.3h-34.201v222.301zM34.2 348.748h376.201v-171.001h34.201v256.501h-51.3c0-29.070-22.231-51.3-51.3-51.3s-51.3 22.231-51.3 51.3h-119.7c0-29.070-22.23-51.3-51.3-51.3s-51.3 22.231-51.3 51.3h-68.4v-376.201h324.901v34.201h-290.702v256.501zM427.501 160.647c-47.88 0-85.501-37.62-85.501-85.501s37.62-85.501 85.501-85.501 85.501 37.62 85.501 85.501c0 47.88-37.62 85.501-85.501 85.501zM478.801 58.047h-34.201v-34.2h-34.201v34.201h-34.201v34.201h34.201v34.201h34.201v-34.201h34.201v-34.201zM290.702 211.947h51.3v-51.3h-51.3v51.3z" />
<glyph unicode="&#xf60b;" d="M417.241 198.268c0-34.201-29.071-63.271-63.27-63.271h-193.231c-35.91 0-63.27 27.36-63.27 63.27v218.881h319.771v-30.78c53.010 0 95.761-42.75 95.761-94.049 0-53.010-42.75-94.051-95.76-94.051zM160.741 386.368h-32.49v-188.101c0-17.101 13.68-30.78 32.49-30.78v218.881zM417.241 353.878v-124.831c35.91 0 63.27 27.361 63.27 63.271 0 34.201-29.071 61.56-63.27 61.56zM513.002 71.727c0-17.101-13.68-30.78-32.49-30.78h-448.022c-17.101 0-32.489 13.68-32.489 30.78s13.68 30.78 32.489 30.78h448.022c18.81 1.711 32.49-13.68 32.49-30.78z" />
<glyph unicode="&#xf60c;" d="M400.142 261.537c61.56 0 112.86-51.3 112.86-114.571s-49.59-114.57-112.861-114.57c-61.56 0-112.861 51.3-112.861 114.57 0 39.33 20.52 75.241 49.59 95.761l-6.841 11.97-18.81 35.91-1.711 5.13h-116.28c-13.68 0-25.65-8.55-29.070-22.231l-6.84-20.52c39.331-18.81 66.69-58.14 66.69-104.31 0-63.271-49.591-114.57-112.861-114.57s-111.15 49.59-111.15 112.861c0 63.27 49.59 114.57 112.861 114.57 5.13 0 10.26-1.71 15.39-1.71l17.1 56.43c1.71 6.841 8.55 11.971 15.39 11.971h169.291l29.071 64.98h-54.72c-8.55 0-15.39 6.841-15.39 17.101 0 8.55 6.841 17.1 15.39 17.1h80.371c5.13 0 10.26-3.419 13.68-6.84 3.42-5.13 3.42-10.26 1.711-15.39l-5.13-10.26-46.17-100.89 18.81-35.91c10.26 1.711 22.231 3.42 32.49 3.42zM148.77 220.497l-17.1-51.3c-1.71-3.42-3.419-6.841-8.55-10.26-3.419-1.711-8.55-1.711-11.971-1.711-8.55 3.42-11.971 13.68-10.26 22.231l15.39 49.59c-1.71 0-3.419 0-5.13 0-44.46 0-80.37-35.91-80.37-82.081 0-44.46 35.91-82.080 80.37-82.080s80.37 35.91 80.37 82.081c1.71 32.49-17.1 59.85-42.75 73.531zM319.772 146.967c0-44.46 35.91-82.081 80.371-82.081s80.371 35.91 80.371 82.081c0 44.46-35.91 82.081-80.371 82.081-5.13 0-11.971 0-17.101-1.71l39.331-73.531c1.711-3.42 1.711-8.55 1.711-11.971-1.711-3.42-3.42-8.55-8.55-10.26v0c-8.55-3.42-17.101-1.711-20.52 6.841l-41.040 76.95c-20.52-17.101-34.2-41.040-34.2-68.4zM160.741 360.718h-47.88c-8.55 0-15.39 6.841-15.39 17.101 0 8.55 6.84 17.101 15.39 17.101h95.76c3.419 0 5.13-1.711 5.13-3.42 1.71-1.71 0-5.13-1.71-6.841-13.68-15.39-27.359-23.941-51.3-23.941z" />
<glyph unicode="&#xf60d;" d="M497.612 244.438h-15.39v95.761h15.39c8.55 0 15.39-6.841 15.39-15.39v-63.27c0-10.26-6.841-17.1-15.39-17.1zM417.241 52.917v-32.49c0-17.101-13.68-32.49-32.49-32.49h-32.49c-17.101 0-32.49 13.68-32.49 32.49v32.49h-128.25v-32.49c0-17.101-13.68-32.49-32.49-32.49h-30.78c-17.1 0-32.49 13.68-32.49 32.49v32.49c-17.1 0-32.489 13.68-32.489 32.49v287.281c1.709 53.010 44.46 95.761 97.47 95.761h191.521c53.010 0 95.76-42.75 95.76-95.761v-287.281c0-17.101-13.68-32.49-30.78-32.49zM128.25 85.407c17.1 0 32.49 13.68 32.49 32.49 0 17.101-13.68 32.49-32.49 32.49-17.1 0-32.49-13.68-32.49-32.49s15.39-32.49 32.49-32.49zM319.772 435.958h-128.25v-32.49h128.25v32.49zM417.241 372.688h-321.481v-191.521h319.772v191.521zM384.752 148.677c-17.101 0-32.49-13.68-32.49-32.49 0-17.101 13.68-32.49 32.49-32.49 17.101 0 32.49 13.68 32.49 32.49s-15.39 32.49-32.49 32.49zM0 261.537v63.271c0 8.55 6.84 15.39 15.39 15.39h15.39v-95.76h-15.39c-8.55 0-15.39 6.84-15.39 17.1z" />
<glyph unicode="&#xf60e;" d="M256.501 485.549c-141.931 0-256.501-114.57-256.501-256.501s114.571-256.501 256.501-256.501 256.501 114.57 256.501 256.501-114.57 256.501-256.501 256.501zM224.011 37.527v160.74h-159.030l319.772 160.741-160.741-321.482z" />
</font>
</defs>
</svg>
