<svg xmlns="http://www.w3.org/2000/svg" xmlns:xlink="http://www.w3.org/1999/xlink" width="40" height="40" viewBox="0 0 40 40">
    <defs>
        <circle id="b" cx="20" cy="20" r="20"/>
        <filter id="a" width="212.5%" height="212.5%" x="-56.2%" y="-48.8%" filterUnits="objectBoundingBox">
            <feOffset dy="3" in="SourceAlpha" result="shadowOffsetOuter1"/>
            <feGaussianBlur in="shadowOffsetOuter1" result="shadowBlurOuter1" stdDeviation="7"/>
            <feColorMatrix in="shadowBlurOuter1" values="0 0 0 0 0.137254902 0 0 0 0 0.2 0 0 0 0 0.22745098 0 0 0 0.25 0"/>
        </filter>
        <path id="c" d="M16 11.24a3.826 3.826 0 1 0 0 7.652 3.826 3.826 0 0 0 0-7.653m0 2.87c.527 0 .957.43.957.956 0 .527-.43.957-.957.957a.958.958 0 0 1-.957-.957c0-.527.43-.956.957-.956M16 4C9.925 4 5 8.925 5 15c0 8 11 14 11 14s11-6 11-14c0-6.075-4.925-11-11-11m0 2.87c4.483 0 8.13 3.647 8.13 8.13 0 4.393-5.024 8.612-8.13 10.647C12.892 23.61 7.87 19.392 7.87 15c0-4.483 3.647-8.13 8.13-8.13"/>
    </defs>
    <g fill="none" fill-rule="evenodd">
        <use fill="#000" filter="url(#a)" xlink:href="#b"/>
        <use fill="#FFF" xlink:href="#b"/>
        <g transform="translate(4 5)">
            <use fill="#23333A" xlink:href="#c"/>
        </g>
    </g>
</svg>
